<svg xmlns="http://www.w3.org/2000/svg" xmlns:xlink="http://www.w3.org/1999/xlink" width="315" height="577" viewBox="0 0 315 577">
  <defs>
    <clipPath id="clip-path">
      <rect id="Rectángulo_338983" data-name="Rectángulo 338983" width="275" height="554" transform="translate(0 -0.334)" fill="#fff" stroke="#707070" stroke-width="1"/>
    </clipPath>
    <clipPath id="clip-path-2">
      <rect id="Rectángulo_339622" data-name="Rectángulo 339622" width="315" height="383.572" fill="none"/>
    </clipPath>
    <clipPath id="clip-path-3">
      <rect id="Rectángulo_339621" data-name="Rectángulo 339621" width="355.212" height="383.571" fill="none"/>
    </clipPath>
    <clipPath id="clip-path-4">
      <rect id="Rectángulo_339613" data-name="Rectángulo 339613" width="27.411" height="65.197" fill="none"/>
    </clipPath>
    <clipPath id="clip-path-5">
      <rect id="Rectángulo_339614" data-name="Rectángulo 339614" width="8" height="4.654" fill="none"/>
    </clipPath>
    <clipPath id="clip-path-6">
      <rect id="Rectángulo_339615" data-name="Rectángulo 339615" width="42.404" height="28.231" fill="none"/>
    </clipPath>
    <clipPath id="clip-path-7">
      <rect id="Rectángulo_339616" data-name="Rectángulo 339616" width="15.372" height="27.204" fill="none"/>
    </clipPath>
    <clipPath id="clip-path-8">
      <rect id="Rectángulo_339617" data-name="Rectángulo 339617" width="18.712" height="11.601" fill="none"/>
    </clipPath>
    <clipPath id="clip-path-9">
      <rect id="Rectángulo_339619" data-name="Rectángulo 339619" width="9.345" height="13.455" fill="none"/>
    </clipPath>
    <clipPath id="clip-path-10">
      <rect id="Rectángulo_339620" data-name="Rectángulo 339620" width="31.796" height="26.462" fill="none"/>
    </clipPath>
    <clipPath id="clip-path-11">
      <rect id="Rectángulo_339623" data-name="Rectángulo 339623" width="87.463" height="51.715" transform="translate(0 0)" fill="none"/>
    </clipPath>
    <clipPath id="clip-path-12">
      <rect id="Rectángulo_339646" data-name="Rectángulo 339646" width="121.859" height="77.67" transform="translate(0 0)" fill="none"/>
    </clipPath>
    <clipPath id="clip-path-13">
      <rect id="Rectángulo_339646-2" data-name="Rectángulo 339646" width="83.626" height="53.301" fill="none"/>
    </clipPath>
  </defs>
  <g id="Grupo_984746" data-name="Grupo 984746" transform="translate(-180 -2767)">
    <g id="Grupo_984742" data-name="Grupo 984742" transform="translate(-105 126)">
      <g id="Grupo_984732" data-name="Grupo 984732" transform="translate(0 -438)">
        <g id="Grupo_983733" data-name="Grupo 983733" transform="translate(325 3101.466)">
          <path id="Rectángulo_338981" data-name="Rectángulo 338981" d="M21,0H189a0,0,0,0,1,0,0V556a21,21,0,0,1-21,21H21A21,21,0,0,1,0,556V21A21,21,0,0,1,21,0Z" transform="translate(86 -22.465)" fill="#6b8dfc"/>
          <rect id="Rectángulo_338982" data-name="Rectángulo 338982" width="171" height="543" rx="21" transform="translate(0 11.535)" fill="#3c3fa7"/>
          <g id="Enmascarar_grupo_559" data-name="Enmascarar grupo 559" transform="translate(0 0.869)" clip-path="url(#clip-path)">
            <path id="Unión_142" data-name="Unión 142" d="M186,61.466C160.966,30.058,127.068,6.8,92.332.515,30.465-10.682-10.626,36.2.554,105.226s70.4,134.066,132.264,145.264c36.76,6.653,66.182-7.2,81.665-34.015,32.5,51.745,83.652,91.8,136.3,101.327,45.629,8.258,82.411-8.212,102.6-40.581,24.9,45.019,67.9,80.728,112.264,88.758,61.867,11.2,102.958-35.681,91.778-104.711S587.033,127.2,525.167,116c-29.589-5.355-54.424,2.573-71.062,19.858C425.548,67.374,363.427,10.106,299.062-1.544,243.842-11.539,201.582,14.68,186,61.466Z" transform="matrix(-0.809, -0.588, 0.588, -0.809, 247.55, 773.717)" fill="#1d206f"/>
          </g>
        </g>
        <g id="Grupo_984731" data-name="Grupo 984731" transform="translate(265 3272.429)">
          <g id="Enmascarar_grupo_984730" data-name="Enmascarar grupo 984730" transform="translate(20 0)" clip-path="url(#clip-path-2)">
            <g id="Grupo_984729" data-name="Grupo 984729" transform="translate(0.001 0.001)">
              <g id="Grupo_984728" data-name="Grupo 984728" clip-path="url(#clip-path-3)">
                <path id="Trazado_604022" data-name="Trazado 604022" d="M496.8,272.308c38.342,79.488,10.565,172.317-62.042,207.339s-162.548-1.024-200.89-80.511S223.307,226.819,295.914,191.8s162.548,1.024,200.89,80.512" transform="translate(-216.637 -130.798)" fill="#fcefd1"/>
                <path id="Trazado_604023" data-name="Trazado 604023" d="M784.288,491.932H668.482a7.7,7.7,0,0,1-7.534-6.1l-15.042-70.846a7.7,7.7,0,0,1,7.533-9.305H769.245a7.7,7.7,0,0,1,7.534,6.1l15.042,70.846a7.7,7.7,0,0,1-7.533,9.3" transform="translate(-609.099 -297.421)" fill="#208abd"/>
                <path id="Trazado_604024" data-name="Trazado 604024" d="M707.659,843.925c.162,0,.294-.266.294-.594V647.025c0-.328-.132-.595-.294-.595s-.3.267-.3.595V843.33c0,.328.132.594.3.594" transform="translate(-541.506 -473.927)" fill="#33312e"/>
                <path id="Trazado_604025" data-name="Trazado 604025" d="M635.624,321.964s6.095,11.068,14.056,29.807,14.36,50.186,14.36,50.186l-27.411-3.243-14.815-42.726Z" transform="translate(-474.763 -236.047)" fill="#fa7662"/>
                <path id="Trazado_604026" data-name="Trazado 604026" d="M689.757,413.87h.006a.3.3,0,0,0,.289-.3,234.743,234.743,0,0,0-3.728-35.262.285.285,0,0,0-.341-.239.294.294,0,0,0-.24.341,234.112,234.112,0,0,1,3.719,35.172.3.3,0,0,0,.3.289" transform="translate(-517.835 -277.174)" fill="#33312e"/>
                <g id="Grupo_984709" data-name="Grupo 984709" transform="translate(161.866 100.713)" opacity="0.1">
                  <g id="Grupo_984708" data-name="Grupo 984708" transform="translate(0)">
                    <g id="Grupo_984707" data-name="Grupo 984707" clip-path="url(#clip-path-4)">
                      <path id="Trazado_604027" data-name="Trazado 604027" d="M628.174,377.415s4.244,9.249,6.692,15.01c7.962,18.74,14.36,50.186,14.36,50.186l-27.411-3.243,9.908-25.439a294.978,294.978,0,0,0-3.548-36.513" transform="translate(-621.814 -377.414)"/>
                    </g>
                  </g>
                </g>
                <path id="Trazado_604028" data-name="Trazado 604028" d="M314.128,551.943s11.871-2.6,16.321-2.6c2.171,0,23.152,7.507,23.893,13.63S313.2,565.3,313.2,565.3Z" transform="translate(-82.72 -402.75)" fill="#edaa8d"/>
                <path id="Trazado_604029" data-name="Trazado 604029" d="M496.942,563.266s-1.564-11.07-9.169-13.483c-5.4-1.712-14.758-.255-25.07-.6-28.479-.961-31.039,1.92-31.039,1.92l4.48,19.525Z" transform="translate(-256.923 -402.447)" fill="#fa7662"/>
                <path id="Trazado_604030" data-name="Trazado 604030" d="M666.327,614.751s7.617,18.625,7,24.874c-.946,9.659-40.141-3.289-40.141-3.289l1.29-22.9Z" transform="translate(-487.126 -449.736)" fill="#fa7662"/>
                <path id="Trazado_604031" data-name="Trazado 604031" d="M795.889,145.9a35.653,35.653,0,0,1-9.255,15.568c-7.15,6.873-9.394,6.733-9.394,6.733s1.4,7.153,10.236,6.452,17.668-19.216,17.668-19.216l-3.366-9.678Z" transform="translate(-657.343 -106.867)" fill="#33312e"/>
                <path id="Trazado_604032" data-name="Trazado 604032" d="M687.1,196.178s-1.823,7.842.547,12.766,5.652,7.478,5.105,8.572-6.746,6.749-15.68,6.749-3.1-23.345-3.1-23.345Z" transform="translate(-516.951 -143.828)" fill="#33312e"/>
                <path id="Trazado_604033" data-name="Trazado 604033" d="M852.008,67.449a29.59,29.59,0,0,1-20.052,14.587,4.813,4.813,0,0,1-3.226-1.823,45.273,45.273,0,0,0,21.034-12.764Z" transform="translate(-717.949 -49.451)" fill="#33312e"/>
                <path id="Trazado_604034" data-name="Trazado 604034" d="M750.062,6.415S748.389-.927,736.156.1s-20.6,6.569-24.21,12.238S707.31,28.829,698.3,33.466s-12.234,3.607-12.749,4.637,2.06,13.525,9.529,16.359,18.8-9.661,21.5-14.427,33.48-33.619,33.48-33.619" transform="translate(-577.776 -0.005)" fill="#33312e"/>
                <path id="Trazado_604035" data-name="Trazado 604035" d="M624.543,53.8s8.5-2.834,14.036-12.881,2.9-18.142-1.673-22.027c-4.25-3.606-11.847-5.28-16.612-1.416s-6.824,10.82-6.824,10.82Z" transform="translate(-450.196 -11.195)" fill="#33312e"/>
                <path id="Trazado_604036" data-name="Trazado 604036" d="M750.055,191.694l-4.275,27.971s-5.452,1.8-20.126-4.453c-10.864-4.632-13.357-10.156-13.357-10.156s11.221-12.293,15.851-22.627Z" transform="translate(-584.925 -133.749)" fill="#da9577"/>
                <path id="Trazado_604037" data-name="Trazado 604037" d="M719.365,232.133s2.489,5.524,13.355,10.162c14.665,6.255,20.129,4.449,20.129,4.449l2.384-15.614c-2.172.472-6.714.743-13.829-2.113-7.232-2.914-10.571-7.258-11.928-9.653a137.285,137.285,0,0,1-10.111,12.769" transform="translate(-591.988 -160.827)" fill="#fcefd1"/>
                <path id="Trazado_604038" data-name="Trazado 604038" d="M656,62.094c-5.526,13.633-1.1,31.615,8.931,34.723,8.527,2.639,18.834-7.283,24.361-20.916s6.5-25.382-6.623-29.408c-10.042-3.083-21.142,1.969-26.668,15.6" transform="translate(-512.342 -33.447)" fill="#edaa8d"/>
                <path id="Trazado_604039" data-name="Trazado 604039" d="M706.591,149.614a.765.765,0,0,0,.1-.006c.29-.049.967-.163.723-13.029a.3.3,0,0,0-.295-.289h-.006a.3.3,0,0,0-.289.3c.1,5.447.023,11.512-.319,12.428a12.158,12.158,0,0,1-1.711-.72c-1.613-.755-3.441-1.61-4.429-1.285a.3.3,0,0,0-.186.374.292.292,0,0,0,.373.187c.771-.254,2.632.62,3.993,1.258a6.8,6.8,0,0,0,2.05.782m-.124-.52h0Z" transform="translate(-539.094 -99.921)" fill="#33312e"/>
                <path id="Trazado_604040" data-name="Trazado 604040" d="M729.389,182.687a.3.3,0,0,0,.025-.589c-3.187-.268-4.771-1.886-4.845-4.947a.31.31,0,0,0-.3-.289.3.3,0,0,0-.288.3c.082,3.372,1.894,5.23,5.385,5.522h.024" transform="translate(-567.67 -129.666)" fill="#33312e"/>
                <path id="Trazado_604041" data-name="Trazado 604041" d="M654.51,108.395c-.041,1.663,3.221,1.321,5.286,1.924a9.4,9.4,0,0,1,2.16,1.039c.235-1.027.424-2.043.554-3.023a5.2,5.2,0,0,0-1.828-1.179c-2.549-.909-6.13-.425-6.171,1.239" transform="translate(-481.959 -78.23)" fill="#33312e"/>
                <g id="Grupo_984712" data-name="Grupo 984712" transform="translate(172.552 28.472)" opacity="0.2">
                  <g id="Grupo_984711" data-name="Grupo 984711" transform="translate(0)">
                    <g id="Grupo_984710" data-name="Grupo 984710" clip-path="url(#clip-path-5)">
                      <path id="Trazado_604042" data-name="Trazado 604042" d="M654.51,108.395c-.041,1.663,3.221,1.321,5.286,1.924a9.4,9.4,0,0,1,2.16,1.039c.235-1.027.424-2.043.554-3.023a5.2,5.2,0,0,0-1.828-1.179c-2.549-.909-6.13-.425-6.171,1.239" transform="translate(-654.51 -106.702)"/>
                    </g>
                  </g>
                </g>
                <path id="Trazado_604043" data-name="Trazado 604043" d="M708.258,92.141c.092-1.244,5.055-1.4,7.655-1.073,2.69.34,5.743.954,5.291,2.556s-3.22.994-5.348.713-7.7-.854-7.6-2.2" transform="translate(-555.04 -66.659)" fill="#33312e"/>
                <path id="Trazado_604044" data-name="Trazado 604044" d="M740.12,106.334l3.586-.062a.148.148,0,0,0,0-.3l-3.587.062a.148.148,0,0,0,0,.3" transform="translate(-586.106 -77.697)" fill="#33312e"/>
                <path id="Trazado_604045" data-name="Trazado 604045" d="M658.889,136.649a7.585,7.585,0,0,0,5.71,2.408q1.275-3.206,2.147-6.232a6.035,6.035,0,0,0-1.734-.024c-3.528.46-6.123,3.848-6.123,3.848" transform="translate(-487.363 -97.326)" fill="#fff"/>
                <path id="Trazado_604046" data-name="Trazado 604046" d="M661.849,142.879a7.1,7.1,0,0,0,4.471,1.346c.5-1.264.957-2.5,1.357-3.718a3.647,3.647,0,0,0-2.17-.707,3.744,3.744,0,0,0-3.658,3.079" transform="translate(-489.084 -102.495)" fill="#33312e"/>
                <path id="Trazado_604047" data-name="Trazado 604047" d="M732.073,117.334s-.3-4.148-3.236-6.181S721.7,109.9,721.7,109.9a7.468,7.468,0,0,0,3.172,6.033,10.849,10.849,0,0,0,7.2,1.406" transform="translate(-569.452 -80.464)" fill="#fff"/>
                <path id="Trazado_604048" data-name="Trazado 604048" d="M724.407,122.993a5.942,5.942,0,0,0,.887.7,10.5,10.5,0,0,0,6.368,1.5,3.578,3.578,0,0,0,.108-.885,3.879,3.879,0,0,0-3.789-3.965,3.807,3.807,0,0,0-3.574,2.655" transform="translate(-569.87 -88.226)" fill="#33312e"/>
                <path id="Trazado_604049" data-name="Trazado 604049" d="M740.976,42.822s-8.157,12.24-13.293,15.11-8.158,1.361-8.158,1.361l5.438-13.3Z" transform="translate(-577.775 -31.396)" fill="#33312e"/>
                <path id="Trazado_604050" data-name="Trazado 604050" d="M706.1,34.821s-4.289,10.636-6.7,11.5c-1.662.593-6.529.356-7-.237s4.039-3.555,4.794-10.053l.755-4.533Z" transform="translate(-535.645 -23.092)" fill="#33312e"/>
                <path id="Trazado_604051" data-name="Trazado 604051" d="M686.882,64.929a.294.294,0,0,0,.281-.208c.144-.461,3.464-11.4-1.56-17.8a.295.295,0,1,0-.463.365c4.831,6.15,1.494,17.147,1.461,17.258a.293.293,0,0,0,.193.368.284.284,0,0,0,.087.014" transform="translate(-515.977 -34.321)" fill="#33312e"/>
                <path id="Trazado_604052" data-name="Trazado 604052" d="M658.754,58.8s1.068-9.662-5.428-14.5l-1.856-3.377,8.968,3.589a20.445,20.445,0,0,1,3.51,18.019,16.207,16.207,0,0,0-5.194-3.734" transform="translate(-483.327 -30.007)" fill="#33312e"/>
                <path id="Trazado_604053" data-name="Trazado 604053" d="M789.333,107.95c-.643,4.206-3.811,7.211-7.075,6.712s-5.391-4.314-4.748-8.519,3.811-7.212,7.077-6.713,5.389,4.315,4.747,8.52" transform="translate(-641.689 -72.858)" fill="#edaa8d"/>
                <path id="Trazado_604054" data-name="Trazado 604054" d="M798.52,120.179a.288.288,0,0,0,.1-.018.293.293,0,0,0,.179-.375l-2.411-6.831a.294.294,0,0,0-.555.2l2.411,6.831a.292.292,0,0,0,.277.2" transform="translate(-655.971 -82.669)" fill="#33312e"/>
                <path id="Trazado_604055" data-name="Trazado 604055" d="M793.851,122.761a.294.294,0,0,0,.219-.1l4.118-4.52a.3.3,0,0,0-.02-.417.293.293,0,0,0-.415.02l-4.119,4.52a.3.3,0,0,0,.02.417.29.29,0,0,0,.2.077" transform="translate(-654.818 -86.256)" fill="#33312e"/>
                <path id="Trazado_604056" data-name="Trazado 604056" d="M362.9,1164.962c-2.893-9.64-17.882-47.423-25.079-58.7l-25.764,19.293s11.012,29.8,20.148,35.46,30.7,3.951,30.7,3.951" transform="translate(-90.958 -811.047)" fill="#edaa8d"/>
                <path id="Trazado_604057" data-name="Trazado 604057" d="M394.849,1140.492c.236.555,1.381,3.245,1.735,4.036,1.061,2.395,2.265,5,3.562,7.6,5.853-3,8.849-13.205,11.186-18.635,2.181-5.11,7.751-11.554,9.615-13.63-.413-.8-.826-1.559-1.216-2.266a141.761,141.761,0,0,0-16.918,15.343,64.928,64.928,0,0,1-7.964,7.553" transform="translate(-171.103 -819.359)" fill="#da9577"/>
                <path id="Trazado_604058" data-name="Trazado 604058" d="M442.038,1289.005s-9.927-7.688-12.9-6.766c-1.029.318-2.547,1.991-1.91,2.9,1.062,1.514,3.75,2.616,5.853,3.438,2.587,1.008,8.09,2.023,9.694,1.4Z" transform="translate(-201.534 -940.01)" fill="#33312e"/>
                <path id="Trazado_604059" data-name="Trazado 604059" d="M315.357,1246.075c2.985,5.264,6.242,9.842,9.286,11.73,2.868,1.782,6.961,2.833,11.231,3.436l18.582-2.2c-1.616-4.768-4.531-12.475-7.893-20.76-2.266,2.113-7.2,5.69-15.644,6.893a85.324,85.324,0,0,1-15.562.9" transform="translate(-83.399 -907.842)" fill="#fff"/>
                <path id="Trazado_604060" data-name="Trazado 604060" d="M201.755,1296.7c1.047,2.812,1.989,5.483,2.724,7.883,0,0,9.658,8.608,18.79,13.174s17.559,8.08,18.438,10.715l-56.369-1.405s-3.336-9.136-4.04-14.229l-8.752-13.258a96.874,96.874,0,0,0,15.448.551c5.8-.419,10.746-1.238,13.761-3.431" transform="translate(67.46 -950.666)" fill="#208abd"/>
                <path id="Trazado_604061" data-name="Trazado 604061" d="M343.925,1336.683l.035,0a.3.3,0,0,0,.257-.328c-.561-4.663-2.843-11.183-6.789-19.375a32.182,32.182,0,0,1-2.38-7.545.3.3,0,0,0-.341-.243.3.3,0,0,0-.243.34,33.008,33.008,0,0,0,2.433,7.7c3.917,8.134,6.183,14.591,6.735,19.19a.3.3,0,0,0,.293.26" transform="translate(-78.261 -959.822)" fill="#33312e"/>
                <g id="Grupo_984715" data-name="Grupo 984715" transform="translate(240.004 348.915)" opacity="0.1">
                  <g id="Grupo_984714" data-name="Grupo 984714" transform="translate(0)">
                    <g id="Grupo_984713" data-name="Grupo 984713" clip-path="url(#clip-path-6)">
                      <path id="Trazado_604062" data-name="Trazado 604062" d="M272.823,1307.5l8.755,13.254c.708,5.1,4.035,14.232,4.035,14.232l29.614.745c-3.421-3.777-13.532-5.631-20.577-10-6.89-4.271-11.7-13.359-13.072-17.584-.389-.013-.791-.036-1.216-.072h-.083c-2.89-.142-5.568-.39-7.457-.577" transform="translate(-272.823 -1307.503)"/>
                    </g>
                  </g>
                </g>
                <path id="Trazado_604063" data-name="Trazado 604063" d="M228.574,1411.9s.418,4.639-.536,5.473c-.486.426-14.581.12-28.272.026-13.109-.09-25.839.046-26.245-.187-.834-.477-1.316-6.717-1.316-6.717Z" transform="translate(80.593 -1034.094)" fill="#33312e"/>
                <path id="Trazado_604064" data-name="Trazado 604064" d="M441.076,1251.98a.293.293,0,0,0,.2-.08.3.3,0,0,0,.012-.418c-5.765-6.108-11.245-15.536-14.184-21.754a.294.294,0,1,0-.532.25c2.957,6.259,8.474,15.752,14.286,21.911a.3.3,0,0,0,.215.092" transform="translate(-199.986 -901.442)" fill="#33312e"/>
                <path id="Trazado_604065" data-name="Trazado 604065" d="M253.666,845.066c.162,0,.294-.266.294-.595V647.025c0-.328-.132-.594-.294-.594s-.3.266-.3.594V844.471c0,.328.132.595.3.595" transform="translate(33.638 -473.928)" fill="#33312e"/>
                <path id="Trazado_604066" data-name="Trazado 604066" d="M644.735,1398.411a.265.265,0,0,0,.255-.3V1384.87h91.8V1397.9a.3.3,0,0,0,.59,0v-13.323a.3.3,0,0,0-.3-.3H644.653a.294.294,0,0,0-.21.089c-.055.054-.043.13-.043.209v13.54a.333.333,0,0,0,.336.293" transform="translate(-554.135 -1014.877)" fill="#33312e"/>
                <path id="Trazado_604067" data-name="Trazado 604067" d="M905.721,1395h18.22a.3.3,0,0,0,0-.59h-18.22a.3.3,0,1,0,0,.59" transform="translate(-810.644 -1022.3)" fill="#33312e"/>
                <path id="Trazado_604068" data-name="Trazado 604068" d="M660.139,1186.665c6.7-7.174,31.194-38.373,37.168-49.987l-30.055-13.194s-17.052,29.889-19.505,40.008c-2.472,10.2,12.392,23.172,12.392,23.172" transform="translate(-514.877 -823.676)" fill="#edaa8d"/>
                <path id="Trazado_604069" data-name="Trazado 604069" d="M654.245,1137.62c6.266,9.808,18.535,16.452,24.364,19.2,4.411-5.985,8.447-11.767,11.183-16.206l.449-1-6.973-6.786-21.274-9.344s-3.6,6.324-7.749,14.136" transform="translate(-509.619 -823.676)" fill="#da9577"/>
                <path id="Trazado_604070" data-name="Trazado 604070" d="M832.329,1243.053s-.438-9.342-1.24-9.853-2.7-.73-3.064-.072,2.992,10.582,2.992,10.582Z" transform="translate(-698.074 -903.761)" fill="#33312e"/>
                <path id="Trazado_604071" data-name="Trazado 604071" d="M721.075,1244.7l17.213,6.55c3.4-4.154,7.527-9.382,11.692-14.836a32.747,32.747,0,0,1-15.822-4.849,19.7,19.7,0,0,1-8.93-9.95c-2.654,5.525-4.863,10.647-5.629,13.82-.719,2.987.036,6.2,1.475,9.266" transform="translate(-586.725 -895.616)" fill="#fff"/>
                <path id="Trazado_604072" data-name="Trazado 604072" d="M750.342,1369.923s.417,4.639-.535,5.472c-.544.476-18.073-.188-33.163-.188-4.056,0-15.279-15.676-15.35-17.889-.026-.856,2.53-4.08,2.53-4.08l12.821,15.843Z" transform="translate(-582.367 -992.119)" fill="#33312e"/>
                <path id="Trazado_604073" data-name="Trazado 604073" d="M839.026,1401.933a.3.3,0,1,0,0-.59c-.033,0-1.618-.071-4.632-2.9-3.131-2.936-7.2-9.17-7.242-9.233a.3.3,0,1,0-.495.322c.041.063,4.15,6.357,7.333,9.341,3.2,3,4.924,3.056,5.036,3.056" transform="translate(-704.696 -1018.395)" fill="#33312e"/>
                <path id="Trazado_604074" data-name="Trazado 604074" d="M734.865,1281.872l-8.3,10.467s1.993,5.483,6.809,8.142c6.387,3.524,13.917,4.728,14.8,7.363-7.7,2.528-30.2,1.374-33.6-.668s-13.3-14.166-12.922-16l11.781-22.612c.923,2.521,3.393,5.021,7.194,8.032,5.17,4.1,12.033,5.985,14.243,5.274" transform="translate(-580.191 -930.041)" fill="#208abd"/>
                <path id="Trazado_604075" data-name="Trazado 604075" d="M700.255,1420.711a.29.29,0,0,0,.23-.112c1.185-1.487.622-5.526.6-5.7a.289.289,0,0,0-.333-.25.3.3,0,0,0-.25.333c.157,1.1.378,4.178-.473,5.248a.3.3,0,0,0,.23.478" transform="translate(-532.814 -1037.14)" fill="#33312e"/>
                <g id="Grupo_984718" data-name="Grupo 984718" transform="translate(121.443 338.529)" opacity="0.1">
                  <g id="Grupo_984717" data-name="Grupo 984717" transform="translate(0)">
                    <g id="Grupo_984716" data-name="Grupo 984716" clip-path="url(#clip-path-7)">
                      <path id="Trazado_604076" data-name="Trazado 604076" d="M818.414,1291.184c-.13.625.919,2.419,2.489,4.6,3.374-10.822,10.347-19.4,12.873-22.282a14.034,14.034,0,0,1-3.576-4.921Z" transform="translate(-818.403 -1268.583)"/>
                    </g>
                  </g>
                </g>
                <path id="Trazado_604077" data-name="Trazado 604077" d="M806.547,1320.665a.294.294,0,0,0,.277-.195c2.9-8.051,11.6-24.726,11.688-24.894a.3.3,0,1,0-.523-.274c-.087.168-8.809,16.879-11.719,24.968a.3.3,0,0,0,.177.378.3.3,0,0,0,.1.018" transform="translate(-678.487 -949.526)" fill="#33312e"/>
                <g id="Grupo_984721" data-name="Grupo 984721" transform="translate(142.738 362.393)" opacity="0.2">
                  <g id="Grupo_984720" data-name="Grupo 984720" transform="translate(0)">
                    <g id="Grupo_984719" data-name="Grupo 984719" clip-path="url(#clip-path-8)">
                      <path id="Trazado_604078" data-name="Trazado 604078" d="M726.089,1362.587c.8,5.487,14.512,6.761,18.712,7.022a62.7,62.7,0,0,1-8.271-3.554c-4.448-2.455-6.488-7.329-6.771-8.048Z" transform="translate(-726.089 -1358.008)"/>
                    </g>
                  </g>
                </g>
                <path id="Trazado_604079" data-name="Trazado 604079" d="M781.791,1359.82a.3.3,0,0,0,.242-.126l1.865-2.683a.295.295,0,1,0-.484-.336l-1.865,2.681a.3.3,0,0,0,.242.464" transform="translate(-637.286 -994.545)" fill="#33312e"/>
                <path id="Trazado_604080" data-name="Trazado 604080" d="M796.615,1213.83a.3.3,0,0,0,.271-.179c2.816-6.623,6.281-14.2,10.3-22.529a.3.3,0,1,0-.532-.256c-4.019,8.334-7.487,15.922-10.307,22.554a.3.3,0,0,0,.156.387.309.309,0,0,0,.115.024" transform="translate(-664.503 -872.954)" fill="#33312e"/>
                <path id="Trazado_604081" data-name="Trazado 604081" d="M555.705,711.725C553.7,699,542.8,691.481,518.983,689.945s-49.548-1.153-54.541-3.074-25.336,7.509-25.336,7.509l26.488,48.971,29.575-1.538-37.807,55.641s11.305,21.586,42.415,27.35c0,0,37.3-52.078,44.21-65.526s13.708-34.937,11.717-47.552" transform="translate(-318.024 -503.386)" fill="#de9d06"/>
                <path id="Trazado_604082" data-name="Trazado 604082" d="M699.2,726.414s-4.113-6.994-35.368-8.227-45.649-2.469-45.649-2.469l-44.414,25.506,13.982,31.264,90.886,3.292Z" transform="translate(-497.098 -524.725)" fill="#f0af18"/>
                <path id="Trazado_604083" data-name="Trazado 604083" d="M783.08,745.337a33.233,33.233,0,0,0,3.244,11.153c7.905,2.514,23.261,4.652,36.775-2.939,16.644-9.349,20.493-25.3,22.924-32.066l-.377-.023a150.828,150.828,0,0,1-15.4,9.017c-8.011,11.472-17,16.617-25.58,19.165-14.523,4.321-21.591-4.306-21.591-4.306" transform="translate(-699.782 -528.935)" fill="#e6a40d"/>
                <path id="Trazado_604084" data-name="Trazado 604084" d="M629.4,861.509c2.9-.153,5.021,9.572,15.9,12.231,20.69,5.058,109.863,3.489,109.863,3.489v22.588q-56.023.949-108.757,0c-9.346,0-19.754-7.578-19.754-16.928l-.152-5.66c0-4.769,0-15.566,2.9-15.719" transform="translate(-567.13 -631.609)" fill="#208abd"/>
                <path id="Trazado_604085" data-name="Trazado 604085" d="M468,850.827a145.69,145.69,0,0,0-18.916,16.866c-8.226,9.051-16.039,14.4-30.433,17.278L391.92,796.114,419.474,755.8c10.768,10.126,27.888,37.784,48.527,95.029" transform="translate(-217.376 -554.109)" fill="#f0af18"/>
                <path id="Trazado_604086" data-name="Trazado 604086" d="M671.719,911.63a.283.283,0,0,0,.087-.014.293.293,0,0,0,.194-.368l-1.635-5.271a.3.3,0,0,0-.369-.195.3.3,0,0,0-.195.369l1.636,5.271a.3.3,0,0,0,.282.208" transform="translate(-495.538 -664.061)" fill="#33312e"/>
                <path id="Trazado_604087" data-name="Trazado 604087" d="M673.585,890.942c16.683.27,32.393.2,43.035.106l-3.163-10.89s-13.139,8.031-39.872,10.783" transform="translate(-541.159 -645.283)" fill="#e6a40d"/>
                <path id="Trazado_604088" data-name="Trazado 604088" d="M464.663,1102.823l11.008,36.562c14.1-2.819,21.9-8.013,29.932-16.746-6.524.271-25.862-.757-40.94-19.816" transform="translate(-274.39 -808.528)" fill="#e6a40d"/>
                <path id="Trazado_604089" data-name="Trazado 604089" d="M548.488,724.422c1.275,4.2,9.072,9.408,26.546,14.128,10.6,2.856,16.129,2.69,18.972,1.912a63.262,63.262,0,0,0-6.749-7.671s-4.106-6.988-35.359-8.227c-1.158-.047-2.3-.094-3.411-.142" transform="translate(-385.162 -531.106)" fill="#e6a40d"/>
                <path id="Trazado_604090" data-name="Trazado 604090" d="M750.821,303.462s3.283,19.267,2.816,34.726-8.2,44.037-9.6,53.875,1.957,10.173,1.957,10.173-8.279,8.1-26.31,17.233l-2.108-64.182L742.4,296.728Z" transform="translate(-589.96 -217.545)" fill="#fcefd1"/>
                <path id="Trazado_604091" data-name="Trazado 604091" d="M267.04,390.557h65.432a.3.3,0,0,0,.274-.183l28.478-69.863a.3.3,0,0,0-.162-.385.292.292,0,0,0-.383.161l-28.405,69.68H267.04a.3.3,0,1,0,0,.59" transform="translate(-77.216 -234.683)" fill="#33312e"/>
                <rect id="Rectángulo_339618" data-name="Rectángulo 339618" width="200.655" height="18.478" transform="translate(102.051 156.12)" fill="#f0af18"/>
                <path id="Trazado_604092" data-name="Trazado 604092" d="M754.418,448.819a19.464,19.464,0,0,0,3.775,1.346c5.345,1.31,15.232,2.17,26.983,2.737a37.989,37.989,0,0,1-16.365-13.55,32.676,32.676,0,0,1-5.485-14.917s7.067,8.626,21.591,4.307,30.216-16.086,40.422-53.391,10.088-82.437,10.088-82.437l-31.137-9.159c-20.14,7.506-40.279,50.181-46.213,68.557s-8.814,46.985-9.275,64.2c-.388,14.492,2.526,26.413,5.617,32.3" transform="translate(-680.029 -208.034)" fill="#fa7662"/>
                <path id="Trazado_604093" data-name="Trazado 604093" d="M1017.37,736.648a.3.3,0,0,0,.288-.359,65.717,65.717,0,0,1,.434-27.617.295.295,0,0,0-.576-.125,66.309,66.309,0,0,0-.434,27.87.294.294,0,0,0,.288.231" transform="translate(-933.962 -519.298)" fill="#33312e"/>
                <path id="Trazado_604094" data-name="Trazado 604094" d="M989.411,788.913a19.471,19.471,0,0,0,3.775,1.346,102.421,102.421,0,0,0,14.524,1.958c-8.045-4.048-20.422-15.012-23.514-44.577-.2,3.223-.329,6.243-.4,8.971-.388,14.492,2.526,26.413,5.616,32.3" transform="translate(-915.022 -548.128)" fill="#ed644e"/>
                <path id="Trazado_604095" data-name="Trazado 604095" d="M771.757,437.973a3.216,3.216,0,1,0,3.217-3.217,3.217,3.217,0,0,0-3.217,3.217" transform="translate(-628.926 -318.74)" fill="#33312e"/>
                <path id="Trazado_604096" data-name="Trazado 604096" d="M784.095,520.624a3.138,3.138,0,0,0,.555,1.8l5.863-1.607a.99.99,0,0,0,.012-.189,3.215,3.215,0,1,0-6.43,0" transform="translate(-644.554 -379.332)" fill="#33312e"/>
                <path id="Trazado_604097" data-name="Trazado 604097" d="M651.491,581.488s5.594-1.349-1.37-15.121l-15.712,4.376s8.084,12.741,17.082,10.745" transform="translate(-467.7 -415.229)" fill="#33312e"/>
                <path id="Trazado_604098" data-name="Trazado 604098" d="M631.044,472.713l-26.8,10.854-1.108,21.267,7.117,2.17,20.125-9.924Z" transform="translate(-436.784 -346.567)" fill="#edaa8d"/>
                <path id="Trazado_604099" data-name="Trazado 604099" d="M656.08,525.662a25.3,25.3,0,0,0,3.882,7.73l6.159-3.034c-3.057-2.265-8.448-7.989-10.465-21.006l-.568.224c-.649,2.337-1.586,7.964.991,16.086" transform="translate(-485.533 -373.429)" fill="#da9577"/>
                <path id="Trazado_604100" data-name="Trazado 604100" d="M449.022,459.464s7.815-4.668,10.4-4.82,31.044,6.089,31.2,10.2-14.152,1.978-26.934-1.219S447.25,462.1,447.25,462.1Z" transform="translate(-254.762 -333.318)" fill="#edaa8d"/>
                <path id="Trazado_604101" data-name="Trazado 604101" d="M539.049,477.036s3.713,1.206,3.4,4.184-1.75,4.841-3.786,4.685a4.811,4.811,0,0,1,.136,4.482,3.155,3.155,0,0,1-3.772,1.773s1.075,1.319-.234,3.321c-1.154,1.766-12.3,1.522-16.78,1.6l-4.028-12.523,4.692-11.844Z" transform="translate(-324.416 -346.568)" fill="#edaa8d"/>
                <path id="Trazado_604102" data-name="Trazado 604102" d="M520.006,489.93a.295.295,0,0,0,.063-.583l-9.965-2.141a.3.3,0,0,0-.124.577l9.963,2.14a.294.294,0,0,0,.062.007" transform="translate(-301.118 -357.188)" fill="#33312e"/>
                <path id="Trazado_604103" data-name="Trazado 604103" d="M534,517.637a.295.295,0,0,0,.073-.581l-6.821-1.729a.295.295,0,0,0-.145.571l6.82,1.729a.263.263,0,0,0,.073.009" transform="translate(-319.686 -377.802)" fill="#33312e"/>
                <path id="Trazado_604104" data-name="Trazado 604104" d="M546.683,541.19a.295.295,0,0,0,.086-.577L541,538.837a.3.3,0,0,0-.368.2.3.3,0,0,0,.2.368l5.765,1.776a.323.323,0,0,0,.086.013" transform="translate(-336.035 -395.038)" fill="#33312e"/>
                <path id="Trazado_604105" data-name="Trazado 604105" d="M534.611,460.863a.3.3,0,0,0,.137-.033c.111-.059,11.186-5.84,13.237-6.231s8.088,1.093,8.148,1.109a.3.3,0,0,0,.358-.217.3.3,0,0,0-.217-.357c-.252-.063-6.243-1.522-8.4-1.114-2.136.408-12.941,6.046-13.4,6.286a.3.3,0,0,0,.137.557" transform="translate(-343.873 -332.81)" fill="#33312e"/>
                <path id="Trazado_604106" data-name="Trazado 604106" d="M679.514,505.584,642.372,515.7v38.088s6.523-3.2,10.782-3.463,10.385,1.6,14.911-.266a9.14,9.14,0,0,0,5.326-6.393s8.845,2.6,19.944-6.745c0,0-9.153-1.169-13.241-14.023-3.472-10.918-.581-17.318-.581-17.318" transform="translate(-509.545 -370.667)" fill="#fa7662"/>
                <path id="Trazado_604107" data-name="Trazado 604107" d="M753.306,529.04a.287.287,0,0,0,.083-.012L780.5,521.07a.3.3,0,1,0-.166-.567l-27.106,7.958a.3.3,0,0,0,.082.578" transform="translate(-626.442 -381.596)" fill="#33312e"/>
                <path id="Trazado_604108" data-name="Trazado 604108" d="M812.387,486.038a.3.3,0,0,0,.294-.273c.189-2.487,2.858-9.832,3.735-12.246a28.423,28.423,0,0,0,1.512-8.508.295.295,0,1,0-.59,0,27.776,27.776,0,0,1-1.478,8.307c-2.4,6.617-3.636,10.675-3.767,12.4a.294.294,0,0,0,.271.317h.022" transform="translate(-679.428 -340.705)" fill="#33312e"/>
                <path id="Trazado_604109" data-name="Trazado 604109" d="M691.433,610.938a2.4,2.4,0,1,0,2.4-2.4,2.4,2.4,0,0,0-2.4,2.4" transform="translate(-525.529 -446.149)" fill="#33312e"/>
                <path id="Trazado_604110" data-name="Trazado 604110" d="M802.229,529.57c1.144,13.591,7.942,19.757,25.875,18.624a53.269,53.269,0,0,0,25.943-8.97q1.174-2.708,2.283-5.7c.377-1.018-7.68,4.119-15.822,5.743a44.467,44.467,0,0,1-16.4-.256s-9.979-1.668-14.479-7.69c-2.7-3.612-1.18-9.559-.64-15.506a195.525,195.525,0,0,1,6.405-34.152c-7.045,7.111-14.292,34.536-13.167,47.9" transform="translate(-715.179 -353.131)" fill="#ed644e"/>
                <path id="Trazado_604111" data-name="Trazado 604111" d="M684.394,567.289c.425,6.573,2.808,13.891,8.743,21.633a17.271,17.271,0,0,0,8.684-.509c-3.564-1.391-11.186-6.137-17.427-21.125" transform="translate(-529.244 -415.905)" fill="#ed644e"/>
                <path id="Trazado_604112" data-name="Trazado 604112" d="M759.8,608.077s-2.255,8.886-5.076,10.72-6.346-4.654-13.679-3.949-9.024,16.079-24.112,17.491a32.94,32.94,0,0,0,11.3-.477c6.394-1.338,7.658-3.421,15.242-5.951,7.277-2.425,12.12,1.191,17.845-.818,2.574-.9,4.953-6.268,4.953-6.268a28.212,28.212,0,0,1-6.475-10.749" transform="translate(-602.384 -445.809)" fill="#ed644e"/>
                <path id="Trazado_604113" data-name="Trazado 604113" d="M742.523,530.387c1.043,0,2.028-.039,2.934-.119,4.967-.432,9.477-2.459,13.455-4.248,2.988-1.345,5.568-2.506,7.835-2.794a37.123,37.123,0,0,1,7.422.088c3.117.245,5.809.457,7.577-.381,3.477-1.643,5.395-6.35,5.475-6.549a.3.3,0,0,0-.549-.22c-.018.046-1.912,4.692-5.177,6.235-1.628.771-4.373.553-7.28.327a37.075,37.075,0,0,0-7.542-.086c-2.354.3-4.973,1.478-8,2.842-3.936,1.769-8.4,3.776-13.264,4.2-8.087.7-22.493-1.711-27.383-7.922-4.715-5.986,3.386-45.065,6.764-53.134a.295.295,0,1,0-.544-.228c-3.5,8.351-11.63,47.449-6.682,53.727,4.462,5.668,16.561,8.264,24.963,8.264" transform="translate(-623.102 -343.269)" fill="#33312e"/>
                <path id="Trazado_604114" data-name="Trazado 604114" d="M779.9,259.189a109.969,109.969,0,0,1-3.514,17.32s-12.428-9.6-18.513-16.117-9.1-10.36-9.1-10.36,5.933-12.362,7.048-12.276,6.873,7.361,11.657,11.576c6.6,5.815,12.255,8.829,12.427,9.858" transform="translate(-624.501 -174.31)" fill="#fa7662"/>
                <g id="Grupo_984724" data-name="Grupo 984724" transform="translate(125.276 65.357)" opacity="0.1">
                  <g id="Grupo_984723" data-name="Grupo 984723" transform="translate(0)">
                    <g id="Grupo_984722" data-name="Grupo 984722" clip-path="url(#clip-path-9)">
                      <path id="Trazado_604115" data-name="Trazado 604115" d="M826.626,253.22c2.2,2.608,8.244,6.1,9.215,4.921.667-.81-1.362-3.781-3.079-6.892a12.947,12.947,0,0,1-1.687-6.326c-1.4,2.254-3.3,5.984-4.449,8.3" transform="translate(-826.626 -244.922)"/>
                    </g>
                  </g>
                </g>
                <g id="Grupo_984727" data-name="Grupo 984727" transform="translate(120.05 75.719)" opacity="0.1">
                  <g id="Grupo_984726" data-name="Grupo 984726" transform="translate(0)">
                    <g id="Grupo_984725" data-name="Grupo 984725" clip-path="url(#clip-path-10)">
                      <path id="Trazado_604116" data-name="Trazado 604116" d="M762.078,285.819c2.736,10.905,30.747,23.923,31.8,24.4-.732-.578-12.577-9.785-18.476-16.1-6.087-6.515-9.109-10.361-9.109-10.361a24.77,24.77,0,0,0-4.211,2.065" transform="translate(-762.078 -283.753)"/>
                    </g>
                  </g>
                </g>
                <path id="Trazado_604117" data-name="Trazado 604117" d="M767.539,334.492a.287.287,0,0,0,.083-.012.292.292,0,0,0,.195-.184c1.319-3.714,3.438-16.814,3.529-17.37a.3.3,0,0,0-.244-.339.292.292,0,0,0-.34.244c-.02.131-2.061,12.733-3.37,16.876-2.287-1.8-15.814-12.495-19.2-17.145a.295.295,0,1,0-.476.348c3.727,5.126,18.991,17.016,19.639,17.519a.3.3,0,0,0,.181.062" transform="translate(-615.655 -231.999)" fill="#33312e"/>
                <path id="Trazado_604118" data-name="Trazado 604118" d="M650.682,578.071a27.162,27.162,0,0,0,18.556-7.664.3.3,0,0,0-.434-.4,26.4,26.4,0,0,1-20.1,7.4,24.483,24.483,0,0,1-4.177-5.958,43.332,43.332,0,0,1-4.554-19.172.3.3,0,0,0-.3-.29h-.007a.3.3,0,0,0-.288.3,43.867,43.867,0,0,0,4.638,19.463,23.623,23.623,0,0,0,4.357,6.157.3.3,0,0,0,.173.077c.727.06,1.439.088,2.134.088" transform="translate(-484.727 -404.685)" fill="#33312e"/>
                <path id="Trazado_604119" data-name="Trazado 604119" d="M.313,1435.022H335.185a.313.313,0,0,0,0-.626H.313a.313.313,0,1,0,0,.626" transform="translate(19.714 -1051.619)" fill="#33312e"/>
              </g>
            </g>
          </g>
        </g>
      </g>
      <g id="Grupo_984734" data-name="Grupo 984734" transform="translate(492.537 2817.001)">
        <g id="Grupo_984733" data-name="Grupo 984733" clip-path="url(#clip-path-11)">
          <path id="Trazado_604120" data-name="Trazado 604120" d="M0,7.414v21.8a7.28,7.28,0,0,0,7.28,7.28H33.92a2.532,2.532,0,0,1,1.992.967L42.45,51.715,50.333,37.69a2.534,2.534,0,0,1,1.888-.844H80.183a7.28,7.28,0,0,0,7.28-7.28V7.279A7.28,7.28,0,0,0,80.17,0L7.266.135A7.279,7.279,0,0,0,0,7.414" fill="#fed947"/>
          <path id="Trazado_604121" data-name="Trazado 604121" d="M18.3,26.242h-4.56v-4.3l10.5-11.467.21-.057a3.447,3.447,0,0,1,3.4.485c1.327,1.215.969,3.449.924,3.7l-.038.214Zm-3.052-1.508h2.386l9.682-10.6a2.751,2.751,0,0,0-.488-2.121,1.944,1.944,0,0,0-1.778-.192l-9.8,10.706Z" fill="#12263f"/>
          <path id="Trazado_685887" data-name="Trazado 685887" d="M-6.3-10.661h-3.8L-11.94,0h-2.575l1.846-10.661h-3.753l.378-2.136H-5.919ZM-2.254.176a4.137,4.137,0,0,1-2.21-.611A3.7,3.7,0,0,1-5.9-2.087,4.605,4.605,0,0,1-6.271-4.4l.026-.352A6.148,6.148,0,0,1-5.436-7.3,4.884,4.884,0,0,1-3.7-9.092,4.306,4.306,0,0,1-1.34-9.686,3.29,3.29,0,0,1,1.441-8.334,4.631,4.631,0,0,1,2.158-5L2.017-3.92H-3.81a2.041,2.041,0,0,0,.448,1.477,1.711,1.711,0,0,0,1.318.571A3.041,3.041,0,0,0,.33-2.927L1.463-1.521A3.527,3.527,0,0,1-.083-.259,5.059,5.059,0,0,1-2.254.176Zm.791-7.813a1.761,1.761,0,0,0-1.217.431,3.784,3.784,0,0,0-.954,1.556h3.41l.053-.229a2.33,2.33,0,0,0,.009-.668,1.276,1.276,0,0,0-.431-.8A1.35,1.35,0,0,0-1.463-7.638Zm8.8.949,2-2.821h2.786L8.67-4.729,10.6,0H8.082L6.913-2.971,4.812,0h-2.8L5.594-4.975,3.757-9.51H6.271Zm9.422-5.159L16.343-9.51h1.582L17.6-7.646H16.018l-.809,4.764a1.211,1.211,0,0,0,.07.686q.123.237.6.255.141.009.756-.044L16.458-.044a4.169,4.169,0,0,1-1.424.2,2.234,2.234,0,0,1-1.819-.765,2.763,2.763,0,0,1-.492-2.021l.817-5.019H12.195L12.52-9.51h1.345l.4-2.338Z" transform="translate(54.463 23.999)" fill="#12263f"/>
        </g>
      </g>
    </g>
    <g id="Grupo_984744" data-name="Grupo 984744" transform="translate(247.142 2867.33)">
      <g id="Grupo_984743" data-name="Grupo 984743" clip-path="url(#clip-path-12)">
        <path id="Trazado_604145" data-name="Trazado 604145" d="M121.359,77.67H.5a.5.5,0,0,1-.5-.5V.5A.5.5,0,0,1,.5,0H121.359a.5.5,0,0,1,.5.5V77.17a.5.5,0,0,1-.5.5M1,76.67H120.859V1H1Z" fill="#ebf1ff"/>
        <path id="Trazado_604146" data-name="Trazado 604146" d="M104.927,33.819H17.387a2.827,2.827,0,0,1-2.826-2.827V30.1a2.827,2.827,0,0,1,2.826-2.827h87.54a2.827,2.827,0,0,1,2.827,2.827v.89a2.827,2.827,0,0,1-2.827,2.827" fill="#ebf1ff"/>
        <path id="Trazado_604147" data-name="Trazado 604147" d="M104.927,44.182H17.387a2.827,2.827,0,0,1-2.826-2.827v-.89a2.827,2.827,0,0,1,2.826-2.827h87.54a2.827,2.827,0,0,1,2.827,2.827v.89a2.827,2.827,0,0,1-2.827,2.827" fill="#ebf1ff"/>
        <path id="Trazado_604148" data-name="Trazado 604148" d="M104.927,54.544H17.387a2.827,2.827,0,0,1-2.826-2.827v-.89A2.827,2.827,0,0,1,17.387,48h87.54a2.827,2.827,0,0,1,2.827,2.827v.89a2.827,2.827,0,0,1-2.827,2.827" fill="#ebf1ff"/>
        <path id="Trazado_604149" data-name="Trazado 604149" d="M104.927,64.907H17.387a2.827,2.827,0,0,1-2.826-2.827v-.89a2.827,2.827,0,0,1,2.826-2.827h87.54a2.827,2.827,0,0,1,2.827,2.827v.89a2.827,2.827,0,0,1-2.827,2.827" fill="#ebf1ff"/>
        <path id="Trazado_604150" data-name="Trazado 604150" d="M104.927,19.9H17.387a2.827,2.827,0,0,1-2.826-2.827V8.606a2.827,2.827,0,0,1,2.826-2.827h87.54a2.827,2.827,0,0,1,2.827,2.827v8.468a2.827,2.827,0,0,1-2.827,2.827" fill="#ebf1ff"/>
      </g>
    </g>
    <g id="Grupo_984745" data-name="Grupo 984745" transform="translate(399 2819)">
      <g id="Grupo_984743-2" data-name="Grupo 984743" transform="translate(0 0)" clip-path="url(#clip-path-13)">
        <path id="Trazado_604145-2" data-name="Trazado 604145" d="M83.283,53.3H.343A.343.343,0,0,1,0,52.958V.343A.343.343,0,0,1,.343,0h82.94a.342.342,0,0,1,.343.343V52.958a.343.343,0,0,1-.343.343m-82.6-.686H82.94V.686H.686Z" transform="translate(0 0)" fill="#ebf1ff"/>
        <path id="Trazado_604146-2" data-name="Trazado 604146" d="M76.575,31.766H16.5a1.94,1.94,0,0,1-1.939-1.94v-.611a1.94,1.94,0,0,1,1.939-1.94H76.575a1.94,1.94,0,0,1,1.94,1.94v.611a1.94,1.94,0,0,1-1.94,1.94" transform="translate(-4.568 -8.558)" fill="#ebf1ff"/>
        <path id="Trazado_604147-2" data-name="Trazado 604147" d="M76.575,42.129H16.5a1.94,1.94,0,0,1-1.939-1.94v-.611a1.94,1.94,0,0,1,1.939-1.94H76.575a1.94,1.94,0,0,1,1.94,1.94v.611a1.94,1.94,0,0,1-1.94,1.94" transform="translate(-4.568 -11.809)" fill="#ebf1ff"/>
        <path id="Trazado_604148-2" data-name="Trazado 604148" d="M76.575,52.491H16.5a1.94,1.94,0,0,1-1.939-1.94V49.94A1.94,1.94,0,0,1,16.5,48H76.575a1.94,1.94,0,0,1,1.94,1.94v.611a1.94,1.94,0,0,1-1.94,1.94" transform="translate(-4.568 -15.06)" fill="#ebf1ff"/>
        <path id="Trazado_604149-2" data-name="Trazado 604149" d="M76.575,62.854H16.5a1.94,1.94,0,0,1-1.939-1.94V60.3a1.94,1.94,0,0,1,1.939-1.94H76.575a1.94,1.94,0,0,1,1.94,1.94v.611a1.94,1.94,0,0,1-1.94,1.94" transform="translate(-4.568 -18.311)" fill="#ebf1ff"/>
        <path id="Trazado_604150-2" data-name="Trazado 604150" d="M76.575,15.47H16.5a1.94,1.94,0,0,1-1.939-1.94V7.719A1.94,1.94,0,0,1,16.5,5.779H76.575a1.94,1.94,0,0,1,1.94,1.94V13.53a1.94,1.94,0,0,1-1.94,1.94" transform="translate(-4.568 -1.813)" fill="#ebf1ff"/>
      </g>
    </g>
  </g>
</svg>
