<svg xmlns="http://www.w3.org/2000/svg" width="190" height="114" viewBox="0 0 190 114">
  <g id="Grupo_988569" data-name="Grupo 988569" transform="translate(-179 -2580.939)">
    <g id="Grupo_179148" data-name="Grupo 179148" transform="translate(-1.5 -453.439)">
      <rect id="Rectángulo_45412" data-name="Rectángulo 45412" width="190" height="114" rx="10" transform="translate(180.5 3034.379)" fill="#fed947"/>
    </g>
    <g id="Grupo_984696" data-name="Grupo 984696" transform="translate(0 -32.061)">
      <g id="globos-de-texto" transform="translate(218.87 2600.694)">
        <path id="Trazado_603992" data-name="Trazado 603992" d="M180.282,42.015V68.324H126.1V42.015a1.872,1.872,0,0,1,1.868-1.865h50.447a1.871,1.871,0,0,1,1.868,1.865Z" transform="translate(-95.753 -4.556)" fill="#e4f0fd"/>
        <path id="Trazado_603993" data-name="Trazado 603993" d="M180.282,110.208v3.249H126.1V99.591h6.4a22.279,22.279,0,0,1,18.989,10.617Z" transform="translate(-95.753 -49.689)" fill="#9ebfe2"/>
        <path id="Trazado_603994" data-name="Trazado 603994" d="M223.09,166.869v16.591a9.791,9.791,0,0,1-9.924,9.671l-6.636,12.846-8.668-12.846H178.834a9.92,9.92,0,0,1-9.347-6.408,9.481,9.481,0,0,1-.578-3.264V166.039a8.839,8.839,0,0,1,8.839-8.839h35.417A9.8,9.8,0,0,1,223.09,166.869Z" transform="translate(-128.259 -93.431)" fill="#6b8dfc"/>
        <path id="Trazado_603995" data-name="Trazado 603995" d="M181.026,180.636a21.954,21.954,0,0,1-11.542,6.09,9.481,9.481,0,0,1-.578-3.264V166.04a8.839,8.839,0,0,1,8.839-8.839h8.266a21.422,21.422,0,0,1,1.471,7.5v0a21.926,21.926,0,0,1-6.456,15.93Z" transform="translate(-128.256 -93.432)" fill="#4c6fe1"/>
        <g id="Grupo_984695" data-name="Grupo 984695" transform="translate(55.994 71.137)">
          <path id="Trazado_603996" data-name="Trazado 603996" d="M262.6,261.638H234.093a1.444,1.444,0,1,1,0-2.888H262.6a1.444,1.444,0,1,1,0,2.888Z" transform="translate(-232.649 -241.675)" fill="#fff"/>
          <path id="Trazado_603997" data-name="Trazado 603997" d="M281.176,226.169H258.557a1.444,1.444,0,0,1,0-2.888h22.619a1.444,1.444,0,0,1,0,2.888Z" transform="translate(-251.224 -214.743)" fill="#fff"/>
          <path id="Trazado_603998" data-name="Trazado 603998" d="M302.236,190.7H286.293a1.444,1.444,0,0,1,0-2.888h15.943a1.444,1.444,0,1,1,0,2.888Z" transform="translate(-272.284 -187.811)" fill="#fff"/>
        </g>
        <path id="Trazado_603999" data-name="Trazado 603999" d="M60.168,131.266a18.449,18.449,0,0,1-18.45,18.729H27.028a2.834,2.834,0,0,0-1.1.226,2.8,2.8,0,0,0-1.047.775l-8.186,9.722-1.076-12.967v-.007a18.451,18.451,0,0,1,8.829-34.654H41.3a18.725,18.725,0,0,1,18.868,18.176Z" transform="translate(-4.552 -59.939)" fill="#c4e2fe"/>
        <path id="Trazado_604000" data-name="Trazado 604000" d="M92.06,131.266a18.449,18.449,0,0,1-18.45,18.729H58.92a2.834,2.834,0,0,0-1.1.226s-9.826-4.73-9.826-18.679A18.446,18.446,0,0,1,66.44,113.09h6.752A18.725,18.725,0,0,1,92.06,131.266Z" transform="translate(-36.445 -59.939)" fill="#9ccefd"/>
        <path id="Trazado_604001" data-name="Trazado 604001" d="M59.585,180.924A2.584,2.584,0,1,1,57,178.341,2.584,2.584,0,0,1,59.585,180.924Z" transform="translate(-41.325 -109.484)" fill="#fff"/>
        <path id="Trazado_604002" data-name="Trazado 604002" d="M113.085,180.924a2.584,2.584,0,1,1-2.585-2.583A2.584,2.584,0,0,1,113.085,180.924Z" transform="translate(-81.947 -109.484)" fill="#fff"/>
        <path id="Trazado_604003" data-name="Trazado 604003" d="M169.555,180.924a2.584,2.584,0,1,1-2.585-2.583A2.584,2.584,0,0,1,169.555,180.924Z" transform="translate(-124.824 -109.484)" fill="#fff"/>
        <path id="Trazado_604004" data-name="Trazado 604004" d="M85.973,62.375V37.46a3.31,3.31,0,0,0-3.31-3.31H62.413a1.444,1.444,0,0,0,0,2.888H82.661a.425.425,0,0,1,.424.424V62.324H54.692A20.449,20.449,0,0,0,36.747,51.707H31.791V37.46a.422.422,0,0,1,.421-.421H50.884a1.444,1.444,0,0,0,0-2.888H32.215A3.322,3.322,0,0,0,28.9,37.462V51.707H19.891A19.895,19.895,0,0,0,9.682,88.679L10.7,100.9a1.444,1.444,0,0,0,2.542.811l8.189-9.722a1.37,1.37,0,0,1,1.047-.486h14.69a20.112,20.112,0,0,0,2.128-.116,11.3,11.3,0,0,0,11.282,9.758h18.26l8.239,12.213a1.444,1.444,0,0,0,2.479-.147l6.251-12.1a11.231,11.231,0,0,0,10.471-11.08V73.438a11.228,11.228,0,0,0-10.3-11.063ZM37.166,88.612H22.476a4.248,4.248,0,0,0-3.257,1.514l-5.933,7.045-.782-9.44a1.443,1.443,0,0,0-.751-1.194A17.007,17.007,0,0,1,19.891,54.6H36.747A17.293,17.293,0,0,1,54.172,71.346,17,17,0,0,1,37.166,88.612Zm56.221,1.418a8.363,8.363,0,0,1-8.48,8.225,1.448,1.448,0,0,0-1.283.782l-5.517,10.685L70.8,98.892a1.446,1.446,0,0,0-1.2-.638H50.576a8.4,8.4,0,0,1-8.437-7.38A19.9,19.9,0,0,0,57.06,71.305a19.089,19.089,0,0,0-.3-3.124,19.488,19.488,0,0,0-.782-2.968H84.907a8.364,8.364,0,0,1,8.48,8.225Z"/>
        <path id="Trazado_604005" data-name="Trazado 604005" d="M59.588,180.924A2.584,2.584,0,1,1,57,178.341,2.584,2.584,0,0,1,59.588,180.924Z" transform="translate(-41.327 -109.484)"/>
        <path id="Trazado_604006" data-name="Trazado 604006" d="M113.088,180.924a2.584,2.584,0,1,1-2.585-2.583A2.584,2.584,0,0,1,113.088,180.924Z" transform="translate(-81.949 -109.484)"/>
        <path id="Trazado_604007" data-name="Trazado 604007" d="M169.558,180.924a2.584,2.584,0,1,1-2.585-2.583A2.584,2.584,0,0,1,169.558,180.924Z" transform="translate(-124.827 -109.484)"/>
        <path id="Trazado_604008" data-name="Trazado 604008" d="M262.6,258.75H234.1a1.444,1.444,0,0,0,0,2.888H262.6a1.444,1.444,0,0,0,0-2.888Z" transform="translate(-176.658 -170.538)"/>
        <path id="Trazado_604009" data-name="Trazado 604009" d="M281.179,223.28H258.56a1.444,1.444,0,0,0,0,2.888h22.619a1.444,1.444,0,0,0,0-2.888Z" transform="translate(-195.233 -143.606)"/>
        <path id="Trazado_604010" data-name="Trazado 604010" d="M302.238,187.811H286.3a1.444,1.444,0,0,0,0,2.888h15.943a1.444,1.444,0,0,0,0-2.888Z" transform="translate(-216.292 -116.674)"/>
        <circle id="Elipse_4924" data-name="Elipse 4924" cx="1.44" cy="1.44" r="1.44" transform="translate(55.208 34.187)"/>
      </g>
      <path id="Shape" d="M21.729,6.291V9.57a.811.811,0,0,1-1.112.755l-.771-.308a.788.788,0,0,0-.3-.057h-3.9v9.608a.859.859,0,0,0,.041.252L16.1,21.06a.811.811,0,0,1-.771,1.071H11.9a.811.811,0,0,1-.771-1.071l.414-1.242a.859.859,0,0,0,.041-.252V9.959h-3.9a.788.788,0,0,0-.3.057l-.771.308A.811.811,0,0,1,5.5,9.57V6.291a.811.811,0,0,1,1.112-.755l.771.308a.788.788,0,0,0,.3.057H19.546a.788.788,0,0,0,.3-.057l.771-.308a.811.811,0,0,1,1.112.755Z" transform="translate(274.995 2636.153)" fill="#6b8dfc" stroke="#000" stroke-width="1.5"/>
    </g>
  </g>
</svg>
