<svg xmlns="http://www.w3.org/2000/svg" xmlns:xlink="http://www.w3.org/1999/xlink" width="195.614" height="167.47" viewBox="0 0 195.614 167.47">
  <defs>
    <clipPath id="clip-path">
      <rect id="Rectángulo_339708" data-name="Rectángulo 339708" width="162.245" height="162.782" fill="none"/>
    </clipPath>
    <clipPath id="clip-path-2">
      <path id="Trazado_604169" data-name="Trazado 604169" d="M82.711,2.849c-27.189.274-46.273,15.577-48.593,17.484A74.67,74.67,0,0,0,18.894,37.544C5.2,58.877,4,88.659,14.242,112.515c16.392,38.176,59.661,54.573,93.563,51.778,9.257-.763,27.881-2.3,42.424-16,27.927-26.315,23.626-81.32-3.108-113.7C143.7,30.444,120.162,2.845,83.449,2.845c-.246,0-.491,0-.739,0" transform="translate(-7.458 -2.845)" fill="none"/>
    </clipPath>
    <clipPath id="clip-path-4">
      <rect id="Rectángulo_339668" data-name="Rectángulo 339668" width="39.754" height="24.317" fill="none"/>
    </clipPath>
    <clipPath id="clip-path-5">
      <rect id="Rectángulo_339669" data-name="Rectángulo 339669" width="41.352" height="25.386" fill="none"/>
    </clipPath>
    <clipPath id="clip-path-6">
      <rect id="Rectángulo_339670" data-name="Rectángulo 339670" width="27.014" height="9.72" fill="none"/>
    </clipPath>
    <clipPath id="clip-path-7">
      <rect id="Rectángulo_339671" data-name="Rectángulo 339671" width="18.586" height="16.926" fill="none"/>
    </clipPath>
    <clipPath id="clip-path-8">
      <path id="Trazado_604185" data-name="Trazado 604185" d="M1806.659,210.654V356.786a3.334,3.334,0,0,0,3.088,3.244l1.606.059a2.765,2.765,0,0,0,1.85-.645,3.036,3.036,0,0,0,1.059-2.383V210.406Z" transform="translate(-1806.659 -210.406)" fill="none"/>
    </clipPath>
    <linearGradient id="linear-gradient" x1="-13.883" y1="1.005" x2="-13.876" y2="1.005" gradientUnits="objectBoundingBox">
      <stop offset="0" stop-color="#fe7062"/>
      <stop offset="1" stop-color="#ff928e"/>
    </linearGradient>
    <clipPath id="clip-path-9">
      <path id="Trazado_604186" data-name="Trazado 604186" d="M1762.58,4.637a7.19,7.19,0,0,0-6.793,7.212,6.746,6.746,0,0,0,3.225,5.828c.1.064.208.121.312.178a6.434,6.434,0,0,0,1.318.522,6.547,6.547,0,0,0,1.938.229,6.851,6.851,0,0,0,3.688-1.218,7.294,7.294,0,0,0,3.151-5.993,6.633,6.633,0,0,0-6.59-6.761c-.083,0-.167,0-.25,0" transform="translate(-1755.787 -4.632)" fill="none"/>
    </clipPath>
    <linearGradient id="linear-gradient-2" x1="-5.295" y1="8.683" x2="-5.291" y2="8.683" gradientUnits="objectBoundingBox">
      <stop offset="0" stop-color="#e1473d"/>
      <stop offset="1" stop-color="#e9605a"/>
    </linearGradient>
    <clipPath id="clip-path-10">
      <path id="Trazado_604187" data-name="Trazado 604187" d="M1759.392,26.044a5.59,5.59,0,0,0-5.281,5.607,5.245,5.245,0,0,0,2.507,4.531c.08.049.161.094.243.138a5.007,5.007,0,0,0,1.025.406,5.093,5.093,0,0,0,1.506.178,5.327,5.327,0,0,0,2.868-.947,5.671,5.671,0,0,0,2.45-4.66,5.157,5.157,0,0,0-5.123-5.257c-.064,0-.13,0-.195,0" transform="translate(-1754.111 -26.04)" fill="none"/>
    </clipPath>
    <linearGradient id="linear-gradient-3" x1="-6.843" y1="11.046" x2="-6.839" y2="11.046" xlink:href="#linear-gradient"/>
    <clipPath id="clip-path-11">
      <path id="Trazado_604189" data-name="Trazado 604189" d="M995.972,195.983l-.584-.3-.047.845a.609.609,0,0,0,.164.455l8.716,9.124a.7.7,0,0,0,.4.21l54.2,8.4,6.965,1.079a.232.232,0,0,0,.251-.156l.323-.906-6.709-8.805s8.62-6.281,8.681-6.433l.447-1.414-7.576-.867-54.167-8.007Z" transform="translate(-995.34 -189.201)" fill="none"/>
    </clipPath>
    <linearGradient id="linear-gradient-4" x1="-0.676" y1="3.495" x2="-0.676" y2="3.495" xlink:href="#linear-gradient-2"/>
    <clipPath id="clip-path-12">
      <path id="Trazado_604191" data-name="Trazado 604191" d="M1008.727,178.96l-11.61,6.91a.087.087,0,0,0-.017.134l9.116,9.233a.826.826,0,0,0,.462.238l61.17,9.476a.067.067,0,0,0,.063-.1l-6.161-9.731a.281.281,0,0,1,.07-.374l8.614-6.3a.067.067,0,0,0-.026-.12l-61.132-9.47a.812.812,0,0,0-.125-.01.834.834,0,0,0-.427.118" transform="translate(-997.075 -178.842)" fill="none"/>
    </clipPath>
    <linearGradient id="linear-gradient-5" x1="-0.726" y1="4.329" x2="-0.725" y2="4.329" xlink:href="#linear-gradient"/>
    <clipPath id="clip-path-14">
      <rect id="Rectángulo_339676" data-name="Rectángulo 339676" width="33.842" height="4.581" fill="none"/>
    </clipPath>
    <clipPath id="clip-path-15">
      <rect id="Rectángulo_339677" data-name="Rectángulo 339677" width="33.569" height="4.458" fill="none"/>
    </clipPath>
    <clipPath id="clip-path-16">
      <path id="Trazado_604196" data-name="Trazado 604196" d="M1411.308,651.731l-8.08.461.33,1.264c.051.151,8.67,6.784,8.67,6.784l-7.836,8.1.266.894a.241.241,0,0,0,.253.166l7.466-.62,58.1-4.826a.793.793,0,0,0,.44-.178l9.988-8.283a.577.577,0,0,0,.212-.43l.02-.819-.643.256-11.15-7.219Z" transform="translate(-1403.227 -647.278)" fill="none"/>
    </clipPath>
    <linearGradient id="linear-gradient-6" x1="-1.049" y1="5.492" x2="-1.048" y2="5.492" gradientUnits="objectBoundingBox">
      <stop offset="0" stop-color="#4f52ff"/>
      <stop offset="1" stop-color="#4042e2"/>
    </linearGradient>
    <clipPath id="clip-path-17">
      <path id="Trazado_604197" data-name="Trazado 604197" d="M1468.936,636.748l-65.393,5.432a.118.118,0,0,0-.062.212l8.488,6.521a.257.257,0,0,1,.043.366l-7.33,9.02a.066.066,0,0,0,.056.107l65.57-5.447a.939.939,0,0,0,.509-.2l10.422-8.365a.08.08,0,0,0-.008-.131l-11.721-7.376a.932.932,0,0,0-.5-.142c-.026,0-.053,0-.079,0" transform="translate(-1403.435 -636.745)" fill="none"/>
    </clipPath>
    <linearGradient id="linear-gradient-7" x1="-1.115" y1="2.271" x2="-1.114" y2="2.271" xlink:href="#linear-gradient-6"/>
    <clipPath id="clip-path-19">
      <rect id="Rectángulo_339681" data-name="Rectángulo 339681" width="33.072" height="4.583" fill="none"/>
    </clipPath>
    <clipPath id="clip-path-20">
      <rect id="Rectángulo_339682" data-name="Rectángulo 339682" width="32.805" height="4.457" fill="none"/>
    </clipPath>
    <clipPath id="clip-path-21">
      <path id="Trazado_604200" data-name="Trazado 604200" d="M1831.754,395.738a2.322,2.322,0,1,0,2.322-2.322,2.322,2.322,0,0,0-2.322,2.322" transform="translate(-1831.754 -393.416)" fill="none"/>
    </clipPath>
    <linearGradient id="linear-gradient-8" x1="-19.301" y1="25.395" x2="-19.29" y2="25.395" xlink:href="#linear-gradient-2"/>
    <clipPath id="clip-path-22">
      <path id="Trazado_604201" data-name="Trazado 604201" d="M1849.816,403.873a1.425,1.425,0,1,0,1.425-1.425,1.425,1.425,0,0,0-1.425,1.425" transform="translate(-1849.816 -402.448)" fill="none"/>
    </clipPath>
    <linearGradient id="linear-gradient-9" x1="-37.114" y1="47.851" x2="-37.094" y2="47.851" xlink:href="#linear-gradient-2"/>
    <clipPath id="clip-path-23">
      <path id="Trazado_604202" data-name="Trazado 604202" d="M1826.923,800.726a2.236,2.236,0,1,0,2.236-2.236,2.236,2.236,0,0,0-2.236,2.236" transform="translate(-1826.923 -798.49)" fill="none"/>
    </clipPath>
    <linearGradient id="linear-gradient-10" x1="-19.988" y1="21.913" x2="-19.977" y2="21.913" xlink:href="#linear-gradient-2"/>
    <clipPath id="clip-path-24">
      <path id="Trazado_604203" data-name="Trazado 604203" d="M1844.32,808.561a1.372,1.372,0,1,0,1.372-1.372,1.372,1.372,0,0,0-1.372,1.372" transform="translate(-1844.32 -807.189)" fill="none"/>
    </clipPath>
    <linearGradient id="linear-gradient-11" x1="-38.419" y1="41.246" x2="-38.399" y2="41.246" xlink:href="#linear-gradient-2"/>
    <clipPath id="clip-path-25">
      <path id="Trazado_604204" data-name="Trazado 604204" d="M1827.789,1161.334a2.323,2.323,0,1,0,2.323-2.323,2.323,2.323,0,0,0-2.323,2.323" transform="translate(-1827.789 -1159.011)" fill="none"/>
    </clipPath>
    <linearGradient id="linear-gradient-12" x1="-19.247" y1="17.285" x2="-19.237" y2="17.285" xlink:href="#linear-gradient-2"/>
    <clipPath id="clip-path-26">
      <path id="Trazado_604205" data-name="Trazado 604205" d="M1845.862,1169.473a1.425,1.425,0,1,0,1.426-1.426,1.426,1.426,0,0,0-1.426,1.426" transform="translate(-1845.862 -1168.047)" fill="none"/>
    </clipPath>
    <linearGradient id="linear-gradient-13" x1="-37.014" y1="32.466" x2="-36.994" y2="32.466" xlink:href="#linear-gradient-2"/>
    <clipPath id="clip-path-28">
      <rect id="Rectángulo_339690" data-name="Rectángulo 339690" width="30.414" height="6.568" fill="none"/>
    </clipPath>
    <clipPath id="clip-path-29">
      <rect id="Rectángulo_339691" data-name="Rectángulo 339691" width="30.161" height="6.434" fill="none"/>
    </clipPath>
    <clipPath id="clip-path-30">
      <path id="Trazado_604208" data-name="Trazado 604208" d="M343.743,1456.528c-18.41-.48-38.776,4.465-38.776,4.465-4.849,26.755-2.715,57.017-1.89,66.183a3.833,3.833,0,0,0,3.133,3.422,63,63,0,0,0,11.255.948h.072a90.426,90.426,0,0,0,13.266-1.029,4.777,4.777,0,0,0,3.951-3.723c3.335-15.524,12.863-49.772,12.863-49.772a60.66,60.66,0,0,0,22.579-6.929c-4.6-5.441-6.733-12.328-7.648-16.4a61.78,61.78,0,0,1-18.806,2.831" transform="translate(-301.893 -1453.697)" fill="none"/>
    </clipPath>
    <linearGradient id="linear-gradient-14" x1="-0.082" y1="0.919" x2="-0.082" y2="0.919" xlink:href="#linear-gradient-6"/>
    <clipPath id="clip-path-31">
      <path id="Trazado_604209" data-name="Trazado 604209" d="M1372.438,1010.761c-2.819,11.42-17.735,21.481-32.375,25.878.914,4.068,3.044,10.956,7.647,16.4,24.354-13.389,28.194-40.168,28.194-40.168-1.645-2.026-3.2-2.107-3.436-2.107h-.031" transform="translate(-1340.063 -1010.76)" fill="none"/>
    </clipPath>
    <linearGradient id="linear-gradient-15" x1="-1.758" y1="2.779" x2="-1.756" y2="2.779" gradientUnits="objectBoundingBox">
      <stop offset="0" stop-color="#febbba"/>
      <stop offset="1" stop-color="#ff928e"/>
    </linearGradient>
    <clipPath id="clip-path-32">
      <path id="Trazado_604210" data-name="Trazado 604210" d="M1884.618,732.314c-.714.954-.045,6.014-.011,7.193,1.267,2.473,3.468,1.578,3.284.974a4.885,4.885,0,0,0,3.691-2.131c.81-1.128,1.669-2.571,2.3-3.682a4.947,4.947,0,0,0,.528-3.636,17.093,17.093,0,0,0-2.023-4.094l3.565-3.644a1.732,1.732,0,0,0-.194-2.408s-7.338,6.345-11.14,11.427" transform="translate(-1884.29 -720.887)" fill="none"/>
    </clipPath>
    <linearGradient id="linear-gradient-16" x1="-4.225" y1="5.849" x2="-4.222" y2="5.849" xlink:href="#linear-gradient-15"/>
    <clipPath id="clip-path-33">
      <path id="Trazado_604211" data-name="Trazado 604211" d="M1923.854,867.751l-1.036,2.706,2.838,3.209s1.016-5.378,1.744-6.537.362-1.726-.3-2.074Z" transform="translate(-1922.818 -865.054)" fill="none"/>
    </clipPath>
    <linearGradient id="linear-gradient-17" x1="-10.874" y1="12.249" x2="-10.868" y2="12.249" xlink:href="#linear-gradient-15"/>
    <clipPath id="clip-path-34">
      <path id="Trazado_604212" data-name="Trazado 604212" d="M7.388,1604.888a40.7,40.7,0,0,1,14.913,4.15c1.339-6.984,12.259-12.564,12.259-12.564l-6.892-17.9s-17.311,11.522-20.28,26.311" transform="translate(-7.388 -1578.577)" fill="none"/>
    </clipPath>
    <linearGradient id="linear-gradient-18" x1="0.087" y1="2.023" x2="0.089" y2="2.023" xlink:href="#linear-gradient-6"/>
    <clipPath id="clip-path-35">
      <path id="Trazado_604213" data-name="Trazado 604213" d="M2.521,2042.954c11.214,20.987,42.464-.749,42.464-.749l-2.51-4.785s-19.414,10.729-25.841,1.348a7.324,7.324,0,0,1-1.289-5.7,40.7,40.7,0,0,0-14.913-4.15,20.451,20.451,0,0,0,2.089,14.04" transform="translate(0 -2028.914)" fill="none"/>
    </clipPath>
    <linearGradient id="linear-gradient-19" x1="-0.128" y1="1.084" x2="-0.126" y2="1.084" xlink:href="#linear-gradient-15"/>
    <clipPath id="clip-path-36">
      <path id="Trazado_604214" data-name="Trazado 604214" d="M597.772,1260.134a.61.61,0,0,0,.271.738c1.589.9,7.318,3.505,14.294-.825a2.875,2.875,0,0,0,1.343-2.04l2.037-14.646-11.925-.114Z" transform="translate(-597.736 -1243.247)" fill="none"/>
    </clipPath>
    <linearGradient id="linear-gradient-20" x1="-1.56" y1="4.862" x2="-1.557" y2="4.862" xlink:href="#linear-gradient-15"/>
    <clipPath id="clip-path-37">
      <path id="Trazado_604215" data-name="Trazado 604215" d="M664.387,981.135l4.741,13.123c6.925,4.039,14.895,4.467,15.766-.417s-5.447-17.056-5.447-17.056Z" transform="translate(-664.387 -976.785)" fill="none"/>
    </clipPath>
    <linearGradient id="linear-gradient-21" x1="-1.154" y1="3.685" x2="-1.152" y2="3.685" xlink:href="#linear-gradient-15"/>
    <clipPath id="clip-path-38">
      <path id="Trazado_604216" data-name="Trazado 604216" d="M531.852,828.519a.5.5,0,0,1-.791,0c-.85-1.129-3.092-3.477-6.248-2.1-2.954,1.292-3.306,3.444-3.276,4.531a.5.5,0,0,1-.593.5c-1.484-.3-5.051-.576-6.751,3.069-1.4,3-.525,4.718.279,5.56a.5.5,0,0,1-.221.824c-.98.29-2.25,1.107-2.146,3.4.145,3.167,3.686,2.922,4.7,2.787a.5.5,0,0,1,.442.161c.855.964,4.709,5.061,8.917,5.591a.5.5,0,0,0,.534-.66l-1.773-5.317a.5.5,0,0,1,.277-.619l.908-.392a.5.5,0,0,0,.225-.728,13.031,13.031,0,0,1-1.754-3.817s-1.149-.752,2.96-1.694,10.239-2.407,11.557-5.885c.94-2.48-.525-7.74-3.459-7.74-1.078,0-2.355.71-3.784,2.528" transform="translate(-512.1 -825.991)" fill="none"/>
    </clipPath>
    <linearGradient id="linear-gradient-22" x1="-0.616" y1="3.084" x2="-0.615" y2="3.084" gradientUnits="objectBoundingBox">
      <stop offset="0" stop-color="#09005d"/>
      <stop offset="1" stop-color="#1a0f91"/>
    </linearGradient>
    <clipPath id="clip-path-39">
      <path id="Trazado_604217" data-name="Trazado 604217" d="M679.881,1152.785c-.36,2.643,4.088,3.873,6.307,2.907l-1.4-2.364s-2.274-1.592-3.734-1.592a1.077,1.077,0,0,0-1.177,1.049" transform="translate(-679.861 -1151.736)" fill="none"/>
    </clipPath>
    <linearGradient id="linear-gradient-23" x1="-5.045" y1="11.761" x2="-5.038" y2="11.761" xlink:href="#linear-gradient-15"/>
    <clipPath id="clip-path-40">
      <path id="Trazado_604218" data-name="Trazado 604218" d="M683.753,1780.952c-6.411.542-11.963,1.17-13.879,1.393a1.077,1.077,0,0,0-.911.776l-10.576,36.933a1.081,1.081,0,0,0,1.029,1.378l24.537.229a1.084,1.084,0,0,0,.872-.428c6.277-8.215,18.811-33.292,21.858-39.457a1.081,1.081,0,0,0-.883-1.555c-1.389-.117-3.02-.168-4.809-.168-5.114,0-11.519.416-17.239.9" transform="translate(-658.345 -1780.052)" fill="none"/>
    </clipPath>
    <linearGradient id="linear-gradient-24" x1="-0.597" y1="1.232" x2="-0.596" y2="1.232" xlink:href="#linear-gradient-22"/>
    <clipPath id="clip-path-41">
      <path id="Trazado_604219" data-name="Trazado 604219" d="M685.483,2100.843c-.594,2.149.879,8.207.879,8.207a5.572,5.572,0,0,0,5.04-1.761c1.157-1.135,1.843-2.27,2.782-1.658a1.961,1.961,0,0,0,2.871-.66l-1.682-1.856c2.464,1.2,2.722-1.044,2.722-1.044l-1.809-1.4a2.2,2.2,0,0,0,3.146-1.9,56.174,56.174,0,0,0-8.365-2.231,6.58,6.58,0,0,0-1.037-.087c-3.017,0-4.009,2.443-4.546,4.385" transform="translate(-685.342 -2096.458)" fill="none"/>
    </clipPath>
    <linearGradient id="linear-gradient-25" x1="-2.722" y1="3.113" x2="-2.718" y2="3.113" xlink:href="#linear-gradient-15"/>
    <clipPath id="clip-path-43">
      <rect id="Rectángulo_339705" data-name="Rectángulo 339705" width="34.341" height="58.373" fill="none"/>
    </clipPath>
    <clipPath id="clip-path-44">
      <rect id="Rectángulo_339706" data-name="Rectángulo 339706" width="33.673" height="17.001" fill="none"/>
    </clipPath>
  </defs>
  <g id="Grupo_988572" data-name="Grupo 988572" transform="translate(-664.54 -3745.939)">
    <g id="Grupo_984756" data-name="Grupo 984756" transform="translate(664.54 3745.939)">
      <path id="Trazado_604161" data-name="Trazado 604161" d="M298.155,105.608c-.8,3.553-3.622,15.339-13.056,25.141,0,0-21.091,24.54-76.449,12.894-9.653-2.031-15.946-3.55-23.685-7.931-20.292-11.488-18.2-25.121-38.775-36.681-10.292-5.783-15.25-4.929-22.838-12.522-8-8-10.621-17.353-11.653-21.2-1.235-4.607-4.38-18.938,2.59-33.827a49.532,49.532,0,0,1,8.416-12.3,52.582,52.582,0,0,1,6.793-6.166q1.833-1.394,3.725-2.6a59.842,59.842,0,0,1,8.49-4.483q.515-.223,1.03-.434A77.141,77.141,0,0,1,174.337.08a73.206,73.206,0,0,1,30.914,9.387c6.743,3.864,8.559,8.487,20.617,17.8a131.839,131.839,0,0,0,13.8,9.713c17.048,10.12,23.4,6.177,36.255,14.243,3.353,2.1,14.227,9.132,20.07,22.875,5.943,13.979,3.227,26.787,2.158,31.507" transform="translate(-104.095 14.131)" fill="#e1e8ff"/>
      <path id="Trazado_604162" data-name="Trazado 604162" d="M49.587,2008c3.029,4.095,3.267,5.639,6.636,9.064,6.036,6.135,11.8,7.8,11.815,11.815.01,2.233-1.766,3.908-2.428,4.532-1.148,1.082-5.951,5.052-25.573-.324-12.038-3.3-21.521-5.9-30.36-14.424-3.911-3.773-9.942-9.747-9.668-17.813a13.678,13.678,0,0,1,2.912-8.5c5.776-6.984,18.472-4.08,20.582-3.606,14.193,3.187,23.387,15.615,26.083,19.259" transform="translate(-0.001 -1868.365)" fill="#e1e8ff"/>
      <path id="Trazado_604163" data-name="Trazado 604163" d="M2190.554,75.093c14.071,13.639,15.267,14.534,17.187,15.8a46.763,46.763,0,0,0,10.231,5.444c4.683,1.632,9.27,3.23,12.735,1.106,3.658-2.242,5.058-7.882,4.208-12.238-1.572-8.062-10.854-11.809-24.292-17.232-6.918-2.792-13.089-4.33-18.559-2.158-1.066.423-4.128,1.639-4.532,3.938-.355,2.02,1.517,3.883,3.021,5.341" transform="translate(-2071.673 -47.225)" fill="#f0f4ff"/>
      <path id="Trazado_604164" data-name="Trazado 604164" d="M2686.421,350.69c3.459,1.077,4.332,1.95,5.408,5.409,1.077-3.459,1.95-4.332,5.409-5.409-3.458-1.077-4.332-1.95-5.409-5.409-1.077,3.459-1.949,4.332-5.408,5.409" transform="translate(-2544.188 -312.869)" fill="#fce2c2"/>
      <path id="Trazado_604165" data-name="Trazado 604165" d="M484.245,929.352c3.758,1.17,4.707,2.119,5.877,5.877,1.17-3.758,2.119-4.707,5.877-5.877-3.758-1.17-4.707-2.119-5.877-5.877-1.17,3.758-2.119,4.707-5.877,5.877" transform="translate(-458.607 -860.45)" fill="#fff"/>
      <path id="Trazado_604166" data-name="Trazado 604166" d="M189.661,1327.676c2.1.655,2.633,1.185,3.288,3.288.655-2.1,1.186-2.634,3.288-3.288-2.1-.655-2.633-1.186-3.288-3.288-.655,2.1-1.185,2.633-3.288,3.288" transform="translate(-171.619 -1240.137)" fill="#3c3fa7"/>
      <path id="Trazado_604226" data-name="Trazado 604226" d="M189.661,1327.676c2.1.655,2.633,1.185,3.288,3.288.655-2.1,1.186-2.634,3.288-3.288-2.1-.655-2.633-1.186-3.288-3.288-.655,2.1-1.185,2.633-3.288,3.288" transform="translate(-75.619 -1202.137)" fill="#3c3fa7"/>
      <path id="Trazado_604227" data-name="Trazado 604227" d="M189.661,1327.676c2.1.655,2.633,1.185,3.288,3.288.655-2.1,1.186-2.634,3.288-3.288-2.1-.655-2.633-1.186-3.288-3.288-.655,2.1-1.185,2.633-3.288,3.288" transform="translate(-14.619 -1233.561)" fill="#3c3fa7"/>
      <path id="Trazado_604167" data-name="Trazado 604167" d="M3064.013,1058.5c2.1.655,2.634,1.186,3.288,3.288.655-2.1,1.186-2.633,3.289-3.288-2.1-.655-2.634-1.186-3.289-3.288-.655,2.1-1.185,2.633-3.288,3.288" transform="translate(-2901.79 -985.215)" fill="#fff"/>
      <path id="Trazado_604229" data-name="Trazado 604229" d="M3064.013,1058.5c2.1.655,2.634,1.186,3.288,3.288.655-2.1,1.186-2.633,3.289-3.288-2.1-.655-2.634-1.186-3.289-3.288-.655,2.1-1.185,2.633-3.288,3.288" transform="translate(-3015.79 -1055.215)" fill="#fff"/>
      <path id="Trazado_604230" data-name="Trazado 604230" d="M3064.013,1058.646c2.195.683,2.748,1.237,3.431,3.431.683-2.194,1.237-2.747,3.431-3.431-2.194-.683-2.748-1.237-3.431-3.431-.683,2.193-1.237,2.747-3.431,3.431" transform="translate(-2905.221 -1041.084)" fill="#fff"/>
      <path id="Trazado_604228" data-name="Trazado 604228" d="M3064.014,1060.685c3.5,1.09,4.381,1.972,5.47,5.469,1.089-3.5,1.972-4.38,5.471-5.469-3.5-1.089-4.381-1.972-5.471-5.47-1.089,3.5-1.971,4.381-5.47,5.47" transform="translate(-2972.972 -913.34)" fill="#fff"/>
    </g>
    <g id="Grupo_984857" data-name="Grupo 984857" transform="translate(683.095 3750.627)">
      <g id="Grupo_984856" data-name="Grupo 984856" clip-path="url(#clip-path)">
        <g id="Grupo_984773" data-name="Grupo 984773" transform="translate(0 0)">
          <g id="Grupo_984772" data-name="Grupo 984772" clip-path="url(#clip-path)">
            <g id="Grupo_984762" data-name="Grupo 984762" transform="translate(0.14 7.381)" opacity="0.3">
              <g id="Grupo_984761" data-name="Grupo 984761">
                <g id="Grupo_984760" data-name="Grupo 984760" clip-path="url(#clip-path-4)">
                  <path id="Trazado_604170" data-name="Trazado 604170" d="M48.43,133.064a.6.6,0,0,1-.843.058c-.483-.421-.992-.827-1.511-1.208a.6.6,0,0,1-.136-.825l.007-.01a.6.6,0,0,1,.835-.129c.547.4,1.083.828,1.591,1.271a.6.6,0,0,1,.1.793.565.565,0,0,1-.039.05m-5.011-2.827c-.567-.306-1.152-.59-1.739-.845a.6.6,0,1,1,.476-1.1c.618.269,1.234.568,1.83.89a.6.6,0,0,1-.567,1.051m-4.7-1.894c-.619-.171-1.252-.318-1.884-.436a.6.6,0,0,1,.219-1.174c.665.124,1.332.278,1.984.459a.6.6,0,1,1-.319,1.151m-5.006-.795c-.642-.029-1.293-.03-1.935,0a.6.6,0,0,1-.049-1.193c.676-.027,1.361-.026,2.037,0a.6.6,0,0,1-.053,1.193m-5.058.34c-.631.114-1.266.257-1.888.425a.6.6,0,1,1-.311-1.153c.654-.176,1.322-.327,1.986-.447a.6.6,0,1,1,.213,1.175M23.8,129.34c-.591.251-1.179.531-1.746.832a.6.6,0,0,1-.559-1.056c.6-.316,1.216-.611,1.838-.875a.6.6,0,0,1,.467,1.1M9.709,146.464a.6.6,0,0,1-.476-.7c.125-.664.281-1.332.463-1.984a.6.6,0,0,1,1.15.321c-.173.619-.321,1.253-.439,1.884a.6.6,0,0,1-.7.476m9.677-14.634c-.52.376-1.03.78-1.516,1.2a.6.6,0,1,1-.781-.9c.512-.442,1.049-.867,1.6-1.263a.6.6,0,1,1,.7.968m-8.273,9.623a.6.6,0,0,1-.308-.786c.27-.619.571-1.235.894-1.83a.6.6,0,0,1,1.05.569c-.306.566-.592,1.15-.849,1.739a.6.6,0,0,1-.786.308m4.529-6.21c-.423.483-.83.99-1.21,1.508a.6.6,0,0,1-.97-.7l.007-.01c.4-.546.829-1.08,1.274-1.588a.6.6,0,0,1,.938.736c-.012.017-.025.034-.039.051" transform="translate(-8.823 -126.331)" fill="#91b3fa"/>
                  <path id="Trazado_604171" data-name="Trazado 604171" d="M3.475,507.657a.594.594,0,0,0,.108-.34c0-.308.009-.621.023-.93a.6.6,0,1,0-1.193-.054c-.015.326-.023.655-.025.979a.6.6,0,0,0,1.086.346" transform="translate(-2.389 -483.594)" fill="#91b3fa"/>
                </g>
              </g>
            </g>
            <g id="Grupo_984765" data-name="Grupo 984765" transform="translate(6.496 29.695)" opacity="0.3">
              <g id="Grupo_984764" data-name="Grupo 984764">
                <g id="Grupo_984763" data-name="Grupo 984763" clip-path="url(#clip-path-5)">
                  <path id="Trazado_604172" data-name="Trazado 604172" d="M112.94,799.544a.6.6,0,0,0-.073-.771c-.221-.215-.441-.437-.654-.662a.6.6,0,0,0-.867.821c.224.237.456.471.688.7a.6.6,0,0,0,.844-.012.605.605,0,0,0,.061-.074" transform="translate(-111.182 -780.999)" fill="#91b3fa"/>
                  <path id="Trazado_604173" data-name="Trazado 604173" d="M197.268,591.111a.6.6,0,1,1-.942-.734c.386-.5.756-1.015,1.106-1.55a.6.6,0,0,1,1,.654q-.227.348-.464.685c-.225.321-.461.639-.7.945m1.959-4.185a.6.6,0,0,1-.283-.8c.271-.572.522-1.162.744-1.753a.6.6,0,1,1,1.118.42c-.234.622-.5,1.243-.783,1.845a.606.606,0,0,1-.051.088.6.6,0,0,1-.744.2m-4.13,6.61c-.476.464-.978.913-1.493,1.336a.6.6,0,1,1-.758-.923c.489-.4.966-.828,1.418-1.269a.6.6,0,0,1,.833.856m5.927-11.406a.6.6,0,0,1-.451-.714c.139-.617.253-1.247.34-1.872a.6.6,0,0,1,1.183.163c-.091.659-.211,1.323-.358,1.972a.6.6,0,0,1-.714.451m-10.069,14.628c-.566.347-1.155.675-1.75.974a.6.6,0,1,1-.537-1.067c.565-.284,1.125-.6,1.662-.926a.6.6,0,1,1,.625,1.018m-4.748,2.236c-.63.216-1.276.407-1.92.57A.6.6,0,1,1,184,598.4c.612-.154,1.226-.336,1.825-.541a.6.6,0,1,1,.387,1.13m-5.123,1.148c-.662.073-1.335.12-2,.138a.6.6,0,1,1-.032-1.194c.631-.017,1.27-.061,1.9-.131a.6.6,0,1,1,.132,1.187m-5.251,0c-.662-.073-1.329-.175-1.981-.3a.6.6,0,1,1,.231-1.172c.62.122,1.252.219,1.881.288a.6.6,0,0,1-.131,1.187m-5.126-1.152c-.628-.217-1.255-.463-1.864-.732a.6.6,0,1,1,.483-1.092c.578.256,1.174.49,1.771.7a.6.6,0,1,1-.39,1.129m-4.743-2.247c-.417-.257-.831-.529-1.231-.81q-.217-.153-.43-.309a.59.59,0,0,1-.127-.835.6.6,0,0,1,.835-.127q.2.148.409.294c.38.267.774.526,1.17.77a.6.6,0,0,1,.2.821l-.02.031a.6.6,0,0,1-.8.165" transform="translate(-160.968 -574.893)" fill="#91b3fa"/>
                  <path id="Trazado_604174" data-name="Trazado 604174" d="M799.282,510.142a.6.6,0,0,0,.108-.343c0-.323-.007-.653-.02-.979a.6.6,0,1,0-1.193.049c.013.31.019.623.019.93a.6.6,0,0,0,1.086.343" transform="translate(-758.038 -508.248)" fill="#91b3fa"/>
                </g>
              </g>
            </g>
            <path id="Trazado_604175" data-name="Trazado 604175" d="M138,239.613a.279.279,0,0,0-.252-.2l-3.391-.2a14.8,14.8,0,0,0-2.963-3.769L132,232.1a.279.279,0,0,0-.138-.293l-3.553-1.995a.279.279,0,0,0-.322.035l-2.536,2.257a14.8,14.8,0,0,0-4.76-.567l-1.934-2.792a.279.279,0,0,0-.3-.11l-3.923,1.1a.279.279,0,0,0-.2.252l-.2,3.391a14.8,14.8,0,0,0-3.769,2.963l-3.34-.606a.279.279,0,0,0-.293.138l-1.995,3.553a.279.279,0,0,0,.035.322l2.257,2.536a14.792,14.792,0,0,0-.567,4.76l-2.792,1.934a.279.279,0,0,0-.11.3l1.1,3.923a.279.279,0,0,0,.252.2l3.391.2a14.8,14.8,0,0,0,2.963,3.769l-.606,3.34a.279.279,0,0,0,.138.293l3.553,1.995a.279.279,0,0,0,.322-.035l2.536-2.257a14.8,14.8,0,0,0,4.76.567l1.934,2.792a.279.279,0,0,0,.3.11l3.923-1.1a.279.279,0,0,0,.2-.252l.2-3.391a14.8,14.8,0,0,0,3.769-2.963l3.34.606a.279.279,0,0,0,.293-.138l1.995-3.553a.279.279,0,0,0-.035-.322l-2.257-2.536a14.8,14.8,0,0,0,.567-4.76L139,243.84a.279.279,0,0,0,.11-.3Z" transform="translate(-97.496 -215.269)" fill="#91b3fa"/>
            <path id="Trazado_604176" data-name="Trazado 604176" d="M344.916,469.876a4.093,4.093,0,1,1,.381-.465,4.1,4.1,0,0,1-.381.465m-6.111-2.735a3.14,3.14,0,1,0,.86-2.244,3.192,3.192,0,0,0-.295.361,3.117,3.117,0,0,0-.566,1.884" transform="translate(-318.11 -435.915)" fill="#bdd0fb"/>
            <path id="Trazado_604177" data-name="Trazado 604177" d="M252.355,376.854a10.274,10.274,0,0,0,.551-.876q.08-.143.156-.289a10.136,10.136,0,0,0,.628-1.486l.007-.021.019-.059c.012-.038.024-.077.036-.116a.239.239,0,1,0-.456-.141,9.6,9.6,0,0,1-8.65,6.757,9.535,9.535,0,0,1-5.217-1.211,9.735,9.735,0,0,1-.835-.526,9.593,9.593,0,0,1,10.228-16.2,9.6,9.6,0,0,1,3.63,3.6.239.239,0,0,0,.415-.237,10.072,10.072,0,1,0-14.548,13.234,10.286,10.286,0,0,0,.877.552,10.073,10.073,0,0,0,13.16-2.975" transform="translate(-220.375 -339.889)" fill="#bdd0fb"/>
            <g id="Grupo_984768" data-name="Grupo 984768" transform="translate(37.43 0)" opacity="0.3">
              <g id="Grupo_984767" data-name="Grupo 984767">
                <g id="Grupo_984766" data-name="Grupo 984766" clip-path="url(#clip-path-6)">
                  <path id="Trazado_604178" data-name="Trazado 604178" d="M1081.46,89.5a.369.369,0,0,0-.014-.442c-.2-.245-.4-.487-.61-.72a.369.369,0,1,0-.548.493c.2.222.4.453.582.687a.368.368,0,0,0,.59-.018" transform="translate(-1054.513 -83.064)" fill="#91b3fa"/>
                  <path id="Trazado_604179" data-name="Trazado 604179" d="M665.61,4.423a.369.369,0,0,1-.52.037,15.33,15.33,0,0,0-1.219-.953q-.133-.094-.269-.185a.369.369,0,0,1-.1-.512.382.382,0,0,1,.512-.1q.142.1.282.193a16.013,16.013,0,0,1,1.278,1,.369.369,0,0,1,.06.49l-.023.03m-3.624-2.048a15.3,15.3,0,0,0-1.719-.744.369.369,0,0,1,.251-.694,15.988,15.988,0,0,1,1.8.779.369.369,0,0,1,.162.5.377.377,0,0,1-.027.045.369.369,0,0,1-.468.116m-3.517-1.269a15.143,15.143,0,0,0-1.849-.3.369.369,0,0,1,.072-.734,15.924,15.924,0,0,1,1.939.313.369.369,0,0,1-.162.72M654.748.74A15.226,15.226,0,0,0,652.883.9a.369.369,0,0,1-.11-.73A15.991,15.991,0,0,1,654.729,0a.369.369,0,1,1,.019.737m-3.7.554a15.368,15.368,0,0,0-1.77.611A.369.369,0,0,1,649,1.224a16.141,16.141,0,0,1,1.855-.641.369.369,0,0,1,.2.711M647.6,2.728a15.125,15.125,0,0,0-1.566,1.024.369.369,0,0,1-.441-.591,15.877,15.877,0,0,1,1.642-1.074.369.369,0,0,1,.365.641m-2.994,2.234a15.157,15.157,0,0,0-1.268,1.378.369.369,0,0,1-.573-.465,15.988,15.988,0,0,1,1.33-1.445.369.369,0,0,1,.511.532m-3.742,4.726a.369.369,0,0,1-.178-.49,16.043,16.043,0,0,1,.8-1.5c.044-.074.09-.147.135-.221a.369.369,0,0,1,.625.392c-.043.068-.086.137-.128.208a15.274,15.274,0,0,0-.767,1.437.368.368,0,0,1-.49.178" transform="translate(-640.651 -0.003)" fill="#91b3fa"/>
                </g>
              </g>
            </g>
            <g id="Grupo_984771" data-name="Grupo 984771" transform="translate(49.248 14.926)" opacity="0.3">
              <g id="Grupo_984770" data-name="Grupo 984770">
                <g id="Grupo_984769" data-name="Grupo 984769" clip-path="url(#clip-path-7)">
                  <path id="Trazado_604180" data-name="Trazado 604180" d="M858.487,311.257a16.036,16.036,0,0,1-1.223,1.494.369.369,0,1,1-.541-.5,15.262,15.262,0,0,0,1.166-1.425.369.369,0,0,1,.6.428l0,0m.534-1.487a.369.369,0,0,1-.144-.5,15.437,15.437,0,0,0,.794-1.663.369.369,0,0,1,.684.277,16.129,16.129,0,0,1-.832,1.743.356.356,0,0,1-.021.034.369.369,0,0,1-.48.11m-3.153,4.317a16.022,16.022,0,0,1-1.548,1.155.369.369,0,0,1-.4-.617,15.288,15.288,0,0,0,1.477-1.1.369.369,0,1,1,.476.564m4.65-7.775a.369.369,0,0,1-.26-.452,15.152,15.152,0,0,0,.369-1.805.369.369,0,1,1,.73.1,15.827,15.827,0,0,1-.387,1.893.369.369,0,0,1-.452.26m-7.875,9.887a16.043,16.043,0,0,1-1.78.748.369.369,0,0,1-.244-.7,15.2,15.2,0,0,0,1.7-.714.369.369,0,0,1,.326.662m-3.637,1.277a16.127,16.127,0,0,1-1.908.3.369.369,0,0,1-.071-.734,15.417,15.417,0,0,0,1.82-.287.369.369,0,0,1,.158.721m-3.839.369a15.956,15.956,0,0,1-1.925-.166.369.369,0,0,1,.108-.73,15.108,15.108,0,0,0,1.836.158.369.369,0,0,1,.359.378.365.365,0,0,1-.067.2.369.369,0,0,1-.311.157" transform="translate(-842.927 -300.918)" fill="#91b3fa"/>
                  <path id="Trazado_604181" data-name="Trazado 604181" d="M1148.876,256.978a.366.366,0,0,0,.067-.205c.006-.316,0-.633-.011-.943a.369.369,0,0,0-.737.03c.012.3.016.6.011.9a.369.369,0,0,0,.671.218" transform="translate(-1130.36 -255.477)" fill="#91b3fa"/>
                </g>
              </g>
            </g>
            <path id="Trazado_604182" data-name="Trazado 604182" d="M705.91,75.191a.187.187,0,0,0-.169-.136l-2.269-.132a9.9,9.9,0,0,0-1.982-2.522l.406-2.235a.187.187,0,0,0-.092-.2l-2.377-1.335a.187.187,0,0,0-.216.023l-1.7,1.51a9.9,9.9,0,0,0-3.185-.379l-1.294-1.868a.187.187,0,0,0-.2-.073l-2.625.737a.187.187,0,0,0-.136.169l-.132,2.269A9.9,9.9,0,0,0,687.414,73l-2.235-.406a.187.187,0,0,0-.2.092l-1.335,2.377a.187.187,0,0,0,.023.216l1.51,1.7a9.9,9.9,0,0,0-.379,3.185l-1.869,1.294a.187.187,0,0,0-.073.2l.737,2.625a.187.187,0,0,0,.169.136l2.269.132a9.9,9.9,0,0,0,1.982,2.522l-.406,2.235a.186.186,0,0,0,.092.2l2.377,1.335a.187.187,0,0,0,.216-.023l1.7-1.51a9.9,9.9,0,0,0,3.185.379l1.294,1.868a.187.187,0,0,0,.2.073L699.3,90.9a.187.187,0,0,0,.136-.169l.132-2.269a9.9,9.9,0,0,0,2.522-1.982l2.235.406a.187.187,0,0,0,.2-.092l1.335-2.377a.187.187,0,0,0-.023-.216l-1.51-1.7a9.9,9.9,0,0,0,.379-3.185l1.868-1.295a.187.187,0,0,0,.073-.2Z" transform="translate(-642.957 -63.877)" fill="#91b3fa"/>
            <path id="Trazado_604183" data-name="Trazado 604183" d="M843.636,228.514a2.781,2.781,0,1,1,.262-.32,2.844,2.844,0,0,1-.262.32m-3.437-.43a2.052,2.052,0,1,0-.077-2.9,2.081,2.081,0,0,0-.191.233,2.056,2.056,0,0,0,.268,2.668" transform="translate(-789.815 -210.73)" fill="#bdd0fb"/>
            <path id="Trazado_604184" data-name="Trazado 604184" d="M779.234,163.7q.2-.286.376-.6a7,7,0,0,0,.565-1.3l.019-.061a.369.369,0,1,0-.7-.217,6.233,6.233,0,0,1-.522,1.215h0l-.036.063a6.149,6.149,0,0,1-2.116,2.184,6.248,6.248,0,0,1-1.529.676l-.013,0-.041.012a6.17,6.17,0,0,1-4.719-.564,6.281,6.281,0,0,1-.541-.34,6.211,6.211,0,1,1,8.971-8.161.365.365,0,0,0,.108.119.369.369,0,0,0,.532-.485,6.948,6.948,0,1,0-10.036,9.13,7.074,7.074,0,0,0,.6.381,6.958,6.958,0,0,0,9.083-2.059" transform="translate(-721.812 -143.826)" fill="#bdd0fb"/>
          </g>
        </g>
        <g id="Grupo_984775" data-name="Grupo 984775" transform="translate(105.555 12.293)">
          <g id="Grupo_984774" data-name="Grupo 984774" clip-path="url(#clip-path-8)">
            <rect id="Rectángulo_339673" data-name="Rectángulo 339673" width="7.603" height="149.71" fill="url(#linear-gradient)"/>
          </g>
        </g>
        <g id="Grupo_984777" data-name="Grupo 984777" transform="translate(102.583 0.271)">
          <g id="Grupo_984776" data-name="Grupo 984776" clip-path="url(#clip-path-9)">
            <rect id="Rectángulo_339674" data-name="Rectángulo 339674" width="18.88" height="19.004" transform="translate(-6.161 3.68) rotate(-30.854)" fill="url(#linear-gradient-2)"/>
          </g>
        </g>
        <g id="Grupo_984779" data-name="Grupo 984779" transform="translate(102.485 1.521)">
          <g id="Grupo_984778" data-name="Grupo 984778" clip-path="url(#clip-path-10)">
            <rect id="Rectángulo_339675" data-name="Rectángulo 339675" width="14.678" height="14.775" transform="matrix(0.858, -0.513, 0.513, 0.858, -4.79, 2.861)" fill="url(#linear-gradient-3)"/>
          </g>
        </g>
        <g id="Grupo_984781" data-name="Grupo 984781" transform="translate(58.153 11.054)">
          <g id="Grupo_984780" data-name="Grupo 984780" clip-path="url(#clip-path-11)">
            <path id="Trazado_604188" data-name="Trazado 604188" d="M1014.281,31.625l-4.947,35.924-75.69-10.3,4.947-35.924Z" transform="translate(-937.249 -31.136)" fill="url(#linear-gradient-4)"/>
          </g>
        </g>
        <g id="Grupo_984783" data-name="Grupo 984783" transform="translate(58.255 10.449)">
          <g id="Grupo_984782" data-name="Grupo 984782" clip-path="url(#clip-path-12)">
            <path id="Trazado_604190" data-name="Trazado 604190" d="M964.7,91.065l-2.417,31.105,75.042,5.27,2.417-31.105Z" transform="translate(-964.314 -96.194)" fill="url(#linear-gradient-5)"/>
          </g>
        </g>
        <g id="Grupo_984791" data-name="Grupo 984791" transform="translate(0 0)">
          <g id="Grupo_984790" data-name="Grupo 984790" clip-path="url(#clip-path)">
            <path id="Trazado_604192" data-name="Trazado 604192" d="M1087.186,1044.18l.62.152,8.885-8.959,52.966-4.852,7.069-.883a.238.238,0,0,1,.267.248l-.061,1.156c-.022.158-6.74,8.085-6.74,8.085l8.352,6.8-.1.931a.226.226,0,0,1-.2.206l-6.822.577-53.084,4.491a.679.679,0,0,1-.425-.107l-10.32-6.638a.593.593,0,0,1-.26-.393Z" transform="translate(-1023.667 -969.479)" fill="#7d97f4"/>
            <path id="Trazado_604193" data-name="Trazado 604193" d="M1097.957,1034.365l59.7-5.051a.138.138,0,0,1,.117.226l-6.573,7.809a.277.277,0,0,0,.019.371l8.05,7.8a.064.064,0,0,1-.039.109l-59.914,5.07a.8.8,0,0,1-.49-.119l-10.723-6.649a.084.084,0,0,1-.015-.131l9.374-9.207a.8.8,0,0,1,.5-.23" transform="translate(-1024.492 -969.176)" fill="#91b3fa"/>
            <g id="Grupo_984786" data-name="Grupo 984786" transform="translate(75.286 66.983)" opacity="0.56">
              <g id="Grupo_984785" data-name="Grupo 984785">
                <g id="Grupo_984784" data-name="Grupo 984784" clip-path="url(#clip-path-14)">
                  <path id="Trazado_604194" data-name="Trazado 604194" d="M1322.213,1148.447l-33.275,2.6a.225.225,0,0,1-.241-.206l-.12-1.533a.225.225,0,0,1,.206-.241l33.275-2.6a.225.225,0,0,1,.241.206l.12,1.532a.225.225,0,0,1-.206.241" transform="translate(-1288.577 -1146.467)" fill="#fff"/>
                </g>
              </g>
            </g>
            <g id="Grupo_984789" data-name="Grupo 984789" transform="translate(75.583 72.336)" opacity="0.56">
              <g id="Grupo_984788" data-name="Grupo 984788">
                <g id="Grupo_984787" data-name="Grupo 984787" clip-path="url(#clip-path-15)">
                  <path id="Trazado_604195" data-name="Trazado 604195" d="M1327.029,1239.981l-33.009,2.58a.225.225,0,0,1-.241-.206l-.112-1.43a.225.225,0,0,1,.206-.241l33.009-2.58a.225.225,0,0,1,.241.206l.112,1.43a.224.224,0,0,1-.206.241" transform="translate(-1293.667 -1238.103)" fill="#fff"/>
                </g>
              </g>
            </g>
          </g>
        </g>
        <g id="Grupo_984793" data-name="Grupo 984793" transform="translate(81.984 37.817)">
          <g id="Grupo_984792" data-name="Grupo 984792" clip-path="url(#clip-path-16)">
            <rect id="Rectángulo_339679" data-name="Rectángulo 339679" width="78.098" height="22.817" transform="translate(-0.196 0.002) rotate(-0.507)" fill="url(#linear-gradient-6)"/>
          </g>
        </g>
        <g id="Grupo_984795" data-name="Grupo 984795" transform="translate(81.996 37.202)">
          <g id="Grupo_984794" data-name="Grupo 984794" clip-path="url(#clip-path-17)">
            <rect id="Rectángulo_339680" data-name="Rectángulo 339680" width="74.874" height="64.775" transform="translate(-10.523 8.103) rotate(-37.703)" fill="url(#linear-gradient-7)"/>
          </g>
        </g>
        <g id="Grupo_984803" data-name="Grupo 984803" transform="translate(0 0)">
          <g id="Grupo_984802" data-name="Grupo 984802" clip-path="url(#clip-path)">
            <g id="Grupo_984798" data-name="Grupo 984798" transform="translate(113.722 41.53)" opacity="0.56">
              <g id="Grupo_984797" data-name="Grupo 984797">
                <g id="Grupo_984796" data-name="Grupo 984796" clip-path="url(#clip-path-19)">
                  <path id="Trazado_604198" data-name="Trazado 604198" d="M1979.3,712.877l-32.5,2.54a.224.224,0,0,1-.24-.206l-.125-1.594a.225.225,0,0,1,.206-.241l32.5-2.54a.224.224,0,0,1,.241.206l.125,1.594a.225.225,0,0,1-.206.241" transform="translate(-1946.438 -710.835)" fill="#fff"/>
                </g>
              </g>
            </g>
            <g id="Grupo_984801" data-name="Grupo 984801" transform="translate(114.035 47.049)" opacity="0.56">
              <g id="Grupo_984800" data-name="Grupo 984800">
                <g id="Grupo_984799" data-name="Grupo 984799" clip-path="url(#clip-path-20)">
                  <path id="Trazado_604199" data-name="Trazado 604199" d="M1984.394,807.227l-32.24,2.52a.224.224,0,0,1-.241-.206l-.116-1.489a.225.225,0,0,1,.206-.241l32.24-2.52a.225.225,0,0,1,.241.206l.116,1.489a.225.225,0,0,1-.206.241" transform="translate(-1951.796 -805.291)" fill="#fff"/>
                </g>
              </g>
            </g>
          </g>
        </g>
        <g id="Grupo_984805" data-name="Grupo 984805" transform="translate(107.021 22.985)">
          <g id="Grupo_984804" data-name="Grupo 984804" clip-path="url(#clip-path-21)">
            <rect id="Rectángulo_339684" data-name="Rectángulo 339684" width="5.522" height="5.522" transform="translate(-0.962 4.435) rotate(-77.759)" fill="url(#linear-gradient-8)"/>
          </g>
        </g>
        <g id="Grupo_984807" data-name="Grupo 984807" transform="translate(108.076 23.513)">
          <g id="Grupo_984806" data-name="Grupo 984806" clip-path="url(#clip-path-22)">
            <rect id="Rectángulo_339685" data-name="Rectángulo 339685" width="2.911" height="2.911" transform="matrix(1, -0.022, 0.022, 1, -0.063, 0.001)" fill="url(#linear-gradient-9)"/>
          </g>
        </g>
        <g id="Grupo_984809" data-name="Grupo 984809" transform="translate(106.739 46.652)">
          <g id="Grupo_984808" data-name="Grupo 984808" clip-path="url(#clip-path-23)">
            <rect id="Rectángulo_339686" data-name="Rectángulo 339686" width="5.319" height="5.319" transform="matrix(0.212, -0.977, 0.977, 0.212, -0.927, 4.271)" fill="url(#linear-gradient-10)"/>
          </g>
        </g>
        <g id="Grupo_984811" data-name="Grupo 984811" transform="translate(107.755 47.16)">
          <g id="Grupo_984810" data-name="Grupo 984810" clip-path="url(#clip-path-24)">
            <rect id="Rectángulo_339687" data-name="Rectángulo 339687" width="2.804" height="2.804" transform="translate(-0.06 0.001) rotate(-1.258)" fill="url(#linear-gradient-11)"/>
          </g>
        </g>
        <g id="Grupo_984813" data-name="Grupo 984813" transform="translate(106.789 67.716)">
          <g id="Grupo_984812" data-name="Grupo 984812" clip-path="url(#clip-path-25)">
            <rect id="Rectángulo_339688" data-name="Rectángulo 339688" width="5.525" height="5.525" transform="translate(-0.963 4.437) rotate(-77.759)" fill="url(#linear-gradient-12)"/>
          </g>
        </g>
        <g id="Grupo_984815" data-name="Grupo 984815" transform="translate(107.845 68.244)">
          <g id="Grupo_984814" data-name="Grupo 984814" clip-path="url(#clip-path-26)">
            <rect id="Rectángulo_339689" data-name="Rectángulo 339689" width="2.913" height="2.913" transform="translate(-0.063 0.001) rotate(-1.257)" fill="url(#linear-gradient-13)"/>
          </g>
        </g>
        <g id="Grupo_984823" data-name="Grupo 984823" transform="translate(0 0)">
          <g id="Grupo_984822" data-name="Grupo 984822" clip-path="url(#clip-path)">
            <g id="Grupo_984818" data-name="Grupo 984818" transform="translate(72.461 15.073)" opacity="0.56">
              <g id="Grupo_984817" data-name="Grupo 984817">
                <g id="Grupo_984816" data-name="Grupo 984816" clip-path="url(#clip-path-28)">
                  <path id="Trazado_604206" data-name="Trazado 604206" d="M1270.164,264.551l-29.741-4.693a.225.225,0,0,1-.186-.256l.225-1.427a.225.225,0,0,1,.256-.186l29.741,4.693a.225.225,0,0,1,.186.256l-.225,1.427a.225.225,0,0,1-.256.186" transform="translate(-1240.234 -257.987)" fill="#fff"/>
                </g>
              </g>
            </g>
            <g id="Grupo_984821" data-name="Grupo 984821" transform="translate(71.576 20.085)" opacity="0.56">
              <g id="Grupo_984820" data-name="Grupo 984820">
                <g id="Grupo_984819" data-name="Grupo 984819" clip-path="url(#clip-path-29)">
                  <path id="Trazado_604207" data-name="Trazado 604207" d="M1254.786,350.2l-29.5-4.655a.225.225,0,0,1-.186-.256l.21-1.33a.225.225,0,0,1,.256-.186l29.5,4.655a.224.224,0,0,1,.186.256l-.21,1.33a.225.225,0,0,1-.256.186" transform="translate(-1225.094 -343.772)" fill="#fff"/>
                </g>
              </g>
            </g>
          </g>
        </g>
        <g id="Grupo_984825" data-name="Grupo 984825" transform="translate(17.638 84.933)">
          <g id="Grupo_984824" data-name="Grupo 984824" clip-path="url(#clip-path-30)">
            <rect id="Rectángulo_339693" data-name="Rectángulo 339693" width="87.398" height="92.966" transform="translate(-20.717 4.92) rotate(-14.56)" fill="url(#linear-gradient-14)"/>
          </g>
        </g>
        <g id="Grupo_984827" data-name="Grupo 984827" transform="translate(78.294 59.054)">
          <g id="Grupo_984826" data-name="Grupo 984826" clip-path="url(#clip-path-31)">
            <rect id="Rectángulo_339694" data-name="Rectángulo 339694" width="42.614" height="36.242" transform="translate(-0.402 42.271) rotate(-89.456)" fill="url(#linear-gradient-15)"/>
          </g>
        </g>
        <g id="Grupo_984829" data-name="Grupo 984829" transform="translate(110.09 42.118)">
          <g id="Grupo_984828" data-name="Grupo 984828" clip-path="url(#clip-path-32)">
            <rect id="Rectángulo_339695" data-name="Rectángulo 339695" width="24.602" height="20.588" transform="translate(-8.29 17.529) rotate(-65.729)" fill="url(#linear-gradient-16)"/>
          </g>
        </g>
        <g id="Grupo_984831" data-name="Grupo 984831" transform="translate(112.341 50.541)">
          <g id="Grupo_984830" data-name="Grupo 984830" clip-path="url(#clip-path-33)">
            <rect id="Rectángulo_339696" data-name="Rectángulo 339696" width="10.111" height="9.187" transform="matrix(0.553, -0.833, 0.833, 0.553, -3.968, 5.976)" fill="url(#linear-gradient-17)"/>
          </g>
        </g>
        <g id="Grupo_984833" data-name="Grupo 984833" transform="translate(0.432 92.229)">
          <g id="Grupo_984832" data-name="Grupo 984832" clip-path="url(#clip-path-34)">
            <rect id="Rectángulo_339697" data-name="Rectángulo 339697" width="33.958" height="36.314" transform="translate(-7.412 1.925) rotate(-14.56)" fill="url(#linear-gradient-18)"/>
          </g>
        </g>
        <g id="Grupo_984835" data-name="Grupo 984835" transform="translate(0 118.54)">
          <g id="Grupo_984834" data-name="Grupo 984834" clip-path="url(#clip-path-35)">
            <rect id="Rectángulo_339698" data-name="Rectángulo 339698" width="35.456" height="45.779" transform="translate(-0.796 35.023) rotate(-89.456)" fill="url(#linear-gradient-19)"/>
          </g>
        </g>
        <g id="Grupo_984837" data-name="Grupo 984837" transform="translate(34.923 72.637)">
          <g id="Grupo_984836" data-name="Grupo 984836" clip-path="url(#clip-path-36)">
            <rect id="Rectángulo_339699" data-name="Rectángulo 339699" width="21.301" height="18.245" transform="matrix(0.009, -1, 1, 0.009, -0.264, 21.129)" fill="url(#linear-gradient-20)"/>
          </g>
        </g>
        <g id="Grupo_984839" data-name="Grupo 984839" transform="translate(38.817 57.069)">
          <g id="Grupo_984838" data-name="Grupo 984838" clip-path="url(#clip-path-37)">
            <rect id="Rectángulo_339700" data-name="Rectángulo 339700" width="29.926" height="29.746" transform="translate(-9.847 15.805) rotate(-58.076)" fill="url(#linear-gradient-21)"/>
          </g>
        </g>
        <g id="Grupo_984841" data-name="Grupo 984841" transform="translate(29.92 48.259)">
          <g id="Grupo_984840" data-name="Grupo 984840" clip-path="url(#clip-path-38)">
            <rect id="Rectángulo_339701" data-name="Rectángulo 339701" width="39.274" height="39.302" transform="matrix(0.627, -0.779, 0.779, 0.627, -13.703, 15.942)" fill="url(#linear-gradient-22)"/>
          </g>
        </g>
        <g id="Grupo_984843" data-name="Grupo 984843" transform="translate(39.721 67.291)">
          <g id="Grupo_984842" data-name="Grupo 984842" clip-path="url(#clip-path-39)">
            <rect id="Rectángulo_339702" data-name="Rectángulo 339702" width="7.703" height="8.261" transform="matrix(0.529, -0.849, 0.849, 0.529, -2.548, 3.546)" fill="url(#linear-gradient-23)"/>
          </g>
        </g>
        <g id="Grupo_984845" data-name="Grupo 984845" transform="translate(38.464 104)">
          <g id="Grupo_984844" data-name="Grupo 984844" clip-path="url(#clip-path-40)">
            <rect id="Rectángulo_339703" data-name="Rectángulo 339703" width="57.194" height="51.858" transform="translate(-9.597 2.266) rotate(-13.496)" fill="url(#linear-gradient-24)"/>
          </g>
        </g>
        <g id="Grupo_984847" data-name="Grupo 984847" transform="translate(40.041 122.486)">
          <g id="Grupo_984846" data-name="Grupo 984846" clip-path="url(#clip-path-41)">
            <rect id="Rectángulo_339704" data-name="Rectángulo 339704" width="14.543" height="12.944" transform="translate(-0.453 0)" fill="url(#linear-gradient-25)"/>
          </g>
        </g>
        <g id="Grupo_984855" data-name="Grupo 984855" transform="translate(0 0)">
          <g id="Grupo_984854" data-name="Grupo 984854" clip-path="url(#clip-path)">
            <path id="Trazado_604220" data-name="Trazado 604220" d="M1081.154,1934.125a3.1,3.1,0,1,0,3.1-3.1,3.1,3.1,0,0,0-3.1,3.1" transform="translate(-1017.987 -1818.201)" fill="#91b3fa"/>
            <path id="Trazado_604221" data-name="Trazado 604221" d="M847.8,1832.291l2.153-7.3a2.5,2.5,0,0,1,1.882-1.758c6.749-1.408,25.221-1.707,25.406-1.709l-.012-.825c-.762.012-18.737.3-25.563,1.727a3.329,3.329,0,0,0-2.505,2.332l-2.153,7.3Z" transform="translate(-797.523 -1714.319)" fill="#bdd0fb"/>
            <path id="Trazado_604222" data-name="Trazado 604222" d="M1814.535,1589.111a.815.815,0,0,1-.536-.34c-1.834-2.645-15.126-23.309,4.016-41.2,18.172-16.981,26.27-20.328,27.661-30.6a1.21,1.21,0,0,1,2.3-.334c3.742,8.238,9.371,27.363-11.658,39.125-23.2,12.975-21.812,28.056-20.848,32.359a.818.818,0,0,1-.934.987" transform="translate(-1702.18 -1427.361)" fill="#91b3fa"/>
            <path id="Trazado_604223" data-name="Trazado 604223" d="M1951.569,2423.976a1.178,1.178,0,0,1-.976-1.019c-.431-3.533-1.345-16.713,8.445-19.887,10.777-3.494,19.061,6.7,27.141-.813a.6.6,0,0,1,.99.552c-.827,4.035-4.232,13.332-18.107,14.781-14.85,1.551-16.569,3.194-16.337,5.308a.992.992,0,0,1-1.156,1.078" transform="translate(-1836.403 -2261.751)" fill="#91b3fa"/>
            <g id="Grupo_984850" data-name="Grupo 984850" transform="translate(108.193 99.887)" opacity="0.47">
              <g id="Grupo_984849" data-name="Grupo 984849">
                <g id="Grupo_984848" data-name="Grupo 984848" clip-path="url(#clip-path-43)">
                  <path id="Trazado_604224" data-name="Trazado 604224" d="M1886.151,1709.843a15.181,15.181,0,0,1-.827,2.125c-.322.687-.677,1.358-1.059,2.013s-.79,1.3-1.232,1.914-.9,1.227-1.384,1.809a32.808,32.808,0,0,1-6.743,6.1,41.858,41.858,0,0,1-3.9,2.342,35.35,35.35,0,0,0-3.772,2.355,38.023,38.023,0,0,0-6.582,5.974,35.328,35.328,0,0,0-4.95,7.375,30.406,30.406,0,0,0-3.064,17.3,35.966,35.966,0,0,0,2.163,8.669.155.155,0,0,1-.288.115,34.913,34.913,0,0,1-2.405-8.717,29.957,29.957,0,0,1,.108-9.069,31.5,31.5,0,0,1,2.761-8.659,35.258,35.258,0,0,1,5.026-7.58,38.88,38.88,0,0,1,6.709-6.141,36.315,36.315,0,0,1,3.858-2.43l.985-.537c.328-.174.647-.363.967-.552l.48-.282.47-.3.471-.3.462-.31a36.185,36.185,0,0,0,3.536-2.7,32.3,32.3,0,0,0,3.162-3.13,30.484,30.484,0,0,0,2.7-3.539,21.814,21.814,0,0,0,2.073-3.938l0-.009a.142.142,0,0,1,.268.092" transform="translate(-1851.815 -1709.661)" fill="#fff"/>
                </g>
              </g>
            </g>
            <g id="Grupo_984853" data-name="Grupo 984853" transform="translate(114.718 142.948)" opacity="0.47">
              <g id="Grupo_984852" data-name="Grupo 984852">
                <g id="Grupo_984851" data-name="Grupo 984851" clip-path="url(#clip-path-44)">
                  <path id="Trazado_604225" data-name="Trazado 604225" d="M1963.5,2463.552a1.769,1.769,0,0,0,.02-.363l0-.362q0-.361.018-.723.027-.723.084-1.443c.077-.96.194-1.918.357-2.869a21.548,21.548,0,0,1,1.663-5.538,12.224,12.224,0,0,1,1.534-2.473,8.648,8.648,0,0,1,2.184-1.94,7.79,7.79,0,0,1,2.742-1.024,8.738,8.738,0,0,1,1.461-.132,10.661,10.661,0,0,1,1.461.081c.487.06.957.145,1.432.225l1.421.251q1.42.259,2.834.543c1.886.374,3.765.784,5.65,1.131.943.172,1.889.325,2.838.42a13.428,13.428,0,0,0,2.842.018,7.273,7.273,0,0,0,2.686-.817,8.851,8.851,0,0,0,2.22-1.75.126.126,0,0,1,.185.173,9.132,9.132,0,0,1-2.268,1.829,7.579,7.579,0,0,1-2.785.883,13.689,13.689,0,0,1-2.912-.009c-.964-.094-1.917-.246-2.865-.416-1.9-.344-3.774-.749-5.659-1.117s-3.777-.723-5.664-1a10.342,10.342,0,0,0-1.414-.088,8.344,8.344,0,0,0-1.406.118,7.456,7.456,0,0,0-2.633.962,8.329,8.329,0,0,0-2.118,1.856,11.987,11.987,0,0,0-1.515,2.4,21.284,21.284,0,0,0-1.7,5.456c-.171.942-.3,1.893-.384,2.847q-.064.716-.1,1.434c-.011.239-.02.479-.025.718l-.005.359a1.379,1.379,0,0,0,.026.357.11.11,0,0,1-.213.054.113.113,0,0,1,0-.049" transform="translate(-1963.498 -2446.683)" fill="#fff"/>
                </g>
              </g>
            </g>
          </g>
        </g>
      </g>
    </g>
  </g>
</svg>
