<svg xmlns="http://www.w3.org/2000/svg" xmlns:xlink="http://www.w3.org/1999/xlink" width="240.598" height="174.326" viewBox="0 0 240.598 174.326">
  <defs>
    <clipPath id="clip-path">
      <rect id="Rectángulo_339782" data-name="Rectángulo 339782" width="240.598" height="108.282" fill="none" stroke="#707070" stroke-width="1" stroke-dasharray="18 10"/>
    </clipPath>
    <clipPath id="clip-path-2">
      <rect id="Rectángulo_339795" data-name="Rectángulo 339795" width="90.809" height="145.76" fill="none"/>
    </clipPath>
    <clipPath id="clip-path-4">
      <rect id="Rectángulo_339783" data-name="Rectángulo 339783" width="25.514" height="8.37" fill="none"/>
    </clipPath>
    <clipPath id="clip-path-5">
      <rect id="Rectángulo_339784" data-name="Rectángulo 339784" width="9.034" height="34.154" fill="none"/>
    </clipPath>
    <clipPath id="clip-path-6">
      <rect id="Rectángulo_339785" data-name="Rectángulo 339785" width="8.971" height="29.321" fill="none"/>
    </clipPath>
    <clipPath id="clip-path-7">
      <rect id="Rectángulo_339786" data-name="Rectángulo 339786" width="6.395" height="6.659" fill="none"/>
    </clipPath>
    <clipPath id="clip-path-8">
      <rect id="Rectángulo_339789" data-name="Rectángulo 339789" width="14.86" height="96.796" fill="none"/>
    </clipPath>
    <clipPath id="clip-path-9">
      <rect id="Rectángulo_339793" data-name="Rectángulo 339793" width="2.556" height="6.438" fill="none"/>
    </clipPath>
  </defs>
  <g id="Grupo_985029" data-name="Grupo 985029" transform="translate(4493.598 7028)">
    <g id="Grupo_984962" data-name="Grupo 984962" transform="translate(-4474.46 -7028)">
      <path id="Trazado_604161" data-name="Trazado 604161" d="M298.155,105.608c-.8,3.553-3.622,15.339-13.056,25.141,0,0-21.091,24.54-76.449,12.894-9.653-2.031-15.946-3.55-23.685-7.931-20.292-11.488-18.2-25.121-38.775-36.681-10.292-5.783-15.25-4.929-22.838-12.522-8-8-10.621-17.353-11.653-21.2-1.235-4.607-4.38-18.938,2.59-33.827a49.532,49.532,0,0,1,8.416-12.3,52.582,52.582,0,0,1,6.793-6.166q1.833-1.394,3.725-2.6a59.842,59.842,0,0,1,8.49-4.483q.515-.223,1.03-.434A77.141,77.141,0,0,1,174.337.08a73.206,73.206,0,0,1,30.914,9.387c6.743,3.864,8.559,8.487,20.617,17.8a131.839,131.839,0,0,0,13.8,9.713c17.048,10.12,23.4,6.177,36.255,14.243,3.353,2.1,14.227,9.132,20.07,22.875,5.943,13.979,3.227,26.787,2.158,31.507" transform="translate(-104.095 14.131)" fill="#e1e8ff"/>
      <path id="Trazado_604162" data-name="Trazado 604162" d="M49.587,2008c3.029,4.095,3.267,5.639,6.636,9.064,6.036,6.135,11.8,7.8,11.815,11.815.01,2.233-1.766,3.908-2.428,4.532-1.148,1.082-5.951,5.052-25.573-.324-12.038-3.3-21.521-5.9-30.36-14.424-3.911-3.773-9.942-9.747-9.668-17.813a13.678,13.678,0,0,1,2.912-8.5c5.776-6.984,18.472-4.08,20.582-3.606,14.193,3.187,23.387,15.615,26.083,19.259" transform="translate(-0.001 -1868.365)" fill="#e1e8ff"/>
      <path id="Trazado_604163" data-name="Trazado 604163" d="M2190.554,75.093c14.071,13.639,15.267,14.534,17.187,15.8a46.763,46.763,0,0,0,10.231,5.444c4.683,1.632,9.27,3.23,12.735,1.106,3.658-2.242,5.058-7.882,4.208-12.238-1.572-8.062-10.854-11.809-24.292-17.232-6.918-2.792-13.089-4.33-18.559-2.158-1.066.423-4.128,1.639-4.532,3.938-.355,2.02,1.517,3.883,3.021,5.341" transform="translate(-2071.673 -47.225)" fill="#f0f4ff"/>
      <path id="Trazado_604164" data-name="Trazado 604164" d="M2686.421,350.69c3.459,1.077,4.332,1.95,5.408,5.409,1.077-3.459,1.95-4.332,5.409-5.409-3.458-1.077-4.332-1.95-5.409-5.409-1.077,3.459-1.949,4.332-5.408,5.409" transform="translate(-2544.188 -312.869)" fill="#fce2c2"/>
      <path id="Trazado_604165" data-name="Trazado 604165" d="M484.245,929.352c3.758,1.17,4.707,2.119,5.877,5.877,1.17-3.758,2.119-4.707,5.877-5.877-3.758-1.17-4.707-2.119-5.877-5.877-1.17,3.758-2.119,4.707-5.877,5.877" transform="translate(-458.607 -860.45)" fill="#fff"/>
      <path id="Trazado_604166" data-name="Trazado 604166" d="M189.661,1327.676c2.1.655,2.633,1.185,3.288,3.288.655-2.1,1.186-2.634,3.288-3.288-2.1-.655-2.633-1.186-3.288-3.288-.655,2.1-1.185,2.633-3.288,3.288" transform="translate(-171.619 -1240.137)" fill="#3c3fa7"/>
      <path id="Trazado_604226" data-name="Trazado 604226" d="M189.661,1327.676c2.1.655,2.633,1.185,3.288,3.288.655-2.1,1.186-2.634,3.288-3.288-2.1-.655-2.633-1.186-3.288-3.288-.655,2.1-1.185,2.633-3.288,3.288" transform="translate(-75.619 -1202.137)" fill="#3c3fa7"/>
      <path id="Trazado_604227" data-name="Trazado 604227" d="M189.661,1327.676c2.1.655,2.633,1.185,3.288,3.288.655-2.1,1.186-2.634,3.288-3.288-2.1-.655-2.633-1.186-3.288-3.288-.655,2.1-1.185,2.633-3.288,3.288" transform="translate(-7.619 -1227.561)" fill="#3c3fa7"/>
      <path id="Trazado_604167" data-name="Trazado 604167" d="M3064.013,1058.5c2.1.655,2.634,1.186,3.288,3.288.655-2.1,1.186-2.633,3.289-3.288-2.1-.655-2.634-1.186-3.289-3.288-.655,2.1-1.185,2.633-3.288,3.288" transform="translate(-2901.79 -985.215)" fill="#fff"/>
      <path id="Trazado_604229" data-name="Trazado 604229" d="M3064.013,1058.5c2.1.655,2.634,1.186,3.288,3.288.655-2.1,1.186-2.633,3.289-3.288-2.1-.655-2.634-1.186-3.289-3.288-.655,2.1-1.185,2.633-3.288,3.288" transform="translate(-3015.79 -1055.215)" fill="#fff"/>
      <path id="Trazado_604230" data-name="Trazado 604230" d="M3064.013,1058.646c2.195.683,2.748,1.237,3.431,3.431.683-2.194,1.237-2.747,3.431-3.431-2.194-.683-2.748-1.237-3.431-3.431-.683,2.193-1.237,2.747-3.431,3.431" transform="translate(-2905.221 -1041.084)" fill="#fff"/>
      <path id="Trazado_604228" data-name="Trazado 604228" d="M3064.014,1060.685c3.5,1.09,4.381,1.972,5.47,5.469,1.089-3.5,1.972-4.38,5.471-5.469-3.5-1.089-4.381-1.972-5.471-5.47-1.089,3.5-1.971,4.381-5.47,5.47" transform="translate(-2972.972 -913.34)" fill="#fff"/>
    </g>
    <g id="Grupo_985000" data-name="Grupo 985000" transform="translate(-4493.598 -6977.232)">
      <g id="Grupo_985000-2" data-name="Grupo 985000" clip-path="url(#clip-path)">
        <path id="Trazado_604536" data-name="Trazado 604536" d="M238.736,62.913c12.71,22.744-5.682,67.368-122.322,36.355C57.933,83.719,14.249,118.747,5.247,94.3-15.721,37.345,69.91-28.535,117.527,17.46,161.052,59.5,215.6,21.518,238.736,62.913Z" transform="translate(-1.797 -1.798)" fill="none" stroke="#e4e4e4" stroke-miterlimit="10" stroke-width="1" stroke-dasharray="18 10"/>
      </g>
    </g>
    <g id="Grupo_984999" data-name="Grupo 984999" transform="translate(-498.496)">
      <path id="Trazado_604522" data-name="Trazado 604522" d="M85.534,264.818H6.65A6.65,6.65,0,0,1,0,258.168V145.014a6.65,6.65,0,0,1,6.65-6.65H85.534a6.65,6.65,0,0,1,6.65,6.65V258.168a6.65,6.65,0,0,1-6.65,6.65" transform="translate(-3882.092 -7118.492)" fill="#3c3fa7"/>
      <rect id="Rectángulo_339760" data-name="Rectángulo 339760" width="75.874" height="110.217" transform="translate(-3873.761 -6975.032)" fill="#f6f5f5"/>
      <path id="Trazado_604523" data-name="Trazado 604523" d="M168.984,195.329c.024,42.979,1.411,94.813-3.417,106.289-21.264,2.072-46.163,2.737-72.459,2.861l10-108.818Z" transform="translate(-3966.871 -7170.36)" fill="#e4e4e4"/>
      <path id="Trazado_604524" data-name="Trazado 604524" d="M119.423,298.2c-33.143,5.3-55.295,5.584-73.261,4.25,2.328-24.784,3.261-65.956,4.2-107.061l39.939.089,36.146,2.386c.527,42.664.584,82.073-7.024,100.337" transform="translate(-3924.124 -7170.412)" fill="#fff"/>
      <rect id="Rectángulo_339761" data-name="Rectángulo 339761" width="6.081" height="39.926" transform="translate(-3856.469 -6958.788) rotate(-88.652)" fill="#708cd5"/>
      <rect id="Rectángulo_339762" data-name="Rectángulo 339762" width="2.784" height="36.013" transform="matrix(0.024, -1, 1, 0.024, -3844.785, -6947.115)" fill="#708cd5"/>
      <rect id="Rectángulo_339763" data-name="Rectángulo 339763" width="2.784" height="24.478" transform="translate(-3844.928 -6941.047) rotate(-88.652)" fill="#d3dfff"/>
      <rect id="Rectángulo_339764" data-name="Rectángulo 339764" width="8.525" height="8.525" transform="translate(-3864.788 -6941.678) rotate(-88.652)" fill="#fff"/>
      <rect id="Rectángulo_339765" data-name="Rectángulo 339765" width="8.525" height="8.525" transform="translate(-3864.788 -6941.678) rotate(-88.652)" fill="none" stroke="#3c3fa7" stroke-miterlimit="10" stroke-width="6"/>
      <rect id="Rectángulo_339766" data-name="Rectángulo 339766" width="2.784" height="29.656" transform="translate(-3845.15 -6931.619) rotate(-88.652)" fill="#708cd5"/>
      <rect id="Rectángulo_339767" data-name="Rectángulo 339767" width="2.784" height="36.013" transform="matrix(0.024, -1, 1, 0.024, -3845.293, -6925.552)" fill="#d3dfff"/>
      <rect id="Rectángulo_339768" data-name="Rectángulo 339768" width="8.525" height="8.525" transform="translate(-3865.153 -6926.183) rotate(-88.652)" fill="#fff"/>
      <rect id="Rectángulo_339769" data-name="Rectángulo 339769" width="8.525" height="8.525" transform="translate(-3865.153 -6926.183) rotate(-88.652)" fill="none" stroke="#3c3fa7" stroke-miterlimit="10" stroke-width="6"/>
      <rect id="Rectángulo_339770" data-name="Rectángulo 339770" width="2.784" height="36.013" transform="matrix(0.024, -1, 1, 0.024, -3845.515, -6916.124)" fill="#708cd5"/>
      <rect id="Rectángulo_339771" data-name="Rectángulo 339771" width="2.784" height="16.105" transform="matrix(0.024, -1, 1, 0.024, -3845.658, -6910.056)" fill="#d3dfff"/>
      <rect id="Rectángulo_339772" data-name="Rectángulo 339772" width="8.525" height="8.525" transform="translate(-3865.518 -6910.688) rotate(-88.652)" fill="#fff"/>
      <path id="Trazado_604534" data-name="Trazado 604534" d="M0,0H8.525V8.525H0Z" transform="translate(-3865.518 -6910.688) rotate(-88.652)" fill="none" stroke="#3c3fa7" stroke-width="6"/>
      <rect id="Rectángulo_339774" data-name="Rectángulo 339774" width="2.784" height="36.013" transform="matrix(0.024, -1, 1, 0.024, -3845.88, -6900.628)" fill="#708cd5"/>
      <rect id="Rectángulo_339775" data-name="Rectángulo 339775" width="2.784" height="28.449" transform="translate(-3846.022 -6894.561) rotate(-88.652)" fill="#d3dfff"/>
      <rect id="Rectángulo_339776" data-name="Rectángulo 339776" width="8.525" height="8.525" transform="translate(-3865.882 -6895.192) rotate(-88.652)" fill="#fff"/>
      <rect id="Rectángulo_339777" data-name="Rectángulo 339777" width="8.525" height="8.525" transform="translate(-3865.882 -6895.192) rotate(-88.652)" fill="none" stroke="#3c3fa7" stroke-miterlimit="10" stroke-width="6"/>
      <rect id="Rectángulo_339778" data-name="Rectángulo 339778" width="2.784" height="14.275" transform="matrix(0.024, -1, 1, 0.024, -3846.241, -6885.25)" fill="#708cd5"/>
      <path id="Trazado_604529" data-name="Trazado 604529" d="M435.169,1236.365l-36-.847-.065,2.783c13.929.327,31.664.979,35.283.424a3.124,3.124,0,0,0,.785-2.359" transform="translate(-4245.485 -8117.483)" fill="#d3dfff"/>
      <path id="Trazado_604535" data-name="Trazado 604535" d="M0,0H8.525V8.525H0Z" transform="translate(-3866.125 -6879.811) rotate(-88.652)" fill="#3c3fa7" stroke="#3c3fa7" stroke-width="6"/>
      <g id="Grupo_984998" data-name="Grupo 984998">
        <path id="Trazado_604525" data-name="Trazado 604525" d="M211,446.581c.263,1.007.749,5.227,2.862,4.047a6.435,6.435,0,0,0,1.264-1.405l1.966-2.232,3.932-4.464c.336-.381-1.147-1.338-1.569-.859l-3.495,3.968-1.748,1.984c-.4.459-1.339,1.939-1.939,2.071l.978.316c.23.189-.2-1.151-.207-1.188l-.488-1.867c-.134-.514-1.757-1.132-1.558-.37" transform="translate(-4074.197 -7394.54)" fill="#fc5f65"/>
        <path id="Trazado_604526" data-name="Trazado 604526" d="M206.859,622.459c.263,1.007.749,5.227,2.862,4.047a6.434,6.434,0,0,0,1.264-1.405l1.966-2.232,3.932-4.464c.336-.381-1.147-1.338-1.569-.859l-3.495,3.968-1.748,1.984c-.4.459-1.339,1.939-1.939,2.071l.978.316c.23.189-.2-1.151-.207-1.188l-.488-1.867c-.134-.514-1.757-1.132-1.558-.37" transform="translate(-4070.428 -7554.682)" fill="#fc5f65"/>
        <path id="Trazado_604527" data-name="Trazado 604527" d="M204.076,796.881c.263,1.007.749,5.227,2.862,4.047a6.434,6.434,0,0,0,1.264-1.405l1.966-2.232,3.932-4.464c.336-.381-1.147-1.338-1.569-.859l-3.495,3.968-1.747,1.984c-.4.459-1.339,1.939-1.939,2.071l.978.316c.23.189-.2-1.151-.207-1.188l-.488-1.867c-.134-.514-1.757-1.132-1.558-.37" transform="translate(-4067.894 -7713.499)" fill="#fc5f65"/>
        <path id="Trazado_604528" data-name="Trazado 604528" d="M200.026,968.935c.263,1.007.749,5.227,2.862,4.047a6.436,6.436,0,0,0,1.264-1.405l1.966-2.232,3.932-4.464c.336-.381-1.147-1.338-1.569-.859l-3.495,3.968-1.748,1.984c-.4.459-1.339,1.939-1.939,2.071l.978.316c.23.189-.2-1.151-.207-1.188l-.488-1.867c-.134-.514-1.757-1.132-1.558-.37" transform="translate(-4064.207 -7870.159)" fill="#fc5f65"/>
        <path id="Trazado_604530" data-name="Trazado 604530" d="M196.012,1139.484c.263,1.008.749,5.228,2.862,4.047a6.432,6.432,0,0,0,1.264-1.405l1.966-2.232,3.932-4.464c.336-.381-1.147-1.338-1.569-.859l-3.495,3.968-1.748,1.984c-.4.459-1.339,1.939-1.939,2.071l.978.316c.23.189-.2-1.152-.207-1.188l-.488-1.867c-.134-.514-1.757-1.132-1.558-.371" transform="translate(-4060.552 -8025.449)" fill="#fc5f65"/>
      </g>
      <path id="Trazado_604531" data-name="Trazado 604531" d="M358.337,13.148v8.507H324.159V13.148A4.91,4.91,0,0,1,325.6,9.673a4.062,4.062,0,0,1,.347-.311,4.878,4.878,0,0,1,3.128-1.127,5.787,5.787,0,0,0,2.512-.573,6.033,6.033,0,0,0,.945-.569,5.784,5.784,0,0,0,2.1-2.974A5.808,5.808,0,0,1,340.181,0h2.133a5.808,5.808,0,0,1,5.554,4.116,5.784,5.784,0,0,0,2.1,2.974,6.03,6.03,0,0,0,.945.569,5.787,5.787,0,0,0,2.512.573,4.92,4.92,0,0,1,4.914,4.914" transform="translate(-4177.249 -6992.51)" fill="#fc5f65"/>
      <path id="Trazado_604532" data-name="Trazado 604532" d="M332.884,195.323v6.324H293.159v-6.324h2.774V199.5h34.178v-4.176Z" transform="translate(-4149.022 -7170.354)" fill="#e4e4e4"/>
      <path id="Trazado_604533" data-name="Trazado 604533" d="M487.345,27.674a3.035,3.035,0,1,1-3.031-2.881,2.959,2.959,0,0,1,3.031,2.881" transform="translate(-4320.313 -7015.083)" fill="#fff"/>
      <rect id="Rectángulo_339781" data-name="Rectángulo 339781" width="92.184" height="138.833" transform="translate(-3882.092 -6992.507)" fill="none"/>
    </g>
    <g id="Grupo_985028" data-name="Grupo 985028" transform="translate(-4464.902 -6999.435)">
      <g id="Grupo_985027" data-name="Grupo 985027" clip-path="url(#clip-path-2)">
        <g id="Grupo_985026" data-name="Grupo 985026" transform="translate(0 0)">
          <g id="Grupo_985025" data-name="Grupo 985025" clip-path="url(#clip-path-2)">
            <path id="Trazado_604537" data-name="Trazado 604537" d="M706.635,119.8c-1.546-.293-2.992-2.876-3.494-3.867a1.23,1.23,0,0,1-.111-.786l.616-3.262s1.42.241,1.31,2.132a1.4,1.4,0,0,0,.1.576l.544,1.422,1.607-1.244-.881-2.488a4.277,4.277,0,0,1-1.788.13c-1.25-.4.389-1.374.907-1.477s1.659-.518,2.177.363.83,1.4.83,1.4a19.517,19.517,0,0,0,.181-6.377c-.017-.2.479-.194.619-.052.417.425,1.082,1.718,1.118,5.651,0,0,.07-4.583.855-5.055.648-.389.975,1.854.519,5.659,0,0,.846-3.294,1.451-3.3,1.022-.01.013,8.8-2.554,11.421Z" transform="translate(-622.778 -94.048)" fill="#f9b384"/>
            <path id="Trazado_604538" data-name="Trazado 604538" d="M719.65,213.813q-.068.658-.151,1.274v0a37.014,37.014,0,0,1-.676,3.885c-.014.055-.023.105-.036.155-.781,3.2-.922,4.766-3.588,4.346l-2.744-3.123-.027-.032-.2-.228.557-1.644.073-.215.411-1.2.05-.155.7-2.059.283-.835Z" transform="translate(-630.944 -189.412)" fill="#f9b384"/>
            <path id="Trazado_604539" data-name="Trazado 604539" d="M264.993,1210.075l-.7,2.182c-4.789,1.573-7.582,3.376-7.76,5.478h13.847l1.11-7.308a10.742,10.742,0,0,1-6.5-.353" transform="translate(-227.257 -1071.976)" fill="#1f3c88"/>
            <path id="Trazado_604540" data-name="Trazado 604540" d="M332.39,1162.533l-1.736,5.426a10.743,10.743,0,0,0,6.5.353l.716-4.713Z" transform="translate(-292.918 -1029.859)" fill="#f9b384"/>
            <path id="Trazado_604541" data-name="Trazado 604541" d="M503.207,1165.059l.406-5.526-6.505.342-.356,5.094a10.644,10.644,0,0,0,6.454.089" transform="translate(-440.061 -1027.202)" fill="#f9b384"/>
            <path id="Trazado_604542" data-name="Trazado 604542" d="M506.7,1215.164c-.179-2.1-2.625-4.983-7.989-5.668l.164-2.234a10.644,10.644,0,0,1-6.454-.089l-.558,7.992Z" transform="translate(-435.733 -1069.404)" fill="#1f3c88"/>
            <path id="Trazado_604543" data-name="Trazado 604543" d="M446.195,146.348l-7.847.055V134.534h7.61l0,.726.036,3.762.055,6.039Z" transform="translate(-388.321 -119.18)" fill="#f9b384"/>
            <path id="Trazado_604544" data-name="Trazado 604544" d="M453.83,149.655c-1.411,1.484-5.09-.192-6.642-1.826l6.606-1.936Z" transform="translate(-396.153 -129.243)" fill="#e28b6d"/>
            <path id="Trazado_604545" data-name="Trazado 604545" d="M424.956,49.16a16.965,16.965,0,0,1-.205,2.671c-.383,2.392-1.4,4.46-3.734,4.524-5.524.16-7.1-3-8.139-5.583s.648-8.811.648-8.811l7.149-.707,3.926,3.218a29.291,29.291,0,0,1,.356,4.688" transform="translate(-365.457 -36.546)" fill="#f9b384"/>
            <path id="Trazado_604546" data-name="Trazado 604546" d="M386.147,12.747s1.576-.073,1.845-4.14A5.569,5.569,0,0,0,394.5,6.814a3.768,3.768,0,0,0,6.605-1.35c.951-2.72-1.674-6.771-5.5-4.318-3.747-1.893-9.43-1.763-11.065,2.88,0,0-5.685,2.621.334,8.393a6.958,6.958,0,0,0,1.269.328" transform="translate(-338.504 -0.001)" fill="#102048"/>
            <path id="Trazado_604547" data-name="Trazado 604547" d="M495.066,611.833l-4.337,65.587h-10.2l2.549-63.644,1.56-.723Z" transform="translate(-425.693 -542.008)" fill="#102048"/>
            <path id="Trazado_604548" data-name="Trazado 604548" d="M319.686,495.4l-7.152,74.561h11.108l10.576-61.931,12.021-3.652.533-13.238-26.781-.609Z" transform="translate(-276.866 -434.551)" fill="#1f3c88"/>
            <g id="Grupo_985003" data-name="Grupo 985003" transform="translate(42.158 53.469)" opacity="0.6">
              <g id="Grupo_985002" data-name="Grupo 985002">
                <g id="Grupo_985001" data-name="Grupo 985001" clip-path="url(#clip-path-4)">
                  <path id="Trazado_604549" data-name="Trazado 604549" d="M371.663,476.057c6.067,2.178,20.3-.311,23.258-3.345l-2.1-4.2-23.414,3.112Z" transform="translate(-369.407 -468.512)" fill="#102048"/>
                </g>
              </g>
            </g>
            <path id="Trazado_604550" data-name="Trazado 604550" d="M422.742,235.191c-.2.082-.4.169-.6.247a41.21,41.21,0,0,1-7.605,2.264,34.9,34.9,0,0,1-5.1.625,29.462,29.462,0,0,1-8.007-.648l3.4-31.708.415-3.867s4.451,5.478,9.358-.571Z" transform="translate(-355.615 -178.533)" fill="#fff"/>
            <g id="Grupo_985006" data-name="Grupo 985006" transform="translate(45.813 25.681)" opacity="0.3">
              <g id="Grupo_985005" data-name="Grupo 985005">
                <g id="Grupo_985004" data-name="Grupo 985004" clip-path="url(#clip-path-5)">
                  <path id="Trazado_604551" data-name="Trazado 604551" d="M409.434,259.145a29.463,29.463,0,0,1-8.007-.648l3.4-31.708,1.214-1.755c3,7.295,6.071,23.448,3.392,34.112" transform="translate(-401.427 -225.033)" fill="#1f3c88"/>
                </g>
              </g>
            </g>
            <path id="Trazado_604552" data-name="Trazado 604552" d="M145.29,195.533c3.381,14.357,4.773,29.131-.209,45.536a18.653,18.653,0,0,1-12.021.152l1.065-29.825-25.069,17.233-1.522-9.4c9.637-9.215,26.3-23.135,37.756-23.7" transform="translate(-95.262 -173.218)" fill="#708cd5"/>
            <g id="Grupo_985009" data-name="Grupo 985009" transform="translate(57.553 29.847)" opacity="0.3">
              <g id="Grupo_985008" data-name="Grupo 985008">
                <g id="Grupo_985007" data-name="Grupo 985007" clip-path="url(#clip-path-6)">
                  <path id="Trazado_604553" data-name="Trazado 604553" d="M513.27,288.59a41.21,41.21,0,0,1-7.605,2.264c-1.511-8.664-1.844-22.9-.616-29.321Z" transform="translate(-504.299 -261.533)" fill="#1f3c88"/>
                </g>
              </g>
            </g>
            <g id="Grupo_985012" data-name="Grupo 985012" transform="translate(81.484 27.473)" opacity="0.6">
              <g id="Grupo_985011" data-name="Grupo 985011">
                <g id="Grupo_985010" data-name="Grupo 985010" clip-path="url(#clip-path-7)">
                  <path id="Trazado_604554" data-name="Trazado 604554" d="M720.383,242.825c-.014.055-.023.105-.036.155-.781,3.2-.922,4.766-3.588,4.346l-2.744-3.122-.027-.032.356-1.872.073-.215.411-1.2.05-.155Z" transform="translate(-713.987 -240.734)" fill="#e28b6d"/>
                </g>
              </g>
            </g>
            <path id="Trazado_604555" data-name="Trazado 604555" d="M534.875,204.361s-6.733,14.266-10.728,14.608c-3.872.332-5.706-3.424-5.706-3.424l2.739,20.848a17.48,17.48,0,0,1-10.805,1.52c-3.62-11.755-4.988-26.954-5.258-43.881,2.931.183,8.735.433,10.813,1.769,3.728,2.4,8.331,10.956,8.331,10.956l5.364-7.3Z" transform="translate(-447.471 -171.889)" fill="#708cd5"/>
            <path id="Trazado_604556" data-name="Trazado 604556" d="M46.609,57.848s.408-6.824,1.1-6.5S49.8,57.6,49.8,57.6l-1.489,2.4Z" transform="translate(-41.29 -45.477)" fill="#6f3428"/>
            <path id="Trazado_604557" data-name="Trazado 604557" d="M110.228,1188.2l.2,2.246a7.208,7.208,0,0,1-6.534,7.824l-.577.052a7.208,7.208,0,0,1-7.824-6.534l-.2-2.246Z" transform="translate(-84.417 -1052.598)" fill="#ee6f57"/>
            <rect id="Rectángulo_339787" data-name="Rectángulo 339787" width="14.996" height="109.194" transform="translate(1.104 28.188) rotate(-5.134)" fill="#fbc343"/>
            <g id="Grupo_985015" data-name="Grupo 985015" transform="translate(5.227 24.603)" opacity="0.3">
              <g id="Grupo_985014" data-name="Grupo 985014">
                <g id="Grupo_985013" data-name="Grupo 985013" clip-path="url(#clip-path-8)">
                  <rect id="Rectángulo_339788" data-name="Rectángulo 339788" width="5.326" height="95.713" transform="matrix(0.996, -0.089, 0.089, 0.996, 0.495, 0.972)" fill="none" stroke="#6f3428" stroke-miterlimit="10" stroke-width="8"/>
                </g>
              </g>
            </g>
            <path id="Trazado_604558" data-name="Trazado 604558" d="M98.511,1057.919l-14.932,1.342-.393-4.382-.274-3.045-.845-9.358L97,1041.133l.84,9.358.274,3.045Z" transform="translate(-72.702 -922.314)" fill="#102048"/>
            <rect id="Rectángulo_339790" data-name="Rectángulo 339790" width="14.992" height="3.057" transform="matrix(0.996, -0.09, 0.09, 0.996, 10.211, 129.519)" fill="#fbc343"/>
            <path id="Trazado_604559" data-name="Trazado 604559" d="M9.658,114.539l4.149-16.627a3.566,3.566,0,0,0,3.169-.438L24.595,113.2Z" transform="translate(-8.556 -86.35)" fill="#ee6f57"/>
            <path id="Trazado_604560" data-name="Trazado 604560" d="M396.776,99.855c-.067-.245-1.181-.582-1.427-.65a1.712,1.712,0,0,0-1.164.011c-1.348.609-1.168,2.539-.47,3.554a3.04,3.04,0,0,0,1.649,1.21c.245.07,2.564.1,2.462-.275l-1.05-3.849" transform="translate(-348.308 -87.797)" fill="#f9b384"/>
            <path id="Trazado_604561" data-name="Trazado 604561" d="M6.034,434.271a2.03,2.03,0,0,0-2.594-1.34c-1.7.587-3.179,1.582-3.408,3.275-.209,1.542.562,6.467,4.007,7.1l-.281-2.531s2.109-.492,2.531-1.406a10.607,10.607,0,0,0-.254-5.1" transform="translate(-0.001 -383.425)" fill="#f9b384"/>
            <path id="Trazado_604562" data-name="Trazado 604562" d="M611.268,297.109c.181,1.078.335,2.159.483,3.241s.275,2.166.414,3.249l.354,3.256c.1,1.087.2,2.174.271,3.265l-.177.021c-.187-1.077-.339-2.158-.49-3.24l-.407-3.25c-.115-1.086-.247-2.169-.347-3.256s-.205-2.174-.278-3.265Z" transform="translate(-541.35 -263.202)" fill="#1f3c88"/>
            <path id="Trazado_604563" data-name="Trazado 604563" d="M336.947,295.5c0,1.21-.032,2.42-.068,3.628s-.093,2.417-.138,3.625l-.2,3.622c-.081,1.207-.164,2.413-.281,3.618l-.178-.008c0-1.211.028-2.42.061-3.629l.145-3.625c.069-1.207.121-2.415.2-3.622s.163-2.413.275-3.619Z" transform="translate(-297.729 -261.773)" fill="#1f3c88"/>
            <path id="Trazado_604572" data-name="Trazado 604572" d="M402.927,110.256a7.378,7.378,0,0,0-.823-.542.719.719,0,0,0-.363-.094.814.814,0,0,0-.38.174l-.15-.1a.71.71,0,0,1,.434-.466.847.847,0,0,1,.661.076,1.71,1.71,0,0,1,.764.841Z" transform="translate(-355.423 -96.731)" fill="#e28b6d"/>
            <g id="Grupo_985024" data-name="Grupo 985024" transform="translate(3.732 55.945)" opacity="0.6">
              <g id="Grupo_985023" data-name="Grupo 985023">
                <g id="Grupo_985022" data-name="Grupo 985022" clip-path="url(#clip-path-9)">
                  <path id="Trazado_604573" data-name="Trazado 604573" d="M35.254,490.207l-2.119,6.438-.438-5.031a4.391,4.391,0,0,0,2.556-1.407" transform="translate(-32.698 -490.207)" fill="#6f3428"/>
                </g>
              </g>
            </g>
          </g>
        </g>
      </g>
    </g>
  </g>
</svg>
