<svg xmlns="http://www.w3.org/2000/svg" xmlns:xlink="http://www.w3.org/1999/xlink" width="208.634" height="174.327" viewBox="0 0 208.634 174.327">
  <defs>
    <clipPath id="clip-path">
      <rect id="Rectángulo_339741" data-name="Rectángulo 339741" width="172.853" height="169.638" fill="none"/>
    </clipPath>
    <clipPath id="clip-path-2">
      <rect id="Rectángulo_339742" data-name="Rectángulo 339742" width="16.194" height="15.564" fill="#fff"/>
    </clipPath>
    <clipPath id="clip-path-3">
      <rect id="Rectángulo_339623" data-name="Rectángulo 339623" width="75.48" height="31.798" fill="none"/>
    </clipPath>
  </defs>
  <g id="Grupo_988574" data-name="Grupo 988574" transform="translate(4487.48 7572.001)">
    <g id="Grupo_984949" data-name="Grupo 984949" transform="translate(-4474.46 -7572)">
      <path id="Trazado_604161" data-name="Trazado 604161" d="M298.155,105.608c-.8,3.553-3.622,15.339-13.056,25.141,0,0-21.091,24.54-76.449,12.894-9.653-2.031-15.946-3.55-23.685-7.931-20.292-11.488-18.2-25.121-38.775-36.681-10.292-5.783-15.25-4.929-22.838-12.522-8-8-10.621-17.353-11.653-21.2-1.235-4.607-4.38-18.938,2.59-33.827a49.532,49.532,0,0,1,8.416-12.3,52.582,52.582,0,0,1,6.793-6.166q1.833-1.394,3.725-2.6a59.842,59.842,0,0,1,8.49-4.483q.515-.223,1.03-.434A77.141,77.141,0,0,1,174.337.08a73.206,73.206,0,0,1,30.914,9.387c6.743,3.864,8.559,8.487,20.617,17.8a131.839,131.839,0,0,0,13.8,9.713c17.048,10.12,23.4,6.177,36.255,14.243,3.353,2.1,14.227,9.132,20.07,22.875,5.943,13.979,3.227,26.787,2.158,31.507" transform="translate(-104.095 14.131)" fill="#e1e8ff"/>
      <path id="Trazado_604162" data-name="Trazado 604162" d="M49.587,2008c3.029,4.095,3.267,5.639,6.636,9.064,6.036,6.135,11.8,7.8,11.815,11.815.01,2.233-1.766,3.908-2.428,4.532-1.148,1.082-5.951,5.052-25.573-.324-12.038-3.3-21.521-5.9-30.36-14.424-3.911-3.773-9.942-9.747-9.668-17.813a13.678,13.678,0,0,1,2.912-8.5c5.776-6.984,18.472-4.08,20.582-3.606,14.193,3.187,23.387,15.615,26.083,19.259" transform="translate(-0.001 -1868.365)" fill="#e1e8ff"/>
      <path id="Trazado_604163" data-name="Trazado 604163" d="M2190.554,75.093c14.071,13.639,15.267,14.534,17.187,15.8a46.763,46.763,0,0,0,10.231,5.444c4.683,1.632,9.27,3.23,12.735,1.106,3.658-2.242,5.058-7.882,4.208-12.238-1.572-8.062-10.854-11.809-24.292-17.232-6.918-2.792-13.089-4.33-18.559-2.158-1.066.423-4.128,1.639-4.532,3.938-.355,2.02,1.517,3.883,3.021,5.341" transform="translate(-2071.673 -47.225)" fill="#f0f4ff"/>
      <path id="Trazado_604164" data-name="Trazado 604164" d="M2686.421,350.69c3.459,1.077,4.332,1.95,5.408,5.409,1.077-3.459,1.95-4.332,5.409-5.409-3.458-1.077-4.332-1.95-5.409-5.409-1.077,3.459-1.949,4.332-5.408,5.409" transform="translate(-2544.188 -312.869)" fill="#fce2c2"/>
      <path id="Trazado_604165" data-name="Trazado 604165" d="M484.245,929.352c3.758,1.17,4.707,2.119,5.877,5.877,1.17-3.758,2.119-4.707,5.877-5.877-3.758-1.17-4.707-2.119-5.877-5.877-1.17,3.758-2.119,4.707-5.877,5.877" transform="translate(-458.607 -860.45)" fill="#fff"/>
      <path id="Trazado_604166" data-name="Trazado 604166" d="M189.661,1327.676c2.1.655,2.633,1.185,3.288,3.288.655-2.1,1.186-2.634,3.288-3.288-2.1-.655-2.633-1.186-3.288-3.288-.655,2.1-1.185,2.633-3.288,3.288" transform="translate(-171.619 -1240.137)" fill="#3c3fa7"/>
      <path id="Trazado_604226" data-name="Trazado 604226" d="M189.661,1327.676c2.1.655,2.633,1.185,3.288,3.288.655-2.1,1.186-2.634,3.288-3.288-2.1-.655-2.633-1.186-3.288-3.288-.655,2.1-1.185,2.633-3.288,3.288" transform="translate(-75.619 -1202.137)" fill="#3c3fa7"/>
      <path id="Trazado_604227" data-name="Trazado 604227" d="M189.661,1327.676c2.1.655,2.633,1.185,3.288,3.288.655-2.1,1.186-2.634,3.288-3.288-2.1-.655-2.633-1.186-3.288-3.288-.655,2.1-1.185,2.633-3.288,3.288" transform="translate(-7.619 -1227.561)" fill="#3c3fa7"/>
      <path id="Trazado_604167" data-name="Trazado 604167" d="M3064.013,1058.5c2.1.655,2.634,1.186,3.288,3.288.655-2.1,1.186-2.633,3.289-3.288-2.1-.655-2.634-1.186-3.289-3.288-.655,2.1-1.185,2.633-3.288,3.288" transform="translate(-2901.79 -985.215)" fill="#fff"/>
      <path id="Trazado_604229" data-name="Trazado 604229" d="M3064.013,1058.5c2.1.655,2.634,1.186,3.288,3.288.655-2.1,1.186-2.633,3.289-3.288-2.1-.655-2.634-1.186-3.289-3.288-.655,2.1-1.185,2.633-3.288,3.288" transform="translate(-3015.79 -1055.215)" fill="#fff"/>
      <path id="Trazado_604230" data-name="Trazado 604230" d="M3064.013,1058.646c2.195.683,2.748,1.237,3.431,3.431.683-2.194,1.237-2.747,3.431-3.431-2.194-.683-2.748-1.237-3.431-3.431-.683,2.193-1.237,2.747-3.431,3.431" transform="translate(-2905.221 -1041.084)" fill="#fff"/>
      <path id="Trazado_604228" data-name="Trazado 604228" d="M3064.014,1060.685c3.5,1.09,4.381,1.972,5.47,5.469,1.089-3.5,1.972-4.38,5.471-5.469-3.5-1.089-4.381-1.972-5.471-5.47-1.089,3.5-1.971,4.381-5.47,5.47" transform="translate(-2972.972 -913.34)" fill="#fff"/>
    </g>
    <g id="Grupo_984994" data-name="Grupo 984994">
      <g id="Grupo_984951" data-name="Grupo 984951" transform="translate(-4461.927 -7567.313)">
        <g id="Grupo_984951-2" data-name="Grupo 984951" clip-path="url(#clip-path)">
          <path id="Trazado_604313" data-name="Trazado 604313" d="M209.015,140.619C227.15,119.2,197.9,99.586,188.608,122.642c-5.287,13.117-10.069,10.047-13.864,16.755-4.41,7.8,3.956,16.763,14.135,14.057,9.124-2.425,14.4-6.055,20.135-12.835" transform="translate(-139.825 -90.464)" fill="#deebff"/>
          <path id="Trazado_604314" data-name="Trazado 604314" d="M112.365,312.646c.743,3.159,6.093,2.236,7.323,4.964,1.674,3.713-4.2,6.835-7.741,5.543-8.043-2.94-8.272-11.212-4.078-16.024,1.307-1.5,4.92-2.381,4.971.714.035,2.092-1.059,2.325-.477,4.8" transform="translate(-84.743 -246.36)" fill="#deebff"/>
          <path id="Trazado_604315" data-name="Trazado 604315" d="M126.31,714.494c.2-.069.4-.133.6-.189a63.779,63.779,0,0,1,1.909-14.677c2.582-9.295.088-14.623-.019-14.846l-.537.259c.025.053,2.5,5.367-.018,14.427a64.724,64.724,0,0,0-1.932,15.026" transform="translate(-101.772 -551.748)" fill="#256b4c"/>
          <path id="Trazado_604316" data-name="Trazado 604316" d="M109.89,763.7c.133-.006.266-.011.4-.011.066,0,.131,0,.2.005.471-14.71-7.24-17.111-7.575-17.208l-.165.573c.078.022,7.6,2.366,7.144,16.641" transform="translate(-82.785 -601.464)" fill="#256b4c"/>
          <path id="Trazado_604317" data-name="Trazado 604317" d="M150.772,745.783c-.038.658-.125,1.415-.244,2.236.2.053.387.113.576.178.128-.872.222-1.679.263-2.379a40.581,40.581,0,0,0-.53-7.183c-.438-3.35-.852-6.515-.183-8.669a3.726,3.726,0,0,1,2.475-2.548,4.3,4.3,0,0,1,3.912.8l.367-.469a4.907,4.907,0,0,0-4.457-.9,4.365,4.365,0,0,0-2.866,2.94c-.708,2.28-.286,5.507.161,8.924a40.232,40.232,0,0,1,.526,7.071" transform="translate(-120.623 -585.48)" fill="#256b4c"/>
          <path id="Trazado_604318" data-name="Trazado 604318" d="M10.431,691.413c1.725-.711,3.731-4.084,5.616-4,.43,2.146-2.75,2.238-3.943,3.512-.987,1.314,3.7,2.033,5.726.688,1.7-1.03.974-3.469,2.8-7.117,1.513-3.141,2.648-3.244,2.77-5.122.222-3.436-3.346-6.552-3.724-6.328-.153.091.283.679.473,2.223.136.126.137,6.209-1.443,4.215-1.107-2.524,1.762-4.4-.168-7.264-1.448-2.145-5.163-2.064-5.242-1.8,1.886.431,3.1,5.262,2.293,7.211-.58,1.129-1.05.183-1.22-.954-1.052-3.667-1.353-5.672-4.06-7.131C6.986,667.756,4.4,670.921.218,671.658c0,0-.952,5.119,1.122,7.933,2,2.708,4.744.122,6.935.754a1.234,1.234,0,0,1,.629,2.037c-.839,1.24-2.809,1.367-4.231,1.443-2.356.125-3.2-.37-3.462.07-.736,1.14,2.962,4.239,4.949,3.505,2.52.172,5.285-4.107,7.831-3.035.083,2-4.9,4.278-7.052,4.443-1.141-.042-1.919-.547-2.025-.37.549,1.1,3.928,3.509,5.52,2.974" transform="translate(0 -539.036)" fill="#3c3fa7"/>
          <path id="Trazado_604319" data-name="Trazado 604319" d="M35.541,705.371a3.617,3.617,0,0,0,1.6-.633,3.806,3.806,0,0,0,1.1-1.245,13.065,13.065,0,0,0,.739-1.688,16.888,16.888,0,0,1,.838-1.812,8.257,8.257,0,0,1,.457-.782.88.88,0,0,1,.593-.431s0,0,.007,0c.04.023.082.043.122.068.134.079.267.163.4.252a.575.575,0,0,1,.027-.06,7.509,7.509,0,0,0-.732-.435.007.007,0,0,0,0,0,1.263,1.263,0,0,1-.225-.292.684.684,0,0,1-.118-.334,1.51,1.51,0,0,1,.137-.515c.066-.161.136-.323.209-.482a28.88,28.88,0,0,0,1.552-3.351,4.57,4.57,0,0,0,.033-3c-.015-.039-.075-.012-.059.029a3.861,3.861,0,0,1,.212,1.771,9.291,9.291,0,0,1-1.171,3.274c-.3.573-.6,1.144-.838,1.742a1.023,1.023,0,0,0-.106.713,1.3,1.3,0,0,0,.215.374,15.469,15.469,0,0,0-2.246-.816l-.106-.033v0a3.284,3.284,0,0,1-.779-1.531,7.075,7.075,0,0,1,.3-3.429c.082-.306.166-.613.243-.921a6.325,6.325,0,0,0,.177-.88,1.73,1.73,0,0,0-.411-1.433c-.03-.029-.081.012-.05.042a1.9,1.9,0,0,1,.331,1.785,22.218,22.218,0,0,0-.766,3.619,3.916,3.916,0,0,0,.838,2.713,12.531,12.531,0,0,1-2.092-.8,6.951,6.951,0,0,1-1.025-.663s0-.005-.005-.008l-.012-.006c-.291-.226-.569-.469-.838-.722-.448-.421-.875-.862-1.318-1.288a6.1,6.1,0,0,1-.437-1.88,15.312,15.312,0,0,0-.407-3.445,2.69,2.69,0,0,0-2.266-1.971c-.043,0-.048.063-.005.065a2.24,2.24,0,0,1,1.57.8,5.065,5.065,0,0,1,.96,3.22,9.5,9.5,0,0,0,.468,3.1l-.172-.164a10.725,10.725,0,0,0-1.887-1.4,23.974,23.974,0,0,0-4.456-1.846.033.033,0,0,0-.023.062c.187.062.373.124.559.188a19.779,19.779,0,0,1,4.25,1.874,3.073,3.073,0,0,0-1.249.107,1.878,1.878,0,0,1-1.543-.109c-.034-.025-.072.028-.038.053a1.8,1.8,0,0,0,1.457.15,2.808,2.808,0,0,1,1.548-.085s0,0,.006,0h0a12.4,12.4,0,0,1,1.787,1.49c.533.522,1.05,1.061,1.617,1.548.054.046.11.092.165.137a2.471,2.471,0,0,0-1.759.125,6.425,6.425,0,0,0-1.669,1.173,10.048,10.048,0,0,1-1.618,1.186,8.568,8.568,0,0,1-3.694,1.1c-.042,0-.03.067.011.064a8.6,8.6,0,0,0,3.812-1.162,10.64,10.64,0,0,0,1.563-1.164,6.079,6.079,0,0,1,1.685-1.161,2.214,2.214,0,0,1,1.886.012,7.373,7.373,0,0,0,1.53.91,23.058,23.058,0,0,0,2.334.794l.2.064a2.944,2.944,0,0,0-1.237.535,6.538,6.538,0,0,0-1.041,1.007,14.5,14.5,0,0,1-1.035,1.081,11.052,11.052,0,0,1-2.374,1.666c-.038.02-.01.08.027.06a11.1,11.1,0,0,0,2.463-1.743c.356-.334.68-.7,1-1.061a6.016,6.016,0,0,1,1.065-1.006,2.757,2.757,0,0,1,1.266-.492s0,0,0,0a10.358,10.358,0,0,1,1.7.7.952.952,0,0,0-.538.406,7.386,7.386,0,0,0-.516.876,16.935,16.935,0,0,0-.817,1.772,12.194,12.194,0,0,1-.76,1.724,3.721,3.721,0,0,1-1.144,1.238,3.553,3.553,0,0,1-1.492.563c-.041.006-.03.07.011.064" transform="translate(-20.877 -553.416)" fill="#52a880"/>
          <path id="Trazado_604320" data-name="Trazado 604320" d="M182.185,703.2c-1.845.279-4.6,3.077-6.409,2.55.094-2.187,3.2-1.518,4.667-2.47,1.272-1.04-3.109-2.857-5.4-2.034-1.9.6-1.773,3.136-4.413,6.245-2.218,2.689-3.345,2.519-3.911,4.313-1.035,3.285,1.687,7.161,2.108,7.034.17-.052-.113-.727.07-2.272-.1-.155,1.348-6.062,2.406-3.749.473,2.715-2.761,3.856-1.568,7.095.895,2.428,4.521,3.235,4.662,2.995-1.729-.869-1.756-5.849-.508-7.55.832-.958,1.063.073.957,1.218.148,3.812-.039,5.831,2.243,7.894,2.8,2.528,6.065.072,10.3.353,0,0,2.146-4.745.8-7.972-1.292-3.106-4.578-1.25-6.555-2.386a1.234,1.234,0,0,1-.125-2.128c1.11-1,3.054-.657,4.453-.393,2.318.441,3.018,1.122,3.379.758.986-.932-1.866-4.823-3.97-4.584-2.406-.769-6.111,2.728-8.328,1.08.4-1.962,5.782-2.985,7.908-2.633,1.1.313,1.733.989,1.879.842-.27-1.2-2.978-4.345-4.651-4.205" transform="translate(-134.145 -564.846)" fill="#3c3fa7"/>
          <path id="Trazado_604321" data-name="Trazado 604321" d="M183.758,709a3.612,3.612,0,0,0-1.709.232,3.81,3.81,0,0,0-1.368.946,13.071,13.071,0,0,0-1.12,1.464,16.933,16.933,0,0,1-1.246,1.56,8.215,8.215,0,0,1-.631.65.879.879,0,0,1-.679.277H177c-.034-.032-.069-.062-.1-.1-.111-.109-.22-.221-.325-.339a.525.525,0,0,1-.041.051,7.556,7.556,0,0,0,.607.6s0,0,0,0a1.262,1.262,0,0,1,.149.338.683.683,0,0,1,.035.353,1.5,1.5,0,0,1-.256.467c-.1.141-.209.281-.318.418a28.91,28.91,0,0,0-2.306,2.884,4.569,4.569,0,0,0-.749,2.911c.005.041.07.03.064-.014a3.853,3.853,0,0,1,.216-1.771,9.289,9.289,0,0,1,1.918-2.9c.423-.486.852-.969,1.229-1.492a1.024,1.024,0,0,0,.273-.667,1.313,1.313,0,0,0-.12-.414,15.436,15.436,0,0,0,1.986,1.328l.1.058v0a3.285,3.285,0,0,1,.392,1.673,7.071,7.071,0,0,1-1.107,3.259c-.153.278-.308.556-.456.836a6.327,6.327,0,0,0-.381.812,1.731,1.731,0,0,0,.057,1.49c.022.035.082.007.059-.029a1.9,1.9,0,0,1,.1-1.813,22.213,22.213,0,0,0,1.607-3.332,3.915,3.915,0,0,0-.167-2.835,12.528,12.528,0,0,1,1.841,1.275,6.959,6.959,0,0,1,.837.888s0,.005,0,.009l.01.009c.229.289.441.592.642.9.334.516.644,1.046.973,1.566a6.087,6.087,0,0,1-.024,1.929,15.29,15.29,0,0,0-.426,3.443,2.691,2.691,0,0,0,1.731,2.455c.041.012.062-.05.021-.062a2.242,2.242,0,0,1-1.333-1.155,5.068,5.068,0,0,1-.165-3.356,9.5,9.5,0,0,0,.284-3.119c.042.066.084.133.127.2a10.738,10.738,0,0,0,1.5,1.809,23.993,23.993,0,0,0,3.887,2.855.033.033,0,0,0,.037-.055q-.249-.157-.5-.316a19.747,19.747,0,0,1-3.681-2.833,3.07,3.07,0,0,0,1.239.194,1.878,1.878,0,0,1,1.472.473c.027.032.076-.01.049-.043a1.8,1.8,0,0,0-1.379-.493,2.811,2.811,0,0,1-1.523-.287s0,0-.006,0h0a12.408,12.408,0,0,1-1.38-1.873c-.394-.634-.766-1.281-1.2-1.889-.042-.058-.085-.115-.127-.172a2.469,2.469,0,0,0,1.738.3,6.424,6.424,0,0,0,1.9-.741,10.054,10.054,0,0,1,1.854-.766,8.57,8.57,0,0,1,3.85-.186c.041.009.045-.058,0-.065a8.6,8.6,0,0,0-3.979.219,10.65,10.65,0,0,0-1.8.758,6.076,6.076,0,0,1-1.913.726,2.214,2.214,0,0,1-1.829-.462,7.394,7.394,0,0,0-1.269-1.248,23.147,23.147,0,0,0-2.077-1.328l-.179-.11a2.937,2.937,0,0,0,1.329-.225,6.534,6.534,0,0,0,1.251-.729,14.5,14.5,0,0,1,1.263-.8,11.055,11.055,0,0,1,2.7-1.052c.042-.01.029-.075-.012-.064a11.1,11.1,0,0,0-2.807,1.1c-.425.24-.826.514-1.228.791a6.012,6.012,0,0,1-1.274.723,2.76,2.76,0,0,1-1.347.176s0,0,0,0a10.336,10.336,0,0,1-1.481-1.086.954.954,0,0,0,.62-.266,7.377,7.377,0,0,0,.709-.728,16.934,16.934,0,0,0,1.216-1.526,12.157,12.157,0,0,1,1.149-1.493,3.717,3.717,0,0,1,1.406-.93,3.549,3.549,0,0,1,1.583-.191c.041,0,.045-.061,0-.065" transform="translate(-139.929 -571.244)" fill="#52a880"/>
          <path id="Trazado_604322" data-name="Trazado 604322" d="M72.562,585.577c1.645.88,5.524.286,6.66,1.792-1.384,1.7-3.475-.7-5.217-.814-1.642.072.781,4.15,3.106,4.86,1.875.657,3.3-1.452,7.273-2.362,3.387-.827,4.187-.016,5.715-1.115,2.8-2.012,2.934-6.747,2.52-6.9-.167-.06-.345.649-1.416,1.778-.011.185-4.708,4.05-4.172,1.564,1.246-2.458,4.52-1.436,5.5-4.745.736-2.481-1.686-5.3-1.943-5.19.865,1.731-2.094,5.737-4.111,6.352-1.24.269-.808-.7-.038-1.548,2.163-3.142,3.521-4.648,2.927-7.666-.727-3.7-4.816-3.687-8.041-6.447,0,0-4.558,2.517-5.414,5.906-.823,3.262,2.92,3.741,3.823,5.834a1.234,1.234,0,0,1-1.174,1.78c-1.49.14-2.84-1.3-3.8-2.351-1.593-1.74-1.747-2.705-2.253-2.629-1.348.156-1.391,4.981.438,6.049,1.468,2.056,6.529,1.472,7.319,4.118-1.492,1.335-6.418-1.069-7.911-2.623-.692-.908-.8-1.829-1-1.8-.5,1.126-.214,5.263,1.21,6.153" transform="translate(-57.305 -455.349)" fill="#6b8dfc"/>
          <path id="Trazado_604323" data-name="Trazado 604323" d="M86.938,616.741a3.614,3.614,0,0,0,1.508.836,3.805,3.805,0,0,0,1.662.061,13.055,13.055,0,0,0,1.773-.5,16.852,16.852,0,0,1,1.932-.5,8.161,8.161,0,0,1,.894-.143.878.878,0,0,1,.709.184s0,0,.007,0c.008.046.018.091.025.137.024.154.044.309.057.466a.549.549,0,0,1,.064-.017,7.518,7.518,0,0,0-.129-.842.008.008,0,0,0,0,0,1.262,1.262,0,0,1,.083-.36.683.683,0,0,1,.183-.3,1.5,1.5,0,0,1,.485-.221c.166-.052.336-.1.5-.145a28.941,28.941,0,0,0,3.574-.931,4.57,4.57,0,0,0,2.342-1.884c.021-.036-.038-.065-.06-.028a3.857,3.857,0,0,1-1.233,1.29,9.29,9.29,0,0,1-3.272,1.176c-.63.136-1.262.266-1.877.46a1.021,1.021,0,0,0-.618.371,1.3,1.3,0,0,0-.152.4,15.473,15.473,0,0,0-.8-2.253c-.013-.034-.028-.069-.042-.1v0a3.284,3.284,0,0,1,.688-1.575,7.069,7.069,0,0,1,2.837-1.949c.288-.131.579-.261.866-.4a6.373,6.373,0,0,0,.791-.422,1.73,1.73,0,0,0,.846-1.228c0-.041-.061-.055-.064-.012a1.9,1.9,0,0,1-1.168,1.39,22.223,22.223,0,0,0-3.281,1.708,3.916,3.916,0,0,0-1.563,2.371,12.54,12.54,0,0,1-.712-2.123,6.927,6.927,0,0,1-.139-1.213s0,0,0-.009,0-.008,0-.013c-.01-.369,0-.738.025-1.106.041-.613.11-1.224.157-1.837a6.09,6.09,0,0,1,1.174-1.531,15.316,15.316,0,0,0,2.4-2.5,2.69,2.69,0,0,0,.083-3c-.026-.034-.079,0-.054.037a2.241,2.241,0,0,1,.377,1.723,5.067,5.067,0,0,1-1.877,2.788,9.492,9.492,0,0,0-2.094,2.328c.005-.078.013-.157.018-.237a10.742,10.742,0,0,0-.118-2.346,24,24,0,0,0-1.406-4.614.033.033,0,0,0-.062.022q.105.275.21.551a19.75,19.75,0,0,1,1.253,4.473,3.07,3.07,0,0,0-.876-.9,1.877,1.877,0,0,1-.9-1.26.033.033,0,0,0-.065,0,1.8,1.8,0,0,0,.81,1.22,2.807,2.807,0,0,1,1.049,1.141s0,0,0,0h0a12.412,12.412,0,0,1-.015,2.327c-.064.744-.153,1.485-.168,2.232,0,.071,0,.143,0,.214a2.469,2.469,0,0,0-1.214-1.279,6.413,6.413,0,0,0-1.966-.544,10.075,10.075,0,0,1-1.944-.5,8.571,8.571,0,0,1-3.2-2.155c-.028-.032-.071.019-.042.05a8.6,8.6,0,0,0,3.319,2.206,10.636,10.636,0,0,0,1.892.467,6.077,6.077,0,0,1,1.967.563,2.214,2.214,0,0,1,1.189,1.464,7.4,7.4,0,0,0,.269,1.76,23.1,23.1,0,0,0,.87,2.306l.077.2a2.941,2.941,0,0,0-1.2-.615,6.543,6.543,0,0,0-1.439-.165,14.394,14.394,0,0,1-1.493-.112,11.061,11.061,0,0,1-2.795-.775c-.039-.017-.068.043-.029.059a11.231,11.231,0,0,0,1.508.518,11.05,11.05,0,0,0,1.4.276c.485.062.97.083,1.457.1a6.022,6.022,0,0,1,1.454.183,2.762,2.762,0,0,1,1.185.665s0,0,0,0a10.351,10.351,0,0,1,.537,1.757.955.955,0,0,0-.656-.158,7.383,7.383,0,0,0-1,.159,16.878,16.878,0,0,0-1.887.5,12.232,12.232,0,0,1-1.814.508,3.72,3.72,0,0,1-1.683-.1,3.549,3.549,0,0,1-1.382-.795c-.031-.028-.073.022-.042.05" transform="translate(-68.667 -483.513)" fill="#789e44"/>
          <path id="Trazado_604324" data-name="Trazado 604324" d="M120.174,812.527c-.075.966-1.348,8.791-1.466,10.3H107.482c-.137-1.58-1.531-9.262-1.619-10.3Z" transform="translate(-85.297 -654.676)" fill="#e54e67"/>
          <path id="Trazado_604325" data-name="Trazado 604325" d="M105.863,812.527c.013.149.053.613.112,1.3H110.3c3.93,0,6.734,3.336,6.718,7.265a2.051,2.051,0,0,1-.794,1.73h2.487c.118-1.5,1.391-9.33,1.466-10.3Z" transform="translate(-85.297 -654.676)" fill="#e03b56"/>
          <path id="Trazado_604326" data-name="Trazado 604326" d="M114.128,801.29H100.378a1.385,1.385,0,1,1,0-2.71h13.751a1.385,1.385,0,1,1,0,2.71" transform="translate(-79.531 -643.439)" fill="#e54e67"/>
          <path id="Trazado_604327" data-name="Trazado 604327" d="M330.792,269.127c7.037-16.21-16.671-16.739-17.456-40.313.153-.53.245-1.088.415-1.642,2.379-7.744-2.552-13.108-9.095-12.986-10.144-5.212-20.618.91-21.814,10.074-1.585,12.139-1.448,18.778-9.647,27.4-12.86,13.527-18.263,25.18-4.732,36.6,14.339,12.1,62.329-19.133,62.329-19.133" transform="translate(-209.954 -171.035)" fill="#1c406b"/>
          <path id="Trazado_604328" data-name="Trazado 604328" d="M386.989,785.523l-4.25.046h-.026l-7.419.081-20.194.222-22.61-.248c.137-.62.274-1.243.411-1.862,1.595-7.2,3.151-14.151,3.353-14.666,15.419-5.482,25.809-5.224,45.334-1.891L386.5,783.86Z" transform="translate(-267.897 -616.234)" fill="#1c406b"/>
          <path id="Trazado_604329" data-name="Trazado 604329" d="M385.342,416.88a24.73,24.73,0,0,1,6.623,23.22c-3.2,14.72-3.337,19.945-.739,34.343,1.723,9.545,1.5,11.43,1.5,11.43s-8.212,4.282-22.6,4.137c-11.313-.114-24.229-3.849-24.229-3.849a109.307,109.307,0,0,0,4.289-33.276c-.675-28.793-10.768-27.794-2.471-33.353s24.178-8.551,37.624-2.653" transform="translate(-277.542 -333.297)" fill="#4042e2"/>
          <path id="Trazado_604330" data-name="Trazado 604330" d="M369.923,546.519a116.94,116.94,0,0,1-18.063-3.481,109.285,109.285,0,0,0,4.29-33.276c-.054-2.3-.169-4.4-.327-6.334l20.324-19.176s-7.5,26.293-14.344,38.028c-6.637,11.367-.094,20.257,8.12,24.239" transform="translate(-283.504 -390.176)" fill="#3335b8"/>
          <path id="Trazado_604331" data-name="Trazado 604331" d="M392.836,308.654s-3.05-2.824-3.427.42c-.389,3.343,4.45,6.034,4.45,6.034Z" transform="translate(-313.74 -247.773)" fill="#fcb4a4"/>
          <path id="Trazado_604332" data-name="Trazado 604332" d="M447.231,366.929s-3.178,11.706-13.762.167c0,0,.406-.865,1.29-3.131.714-1.83.741-3.655,1.108-7.114.061-.57.356-1.08.391-1.711l6.382-.068s.016.722.124,1.815c.215,2.184.794,5.844,2.341,8.164v0a4.817,4.817,0,0,0,2.128,1.873" transform="translate(-349.258 -286.092)" fill="#fac0b3"/>
          <path id="Trazado_604333" data-name="Trazado 604333" d="M439.341,371.67a17.494,17.494,0,0,1-5.876-4.58s.408-.864,1.29-3.13c.713-1.832.743-3.655,1.108-7.114.062-.571.357-1.081.391-1.711l6.382-.07s.016.724.123,1.815a25.886,25.886,0,0,0,1.129,5.607c-.925.357-2.808.727-6.079-.013-2.963-.67-1.335,5.964,1.531,9.2" transform="translate(-349.255 -286.086)" fill="#fcb4a4"/>
          <path id="Trazado_604334" data-name="Trazado 604334" d="M404.319,260.637c2.289,3.823,7.747,9.4,13.385,8.564,5.553-.82,10.139-13.63,7.656-20.2s-8.068-11.832-16.983-6.477c-7.5,4.5-5.286,16.06-4.058,18.111" transform="translate(-324.739 -193.632)" fill="#fac0b3"/>
          <path id="Trazado_604335" data-name="Trazado 604335" d="M423.076,245.711c-4.147-2.114-6.757-12.7-8.712-8.572-1.854,4.848-3.665,8.288-6.822,10.994-2.087,1.789-5.549,3.735-7.1,1.316-1.607-2.511-2.01-3.328-2.092-5.385-.344-8.563,7.677-16.267,19.377-10.483,5.745,2.84,5.346,12.13,5.346,12.13" transform="translate(-320.956 -186.585)" fill="#1c406b"/>
          <path id="Trazado_604336" data-name="Trazado 604336" d="M373.934,442.592c-3.714,5.879-14.45,36.435-24.969,38.672-3.068-.33-1.521-12.632,3.2-19.234C356.47,456,365.6,441.8,366.753,438.75s8.056,1.535,7.18,3.842" transform="translate(-279.891 -352.7)" fill="#fac0b3"/>
          <path id="Trazado_604337" data-name="Trazado 604337" d="M308.74,455.6a34.728,34.728,0,0,1,.127,8.389,64.392,64.392,0,0,1-2.206,11.252c-.309,1.035.261,11.218-8.995,12.742-2.716.447-10.051-1.792-9.6-11.077.318-6.556,2.286-18.683,8.451-27.811,3.412-5.051,6.909-6.966,7.856-5.347,1.263,1.985,2.013,8.2,4.368,11.852" transform="translate(-232.087 -357.087)" fill="#4042e2"/>
          <path id="Trazado_604338" data-name="Trazado 604338" d="M570.257,723.094c-2.3,2.175-3.818,3.527-3.818,3.527-3.715,9.486-13.489,18.049-15.641,10.261-.646-2.338,6.882-7.867,7.2-10.148a14.269,14.269,0,0,0-.006-4c-.058-1,2.9-1.374,2.9-1.374l2.073-2.963s14.366-2.046,7.285,4.7" transform="translate(-443.762 -578.596)" fill="#ffd4d1"/>
          <path id="Trazado_604339" data-name="Trazado 604339" d="M575.744,469.373c-1.035,7.584-9.278,16.054-16.936,24.081-1.939-2.1-4.163-4.2-5.905-6.035l9.441-18.127s-13.752-12.316-16.982-16.084c-11.648-13.585-3.076-22.975-3.076-22.975,13.623,6.374,35,27.869,33.458,39.14" transform="translate(-434.486 -346.651)" fill="#4042e2"/>
          <path id="Trazado_604340" data-name="Trazado 604340" d="M319.15,477.737s-3.746,15.1-7.122,27.138c-.617,2.21-1.225,4.318-1.791,6.208a9.406,9.406,0,0,1-7.015,4.738,8.808,8.808,0,0,1-7.841-3.867v0a15.117,15.117,0,0,1,1.665-11.325c2.229-3.558,11.038-12.29,16.838-17.881,3.049-2.939,5.267-5.009,5.267-5.009" transform="translate(-237.641 -384.926)" fill="#3335b8"/>
          <path id="Trazado_604341" data-name="Trazado 604341" d="M443.772,392s.718-4.213,1-5.692a9.409,9.409,0,0,0-.2-4.26c-.363-1.313-.9-2.3-.8-3.038.152-1.137,2.106-1.232,3.076.378a22.326,22.326,0,0,1,1.932,4.259c.181.591,2.468-1.52,3.818-4.2,1.971-3.909,4.8.714,5.142,2.966.144.936.06,3.573-1.988,7.382a33.869,33.869,0,0,1-5.084,6.27c-1.44,1.257-7.164-2.6-6.9-4.069" transform="translate(-357.55 -304.517)" fill="#fac0b3"/>
          <path id="Trazado_604342" data-name="Trazado 604342" d="M309.382,497.685c3.922,2.9,10.51-1.7,12.965-4.419,6.951-7.689,12.283-22.5,16.681-31.507l-7.645-5.425c-6.929,8.544-20.955,23.409-21.556,24.122-3.1,3.678-7.053,12.345-.445,17.229" transform="translate(-246.384 -367.681)" fill="#4042e2"/>
          <path id="Trazado_604343" data-name="Trazado 604343" d="M574.524,545.231c-2.861-2.62-6.366-5.873-8.949-8.41a79.969,79.969,0,0,0-1.939,14.194,30.73,30.73,0,0,1-1.325-12.325,17.614,17.614,0,0,0,.016-5.288c-.413-2.333-1.4-3.046-1.655-3.2a35.539,35.539,0,0,1,5.514,3.733c3.146,2.574,6.755,6.406,8.337,11.295" transform="translate(-451.75 -427.2)" fill="#3335b8"/>
          <path id="Trazado_604344" data-name="Trazado 604344" d="M442.637,254.329a14.432,14.432,0,0,1-.282,2.278,17.939,17.939,0,0,1-.581,2.2,17.524,17.524,0,0,1-1.967,4.088,16.583,16.583,0,0,1-2.98,3.408,18.064,18.064,0,0,1-3.778,2.472.114.114,0,0,1-.1-.2,17.782,17.782,0,0,0,3.67-2.505,16.216,16.216,0,0,0,2.849-3.389,17.076,17.076,0,0,0,1.838-4.02,17.451,17.451,0,0,0,.523-2.149,13.99,13.99,0,0,0,.229-2.179v-.015a.29.29,0,0,1,.581.009v.006" transform="translate(-348.787 -204.678)" fill="#1c406b"/>
          <path id="Trazado_604345" data-name="Trazado 604345" d="M291.063,258.872c.025-.008-.05.031-.083.056s-.088.069-.13.113l-.128.132-.12.148a5.387,5.387,0,0,0-.434.657,11.74,11.74,0,0,0-.689,1.466,26.671,26.671,0,0,0-1,3.128c-.285,1.062-.519,2.14-.741,3.22l-.341,1.629c-.112.544-.249,1.082-.373,1.624a47.9,47.9,0,0,1-1.976,6.367,33.32,33.32,0,0,1-3.071,5.918,40.3,40.3,0,0,1-4.117,5.234c-.754.816-1.515,1.616-2.255,2.436s-1.454,1.663-2.13,2.535l-.507.654-.484.671c-.33.442-.622.91-.929,1.368a24.124,24.124,0,0,0-1.583,2.9,15.536,15.536,0,0,0-1.456,6.392.071.071,0,0,1-.143,0,15.714,15.714,0,0,1,1.421-6.471,24.446,24.446,0,0,1,1.574-2.937c.305-.464.6-.938.925-1.385l.482-.68.505-.662c.673-.883,1.39-1.731,2.121-2.565s1.5-1.64,2.237-2.455a40.03,40.03,0,0,0,4.041-5.227,32.956,32.956,0,0,0,2.987-5.876,47.419,47.419,0,0,0,1.9-6.324c.118-.539.25-1.075.357-1.616l.325-1.624c.214-1.09.44-2.179.72-3.257a27.2,27.2,0,0,1,1-3.2,12.3,12.3,0,0,1,.71-1.542,5.966,5.966,0,0,1,.475-.731l.14-.174.16-.167c.054-.056.121-.107.182-.16a1.018,1.018,0,0,1,.275-.152.29.29,0,0,1,.154.56" transform="translate(-216.233 -208.121)" fill="#1c406b"/>
          <path id="Trazado_604346" data-name="Trazado 604346" d="M531.406,286.33a27.448,27.448,0,0,0,.684,4.62,35.972,35.972,0,0,0,5.756,12.783,36.367,36.367,0,0,0,2.978,3.644c1.067,1.153,2.255,2.184,3.386,3.3a22.571,22.571,0,0,1,3.071,3.628,9.676,9.676,0,0,1,1.048,2.147,7.721,7.721,0,0,1,.4,2.357.1.1,0,0,1-.2,0,7.5,7.5,0,0,0-.4-2.289,9.459,9.459,0,0,0-1.042-2.085,22.314,22.314,0,0,0-3.067-3.555c-1.127-1.091-2.337-2.119-3.428-3.273a36.7,36.7,0,0,1-3.046-3.65,36.43,36.43,0,0,1-5.962-12.887,27.877,27.877,0,0,1-.746-4.726.29.29,0,1,1,.579-.034v.019Z" transform="translate(-427.701 -230.469)" fill="#1c406b"/>
          <path id="Trazado_604347" data-name="Trazado 604347" d="M607.722,0a20.054,20.054,0,0,0-17.086,30.552l-4.46,10.593,12.656-3.116A20.054,20.054,0,1,0,607.722,0" transform="translate(-472.299)" fill="#fc5f65"/>
          <path id="Trazado_604348" data-name="Trazado 604348" d="M674.909,52.727a1.376,1.376,0,0,1-1.087-1.614l.164-.839a7.511,7.511,0,0,1,1.05-2.826,6.512,6.512,0,0,1,1.574-1.625q.879-.624,1.8-1.165a16.1,16.1,0,0,0,2.25-1.588,4.192,4.192,0,0,0,1.318-2.49,3.594,3.594,0,0,0-.157-2.038,4,4,0,0,0-1.1-1.578,3.5,3.5,0,0,0-1.653-.815,3.98,3.98,0,0,0-2.112.119,4.438,4.438,0,0,0-1.709,1.087q-.285.288-.541.6a1.364,1.364,0,0,1-1.854.212l-.531-.389a1.375,1.375,0,0,1-.255-1.979q.165-.2.35-.413a9.154,9.154,0,0,1,1.866-1.606,7.5,7.5,0,0,1,2.571-1.052,8.007,8.007,0,0,1,3.248.027,8.476,8.476,0,0,1,3.483,1.475,6.179,6.179,0,0,1,2.116,2.8,7.144,7.144,0,0,1,.221,3.983,7.592,7.592,0,0,1-1.1,2.892,8.184,8.184,0,0,1-1.7,1.808q-.958.742-1.934,1.385-.841.518-1.578,1.075a5.616,5.616,0,0,0-1.285,1.378,6.306,6.306,0,0,0-.833,2.281,1.376,1.376,0,0,1-1.614,1.087Zm-.794,6.929a2.428,2.428,0,0,1-1.528-.885,1.912,1.912,0,0,1-.353-1.6,2,2,0,0,1,.954-1.386,2.355,2.355,0,0,1,1.738-.286,2.291,2.291,0,0,1,1.485.915,2.029,2.029,0,0,1,.346,1.64,1.939,1.939,0,0,1-.911,1.356,2.361,2.361,0,0,1-1.731.25" transform="translate(-541.254 -26.244)" fill="#fff"/>
          <path id="Trazado_604349" data-name="Trazado 604349" d="M733.447,332.624a14.777,14.777,0,0,0-25.374,4.636l-8.11,2.439,7.711,5.726a14.777,14.777,0,1,0,25.773-12.8" transform="translate(-563.98 -263.682)" fill="#73c4ff"/>
          <path id="Trazado_604350" data-name="Trazado 604350" d="M787.909,364.639h-5.838v-.187c0-2.455-1.782-5.266-2.552-6.365-.13-.165-.252-.333-.364-.5l-.309-.309h.116A7.012,7.012,0,1,1,791.1,357.2h.032l-.209.295-.023.03c-.068.106-.135.2-.206.3l-.1.146c-.734,1.1-2.683,4.011-2.683,6.482Zm-5.468-.373h5.1c.092-2.54,2.01-5.407,2.743-6.5l.1-.151c.073-.1.138-.2.2-.3l.012-.016,0-.006,0-.008a6.638,6.638,0,1,0-11.153.079l.038.057c.1.143.207.293.323.44l.006.009c.77,1.1,2.534,3.88,2.619,6.4m-3.288-6.683h0" transform="translate(-626.853 -279.354)" fill="#fff"/>
          <path id="Trazado_604351" data-name="Trazado 604351" d="M802.432,395.31h-2.977a.089.089,0,0,1-.088-.074l-1.535-8.988a.089.089,0,0,1,.167-.055l1.07,2.127-.225-1.227a.089.089,0,0,1,.14-.088l.526.387.211-1.175a.089.089,0,0,1,.171-.016l.495,1.3.736-2.592a.089.089,0,0,1,.174.017l.2,2.417.3-1a.089.089,0,0,1,.085-.063h0a.09.09,0,0,1,.085.064l.311,1.044.063-.392a.089.089,0,0,1,.171-.018c.139.35.3.732.4.912.193-.423.821-1.839,1.254-2.821a.089.089,0,0,1,.169.052l-1.813,10.118a.089.089,0,0,1-.088.073m-2.9-.178h2.827l1.669-9.314c-.39.881-.983,2.219-1.021,2.282a.107.107,0,0,1-.091.047c-.053,0-.118-.01-.447-.809l-.075.461a.089.089,0,0,1-.082.075.091.091,0,0,1-.091-.064l-.337-1.132-.353,1.166a.089.089,0,0,1-.174-.018l-.2-2.394-.675,2.378a.089.089,0,0,1-.169.007l-.476-1.251-.18,1a.089.089,0,0,1-.14.056l-.46-.339.3,1.617a.089.089,0,0,1-.167.056l-1.082-2.15Z" transform="translate(-642.836 -310.081)" fill="#fff"/>
          <path id="Trazado_604352" data-name="Trazado 604352" d="M799.174,441.746a3,3,0,0,1-2.994-2.992v-.006a.7.7,0,0,1-.331-1.18.692.692,0,0,1,.5-.207h5.759a.7.7,0,0,1,.06,1.4,3,3,0,0,1-2.992,2.981m-2.827-4.013a.321.321,0,0,0-.232.1.337.337,0,0,0-.1.236.33.33,0,0,0,.33.33h.223l-.012.2c0,.053-.005.106-.005.161a2.62,2.62,0,0,0,5.24,0c0-.055,0-.108,0-.161l-.012-.2h.33a.336.336,0,0,0,.236-.1.331.331,0,0,0-.236-.563Z" transform="translate(-641.073 -352.393)" fill="#fff"/>
          <path id="Trazado_604353" data-name="Trazado 604353" d="M210.422,82.413a14.777,14.777,0,0,1,7.159,24.78l1.432,8.347-8.563-4.35a14.777,14.777,0,1,1-.028-28.777" transform="translate(-154.936 -66.09)" fill="#73c4ff"/>
          <path id="Trazado_604355" data-name="Trazado 604355" d="M52.508,503.478a.613.613,0,0,1-.351.908l-2.052.6a.612.612,0,0,1-.766-.733l.507-2.076a.612.612,0,0,1,1.018-.3l1.544,1.477a.634.634,0,0,1,.1.122m-2.685.986a.141.141,0,0,0,.021.026.127.127,0,0,0,.126.031l2.052-.6a.13.13,0,0,0,.053-.218l-1.544-1.478a.13.13,0,0,0-.215.063l-.508,2.076a.125.125,0,0,0,.015.1" transform="translate(-39.739 -404.24)" fill="#e54e67"/>
          <path id="Trazado_604356" data-name="Trazado 604356" d="M844.93,551.888a.613.613,0,0,1-.351.908l-2.052.6a.612.612,0,0,1-.766-.733l.508-2.076a.612.612,0,0,1,1.018-.3l1.544,1.477a.628.628,0,0,1,.1.122m-2.685.986a.145.145,0,0,0,.021.026.127.127,0,0,0,.126.031l2.052-.6a.13.13,0,0,0,.053-.218l-1.544-1.478a.13.13,0,0,0-.215.063l-.508,2.076a.125.125,0,0,0,.015.1" transform="translate(-678.216 -443.246)" fill="#e54e67"/>
          <path id="Trazado_604357" data-name="Trazado 604357" d="M463.093,124.088l.755-.755a.439.439,0,0,0-.62-.62l-.755.755-.755-.755a.439.439,0,1,0-.62.62l.755.755-.753.753a.438.438,0,1,0,.62.62l.753-.753.753.753a.438.438,0,0,0,.62-.62Z" transform="translate(-371.416 -98.77)" fill="#ffb86b"/>
          <path id="Trazado_604358" data-name="Trazado 604358" d="M98.715,192.631a1.724,1.724,0,1,1,1.724-1.724,1.726,1.726,0,0,1-1.724,1.724m0-2.908a1.184,1.184,0,1,0,1.184,1.184,1.186,1.186,0,0,0-1.184-1.184" transform="translate(-78.148 -152.431)" fill="#3d70b3"/>
          <path id="Trazado_604359" data-name="Trazado 604359" d="M701.519,803.459a1.724,1.724,0,1,1,1.724-1.724,1.725,1.725,0,0,1-1.724,1.724m0-2.908a1.184,1.184,0,1,0,1.184,1.184,1.186,1.186,0,0,0-1.184-1.184" transform="translate(-563.845 -644.592)" fill="#3d70b3"/>
          <g id="Grupo_984955" data-name="Grupo 984955" transform="translate(44.039 21.524)">
            <g id="Grupo_984954" data-name="Grupo 984954" transform="translate(0 0)" clip-path="url(#clip-path-2)">
              <path id="Trazado_604360" data-name="Trazado 604360" d="M9.4,11.224H4.015l-.641,1.484a3.306,3.306,0,0,0-.315,1.226,1.017,1.017,0,0,0,.518.945,4.345,4.345,0,0,0,1.5.27v.416H0v-.416a2.272,2.272,0,0,0,1.35-.68,9.068,9.068,0,0,0,1.3-2.3L8.108,0h.214l5.5,12.506a7.6,7.6,0,0,0,1.293,2.238,1.764,1.764,0,0,0,1.079.405v.416H8.817v-.416h.3a2.311,2.311,0,0,0,1.249-.248.6.6,0,0,0,.247-.517,1.383,1.383,0,0,0-.067-.416q-.023-.1-.338-.844Zm-.382-.832L6.748,5.139l-2.34,5.252Z" transform="translate(0 0)" fill="#fff"/>
            </g>
          </g>
        </g>
      </g>
      <g id="Grupo_984953" data-name="Grupo 984953">
        <g id="Grupo_984952" data-name="Grupo 984952" transform="translate(-4487.48 -7512.038)">
          <g id="Grupo_984733" data-name="Grupo 984733" transform="translate(0 0)" clip-path="url(#clip-path-3)">
            <path id="Trazado_604120" data-name="Trazado 604120" d="M0,6.4V25.211a6.283,6.283,0,0,0,6.283,6.283c23.662,0,38.162.3,62.915.3a6.283,6.283,0,0,0,6.283-6.283V6.282A6.283,6.283,0,0,0,69.186,0L6.271.117A6.282,6.282,0,0,0,0,6.4" transform="translate(0 0)" fill="#fc5f65"/>
            <path id="Trazado_604121" data-name="Trazado 604121" d="M17.674,24.045H13.739V20.336l9.06-9.9.181-.049a2.975,2.975,0,0,1,2.935.419c1.145,1.049.836,2.976.8,3.194l-.033.185Zm-2.634-1.3H17.1L25.455,13.6a2.374,2.374,0,0,0-.421-1.83A1.678,1.678,0,0,0,23.5,11.6L15.04,20.841Z" transform="translate(-1.882 -1.398)" fill="#12263f"/>
            <text id="Text" transform="translate(46.467 20.315)" fill="#12263f" font-size="15" font-family="Roboto-BoldItalic, Roboto" font-weight="700" font-style="italic"><tspan x="-14.74" y="0">Text</tspan></text>
          </g>
        </g>
        <g id="Polígono_159" data-name="Polígono 159" transform="translate(-4401 -7503) rotate(90)" fill="#fc5f65">
          <path d="M 13.12947845458984 11.5 L 0.8705216646194458 11.5 L 7 0.9923228621482849 L 13.12947845458984 11.5 Z" stroke="none"/>
          <path d="M 7 1.984635353088379 L 1.741037368774414 11 L 12.25896263122559 11 L 7 1.984635353088379 M 7 0 L 14 12 L 0 12 L 7 0 Z" stroke="none" fill="#fc5f65"/>
        </g>
      </g>
    </g>
  </g>
</svg>
