<svg xmlns="http://www.w3.org/2000/svg" xmlns:xlink="http://www.w3.org/1999/xlink" width="195.615" height="167.469" viewBox="0 0 195.615 167.469">
  <defs>
    <clipPath id="clip-path">
      <rect id="Rectángulo_339738" data-name="Rectángulo 339738" width="184.604" height="142.722" fill="none"/>
    </clipPath>
    <clipPath id="clip-path-3">
      <rect id="Rectángulo_339713" data-name="Rectángulo 339713" width="1.292" height="1.292" fill="none"/>
    </clipPath>
    <clipPath id="clip-path-5">
      <rect id="Rectángulo_339715" data-name="Rectángulo 339715" width="166.479" height="119.092" fill="none"/>
    </clipPath>
    <clipPath id="clip-path-6">
      <rect id="Rectángulo_339717" data-name="Rectángulo 339717" width="56.977" height="30.696" fill="none"/>
    </clipPath>
    <clipPath id="clip-path-8">
      <rect id="Rectángulo_339719" data-name="Rectángulo 339719" width="63.932" height="34.394" fill="none"/>
    </clipPath>
    <clipPath id="clip-path-10">
      <rect id="Rectángulo_339720" data-name="Rectángulo 339720" width="86.763" height="93.7" fill="none"/>
    </clipPath>
    <clipPath id="clip-path-11">
      <rect id="Rectángulo_339721" data-name="Rectángulo 339721" width="68.995" height="84.885" fill="none"/>
    </clipPath>
    <clipPath id="clip-path-13">
      <rect id="Rectángulo_339724" data-name="Rectángulo 339724" width="29.415" height="30.837" fill="none"/>
    </clipPath>
    <clipPath id="clip-path-14">
      <rect id="Rectángulo_339725" data-name="Rectángulo 339725" width="24.16" height="7.305" fill="none"/>
    </clipPath>
    <clipPath id="clip-path-15">
      <rect id="Rectángulo_339726" data-name="Rectángulo 339726" width="39.376" height="14.766" fill="none"/>
    </clipPath>
    <filter id="Trazado_604277" x="38.752" y="15.267" width="77.825" height="107.892" filterUnits="userSpaceOnUse">
      <feOffset dy="3" input="SourceAlpha"/>
      <feGaussianBlur stdDeviation="3" result="blur"/>
      <feFlood flood-opacity="0.161"/>
      <feComposite operator="in" in2="blur"/>
      <feComposite in="SourceGraphic"/>
    </filter>
    <clipPath id="clip-path-16">
      <rect id="Rectángulo_339728" data-name="Rectángulo 339728" width="54.51" height="89.892" fill="#3c3fa7"/>
    </clipPath>
    <clipPath id="clip-path-17">
      <rect id="Rectángulo_339730" data-name="Rectángulo 339730" width="54.518" height="54.518" fill="none"/>
    </clipPath>
    <clipPath id="clip-path-18">
      <rect id="Rectángulo_339731" data-name="Rectángulo 339731" width="26.661" height="26.662" fill="none"/>
    </clipPath>
    <clipPath id="clip-path-19">
      <rect id="Rectángulo_339732" data-name="Rectángulo 339732" width="56.241" height="56.241" fill="none"/>
    </clipPath>
    <clipPath id="clip-path-20">
      <rect id="Rectángulo_339733" data-name="Rectángulo 339733" width="5.53" height="5.327" fill="none"/>
    </clipPath>
    <clipPath id="clip-path-21">
      <rect id="Rectángulo_339734" data-name="Rectángulo 339734" width="29.247" height="31.147" fill="none"/>
    </clipPath>
    <filter id="Trazado_604304" x="3.564" y="68.15" width="107.211" height="33.578" filterUnits="userSpaceOnUse">
      <feOffset dy="3" input="SourceAlpha"/>
      <feGaussianBlur stdDeviation="3" result="blur-2"/>
      <feFlood flood-opacity="0.161"/>
      <feComposite operator="in" in2="blur-2"/>
      <feComposite in="SourceGraphic"/>
    </filter>
    <clipPath id="clip-path-22">
      <rect id="Rectángulo_339735" data-name="Rectángulo 339735" width="71.889" height="57.383" fill="#fc5f65"/>
    </clipPath>
    <clipPath id="clip-path-23">
      <rect id="Rectángulo_339736" data-name="Rectángulo 339736" width="61.995" height="57.383" fill="#ff9fa3"/>
    </clipPath>
  </defs>
  <g id="Grupo_988573" data-name="Grupo 988573" transform="translate(-1055.54 -3745.939)">
    <g id="Grupo_984756" data-name="Grupo 984756" transform="translate(1055.54 3745.939)">
      <path id="Trazado_604161" data-name="Trazado 604161" d="M298.155,105.608c-.8,3.553-3.622,15.339-13.056,25.141,0,0-21.091,24.54-76.449,12.894-9.653-2.031-15.946-3.55-23.685-7.931-20.292-11.488-18.2-25.121-38.775-36.681-10.292-5.783-15.25-4.929-22.838-12.522-8-8-10.621-17.353-11.653-21.2-1.235-4.607-4.38-18.938,2.59-33.827a49.532,49.532,0,0,1,8.416-12.3,52.582,52.582,0,0,1,6.793-6.166q1.833-1.394,3.725-2.6a59.842,59.842,0,0,1,8.49-4.483q.515-.223,1.03-.434A77.141,77.141,0,0,1,174.337.08a73.206,73.206,0,0,1,30.914,9.387c6.743,3.864,8.559,8.487,20.617,17.8a131.839,131.839,0,0,0,13.8,9.713c17.048,10.12,23.4,6.177,36.255,14.243,3.353,2.1,14.227,9.132,20.07,22.875,5.943,13.979,3.227,26.787,2.158,31.507" transform="translate(-104.095 14.131)" fill="#e1e8ff"/>
      <path id="Trazado_604162" data-name="Trazado 604162" d="M49.587,2008c3.029,4.095,3.267,5.639,6.636,9.064,6.036,6.135,11.8,7.8,11.815,11.815.01,2.233-1.766,3.908-2.428,4.532-1.148,1.082-5.951,5.052-25.573-.324-12.038-3.3-21.521-5.9-30.36-14.424-3.911-3.773-9.942-9.747-9.668-17.813a13.678,13.678,0,0,1,2.912-8.5c5.776-6.984,18.472-4.08,20.582-3.606,14.193,3.187,23.387,15.615,26.083,19.259" transform="translate(-0.001 -1868.365)" fill="#e1e8ff"/>
      <path id="Trazado_604163" data-name="Trazado 604163" d="M2190.554,75.093c14.071,13.639,15.267,14.534,17.187,15.8a46.763,46.763,0,0,0,10.231,5.444c4.683,1.632,9.27,3.23,12.735,1.106,3.658-2.242,5.058-7.882,4.208-12.238-1.572-8.062-10.854-11.809-24.292-17.232-6.918-2.792-13.089-4.33-18.559-2.158-1.066.423-4.128,1.639-4.532,3.938-.355,2.02,1.517,3.883,3.021,5.341" transform="translate(-2071.673 -47.225)" fill="#f0f4ff"/>
      <path id="Trazado_604164" data-name="Trazado 604164" d="M2686.421,350.69c3.459,1.077,4.332,1.95,5.408,5.409,1.077-3.459,1.95-4.332,5.409-5.409-3.458-1.077-4.332-1.95-5.409-5.409-1.077,3.459-1.949,4.332-5.408,5.409" transform="translate(-2544.188 -312.869)" fill="#fce2c2"/>
      <path id="Trazado_604165" data-name="Trazado 604165" d="M484.245,929.352c3.758,1.17,4.707,2.119,5.877,5.877,1.17-3.758,2.119-4.707,5.877-5.877-3.758-1.17-4.707-2.119-5.877-5.877-1.17,3.758-2.119,4.707-5.877,5.877" transform="translate(-458.607 -860.45)" fill="#fff"/>
      <path id="Trazado_604166" data-name="Trazado 604166" d="M189.661,1327.676c2.1.655,2.633,1.185,3.288,3.288.655-2.1,1.186-2.634,3.288-3.288-2.1-.655-2.633-1.186-3.288-3.288-.655,2.1-1.185,2.633-3.288,3.288" transform="translate(-171.619 -1240.137)" fill="#3c3fa7"/>
      <path id="Trazado_604226" data-name="Trazado 604226" d="M189.661,1327.676c2.1.655,2.633,1.185,3.288,3.288.655-2.1,1.186-2.634,3.288-3.288-2.1-.655-2.633-1.186-3.288-3.288-.655,2.1-1.185,2.633-3.288,3.288" transform="translate(-75.619 -1202.137)" fill="#3c3fa7"/>
      <path id="Trazado_604227" data-name="Trazado 604227" d="M189.661,1327.676c2.1.655,2.633,1.185,3.288,3.288.655-2.1,1.186-2.634,3.288-3.288-2.1-.655-2.633-1.186-3.288-3.288-.655,2.1-1.185,2.633-3.288,3.288" transform="translate(-14.619 -1233.561)" fill="#3c3fa7"/>
      <path id="Trazado_604167" data-name="Trazado 604167" d="M3064.013,1058.5c2.1.655,2.634,1.186,3.288,3.288.655-2.1,1.186-2.633,3.289-3.288-2.1-.655-2.634-1.186-3.289-3.288-.655,2.1-1.185,2.633-3.288,3.288" transform="translate(-2901.79 -985.215)" fill="#fff"/>
      <path id="Trazado_604229" data-name="Trazado 604229" d="M3064.013,1058.5c2.1.655,2.634,1.186,3.288,3.288.655-2.1,1.186-2.633,3.289-3.288-2.1-.655-2.634-1.186-3.289-3.288-.655,2.1-1.185,2.633-3.288,3.288" transform="translate(-3015.79 -1055.215)" fill="#fff"/>
      <path id="Trazado_604230" data-name="Trazado 604230" d="M3064.013,1058.646c2.195.683,2.748,1.237,3.431,3.431.683-2.194,1.237-2.747,3.431-3.431-2.194-.683-2.748-1.237-3.431-3.431-.683,2.193-1.237,2.747-3.431,3.431" transform="translate(-2905.221 -1041.084)" fill="#fff"/>
      <path id="Trazado_604228" data-name="Trazado 604228" d="M3064.014,1060.685c3.5,1.09,4.381,1.972,5.47,5.469,1.089-3.5,1.972-4.38,5.471-5.469-3.5-1.089-4.381-1.972-5.471-5.47-1.089,3.5-1.971,4.381-5.47,5.47" transform="translate(-2972.972 -913.34)" fill="#fff"/>
    </g>
    <g id="Grupo_984877" data-name="Grupo 984877" transform="translate(1061.045 3766.174)">
      <g id="Enmascarar_grupo_984947" data-name="Enmascarar grupo 984947" clip-path="url(#clip-path)">
        <g id="Grupo_984881" data-name="Grupo 984881">
          <g id="Grupo_984880" data-name="Grupo 984880" clip-path="url(#clip-path)">
            <g id="Grupo_984879" data-name="Grupo 984879" transform="translate(12.13 5.857)" opacity="0.58">
              <g id="Grupo_984878" data-name="Grupo 984878">
                <g id="Grupo_984877-2" data-name="Grupo 984877" clip-path="url(#clip-path-3)">
                  <path id="Trazado_604231" data-name="Trazado 604231" d="M29.457,14.246a.646.646,0,1,1-.646-.646.646.646,0,0,1,.646.646" transform="translate(-28.165 -13.6)" fill="#3e479b"/>
                </g>
              </g>
            </g>
          </g>
        </g>
        <g id="Grupo_984946" data-name="Grupo 984946">
          <g id="Grupo_984945" data-name="Grupo 984945" clip-path="url(#clip-path)">
            <g id="Grupo_984884" data-name="Grupo 984884" transform="translate(18.125 19.489)" opacity="0.66">
              <g id="Grupo_984883" data-name="Grupo 984883">
                <g id="Grupo_984882" data-name="Grupo 984882" clip-path="url(#clip-path-5)">
                  <path id="Trazado_604232" data-name="Trazado 604232" d="M87.156,67.69l-3.427-.262a17.639,17.639,0,0,0-2.347-7.166l2.609-2.239a3.152,3.152,0,1,0-4.106-4.785l-2.609,2.238a17.643,17.643,0,0,0-6.726-3.408l.262-3.427a3.153,3.153,0,1,0-6.287-.48l-.262,3.427A17.641,17.641,0,0,0,57.1,53.937l-2.239-2.609a3.152,3.152,0,1,0-4.785,4.106l2.238,2.609A17.643,17.643,0,0,0,48.9,64.769l-3.427-.262A3.153,3.153,0,0,0,45,70.794l3.427.262a17.646,17.646,0,0,0,2.347,7.166l-2.609,2.239a3.153,3.153,0,0,0,4.106,4.785l2.609-2.239A17.644,17.644,0,0,0,61.6,86.414l-.262,3.427a3.153,3.153,0,1,0,6.287.48l.261-3.427a17.646,17.646,0,0,0,7.166-2.347L77.3,87.156A3.153,3.153,0,1,0,82.08,83.05l-2.239-2.609a17.644,17.644,0,0,0,3.408-6.726l3.427.262a3.153,3.153,0,1,0,.48-6.287M65.1,82.049A12.844,12.844,0,1,1,78.883,70.22,12.844,12.844,0,0,1,65.1,82.049" transform="translate(-42.084 -45.25)" fill="#8284d2"/>
                  <path id="Trazado_604233" data-name="Trazado 604233" d="M289.141,278.123a2.63,2.63,0,0,1-2.5-1.835l-.615-1.945a12.6,12.6,0,0,1-4.711-.407l-.94,1.811a2.627,2.627,0,0,1-4.663-2.421l.939-1.81a12.619,12.619,0,0,1-3.044-3.619l-1.944.616a2.627,2.627,0,1,1-1.586-5.008l1.945-.616a12.614,12.614,0,0,1,.406-4.711l-1.81-.94a2.627,2.627,0,0,1,2.42-4.663l1.81.94a12.631,12.631,0,0,1,3.619-3.045l-.616-1.944a2.627,2.627,0,0,1,5.008-1.586l.616,1.945a12.6,12.6,0,0,1,4.711.406l.94-1.811a2.627,2.627,0,1,1,4.663,2.42l-.94,1.81a12.635,12.635,0,0,1,3.045,3.619l1.944-.615a2.627,2.627,0,1,1,1.586,5.008l-1.945.615a12.617,12.617,0,0,1-.406,4.712l1.811.939a2.627,2.627,0,0,1-2.42,4.663l-1.81-.939a12.628,12.628,0,0,1-3.62,3.044l.616,1.945a2.631,2.631,0,0,1-2.507,3.421M286.63,273.4l.831,2.627a1.766,1.766,0,0,0,3.367-1.066L290,272.336l.319-.168a11.793,11.793,0,0,0,3.88-3.263l.22-.285,2.445,1.268a1.765,1.765,0,1,0,1.626-3.134l-2.445-1.269.107-.344a11.791,11.791,0,0,0,.436-5.05l-.047-.357,2.626-.832a1.765,1.765,0,1,0-1.066-3.366l-2.626.832-.168-.319a11.787,11.787,0,0,0-3.263-3.879l-.286-.22,1.27-2.445a1.765,1.765,0,0,0-3.134-1.626l-1.269,2.445-.344-.107a11.81,11.81,0,0,0-5.05-.435l-.357.047-.831-2.627a1.767,1.767,0,0,0-2.216-1.15,1.769,1.769,0,0,0-1.15,2.217l.832,2.626-.319.168a11.8,11.8,0,0,0-3.879,3.263l-.22.286-2.446-1.27a1.765,1.765,0,0,0-1.626,3.134l2.445,1.269-.107.344a11.789,11.789,0,0,0-.436,5.05l.047.357-2.626.832a1.765,1.765,0,0,0,1.066,3.366l2.626-.832.168.319a11.8,11.8,0,0,0,3.263,3.879l.285.22-1.268,2.445a1.765,1.765,0,1,0,3.134,1.626l1.269-2.445.344.107a11.81,11.81,0,0,0,5.05.436Zm-1.892-2.4a9.4,9.4,0,1,1,2.842-.442,9.337,9.337,0,0,1-2.842.442m.021-17.9a8.53,8.53,0,1,0,3.913.961,8.541,8.541,0,0,0-3.913-.961" transform="translate(-170.838 -159.03)" fill="#fff"/>
                  <path id="Trazado_604234" data-name="Trazado 604234" d="M342.928,224.3a3.387,3.387,0,0,1-3.349-3.869l.411-2.832a16.845,16.845,0,0,1-5.617-3.343l-2.293,1.712a3.382,3.382,0,0,1-4.046-5.421l2.294-1.712a16.821,16.821,0,0,1-1.608-6.336l-2.832-.412a3.382,3.382,0,0,1,.972-6.694l2.833.411a16.832,16.832,0,0,1,3.343-5.617l-1.712-2.293a3.382,3.382,0,1,1,5.422-4.046l1.712,2.293a16.842,16.842,0,0,1,6.335-1.607l.412-2.832a3.382,3.382,0,0,1,6.694.972l-.412,2.833a16.833,16.833,0,0,1,5.617,3.343l2.293-1.712a3.382,3.382,0,1,1,4.045,5.421l-2.293,1.712a16.827,16.827,0,0,1,1.607,6.335l2.833.412a3.382,3.382,0,0,1-.973,6.694l-2.832-.411a16.842,16.842,0,0,1-3.343,5.617l1.712,2.293a3.382,3.382,0,1,1-5.422,4.045l-1.712-2.293a16.842,16.842,0,0,1-6.336,1.607l-.412,2.832a3.388,3.388,0,0,1-3.345,2.9m-8.5-11.164.263.246A16.007,16.007,0,0,0,340.6,216.9l.342.114-.514,3.541a2.521,2.521,0,0,0,4.99.725l.514-3.542.36-.012a16,16,0,0,0,6.664-1.691l.323-.161,2.14,2.868a2.521,2.521,0,1,0,4.04-3.016l-2.14-2.868.246-.263a16,16,0,0,0,3.517-5.908l.114-.342,3.541.514a2.521,2.521,0,1,0,.725-4.99l-3.542-.514-.012-.36a16,16,0,0,0-1.691-6.664l-.161-.322,2.868-2.141a2.521,2.521,0,1,0-3.016-4.04h0l-2.868,2.14-.264-.246a15.993,15.993,0,0,0-5.908-3.517l-.342-.114.514-3.542a2.521,2.521,0,0,0-4.99-.725l-.514,3.542-.36.012a16,16,0,0,0-6.664,1.691l-.322.161-2.141-2.868a2.521,2.521,0,1,0-4.04,3.016l2.14,2.868-.246.263a16,16,0,0,0-3.517,5.908l-.114.342-3.541-.514a2.521,2.521,0,0,0-.725,4.99l3.542.514.012.36a16,16,0,0,0,1.691,6.665l.161.322-2.868,2.14a2.521,2.521,0,1,0,3.016,4.04Zm11.322.867a12.443,12.443,0,1,1,7.435-2.468A12.448,12.448,0,0,1,345.755,214m-.04-24.047a11.627,11.627,0,1,0,1.691.123,11.8,11.8,0,0,0-1.691-.123m7.217,21.234h0Z" transform="translate(-202.008 -121.283)" fill="#fff"/>
                </g>
              </g>
            </g>
            <g id="Grupo_984890" data-name="Grupo 984890" transform="translate(54.228 112.026)" opacity="0.81">
              <g id="Grupo_984889" data-name="Grupo 984889">
                <g id="Grupo_984888" data-name="Grupo 984888" clip-path="url(#clip-path-6)">
                  <path id="Trazado_604235" data-name="Trazado 604235" d="M227.72,287.324h-8.847a.431.431,0,1,1,0-.861h8.847a.431.431,0,0,1,0,.861" transform="translate(-178.59 -275.113)" fill="#fff"/>
                  <path id="Trazado_604236" data-name="Trazado 604236" d="M227.72,308.678h-8.847a.431.431,0,1,1,0-.861h8.847a.431.431,0,1,1,0,.861" transform="translate(-178.59 -287.27)" fill="#fff"/>
                  <path id="Trazado_604237" data-name="Trazado 604237" d="M181.719,290.806H127.078a1.168,1.168,0,0,1-1.168-1.167v-28.36a1.169,1.169,0,0,1,1.168-1.168h54.641a1.17,1.17,0,0,1,1.168,1.168v28.36a1.169,1.169,0,0,1-1.168,1.167m-54.641-29.834a.307.307,0,0,0-.306.307v28.36a.307.307,0,0,0,.306.306h54.641a.307.307,0,0,0,.307-.306v-28.36a.307.307,0,0,0-.307-.307Z" transform="translate(-125.91 -260.11)" fill="#fff"/>
                  <g id="Grupo_984887" data-name="Grupo 984887" opacity="0.66">
                    <g id="Grupo_984886" data-name="Grupo 984886">
                      <g id="Grupo_984885" data-name="Grupo 984885" clip-path="url(#clip-path-6)">
                        <path id="Trazado_604238" data-name="Trazado 604238" d="M181.719,290.806H127.078a1.168,1.168,0,0,1-1.168-1.167v-28.36a1.169,1.169,0,0,1,1.168-1.168h54.641a1.17,1.17,0,0,1,1.168,1.168v28.36a1.169,1.169,0,0,1-1.168,1.167m-54.641-29.834a.307.307,0,0,0-.306.307v28.36a.307.307,0,0,0,.306.306h54.641a.307.307,0,0,0,.307-.306v-28.36a.307.307,0,0,0-.307-.307Z" transform="translate(-125.91 -260.11)" fill="#fff"/>
                      </g>
                    </g>
                  </g>
                  <path id="Trazado_604239" data-name="Trazado 604239" d="M183.685,276.962h-42.16a.431.431,0,0,1,0-.861h42.16a.431.431,0,0,1,0,.861" transform="translate(-134.555 -269.214)" fill="#fff"/>
                  <path id="Trazado_604240" data-name="Trazado 604240" d="M183.685,297.687h-42.16a.431.431,0,1,1,0-.861h42.16a.431.431,0,0,1,0,.861" transform="translate(-134.555 -281.013)" fill="#fff"/>
                  <path id="Trazado_604241" data-name="Trazado 604241" d="M164.256,287.324h-22.73a.431.431,0,1,1,0-.861h22.73a.431.431,0,0,1,0,.861" transform="translate(-134.555 -275.113)" fill="#fff"/>
                  <path id="Trazado_604242" data-name="Trazado 604242" d="M164.256,308.678h-22.73a.431.431,0,1,1,0-.861h22.73a.431.431,0,1,1,0,.861" transform="translate(-134.555 -287.27)" fill="#fff"/>
                  <path id="Trazado_604243" data-name="Trazado 604243" d="M156.855,318.57H141.526a.431.431,0,1,1,0-.861h15.329a.431.431,0,0,1,0,.861" transform="translate(-134.555 -292.902)" fill="#fff"/>
                </g>
              </g>
            </g>
            <g id="Grupo_984896" data-name="Grupo 984896" transform="translate(0 75.026)" opacity="0.81">
              <g id="Grupo_984895" data-name="Grupo 984895">
                <g id="Grupo_984894" data-name="Grupo 984894" clip-path="url(#clip-path-8)">
                  <path id="Trazado_604244" data-name="Trazado 604244" d="M29.727,223.3H19.784a.431.431,0,1,1,0-.861h9.944a.431.431,0,1,1,0,.861" transform="translate(-11.018 -201.663)" fill="#fff"/>
                  <path id="Trazado_604245" data-name="Trazado 604245" d="M29.727,199.3H19.784a.431.431,0,1,1,0-.861h9.944a.431.431,0,1,1,0,.861" transform="translate(-11.018 -187.999)" fill="#fff"/>
                  <path id="Trazado_604246" data-name="Trazado 604246" d="M62.764,208.593H1.168A1.169,1.169,0,0,1,0,207.425V175.368A1.169,1.169,0,0,1,1.168,174.2h61.6a1.169,1.169,0,0,1,1.168,1.168v32.057a1.169,1.169,0,0,1-1.168,1.168m-61.6-33.532a.307.307,0,0,0-.307.307v32.057a.307.307,0,0,0,.307.307h61.6a.307.307,0,0,0,.306-.307V175.368a.307.307,0,0,0-.306-.307Z" transform="translate(0 -174.2)" fill="#fff"/>
                  <g id="Grupo_984893" data-name="Grupo 984893" opacity="0.66">
                    <g id="Grupo_984892" data-name="Grupo 984892">
                      <g id="Grupo_984891" data-name="Grupo 984891" clip-path="url(#clip-path-8)">
                        <path id="Trazado_604247" data-name="Trazado 604247" d="M62.764,208.593H1.168A1.169,1.169,0,0,1,0,207.425V175.368A1.169,1.169,0,0,1,1.168,174.2h61.6a1.169,1.169,0,0,1,1.168,1.168v32.057a1.169,1.169,0,0,1-1.168,1.168m-61.6-33.532a.307.307,0,0,0-.307.307v32.057a.307.307,0,0,0,.307.307h61.6a.307.307,0,0,0,.306-.307V175.368a.307.307,0,0,0-.306-.307Z" transform="translate(0 -174.2)" fill="#fff"/>
                      </g>
                    </g>
                  </g>
                  <path id="Trazado_604248" data-name="Trazado 604248" d="M67.168,234.945H19.784a.431.431,0,1,1,0-.861H67.168a.431.431,0,1,1,0,.861" transform="translate(-11.018 -208.293)" fill="#fff"/>
                  <path id="Trazado_604249" data-name="Trazado 604249" d="M67.168,211.651H19.784a.431.431,0,1,1,0-.861H67.168a.431.431,0,1,1,0,.861" transform="translate(-11.018 -195.031)" fill="#fff"/>
                  <path id="Trazado_604250" data-name="Trazado 604250" d="M96.035,223.3H70.489a.431.431,0,1,1,0-.861H96.035a.431.431,0,1,1,0,.861" transform="translate(-39.885 -201.663)" fill="#fff"/>
                  <path id="Trazado_604251" data-name="Trazado 604251" d="M96.035,199.3H70.489a.431.431,0,1,1,0-.861H96.035a.431.431,0,1,1,0,.861" transform="translate(-39.885 -187.999)" fill="#fff"/>
                  <path id="Trazado_604252" data-name="Trazado 604252" d="M107.03,188.181H89.8a.431.431,0,1,1,0-.861H107.03a.431.431,0,1,1,0,.861" transform="translate(-50.88 -181.669)" fill="#fff"/>
                </g>
              </g>
            </g>
            <g id="Grupo_984899" data-name="Grupo 984899" transform="translate(86.991 33.235)" opacity="0.14">
              <g id="Grupo_984898" data-name="Grupo 984898">
                <g id="Grupo_984897" data-name="Grupo 984897" clip-path="url(#clip-path-10)">
                  <path id="Trazado_604253" data-name="Trazado 604253" d="M249.5,170.755l-47.125-27.94a.8.8,0,0,1-.279-1.093l38.042-64.165a.8.8,0,0,1,1.093-.279l47.125,27.94a.8.8,0,0,1,.279,1.093L250.59,170.476a.8.8,0,0,1-1.093.279" transform="translate(-201.982 -77.167)" fill="#3e479b"/>
                </g>
              </g>
            </g>
            <path id="Trazado_604254" data-name="Trazado 604254" d="M246.656,164.786l-47.125-27.94a.8.8,0,0,1-.279-1.093l38.042-64.165a.8.8,0,0,1,1.093-.279l47.125,27.94a.8.8,0,0,1,.279,1.093l-38.042,64.165a.8.8,0,0,1-1.093.279" transform="translate(-113.373 -40.534)" fill="#fc5f65"/>
            <g id="Grupo_984902" data-name="Grupo 984902" transform="translate(92.289 38.594)" opacity="0.14">
              <g id="Grupo_984901" data-name="Grupo 984901">
                <g id="Grupo_984900" data-name="Grupo 984900" clip-path="url(#clip-path-11)">
                  <path id="Trazado_604255" data-name="Trazado 604255" d="M268.815,174.483l-53.878-9.931a.8.8,0,0,1-.64-.929L227.82,90.264a.8.8,0,0,1,.929-.64l53.878,9.931a.8.8,0,0,1,.64.929l-13.522,73.359a.8.8,0,0,1-.929.64" transform="translate(-214.284 -89.611)" fill="#3e479b"/>
                </g>
              </g>
            </g>
            <rect id="Rectángulo_339722" data-name="Rectángulo 339722" width="76.189" height="56.38" transform="translate(91.007 111.327) rotate(-79.556)" fill="#fff"/>
            <g id="Grupo_984905" data-name="Grupo 984905" transform="translate(91.138 36.531)" opacity="0.39">
              <g id="Grupo_984904" data-name="Grupo 984904">
                <g id="Grupo_984903" data-name="Grupo 984903" clip-path="url(#clip-path-11)">
                  <path id="Trazado_604256" data-name="Trazado 604256" d="M266.141,169.692l-53.878-9.931a.8.8,0,0,1-.64-.929l13.522-73.359a.8.8,0,0,1,.929-.64l53.878,9.931a.8.8,0,0,1,.64.929l-13.522,73.359a.8.8,0,0,1-.929.64" transform="translate(-211.61 -84.82)" fill="#f7a9b4"/>
                </g>
              </g>
            </g>
            <path id="Trazado_604257" data-name="Trazado 604257" d="M334.231,124.315a.414.414,0,0,1-.079-.007l-13.487-2.486a.431.431,0,0,1,.156-.847l13.487,2.486a.431.431,0,0,1-.078.854" transform="translate(-182.358 -68.868)" fill="#fff"/>
            <path id="Trazado_604258" data-name="Trazado 604258" d="M332.388,134.317a.412.412,0,0,1-.079-.007l-13.487-2.486a.431.431,0,1,1,.156-.847l13.487,2.486a.431.431,0,0,1-.078.854" transform="translate(-181.309 -74.563)" fill="#fff"/>
            <path id="Trazado_604259" data-name="Trazado 604259" d="M330.384,145.19a.414.414,0,0,1-.079-.007L316.819,142.7a.431.431,0,1,1,.156-.847l13.487,2.486a.431.431,0,0,1-.078.854" transform="translate(-180.168 -80.753)" fill="#fff"/>
            <g id="Grupo_984908" data-name="Grupo 984908" transform="translate(105.536 37.597)" opacity="0.14">
              <g id="Grupo_984907" data-name="Grupo 984907">
                <g id="Grupo_984906" data-name="Grupo 984906" clip-path="url(#clip-path-13)">
                  <path id="Trazado_604260" data-name="Trazado 604260" d="M268.854,118.118l-23.107-4.259a.863.863,0,0,1-.693-1.005L249.635,88a.863.863,0,0,1,1.005-.693l23.108,4.26a.863.863,0,0,1,.692,1.005l-4.581,24.851a.863.863,0,0,1-1.005.693" transform="translate(-245.04 -87.295)" fill="#3e479b"/>
                </g>
              </g>
            </g>
            <path id="Trazado_604261" data-name="Trazado 604261" d="M268.308,116.779l-22.029-4.061a.863.863,0,0,1-.692-1.006l4.337-23.528a.864.864,0,0,1,1.006-.693l22.029,4.061a.863.863,0,0,1,.693,1.005l-4.337,23.528a.863.863,0,0,1-1.005.693" transform="translate(-139.807 -49.803)" fill="#599af2"/>
            <g id="Grupo_984911" data-name="Grupo 984911" transform="translate(109.707 37.672)" opacity="0.07">
              <g id="Grupo_984910" data-name="Grupo 984910">
                <g id="Grupo_984909" data-name="Grupo 984909" clip-path="url(#clip-path-14)">
                  <path id="Trazado_604262" data-name="Trazado 604262" d="M278.452,94.775,254.725,90.4l.414-2.245a.838.838,0,0,1,.976-.672l22.108,4.075a.808.808,0,0,1,.648.941Z" transform="translate(-254.725 -87.47)" fill="#ecf1f7"/>
                </g>
              </g>
            </g>
            <path id="Trazado_604263" data-name="Trazado 604263" d="M265.552,98.815a2.783,2.783,0,0,1-.506-.047l-.328-.06a3.222,3.222,0,0,1-2.581-3.747l.829-4.5a.646.646,0,0,1,1.271.234l-.828,4.5a1.926,1.926,0,0,0,1.544,2.242l.329.061a1.5,1.5,0,0,0,1.743-1.2l2.1-11.38a1.546,1.546,0,0,0-1.239-1.8l-.562-.1a1.641,1.641,0,0,0-1.911,1.315l-.051.281a.646.646,0,0,1-1.271-.234l.052-.281a2.935,2.935,0,0,1,3.415-2.352l.562.1a2.84,2.84,0,0,1,2.276,3.3l-2.1,11.38a2.794,2.794,0,0,1-2.741,2.284" transform="translate(-149.207 -46.511)" fill="#3e479b"/>
            <path id="Trazado_604264" data-name="Trazado 604264" d="M263.68,96.591a.251.251,0,0,1-.04,0L255.031,95a.215.215,0,0,1,.078-.423l8.609,1.587a.215.215,0,0,1-.039.427" transform="translate(-145.092 -53.841)" fill="#fff"/>
            <path id="Trazado_604265" data-name="Trazado 604265" d="M281.423,191.415a.416.416,0,0,1-.079-.007l-41.209-7.6a.431.431,0,1,1,.156-.847l41.21,7.6a.431.431,0,0,1-.078.854" transform="translate(-136.511 -104.159)" fill="#fff"/>
            <path id="Trazado_604266" data-name="Trazado 604266" d="M274.581,228.528a.413.413,0,0,1-.079-.007l-41.21-7.6a.431.431,0,1,1,.156-.847l41.21,7.6a.431.431,0,0,1-.078.854" transform="translate(-132.616 -125.289)" fill="#fff"/>
            <path id="Trazado_604267" data-name="Trazado 604267" d="M256.274,205.966a.414.414,0,0,1-.079-.007l-19.481-3.591a.431.431,0,1,1,.156-.847l19.481,3.591a.431.431,0,0,1-.078.854" transform="translate(-134.563 -114.724)" fill="#fff"/>
            <path id="Trazado_604268" data-name="Trazado 604268" d="M262.507,172.155a.413.413,0,0,1-.079-.007l-19.481-3.591a.431.431,0,0,1,.156-.847l19.481,3.591a.431.431,0,0,1-.078.854" transform="translate(-138.112 -95.475)" fill="#fff"/>
            <path id="Trazado_604269" data-name="Trazado 604269" d="M307.968,215.345a.414.414,0,0,1-.079-.007l-18.561-3.421a.431.431,0,1,1,.156-.847l18.561,3.422a.431.431,0,0,1-.078.854" transform="translate(-164.518 -120.16)" fill="#fff"/>
            <path id="Trazado_604270" data-name="Trazado 604270" d="M290.767,10.532h-22.9A1.435,1.435,0,0,1,266.428,9.1V1.435A1.435,1.435,0,0,1,267.863,0h22.9A1.435,1.435,0,0,1,292.2,1.435V9.1a1.435,1.435,0,0,1-1.435,1.435" transform="translate(-151.681)" fill="#6b8dfc"/>
            <path id="Trazado_604271" data-name="Trazado 604271" d="M318.756,32.252H286.717a1.435,1.435,0,0,1-1.435-1.435V19.423a1.436,1.436,0,0,1,1.435-1.435h32.038a1.436,1.436,0,0,1,1.435,1.435V30.816a1.435,1.435,0,0,1-1.435,1.435" transform="translate(-162.415 -10.241)" fill="#ff9fa3"/>
            <path id="Trazado_604272" data-name="Trazado 604272" d="M302.515,44.1h35.478a1.955,1.955,0,0,1,1.949,1.949V56.923a1.954,1.954,0,0,1-1.949,1.948H302.515a1.954,1.954,0,0,1-1.949-1.948V46.054a1.955,1.955,0,0,1,1.949-1.949" transform="translate(-171.116 -25.11)" fill="#fff"/>
            <g id="Grupo_984914" data-name="Grupo 984914" transform="translate(129.45 18.995)" opacity="0.74">
              <g id="Grupo_984913" data-name="Grupo 984913">
                <g id="Grupo_984912" data-name="Grupo 984912" clip-path="url(#clip-path-15)">
                  <path id="Trazado_604273" data-name="Trazado 604273" d="M302.515,44.1h35.478a1.955,1.955,0,0,1,1.949,1.949V56.923a1.954,1.954,0,0,1-1.949,1.948H302.515a1.954,1.954,0,0,1-1.949-1.948V46.054a1.955,1.955,0,0,1,1.949-1.949" transform="translate(-300.566 -44.105)" fill="#6d6cd4"/>
                </g>
              </g>
            </g>
            <path id="Trazado_604274" data-name="Trazado 604274" d="M360.708,60.741a1.71,1.71,0,1,1,1.711-1.71,1.712,1.712,0,0,1-1.711,1.71m0-2.99a1.28,1.28,0,1,0,1.28,1.28,1.281,1.281,0,0,0-1.28-1.28" transform="translate(-204.381 -32.633)" fill="#fff"/>
            <path id="Trazado_604275" data-name="Trazado 604275" d="M344.322,60.741a1.71,1.71,0,1,1,1.711-1.71,1.712,1.712,0,0,1-1.711,1.71m0-2.99a1.28,1.28,0,1,0,1.28,1.28,1.281,1.281,0,0,0-1.28-1.28" transform="translate(-195.053 -32.633)" fill="#fff"/>
            <path id="Trazado_604276" data-name="Trazado 604276" d="M329.047,60.741a1.71,1.71,0,1,1,1.711-1.71,1.712,1.712,0,0,1-1.711,1.71m0-2.99a1.28,1.28,0,1,0,1.28,1.28,1.281,1.281,0,0,0-1.28-1.28" transform="translate(-186.356 -32.633)" fill="#fff"/>
            <g transform="matrix(1, 0, 0, 1, -5.51, -20.24)" filter="url(#Trazado_604277)">
              <path id="Trazado_604277-2" data-name="Trazado 604277" d="M100.937,2.395h54.974a2,2,0,0,1,2,2V85.371A6.917,6.917,0,0,1,151,92.287h-38.17A14.738,14.738,0,0,1,98.091,77.549V5.241a2.846,2.846,0,0,1,2.846-2.846" transform="translate(-50.34 18.87)" fill="#6b8dfc"/>
            </g>
            <path id="Trazado_604280" data-name="Trazado 604280" d="M129.814,192.833v.015h48.051a10.014,10.014,0,0,0,10.014-10.014v-3.8H139.284v3.8a10.014,10.014,0,0,1-9.47,10" transform="translate(-73.905 -101.924)" fill="#558ee5"/>
            <path id="Trazado_604282" data-name="Trazado 604282" d="M169.675,153.834H135.126a.431.431,0,1,1,0-.861h34.549a.431.431,0,1,1,0,.861" transform="translate(-76.684 -87.089)" fill="#fff"/>
            <path id="Trazado_604283" data-name="Trazado 604283" d="M169.545,120.058h-35.92a.431.431,0,0,1,0-.861h35.92a.431.431,0,1,1,0,.861" transform="translate(-75.83 -67.86)" fill="#fff"/>
            <path id="Trazado_604284" data-name="Trazado 604284" d="M150.973,136.932H132.619a.431.431,0,1,1,0-.861h18.354a.431.431,0,0,1,0,.861" transform="translate(-75.256 -77.467)" fill="#fff"/>
            <path id="Trazado_604285" data-name="Trazado 604285" d="M151.42,136.932H135.847a.431.431,0,1,1,0-.861H151.42a.431.431,0,0,1,0,.861" transform="translate(-77.094 -77.467)" fill="#fff"/>
            <path id="Trazado_604286" data-name="Trazado 604286" d="M157.851,83.944H134.206a.431.431,0,1,1,0-.861h23.645a.431.431,0,0,1,0,.861" transform="translate(-76.16 -47.3)" fill="#fff"/>
            <path id="Trazado_604287" data-name="Trazado 604287" d="M205.037,83.944h-7.2a.431.431,0,0,1,0-.861h7.2a.431.431,0,0,1,0,.861" transform="translate(-112.384 -47.3)" fill="#fff"/>
            <path id="Trazado_604288" data-name="Trazado 604288" d="M183.181,100.818h-25.6a.431.431,0,0,1,0-.861h25.6a.431.431,0,1,1,0,.861" transform="translate(-89.465 -56.907)" fill="#fff"/>
            <path id="Trazado_604289" data-name="Trazado 604289" d="M141.413,100.818h-7.787a.431.431,0,0,1,0-.861h7.787a.431.431,0,1,1,0,.861" transform="translate(-75.83 -56.907)" fill="#fff"/>
            <path id="Trazado_604290" data-name="Trazado 604290" d="M169.675,69.657H135.126a.431.431,0,0,1,0-.861h34.549a.431.431,0,1,1,0,.861" transform="translate(-76.684 -39.166)" fill="#fff"/>
            <path id="Trazado_604291" data-name="Trazado 604291" d="M169.675,35.881H135.126a.431.431,0,0,1,0-.861h34.549a.431.431,0,1,1,0,.861" transform="translate(-76.684 -19.937)" fill="#fff"/>
            <path id="Trazado_604292" data-name="Trazado 604292" d="M147.282,52.755H134.206a.431.431,0,1,1,0-.861h13.076a.431.431,0,0,1,0,.861" transform="translate(-76.16 -29.544)" fill="#fff"/>
            <path id="Trazado_604293" data-name="Trazado 604293" d="M194.148,52.755H178.575a.431.431,0,1,1,0-.861h15.573a.431.431,0,0,1,0,.861" transform="translate(-101.42 -29.544)" fill="#fff"/>
            <g id="Grupo_984926" data-name="Grupo 984926" transform="translate(92.653 27.005)" opacity="0.21">
              <g id="Grupo_984925" data-name="Grupo 984925">
                <g id="Grupo_984924" data-name="Grupo 984924" clip-path="url(#clip-path-17)">
                  <path id="Trazado_604294" data-name="Trazado 604294" d="M242.386,62.7a27.259,27.259,0,1,0,27.259,27.259A27.259,27.259,0,0,0,242.386,62.7" transform="translate(-215.127 -62.703)" fill="#fff"/>
                </g>
              </g>
            </g>
            <g id="Grupo_984929" data-name="Grupo 984929" transform="translate(96.828 29.562)" opacity="0.76">
              <g id="Grupo_984928" data-name="Grupo 984928">
                <g id="Grupo_984927" data-name="Grupo 984927" clip-path="url(#clip-path-18)">
                  <path id="Trazado_604295" data-name="Trazado 604295" d="M226.545,95.3a1.723,1.723,0,0,1-1.723-1.723,24.967,24.967,0,0,1,24.939-24.939,1.723,1.723,0,0,1,0,3.446,21.517,21.517,0,0,0-21.493,21.493,1.723,1.723,0,0,1-1.723,1.723" transform="translate(-224.822 -68.639)" fill="#fff"/>
                </g>
              </g>
            </g>
            <g id="Grupo_984932" data-name="Grupo 984932" transform="translate(91.791 26.144)" opacity="0.58">
              <g id="Grupo_984931" data-name="Grupo 984931">
                <g id="Grupo_984930" data-name="Grupo 984930" clip-path="url(#clip-path-19)">
                  <path id="Trazado_604296" data-name="Trazado 604296" d="M241.247,116.943a28.12,28.12,0,1,1,28.12-28.12,28.152,28.152,0,0,1-28.12,28.12m0-54.518a26.4,26.4,0,1,0,26.4,26.4,26.428,26.428,0,0,0-26.4-26.4" transform="translate(-213.127 -60.702)" fill="#3e479b"/>
                </g>
              </g>
            </g>
            <path id="Trazado_604297" data-name="Trazado 604297" d="M261.426,103.477a1.292,1.292,0,0,1,.129-.106,31.884,31.884,0,1,0-5.829,5.806l3.68-3.68ZM236.371,111.2A27.259,27.259,0,1,1,263.63,83.946,27.259,27.259,0,0,1,236.371,111.2" transform="translate(-116.459 -29.682)" fill="#3e479b"/>
            <path id="Trazado_604298" data-name="Trazado 604298" d="M235.8,115.617a32.24,32.24,0,1,1,32.24-32.24,31.927,31.927,0,0,1-6.715,19.688l-.081.08a.792.792,0,0,0-.084.066l-5.743,5.738a31.932,31.932,0,0,1-19.617,6.668M235.8,52a31.379,31.379,0,0,0,0,62.758,31.076,31.076,0,0,0,19.07-6.472l5.681-5.68a1.232,1.232,0,0,1,.128-.11,31.073,31.073,0,0,0,6.5-19.117A31.415,31.415,0,0,0,235.8,52m0,59.069a27.69,27.69,0,1,1,27.69-27.69,27.721,27.721,0,0,1-27.69,27.69m0-54.518A26.828,26.828,0,1,0,262.63,83.376,26.859,26.859,0,0,0,235.8,56.548" transform="translate(-115.89 -29.112)" fill="#3e479b"/>
            <path id="Trazado_604299" data-name="Trazado 604299" d="M327.723,178.987l-1.234-1.234a1.217,1.217,0,0,1,0-1.72l-3.68,3.68-.06.06a1.216,1.216,0,0,0,0,1.72l1.5,1.5a29.273,29.273,0,0,1,3.476-4" transform="translate(-183.542 -100.218)" fill="#4c65ba"/>
            <path id="Trazado_604300" data-name="Trazado 604300" d="M331.432,172.9a1.216,1.216,0,0,0,0,1.72l1.234,1.234a33.948,33.948,0,0,1,3.94-3.54l-1.434-1.434a1.26,1.26,0,0,0-1.72,0Z" transform="translate(-188.485 -97.08)" fill="#4c65ba"/>
            <g id="Grupo_984935" data-name="Grupo 984935" transform="translate(142.59 73.442)" opacity="0.43">
              <g id="Grupo_984934" data-name="Grupo 984934">
                <g id="Grupo_984933" data-name="Grupo 984933" clip-path="url(#clip-path-20)">
                  <path id="Trazado_604301" data-name="Trazado 604301" d="M331.432,172.9a1.216,1.216,0,0,0,0,1.72l1.234,1.234a33.948,33.948,0,0,1,3.94-3.54l-1.434-1.434a1.26,1.26,0,0,0-1.72,0Z" transform="translate(-331.076 -170.522)" fill="#3e479b"/>
                </g>
              </g>
            </g>
            <path id="Trazado_604302" data-name="Trazado 604302" d="M356.952,196.663l-22.4-22.645c-.081-.081-.326.027-.678.266a33.947,33.947,0,0,0-3.94,3.54,29.243,29.243,0,0,0-3.476,4c-.161.27-.223.457-.152.528L348.7,205a5.787,5.787,0,0,0,8.247,0,5.94,5.94,0,0,0,0-8.337" transform="translate(-185.752 -99.056)" fill="#599af2"/>
            <g id="Grupo_984938" data-name="Grupo 984938" transform="translate(143.661 74.936)" opacity="0.14">
              <g id="Grupo_984937" data-name="Grupo 984937">
                <g id="Grupo_984936" data-name="Grupo 984936" clip-path="url(#clip-path-21)">
                  <path id="Trazado_604303" data-name="Trazado 604303" d="M361.1,196.662l-22.4-22.645c-.3-.3-2.855,1.982-5.046,4.242C331.788,180.182,358.822,207.3,361.1,205a5.94,5.94,0,0,0,0-8.337" transform="translate(-333.561 -173.991)" fill="#3e479b"/>
                </g>
              </g>
            </g>
            <g transform="matrix(1, 0, 0, 1, -5.51, -20.24)" filter="url(#Trazado_604304)">
              <path id="Trazado_604304-2" data-name="Trazado 604304" d="M97.812,140.76H24.179a7.789,7.789,0,0,1,0-15.578H97.812a7.789,7.789,0,0,1,0,15.578" transform="translate(-3.83 -51.03)" fill="#f0f4ff"/>
            </g>
            <path id="Trazado_604305" data-name="Trazado 604305" d="M189.533,140.76H177.557l-.058-15.578h12.034a7.789,7.789,0,0,1,0,15.578" transform="translate(-101.052 -71.268)" fill="#599af2"/>
            <path id="Trazado_604306" data-name="Trazado 604306" d="M193.9,140.6a3.407,3.407,0,1,1,2.409-1,3.411,3.411,0,0,1-2.409,1m0-5.953a2.546,2.546,0,1,0,2.546,2.546,2.549,2.549,0,0,0-2.546-2.546" transform="translate(-108.45 -76.165)" fill="#fff"/>
            <path id="Trazado_604307" data-name="Trazado 604307" d="M205.391,149.179a.429.429,0,0,1-.3-.126l-2.7-2.7a.431.431,0,0,1,.609-.609l2.7,2.7a.431.431,0,0,1-.3.735" transform="translate(-115.147 -82.9)" fill="#fff"/>
            <path id="Trazado_604308" data-name="Trazado 604308" d="M118.591,182.395H81.94A4.644,4.644,0,0,1,77.3,177.75V174.7a4.662,4.662,0,0,0-4.661-4.661H55.705a4.662,4.662,0,0,0-4.661,4.661v48.38a4.342,4.342,0,0,0,4.342,4.342h63.206a4.342,4.342,0,0,0,4.342-4.342V186.736a4.342,4.342,0,0,0-4.342-4.342" transform="translate(-29.06 -96.808)" fill="#fc5f65"/>
            <path id="Trazado_604309" data-name="Trazado 604309" d="M109.214,182.395H72.563a4.644,4.644,0,0,1-4.645-4.645V174.7a4.662,4.662,0,0,0-4.661-4.661H46.328a4.662,4.662,0,0,0-4.661,4.661v48.38a4.342,4.342,0,0,0,4.342,4.342h63.206a4.342,4.342,0,0,0,4.342-4.342V186.736a4.342,4.342,0,0,0-4.342-4.342" transform="translate(-23.722 -96.808)" fill="#f28393"/>
            <g id="Grupo_984941" data-name="Grupo 984941" transform="translate(17.946 73.235)" opacity="0.12">
              <g id="Grupo_984940" data-name="Grupo 984940">
                <g id="Grupo_984939" data-name="Grupo 984939" clip-path="url(#clip-path-22)">
                  <path id="Trazado_604310" data-name="Trazado 604310" d="M109.214,182.395H72.563a4.644,4.644,0,0,1-4.645-4.645V174.7a4.662,4.662,0,0,0-4.661-4.661H46.328a4.662,4.662,0,0,0-4.661,4.661v48.38a4.342,4.342,0,0,0,4.342,4.342h63.206a4.342,4.342,0,0,0,4.342-4.342V186.736a4.342,4.342,0,0,0-4.342-4.342" transform="translate(-41.667 -170.043)" fill="#fc5f65"/>
                </g>
              </g>
            </g>
            <g id="Grupo_984944" data-name="Grupo 984944" transform="translate(17.946 73.235)" opacity="0.12">
              <g id="Grupo_984943" data-name="Grupo 984943">
                <g id="Grupo_984942" data-name="Grupo 984942" clip-path="url(#clip-path-23)">
                  <path id="Trazado_604311" data-name="Trazado 604311" d="M99.918,182.395H68.311c-2.212,0-4.005-2.079-4.005-4.645V174.7c0-2.574-1.8-4.661-4.02-4.661h-14.6c-2.22,0-4.02,2.087-4.02,4.661v48.38c0,2.4,1.676,4.342,3.744,4.342H99.918c2.068,0,3.744-1.944,3.744-4.342V186.736c0-2.4-1.676-4.342-3.744-4.342" transform="translate(-41.667 -170.043)" fill="#ff9fa3"/>
                </g>
              </g>
            </g>
            <path id="Trazado_604312" data-name="Trazado 604312" d="M48.961,191.489a.431.431,0,0,1-.431-.431V180.49a2.972,2.972,0,0,1,2.968-2.969H63.973a.431.431,0,1,1,0,.861H51.5a2.11,2.11,0,0,0-2.107,2.107v10.569a.431.431,0,0,1-.431.431" transform="translate(-27.629 -101.065)" fill="#fff"/>
          </g>
        </g>
      </g>
    </g>
  </g>
</svg>
