<svg xmlns="http://www.w3.org/2000/svg" xmlns:xlink="http://www.w3.org/1999/xlink" width="412" height="958.784" viewBox="0 0 412 958.784">
  <defs>
    <clipPath id="clip-path">
      <rect id="Rectángulo_45714" data-name="Rectángulo 45714" width="958.784" height="410.955" fill="#e5ebff" opacity="0.57"/>
    </clipPath>
    <clipPath id="clip-path-2">
      <rect id="Rectángulo_45764" data-name="Rectángulo 45764" width="958.784" height="410.955" transform="translate(0 0)" fill="#ffbfc1" opacity="0.57"/>
    </clipPath>
    <clipPath id="clip-path-3">
      <rect id="Rectángulo_45772" data-name="Rectángulo 45772" width="958.784" height="410.955" rx="10" fill="#e6ecff" opacity="0.57"/>
    </clipPath>
    <clipPath id="clip-path-4">
      <path id="Trazado_186631" data-name="Trazado 186631" d="M0,412H958.784V0H0Z" fill="#e8e8e8" opacity="0.37"/>
    </clipPath>
    <clipPath id="clip-path-5">
      <rect id="Rectángulo_41289" data-name="Rectángulo 41289" width="269.303" height="171.97" fill="#6b8dfc"/>
    </clipPath>
  </defs>
  <g id="Grupo_984706" data-name="Grupo 984706" transform="translate(412) rotate(90)">
    <g id="Grupo_982060" data-name="Grupo 982060" transform="translate(0 0)">
      <g id="Enmascarar_grupo_319" data-name="Enmascarar grupo 319" transform="translate(0 0)" opacity="0.57" clip-path="url(#clip-path)">
        <g id="Grupo_175720" data-name="Grupo 175720" transform="translate(555.788 78.107)">
          <g id="Grupo_175718" data-name="Grupo 175718" transform="translate(19.188 0)">
            <path id="Trazado_185972" data-name="Trazado 185972" d="M28.479,88.267S2.647,68.6,0,0H14.538Z" transform="translate(47.762)" fill="#e5ebff"/>
            <g id="Grupo_175717" data-name="Grupo 175717" transform="translate(0 1.521)">
              <path id="Trazado_185973" data-name="Trazado 185973" d="M32.363,14.167C32.661,13.241,20.173-3.69.873.737L0,6.5S17.291,1.894,29.9,16Z" transform="translate(3.764 71.3)" fill="#e5ebff"/>
              <path id="Trazado_185974" data-name="Trazado 185974" d="M55.1,1.712,41.948,95.306s-25.4-8.951-29.018,13.487l-3.873-3S14.1,89.475,26.195,88.362c0,0-10.55-6.617-19.139,12L2.45,95.044s7.081-14.563,23.433-9.789c0,0-16.364-3.731-23.819,5.953L0,85.162S17.609,72.4,32.752,81.3L27.523,0Z" fill="#e5ebff"/>
            </g>
            <path id="Trazado_185975" data-name="Trazado 185975" d="M0,105.865,3.035,0,26.548,3.39,22.894,111.12Z" transform="translate(76.596 79.124)" fill="#e5ebff"/>
            <path id="Trazado_185976" data-name="Trazado 185976" d="M47.166,101.057,20.028,97.335,0,0,71.39.22S80.825,52.271,47.166,101.057Z" transform="translate(58.1 0.09)" fill="#e5ebff"/>
            <path id="Trazado_185977" data-name="Trazado 185977" d="M12.424,100.739,0,0H40.839S45.414,89.794,12.424,100.739Z" transform="translate(89.869 0)" fill="#e5ebff"/>
            <path id="Trazado_185978" data-name="Trazado 185978" d="M0,.111S18.037-3.116,28.4,25.178L5.052,27.272Z" transform="translate(73.897 75.561)" fill="#e5ebff"/>
            <path id="Trazado_185979" data-name="Trazado 185979" d="M4.538,38.13l6.623-26.548H3.689L0,0,1.5,15H6.985Z" transform="translate(98.605 53.07)" fill="#e5ebff"/>
            <path id="Trazado_185980" data-name="Trazado 185980" d="M8.588,27.353,0,6.352H4.888V0L7.045,9.224H4.287Z" transform="translate(62.841 55.918)" fill="#e5ebff"/>
            <path id="Trazado_185981" data-name="Trazado 185981" d="M0,0,24.648,20.177V47.594L1.383,19.546Z" transform="translate(77.646 95.089)" fill="#e5ebff"/>
            <path id="Trazado_185982" data-name="Trazado 185982" d="M0,68.337s23.739,6.214,27.452-25.243S5.389,0,5.389,0Z" transform="translate(93.523 139.656)" fill="#e5ebff"/>
            <path id="Trazado_185983" data-name="Trazado 185983" d="M21.674,98.7,0,39.119l21.442,2.229.583-11.484s29.886-11.2,31.337,5.829c0,0-.014-20.093-31.334-20.685L22.719.071S73.742-3.6,68.137,42.03s-4.252,51.5-4.252,51.5L21.674,98.7Z" transform="translate(28.558 103.318)" fill="#e5ebff"/>
            <path id="Trazado_185984" data-name="Trazado 185984" d="M9.317,14S8.181-4.566,1.069,1.062c-2.6,2.056.354,15.191.354,15.191s.4-11.245,1.8-11.963C5.817,2.958,9.317,14,9.317,14Z" transform="translate(52.782 159.37)" fill="#e5ebff"/>
            <path id="Trazado_185985" data-name="Trazado 185985" d="M10.452,6.4A5.607,5.607,0,0,0,5.913.046,5.346,5.346,0,0,0,.043,4.957a5.605,5.605,0,0,0,4.54,6.348A5.344,5.344,0,0,0,10.452,6.4Z" transform="translate(65.745 153.997)" fill="#e5ebff"/>
            <path id="Trazado_185986" data-name="Trazado 185986" d="M66.391,0,0,8.729s.03,12.7,22.99,12.563l-11.981,7.09S56.862,49.265,66.391,0Z" transform="translate(33.711 195.065)" fill="#e5ebff"/>
            <path id="Trazado_185987" data-name="Trazado 185987" d="M21.877,3.338l-2.77,25.906L4.614,30.822S-13.44-12.062,21.877,3.338Z" transform="translate(78.437 172.462)" fill="#e5ebff"/>
            <path id="Trazado_185988" data-name="Trazado 185988" d="M13.913,8.512A7.462,7.462,0,0,0,7.869.062,7.112,7.112,0,0,0,.057,6.6,7.459,7.459,0,0,0,6.1,15.049,7.116,7.116,0,0,0,13.913,8.512Z" transform="translate(98.606 159.94)" fill="#e5ebff"/>
            <path id="Trazado_185989" data-name="Trazado 185989" d="M0,.273,15.327,0S13.812,6.417.205,6.429Z" transform="translate(53.973 187.362)" fill="#e5ebff"/>
            <path id="Trazado_185990" data-name="Trazado 185990" d="M1.594,64.651l17.717,1.4L29.052,0H0Z" transform="translate(26.963 0)" fill="#e5ebff"/>
            <path id="Trazado_185991" data-name="Trazado 185991" d="M0,8.731H23.029l2.3-7.181L2.16,0Z" transform="translate(24.803 61.578)" fill="#e5ebff"/>
            <path id="Trazado_185992" data-name="Trazado 185992" d="M0,95.942l52.956-47.2L44.5,0H19.017L28.9,40.517,5.2,57.645Z" transform="translate(110.377 0)" fill="#e5ebff"/>
            <path id="Trazado_185993" data-name="Trazado 185993" d="M26.26,39,0,58.819,29.694,41.8,17.864,0,17.69,5.628Z" transform="translate(113.018 1.521)" fill="#e5ebff"/>
            <path id="Trazado_185994" data-name="Trazado 185994" d="M0,27.707S18.6,19.392,18.531,0C18.531,0,24.817,28.434,0,27.707Z" transform="translate(98.605 177.315)" fill="#e5ebff"/>
            <path id="Trazado_185995" data-name="Trazado 185995" d="M0,0S5.635,5.415,18.64,4.348C18.64,4.348,9.754,13.6,0,0Z" transform="translate(37.591 207.106)" fill="#e5ebff"/>
            <path id="Trazado_185996" data-name="Trazado 185996" d="M12.29,33.783,0,0,21.442,2.229Z" transform="translate(28.558 142.437)" fill="#e5ebff" opacity="0.5"/>
            <path id="Trazado_185997" data-name="Trazado 185997" d="M7.866,8.069S1.692,11.738,0,0C0,0,4.066,8.156,7.866,8.069Z" transform="translate(101.64 161.195)" fill="#e5ebff"/>
            <path id="Trazado_185998" data-name="Trazado 185998" d="M0,45.741s29.093-8.1,40.847,16.948-1.588,38.3-1.588,38.3l9.983.4S72.347,3.328,0,0Z" transform="translate(50.136 96.24)" fill="#e5ebff"/>
            <path id="Trazado_185999" data-name="Trazado 185999" d="M0,18.689s22.779-3.834,30.937,6.041c0,0,2.253-28.008-30-24.411Z" transform="translate(47.466 116.976)" fill="#e5ebff"/>
            <path id="Trazado_186000" data-name="Trazado 186000" d="M0,7.6S31.276,7,44.343,35.386C44.343,35.386,40.136,2.811,0,0Z" transform="translate(52.782 98.398)" fill="#e5ebff"/>
          </g>
          <g id="Grupo_175719" data-name="Grupo 175719" transform="translate(0 199.541)">
            <path id="Trazado_186001" data-name="Trazado 186001" d="M61.135,132.455C21.017,129.487,0,110.392,0,83.177,0,67.069,6.571,52.859,20.72,43.888A45.092,45.092,0,0,1,26.3,26.25C40.334,2.341,53.345,0,53.345,0,44.4,10.8,41.094,23.409,40.956,35.948A99.388,99.388,0,0,1,61.135,33.9c70.856-.441,93.442,12.915,93.442,46.22C154.577,114.783,137.934,138.139,61.135,132.455Z" transform="translate(0 0)" fill="#e5ebff"/>
          </g>
        </g>
        <rect id="Rectángulo_45713" data-name="Rectángulo 45713" width="958.784" height="719.495" transform="translate(0 -308.506)" fill="#e5ebff"/>
        <g id="Grupo_175721" data-name="Grupo 175721" transform="translate(-11.523 -192.81)" opacity="0.254">
          <path id="Trazado_186003" data-name="Trazado 186003" d="M200.956,6.422C268.931,28.266,311.835,101.534,375.324,135.7c89.625,48.225,200.257,9.831,295.39,43.517,47.653,16.874,88.531,53,115.6,98.573H0V77.411C16.728,61.3,34.39,46.487,53.625,34.044,97.657,5.56,151.776-9.383,200.956,6.422Z" transform="translate(0 451.324)" fill="#e5ebff" opacity="0.614"/>
          <path id="Trazado_186004" data-name="Trazado 186004" d="M12.582,722.185H882.668c6.949,0,12.582-8.21,12.582-18.337V18.337C895.25,8.209,889.617,0,882.668,0H12.582C5.633,0,0,8.209,0,18.337V703.848C0,713.975,5.633,722.185,12.582,722.185Z" transform="translate(12.533 0)" fill="none"/>
        </g>
      </g>
      <g id="Enmascarar_grupo_327" data-name="Enmascarar grupo 327" transform="translate(0 0)" clip-path="url(#clip-path-2)">
        <g id="Grupo_176633" data-name="Grupo 176633" transform="translate(-649.332 82.504) rotate(-30)" opacity="0.254">
          <path id="Trazado_186092" data-name="Trazado 186092" d="M584.708,251.991C516.875,231.55,473.652,164.371,410.2,132.724,320.628,88.05,210.736,122.262,115.78,90.813,68.216,75.06,27.265,41.788,0,0L782.932,5.855l1.379,182.851c-16.545,14.574-34.029,27.963-53.1,39.175C687.569,253.546,633.786,266.779,584.708,251.991Z" transform="translate(0 0)" fill="#dddeff" opacity="0.614"/>
        </g>
      </g>
      <g id="Enmascarar_grupo_334" data-name="Enmascarar grupo 334" transform="translate(0 0)" clip-path="url(#clip-path-3)">
        <g id="Grupo_173646" data-name="Grupo 173646" transform="translate(-32.958 -95.466)">
          <path id="Trazado_178337" data-name="Trazado 178337" d="M31.749,481.01h974.3c17.534,0,31.749-13.728,31.749-30.662V30.662C1037.8,13.728,1023.588,0,1006.054,0H31.749C14.215,0,0,13.728,0,30.662V450.348C0,467.282,14.215,481.01,31.749,481.01Z" transform="translate(31.62 70.982)" fill="#e1e8ff"/>
          <path id="Trazado_178348" data-name="Trazado 178348" d="M760.3,586.4a619.753,619.753,0,0,1-190.855,29.833C254.951,616.235,0,384.443,0,98.51A474.549,474.549,0,0,1,10.341,0H760.3Z" transform="translate(320.069)" fill="#f7f9ff"/>
          <path id="Trazado_178349" data-name="Trazado 178349" d="M360.716,173.538C314.65,71.314,210.531,0,89.457,0A300.945,300.945,0,0,0,0,13.509V173.538Z" transform="translate(0 420.354)" fill="#f0f4ff"/>
          <line id="Línea_1427" data-name="Línea 1427" y1="2.873" transform="translate(163.148 28.584)" fill="#1d2b5e"/>
        </g>
      </g>
      <g id="Grupo_177466" data-name="Grupo 177466" transform="translate(0 0)" opacity="0.48" clip-path="url(#clip-path-4)">
        <g id="Grupo_177463" data-name="Grupo 177463" transform="translate(836.619 323.486)">
          <g id="Grupo_177462" data-name="Grupo 177462" transform="translate(0 0)">
            <path id="Trazado_186627" data-name="Trazado 186627" d="M281.232,72.371C278.772,35.738,253,.559,218.484-1.907,178.833-5.595,142.669,18.05,103.2,17.963c-20.11,1.729-39.057-6.931-58.693-9.843C.2,5.946-6.061,63.285,2.518,100.353,38.855,275.07,285.2,253.464,281.232,72.371Z" transform="matrix(0.602, -0.799, 0.799, 0.602, 3.398, 278.242)" fill="#e4e8f9"/>
            <path id="Trazado_186628" data-name="Trazado 186628" d="M-.2,56.462C1.3,28.4,19.886,1.645,45.156.053c29.023-2.485,55.72,15.957,84.638,16.232,14.749,1.5,28.56-4.976,42.924-7.039,32.452-1.284,37.517,42.735,31.542,71.082C179.1,213.977-1.586,195.28-.2,56.462Z" transform="translate(200.96 27.443) rotate(99)" fill="#afb8ee" opacity="0.21" style="mix-blend-mode: multiply;isolation: isolate"/>
          </g>
        </g>
        <g id="Grupo_177465" data-name="Grupo 177465" transform="translate(-116.783 -205.913)">
          <g id="Grupo_177464" data-name="Grupo 177464" transform="translate(0 0)">
            <path id="Trazado_186629" data-name="Trazado 186629" d="M224.334,57.729c-1.962-29.221-22.52-57.283-50.053-59.25C142.652-4.463,113.8,14.4,82.323,14.329,66.282,15.708,51.168,8.8,35.5,6.477.156,4.743-4.835,50.481,2.008,80.05,30.994,219.419,227.5,202.185,224.334,57.729Z" transform="matrix(-0.602, 0.799, -0.799, -0.602, 273.765, 108.156)" fill="#b9c3f1" opacity="0.4"/>
            <path id="Trazado_186630" data-name="Trazado 186630" d="M-.158,45.039C1.034,22.651,15.862,1.313,36.02.043,59.172-1.94,80.467,12.772,103.535,12.991c11.765,1.2,22.782-3.969,34.24-5.615,25.886-1.024,29.927,34.089,25.161,56.7C142.865,170.686-1.265,155.772-.158,45.039Z" transform="translate(116.173 308.214) rotate(-81)" fill="#dce2fd" opacity="0.32" style="mix-blend-mode: multiply;isolation: isolate"/>
          </g>
        </g>
      </g>
    </g>
    <g id="Grupo_982061" data-name="Grupo 982061" transform="translate(689.481 0)" opacity="0.12">
      <g id="Enmascarar_grupo_167" data-name="Enmascarar grupo 167" transform="translate(0 0)" clip-path="url(#clip-path-5)">
        <g id="Grupo_166176" data-name="Grupo 166176" transform="translate(44.915 -110.318)">
          <path id="Unión_28" data-name="Unión 28" d="M116.212.069c-20.138,1.18-36.694,17.316-50,30.278-2.236,2.181-4.405,4.3-6.517,6.272C42.561,52.642,25.457,69.235,8.915,85.281L6.928,87.205C.842,93.107-1.333,100.562.8,108.194a25.889,25.889,0,0,0,18.155,17.517c7.774,1.963,15.352-.218,21.317-6.154v0c12.065-12,25.213-24.474,39.91-37.869L78.429,85.4c-4.939,10.48-10.046,21.314-14.69,32.175-4.664,10.9-9.045,22.573-11.156,34.01-2.332,12.632-1.958,25,3.678,35.968,6.563,12.775,16.21,20.127,28.674,21.847,27.132,3.731,60.952-20.9,79.238-38.26-4.939,14.007-8.347,28.69-6.93,44.03,1.207,13.08,7.435,23.058,17.535,28.1,11.47,5.728,26.523,4.451,40.276-3.416,24.782-14.177,44.6-38.122,62.323-61.883,8-10.723,3.519-21.217-4.466-26.862-9.654-6.826-24.8-7-33.453,4.52q-1.645,2.2-3.355,4.361c4.918-9.017,9.555-18.074,13.689-27.354l1.6-3.572c14.059-31.41,33.311-74.43,15.48-107.862C256.948,2.593,234.1.484,216.66,8.013,197.1,16.465,182.8,34.031,170.195,49.53c-1.631,2-3.244,3.987-4.85,5.929-11,13.3-21.164,27.4-31,41.04-3.5,4.86-7,9.719-10.555,14.558l-1.012,1.381q-1.527,2.087-3.087,4.2c1.7-3.953,3.412-7.774,5.039-11.411,1.717-3.835,3.532-7.712,5.367-11.626,7.656-16.344,15.576-33.248,18.236-50.9,2.04-13.537-1.157-26.295-8.557-34.127C134.456,2.942,127.137,0,118.516,0,117.757,0,116.988.021,116.212.069Z" transform="translate(0 0)" fill="#5355a7" stroke="rgba(0,0,0,0)" stroke-miterlimit="10" stroke-width="1" opacity="0.412"/>
          <path id="Trazado_115699" data-name="Trazado 115699" d="M34.163,113.681c17.157-17.064,34.888-33.5,52.961-49.644C79.311,81.2,70.886,98.1,63.468,115.442c-8.408,19.667-18.18,46.474-7.582,67.1,24.159,47.02,85.228.886,107.7-22.785,2.4-2.52,4.679-5.154,6.994-7.76-8.027,19.113-15.256,38.752-13.351,59.4,2.625,28.392,29.4,35.2,52.459,22.013,24.76-14.167,44.642-38.676,61.248-60.934,14.1-18.905-18.169-36.9-32.161-18.268a248.166,248.166,0,0,1-25.134,28.583q2-3.567,4.045-7.123c9.02-15.662,17.93-31.386,25.28-47.868,14.077-31.566,34.888-75.26,17.183-108.464C251.228,2.607,230.306.908,214.548,7.716,193.371,16.867,178.7,37.07,164.561,54.169,149.8,72.022,136.8,90.979,123.138,109.607c-5.712,7.784-11.417,15.679-17.952,22.84-.15.163-.31.315-.459.481l.164-.505c3.629-10.965,8.3-21.487,13.019-32.037C126.7,80.761,138.038,60.1,141.257,38.742c2.849-18.884-5.021-40.05-28.389-38.679C90.9,1.351,73.3,21.917,58.611,35.651,40.823,52.286,23.355,69.253,5.885,86.2a20.269,20.269,0,0,0-4.241,5.787C-6.6,109.113,18,129.754,34.163,113.681Z" transform="translate(12.001 11.667)" fill="#8284d2"/>
          <path id="Trazado_115700" data-name="Trazado 115700" d="M118.518,0c8.621,0,15.936,2.939,21.26,8.573,7.4,7.833,10.6,20.591,8.557,34.131-2.657,17.645-10.577,34.55-18.237,50.9-1.83,3.915-3.647,7.788-5.367,11.623-1.627,3.638-3.34,7.459-5.039,11.412,1.04-1.405,2.069-2.811,3.088-4.2l1.011-1.377c3.55-4.839,7.055-9.7,10.559-14.558,9.829-13.641,20-27.745,30.992-41.04q2.409-2.918,4.85-5.933c12.61-15.5,26.9-33.061,46.466-41.517C234.105.481,256.946,2.592,266.867,21.2c17.831,33.428-1.421,76.448-15.477,107.862l-1.6,3.569c-4.134,9.279-8.771,18.337-13.685,27.354q1.7-2.165,3.355-4.358c8.646-11.522,23.8-11.349,33.45-4.524,7.984,5.645,12.464,16.14,4.466,26.862-17.724,23.761-37.541,47.706-62.32,61.886-13.757,7.864-28.806,9.141-40.28,3.413-10.1-5.043-16.324-15.018-17.535-28.1-1.417-15.34,1.991-30.026,6.933-44.03-18.29,17.361-52.106,41.988-79.239,38.257-12.464-1.72-22.115-9.072-28.678-21.847-10.794-21.01-2.276-47.162,7.478-69.979,4.644-10.858,9.75-21.695,14.69-32.172l1.748-3.707c-14.7,13.391-27.844,25.869-39.909,37.866h0c-5.965,5.936-13.543,8.113-21.317,6.151A25.878,25.878,0,0,1,.8,108.19c-2.133-7.632.043-15.084,6.129-20.985l1.987-1.928C25.455,69.231,42.559,52.641,59.7,36.616c2.112-1.976,4.281-4.091,6.52-6.272,13.3-12.962,29.856-29.1,49.995-30.279C116.99.021,117.756,0,118.518,0ZM108.3,139.7a3.431,3.431,0,0,1-1.723-.45,3.326,3.326,0,0,1-1.684-3.928l.167-.505c3.8-11.495,8.764-22.577,13.14-32.352,1.734-3.87,3.568-7.781,5.417-11.73,7.453-15.908,15.16-32.355,17.674-49.031,1.706-11.325-.883-22.224-6.759-28.444-4.352-4.607-10.366-6.7-17.891-6.282C99.206,8,84.356,22.467,71.258,35.235c-2.272,2.215-4.48,4.365-6.624,6.369-17.09,15.98-34.173,32.549-50.693,48.575l-1.984,1.928c-5.381,5.216-5.3,10.64-4.288,14.274a18.9,18.9,0,0,0,13.073,12.627c3.682.934,9.17.941,14.426-4.289h0c15.587-15.5,32.955-31.777,53.1-49.776a3.636,3.636,0,0,1,4.483-.263,3.4,3.4,0,0,1,1.182,4.212c-2.952,6.49-5.993,12.938-9.031,19.39-4.914,10.422-9.992,21.2-14.59,31.947-9.138,21.369-17.2,45.712-7.685,64.23,5.534,10.768,13.158,16.683,23.307,18.085,25.295,3.478,60.87-23.007,78.594-41.673,1.887-1.99,3.707-4.053,5.531-6.113l1.382-1.564A3.62,3.62,0,0,1,176,152.5a3.414,3.414,0,0,1,1.439,4.261c-7.649,18.2-14.96,37.665-13.1,57.785,1,10.785,5.733,18.587,13.7,22.564,9.291,4.635,21.776,3.427,33.41-3.226,23.656-13.533,42.9-36.827,60.169-59.983,5.459-7.317,2.087-13.682-2.888-17.2-6.738-4.763-17.264-5.323-23.51,3a252.082,252.082,0,0,1-25.491,28.984,3.631,3.631,0,0,1-4.651.332,3.4,3.4,0,0,1-1-4.43q2.014-3.588,4.067-7.154c9.134-15.859,17.927-31.431,25.12-47.557l1.6-3.579c13.486-30.137,31.954-71.412,15.687-101.912-7.9-14.821-26.605-16.268-41-10.055-17.959,7.757-31.081,23.889-43.77,39.485q-2.463,3.027-4.886,5.974c-10.851,13.118-20.946,27.125-30.715,40.673-3.511,4.873-7.026,9.75-10.587,14.606l-1.011,1.374a258.6,258.6,0,0,1-17.175,21.75l-.32.336A3.938,3.938,0,0,1,108.3,139.7ZM37.72,117.138h0Z" transform="translate(8.445 8.21)" fill="#3c3fa7"/>
          <path id="Trazado_115701" data-name="Trazado 115701" d="M6.557,85.515C19.68,59.888,27.08,29.849,15.556,2.3,13.85-1.77,6.96.01,8.687,4.142,19.509,30.008,12.75,57.919.407,82.023-1.626,86,4.513,89.509,6.557,85.515Z" transform="translate(248.528 36.478)" fill="#3c3fa7"/>
          <path id="Trazado_115702" data-name="Trazado 115702" d="M2.575,6.738c.06.007.117.024.174.035.1.19.192.391.224.447l.014.021c.007.028,0,.01.007.052.459,1.544.791,3.112,1.136,4.683q1.213,5.477,2.418,10.955a3.6,3.6,0,0,0,4.384,2.416,3.53,3.53,0,0,0,2.486-4.257L10.683,8.7C9.921,5.26,8.707.75,4.469.061,2.639-.233.545.528.089,2.48-.3,4.152.612,6.419,2.575,6.738Z" transform="translate(241.695 42.2)" fill="#3c3fa7"/>
          <path id="Trazado_115703" data-name="Trazado 115703" d="M11.131,82.86c4.042,2.1,7.646-3.877,3.593-5.977-5.591-2.9-7.293-8.805-7.518-14.6A97.389,97.389,0,0,1,8.813,42.434,129.1,129.1,0,0,1,21.173,5.253c2.037-3.977-4.106-7.487-6.15-3.492A135.837,135.837,0,0,0,1.2,45.549C-.478,58.026-2.487,75.8,11.131,82.86Z" transform="translate(76.353 113.726)" fill="#3c3fa7"/>
        </g>
      </g>
    </g>
  </g>
</svg>
