<svg xmlns="http://www.w3.org/2000/svg" width="871.755" height="196.844" viewBox="0 0 871.755 196.844">
  <g id="Grupo_988569" data-name="Grupo 988569" transform="translate(-526 -4818.06)">
    <rect id="Rectángulo_41057" data-name="Rectángulo 41057" width="871.755" height="196.844" rx="6" transform="translate(526 4818.06)" fill="#fff"/>
    <g id="Rectángulo_340735" data-name="Rectángulo 340735" transform="translate(539 4829.178)" fill="#f0f4ff" stroke="#3c3fa7" stroke-width="1">
      <rect width="845.755" height="172.608" stroke="none"/>
      <rect x="0.5" y="0.5" width="844.755" height="171.608" fill="none"/>
    </g>
    <g id="Grupo_986965" data-name="Grupo 986965" transform="translate(0 176)">
      <g id="Rectángulo_340736" data-name="Rectángulo 340736" transform="translate(548.377 4662.5)" fill="#fff" stroke="#282b97" stroke-width="1.5">
        <rect width="827" height="69.995" stroke="none"/>
        <rect x="0.75" y="0.75" width="825.5" height="68.495" fill="none"/>
      </g>
      <path id="Trazado_685835" data-name="Trazado 685835" d="M4.734,5.625l1.664,8.7,4.68-8.7h2.531L11.641,17H9.719l.664-3.852,1.008-4.742L6.7,17H5.313L3.57,8.148l-.711,5.2L2.227,17H.3L2.281,5.625ZM18.813,17a2.507,2.507,0,0,1-.078-.789,3.134,3.134,0,0,1-2.258.945,2.589,2.589,0,0,1-1.824-.707,2.18,2.18,0,0,1-.676-1.754,2.588,2.588,0,0,1,1.156-2.1,5.034,5.034,0,0,1,2.938-.766l1.2.016.109-.578a1.744,1.744,0,0,0,0-.57,1.017,1.017,0,0,0-1.117-.867,1.685,1.685,0,0,0-1.043.3,1.3,1.3,0,0,0-.551.848l-1.852.016a2.318,2.318,0,0,1,.555-1.371A3.289,3.289,0,0,1,16.7,8.7a4.5,4.5,0,0,1,1.75-.312,2.956,2.956,0,0,1,2.156.832A2.466,2.466,0,0,1,21.25,11.3L20.6,15.258l-.062.7a2.5,2.5,0,0,0,.117.9L20.648,17Zm-1.906-1.359a2.041,2.041,0,0,0,1.086-.27,2.861,2.861,0,0,0,.852-.738l.289-1.6-.883-.008a3.1,3.1,0,0,0-1.672.395,1.447,1.447,0,0,0-.711,1.082.957.957,0,0,0,.23.824A1.127,1.127,0,0,0,16.906,15.641ZM24.234,17H22.383l1.469-8.453H25.7ZM24.117,6.383a1.044,1.044,0,0,1,.281-.734,1.03,1.03,0,0,1,.758-.32.985.985,0,0,1,.754.277.96.96,0,0,1,.3.715.988.988,0,0,1-.293.734,1.074,1.074,0,0,1-.746.3,1,1,0,0,1-.75-.27A.929.929,0,0,1,24.117,6.383Zm5.367,2.156-.187.992A3.226,3.226,0,0,1,31.8,8.391a2.044,2.044,0,0,1,1.758.848,3.383,3.383,0,0,1,.422,2.3L33.07,17H31.219l.922-5.484a2.806,2.806,0,0,0,.008-.625,1,1,0,0,0-1.109-.953,2.25,2.25,0,0,0-1.852,1.039L28.133,17H26.281l1.461-8.453ZM40.93,17H39.078l1.469-8.453H42.4ZM40.813,6.383a1.044,1.044,0,0,1,.281-.734,1.03,1.03,0,0,1,.758-.32.985.985,0,0,1,.754.277.96.96,0,0,1,.3.715.988.988,0,0,1-.293.734,1.074,1.074,0,0,1-.746.3,1,1,0,0,1-.75-.27A.929.929,0,0,1,40.813,6.383Zm2.594,6.383a6.7,6.7,0,0,1,.7-2.344,3.968,3.968,0,0,1,1.352-1.551,3.121,3.121,0,0,1,1.789-.488,2.5,2.5,0,0,1,2.016.961L50.078,5h1.859L49.852,17H48.2l.125-.875a2.946,2.946,0,0,1-2.312,1.039,2.325,2.325,0,0,1-1.887-.91,3.975,3.975,0,0,1-.762-2.379,6.316,6.316,0,0,1,.023-.945Zm1.8.727a2.6,2.6,0,0,0,.3,1.539,1.2,1.2,0,0,0,1.059.586,2.175,2.175,0,0,0,1.852-1.039l.633-3.633a1.445,1.445,0,0,0-1.422-1.008,1.9,1.9,0,0,0-1.711.938A5,5,0,0,0,45.2,13.492Zm10.461,3.664a3.541,3.541,0,0,1-1.91-.555,3.156,3.156,0,0,1-1.2-1.453,4.32,4.32,0,0,1-.293-2.055l.023-.32a5.657,5.657,0,0,1,.754-2.316A4.3,4.3,0,0,1,54.57,8.9a3.713,3.713,0,0,1,1.984-.508,2.769,2.769,0,0,1,2.379,1.182,4.337,4.337,0,0,1,.6,3l-.109.814H54.1A2.3,2.3,0,0,0,54.508,15a1.61,1.61,0,0,0,1.313.631,2.847,2.847,0,0,0,2.2-1.039l.938.984a3.563,3.563,0,0,1-1.4,1.176A4.166,4.166,0,0,1,55.664,17.156Zm.789-7.25q-1.469-.047-2.2,2.078l3.508.008.031-.164a2.451,2.451,0,0,0,.008-.7,1.438,1.438,0,0,0-.437-.875A1.385,1.385,0,0,0,56.453,9.906ZM65.266,17a2.507,2.507,0,0,1-.078-.789,3.134,3.134,0,0,1-2.258.945,2.589,2.589,0,0,1-1.824-.707A2.18,2.18,0,0,1,60.43,14.7a2.588,2.588,0,0,1,1.156-2.1,5.034,5.034,0,0,1,2.938-.766l1.2.016.109-.578a1.744,1.744,0,0,0,0-.57,1.017,1.017,0,0,0-1.117-.867,1.685,1.685,0,0,0-1.043.3,1.3,1.3,0,0,0-.551.848l-1.852.016a2.318,2.318,0,0,1,.555-1.371A3.289,3.289,0,0,1,63.156,8.7a4.5,4.5,0,0,1,1.75-.312,2.956,2.956,0,0,1,2.156.832A2.466,2.466,0,0,1,67.7,11.3l-.648,3.961-.062.7a2.5,2.5,0,0,0,.117.9L67.1,17Zm-1.906-1.359a2.041,2.041,0,0,0,1.086-.27,2.861,2.861,0,0,0,.852-.738l.289-1.6-.883-.008a3.1,3.1,0,0,0-1.672.395A1.447,1.447,0,0,0,62.32,14.5a.957.957,0,0,0,.23.824A1.127,1.127,0,0,0,63.359,15.641Zm5.57.445a1.052,1.052,0,0,1,.3-.777,1.1,1.1,0,0,1,.77-.316,1.021,1.021,0,0,1,.77.277.993.993,0,0,1,.309.754,1.03,1.03,0,0,1-.3.754,1.092,1.092,0,0,1-.773.316,1.028,1.028,0,0,1-.77-.273A.962.962,0,0,1,68.93,16.086ZM70.07,9.453a1.052,1.052,0,0,1,.3-.777,1.1,1.1,0,0,1,.77-.316,1.021,1.021,0,0,1,.77.277.993.993,0,0,1,.309.754,1.03,1.03,0,0,1-.3.754,1.092,1.092,0,0,1-.773.316,1.028,1.028,0,0,1-.77-.273A.962.962,0,0,1,70.07,9.453Z" transform="translate(563.971 4669.5)" fill="#12263f"/>
      <path id="Trazado_609591" data-name="Trazado 609591" d="M-1192.623-7001.7H-396.81" transform="translate(1756.594 11700)" fill="none" stroke="#3c3fa7" stroke-width="1"/>
      <path id="Trazado_609592" data-name="Trazado 609592" d="M-1192.623-7001.7H-396.81" transform="translate(1756.594 11717)" fill="none" stroke="#3c3fa7" stroke-width="1"/>
    </g>
    <g id="Grupo_986966" data-name="Grupo 986966" transform="translate(0 254)">
      <g id="Rectángulo_340736-2" data-name="Rectángulo 340736" transform="translate(548.377 4662.5)" fill="#fff" stroke="#282b97" stroke-width="1.5">
        <rect width="827" height="72.995" stroke="none"/>
        <rect x="0.75" y="0.75" width="825.5" height="71.495" fill="none"/>
      </g>
      <path id="Trazado_685836" data-name="Trazado 685836" d="M6.594,14.016q.172-1.125-1.227-1.672l-.633-.234a5.912,5.912,0,0,1-2.508-1.461,2.613,2.613,0,0,1-.672-1.961,2.949,2.949,0,0,1,.66-1.707A3.85,3.85,0,0,1,3.789,5.844a5.152,5.152,0,0,1,2.078-.375,4.157,4.157,0,0,1,1.891.465A3.059,3.059,0,0,1,9.023,7.16,3.4,3.4,0,0,1,9.43,8.953L7.508,8.945a1.8,1.8,0,0,0-.395-1.383,1.813,1.813,0,0,0-1.355-.516,2.524,2.524,0,0,0-1.543.43,1.719,1.719,0,0,0-.738,1.2Q3.32,9.672,4.8,10.242l.586.211a5.688,5.688,0,0,1,2.5,1.5A2.777,2.777,0,0,1,8.516,14a3.077,3.077,0,0,1-.633,1.676,3.554,3.554,0,0,1-1.535,1.105,5.583,5.583,0,0,1-2.16.375,4.494,4.494,0,0,1-2.027-.469A3.247,3.247,0,0,1,.32,13.555l1.93.008a1.811,1.811,0,0,0,.477,1.492,2.182,2.182,0,0,0,1.547.539,2.7,2.7,0,0,0,1.566-.4A1.673,1.673,0,0,0,6.594,14.016Zm8.2,2.148a3.066,3.066,0,0,1-2.406.992,2.355,2.355,0,0,1-1.363-.406,2.113,2.113,0,0,1-.773-1.09,3.99,3.99,0,0,1-.137-1.645l.914-5.469h1.852l-.922,5.492a2.911,2.911,0,0,0-.008.563.95.95,0,0,0,.977,1.008,2.236,2.236,0,0,0,1.984-.984l1.063-6.078h1.852L16.367,17H14.633ZM26.188,12.8a6.959,6.959,0,0,1-.676,2.3,3.92,3.92,0,0,1-1.32,1.559,3.052,3.052,0,0,1-1.793.5,2.652,2.652,0,0,1-2.078-.937l-.758,4.023H17.7l2.031-11.7,1.7-.008-.141.875a2.927,2.927,0,0,1,2.3-1.023,2.477,2.477,0,0,1,1.4.41,2.532,2.532,0,0,1,.91,1.168,4.734,4.734,0,0,1,.34,1.7A10.386,10.386,0,0,1,26.188,12.8Zm-1.828-.164.039-.57a2.769,2.769,0,0,0-.332-1.562A1.217,1.217,0,0,0,23,9.938a2.155,2.155,0,0,0-1.812.961l-.656,3.773a1.432,1.432,0,0,0,1.43.977,1.888,1.888,0,0,0,1.551-.719A4.5,4.5,0,0,0,24.359,12.641ZM35,12.8a6.959,6.959,0,0,1-.676,2.3A3.92,3.92,0,0,1,33,16.66a3.052,3.052,0,0,1-1.793.5,2.652,2.652,0,0,1-2.078-.937l-.758,4.023H26.516l2.031-11.7,1.7-.008-.141.875a2.927,2.927,0,0,1,2.3-1.023,2.477,2.477,0,0,1,1.4.41,2.532,2.532,0,0,1,.91,1.168,4.734,4.734,0,0,1,.34,1.7A10.386,10.386,0,0,1,35,12.8Zm-1.828-.164.039-.57a2.769,2.769,0,0,0-.332-1.562,1.217,1.217,0,0,0-1.066-.57A2.155,2.155,0,0,0,30,10.9l-.656,3.773a1.432,1.432,0,0,0,1.43.977,1.888,1.888,0,0,0,1.551-.719A4.5,4.5,0,0,0,33.172,12.641Zm3.172.1a5.562,5.562,0,0,1,.73-2.258,4.335,4.335,0,0,1,1.535-1.57,3.794,3.794,0,0,1,2.078-.523,3.139,3.139,0,0,1,3.027,2.117,4.887,4.887,0,0,1,.254,2.172,5.665,5.665,0,0,1-.73,2.375,4.318,4.318,0,0,1-1.547,1.582,3.848,3.848,0,0,1-2.09.52,3.136,3.136,0,0,1-3.016-2.105,4.824,4.824,0,0,1-.266-2.145Zm1.82,1.07a2.232,2.232,0,0,0,.434,1.316,1.387,1.387,0,0,0,1.1.52,1.948,1.948,0,0,0,1.6-.734,3.863,3.863,0,0,0,.809-2.07l.047-.766a2.7,2.7,0,0,0-.4-1.57,1.4,1.4,0,0,0-1.156-.6,2.024,2.024,0,0,0-1.875,1.164,4.349,4.349,0,0,0-.523,1.672A6.541,6.541,0,0,0,38.164,13.813Zm12.18-3.531a3.411,3.411,0,0,0-.727-.078,2.168,2.168,0,0,0-1.937,1.008L46.664,17H44.813l1.461-8.453,1.758-.008-.187.961a2.419,2.419,0,0,1,2-1.125,3.039,3.039,0,0,1,.711.117Zm4.539-3.789-.359,2.055h1.445l-.242,1.406H54.273l-.8,4.734a1.619,1.619,0,0,0-.008.352q.047.508.625.531a3.529,3.529,0,0,0,.656-.07l-.125,1.484a4.245,4.245,0,0,1-1.164.164,1.729,1.729,0,0,1-1.449-.66,2.389,2.389,0,0,1-.379-1.707l.789-4.828H51.07l.25-1.406h1.344l.359-2.055ZM57.945,17H56.094l1.469-8.453h1.852ZM57.828,6.383a1.044,1.044,0,0,1,.281-.734,1.03,1.03,0,0,1,.758-.32.985.985,0,0,1,.754.277.96.96,0,0,1,.3.715.988.988,0,0,1-.293.734,1.074,1.074,0,0,1-.746.3,1,1,0,0,1-.75-.27A.929.929,0,0,1,57.828,6.383ZM63.2,8.539l-.187.992a3.226,3.226,0,0,1,2.508-1.141,2.044,2.044,0,0,1,1.758.848,3.383,3.383,0,0,1,.422,2.3L66.781,17H64.93l.922-5.484a2.806,2.806,0,0,0,.008-.625,1,1,0,0,0-1.109-.953A2.25,2.25,0,0,0,62.9,10.977L61.844,17H59.992l1.461-8.453Zm5.953,4.227a6.538,6.538,0,0,1,.684-2.289A4.135,4.135,0,0,1,71.18,8.91a3.18,3.18,0,0,1,1.859-.527,2.494,2.494,0,0,1,2.1,1.023l.289-.867,1.688.008-1.4,8.219a3.99,3.99,0,0,1-4.219,3.57,3.945,3.945,0,0,1-1.687-.406A3.508,3.508,0,0,1,68.531,18.9l.984-1.117a2.372,2.372,0,0,0,1.938,1.055,2.271,2.271,0,0,0,1.559-.5,2.585,2.585,0,0,0,.871-1.5l.133-.594a2.991,2.991,0,0,1-2.219.914,2.367,2.367,0,0,1-1.9-.9,3.974,3.974,0,0,1-.785-2.375A7.807,7.807,0,0,1,69.148,12.766Zm1.836.164a5.714,5.714,0,0,0-.031.859,2.23,2.23,0,0,0,.375,1.313,1.258,1.258,0,0,0,1.023.508,2.186,2.186,0,0,0,1.844-.977l.664-3.734a1.508,1.508,0,0,0-1.445-.961,1.928,1.928,0,0,0-1.578.727,4.071,4.071,0,0,0-.836,2.1Zm10.969-.164a6.7,6.7,0,0,1,.7-2.344,3.968,3.968,0,0,1,1.352-1.551A3.121,3.121,0,0,1,85.8,8.383a2.5,2.5,0,0,1,2.016.961L88.625,5h1.859L88.4,17H86.742l.125-.875a2.946,2.946,0,0,1-2.312,1.039,2.325,2.325,0,0,1-1.887-.91,3.975,3.975,0,0,1-.762-2.379,6.316,6.316,0,0,1,.023-.945Zm1.8.727a2.6,2.6,0,0,0,.3,1.539,1.2,1.2,0,0,0,1.059.586,2.175,2.175,0,0,0,1.852-1.039l.633-3.633a1.445,1.445,0,0,0-1.422-1.008,1.9,1.9,0,0,0-1.711.938A5,5,0,0,0,83.75,13.492Zm10.461,3.664A3.541,3.541,0,0,1,92.3,16.6a3.156,3.156,0,0,1-1.2-1.453,4.32,4.32,0,0,1-.293-2.055l.023-.32a5.657,5.657,0,0,1,.754-2.316A4.3,4.3,0,0,1,93.117,8.9,3.713,3.713,0,0,1,95.1,8.391,2.769,2.769,0,0,1,97.48,9.572a4.337,4.337,0,0,1,.6,3l-.109.814h-5.32A2.3,2.3,0,0,0,93.055,15a1.61,1.61,0,0,0,1.313.631,2.847,2.847,0,0,0,2.2-1.039l.938.984a3.563,3.563,0,0,1-1.4,1.176A4.166,4.166,0,0,1,94.211,17.156ZM95,9.906q-1.469-.047-2.2,2.078l3.508.008.031-.164a2.451,2.451,0,0,0,.008-.7,1.437,1.437,0,0,0-.437-.875A1.385,1.385,0,0,0,95,9.906Zm7.938-3.414-.359,2.055h1.445l-.242,1.406h-1.453l-.8,4.734a1.619,1.619,0,0,0-.008.352q.047.508.625.531a3.529,3.529,0,0,0,.656-.07l-.125,1.484a4.245,4.245,0,0,1-1.164.164,1.729,1.729,0,0,1-1.449-.66,2.389,2.389,0,0,1-.379-1.707l.789-4.828H99.125l.25-1.406h1.344l.359-2.055ZM109.055,17a2.507,2.507,0,0,1-.078-.789,3.134,3.134,0,0,1-2.258.945,2.589,2.589,0,0,1-1.824-.707,2.18,2.18,0,0,1-.676-1.754,2.588,2.588,0,0,1,1.156-2.1,5.034,5.034,0,0,1,2.938-.766l1.2.016.109-.578a1.744,1.744,0,0,0,0-.57,1.017,1.017,0,0,0-1.117-.867,1.685,1.685,0,0,0-1.043.3,1.3,1.3,0,0,0-.551.848l-1.852.016a2.318,2.318,0,0,1,.555-1.371,3.289,3.289,0,0,1,1.328-.918,4.5,4.5,0,0,1,1.75-.312,2.956,2.956,0,0,1,2.156.832,2.466,2.466,0,0,1,.641,2.074l-.648,3.961-.062.7a2.5,2.5,0,0,0,.117.9l-.008.141Zm-1.906-1.359a2.041,2.041,0,0,0,1.086-.27,2.861,2.861,0,0,0,.852-.738l.289-1.6-.883-.008a3.1,3.1,0,0,0-1.672.395,1.447,1.447,0,0,0-.711,1.082.957.957,0,0,0,.23.824A1.127,1.127,0,0,0,107.148,15.641ZM114.477,17h-1.852l1.469-8.453h1.852Zm-.117-10.617a1.044,1.044,0,0,1,.281-.734,1.03,1.03,0,0,1,.758-.32.985.985,0,0,1,.754.277.96.96,0,0,1,.3.715.988.988,0,0,1-.293.734,1.074,1.074,0,0,1-.746.3,1,1,0,0,1-.75-.27A.929.929,0,0,1,114.359,6.383ZM118.516,17h-1.852L118.75,5H120.6Zm7.125-2.344q.133-.773-1-1.074a12.763,12.763,0,0,1-1.551-.48,2.138,2.138,0,0,1-1.555-2.094,2.378,2.378,0,0,1,1.035-1.887,3.794,3.794,0,0,1,2.387-.73,3.266,3.266,0,0,1,2.191.758,2.417,2.417,0,0,1,.832,1.945l-1.836-.008a1.185,1.185,0,0,0-.32-.918,1.307,1.307,0,0,0-.922-.348,1.817,1.817,0,0,0-1.059.3,1.135,1.135,0,0,0-.512.8q-.109.711,1,.988a10.976,10.976,0,0,1,1.641.512,2.14,2.14,0,0,1,1.492,2.125,2.336,2.336,0,0,1-.527,1.4,3.077,3.077,0,0,1-1.309.914,4.477,4.477,0,0,1-1.742.293,3.437,3.437,0,0,1-2.293-.8,2.512,2.512,0,0,1-.895-2.023l1.789.008a1.361,1.361,0,0,0,.406,1.031,1.57,1.57,0,0,0,1.07.359,2.126,2.126,0,0,0,1.145-.285A1.094,1.094,0,0,0,125.641,14.656Zm3.242,1.43a1.052,1.052,0,0,1,.3-.777,1.1,1.1,0,0,1,.77-.316,1.021,1.021,0,0,1,.77.277.993.993,0,0,1,.309.754,1.03,1.03,0,0,1-.3.754,1.092,1.092,0,0,1-.773.316,1.028,1.028,0,0,1-.77-.273A.962.962,0,0,1,128.883,16.086Zm1.141-6.633a1.052,1.052,0,0,1,.3-.777,1.1,1.1,0,0,1,.77-.316,1.021,1.021,0,0,1,.77.277.993.993,0,0,1,.309.754,1.03,1.03,0,0,1-.3.754,1.092,1.092,0,0,1-.773.316,1.028,1.028,0,0,1-.77-.273A.962.962,0,0,1,130.023,9.453Z" transform="translate(563.971 4669.5)" fill="#12263f"/>
      <path id="Trazado_685837" data-name="Trazado 685837" d="M5.243,13H3.589V5l-2.44.832V4.441L5.031,3.013h.212Zm4.6-1.75a.949.949,0,0,1,.718.263.914.914,0,0,1,.253.66.882.882,0,0,1-.253.646.963.963,0,0,1-.718.256.966.966,0,0,1-.7-.253.867.867,0,0,1-.26-.649.914.914,0,0,1,.253-.66A.94.94,0,0,1,9.844,11.25Z" transform="translate(563.971 4697.296)" fill="#12263f"/>
      <path id="Trazado_685838" data-name="Trazado 685838" d="M7.438,13H.745V11.858L4.061,8.242A8.256,8.256,0,0,0,5.083,6.906a2.165,2.165,0,0,0,.3-1.077,1.636,1.636,0,0,0-.4-1.148A1.387,1.387,0,0,0,3.91,4.243a1.6,1.6,0,0,0-1.251.492,1.936,1.936,0,0,0-.444,1.347H.554A3.256,3.256,0,0,1,.967,4.445,2.848,2.848,0,0,1,2.15,3.313a3.764,3.764,0,0,1,1.774-.4,3.367,3.367,0,0,1,2.287.728,2.527,2.527,0,0,1,.837,2.013,3.416,3.416,0,0,1-.42,1.562A8.882,8.882,0,0,1,5.25,9.069l-2.434,2.6H7.438Zm2.406-1.75a.949.949,0,0,1,.718.263.914.914,0,0,1,.253.66.882.882,0,0,1-.253.646.963.963,0,0,1-.718.256.966.966,0,0,1-.7-.253.867.867,0,0,1-.26-.649.914.914,0,0,1,.253-.66A.94.94,0,0,1,9.844,11.25Z" transform="translate(563.971 4715.495)" fill="#12263f"/>
      <path id="Trazado_609591-2" data-name="Trazado 609591" d="M-1192.623-7001.7H-396.81" transform="translate(1756.594 11700)" fill="none" stroke="#3c3fa7" stroke-width="1"/>
      <path id="Trazado_609592-2" data-name="Trazado 609592" d="M-1192.623-7001.7H-396.81" transform="translate(1756.594 11718)" fill="none" stroke="#3c3fa7" stroke-width="1"/>
    </g>
  </g>
</svg>
