<svg xmlns="http://www.w3.org/2000/svg" width="438" height="394" viewBox="0 0 438 394">
  <g id="Grupo_986970" data-name="Grupo 986970" transform="translate(-947 -5464)">
    <g id="Grupo_986972" data-name="Grupo 986972" transform="translate(947 5464)">
      <path id="Trazado_609599" data-name="Trazado 609599" d="M-1466.5-5884.345v65.078" transform="translate(1687.901 5967.412)" fill="none" stroke="#707070" stroke-width="1"/>
      <path id="Trazado_609602" data-name="Trazado 609602" d="M0,0V65.078" transform="translate(228.528 250.957) rotate(-3)" fill="none" stroke="#707070" stroke-width="1"/>
      <path id="Trazado_609600" data-name="Trazado 609600" d="M0,0V65.078" transform="matrix(0.588, 0.809, -0.809, 0.588, 324.046, 129.018)" fill="none" stroke="#707070" stroke-width="1"/>
      <path id="Trazado_609603" data-name="Trazado 609603" d="M0,65.079V0" transform="matrix(-0.588, 0.809, -0.809, -0.588, 175.189, 168.532)" fill="none" stroke="#707070" stroke-width="1"/>
      <path id="Trazado_609601" data-name="Trazado 609601" d="M0,0V65.078" transform="matrix(0.588, 0.809, -0.809, 0.588, 168.881, 233.419)" fill="none" stroke="#707070" stroke-width="1"/>
      <path id="Trazado_609604" data-name="Trazado 609604" d="M0,65.078V0" transform="matrix(-0.588, 0.809, -0.809, -0.588, 327.73, 266.818)" fill="none" stroke="#707070" stroke-width="1"/>
      <ellipse id="Elipse_4976" data-name="Elipse 4976" cx="66" cy="42" rx="66" ry="42" transform="translate(168 310)" fill="#fff"/>
      <ellipse id="Elipse_4977" data-name="Elipse 4977" cx="66" cy="42.5" rx="66" ry="42.5" transform="translate(306 252)" fill="#fff"/>
      <ellipse id="Elipse_4979" data-name="Elipse 4979" cx="66" cy="42.5" rx="66" ry="42.5" transform="translate(17 62)" fill="#fff"/>
      <ellipse id="Elipse_4975" data-name="Elipse 4975" cx="66" cy="42" rx="66" ry="42" transform="translate(155)" fill="#fff"/>
      <ellipse id="Elipse_4974" data-name="Elipse 4974" cx="76.5" cy="52.5" rx="76.5" ry="52.5" transform="translate(145 147)" fill="#fff"/>
      <ellipse id="Elipse_4978" data-name="Elipse 4978" cx="66.5" cy="42.5" rx="66.5" ry="42.5" transform="translate(300 62)" fill="#fff"/>
      <ellipse id="Elipse_4980" data-name="Elipse 4980" cx="66" cy="42.5" rx="66" ry="42.5" transform="translate(0 241)" fill="#fff"/>
    </g>
    <path id="Trazado_685841" data-name="Trazado 685841" d="M.3,17,2.273,5.625l3.078.008A4.213,4.213,0,0,1,7.8,6.34,3.975,3.975,0,0,1,9.289,8.293a5.822,5.822,0,0,1,.281,2.746l-.086.617a6.82,6.82,0,0,1-1.035,2.785,5.569,5.569,0,0,1-2.066,1.887A5.839,5.839,0,0,1,3.6,17ZM3.93,7.219l-1.422,8.2,1.141.008a3.554,3.554,0,0,0,2.566-.98,4.709,4.709,0,0,0,1.309-2.707,9.127,9.127,0,0,0,.148-2.07A2.787,2.787,0,0,0,7.012,7.9a2.209,2.209,0,0,0-1.637-.672Zm10.242,9.938a3.541,3.541,0,0,1-1.91-.555,3.156,3.156,0,0,1-1.2-1.453,4.32,4.32,0,0,1-.293-2.055l.023-.32a5.657,5.657,0,0,1,.754-2.316A4.3,4.3,0,0,1,13.078,8.9a3.713,3.713,0,0,1,1.984-.508,2.769,2.769,0,0,1,2.379,1.182,4.337,4.337,0,0,1,.6,3l-.109.814h-5.32A2.3,2.3,0,0,0,13.016,15a1.61,1.61,0,0,0,1.313.631,2.847,2.847,0,0,0,2.2-1.039l.938.984a3.563,3.563,0,0,1-1.4,1.176A4.166,4.166,0,0,1,14.172,17.156Zm.789-7.25q-1.469-.047-2.2,2.078l3.508.008.031-.164a2.451,2.451,0,0,0,.008-.7,1.438,1.438,0,0,0-.437-.875A1.385,1.385,0,0,0,14.961,9.906ZM22.9,6.492l-.359,2.055h1.445l-.242,1.406H22.289l-.8,4.734a1.619,1.619,0,0,0-.008.352q.047.508.625.531a3.529,3.529,0,0,0,.656-.07l-.125,1.484a4.245,4.245,0,0,1-1.164.164,1.729,1.729,0,0,1-1.449-.66,2.389,2.389,0,0,1-.379-1.707l.789-4.828H19.086l.25-1.406H20.68l.359-2.055ZM29.016,17a2.507,2.507,0,0,1-.078-.789,3.134,3.134,0,0,1-2.258.945,2.589,2.589,0,0,1-1.824-.707A2.18,2.18,0,0,1,24.18,14.7a2.588,2.588,0,0,1,1.156-2.1,5.034,5.034,0,0,1,2.938-.766l1.2.016.109-.578a1.744,1.744,0,0,0,0-.57,1.017,1.017,0,0,0-1.117-.867,1.685,1.685,0,0,0-1.043.3,1.3,1.3,0,0,0-.551.848l-1.852.016a2.318,2.318,0,0,1,.555-1.371A3.289,3.289,0,0,1,26.906,8.7a4.5,4.5,0,0,1,1.75-.312,2.956,2.956,0,0,1,2.156.832,2.466,2.466,0,0,1,.641,2.074L30.8,15.258l-.062.7a2.5,2.5,0,0,0,.117.9L30.852,17Zm-1.906-1.359a2.041,2.041,0,0,0,1.086-.27,2.861,2.861,0,0,0,.852-.738l.289-1.6-.883-.008a3.1,3.1,0,0,0-1.672.395A1.447,1.447,0,0,0,26.07,14.5a.957.957,0,0,0,.23.824A1.127,1.127,0,0,0,27.109,15.641ZM34.438,17H32.586l1.469-8.453h1.852ZM34.32,6.383a1.044,1.044,0,0,1,.281-.734,1.03,1.03,0,0,1,.758-.32.985.985,0,0,1,.754.277.96.96,0,0,1,.3.715.988.988,0,0,1-.293.734,1.074,1.074,0,0,1-.746.3,1,1,0,0,1-.75-.27A.929.929,0,0,1,34.32,6.383ZM38.477,17H36.625L38.711,5h1.852Zm2.281-.914a1.052,1.052,0,0,1,.3-.777,1.1,1.1,0,0,1,.77-.316,1.021,1.021,0,0,1,.77.277.993.993,0,0,1,.309.754,1.03,1.03,0,0,1-.3.754,1.092,1.092,0,0,1-.773.316,1.028,1.028,0,0,1-.77-.273A.962.962,0,0,1,40.758,16.086ZM41.9,9.453a1.052,1.052,0,0,1,.3-.777,1.1,1.1,0,0,1,.77-.316,1.021,1.021,0,0,1,.77.277.993.993,0,0,1,.309.754,1.03,1.03,0,0,1-.3.754,1.092,1.092,0,0,1-.773.316,1.028,1.028,0,0,1-.77-.273A.962.962,0,0,1,41.9,9.453Z" transform="translate(984.726 5543.254)" fill="#12263f"/>
    <path id="Trazado_685843" data-name="Trazado 685843" d="M.3,17,2.273,5.625l3.078.008A4.213,4.213,0,0,1,7.8,6.34,3.975,3.975,0,0,1,9.289,8.293a5.822,5.822,0,0,1,.281,2.746l-.086.617a6.82,6.82,0,0,1-1.035,2.785,5.569,5.569,0,0,1-2.066,1.887A5.839,5.839,0,0,1,3.6,17ZM3.93,7.219l-1.422,8.2,1.141.008a3.554,3.554,0,0,0,2.566-.98,4.709,4.709,0,0,0,1.309-2.707,9.127,9.127,0,0,0,.148-2.07A2.787,2.787,0,0,0,7.012,7.9a2.209,2.209,0,0,0-1.637-.672Zm10.242,9.938a3.541,3.541,0,0,1-1.91-.555,3.156,3.156,0,0,1-1.2-1.453,4.32,4.32,0,0,1-.293-2.055l.023-.32a5.657,5.657,0,0,1,.754-2.316A4.3,4.3,0,0,1,13.078,8.9a3.713,3.713,0,0,1,1.984-.508,2.769,2.769,0,0,1,2.379,1.182,4.337,4.337,0,0,1,.6,3l-.109.814h-5.32A2.3,2.3,0,0,0,13.016,15a1.61,1.61,0,0,0,1.313.631,2.847,2.847,0,0,0,2.2-1.039l.938.984a3.563,3.563,0,0,1-1.4,1.176A4.166,4.166,0,0,1,14.172,17.156Zm.789-7.25q-1.469-.047-2.2,2.078l3.508.008.031-.164a2.451,2.451,0,0,0,.008-.7,1.438,1.438,0,0,0-.437-.875A1.385,1.385,0,0,0,14.961,9.906ZM22.9,6.492l-.359,2.055h1.445l-.242,1.406H22.289l-.8,4.734a1.619,1.619,0,0,0-.008.352q.047.508.625.531a3.529,3.529,0,0,0,.656-.07l-.125,1.484a4.245,4.245,0,0,1-1.164.164,1.729,1.729,0,0,1-1.449-.66,2.389,2.389,0,0,1-.379-1.707l.789-4.828H19.086l.25-1.406H20.68l.359-2.055ZM29.016,17a2.507,2.507,0,0,1-.078-.789,3.134,3.134,0,0,1-2.258.945,2.589,2.589,0,0,1-1.824-.707A2.18,2.18,0,0,1,24.18,14.7a2.588,2.588,0,0,1,1.156-2.1,5.034,5.034,0,0,1,2.938-.766l1.2.016.109-.578a1.744,1.744,0,0,0,0-.57,1.017,1.017,0,0,0-1.117-.867,1.685,1.685,0,0,0-1.043.3,1.3,1.3,0,0,0-.551.848l-1.852.016a2.318,2.318,0,0,1,.555-1.371A3.289,3.289,0,0,1,26.906,8.7a4.5,4.5,0,0,1,1.75-.312,2.956,2.956,0,0,1,2.156.832,2.466,2.466,0,0,1,.641,2.074L30.8,15.258l-.062.7a2.5,2.5,0,0,0,.117.9L30.852,17Zm-1.906-1.359a2.041,2.041,0,0,0,1.086-.27,2.861,2.861,0,0,0,.852-.738l.289-1.6-.883-.008a3.1,3.1,0,0,0-1.672.395A1.447,1.447,0,0,0,26.07,14.5a.957.957,0,0,0,.23.824A1.127,1.127,0,0,0,27.109,15.641ZM34.438,17H32.586l1.469-8.453h1.852ZM34.32,6.383a1.044,1.044,0,0,1,.281-.734,1.03,1.03,0,0,1,.758-.32.985.985,0,0,1,.754.277.96.96,0,0,1,.3.715.988.988,0,0,1-.293.734,1.074,1.074,0,0,1-.746.3,1,1,0,0,1-.75-.27A.929.929,0,0,1,34.32,6.383ZM38.477,17H36.625L38.711,5h1.852Zm2.281-.914a1.052,1.052,0,0,1,.3-.777,1.1,1.1,0,0,1,.77-.316,1.021,1.021,0,0,1,.77.277.993.993,0,0,1,.309.754,1.03,1.03,0,0,1-.3.754,1.092,1.092,0,0,1-.773.316,1.028,1.028,0,0,1-.77-.273A.962.962,0,0,1,40.758,16.086ZM41.9,9.453a1.052,1.052,0,0,1,.3-.777,1.1,1.1,0,0,1,.77-.316,1.021,1.021,0,0,1,.77.277.993.993,0,0,1,.309.754,1.03,1.03,0,0,1-.3.754,1.092,1.092,0,0,1-.773.316,1.028,1.028,0,0,1-.77-.273A.962.962,0,0,1,41.9,9.453Z" transform="translate(971.137 5716.363)" fill="#12263f"/>
    <path id="Trazado_685846" data-name="Trazado 685846" d="M.3,17,2.273,5.625l3.078.008A4.213,4.213,0,0,1,7.8,6.34,3.975,3.975,0,0,1,9.289,8.293a5.822,5.822,0,0,1,.281,2.746l-.086.617a6.82,6.82,0,0,1-1.035,2.785,5.569,5.569,0,0,1-2.066,1.887A5.839,5.839,0,0,1,3.6,17ZM3.93,7.219l-1.422,8.2,1.141.008a3.554,3.554,0,0,0,2.566-.98,4.709,4.709,0,0,0,1.309-2.707,9.127,9.127,0,0,0,.148-2.07A2.787,2.787,0,0,0,7.012,7.9a2.209,2.209,0,0,0-1.637-.672Zm10.242,9.938a3.541,3.541,0,0,1-1.91-.555,3.156,3.156,0,0,1-1.2-1.453,4.32,4.32,0,0,1-.293-2.055l.023-.32a5.657,5.657,0,0,1,.754-2.316A4.3,4.3,0,0,1,13.078,8.9a3.713,3.713,0,0,1,1.984-.508,2.769,2.769,0,0,1,2.379,1.182,4.337,4.337,0,0,1,.6,3l-.109.814h-5.32A2.3,2.3,0,0,0,13.016,15a1.61,1.61,0,0,0,1.313.631,2.847,2.847,0,0,0,2.2-1.039l.938.984a3.563,3.563,0,0,1-1.4,1.176A4.166,4.166,0,0,1,14.172,17.156Zm.789-7.25q-1.469-.047-2.2,2.078l3.508.008.031-.164a2.451,2.451,0,0,0,.008-.7,1.438,1.438,0,0,0-.437-.875A1.385,1.385,0,0,0,14.961,9.906ZM22.9,6.492l-.359,2.055h1.445l-.242,1.406H22.289l-.8,4.734a1.619,1.619,0,0,0-.008.352q.047.508.625.531a3.529,3.529,0,0,0,.656-.07l-.125,1.484a4.245,4.245,0,0,1-1.164.164,1.729,1.729,0,0,1-1.449-.66,2.389,2.389,0,0,1-.379-1.707l.789-4.828H19.086l.25-1.406H20.68l.359-2.055ZM29.016,17a2.507,2.507,0,0,1-.078-.789,3.134,3.134,0,0,1-2.258.945,2.589,2.589,0,0,1-1.824-.707A2.18,2.18,0,0,1,24.18,14.7a2.588,2.588,0,0,1,1.156-2.1,5.034,5.034,0,0,1,2.938-.766l1.2.016.109-.578a1.744,1.744,0,0,0,0-.57,1.017,1.017,0,0,0-1.117-.867,1.685,1.685,0,0,0-1.043.3,1.3,1.3,0,0,0-.551.848l-1.852.016a2.318,2.318,0,0,1,.555-1.371A3.289,3.289,0,0,1,26.906,8.7a4.5,4.5,0,0,1,1.75-.312,2.956,2.956,0,0,1,2.156.832,2.466,2.466,0,0,1,.641,2.074L30.8,15.258l-.062.7a2.5,2.5,0,0,0,.117.9L30.852,17Zm-1.906-1.359a2.041,2.041,0,0,0,1.086-.27,2.861,2.861,0,0,0,.852-.738l.289-1.6-.883-.008a3.1,3.1,0,0,0-1.672.395A1.447,1.447,0,0,0,26.07,14.5a.957.957,0,0,0,.23.824A1.127,1.127,0,0,0,27.109,15.641ZM34.438,17H32.586l1.469-8.453h1.852ZM34.32,6.383a1.044,1.044,0,0,1,.281-.734,1.03,1.03,0,0,1,.758-.32.985.985,0,0,1,.754.277.96.96,0,0,1,.3.715.988.988,0,0,1-.293.734,1.074,1.074,0,0,1-.746.3,1,1,0,0,1-.75-.27A.929.929,0,0,1,34.32,6.383ZM38.477,17H36.625L38.711,5h1.852Zm2.281-.914a1.052,1.052,0,0,1,.3-.777,1.1,1.1,0,0,1,.77-.316,1.021,1.021,0,0,1,.77.277.993.993,0,0,1,.309.754,1.03,1.03,0,0,1-.3.754,1.092,1.092,0,0,1-.773.316,1.028,1.028,0,0,1-.77-.273A.962.962,0,0,1,40.758,16.086ZM41.9,9.453a1.052,1.052,0,0,1,.3-.777,1.1,1.1,0,0,1,.77-.316,1.021,1.021,0,0,1,.77.277.993.993,0,0,1,.309.754,1.03,1.03,0,0,1-.3.754,1.092,1.092,0,0,1-.773.316,1.028,1.028,0,0,1-.77-.273A.962.962,0,0,1,41.9,9.453Z" transform="translate(1269.121 5543.254)" fill="#12263f"/>
    <path id="Trazado_685845" data-name="Trazado 685845" d="M.3,17,2.273,5.625l3.078.008A4.213,4.213,0,0,1,7.8,6.34,3.975,3.975,0,0,1,9.289,8.293a5.822,5.822,0,0,1,.281,2.746l-.086.617a6.82,6.82,0,0,1-1.035,2.785,5.569,5.569,0,0,1-2.066,1.887A5.839,5.839,0,0,1,3.6,17ZM3.93,7.219l-1.422,8.2,1.141.008a3.554,3.554,0,0,0,2.566-.98,4.709,4.709,0,0,0,1.309-2.707,9.127,9.127,0,0,0,.148-2.07A2.787,2.787,0,0,0,7.012,7.9a2.209,2.209,0,0,0-1.637-.672Zm10.242,9.938a3.541,3.541,0,0,1-1.91-.555,3.156,3.156,0,0,1-1.2-1.453,4.32,4.32,0,0,1-.293-2.055l.023-.32a5.657,5.657,0,0,1,.754-2.316A4.3,4.3,0,0,1,13.078,8.9a3.713,3.713,0,0,1,1.984-.508,2.769,2.769,0,0,1,2.379,1.182,4.337,4.337,0,0,1,.6,3l-.109.814h-5.32A2.3,2.3,0,0,0,13.016,15a1.61,1.61,0,0,0,1.313.631,2.847,2.847,0,0,0,2.2-1.039l.938.984a3.563,3.563,0,0,1-1.4,1.176A4.166,4.166,0,0,1,14.172,17.156Zm.789-7.25q-1.469-.047-2.2,2.078l3.508.008.031-.164a2.451,2.451,0,0,0,.008-.7,1.438,1.438,0,0,0-.437-.875A1.385,1.385,0,0,0,14.961,9.906ZM22.9,6.492l-.359,2.055h1.445l-.242,1.406H22.289l-.8,4.734a1.619,1.619,0,0,0-.008.352q.047.508.625.531a3.529,3.529,0,0,0,.656-.07l-.125,1.484a4.245,4.245,0,0,1-1.164.164,1.729,1.729,0,0,1-1.449-.66,2.389,2.389,0,0,1-.379-1.707l.789-4.828H19.086l.25-1.406H20.68l.359-2.055ZM29.016,17a2.507,2.507,0,0,1-.078-.789,3.134,3.134,0,0,1-2.258.945,2.589,2.589,0,0,1-1.824-.707A2.18,2.18,0,0,1,24.18,14.7a2.588,2.588,0,0,1,1.156-2.1,5.034,5.034,0,0,1,2.938-.766l1.2.016.109-.578a1.744,1.744,0,0,0,0-.57,1.017,1.017,0,0,0-1.117-.867,1.685,1.685,0,0,0-1.043.3,1.3,1.3,0,0,0-.551.848l-1.852.016a2.318,2.318,0,0,1,.555-1.371A3.289,3.289,0,0,1,26.906,8.7a4.5,4.5,0,0,1,1.75-.312,2.956,2.956,0,0,1,2.156.832,2.466,2.466,0,0,1,.641,2.074L30.8,15.258l-.062.7a2.5,2.5,0,0,0,.117.9L30.852,17Zm-1.906-1.359a2.041,2.041,0,0,0,1.086-.27,2.861,2.861,0,0,0,.852-.738l.289-1.6-.883-.008a3.1,3.1,0,0,0-1.672.395A1.447,1.447,0,0,0,26.07,14.5a.957.957,0,0,0,.23.824A1.127,1.127,0,0,0,27.109,15.641ZM34.438,17H32.586l1.469-8.453h1.852ZM34.32,6.383a1.044,1.044,0,0,1,.281-.734,1.03,1.03,0,0,1,.758-.32.985.985,0,0,1,.754.277.96.96,0,0,1,.3.715.988.988,0,0,1-.293.734,1.074,1.074,0,0,1-.746.3,1,1,0,0,1-.75-.27A.929.929,0,0,1,34.32,6.383ZM38.477,17H36.625L38.711,5h1.852Zm2.281-.914a1.052,1.052,0,0,1,.3-.777,1.1,1.1,0,0,1,.77-.316,1.021,1.021,0,0,1,.77.277.993.993,0,0,1,.309.754,1.03,1.03,0,0,1-.3.754,1.092,1.092,0,0,1-.773.316,1.028,1.028,0,0,1-.77-.273A.962.962,0,0,1,40.758,16.086ZM41.9,9.453a1.052,1.052,0,0,1,.3-.777,1.1,1.1,0,0,1,.77-.316,1.021,1.021,0,0,1,.77.277.993.993,0,0,1,.309.754,1.03,1.03,0,0,1-.3.754,1.092,1.092,0,0,1-.773.316,1.028,1.028,0,0,1-.77-.273A.962.962,0,0,1,41.9,9.453Z" transform="translate(1284.651 5726.555)" fill="#12263f"/>
    <path id="Trazado_685840" data-name="Trazado 685840" d="M.3,17,2.273,5.625l3.078.008A4.213,4.213,0,0,1,7.8,6.34,3.975,3.975,0,0,1,9.289,8.293a5.822,5.822,0,0,1,.281,2.746l-.086.617a6.82,6.82,0,0,1-1.035,2.785,5.569,5.569,0,0,1-2.066,1.887A5.839,5.839,0,0,1,3.6,17ZM3.93,7.219l-1.422,8.2,1.141.008a3.554,3.554,0,0,0,2.566-.98,4.709,4.709,0,0,0,1.309-2.707,9.127,9.127,0,0,0,.148-2.07A2.787,2.787,0,0,0,7.012,7.9a2.209,2.209,0,0,0-1.637-.672Zm10.242,9.938a3.541,3.541,0,0,1-1.91-.555,3.156,3.156,0,0,1-1.2-1.453,4.32,4.32,0,0,1-.293-2.055l.023-.32a5.657,5.657,0,0,1,.754-2.316A4.3,4.3,0,0,1,13.078,8.9a3.713,3.713,0,0,1,1.984-.508,2.769,2.769,0,0,1,2.379,1.182,4.337,4.337,0,0,1,.6,3l-.109.814h-5.32A2.3,2.3,0,0,0,13.016,15a1.61,1.61,0,0,0,1.313.631,2.847,2.847,0,0,0,2.2-1.039l.938.984a3.563,3.563,0,0,1-1.4,1.176A4.166,4.166,0,0,1,14.172,17.156Zm.789-7.25q-1.469-.047-2.2,2.078l3.508.008.031-.164a2.451,2.451,0,0,0,.008-.7,1.438,1.438,0,0,0-.437-.875A1.385,1.385,0,0,0,14.961,9.906ZM22.9,6.492l-.359,2.055h1.445l-.242,1.406H22.289l-.8,4.734a1.619,1.619,0,0,0-.008.352q.047.508.625.531a3.529,3.529,0,0,0,.656-.07l-.125,1.484a4.245,4.245,0,0,1-1.164.164,1.729,1.729,0,0,1-1.449-.66,2.389,2.389,0,0,1-.379-1.707l.789-4.828H19.086l.25-1.406H20.68l.359-2.055ZM29.016,17a2.507,2.507,0,0,1-.078-.789,3.134,3.134,0,0,1-2.258.945,2.589,2.589,0,0,1-1.824-.707A2.18,2.18,0,0,1,24.18,14.7a2.588,2.588,0,0,1,1.156-2.1,5.034,5.034,0,0,1,2.938-.766l1.2.016.109-.578a1.744,1.744,0,0,0,0-.57,1.017,1.017,0,0,0-1.117-.867,1.685,1.685,0,0,0-1.043.3,1.3,1.3,0,0,0-.551.848l-1.852.016a2.318,2.318,0,0,1,.555-1.371A3.289,3.289,0,0,1,26.906,8.7a4.5,4.5,0,0,1,1.75-.312,2.956,2.956,0,0,1,2.156.832,2.466,2.466,0,0,1,.641,2.074L30.8,15.258l-.062.7a2.5,2.5,0,0,0,.117.9L30.852,17Zm-1.906-1.359a2.041,2.041,0,0,0,1.086-.27,2.861,2.861,0,0,0,.852-.738l.289-1.6-.883-.008a3.1,3.1,0,0,0-1.672.395A1.447,1.447,0,0,0,26.07,14.5a.957.957,0,0,0,.23.824A1.127,1.127,0,0,0,27.109,15.641ZM34.438,17H32.586l1.469-8.453h1.852ZM34.32,6.383a1.044,1.044,0,0,1,.281-.734,1.03,1.03,0,0,1,.758-.32.985.985,0,0,1,.754.277.96.96,0,0,1,.3.715.988.988,0,0,1-.293.734,1.074,1.074,0,0,1-.746.3,1,1,0,0,1-.75-.27A.929.929,0,0,1,34.32,6.383ZM38.477,17H36.625L38.711,5h1.852Zm2.281-.914a1.052,1.052,0,0,1,.3-.777,1.1,1.1,0,0,1,.77-.316,1.021,1.021,0,0,1,.77.277.993.993,0,0,1,.309.754,1.03,1.03,0,0,1-.3.754,1.092,1.092,0,0,1-.773.316,1.028,1.028,0,0,1-.77-.273A.962.962,0,0,1,40.758,16.086ZM41.9,9.453a1.052,1.052,0,0,1,.3-.777,1.1,1.1,0,0,1,.77-.316,1.021,1.021,0,0,1,.77.277.993.993,0,0,1,.309.754,1.03,1.03,0,0,1-.3.754,1.092,1.092,0,0,1-.773.316,1.028,1.028,0,0,1-.77-.273A.962.962,0,0,1,41.9,9.453Z" transform="translate(1125.468 5478.074)" fill="#12263f"/>
    <path id="Trazado_685844" data-name="Trazado 685844" d="M.3,17,2.273,5.625l3.078.008A4.213,4.213,0,0,1,7.8,6.34,3.975,3.975,0,0,1,9.289,8.293a5.822,5.822,0,0,1,.281,2.746l-.086.617a6.82,6.82,0,0,1-1.035,2.785,5.569,5.569,0,0,1-2.066,1.887A5.839,5.839,0,0,1,3.6,17ZM3.93,7.219l-1.422,8.2,1.141.008a3.554,3.554,0,0,0,2.566-.98,4.709,4.709,0,0,0,1.309-2.707,9.127,9.127,0,0,0,.148-2.07A2.787,2.787,0,0,0,7.012,7.9a2.209,2.209,0,0,0-1.637-.672Zm10.242,9.938a3.541,3.541,0,0,1-1.91-.555,3.156,3.156,0,0,1-1.2-1.453,4.32,4.32,0,0,1-.293-2.055l.023-.32a5.657,5.657,0,0,1,.754-2.316A4.3,4.3,0,0,1,13.078,8.9a3.713,3.713,0,0,1,1.984-.508,2.769,2.769,0,0,1,2.379,1.182,4.337,4.337,0,0,1,.6,3l-.109.814h-5.32A2.3,2.3,0,0,0,13.016,15a1.61,1.61,0,0,0,1.313.631,2.847,2.847,0,0,0,2.2-1.039l.938.984a3.563,3.563,0,0,1-1.4,1.176A4.166,4.166,0,0,1,14.172,17.156Zm.789-7.25q-1.469-.047-2.2,2.078l3.508.008.031-.164a2.451,2.451,0,0,0,.008-.7,1.438,1.438,0,0,0-.437-.875A1.385,1.385,0,0,0,14.961,9.906ZM22.9,6.492l-.359,2.055h1.445l-.242,1.406H22.289l-.8,4.734a1.619,1.619,0,0,0-.008.352q.047.508.625.531a3.529,3.529,0,0,0,.656-.07l-.125,1.484a4.245,4.245,0,0,1-1.164.164,1.729,1.729,0,0,1-1.449-.66,2.389,2.389,0,0,1-.379-1.707l.789-4.828H19.086l.25-1.406H20.68l.359-2.055ZM29.016,17a2.507,2.507,0,0,1-.078-.789,3.134,3.134,0,0,1-2.258.945,2.589,2.589,0,0,1-1.824-.707A2.18,2.18,0,0,1,24.18,14.7a2.588,2.588,0,0,1,1.156-2.1,5.034,5.034,0,0,1,2.938-.766l1.2.016.109-.578a1.744,1.744,0,0,0,0-.57,1.017,1.017,0,0,0-1.117-.867,1.685,1.685,0,0,0-1.043.3,1.3,1.3,0,0,0-.551.848l-1.852.016a2.318,2.318,0,0,1,.555-1.371A3.289,3.289,0,0,1,26.906,8.7a4.5,4.5,0,0,1,1.75-.312,2.956,2.956,0,0,1,2.156.832,2.466,2.466,0,0,1,.641,2.074L30.8,15.258l-.062.7a2.5,2.5,0,0,0,.117.9L30.852,17Zm-1.906-1.359a2.041,2.041,0,0,0,1.086-.27,2.861,2.861,0,0,0,.852-.738l.289-1.6-.883-.008a3.1,3.1,0,0,0-1.672.395A1.447,1.447,0,0,0,26.07,14.5a.957.957,0,0,0,.23.824A1.127,1.127,0,0,0,27.109,15.641ZM34.438,17H32.586l1.469-8.453h1.852ZM34.32,6.383a1.044,1.044,0,0,1,.281-.734,1.03,1.03,0,0,1,.758-.32.985.985,0,0,1,.754.277.96.96,0,0,1,.3.715.988.988,0,0,1-.293.734,1.074,1.074,0,0,1-.746.3,1,1,0,0,1-.75-.27A.929.929,0,0,1,34.32,6.383ZM38.477,17H36.625L38.711,5h1.852Zm2.281-.914a1.052,1.052,0,0,1,.3-.777,1.1,1.1,0,0,1,.77-.316,1.021,1.021,0,0,1,.77.277.993.993,0,0,1,.309.754,1.03,1.03,0,0,1-.3.754,1.092,1.092,0,0,1-.773.316,1.028,1.028,0,0,1-.77-.273A.962.962,0,0,1,40.758,16.086ZM41.9,9.453a1.052,1.052,0,0,1,.3-.777,1.1,1.1,0,0,1,.77-.316,1.021,1.021,0,0,1,.77.277.993.993,0,0,1,.309.754,1.03,1.03,0,0,1-.3.754,1.092,1.092,0,0,1-.773.316,1.028,1.028,0,0,1-.77-.273A.962.962,0,0,1,41.9,9.453Z" transform="translate(1133.847 5786.248)" fill="#12263f"/>
    <path id="Trazado_685842" data-name="Trazado 685842" d="M4.734,5.625l1.664,8.7,4.68-8.7h2.531L11.641,17H9.719l.664-3.852,1.008-4.742L6.7,17H5.313L3.57,8.148l-.711,5.2L2.227,17H.3L2.281,5.625ZM18.813,17a2.507,2.507,0,0,1-.078-.789,3.134,3.134,0,0,1-2.258.945,2.589,2.589,0,0,1-1.824-.707,2.18,2.18,0,0,1-.676-1.754,2.588,2.588,0,0,1,1.156-2.1,5.034,5.034,0,0,1,2.938-.766l1.2.016.109-.578a1.744,1.744,0,0,0,0-.57,1.017,1.017,0,0,0-1.117-.867,1.685,1.685,0,0,0-1.043.3,1.3,1.3,0,0,0-.551.848l-1.852.016a2.318,2.318,0,0,1,.555-1.371A3.289,3.289,0,0,1,16.7,8.7a4.5,4.5,0,0,1,1.75-.312,2.956,2.956,0,0,1,2.156.832A2.466,2.466,0,0,1,21.25,11.3L20.6,15.258l-.062.7a2.5,2.5,0,0,0,.117.9L20.648,17Zm-1.906-1.359a2.041,2.041,0,0,0,1.086-.27,2.861,2.861,0,0,0,.852-.738l.289-1.6-.883-.008a3.1,3.1,0,0,0-1.672.395,1.447,1.447,0,0,0-.711,1.082.957.957,0,0,0,.23.824A1.127,1.127,0,0,0,16.906,15.641ZM24.234,17H22.383l1.469-8.453H25.7ZM24.117,6.383a1.044,1.044,0,0,1,.281-.734,1.03,1.03,0,0,1,.758-.32.985.985,0,0,1,.754.277.96.96,0,0,1,.3.715.988.988,0,0,1-.293.734,1.074,1.074,0,0,1-.746.3,1,1,0,0,1-.75-.27A.929.929,0,0,1,24.117,6.383Zm5.367,2.156-.187.992A3.226,3.226,0,0,1,31.8,8.391a2.044,2.044,0,0,1,1.758.848,3.383,3.383,0,0,1,.422,2.3L33.07,17H31.219l.922-5.484a2.806,2.806,0,0,0,.008-.625,1,1,0,0,0-1.109-.953,2.25,2.25,0,0,0-1.852,1.039L28.133,17H26.281l1.461-8.453ZM40.93,17H39.078l1.469-8.453H42.4ZM40.813,6.383a1.044,1.044,0,0,1,.281-.734,1.03,1.03,0,0,1,.758-.32.985.985,0,0,1,.754.277.96.96,0,0,1,.3.715.988.988,0,0,1-.293.734,1.074,1.074,0,0,1-.746.3,1,1,0,0,1-.75-.27A.929.929,0,0,1,40.813,6.383Zm2.594,6.383a6.7,6.7,0,0,1,.7-2.344,3.968,3.968,0,0,1,1.352-1.551,3.121,3.121,0,0,1,1.789-.488,2.5,2.5,0,0,1,2.016.961L50.078,5h1.859L49.852,17H48.2l.125-.875a2.946,2.946,0,0,1-2.312,1.039,2.325,2.325,0,0,1-1.887-.91,3.975,3.975,0,0,1-.762-2.379,6.316,6.316,0,0,1,.023-.945Zm1.8.727a2.6,2.6,0,0,0,.3,1.539,1.2,1.2,0,0,0,1.059.586,2.175,2.175,0,0,0,1.852-1.039l.633-3.633a1.445,1.445,0,0,0-1.422-1.008,1.9,1.9,0,0,0-1.711.938A5,5,0,0,0,45.2,13.492Zm10.461,3.664a3.541,3.541,0,0,1-1.91-.555,3.156,3.156,0,0,1-1.2-1.453,4.32,4.32,0,0,1-.293-2.055l.023-.32a5.657,5.657,0,0,1,.754-2.316A4.3,4.3,0,0,1,54.57,8.9a3.713,3.713,0,0,1,1.984-.508,2.769,2.769,0,0,1,2.379,1.182,4.337,4.337,0,0,1,.6,3l-.109.814H54.1A2.3,2.3,0,0,0,54.508,15a1.61,1.61,0,0,0,1.313.631,2.847,2.847,0,0,0,2.2-1.039l.938.984a3.563,3.563,0,0,1-1.4,1.176A4.166,4.166,0,0,1,55.664,17.156Zm.789-7.25q-1.469-.047-2.2,2.078l3.508.008.031-.164a2.451,2.451,0,0,0,.008-.7,1.438,1.438,0,0,0-.437-.875A1.385,1.385,0,0,0,56.453,9.906ZM65.266,17a2.507,2.507,0,0,1-.078-.789,3.134,3.134,0,0,1-2.258.945,2.589,2.589,0,0,1-1.824-.707A2.18,2.18,0,0,1,60.43,14.7a2.588,2.588,0,0,1,1.156-2.1,5.034,5.034,0,0,1,2.938-.766l1.2.016.109-.578a1.744,1.744,0,0,0,0-.57,1.017,1.017,0,0,0-1.117-.867,1.685,1.685,0,0,0-1.043.3,1.3,1.3,0,0,0-.551.848l-1.852.016a2.318,2.318,0,0,1,.555-1.371A3.289,3.289,0,0,1,63.156,8.7a4.5,4.5,0,0,1,1.75-.312,2.956,2.956,0,0,1,2.156.832A2.466,2.466,0,0,1,67.7,11.3l-.648,3.961-.062.7a2.5,2.5,0,0,0,.117.9L67.1,17Zm-1.906-1.359a2.041,2.041,0,0,0,1.086-.27,2.861,2.861,0,0,0,.852-.738l.289-1.6-.883-.008a3.1,3.1,0,0,0-1.672.395A1.447,1.447,0,0,0,62.32,14.5a.957.957,0,0,0,.23.824A1.127,1.127,0,0,0,63.359,15.641Zm5.57.445a1.052,1.052,0,0,1,.3-.777,1.1,1.1,0,0,1,.77-.316,1.021,1.021,0,0,1,.77.277.993.993,0,0,1,.309.754,1.03,1.03,0,0,1-.3.754,1.092,1.092,0,0,1-.773.316,1.028,1.028,0,0,1-.77-.273A.962.962,0,0,1,68.93,16.086ZM70.07,9.453a1.052,1.052,0,0,1,.3-.777,1.1,1.1,0,0,1,.77-.316,1.021,1.021,0,0,1,.77.277.993.993,0,0,1,.309.754,1.03,1.03,0,0,1-.3.754,1.092,1.092,0,0,1-.773.316,1.028,1.028,0,0,1-.77-.273A.962.962,0,0,1,70.07,9.453Z" transform="translate(1110.552 5630.036)" fill="#12263f"/>
  </g>
</svg>
