<svg xmlns="http://www.w3.org/2000/svg" width="190" height="100" viewBox="0 0 190 100">
  <g id="Grupo_988580" data-name="Grupo 988580" transform="translate(-180 -2038)">
    <g id="Grupo_986894" data-name="Grupo 986894" transform="translate(-0.5 -996.089)">
      <rect id="Rectángulo_45412" data-name="Rectángulo 45412" width="190" height="100" rx="10" transform="translate(180.5 3034.089)" fill="#2a2d91"/>
    </g>
    <g id="idea" transform="translate(227.493 2048)">
      <g id="Grupo_986895" data-name="Grupo 986895" transform="translate(9.684 1.178)">
        <path id="Trazado_609477" data-name="Trazado 609477" d="M21.71,378H32.329a5.709,5.709,0,0,1,5.692,5.692v12.539a1.981,1.981,0,0,1-1.6,1.6H17.613a1.976,1.976,0,0,1-1.6-1.6V383.7A5.706,5.706,0,0,1,21.71,378Z" transform="translate(-16.018 -319.931)" fill="#dfdfdf" fill-rule="evenodd"/>
        <path id="Trazado_609478" data-name="Trazado 609478" d="M95.814,378h3.8a5.709,5.709,0,0,1,5.692,5.692v12.539a1.981,1.981,0,0,1-1.6,1.6h-3.8a1.987,1.987,0,0,0,1.6-1.6V383.7A5.709,5.709,0,0,0,95.814,378Z" transform="translate(-83.306 -319.931)" fill="#b3b3b3" fill-rule="evenodd"/>
        <path id="Trazado_609479" data-name="Trazado 609479" d="M191.506,378H202.13a5.7,5.7,0,0,1,5.687,5.692v12.539a1.975,1.975,0,0,1-1.6,1.6H187.409a1.987,1.987,0,0,1-1.6-1.6V383.7A5.709,5.709,0,0,1,191.506,378Z" transform="translate(-159.199 -319.931)" fill="#ebd2ff" fill-rule="evenodd"/>
        <path id="Trazado_609480" data-name="Trazado 609480" d="M265.609,378h3.8A5.706,5.706,0,0,1,275.1,383.7v12.539a1.976,1.976,0,0,1-1.6,1.6h-3.8a1.976,1.976,0,0,0,1.6-1.6V383.7A5.706,5.706,0,0,0,265.609,378Z" transform="translate(-226.486 -319.931)" fill="#d7bef0" fill-rule="evenodd"/>
        <path id="Trazado_609481" data-name="Trazado 609481" d="M361.33,378h10.619a5.709,5.709,0,0,1,5.692,5.692v12.539a1.981,1.981,0,0,1-1.6,1.6H357.233a1.976,1.976,0,0,1-1.6-1.6V383.7A5.706,5.706,0,0,1,361.33,378Z" transform="translate(-302.404 -319.931)" fill="#ccf49f" fill-rule="evenodd"/>
        <path id="Trazado_609482" data-name="Trazado 609482" d="M435.434,378h3.8a5.709,5.709,0,0,1,5.692,5.692v12.539a1.982,1.982,0,0,1-1.6,1.6h-3.808a1.986,1.986,0,0,0,1.6-1.6V383.7A5.709,5.709,0,0,0,435.434,378Z" transform="translate(-369.692 -319.931)" fill="#b3e59f" fill-rule="evenodd"/>
        <path id="Trazado_609483" data-name="Trazado 609483" d="M35.524,38.617H49.431l3.3,5.718a1,1,0,0,0,1.808,0l3.3-5.718H71.749l6.256,6.03a.842.842,0,0,0,1.511-.542l.72-6.163A15.551,15.551,0,0,0,75.7,7.514H31.569a15.551,15.551,0,0,0-4.532,30.427l.715,6.163a.848.848,0,0,0,1.511.542Z" transform="translate(-16.018 -7.514)" fill="#ecf4ff" fill-rule="evenodd"/>
        <path id="Trazado_609484" data-name="Trazado 609484" d="M218.807,57.44H215.43c0-3.621-3.537-5.039-3.537-9.366a6.914,6.914,0,1,1,13.827,0c0,4.328-3.537,5.745-3.537,9.366Z" transform="translate(-181.19 -35.886)" fill="#ffe07d" fill-rule="evenodd"/>
        <path id="Trazado_609485" data-name="Trazado 609485" d="M241.211,145.022v2.439a2.059,2.059,0,0,1-2.053,2.053h-2.644a2.06,2.06,0,0,1-2.057-2.053v-2.439Z" transform="translate(-200.217 -123.468)" fill="#477b9e" fill-rule="evenodd"/>
        <path id="Trazado_609486" data-name="Trazado 609486" d="M399.47,292.429a6.014,6.014,0,0,1-12.028,0v-6.447a3.376,3.376,0,0,1,3.368-3.363h5.3a3.375,3.375,0,0,1,3.363,3.363v6.447Z" transform="translate(-329.222 -239.496)" fill="#ffcbbe" fill-rule="evenodd"/>
        <path id="Trazado_609487" data-name="Trazado 609487" d="M59.778,292.1a6.034,6.034,0,1,1-12.068,0V285.63a3.39,3.39,0,0,1,3.377-3.381H58.88a.812.812,0,0,1,.9.9q0,4.472,0,8.944Z" transform="translate(-42.742 -239.185)" fill="#c68b87" fill-rule="evenodd"/>
        <path id="Trazado_609488" data-name="Trazado 609488" d="M387.442,285.982v3.955l4.114-2.013a2.068,2.068,0,0,1,1.653-.107l6.26,2.12v-3.955a3.375,3.375,0,0,0-3.363-3.363h-5.3A3.376,3.376,0,0,0,387.442,285.982Z" transform="translate(-329.222 -239.497)" fill="#ffe5a0" fill-rule="evenodd"/>
        <path id="Trazado_609489" data-name="Trazado 609489" d="M47.71,285.631v1.946H59.778v-4.425a.812.812,0,0,0-.9-.9H51.087A3.39,3.39,0,0,0,47.71,285.631Z" transform="translate(-42.742 -239.186)" fill="#477b9e" fill-rule="evenodd"/>
        <path id="Trazado_609490" data-name="Trazado 609490" d="M229.574,292.1a6.034,6.034,0,1,1-12.068,0V285.63a3.39,3.39,0,0,1,3.377-3.381H226.2a3.391,3.391,0,0,1,3.377,3.381Z" transform="translate(-185.923 -239.185)" fill="#ffcbbe" fill-rule="evenodd"/>
        <path id="Trazado_609491" data-name="Trazado 609491" d="M217.506,285.631v2.346a4.563,4.563,0,0,0,3.941-.364c.635-.36.738-.431,1.368.12,2.9,2.537,6.758,1.129,6.758,1.129v-3.23a3.39,3.39,0,0,0-3.377-3.381h-5.314A3.39,3.39,0,0,0,217.506,285.631Z" transform="translate(-185.923 -239.186)" fill="#c68b87" fill-rule="evenodd"/>
        <path id="Trazado_609492" data-name="Trazado 609492" d="M78.205,316.237v4.519a6.055,6.055,0,0,1-4.132,5.723,5.966,5.966,0,0,0,1.9.311,6.051,6.051,0,0,0,6.034-6.034v-4.519Z" transform="translate(-64.973 -267.846)" fill="#bd7d79" fill-rule="evenodd"/>
        <path id="Trazado_609493" data-name="Trazado 609493" d="M98.489,282.25H94.681a.813.813,0,0,1,.9.9v4.425h3.8v-4.425A.812.812,0,0,0,98.489,282.25Z" transform="translate(-82.351 -239.186)" fill="#365e7d" fill-rule="evenodd"/>
        <path id="Trazado_609494" data-name="Trazado 609494" d="M248,327.664a6.038,6.038,0,0,1-2.924,5.163,5.864,5.864,0,0,1-1.209.56,6.035,6.035,0,0,0,7.936-5.723v-3.235a8.108,8.108,0,0,1-3.8.28Z" transform="translate(-208.152 -274.754)" fill="#f7beaf" fill-rule="evenodd"/>
        <path id="Trazado_609495" data-name="Trazado 609495" d="M248.686,282.25a3.391,3.391,0,0,1,3.377,3.381v3.51a8.108,8.108,0,0,0,3.8-.28v-3.23a3.39,3.39,0,0,0-3.377-3.381h-3.8Z" transform="translate(-212.216 -239.186)" fill="#bd7d79" fill-rule="evenodd"/>
        <path id="Trazado_609496" data-name="Trazado 609496" d="M417.8,324.865a6.025,6.025,0,0,1-2.906,5.141,5.932,5.932,0,0,1-1.2.56,5.972,5.972,0,0,0,5.008-.56,6.025,6.025,0,0,0,2.906-5.141v-2.493l-3.8-1.289Z" transform="translate(-351.357 -271.933)" fill="#f7beaf" fill-rule="evenodd"/>
        <path id="Trazado_609497" data-name="Trazado 609497" d="M422.256,282.618h-3.8a3.375,3.375,0,0,1,3.364,3.363v2.666l3.8,1.289v-3.955A3.375,3.375,0,0,0,422.256,282.618Z" transform="translate(-355.372 -239.496)" fill="#f2ce7e" fill-rule="evenodd"/>
        <path id="Trazado_609498" data-name="Trazado 609498" d="M87.124,50.039H42.994a15.439,15.439,0,0,1-8.917-2.83,15.667,15.667,0,0,0,8.189,5.958l.715,6.163a.848.848,0,0,0,1.511.542l6.261-6.03H64.659l3.3,5.718a1,1,0,0,0,1.808,0l3.3-5.718H86.977l6.256,6.03a.842.842,0,0,0,1.511-.542l.72-6.163a15.536,15.536,0,0,0,4.386-27.6,15.44,15.44,0,0,1,2.83,8.918A15.6,15.6,0,0,1,87.124,50.039Z" transform="translate(-31.245 -22.74)" fill="#ddeafb" fill-rule="evenodd"/>
        <path id="Trazado_609499" data-name="Trazado 609499" d="M248.879,48.074c0,4.328-3.541,5.745-3.537,9.366h3.8c0-3.621,3.537-5.039,3.537-9.366a6.913,6.913,0,0,0-6.914-6.914,7.072,7.072,0,0,0-1.9.262A6.916,6.916,0,0,1,248.879,48.074Z" transform="translate(-208.152 -35.886)" fill="#ffc250" fill-rule="evenodd"/>
      </g>
      <path id="Trazado_609500" data-name="Trazado 609500" d="M47.3,23.909H45.1v1.262a.87.87,0,0,0,.258.618.884.884,0,0,0,.622.262h2.644a.9.9,0,0,0,.88-.88V23.909ZM78.777,52.431l-5.883-2-3.835,1.88v1.773a4.859,4.859,0,0,0,9.718,0V52.431Zm-9.718-2.724,3.172-1.551a1.156,1.156,0,0,1,.964-.093l5.581,1.888V47.623a2.215,2.215,0,0,0-2.2-2.2H71.263a2.215,2.215,0,0,0-2.2,2.2v2.084ZM15.825,48.392h9.717V45.419H18.029a2.215,2.215,0,0,0-2.2,2.2Zm9.718,2.355H15.825v3.341a4.859,4.859,0,0,0,9.718,0Zm26.619,1.568A7.9,7.9,0,0,1,45.8,50.609a5.928,5.928,0,0,1-3.359.809v2.67a4.859,4.859,0,0,0,9.717,0V52.315Zm-9.717-3.252a3.529,3.529,0,0,0,2.733-.858,1.17,1.17,0,0,1,1.653.116,5.524,5.524,0,0,0,5.332,1.631V47.623a2.215,2.215,0,0,0-2.2-2.2H44.644a2.215,2.215,0,0,0-2.2,2.2ZM27.893,54.088a7.166,7.166,0,0,1-1.231,4.021,6.876,6.876,0,0,1,6.2,6.834V79.081a1.172,1.172,0,0,1-1.173,1.173h-22a1.176,1.176,0,0,1-1.177-1.173V74.674a1.175,1.175,0,0,1,2.35,0V77.9h2.262V67.138a1.177,1.177,0,0,1,2.355,0V77.9H25.9V67.138a1.175,1.175,0,1,1,2.35,0V77.9H30.51V64.943A4.521,4.521,0,0,0,26,60.428H24.112a7.206,7.206,0,0,1-6.851,0H15.376a4.528,4.528,0,0,0-4.519,4.514v4.408a1.175,1.175,0,0,1-2.35,0V64.943a6.885,6.885,0,0,1,6.2-6.834,7.168,7.168,0,0,1-1.235-4.021V47.623a4.566,4.566,0,0,1,4.554-4.554H26.72a1.172,1.172,0,0,1,1.173,1.173v9.846Zm53.234,0A7.165,7.165,0,0,1,79.9,58.109a6.876,6.876,0,0,1,6.2,6.834V79.081a1.172,1.172,0,0,1-1.173,1.173h-22a1.176,1.176,0,0,1-1.177-1.173V74.674a1.175,1.175,0,0,1,2.35,0V77.9h2.262V67.138a1.177,1.177,0,0,1,2.355,0V77.9H79.132V67.138a1.175,1.175,0,1,1,2.35,0V77.9h2.262V64.943a4.521,4.521,0,0,0-4.514-4.514H77.346a7.206,7.206,0,0,1-6.851,0H68.61a4.528,4.528,0,0,0-4.519,4.514v4.408a1.175,1.175,0,0,1-2.35,0V64.943a6.884,6.884,0,0,1,6.2-6.834,7.169,7.169,0,0,1-1.235-4.021V47.623a4.566,4.566,0,0,1,4.554-4.554h5.314a4.559,4.559,0,0,1,4.55,4.554v6.465Zm-26.615,0a7.2,7.2,0,0,1-1.231,4.021,6.885,6.885,0,0,1,6.2,6.834V79.081A1.173,1.173,0,0,1,58.3,80.254h-22a1.172,1.172,0,0,1-1.173-1.173V74.674a1.175,1.175,0,0,1,2.35,0V77.9h2.262V67.138a1.175,1.175,0,1,1,2.351,0V77.9H52.517V67.138a1.175,1.175,0,1,1,2.35,0V77.9h2.262V64.943a4.528,4.528,0,0,0-4.514-4.514H50.727a7.2,7.2,0,0,1-6.847,0H41.991a4.528,4.528,0,0,0-4.514,4.514v4.408a1.175,1.175,0,0,1-2.35,0V64.943a6.876,6.876,0,0,1,6.2-6.834,7.165,7.165,0,0,1-1.231-4.021V47.623a4.559,4.559,0,0,1,4.55-4.554h5.314a4.566,4.566,0,0,1,4.554,4.554ZM29.221,31.107H43.1a1.176,1.176,0,0,1,1.057.662L47.3,37.221q1.593-2.766,3.19-5.523a1.171,1.171,0,0,1,1.013-.591H65.416a1.178,1.178,0,0,1,.875.391l5.79,5.576.653-5.6a1.178,1.178,0,0,1,.884-1.009,14.493,14.493,0,0,0,7.309-5.208A14.384,14.384,0,0,0,69.366,2.351H25.236A14.362,14.362,0,0,0,13.675,25.256a14.506,14.506,0,0,0,7.371,5.23,1.17,1.17,0,0,1,.831,1.048l.644,5.541,5.856-5.639a1.223,1.223,0,0,1,.844-.329Zm13.2,2.351H29.657l-7.171,6.909a1.176,1.176,0,0,1-2.022-.671l-.84-7.216a16.89,16.89,0,0,1-7.833-5.83A16.733,16.733,0,0,1,25.236,0h44.13A16.7,16.7,0,0,1,82.811,26.651a16.878,16.878,0,0,1-7.829,5.83l-.84,7.2a1.2,1.2,0,0,1-.324.7,1.172,1.172,0,0,1-1.657.031l-7.216-6.949H52.18q-1.933,3.346-3.861,6.692a1.2,1.2,0,0,1-.431.427,1.169,1.169,0,0,1-1.6-.431Q44.355,36.8,42.422,33.458Zm.333-10.815A6.7,6.7,0,0,0,41.3,19.137a9.71,9.71,0,0,1-2.088-5.772,8.091,8.091,0,0,1,16.182,0,9.738,9.738,0,0,1-2.084,5.772,6.692,6.692,0,0,0-1.457,3.506l0,2.528a3.246,3.246,0,0,1-3.23,3.23H45.981a3.239,3.239,0,0,1-3.23-3.23Zm2.239-1.089h4.617a9.7,9.7,0,0,1,1.742-3.706,7.8,7.8,0,0,0,1.688-4.483,5.738,5.738,0,1,0-11.477,0,7.771,7.771,0,0,0,1.688,4.483A9.829,9.829,0,0,1,44.995,21.554Z" transform="translate(0 0)"/>
    </g>
  </g>
</svg>
