<svg xmlns="http://www.w3.org/2000/svg" xmlns:xlink="http://www.w3.org/1999/xlink" width="128.744" height="195.019" viewBox="0 0 128.744 195.019">
  <defs>
    <clipPath id="clip-path">
      <rect id="Rectángulo_339013" data-name="Rectángulo 339013" width="54.895" height="51.864" fill="none"/>
    </clipPath>
  </defs>
  <g id="Grupo_988570" data-name="Grupo 988570" transform="translate(-959.951 -123.686)">
    <g id="Grupo_987645" data-name="Grupo 987645" transform="translate(21.408 -38.006)">
      <g id="Grupo_983766" data-name="Grupo 983766" transform="translate(938.543 252.08)">
        <g id="Grupo_983765" data-name="Grupo 983765" clip-path="url(#clip-path)">
          <path id="Trazado_211212" data-name="Trazado 211212" d="M56.922,51.272a72.808,72.808,0,0,1-2.251,8.688A12.3,12.3,0,0,1,52.4,64.149c-.264.257-.533.507-.806.753a5.212,5.212,0,0,1-1.085.656c-1.9.844-4.558.569-5.51-1.484a1.1,1.1,0,0,0-1.888,0c-3,4.91-8.392,7.723-13.931,8.733-.075.014-.15.025-.226.038l-.08,0a1.02,1.02,0,0,0-.53.1c-6.23.932-12.6-.357-18.637-1.959a123.815,123.815,0,0,0,12.446-37.4,40.173,40.173,0,0,0,11.892-.518q-.377,1.889-.755,3.779a1.107,1.107,0,0,0,1.054,1.384l5.911-.269,2.892-.132c.932-.042,1.9-.026,2.464-.908a7.482,7.482,0,0,0,.642-2.444l.4-1.951c.04,0,.077.009.12.007a92.96,92.96,0,0,1,12.864.42,159.031,159.031,0,0,1-2.715,18.314" transform="translate(-7.025 -23.506)" fill="#fff"/>
          <path id="Trazado_211213" data-name="Trazado 211213" d="M112,17.437a4.415,4.415,0,0,0-.135.64,13.538,13.538,0,0,1-1.892.064l-2.515.114-3.688.168,2.04-10.215,7.95.708-.9,4.361q-.278,1.346-.556,2.692-.152.734-.3,1.468" transform="translate(-75.112 -5.941)" fill="#fff"/>
          <path id="Trazado_211214" data-name="Trazado 211214" d="M117.322,155.821a5.852,5.852,0,0,0,3.293,1.567,31.311,31.311,0,0,1-9.707,4.015c.629-.357,1.249-.746,1.857-1.173a19.816,19.816,0,0,0,4.557-4.409" transform="translate(-80.278 -112.786)" fill="#fff"/>
          <path id="Trazado_211215" data-name="Trazado 211215" d="M49.9,27.766a72.755,72.755,0,0,1-2.251,8.688,12.3,12.3,0,0,1-2.274,4.189c-.264.257-.533.507-.806.754a5.228,5.228,0,0,1-1.084.656c-1.9.844-4.558.569-5.511-1.484a1.1,1.1,0,0,0-1.888,0c-3,4.91-8.392,7.723-13.93,8.733l-.226.038-.08,0a1.02,1.02,0,0,0-.531.1c-6.23.932-12.6-.357-18.637-1.959a123.816,123.816,0,0,0,12.446-37.4,40.191,40.191,0,0,0,11.892-.518l-.755,3.778a1.107,1.107,0,0,0,1.054,1.384l5.911-.269,2.892-.132c.932-.042,1.9-.026,2.464-.908a7.479,7.479,0,0,0,.642-2.444l.4-1.951a1.193,1.193,0,0,0,.12.007,92.915,92.915,0,0,1,12.864.42A159.034,159.034,0,0,1,49.9,27.766M53.8,7.39A92.979,92.979,0,0,0,40.08,6.836l.939-4.547c0-.017,0-.031,0-.048A.99.99,0,0,0,41.058,2,1.116,1.116,0,0,0,39.965.905L29.821,0a1.094,1.094,0,0,0-1.054.8L27.482,7.243a38.542,38.542,0,0,1-13.259.548,1.087,1.087,0,0,0-1.054.8A122.1,122.1,0,0,1,.138,47.63a1.107,1.107,0,0,0,.653,1.606c6.736,1.842,14.185,3.316,21.153,2.292A33.328,33.328,0,0,0,46.969,42.14a1.11,1.11,0,0,0,.216-.3,10.607,10.607,0,0,0,.957-1.3c1.65-2.629,2.355-5.809,3.082-8.787.873-3.571,1.578-7.183,2.151-10.814.652-4.135,1.14-8.293,1.517-12.462.057-.635-.551-1.031-1.093-1.093M36.89,11.5a4.449,4.449,0,0,0-.135.64,13.54,13.54,0,0,1-1.893.064l-2.515.114-3.688.168L30.7,2.266l7.95.708-.9,4.361-.556,2.692-.3,1.468m.154,31.539A5.852,5.852,0,0,0,40.338,44.6a31.31,31.31,0,0,1-9.707,4.015c.629-.357,1.249-.746,1.857-1.173a19.816,19.816,0,0,0,4.557-4.409" transform="translate(0 0)" fill="#161615"/>
          <path id="Trazado_211216" data-name="Trazado 211216" d="M87.971,80.751,64.94,79.8c-1.407-.058-1.4,2.128,0,2.186l23.03.952c1.407.058,1.4-2.128,0-2.186" transform="translate(-46.242 -57.759)" fill="#161615"/>
          <path id="Trazado_211217" data-name="Trazado 211217" d="M82.335,110.492A141.391,141.391,0,0,0,59.9,110.5c-1.393.111-1.4,2.3,0,2.186a141.423,141.423,0,0,1,22.434-.011c1.4.111,1.4-2.076,0-2.186" transform="translate(-42.598 -79.658)" fill="#161615"/>
          <path id="Trazado_211218" data-name="Trazado 211218" d="M62,138.97a29.024,29.024,0,0,1-9.067-.406,1.12,1.12,0,0,0-1.345.763,1.1,1.1,0,0,0,.763,1.345,30.913,30.913,0,0,0,9.648.484,1.126,1.126,0,0,0,1.093-1.093A1.1,1.1,0,0,0,62,138.97" transform="translate(-37.316 -100.276)" fill="#161615"/>
        </g>
      </g>
      <g id="Grupo_983767" data-name="Grupo 983767" transform="matrix(0.899, -0.438, 0.438, 0.899, 971.157, 310.096)">
        <g id="Grupo_983765-2" data-name="Grupo 983765" transform="translate(0 0)" clip-path="url(#clip-path)">
          <path id="Trazado_211212-2" data-name="Trazado 211212" d="M2.715,18.8a72.808,72.808,0,0,0,2.251,8.688A12.3,12.3,0,0,0,7.24,31.674c.264.257.533.507.806.753a5.213,5.213,0,0,0,1.085.656c1.9.844,4.558.569,5.51-1.484a1.1,1.1,0,0,1,1.888,0c3,4.91,8.392,7.723,13.931,8.733.075.014.15.025.226.038l.08,0a1.02,1.02,0,0,1,.53.1c6.23.932,12.6-.357,18.637-1.959a123.814,123.814,0,0,1-12.446-37.4A40.173,40.173,0,0,1,25.594.6q.377,1.889.755,3.779A1.107,1.107,0,0,1,25.295,5.76l-5.911-.269L16.492,5.36c-.932-.042-1.9-.026-2.464-.908a7.482,7.482,0,0,1-.642-2.444l-.4-1.951c-.04,0-.077.009-.12.007A92.962,92.962,0,0,0,0,.483,159.029,159.029,0,0,0,2.715,18.8" transform="translate(2.283 8.969)" fill="#fff"/>
          <path id="Trazado_211213-2" data-name="Trazado 211213" d="M1.759,9.229a4.415,4.415,0,0,1,.135.64,13.538,13.538,0,0,0,1.892.064l2.515.114,3.688.168Q8.97,5.108,7.95,0L0,.708.9,5.069q.278,1.346.556,2.692.152.734.3,1.468" transform="translate(16.246 2.267)" fill="#fff"/>
          <path id="Trazado_211214-2" data-name="Trazado 211214" d="M3.293,0A5.852,5.852,0,0,1,0,1.567,31.311,31.311,0,0,0,9.707,5.581c-.629-.357-1.249-.746-1.857-1.173A19.816,19.816,0,0,1,3.293,0" transform="translate(14.557 43.035)" fill="#fff"/>
          <path id="Trazado_211215-2" data-name="Trazado 211215" d="M5,27.766a72.756,72.756,0,0,0,2.251,8.688,12.3,12.3,0,0,0,2.274,4.189c.264.257.533.507.806.754a5.228,5.228,0,0,0,1.084.656c1.9.844,4.558.569,5.511-1.484a1.1,1.1,0,0,1,1.888,0c3,4.91,8.392,7.723,13.93,8.733l.226.038.08,0a1.02,1.02,0,0,1,.531.1c6.23.932,12.6-.357,18.637-1.959a123.815,123.815,0,0,1-12.446-37.4,40.192,40.192,0,0,1-11.892-.518l.755,3.778a1.107,1.107,0,0,1-1.054,1.384l-5.911-.269-2.892-.132c-.932-.042-1.9-.026-2.464-.908a7.479,7.479,0,0,1-.642-2.444l-.4-1.951a1.193,1.193,0,0,1-.12.007,92.917,92.917,0,0,0-12.864.42A159.032,159.032,0,0,0,5,27.766M1.1,7.391a92.981,92.981,0,0,1,13.718-.555l-.939-4.547c0-.017,0-.031,0-.048A.99.99,0,0,1,13.837,2,1.116,1.116,0,0,1,14.93.906L25.073,0a1.094,1.094,0,0,1,1.054.8l1.285,6.439a38.543,38.543,0,0,0,13.259.548,1.087,1.087,0,0,1,1.054.8A122.1,122.1,0,0,0,54.757,47.63a1.107,1.107,0,0,1-.653,1.606c-6.736,1.842-14.185,3.316-21.153,2.292A33.329,33.329,0,0,1,7.926,42.141a1.11,1.11,0,0,1-.216-.3,10.608,10.608,0,0,1-.957-1.3C5.1,37.918,4.4,34.737,3.671,31.76,2.8,28.188,2.093,24.577,1.52,20.946.868,16.811.381,12.652,0,8.484-.054,7.849.555,7.453,1.1,7.391M18,11.5a4.449,4.449,0,0,1,.135.64,13.54,13.54,0,0,0,1.893.064l2.515.114,3.688.168L24.2,2.267l-7.95.708.9,4.361.556,2.692L18,11.5M17.85,43.035A5.852,5.852,0,0,1,14.557,44.6a31.311,31.311,0,0,0,9.707,4.015c-.629-.357-1.249-.746-1.857-1.173a19.816,19.816,0,0,1-4.557-4.409" transform="translate(0 0)" fill="#161615"/>
          <path id="Trazado_211216-2" data-name="Trazado 211216" d="M1.054.953,24.084,0c1.407-.058,1.4,2.128,0,2.186l-23.03.952c-1.407.058-1.4-2.128,0-2.186" transform="translate(12.112 22.039)" fill="#161615"/>
          <path id="Trazado_211217-2" data-name="Trazado 211217" d="M1.049.44A141.393,141.393,0,0,1,23.484.451c1.393.111,1.4,2.3,0,2.186A141.426,141.426,0,0,0,1.049,2.626c-1.4.111-1.4-2.076,0-2.186" transform="translate(14.109 30.394)" fill="#161615"/>
          <path id="Trazado_211218-2" data-name="Trazado 211218" d="M1.093.432A29.024,29.024,0,0,0,10.16.027,1.12,1.12,0,0,1,11.5.79a1.1,1.1,0,0,1-.763,1.345,30.913,30.913,0,0,1-9.648.484A1.126,1.126,0,0,1,0,1.525,1.1,1.1,0,0,1,1.093.432" transform="translate(29.116 38.261)" fill="#161615"/>
        </g>
      </g>
    </g>
    <g id="Grupo_987646" data-name="Grupo 987646" transform="translate(1027.958 123.686)">
      <path id="Trazado_117335" data-name="Trazado 117335" d="M152.794,908.4a.182.182,0,0,0,.092-.026c.014-.016.178-.132.193-.147q3.63-3.686,7.275-7.354a3.017,3.017,0,0,1,2.205-.93,7.847,7.847,0,0,1,2.672.666,14.2,14.2,0,0,0,1.709.555c.907.211,1.837.446,2.78.686a41.586,41.586,0,0,0,9.879,1.69h0q.3,0,.6-.01c8.809-.31,10.433-6.556,12.489-14.464l.178-.682c.366-1.407.873-2.989,1.41-4.665,2.094-6.542,4.7-14.684,1.491-19.933-1.6-2.614-5.2-3.9-8.157-4.722-2.409-.672-4.8-1.39-7.2-2.109-2.552-.765-5.191-1.556-7.8-2.275-.765-.21-1.607-.456-2.506-.718-4.254-1.241-10.081-2.941-15.076-2.941a12.152,12.152,0,0,0-7.329,1.965c-4.448,3.29-5.746,9.557-6.89,15.087-.213,1.029-.421,2.034-.643,2.992-.134.581-.275,1.169-.416,1.761-1.483,6.206-3.016,12.624.49,18,1.513,2.322,4.43,4.167,8.667,5.485a6.022,6.022,0,0,0,1.373.266c1.392.128,1.445.767,1.586,2.473l.025.3c.226,2.7.4,5.528.537,8.632.01.034.018.066.025.1a.268.268,0,0,0,.115.213A.411.411,0,0,0,152.794,908.4Z" transform="translate(-137.326 -850.232)" fill="#fff"/>
      <path id="Trazado_117336" data-name="Trazado 117336" d="M136.147,867.627c1.443-6.237,2.3-14.44,7.832-18.535,6.443-4.765,18.918-.269,25.59,1.568,5.024,1.383,9.985,2.984,15,4.383,3.039.848,6.867,2.206,8.618,5.07,4.251,6.953-1.011,18.308-2.811,25.208-2.163,8.292-3.74,15.4-13.4,15.735-4.439.156-9.2-1.394-13.469-2.384-2.258-.524-4.256-2.1-5.848-.5q-3.648,3.663-7.272,7.351a.97.97,0,0,1-.383.289,1.008,1.008,0,0,1-1.114-.112,1.033,1.033,0,0,1-.464-.727.984.984,0,0,1-.028-.115c0-.01-.006-.016-.007-.026-.126-2.9-.3-5.785-.538-8.674-.238-2.835-.047-1.606-2.432-2.347-3.343-1.04-7.108-2.76-9.094-5.808C132.284,881.8,134.607,874.281,136.147,867.627Zm.65,16.41c1.409,5.412,7.547,7.145,12.218,8.532a1.153,1.153,0,0,1,.818,1.074c.313,2.785.507,5.581.653,8.38,2.708-3.3,5.769-7.447,9.786-6.43,6.18,1.565,17.774,6.114,23.36,1.191,2.988-2.632,3.634-8.438,4.6-12.055,1.164-4.36,2.229-8.749,3.3-13.133.756-3.1,1.58-6.474.243-9.532-1.8-4.119-7.981-4.9-11.785-6.02-7.3-2.145-14.559-4.48-22.058-5.851-3.669-.672-7.691-1-11.309.063-3.557,1.049-5.038,5.137-5.934,8.337-1.509,5.391-2.782,10.885-3.871,16.375A19.98,19.98,0,0,0,136.8,884.037ZM152.755,859.4a7.4,7.4,0,0,0-1.548-2.232,8.331,8.331,0,0,0-2.163-2.064.2.2,0,0,0-.294.226,4.855,4.855,0,0,0,1.54,2.343,12.144,12.144,0,0,0,2.171,1.952A.2.2,0,0,0,152.755,859.4Zm-3.9-.364c.046.586.452.836.911,1.139a3.459,3.459,0,0,0,1.345.6.22.22,0,0,0,.245-.32,3.609,3.609,0,0,0-1.135-1.191,1.419,1.419,0,0,0-1.2-.448A.223.223,0,0,0,148.856,859.031Zm25.877,27.728A7.645,7.645,0,0,0,176,889.384c.423.6.81,1.451,1.619,1.532a.145.145,0,0,0,.142-.109c.119-.809-.605-1.375-1.063-1.962-.583-.746-1.168-1.472-1.789-2.187C174.836,886.575,174.709,886.663,174.733,886.759Zm2.848.325a2.394,2.394,0,0,0-1.434-1.266.229.229,0,0,0-.278.278A2.573,2.573,0,0,0,177,887.664.428.428,0,0,0,177.58,887.084Zm-4.677.134a1.728,1.728,0,0,0-.086,1.233,4.081,4.081,0,0,0,.371,1.34c.168.273.694.275.749-.1a3.09,3.09,0,0,0-.256-1.481,2.15,2.15,0,0,0-.56-1.023A.142.142,0,0,0,172.9,887.218ZM146.11,882.6a.349.349,0,0,0,.327.43c.751.089,1.4-.774,1.889-1.245a21.2,21.2,0,0,0,1.658-1.671.1.1,0,0,0-.067-.163,3.79,3.79,0,0,0-2.231,1C147.152,881.369,146.214,881.889,146.11,882.6Zm2.755-3.563c.106-.045.059-.192-.029-.222-.736-.257-1.966-.03-2.255.776a.139.139,0,0,0,.1.171,1.464,1.464,0,0,0,.974-.224C148.054,879.368,148.463,879.214,148.865,879.041Zm.978,3.706a.4.4,0,0,0,.061.475c.026.021.052.042.079.062a.4.4,0,0,0,.475-.062,3.537,3.537,0,0,0,.976-1.607.131.131,0,0,0-.16-.16A2.6,2.6,0,0,0,149.843,882.747Zm29.4-17.989a2.623,2.623,0,0,0-.384.773.157.157,0,0,0,.151.2,1.825,1.825,0,0,0,1-.281,10.189,10.189,0,0,0,.9-.7c.554-.471,1.21-.861,1.378-1.616a.228.228,0,0,0-.158-.278c-.812-.168-1.37.394-1.919.908A9.789,9.789,0,0,0,179.242,864.759Zm-1.534-.111a1.3,1.3,0,0,0,.592-.274,2.384,2.384,0,0,0,.507-.681,2.811,2.811,0,0,0,.526-1.456.553.553,0,0,0-.822-.472,2.771,2.771,0,0,0-1,1.38,3.531,3.531,0,0,0-.271.785,1.272,1.272,0,0,0,.034.392A.342.342,0,0,0,177.708,864.648Zm3.942,10.477c.793.467,2.242.641,2.918-.1a.187.187,0,0,0,0-.259,2.666,2.666,0,0,0-2.918-.37A.423.423,0,0,0,181.649,875.125Zm-15.129-16.964a3.14,3.14,0,0,0-.152-1.733.194.194,0,0,0-.262-.068c-1.087.491-1.159,2.5-.419,3.326a.139.139,0,0,0,.169.022A2.1,2.1,0,0,0,166.521,858.161Zm-22.309,9.7c.324.943,2.068,1.178,2.879.8a.193.193,0,0,0,.039-.3,3.78,3.78,0,0,0-1.238-.7,2.079,2.079,0,0,0-1.376-.337A.438.438,0,0,0,144.212,867.859Zm12.353,21.618a.2.2,0,0,0,.274.072c.55-.277.618-.747.875-1.265a6.086,6.086,0,0,0,.537-1.342.272.272,0,0,0-.4-.3C157.006,887.076,156.023,888.549,156.565,889.477Zm-3.509-25.563c4.528-4.671,10.926-.171,13.114,4.828,1.83-2.062,4.126-3.532,7.078-3.091,3.021.451,4.461,3.65,4.8,6.312,1.059,8.3-8.976,13.719-15.793,14.5a.717.717,0,0,1-.726-.321C156.024,881.743,145.983,871.208,153.056,863.914Zm23.075,11.035c.336-.633.578-1.968-.275-2.314-.1-.041-.191.044-.224.128a3.152,3.152,0,0,0-.13,1.023c-.015.329-.074.645-.068.974A.377.377,0,0,0,176.131,874.949Zm-11.32,8.65c2.373.1,4.486-1.336,6.314-2.707,1.575-1.182,3.384-2.81,4.037-4.726a.053.053,0,0,0-.077-.059c-1.824,1.231-3.191,3.07-5.042,4.307-1.7,1.134-3.568,1.811-5.338,2.8A.211.211,0,0,0,164.811,883.6Zm-7.481-18.94a.07.07,0,0,0-.017-.127c-2.57-.805-6.462,3.666-4.621,5.922a.211.211,0,0,0,.328-.042c.662-1.073.642-2.373,1.421-3.416A10.94,10.94,0,0,1,157.33,864.659Zm-4.573,8.712a.168.168,0,0,0,.226-.059c.214-.318.084-.594.006-.943-.068-.305-.062-.58-.316-.782a.162.162,0,0,0-.222,0A1.344,1.344,0,0,0,152.757,873.372Z" transform="translate(-134.072 -846.971)"/>
    </g>
  </g>
</svg>
