<svg xmlns="http://www.w3.org/2000/svg" xmlns:xlink="http://www.w3.org/1999/xlink" width="92.307" height="85.625" viewBox="0 0 92.307 85.625">
  <defs>
    <clipPath id="clip-path">
      <rect id="Rectángulo_338395" data-name="Rectángulo 338395" width="92.307" height="85.625" fill="none"/>
    </clipPath>
  </defs>
  <g id="Grupo_987644" data-name="Grupo 987644" transform="translate(0 0)">
    <g id="Grupo_982727" data-name="Grupo 982727" transform="translate(0 0)" clip-path="url(#clip-path)">
      <path id="Trazado_205621" data-name="Trazado 205621" d="M40.431,6.553c-5.045-3.46-8.047-2.61-9.8,2.748-1.816-1.042-3.571-2.291-5.857-1.48-2.193.778-3.01,2.553-3.638,4.824-1.483-1.222-2.844-2.392-4.7-2.3-2.306.117-3.015,1.721-4.027,3.556-.5.9-3.477-1.262-4.886.959A4.2,4.2,0,0,0,6.865,17.5c.149,2.239-1.4,3.8-2.1,5.642C3.82,25.641-.2,27.25,2.092,30.858c.4.632-.236.987-.721,1.254-1.751.963-1.653,2.2-.662,3.69,9.647,14.524,18.525,29.558,29.033,43.51C35.06,86.372,35,86.373,43.7,84.733c13.151-2.479,25.987-6.167,38.784-10.007,1.613-.484,3.3-.909,3.362-3.115a.812.812,0,0,1,.509-.565c2.66-.644,4.781-1.532,2.4-4.728,2.605-.789.41-3.911,2.607-5.153,1.683-.95.742-2.689-.051-3.928-2.9-4.531-5.871-9.018-8.85-13.5-8.22-12.362-16.623-24.6-25.529-36.481-1.045-1.394-2.1-2.4-3.918-1.759-1.606.567-2.306-.047-2.814-1.581A5.279,5.279,0,0,0,45.851.079c-3.416-.531-5.292,1.65-5.42,6.475" transform="translate(0 0)"/>
      <path id="Trazado_205622" data-name="Trazado 205622" d="M42.193,11.067c-.9.246-1.778.543-2.684.732-2.324.484-4.057,1.194-2.029,3.942a1.689,1.689,0,0,1-.316,2.282,1.643,1.643,0,0,1-2.056.243,1.664,1.664,0,0,1-.752-2.363c1.017-2.614-.242-2.668-2.2-1.97-.523.187-1.068.31-1.6.467-3.645,1.071-3.659,1.076-2.317,4.715A2.16,2.16,0,0,1,24.772,21.6a1.58,1.58,0,0,1,.007-2.456,1.672,1.672,0,0,0,.36-2.249c-.625-1.068-1.492-.28-2.224-.136a21.707,21.707,0,0,0-2.382.763c-3.208,1.031-3.219,1.037-1.33,3.977a1.624,1.624,0,0,1,.059,2.046,1.973,1.973,0,0,1-2.247.689A1.69,1.69,0,0,1,15.63,22.4c.134-1.059.959-2.646-.408-2.85-1.4-.21-3,.65-4.469,1.177-.779.281-.361.96-.054,1.368.381.507,1.031.834,1.342,1.369a2.056,2.056,0,0,1-.285,2.572,2.107,2.107,0,0,1-2.292.593A1.69,1.69,0,0,1,8.208,24.46c1.155-3.61-.756-2.557-2.756-2.056C3.017,23.013,2.629,23.818,4,26.071Q18.329,49.6,33.911,72.316a2.991,2.991,0,0,0,3.7,1.44c14.456-3.728,29.174-6.373,43.526-10.526,3.753-1.086,3.841-1.173,1.654-4.48C72.3,42.892,61.817,27.035,50.386,11.83a8.164,8.164,0,0,1-.667-.888c-.841-1.512-2.215-1.4-3.359-.758-1.2.676-.835,1.975-.2,2.887.735,1.055,1.107,1.964-.037,2.882a2.03,2.03,0,0,1-2.8-.085c-1.06-.923-.85-1.907-.006-2.91a1.35,1.35,0,0,0,.173-1.779c-.342-.438-.855-.144-1.3-.111" transform="translate(5.616 -2.311)" fill="#fff"/>
      <path id="Trazado_205623" data-name="Trazado 205623" d="M88.531,75.261c-7.8,2.016-15.153,3.961-22.53,5.81-7.2,1.8-14.43,3.468-21.624,5.284-1.9.481-3.041-.05-4.219-1.621C29.243,70.172,19.22,55.013,9.642,39.55q-.439-.71-.887-1.415c-.373-.59-.586-1.546-1.6-.835-.821.574-.185,1.152.114,1.66,1.6,2.718,3.15,5.467,4.856,8.118,8.535,13.264,17.4,26.3,26.438,39.231,1.271,1.817,2.422,2.415,4.77,1.92,15.161-3.2,30.321-6.39,45.3-10.378.568-.152,1.99.156,1.583-1.258-.275-.955-.928-1.639-1.682-1.332" transform="translate(-3.126 -8.794)" fill="#fff"/>
      <path id="Trazado_205624" data-name="Trazado 205624" d="M94.35,84.737C83.805,87,73.2,89.039,62.744,91.643c-4.331,1.078-6.571-.075-9-3.677C44.251,73.9,34.484,60.01,25.575,45.55a4.442,4.442,0,0,0-.3-.467c-.408-.5-.484-1.652-1.541-1-1.112.691-.049,1.3.268,1.8q7.612,11.974,15.3,23.9c4.795,7.4,9.91,14.57,15.152,21.66,1.631,2.2,3.191,2.918,6,2.412a307.7,307.7,0,0,0,35.027-8.576c.039-1.041-.56-.763-1.129-.545" transform="translate(-20.896 -10.418)" fill="#fff"/>
      <path id="Trazado_205625" data-name="Trazado 205625" d="M93.682,76.24c-6.964,1.571-13.958,3.028-20.879,4.773-2.567.647-4.083.107-5.609-2.071C56.81,64.117,47.214,48.788,37.649,33.434c-.436-.7-.464-2.376-2.018-1.535-1.573.85-.209,1.807.207,2.5,9.8,16.2,20.239,31.973,31.55,47.166a3.034,3.034,0,0,0,3.518,1.374c8.054-1.812,16.044-3.868,24-6.084.042-1.1-.629-.776-1.22-.612" transform="translate(-29.208 -7.517)" fill="#fff"/>
      <path id="Trazado_205626" data-name="Trazado 205626" d="M57.162,6.1c.318.743-.122,2.5,1.52,2.138s3.954.04,4.689-1.971c.493-1.346-2.032-3.651-3.552-3.631-1.5.02-2.664,1.451-2.658,3.464" transform="translate(-14.721 -0.626)" fill="#fff"/>
      <path id="Trazado_205627" data-name="Trazado 205627" d="M5.579,88.276l1.22.612,22.357-5.469-.259-1.04-23.319,5.9" transform="translate(58.895 -19.554)" fill="#fff"/>
      <path id="Trazado_205628" data-name="Trazado 205628" d="M76.029,10.867c-.937-1.632-2.178-2.63-4.068-2.272A2.652,2.652,0,0,0,69.834,11.2c-.108,1.048-.071,1.975,1.425,1.377,1.526-.612,3.242-.7,4.77-1.713" transform="translate(-36.952 -2.023)" fill="#fff"/>
      <path id="Trazado_205629" data-name="Trazado 205629" d="M88.492,14.928c-.9-1.656-2.061-2.462-3.712-2.211A2.912,2.912,0,0,0,82.4,15.133c-.294,1.145-.1,1.859,1.341,1.361,1.55-.536,3.116-1.03,4.752-1.566" transform="translate(-58.936 -3.008)" fill="#fff"/>
      <path id="Trazado_205630" data-name="Trazado 205630" d="M100.21,18.818c-.858-1.473-1.753-2.353-3.133-2.525A1.727,1.727,0,0,0,95.09,17.4a2.671,2.671,0,0,0,.188,2.386c.524.922,1.287.272,1.929.076.949-.29,1.878-.651,3-1.047" transform="translate(-80.27 -3.862)" fill="#fff"/>
      <path id="Trazado_205631" data-name="Trazado 205631" d="M12.687,96.685l1.129.545a23.884,23.884,0,0,0,8.048-3l-9.177,2.458" transform="translate(60.767 -22.366)" fill="#fff"/>
      <path id="Trazado_205632" data-name="Trazado 205632" d="M108.423,22.325c-1.187-.913-1.741-2.281-3.093-1.41a1.292,1.292,0,0,0-.218,1.974c1.039.933,1.946-.114,3.311-.564" transform="translate(-96.001 -4.898)" fill="#fff"/>
      <path id="Trazado_205633" data-name="Trazado 205633" d="M43.942,46.932A204,204,0,0,0,76,37.043C65.246,40.108,54.6,43.535,43.942,46.932" transform="translate(-17.203 -8.793)"/>
      <path id="Trazado_205634" data-name="Trazado 205634" d="M80.495,30.125c-10.149,4.255-21.059,5.862-31.541,8.962,10.776-2.075,21.719-3.571,31.541-8.962" transform="translate(-25.522 -7.151)"/>
      <path id="Trazado_205635" data-name="Trazado 205635" d="M72.082,46.531c-9.178,2.625-18.233,5.615-27.23,8.776q.134.414.268.828l27.7-9.065c-.107-.373-.464-.4-.741-.539" transform="translate(-14.721 -11.045)"/>
      <path id="Trazado_205636" data-name="Trazado 205636" d="M54.556,83.869,64.718,80.7q-.1-.353-.2-.708a35.931,35.931,0,0,0-10.165,3.119l.2.755" transform="translate(-13.864 -18.988)"/>
      <path id="Trazado_205637" data-name="Trazado 205637" d="M56.052,79.553l10.177-2.5c-1.9-.866-7,.178-10.177,2.5" transform="translate(-16.669 -18.218)"/>
      <path id="Trazado_205638" data-name="Trazado 205638" d="M38.785,46.155l.741.539a8.938,8.938,0,0,0,4.627-1.714c-2.215-.22-3.749.673-5.367,1.175" transform="translate(18.576 -10.668)"/>
    </g>
  </g>
</svg>
