<svg xmlns="http://www.w3.org/2000/svg" width="190" height="94" viewBox="0 0 190 94">
  <g id="Grupo_988572" data-name="Grupo 988572" transform="translate(-180 -3104)">
    <g id="Grupo_987167" data-name="Grupo 987167" transform="translate(-0.5 70.324)">
      <rect id="Rectángulo_45412" data-name="Rectángulo 45412" width="190" height="94" rx="10" transform="translate(180.5 3033.676)" fill="#3c3fa7"/>
    </g>
    <g id="Filled_outline" data-name="Filled outline" transform="translate(216.25 3096.5)">
      <path id="Trazado_677115" data-name="Trazado 677115" d="M188.437,68.224l-.47,4.23-.317,2.85h-39.9l-.317-2.85-.47-4.23A21.926,21.926,0,0,1,148.6,57.167a21.946,21.946,0,0,0,1.746-9.731l-.248-4.93a17.622,17.622,0,1,1,35.2,0l-.248,4.93a21.946,21.946,0,0,0,1.746,9.731A21.914,21.914,0,0,1,188.437,68.224Z" transform="translate(-107.525 -6.579)" fill="#8f4d2e"/>
      <path id="Trazado_677116" data-name="Trazado 677116" d="M264.4,68.219l-.47,4.23H247.942V56.774l2.85-5.7v-11.4A15.691,15.691,0,0,0,239.26,24.553,17.642,17.642,0,0,1,261.267,42.5l-.248,4.93a21.947,21.947,0,0,0,1.746,9.731A21.914,21.914,0,0,1,264.4,68.219Z" transform="translate(-183.492 -6.574)" fill="#82462a"/>
      <path id="Trazado_677117" data-name="Trazado 677117" d="M225.67,227.4a1.994,1.994,0,0,1-1.995-1.995V216h-11.4v9.4a1.994,1.994,0,0,1-1.995,1.995H208v8.55h19.95V227.4Z" transform="translate(-157.8 -164.375)" fill="#fec9a3"/>
      <path id="Trazado_677118" data-name="Trazado 677118" d="M238.559,223.125a7.819,7.819,0,0,0,4.841-1.747V216H232v5.378a7.818,7.818,0,0,0,4.841,1.747Z" transform="translate(-177.525 -164.375)" fill="#feb784"/>
      <path id="Trazado_677119" data-name="Trazado 677119" d="M217.65,88.55v7.125a12.825,12.825,0,1,1-25.65,0V88.55a19.332,19.332,0,0,0,6.573-7.446l.552-1.1.809.675A35.579,35.579,0,0,0,217.65,88.55Z" transform="translate(-144.65 -52.6)" fill="#fec9a3"/>
      <path id="Trazado_677120" data-name="Trazado 677120" d="M288.13,121.992v7.125a12.83,12.83,0,0,1-10.375,12.591,15.619,15.619,0,0,0,4.675-11.166V120.69a35.54,35.54,0,0,0,5.7,1.3Z" transform="translate(-215.13 -86.042)" fill="#fec093"/>
      <path id="Trazado_677121" data-name="Trazado 677121" d="M224,312h14.25v9.975H224Z" transform="translate(-170.95 -243.275)" fill="#e0e0de"/>
      <path id="Trazado_677122" data-name="Trazado 677122" d="M141.751,316.991a4.325,4.325,0,0,1-4.8-2.87l-9.412-17.658a11.1,11.1,0,0,1-1.988,10.611v11.4H99.9v-11.4a11.115,11.115,0,0,1-1.967-10.743l-9.565,17.789a4.324,4.324,0,1,1-8.21-2.715l10.463-26.044A8.547,8.547,0,0,1,98.552,280h5.62l8.55,15.675L121.272,280h5.6a8.557,8.557,0,0,1,7.944,5.392l10.344,26.015a4.326,4.326,0,0,1-3.408,5.584Z" transform="translate(-52.547 -216.975)" fill="#ec8c8c"/>
      <path id="Trazado_677123" data-name="Trazado 677123" d="M74.165,397.361,75.192,384h8.55v13.729a4.8,4.8,0,1,1-9.578-.368Z" transform="translate(-47.793 -302.45)" fill="#f59898"/>
      <path id="Trazado_677124" data-name="Trazado 677124" d="M37.327,266.916a2.772,2.772,0,0,0-1.807,3.929l1.3,2.608H31.718a8.55,8.55,0,0,1-3.824-.9l-1.42-.71A1.71,1.71,0,0,0,24,273.37v4.022a2.85,2.85,0,0,0,1.576,2.549l2.319,1.16a8.55,8.55,0,0,0,3.824.9H42.525v-8.55l-1.951-4.878A2.772,2.772,0,0,0,37.327,266.916Z" transform="translate(-6.575 -206.153)" fill="#fec9a3"/>
      <path id="Trazado_677125" data-name="Trazado 677125" d="M80,352h8.55v5.7H80Z" transform="translate(-52.6 -276.15)" fill="#e0e0de"/>
      <path id="Trazado_677126" data-name="Trazado 677126" d="M236.016,320.476a4.325,4.325,0,0,1-4.8-2.87L221.8,299.949a11.1,11.1,0,0,1-1.988,10.611v11.4H194.63c11.762-7.681,21.685-17.428,30.014-37.72a8.536,8.536,0,0,1,4.435,4.637l10.344,26.015a4.326,4.326,0,0,1-3.408,5.584Z" transform="translate(-146.812 -220.46)" fill="#e07f7f"/>
      <path id="Trazado_677127" data-name="Trazado 677127" d="M310.25,358.8,296,355.95V336l14.25,2.85Z" transform="translate(-230.125 -263)" fill="#a36548"/>
      <path id="Trazado_677128" data-name="Trazado 677128" d="M408,358.8l14.25-2.85V336L408,338.85Z" transform="translate(-322.175 -263)" fill="#8f4d2e"/>
      <path id="Trazado_677129" data-name="Trazado 677129" d="M376,352h5.7v19.95H376Z" transform="translate(-295.875 -276.15)" fill="#95573a"/>
      <path id="Trazado_677130" data-name="Trazado 677130" d="M313.1,319.125a5.047,5.047,0,0,0-4.217-4.978L296,312v4.275l14.25,2.85h2.85a5.047,5.047,0,0,1,4.217-4.978L330.2,312v4.275l-14.25,2.85Z" transform="translate(-230.125 -243.275)" fill="#d4bd81"/>
      <path id="Trazado_677131" data-name="Trazado 677131" d="M439.359,424.416l-5.7.95A1.425,1.425,0,0,1,432,423.96v-5.3a1.855,1.855,0,0,1,1.55-1.83l4.84-.807a1.855,1.855,0,0,1,2.16,1.83v5.153a1.425,1.425,0,0,1-1.191,1.406Z" transform="translate(-341.9 -328.752)" fill="#fec9a3"/>
      <path id="Trazado_677135" data-name="Trazado 677135" d="M101,67.638a1.427,1.427,0,0,0-1.155-.318L86.957,69.467a6.484,6.484,0,0,0-2.387.9l-.982-2.479a9.492,9.492,0,0,0-1.635-2.73l.372-3.37a24.681,24.681,0,0,0,.15-2.586,23.257,23.257,0,0,0-1.9-9.182,20.583,20.583,0,0,1-1.625-9.1L79.2,35.99c.015-.311.03-.632.03-.951a19.048,19.048,0,1,0-38.073.952l.242,4.916c.014.367.027.714.027,1.057a20.314,20.314,0,0,1-1.652,8.06A23.285,23.285,0,0,0,38.025,61.8l.371,3.323a9.674,9.674,0,0,0-1.129,1.632l-1.945-4.863A4.2,4.2,0,1,0,27.67,65.33l.274.545h-2.8a7.161,7.161,0,0,1-3.186-.752l-1.42-.71A3.135,3.135,0,0,0,16,67.217v4.022a4.251,4.251,0,0,0,2.363,3.824l2.319,1.16a10.025,10.025,0,0,0,4.461,1.053h.832v4.22L24.951,94.8a6.221,6.221,0,0,0,6.2,6.7q.158,0,.315-.008c.091,0,.182.008.272.008a5.736,5.736,0,0,0,5.389-3.768l6.5-12.094A12.464,12.464,0,0,0,45.925,90.6v10.9h2.85V90.1a1.425,1.425,0,0,0-.33-.912A9.716,9.716,0,0,1,49.687,75.52L47.863,73.33a12.56,12.56,0,0,0-1.77,1.807,1.466,1.466,0,0,0-.147.178l0,0-.025.044c-.006.01-.012.021-.018.031a12.478,12.478,0,0,0-1.853,3.463L37.375,91.258V73.945L39.4,68.9a6.83,6.83,0,0,1,1.5-2.3A7.212,7.212,0,0,1,46.01,64.45h4.769l8.145,14.932a1.425,1.425,0,0,0,2.5,0l3.024-5.544V92.95a1.425,1.425,0,0,0,1.146,1.4l5.979,1.2V101.5h2.85V96.113L79.877,97.2c.036.006.2.023.248.023h2.7l.274.51A5.773,5.773,0,0,0,88.5,101.5a5.364,5.364,0,0,0,.939-.078A5.775,5.775,0,0,0,93.9,97.7l3.79-.632a2.838,2.838,0,0,0,2.375-2.665l.285-.057a1.425,1.425,0,0,0,1.147-1.4V68.725a1.425,1.425,0,0,0-.5-1.087ZM53.864,64.155A3.423,3.423,0,0,0,55.9,61.03V56.669a14.257,14.257,0,0,0,8.55,0V61.03a3.423,3.423,0,0,0,2.036,3.124L64.77,67.3H55.579Zm6.311-9.68a11.413,11.413,0,0,1-11.4-11.4V36.7a20.817,20.817,0,0,0,6.167-7.06,36.912,36.912,0,0,0,16.633,7.53v5.91A11.413,11.413,0,0,1,60.175,54.475ZM79.433,66.627l.026.027a6.6,6.6,0,0,1,1.478,2.282l.612,1.546a6.482,6.482,0,0,0-2.557-1.015L67.848,67.609l1.723-3.159h4.754A7.06,7.06,0,0,1,79.433,66.627Zm.833,7.8-6.484-1.3-6.484-1.3V70.407l11.224,1.87a3.609,3.609,0,0,1,2.738,2.148Zm7.161-2.147L98.65,70.407v1.425l-6.7,1.341-6.264,1.252h-.995a3.609,3.609,0,0,1,2.737-2.147Zm-65.47,1.395-2.319-1.16a1.418,1.418,0,0,1-.788-1.275V67.217a.285.285,0,0,1,.412-.255l1.42.71a10.026,10.026,0,0,0,4.461,1.053H30.25a1.425,1.425,0,0,0,1.274-2.062l-1.3-2.609a1.347,1.347,0,1,1,2.455-1.1l1.85,4.624v6.85H25.143A7.16,7.16,0,0,1,21.957,73.673Zm12.568,3.6v2.85h-5.7v-2.85ZM27.793,95.02l.926-12.046h5.805v12.3A3.373,3.373,0,0,1,31.4,98.638a1.456,1.456,0,0,0-.16.008c-.028,0-.055,0-.084,0a3.37,3.37,0,0,1-3.361-3.629Zm18.155-19.7a1.42,1.42,0,0,1,.091-.11l-.086.112ZM41.02,62.946l-.163-1.464a20.431,20.431,0,0,1,1.532-10.335,23.147,23.147,0,0,0,1.883-9.183c0-.4-.015-.789-.03-1.181L44,35.851a16.2,16.2,0,1,1,32.378-.813c0,.251-.013.525-.027.813l-.242,4.927a23.443,23.443,0,0,0,1.851,10.365,20.423,20.423,0,0,1,1.667,8.062,21.83,21.83,0,0,1-.134,2.28l-.162,1.468A9.966,9.966,0,0,0,74.325,61.6H67.87a.578.578,0,0,1-.57-.57V55.408a14.255,14.255,0,0,0,7.125-12.333V35.95A1.425,1.425,0,0,0,73.2,34.539a34.07,34.07,0,0,1-17-7.559l-.809-.675a1.425,1.425,0,0,0-2.187.457l-.552,1.1a17.952,17.952,0,0,1-6.089,6.9,1.425,1.425,0,0,0-.635,1.186v7.125A14.255,14.255,0,0,0,53.05,55.408V61.03a.578.578,0,0,1-.57.57H46.01a10.039,10.039,0,0,0-4.99,1.346ZM60.175,75.724l-3.04-5.574h6.081Zm7.125-.986,11.4,2.28V94.062l-11.4-2.28Zm14.25,2.537H84.4v17.1H81.55Zm7.4,21.339a2.549,2.549,0,0,1-.45.036,2.919,2.919,0,0,1-2.512-1.436c.027,0,.053-.007.08-.012l.032,0h0l.01,0,2.929-.586a2.813,2.813,0,0,0,1.435,1.25A2.971,2.971,0,0,1,88.954,98.614Zm8.271-4.356-5.7.95v-5.3a.429.429,0,0,1,.359-.424l4.84-.807a.467.467,0,0,1,.073-.006.43.43,0,0,1,.427.43v5.153Zm-.969-8.388-4.84.807a3.27,3.27,0,0,0-2.741,3.235v3.865l-1.425.285V77.018l11.4-2.28V86.4a3.271,3.271,0,0,0-2.394-.532Z" transform="translate(0 0)"/>
    </g>
  </g>
</svg>
