<svg xmlns="http://www.w3.org/2000/svg" width="54.917" height="55.896" viewBox="0 0 54.917 55.896">
  <g id="idea_3_" data-name="idea (3)" transform="translate(-4.449 0)">
    <g id="Grupo_986920" data-name="Grupo 986920" transform="translate(12.838 0.825)">
      <g id="Grupo_986918" data-name="Grupo 986918">
        <g id="Grupo_986916" data-name="Grupo 986916" transform="translate(11.202)">
          <g id="Grupo_986913" data-name="Grupo 986913">
            <g id="Grupo_986909" data-name="Grupo 986909" transform="translate(12.547)">
              <path id="Trazado_609546" data-name="Trazado 609546" d="M317.113,18.607l-.143-2.826-2.814-.356a7.545,7.545,0,0,0-.912-1.907l1.5-2.392-2.114-1.9-2.246,1.725a7.66,7.66,0,0,0-2-.709L307.742,7.5l-2.847.144-.361,2.794a7.657,7.657,0,0,0-1.921.907L300.2,9.856l-1.912,2.1,1.736,2.229a7.542,7.542,0,0,0-.715,1.989l-2.764.638.143,2.826,2.814.356a7.542,7.542,0,0,0,.912,1.907l-1.5,2.392,2.114,1.9,2.246-1.725a7.66,7.66,0,0,0,2,.709l.641,2.744,2.847-.144.361-2.794a7.658,7.658,0,0,0,1.921-.907l2.409,1.49,1.912-2.1-1.736-2.229a7.539,7.539,0,0,0,.715-1.989Zm-10.084,3.028a3.93,3.93,0,1,1,3.755-4.125A3.944,3.944,0,0,1,307.029,21.635Z" transform="translate(-296.548 -7.5)" fill="#7974e3"/>
            </g>
            <g id="Grupo_986912" data-name="Grupo 986912" transform="translate(0 6.775)">
              <g id="Grupo_986911" data-name="Grupo 986911">
                <path id="Trazado_609547" data-name="Trazado 609547" d="M182.511,93.055l17.846,7.824L208.3,82.756l-3.28-8.421-12-5.26Z" transform="translate(-182.511 -69.075)" fill="#f0f0ff"/>
                <g id="Grupo_986910" data-name="Grupo 986910" transform="translate(14.154 8.386)">
                  <path id="Trazado_609548" data-name="Trazado 609548" d="M318.4,150.588l-7.236,16.5,3.691,1.618,7.946-18.123-2.063-5.3Z" transform="translate(-311.159 -145.293)" fill="#e8e8ff"/>
                </g>
                <path id="Trazado_609549" data-name="Trazado 609549" d="M366.272,116.886,363.7,122.72l5.857,2.587Z" transform="translate(-343.761 -111.626)" fill="#cfcfff"/>
              </g>
            </g>
          </g>
          <g id="Grupo_986915" data-name="Grupo 986915" transform="translate(16.928 25.126)">
            <g id="Grupo_986914" data-name="Grupo 986914">
              <path id="Trazado_609550" data-name="Trazado 609550" d="M336.372,269.387h14.1v14.06h-14.1Z" transform="translate(-336.372 -265.699)" fill="#96e1ff"/>
              <path id="Trazado_609551" data-name="Trazado 609551" d="M468.036,249.929l-3.468,3.688v-14.06l3.468-3.688Z" transform="translate(-450.464 -235.869)" fill="#ffe891"/>
              <path id="Trazado_609552" data-name="Trazado 609552" d="M350.477,239.557h-14.1l3.468-3.688h14.1Z" transform="translate(-336.372 -235.869)" fill="#ffbfc1"/>
            </g>
          </g>
          <path id="Trazado_609553" data-name="Trazado 609553" d="M275.01,364.6l1.63-1.631-1.323-1.9a6.145,6.145,0,0,0,.654-1.593l2.267-.4-.009-2.314-2.27-.414a6.241,6.241,0,0,0-.667-1.6l1.308-1.887-1.643-1.642-1.886,1.309a6.238,6.238,0,0,0-1.6-.665l-.416-2.27-2.314-.007-.4,2.267a6.143,6.143,0,0,0-1.593.655l-1.9-1.322-1.63,1.631,1.323,1.9a6.143,6.143,0,0,0-.654,1.593l-2.267.4.009,2.314,2.27.414a6.242,6.242,0,0,0,.666,1.6l-1.308,1.887,1.643,1.642,1.886-1.31a6.238,6.238,0,0,0,1.6.665l.416,2.27,2.314.007.4-2.267a6.146,6.146,0,0,0,1.593-.655Zm-7.126-4.654a2.906,2.906,0,1,1,4.125.013A2.917,2.917,0,0,1,267.883,359.942Z" transform="translate(-252.922 -311.951)" fill="#7974e3"/>
        </g>
        <g id="Grupo_986917" data-name="Grupo 986917" transform="translate(0 5.53)">
          <path id="Trazado_609554" data-name="Trazado 609554" d="M97.474,57.759c-.135,0-.27,0-.405,0a16.852,16.852,0,0,0-7.514,31.679v2.829a2.088,2.088,0,0,0,2.084,2.092h5.835Z" transform="translate(-80.698 -57.759)" fill="#ffe07d"/>
          <path id="Trazado_609555" data-name="Trazado 609555" d="M185.973,390.46h-5.835v4.614a3.753,3.753,0,0,0,3.753,3.753h2.082Z" transform="translate(-169.197 -353.855)" fill="#ffe07d"/>
        </g>
      </g>
      <g id="Grupo_986919" data-name="Grupo 986919" transform="translate(29.815 39.27)">
        <path id="Trazado_609556" data-name="Trazado 609556" d="M356.123,372.681l2.267-.4-.009-2.314-2.27-.414a6.241,6.241,0,0,0-.667-1.6l1.308-1.887-1.643-1.642-1.886,1.309a6.235,6.235,0,0,0-1.534-.647,8.028,8.028,0,0,1,.69,11.82,6.114,6.114,0,0,0,.889-.429l1.9,1.322,1.63-1.631-1.323-1.9A6.143,6.143,0,0,0,356.123,372.681Z" transform="translate(-351.688 -364.426)" fill="#6b64e8"/>
      </g>
    </g>
    <g id="Grupo_986921" data-name="Grupo 986921" transform="translate(4.449 0)">
      <path id="Trazado_609557" data-name="Trazado 609557" d="M120.55,25.91a.834.834,0,0,0-.822-.784h-9.494l1.541-3.514a.836.836,0,0,0,.013-.631L111,18.957a8.482,8.482,0,0,0,1.272-.59l1.978,1.223a.828.828,0,0,0,1.044-.146l1.912-2.1a.825.825,0,0,0,.041-1.062l-1.42-1.823a8.367,8.367,0,0,0,.431-1.2l2.268-.523a.825.825,0,0,0,.638-.846l-.143-2.826a.825.825,0,0,0-.72-.777l-2.309-.292a8.363,8.363,0,0,0-.549-1.149l1.229-1.957a.825.825,0,0,0-.148-1.053l-2.114-1.9a.825.825,0,0,0-1.054-.04L111.51,3.315a8.482,8.482,0,0,0-1.215-.43L109.77.638A.824.824,0,0,0,108.925,0l-2.847.144a.825.825,0,0,0-.777.718l-.3,2.288a8.474,8.474,0,0,0-1.165.551L101.863,2.48a.825.825,0,0,0-1.044.146l-1.912,2.1a.825.825,0,0,0-.041,1.062l1.42,1.823a8.388,8.388,0,0,0-.349.927L96.072,6.844a.825.825,0,0,0-1.087.424L91.7,14.751V1.933a.826.826,0,0,0-1.65,0V5.547a17.612,17.612,0,0,0-14,8.044.825.825,0,0,0,1.384.9A15.965,15.965,0,0,1,90.054,7.2V42.135H84.966a1.264,1.264,0,0,1-1.259-1.267V38.039a.825.825,0,0,0-.434-.727,16.03,16.03,0,0,1-7.7-18.866A.826.826,0,0,0,74,17.954a17.681,17.681,0,0,0,8.06,20.57v2.344a2.921,2.921,0,0,0,2.084,2.8v3.909a4.583,4.583,0,0,0,4.578,4.578h1.335v2.919a.826.826,0,0,0,1.65,0V35.321l8.408,3.686-.189,1.078a6.97,6.97,0,0,0-.811.334L97.63,39.386a.825.825,0,0,0-1.055.094l-1.63,1.631a.825.825,0,0,0-.093,1.056l1.034,1.481a6.973,6.973,0,0,0-.333.812l-1.764.311a.825.825,0,0,0-.682.816l.009,2.314a.825.825,0,0,0,.677.808l1.775.324a7.062,7.062,0,0,0,.343.823l-1.019,1.471a.825.825,0,0,0,.1,1.054l1.643,1.642a.825.825,0,0,0,1.054.094l1.47-1.02a7.066,7.066,0,0,0,.823.342l.326,1.775a.825.825,0,0,0,.809.676l2.314.007h0a.825.825,0,0,0,.813-.682l.31-1.765a6.964,6.964,0,0,0,.811-.334l1.482,1.032a.825.825,0,0,0,1.055-.094l1.63-1.631a.825.825,0,0,0,.093-1.056l-1.034-1.481a6.977,6.977,0,0,0,.333-.812l1.764-.311a.825.825,0,0,0,.682-.816l-.009-2.314a.825.825,0,0,0-.677-.808l-1.669-.3c2.362-.011,4.76-.011,7.092-.011a.842.842,0,0,0,.757-.245l3.468-3.688a.826.826,0,0,0,.224-.565V25.951C120.553,25.937,120.55,25.924,120.55,25.91Zm-2.731.866-1.88,2H104.1l1.88-2Zm-9.312-14.216a.84.84,0,0,0-.438-.456l-3.132-1.373a3.132,3.132,0,1,1,4.121,3.245Zm-.817,2.45.891,2.288.943,2.42-3.275-1.446ZM101.9,7,100.6,5.323l.983-1.08L103.4,5.373a.826.826,0,0,0,.886-.012A6.83,6.83,0,0,1,106,4.552a.825.825,0,0,0,.573-.682l.273-2.111,1.47-.074.484,2.073a.825.825,0,0,0,.639.621,6.828,6.828,0,0,1,1.787.633.825.825,0,0,0,.883-.078l1.7-1.308L114.9,4.6,113.77,6.4a.825.825,0,0,0,.011.9,6.723,6.723,0,0,1,.813,1.7.825.825,0,0,0,.683.571l2.129.269.073,1.446-2.091.483a.825.825,0,0,0-.622.637,6.713,6.713,0,0,1-.637,1.771.825.825,0,0,0,.079.892l1.309,1.68-.983,1.08L112.707,16.7a.826.826,0,0,0-.886.011,6.834,6.834,0,0,1-1.422.71l-.742-1.9a4.76,4.76,0,1,0-6.281-5.467l-1.919-.841a6.74,6.74,0,0,1,.524-1.311A.825.825,0,0,0,101.9,7ZM88.718,50.5a2.931,2.931,0,0,1-2.928-2.928V43.785h4.263V50.5ZM91.7,18.861,96.165,8.687l10.484,4.6-2.242,5.077a.825.825,0,0,0,.421,1.088l5.1,2.255-1.5,3.423h-2.808a.825.825,0,0,0-.6.26l-3.468,3.688a1.516,1.516,0,0,0-.238.923v7.642H101.1L91.7,33.519Zm18.01,28.4-1.582.279a.825.825,0,0,0-.656.609,5.318,5.318,0,0,1-.566,1.38.825.825,0,0,0,.035.89l.927,1.329-.653.653-1.33-.926a.825.825,0,0,0-.89-.034,5.32,5.32,0,0,1-1.379.567.825.825,0,0,0-.609.657l-.278,1.582-.934,0-.293-1.6a.825.825,0,0,0-.6-.649,5.418,5.418,0,0,1-1.387-.577.825.825,0,0,0-.89.033l-1.32.916L96.64,51.7l.915-1.32a.825.825,0,0,0,.032-.89,5.423,5.423,0,0,1-.578-1.387.825.825,0,0,0-.65-.6l-1.6-.291,0-.934L96.341,46A.825.825,0,0,0,97,45.387a5.318,5.318,0,0,1,.566-1.38.825.825,0,0,0-.035-.89L96.6,41.789l.653-.653,1.329.926a.825.825,0,0,0,.89.034,5.325,5.325,0,0,1,1.379-.567.825.825,0,0,0,.609-.657l.278-1.582.934,0,.293,1.6a.825.825,0,0,0,.6.649,5.416,5.416,0,0,1,1.387.577.825.825,0,0,0,.89-.033l1.32-.916.668.667-.915,1.32a.825.825,0,0,0-.032.89,5.424,5.424,0,0,1,.578,1.387.825.825,0,0,0,.65.6l1.6.291Zm7.373-5.644c0-.813,0-2.82,0-2.82a.826.826,0,0,0-1.65,0v4.064c-2.083,0-4.21,0-6.312.011l.459-.662a.825.825,0,0,0-.095-1.054l-1.643-1.642a.825.825,0,0,0-1.054-.094l-1.47,1.02a7.066,7.066,0,0,0-.823-.342l-.326-1.775a.981.981,0,0,0-1.194-.678c-.014-.916.086-5.709,0-7.179h12.457v4.022a.826.826,0,0,0,1.65,0s0-3.1,0-4.523l1.815-1.93V39.684Z" transform="translate(-65.636 0)" fill="#060606"/>
      <path id="Trazado_609558" data-name="Trazado 609558" d="M306.891,390.994h-.012a3.717,3.717,0,0,0-3.721,3.736,3.768,3.768,0,0,0,3.751,3.748h.012a3.717,3.717,0,0,0,3.721-3.736,3.768,3.768,0,0,0-3.751-3.748Zm1.5,5.228a2.041,2.041,0,0,1-1.473.606,2.117,2.117,0,0,1-2.106-2.1,2.067,2.067,0,0,1,2.077-2.079,2.117,2.117,0,0,1,2.106,2.1A2.057,2.057,0,0,1,308.387,396.222Z" transform="translate(-270.293 -347.976)" fill="#060606"/>
      <path id="Trazado_609559" data-name="Trazado 609559" d="M72.241,50.194a.845.845,0,0,0,.584-1.409l-2.814-2.814a.826.826,0,0,0-1.167,1.167l2.814,2.814A.823.823,0,0,0,72.241,50.194Z" transform="translate(-61.542 -40.696)" fill="#060606"/>
      <path id="Trazado_609560" data-name="Trazado 609560" d="M9.229,204.487H5.249a.826.826,0,0,0,0,1.65H9.229A.826.826,0,0,0,9.229,204.487Z" transform="translate(-4.449 -181.989)" fill="#060606"/>
      <path id="Trazado_609561" data-name="Trazado 609561" d="M73.946,336.922l-2.814,2.814A.826.826,0,0,0,72.3,340.9l2.814-2.814A.826.826,0,0,0,73.946,336.922Z" transform="translate(-63.578 -299.636)" fill="#060606"/>
    </g>
  </g>
</svg>
