<svg xmlns="http://www.w3.org/2000/svg" xmlns:xlink="http://www.w3.org/1999/xlink" width="362" height="595" viewBox="0 0 362 595">
  <defs>
    <clipPath id="clip-path">
      <rect id="Rectángulo_341215" data-name="Rectángulo 341215" width="362" height="595" transform="translate(276 871)" fill="#6b8dfc" opacity="0.36"/>
    </clipPath>
    <clipPath id="clip-path-2">
      <rect id="Rectángulo_341212" data-name="Rectángulo 341212" width="360.562" height="275.103" fill="#3c3fa7"/>
    </clipPath>
    <clipPath id="clip-path-3">
      <rect id="Rectángulo_341213" data-name="Rectángulo 341213" width="376.537" height="570.941" fill="none"/>
    </clipPath>
    <clipPath id="clip-path-4">
      <path id="Trazado_685568" data-name="Trazado 685568" d="M127.143,37.571c-1.271,1.816,6.021,4.075,8.38,3.947,4.069-.218,4.751-2.119.21-3.822a14.751,14.751,0,0,0-5.142-.991c-1.883,0-3.159.455-3.448.867" transform="translate(-126.996 -36.704)" fill="none"/>
    </clipPath>
    <clipPath id="clip-path-6">
      <path id="Trazado_685664" data-name="Trazado 685664" d="M83.026,34.2c.226,5.021,9.44,9.228,13.2,5.412,2.45-2.488-6.549-6.97-10.933-6.97-1.389,0-2.314.45-2.266,1.558" transform="translate(-83.024 -32.645)" fill="none"/>
    </clipPath>
  </defs>
  <g id="Enmascarar_grupo_987856" data-name="Enmascarar grupo 987856" transform="translate(-276 -871)" clip-path="url(#clip-path)">
    <rect id="Rectángulo_341208" data-name="Rectángulo 341208" width="380" height="595" transform="translate(273 871)" fill="#6b8dfc"/>
    <g id="Grupo_988451" data-name="Grupo 988451" transform="translate(272.895 895.509)">
      <path id="Rectángulo_341209" data-name="Rectángulo 341209" d="M106,0H276.015a17,17,0,0,1,17,17V553.492a17,17,0,0,1-17,17H17a17,17,0,0,1-17-17V106A106,106,0,0,1,106,0Z" transform="translate(67.188 0)" fill="#c4d1ff"/>
      <g id="Grupo_988450" data-name="Grupo 988450" transform="translate(0 0)">
        <g id="Grupo_988440" data-name="Grupo 988440" transform="translate(0 97.121)">
          <g id="Grupo_988437" data-name="Grupo 988437" transform="translate(3.11 151.991)">
            <rect id="Rectángulo_341210" data-name="Rectángulo 341210" width="257.269" height="321.828" transform="translate(103.831)" fill="#6b8dfc"/>
            <path id="Rectángulo_341211" data-name="Rectángulo 341211" d="M139,0H361.1a0,0,0,0,1,0,0V146.517a0,0,0,0,1,0,0H0a0,0,0,0,1,0,0V139A139,139,0,0,1,139,0Z" transform="translate(0 175.311)" fill="#3c3fa7"/>
          </g>
          <g id="Grupo_988439" data-name="Grupo 988439" transform="translate(0 0)">
            <g id="Grupo_988438" data-name="Grupo 988438" clip-path="url(#clip-path-2)">
              <path id="Trazado_685547" data-name="Trazado 685547" d="M69.906,177.95H53.918a.808.808,0,0,1-.749-.857V16.351H.749a.865.865,0,0,1,0-1.714H53.918a.808.808,0,0,1,.749.857V176.236H69.157V.858a.852.852,0,0,1,.527-.819.7.7,0,0,1,.839.335L82.615,20.6a.943.943,0,0,1,.13.483V159.713h13.01V80.545a.809.809,0,0,1,.749-.857h80.357V18.747a.808.808,0,0,1,.749-.857h51.428a.808.808,0,0,1,.749.857V128.371h67.291V60.2a.808.808,0,0,1,.749-.857H329.3a.808.808,0,0,1,.749.857V88.119h11.294v-71a.943.943,0,0,1,.131-.483l8.769-14.671a.7.7,0,0,1,.839-.335.851.851,0,0,1,.527.819V98.883h8.2a.865.865,0,0,1,0,1.714h-8.949a.808.808,0,0,1-.749-.857V5.219l-7.272,12.167v71.59a.808.808,0,0,1-.749.857H329.3a.808.808,0,0,1-.749-.857V61.058h-29.98v68.17a.808.808,0,0,1-.749.857H229.038a.808.808,0,0,1-.749-.857V19.6H178.358V80.545a.808.808,0,0,1-.749.857H97.252V160.57a.808.808,0,0,1-.749.857H82a.809.809,0,0,1-.749-.857V21.352L70.655,3.628V177.093a.808.808,0,0,1-.749.857" transform="translate(0 0)" fill="#3c3fa7"/>
              <path id="Trazado_685548" data-name="Trazado 685548" d="M234.3,297.661h-.036a.821.821,0,0,1-.713-.9c1.48-36.1-3.639-58.291-15.215-65.959-6.057-4.011-12.824-3.074-17.435-1.579a34.536,34.536,0,0,0-8.753,4.317.669.669,0,0,1-.8,0,.9.9,0,0,1-.347-.825,92.758,92.758,0,0,0-1.107-23.1c-2.915-15.681-9.907-25.047-20.784-27.838-7.054-1.81-13.109-.8-18,3-9.094,7.07-11.185,21.522-11.205,21.666a.8.8,0,0,1-.677.72.749.749,0,0,1-.773-.581,70.1,70.1,0,0,0-11.269-20.909c-7.427-9.434-20.661-20.587-41.591-20.023-16.883.439-30.509,6.815-40.5,18.953-19.725,23.963-18.723,62.73-18.71,63.119a.754.754,0,1,1-1.5.084c-.011-.2-1.194-20.532-10.594-28.371-3.663-3.056-8.159-3.832-13.359-2.306a.747.747,0,0,1-.91-.618.873.873,0,0,1,.539-1.043c5.657-1.659,10.573-.789,14.617,2.584,4.2,3.508,7.367,9.575,9.4,18.035.221.918.416,1.813.588,2.672.913-13.179,4.568-38,18.827-55.324,10.278-12.489,24.261-19.049,41.563-19.5,21.516-.535,35.136,10.915,42.778,20.641A73.046,73.046,0,0,1,138.96,203.4c1.089-4.755,4.095-14.422,11.306-20.029,5.245-4.081,11.7-5.178,19.17-3.258,24.334,6.246,23.648,42.844,23.17,51.141,3.9-2.457,15.984-8.872,26.47-1.934,12.1,8.01,17.477,30.73,15.969,67.529a.8.8,0,0,1-.747.817" transform="translate(0 -23.415)" fill="#3c3fa7"/>
              <path id="Trazado_685549" data-name="Trazado 685549" d="M355.267,308.163h-.025a.815.815,0,0,1-.723-.885,123.515,123.515,0,0,1,3.143-22.725c3.751-15.215,10.193-23.519,18.63-24.014a5.549,5.549,0,0,1,4.553,1.947c2.225,2.425,3.289,6.7,3.8,10.278,2.267-12.023,8.343-38.036,18.889-40.849,11.639-3.106,16.427,10.187,17.627,14.376,2.881-2.391,12.134-9.234,19.086-4.917,9.3,5.77,9.4,28.087,9.4,29.035a.756.756,0,1,1-1.5,0c0-.222-.1-22.243-8.619-27.528-7.288-4.525-18.2,5.405-18.311,5.507a.671.671,0,0,1-.71.143.825.825,0,0,1-.488-.609,29.952,29.952,0,0,0-3.5-8.539c-3.279-5.212-7.534-7.162-12.652-5.8-12.507,3.338-18.71,45.025-18.771,45.446a.773.773,0,0,1-.8.713.819.819,0,0,1-.686-.855c0-.11-.031-11.057-3.8-15.161a4.122,4.122,0,0,0-3.443-1.475c-18.869,1.107-20.34,44.643-20.353,45.083a.8.8,0,0,1-.747.829" transform="translate(-89.082 -33.06)" fill="#3c3fa7"/>
            </g>
          </g>
        </g>
        <g id="Grupo_988449" data-name="Grupo 988449" transform="translate(46.424)">
          <g id="Grupo_988442" data-name="Grupo 988442">
            <g id="Grupo_988441" data-name="Grupo 988441" clip-path="url(#clip-path-3)">
              <path id="Trazado_685550" data-name="Trazado 685550" d="M164.108,10.356S107.24-9.931,97.29,45.36s-4.781,75.122-14.466,85.6-21.393,14.433-.8,14.676,28.829,15.74,31.921-10.33-4.976-28.938,7.914-37.776S133.467,67.968,134.2,64.015" transform="translate(40.872 3.891)"/>
              <path id="Trazado_685551" data-name="Trazado 685551" d="M145.222,27.185s6.083-19.121-19.354-18.314Z" transform="translate(72.851 5.12)"/>
              <path id="Trazado_685552" data-name="Trazado 685552" d="M136,52.375c.772-1.569-3.364,22.292-3.364,22.292l-28,.352,7.442-36.827Z" transform="translate(60.562 22.106)" fill="#ed8c6b"/>
              <path id="Trazado_685553" data-name="Trazado 685553" d="M111.684,39.031,133.371,51.89c.368-.747-.376,4.264-1.257,9.721L109.178,41.4Z" transform="translate(63.191 22.591)"/>
              <path id="Trazado_685554" data-name="Trazado 685554" d="M140.122,10.081s19.861,7.056,20.99,29.642-4.391,33.723-26.92,31.843c-20.07-1.675-26.91-17.269-26.91-17.269l1.554-22.382,10.129-21.35Z" transform="translate(62.093 5.835)" fill="#ed8c6b"/>
              <path id="Trazado_685555" data-name="Trazado 685555" d="M134.6,31.217s-6.4-11.192-18.252-1.648c0,0,8.608,11.658,18.252,1.648" transform="translate(67.339 14.884)" fill="#fff"/>
              <path id="Trazado_685556" data-name="Trazado 685556" d="M132.975,31.736s1.827-12.308,12.346-8.227c0,0-.941,13.232-12.346,8.227" transform="translate(76.964 13.127)" fill="#fff"/>
              <path id="Trazado_685557" data-name="Trazado 685557" d="M133.482,36.652a1.1,1.1,0,0,1-.949-1.664l2.921-4.937-4.032.508a1.1,1.1,0,1,1-.275-2.187l6.261-.791a1.094,1.094,0,0,1,1.059.489,1.106,1.106,0,0,1,.028,1.167l-4.065,6.874a1.1,1.1,0,0,1-.949.54" transform="translate(75.347 15.958)"/>
              <path id="Trazado_685558" data-name="Trazado 685558" d="M119.866,23.025a1.1,1.1,0,0,1-.537-2.065c5.936-3.311,10.527-2.446,10.722-2.408a1.1,1.1,0,0,1,.865,1.295,1.117,1.117,0,0,1-1.29.868c-.055-.011-4.053-.709-9.225,2.169a1.089,1.089,0,0,1-.535.141" transform="translate(68.739 10.663)"/>
              <path id="Trazado_685559" data-name="Trazado 685559" d="M133.29,20.678a1.1,1.1,0,0,1-.816-1.841c.129-.139,3.175-3.413,7.3-2.3a1.106,1.106,0,0,1,.774,1.355,1.093,1.093,0,0,1-1.355.772c-2.823-.767-5,1.557-5.092,1.656a1.1,1.1,0,0,1-.812.355" transform="translate(76.508 9.439)"/>
              <path id="Trazado_685560" data-name="Trazado 685560" d="M122.1,20.028c-1.449-8.7,32.9,3.879,25.425-10.366,0,0-22.1-5.864-35.51,3.947S90.88,46.827,114.267,63.335l.276-13.123s10.889-10.194,7.558-30.185" transform="translate(57.455 4.586)"/>
              <path id="Trazado_685561" data-name="Trazado 685561" d="M116.81,33.1c-3.934-3.5-9.481-3.415-12.39.2s-2.076,9.387,1.857,12.892,9.482,3.415,12.39-.2,2.078-9.387-1.857-12.892" transform="translate(59.432 17.672)" fill="#ed8c6b"/>
              <path id="Trazado_685562" data-name="Trazado 685562" d="M114.025,39.051a1.1,1.1,0,0,1-.314-.046l-8.394-2.5a1.1,1.1,0,0,1,.63-2.114l8.393,2.5a1.1,1.1,0,0,1-.314,2.16" transform="translate(60.5 19.881)"/>
              <path id="Trazado_685563" data-name="Trazado 685563" d="M108.352,42.047a1.1,1.1,0,0,1-1.044-1.456l1.369-4.053a1.112,1.112,0,0,1,1.4-.692,1.1,1.1,0,0,1,.69,1.4L109.4,41.3a1.1,1.1,0,0,1-1.044.748" transform="translate(62.075 20.716)"/>
              <path id="Trazado_685564" data-name="Trazado 685564" d="M116.087,32.522a6.449,6.449,0,1,0,5.592-7.2,6.451,6.451,0,0,0-5.592,7.2" transform="translate(67.16 14.624)"/>
              <path id="Trazado_685565" data-name="Trazado 685565" d="M131.523,30.491c.494,3.93,3.639,6.768,7.022,6.342s5.725-3.956,5.23-7.886-3.639-6.768-7.022-6.342-5.725,3.956-5.231,7.886" transform="translate(76.086 13.059)"/>
              <path id="Trazado_685566" data-name="Trazado 685566" d="M127.143,37.571c.505-.723,4.051-1.579,8.592.125s3.857,3.6-.212,3.822c-2.359.128-9.651-2.13-8.38-3.947" transform="translate(73.503 21.244)"/>
            </g>
          </g>
          <g id="Grupo_988444" data-name="Grupo 988444" transform="translate(200.499 57.948)">
            <g id="Grupo_988443" data-name="Grupo 988443" clip-path="url(#clip-path-4)">
              <path id="Trazado_685567" data-name="Trazado 685567" d="M142.476,40.156a43.689,43.689,0,0,0-13.912-2.847c-6.961-.049,1.307,5.843,1.307,5.843L140.6,45.734Z" transform="translate(-127.701 -36.354)" fill="#fd521b"/>
            </g>
          </g>
          <g id="Grupo_988446" data-name="Grupo 988446">
            <g id="Grupo_988445" data-name="Grupo 988445" clip-path="url(#clip-path-3)">
              <path id="Trazado_685569" data-name="Trazado 685569" d="M165,316.335l38.856,80.644,77.185-63.652-9.509-13.077a14.319,14.319,0,0,0-19.782-3.317l-29.964,20.935-23-37.3Z" transform="translate(95.499 173.962)" fill="#5774cd"/>
              <path id="Trazado_685570" data-name="Trazado 685570" d="M103.92,292.7l-53.5,50.464,20.205,40.957a13.943,13.943,0,0,0,12.5,7.776h49.809l-.865-17.761a15.017,15.017,0,0,0-12.891-14.08l-13.75-1.948-6.5-13.428,33.786-29.672Z" transform="translate(29.185 169.413)" fill="#5774cd"/>
              <path id="Trazado_685571" data-name="Trazado 685571" d="M212.539,322.876,198.78,300.564,165,316.335l14.141,29.35Z" transform="translate(95.499 173.962)" fill="#ed8c6b"/>
              <path id="Trazado_685572" data-name="Trazado 685572" d="M93.326,339.122l27.454-24.11L91.973,292.7,71.064,312.43Z" transform="translate(41.131 169.413)" fill="#ed8c6b"/>
              <path id="Trazado_685573" data-name="Trazado 685573" d="M199.286,339.584a.874.874,0,0,1-.09-.006.616.616,0,0,1-.523-.7l2.872-20.106a.616.616,0,0,1,1.132-.243l8.465,13.434,1.478-16.441a.617.617,0,0,1,1.132-.279l6.361,9.847a.617.617,0,0,1-1.037.669l-5.388-8.342-1.479,16.476a.617.617,0,0,1-1.137.273l-8.543-13.557-2.635,18.443a.616.616,0,0,1-.608.53" transform="translate(114.986 182.295)"/>
              <path id="Trazado_685574" data-name="Trazado 685574" d="M211.2,300.423l-3.98-6.454L164,314.148l8.852,18.375Z" transform="translate(94.918 170.145)"/>
              <path id="Trazado_685575" data-name="Trazado 685575" d="M101.043,328.133l14.94-13.12L87.178,292.7l-7.826,7.381Z" transform="translate(45.928 169.413)"/>
              <path id="Trazado_685576" data-name="Trazado 685576" d="M186.809,378.5a.617.617,0,0,1-.384-1.1l76.8-60.835a.617.617,0,0,1,.767.966l-76.8,60.835a.608.608,0,0,1-.384.134" transform="translate(107.765 183.143)"/>
              <path id="Trazado_685577" data-name="Trazado 685577" d="M201.577,339.628a9.668,9.668,0,1,1-9.668-9.668,9.669,9.669,0,0,1,9.668,9.668" transform="translate(105.479 190.976)" fill="#fff"/>
              <path id="Trazado_685578" data-name="Trazado 685578" d="M80.426,323.66a8.884,8.884,0,1,1-8.884-8.884,8.883,8.883,0,0,1,8.884,8.884" transform="translate(36.266 182.188)" fill="#fff"/>
              <path id="Trazado_685579" data-name="Trazado 685579" d="M130.649,369.723H86.568a14.6,14.6,0,0,1-13.023-8.116L53.9,321.568a.567.567,0,1,1,1.018-.5l19.65,40.038a13.46,13.46,0,0,0,12.005,7.483h44.081a.567.567,0,1,1,0,1.134" transform="translate(31.16 185.646)"/>
              <path id="Trazado_685580" data-name="Trazado 685580" d="M156.212,124.225l105.1,265.711-66.11,33.9L93.069,141.6Z" transform="translate(53.867 71.9)" fill="#ff9fa3"/>
              <path id="Trazado_685581" data-name="Trazado 685581" d="M98.536,154.464s16.6,83.336,13.985,123.744c-3.915,60.45-46.468,104.561-46.468,104.561l60.695,48.571s64.874-78.016,62.624-148.742c-2.877-90.46-14.132-120.506-14.132-120.506l3.475-6.23L165,118.84,94.382,135.065Z" transform="translate(38.23 68.783)" fill="#ff9fa3"/>
              <path id="Trazado_685582" data-name="Trazado 685582" d="M155.767,316.468a.789.789,0,0,1-.362-1.49l62.544-32.21a.789.789,0,0,1,.722,1.4L156.129,316.38a.789.789,0,0,1-.362.088" transform="translate(89.699 163.611)"/>
              <path id="Trazado_685583" data-name="Trazado 685583" d="M81.886,399.75a.789.789,0,0,1-.644-1.246c.51-.718,50.982-72.63,54.893-131.874,2.045-30.966-5.529-68.327-12.242-94.216-7.28-28.079-15.147-49.092-15.226-49.3a.788.788,0,0,1,1.476-.554c.079.21,7.973,21.285,15.275,49.443,6.745,26.007,14.351,63.552,12.292,94.733-3.941,59.692-54.669,131.96-55.18,132.683a.786.786,0,0,1-.644.333" transform="translate(46.938 70.637)"/>
              <path id="Trazado_685584" data-name="Trazado 685584" d="M132.275,326.7a.784.784,0,0,1-.5-.18l-59.1-48.785a.789.789,0,0,1,1.006-1.217l59.1,48.783a.789.789,0,0,1-.5,1.4" transform="translate(41.894 159.942)"/>
              <path id="Trazado_685585" data-name="Trazado 685585" d="M133.475,57.324s35.452,22.008,39.541,71.47c3.36,40.616-20.45,39.792-33.166,42.062-14.6,2.607-51.939,10.112-51.939,10.112L93.347,67.926Z" transform="translate(50.882 33.178)" fill="#d7e5ff"/>
              <path id="Trazado_685586" data-name="Trazado 685586" d="M147.2,76.764s5.444-9.031-2.343-16.817c-5.212-5.212-33.025-19.118-49.013-8.606s-12.4,25.07-2.806,29.675S147.2,76.764,147.2,76.764" transform="translate(49.107 27.499)" fill="#d7e5ff"/>
              <path id="Trazado_685587" data-name="Trazado 685587" d="M118.389,160.289l-1.434,55.374s13.194,17.78,8.983,33.892-9.362,4.182-9.362,4.182-25.118-8.6-28.969-16.975c-1.288-2.8,4.44-16.179,4.511-21.915.049-3.846-1.857-45.914-1.857-45.914Z" transform="translate(50.597 92.773)" fill="#ed8c6b"/>
              <path id="Trazado_685588" data-name="Trazado 685588" d="M109.911,231.138l4.826-16.127a5.131,5.131,0,0,0-3.548-6.342,5.015,5.015,0,0,0-6.364,3.656l-3.652,16.445a4.543,4.543,0,0,0,3.525,5.371,4.42,4.42,0,0,0,5.212-3" transform="translate(58.498 120.651)" fill="#ed8c6b"/>
              <path id="Trazado_685589" data-name="Trazado 685589" d="M95.183,228.67l4.64-19.6a4.63,4.63,0,0,1,4.74-3.5l.463.017a4.789,4.789,0,0,1,4.561,5.878l-5.1,19.585A4.668,4.668,0,0,1,99,234.361a4.765,4.765,0,0,1-3.821-5.692" transform="translate(55.02 118.976)" fill="#ed8c6b"/>
              <path id="Trazado_685590" data-name="Trazado 685590" d="M93.829,228.42h0a4.027,4.027,0,0,0,4.539-2.955l3.571-12.914a4.439,4.439,0,0,0-2.45-5.212L98.5,206.9a4.038,4.038,0,0,0-5.628,2.984l-2.586,13.35a4.408,4.408,0,0,0,3.54,5.183" transform="translate(52.212 119.546)" fill="#ed8c6b"/>
              <path id="Trazado_685591" data-name="Trazado 685591" d="M89.942,223.375h0a3.49,3.49,0,0,0,3.429-2.526l2.739-10.72a3.293,3.293,0,0,0-2.575-3.96l-1.184-.281a3.53,3.53,0,0,0-4.387,2.757l-1.557,11a3.394,3.394,0,0,0,3.535,3.729" transform="translate(49.993 119.105)" fill="#ed8c6b"/>
              <path id="Trazado_685592" data-name="Trazado 685592" d="M97.7,212.113a.54.54,0,0,1,.7-.336.6.6,0,0,1,.358.733c-.2.639-2.21,8.369-3.243,12.367a.538.538,0,0,1-.68.388.592.592,0,0,1-.395-.712c.122-.474,3-11.6,3.259-12.425l0-.014" transform="translate(54.648 122.555)"/>
              <path id="Trazado_685593" data-name="Trazado 685593" d="M103.449,213.692a.536.536,0,0,1,.7-.335.59.59,0,0,1,.357.733c-.226.709-2.36,9.684-3.458,14.331a.54.54,0,0,1-.671.4.594.594,0,0,1-.41-.7c.131-.549,3.186-13.488,3.481-14.416l0-.013" transform="translate(57.848 123.469)"/>
              <path id="Trazado_685594" data-name="Trazado 685594" d="M92.392,209.988a.539.539,0,0,1,.709-.332.594.594,0,0,1,.341.74c-.283.827-1.8,7.458-2.569,10.849a.542.542,0,0,1-.668.411.592.592,0,0,1-.417-.7c.092-.4,2.229-9.877,2.6-10.968v0" transform="translate(51.96 121.325)"/>
              <path id="Trazado_685595" data-name="Trazado 685595" d="M111.028,212.324c.178-.516.529-.886.816-.843.311.047.433.554.27,1.134l-3.988,14.31c-.159.576-.545,1.01-.854.963s-.431-.554-.27-1.134l3.988-14.309c.011-.041.024-.082.038-.122" transform="translate(61.89 122.4)"/>
              <path id="Trazado_685596" data-name="Trazado 685596" d="M112.37,281.076s24.048-3.118,27.532-30.987,21.064-113.867,15.482-151.327c-4.136-27.742-17.356-42.256-37.027-39.768-22.9,2.9-26.923,29.118-31.884,76.513-5.654,54.026-5.8,84.8-6.921,103.224-2.147,35.2,20.763,40.109,20.763,40.109Z" transform="translate(45.961 33.986)" fill="#d7e5ff"/>
              <path id="Trazado_685597" data-name="Trazado 685597" d="M142.525,71.063a.783.783,0,0,1-.5-.175c-.279-.226-28.139-22.285-47.754-2a.788.788,0,1,1-1.132-1.1c20.621-21.329,49.587,1.632,49.877,1.866a.789.789,0,0,1-.5,1.4" transform="translate(53.781 33.99)"/>
              <path id="Trazado_685598" data-name="Trazado 685598" d="M138.86,328.731a.811.811,0,0,1-.27-.047.788.788,0,0,1-.472-1.012c7.678-21.11,11.285-40.736,10.725-58.333-2.84-89.295-13.969-119.955-14.081-120.253a.79.79,0,0,1,.051-.661l3.473-6.227a.788.788,0,1,1,1.378.766l-3.3,5.92c1.236,3.642,11.372,35.932,14.059,120.406.567,17.8-3.074,37.622-10.819,58.922a.79.79,0,0,1-.742.519" transform="translate(77.969 82.066)"/>
              <path id="Trazado_685599" data-name="Trazado 685599" d="M130.887,168.9c-.019,0-.035,0-.052,0a.79.79,0,0,1-.737-.838c.036-.578,3.709-57.971,1.833-75.935-1.767-16.937-10.107-27.627-15.189-29.519a.79.79,0,1,1,.553-1.481c5.611,2.09,14.35,13.038,16.206,30.837,1.891,18.094-1.79,75.619-1.827,76.2a.79.79,0,0,1-.786.739" transform="translate(67.271 35.348)"/>
              <path id="Trazado_685600" data-name="Trazado 685600" d="M137.822,117.063s15.118-15.568,26.89-15.567c7.035,0,11.767-.123,14.436-.223a3.728,3.728,0,0,0,3.238-3.265,2.8,2.8,0,0,0-1.8-3.382,51.716,51.716,0,0,0-22.663,0c-10.8,2.554-27.272,16.656-27.272,16.656Z" transform="translate(75.619 54.038)" fill="#ed8c6b"/>
              <path id="Trazado_685601" data-name="Trazado 685601" d="M144.95,110.04s12.768-13.118,24.539-13.117c7.575,0,12.48-.144,15.014-.246a2.924,2.924,0,0,0,2.534-2.562c.365-1.978-.636-3.846-2.251-4.19a51.714,51.714,0,0,0-22.086.131c-10.8,2.554-27.272,16.656-27.272,16.656Z" transform="translate(78.384 51.391)" fill="#ed8c6b"/>
              <path id="Trazado_685602" data-name="Trazado 685602" d="M147.371,106.286S160.138,93.168,171.91,93.17c7.578,0,12.485-.144,15.019-.246a2.924,2.924,0,0,0,2.529-2.558c.365-1.981-.638-3.851-2.256-4.195a51.667,51.667,0,0,0-22.081.131c-10.8,2.554-27.272,16.658-27.272,16.658Z" transform="translate(79.785 49.218)" fill="#ed8c6b"/>
              <path id="Trazado_685603" data-name="Trazado 685603" d="M133.8,123.817s27.883-32.607,38.958-34.634c7.133-1.306,13.944-1.609,16.317-2.142a3.048,3.048,0,0,0,2.108-2.85c.137-1.95-.961-3.584-2.518-3.739-4.921-.486-15.553-.913-24.616,3.006-9.9,4.279-36.852,31.53-36.852,31.53Z" transform="translate(73.617 46.387)" fill="#ed8c6b"/>
              <path id="Trazado_685604" data-name="Trazado 685604" d="M162.711,92.558l6.9-10.842c1.4-2.207,1.086-5.264-.7-6.748a3.142,3.142,0,0,0-4.541.641c-2.2,2.665-28.9,29.005-28.9,29.005l-12.338,18.448,34.138-15.647Z" transform="translate(71.265 42.983)" fill="#ed8c6b"/>
              <path id="Trazado_685605" data-name="Trazado 685605" d="M148.978,95.047a.581.581,0,0,0-.033.251c.022.249.2.409.4.355a48.28,48.28,0,0,1,21.066-.849.481.481,0,0,0,.2-.911,48.944,48.944,0,0,0-21.342.857.46.46,0,0,0-.292.3" transform="translate(86.206 53.891)"/>
              <path id="Trazado_685606" data-name="Trazado 685606" d="M148.887,92.165a.579.579,0,0,0-.016.347.365.365,0,0,0,.505.272,29.507,29.507,0,0,1,5.606-2.052,53.874,53.874,0,0,1,22.4-.272,2.979,2.979,0,0,1,1.558,1.183.352.352,0,0,0,.564.03.563.563,0,0,0,.06-.684,3.725,3.725,0,0,0-1.994-1.481,54.58,54.58,0,0,0-22.7.275,30.372,30.372,0,0,0-5.748,2.1.483.483,0,0,0-.242.279" transform="translate(86.153 51.191)"/>
              <path id="Trazado_685607" data-name="Trazado 685607" d="M148.991,88.43a.458.458,0,0,0,0,.32.359.359,0,0,0,.486.219,32.324,32.324,0,0,1,7.744-2.742,48.507,48.507,0,0,1,10.889-.579.388.388,0,0,0,.382-.4.4.4,0,0,0-.36-.431,49.064,49.064,0,0,0-11.037.59,33,33,0,0,0-7.913,2.8.387.387,0,0,0-.2.224" transform="translate(86.218 49.053)"/>
              <path id="Trazado_685608" data-name="Trazado 685608" d="M146.554,85.136a.57.57,0,0,0,0,.4.352.352,0,0,0,.532.189c1.269-.815,8.2-3.483,8.267-3.511a.539.539,0,0,0,.289-.608.369.369,0,0,0-.488-.309c-.287.111-7.07,2.723-8.409,3.582a.506.506,0,0,0-.194.254" transform="translate(84.803 47.041)"/>
              <path id="Trazado_685609" data-name="Trazado 685609" d="M141.392,96.33c-.008.065-.016.129-.021.194-.009.134.158.279.374.327s.4-.025.41-.158c0-.06.011-.122.019-.182.548-4.22,8.72-6.76,8.8-6.786.172-.052.2-.2.068-.333a.618.618,0,0,0-.553-.144,25.476,25.476,0,0,0-4.414,1.9c-1.991,1.1-4.391,2.886-4.687,5.182" transform="translate(81.823 51.646)"/>
              <path id="Trazado_685610" data-name="Trazado 685610" d="M78.312,297.843a.592.592,0,0,1-.355-1.067l6.985-5.216-12.8-4.072a.592.592,0,0,1-.087-1.094l5.93-2.973-26-24.929a.591.591,0,0,1-.118-.693.6.6,0,0,1,.627-.317l34.28,5.838L60.555,245.6a.592.592,0,1,1,.663-.98l28.488,19.252a.594.594,0,0,1,.218.712.6.6,0,0,1-.649.363L54.2,258.973l25.208,24.174a.591.591,0,0,1-.144.957l-5.38,2.7L86.4,290.778a.593.593,0,0,1,.175,1.04l-7.9,5.908a.6.6,0,0,1-.355.117" transform="translate(29.982 141.524)"/>
              <path id="Trazado_685611" data-name="Trazado 685611" d="M96.7,20.823S103.333-.132,79.561,2.861Z" transform="translate(46.049 1.487)" fill="#ffb6c8"/>
              <path id="Trazado_685612" data-name="Trazado 685612" d="M48.884,41.361C46.461,22.119,55.575,6.713,72.8,2.03c29.4-7.995,43.881,8.911,46.3,28.151S111.066,73.308,93.22,73.363c-22.626.068-41.912-12.761-44.335-32" transform="translate(28.07 0)" fill="#ffb6c8"/>
              <path id="Trazado_685613" data-name="Trazado 685613" d="M66.772,270.691,31.941,285.3l-11.377-23.77,39.07-21.67Z" transform="translate(11.902 138.824)" fill="#ed8c6b"/>
              <path id="Trazado_685614" data-name="Trazado 685614" d="M33.662,248.506l10.182,27.071,15.349-6.435L55.3,252.336l-10.868-9.8Z" transform="translate(19.483 140.374)"/>
              <path id="Trazado_685615" data-name="Trazado 685615" d="M106.054,310.69l9.6,35.19-25.5,7.581L76.117,313.614Z" transform="translate(44.056 179.823)" fill="#ed8c6b"/>
              <path id="Trazado_685616" data-name="Trazado 685616" d="M112.7,146.179S163.747,252.9,155.934,279.226c-10.349,34.867-88.666,68.455-88.666,68.455L32.621,292.605l53.05-35.483L67.465,229.111l25.99-96.92Z" transform="translate(18.881 76.51)" fill="#ffc849"/>
              <path id="Trazado_685617" data-name="Trazado 685617" d="M109.928,324.888l-3.874-14.2-29.937,2.922,5.373,15.256c8,.352,18.77-.174,28.439-3.98" transform="translate(44.055 179.823)"/>
              <path id="Trazado_685618" data-name="Trazado 685618" d="M45.314,196.956s-25.229,19.515-37.891-6.533,2.035-88.047,11.62-105.406C34.185,57.592,61.589,63.508,61.589,63.508Z" transform="translate(1.452 36.446)"/>
              <path id="Trazado_685619" data-name="Trazado 685619" d="M79.494,75.173s6.909-14.921-3.581-21.64-10.99-2.392-10.99-2.392Z" transform="translate(37.576 28.806)" fill="#fd521b"/>
              <path id="Trazado_685620" data-name="Trazado 685620" d="M71.2,57.844A17.674,17.674,0,0,1,89.781,69.037c5.638,13.262,21.077,62.616,21.077,62.616l58.418-32.326,18.578,36.393s-67.007,70.79-94.869,51.525S71.2,57.844,71.2,57.844" transform="translate(40.884 33.412)" fill="#6b8dfc"/>
              <path id="Trazado_685621" data-name="Trazado 685621" d="M28.816,149.1S48.065,299.242,92.73,422.267c0,0,39.692,8.069,61.9-11.2l-54.3-234,6.391-8.115L94.154,138.572Z" transform="translate(16.678 80.203)" fill="#ffc849"/>
              <path id="Trazado_685622" data-name="Trazado 685622" d="M112.415,92.263s14.526,97.389.95,108.966-86.966.12-87.485-9.129,2.082-28.832,2.082-28.832l4.351-51.535,43.238-55.7L99.7,59.295Z" transform="translate(14.939 32.433)" fill="#6b8dfc"/>
              <path id="Trazado_685623" data-name="Trazado 685623" d="M88.788,130.754l-62.73,24.967-.83-15.223L83.2,123.522Z" transform="translate(14.601 71.493)"/>
              <path id="Trazado_685624" data-name="Trazado 685624" d="M104.614,58.493s-24.3-11.372-57.888,14.132-62.67,82.2-36.789,93.843,81.549,7.338,81.549,7.338l8.243-32.763-46.858-8.069,23.278-24.326Z" transform="translate(0 32.393)" fill="#6b8dfc"/>
              <path id="Trazado_685625" data-name="Trazado 685625" d="M76.7,147.807,51.029,56.884l4.629-.938,27.637,89.606Z" transform="translate(29.535 32.381)"/>
              <path id="Trazado_685626" data-name="Trazado 685626" d="M88.687,56.194s-22.059-13.45-33.84-8.86-9.885,17.717-9.885,17.717,15.316-6.865,45.671,12.5Z" transform="translate(25.958 26.844)" fill="#6b8dfc"/>
              <path id="Trazado_685627" data-name="Trazado 685627" d="M87.69,50.229,84.562,64.842,82.226,75.766l-10.2-11.134-12.806-9,4.462-19.417Z" transform="translate(34.276 20.962)" fill="#ed8c6b"/>
              <path id="Trazado_685628" data-name="Trazado 685628" d="M83.167,64.363l3.025-14.135L62.182,36.217l-.373,1.621Z" transform="translate(35.774 20.962)"/>
              <path id="Trazado_685629" data-name="Trazado 685629" d="M90.988,186.037a.593.593,0,0,1-.592-.584c-.009-.745-1.044-74.785-6.5-95.821-2.182-8.42-9.7-27.791-9.774-27.986a.593.593,0,0,1,1.105-.429c.074.2,7.618,19.631,9.815,28.118,5.486,21.173,6.524,95.357,6.533,96.1a.592.592,0,0,1-.584.6Z" transform="translate(42.88 35.213)"/>
              <path id="Trazado_685630" data-name="Trazado 685630" d="M50.65,155.905c-8.289,0-17.112-.224-24.054-.944a.592.592,0,1,1,.123-1.178c16.981,1.762,45.357.537,49.215.357l7.981-31.719-46.23-7.962a.59.59,0,0,1-.327-.991L60.636,89.143a.591.591,0,1,1,.854.816L38.981,113.482l45.764,7.881a.589.589,0,0,1,.472.728l-8.243,32.765a.594.594,0,0,1-.545.447c-.194.009-12.275.6-25.78.6" transform="translate(15.086 51.489)"/>
              <path id="Trazado_685631" data-name="Trazado 685631" d="M40.321,106.317a.508.508,0,0,1-.068,0l-18.047-2.089a.59.59,0,0,1-.519-.655.582.582,0,0,1,.655-.519l18.047,2.089a.592.592,0,0,1-.068,1.179" transform="translate(12.549 59.641)"/>
              <path id="Trazado_685632" data-name="Trazado 685632" d="M73.108,66.479a.593.593,0,0,1-.347-1.074,10.184,10.184,0,0,0,3.83-7.041.591.591,0,0,1,1.181.062,11.192,11.192,0,0,1-4.318,7.943.6.6,0,0,1-.346.11" transform="translate(41.971 33.455)"/>
              <path id="Trazado_685633" data-name="Trazado 685633" d="M89.3,71.5a.629.629,0,0,1-.208-.036,226.958,226.958,0,0,0-24.359-6.936C51.363,61.394,45.444,63.974,45.385,64a.593.593,0,0,1-.5-1.077c.248-.114,6.282-2.793,20.111.45,12.024,2.821,20.227,5.5,23.232,6.531C81.859,55.653,65.594,50.335,65.425,50.281a.592.592,0,0,1,.358-1.129c.178.057,17.891,5.838,24.064,21.541a.591.591,0,0,1-.551.808" transform="translate(25.783 28.433)"/>
              <path id="Trazado_685634" data-name="Trazado 685634" d="M81.684,110.348,65.6,105.923a4.881,4.881,0,0,0-6.023,3.759,5.236,5.236,0,0,0,3.945,6.328l16.334,3.23a4.33,4.33,0,0,0,5.069-3.712,4.622,4.622,0,0,0-3.238-5.18" transform="translate(34.403 61.207)" fill="#ed8c6b"/>
              <path id="Trazado_685635" data-name="Trazado 685635" d="M80.4,125.6l-19.487-4.141a4.82,4.82,0,0,1-3.7-4.687l-.009-.469a4.593,4.593,0,0,1,5.508-4.771l19.5,4.61a4.876,4.876,0,0,1,3.562,5.441A4.545,4.545,0,0,1,80.4,125.6" transform="translate(33.109 64.483)" fill="#ed8c6b"/>
              <path id="Trazado_685636" data-name="Trazado 685636" d="M79.249,125.542h0a4.2,4.2,0,0,0-3.154-4.5l-12.867-3.248a4.2,4.2,0,0,0-4.973,2.621l-.371,1.007a4.2,4.2,0,0,0,3.243,5.6l13.238,2.24a4.2,4.2,0,0,0,4.885-3.72" transform="translate(33.35 68.102)" fill="#ed8c6b"/>
              <path id="Trazado_685637" data-name="Trazado 685637" d="M74.938,129.122h0a3.641,3.641,0,0,0-2.671-3.391L61.6,123.26a3.143,3.143,0,0,0-3.739,2.714l-.208,1.2a3.675,3.675,0,0,0,2.949,4.354L71.479,132.8a3.274,3.274,0,0,0,3.459-3.675" transform="translate(33.333 71.297)" fill="#ed8c6b"/>
              <path id="Trazado_685638" data-name="Trazado 685638" d="M60.531,111.361l.014-.017a.4.4,0,0,1,.57-.047,7.263,7.263,0,0,0,2.627,1.165L81,116.077a6.916,6.916,0,0,1,3.975,2.888,4.533,4.533,0,0,1,.213,3.7c-1.662,5.066-8.934,3.107-9.387,2.979L65.48,123.65c-.777-.152-4.956-1.167-6.009-1.5a.4.4,0,0,1,.245-.77c1.036.33,5.153,1.329,5.917,1.478l10.335,2a.179.179,0,0,1,.039.009c.069.021,6.947,2.008,8.41-2.45a3.757,3.757,0,0,0-.156-3.064,6.171,6.171,0,0,0-3.451-2.487l-17.229-3.611a8.009,8.009,0,0,1-2.989-1.339.406.406,0,0,1-.062-.553" transform="translate(34.258 64.361)"/>
              <path id="Trazado_685639" data-name="Trazado 685639" d="M58.657,125.323a.4.4,0,0,1,.445-.141c1.023.325,7.363,1.5,8.431,1.656,1,.144,4.242.737,4.38.763.06.011,6.105,1.044,6.827-2.859a3.09,3.09,0,0,0-1.689-3.352,7.838,7.838,0,0,0-2.3-.919.4.4,0,1,1,.156-.793c1.865.366,5.231,1.926,4.624,5.21-.695,3.756-5.384,3.937-7.768,3.508-.035-.006-3.366-.617-4.35-.758-1-.144-7.446-1.333-8.56-1.688a.4.4,0,0,1-.2-.628" transform="translate(33.902 69.264)"/>
              <path id="Trazado_685640" data-name="Trazado 685640" d="M62.879,105.549a.4.4,0,0,1,.42-.148c.1.027,10.4,2.6,14.58,3.688,4.4,1.146,6.576,3.726,5.955,7.078-.74,4.012-4.965,4.075-5.008,4.075a.4.4,0,0,1,0-.808c.148,0,3.6-.066,4.219-3.413.542-2.924-1.364-5.107-5.365-6.148-4.176-1.088-14.468-3.661-14.572-3.686a.405.405,0,0,1-.294-.491.4.4,0,0,1,.069-.145" transform="translate(36.346 60.997)"/>
              <path id="Trazado_685641" data-name="Trazado 685641" d="M56.677,40.051c-2.406-19.1,4.506-31.959,21.538-35.4C99.244.4,114.544,14.091,116.949,33.194s-4.686,39.621-22.062,39.632c-22.029.014-35.8-13.672-38.21-32.776" transform="translate(32.535 2.24)" fill="#ed8c6b"/>
              <path id="Trazado_685642" data-name="Trazado 685642" d="M99.5,29.487S96.789,14,80.471,22.368c0,0,7.16,9.76,19.024,7.119" transform="translate(46.575 11.51)" fill="#fff"/>
              <path id="Trazado_685643" data-name="Trazado 685643" d="M103.488,23.551l-9.024,3.267L93.97,39.206Z" transform="translate(54.388 13.631)" fill="#ed8c6b"/>
              <path id="Trazado_685644" data-name="Trazado 685644" d="M78.827,4.762C61.795,8.2,53.149,20.925,55.555,40.03c.9,7.158,4.035,18.726,7.967,23.926l9.345-26.974c11.967.887,13.388-15.131,13.388-15.131C99.482,21.1,99.433,10.71,98.233,5.354,92.677,3.126,86,3.312,78.827,4.762" transform="translate(31.925 2.127)" fill="#ffb6c8"/>
              <path id="Trazado_685645" data-name="Trazado 685645" d="M83.1,17.841c.485,1.111,3.107,1.04,5.857-.159s4.586-3.071,4.1-4.182-3.105-1.039-5.856.159-4.588,3.071-4.1,4.182" transform="translate(48.053 7.357)"/>
              <path id="Trazado_685646" data-name="Trazado 685646" d="M99.327,25.3c.537,4.256-2.063,8.09-5.807,8.56s-7.212-2.6-7.747-6.854,2.063-8.09,5.807-8.56,7.21,2.6,7.747,6.854" transform="translate(49.603 10.649)"/>
              <path id="Trazado_685647" data-name="Trazado 685647" d="M75.5,26.354c-2.861-4.863-8.71-6.727-13.063-4.165s-5.565,8.581-2.7,13.442S68.446,42.358,72.8,39.8s5.564-8.581,2.7-13.442" transform="translate(33.677 12.178)" fill="#ed8c6b"/>
              <path id="Trazado_685648" data-name="Trazado 685648" d="M69.636,31.7a.918.918,0,0,1-.521-.163l-7.9-5.433a.917.917,0,1,1,1.042-1.509l7.9,5.433a.917.917,0,0,1-.521,1.672" transform="translate(35.2 14.14)"/>
              <path id="Trazado_685649" data-name="Trazado 685649" d="M63.141,32.5a.9.9,0,0,1-.581-.208A.917.917,0,0,1,62.432,31l2.9-3.54a.917.917,0,1,1,1.419,1.162l-2.9,3.54a.913.913,0,0,1-.709.336" transform="translate(36.015 15.699)"/>
              <path id="Trazado_685650" data-name="Trazado 685650" d="M83.884,339.117l-.264,30.235a3.812,3.812,0,0,0,4.468,3.789l80.483-14.053a5.794,5.794,0,0,0,4.686-6.833L172,345.91a16.131,16.131,0,0,0-17.687-12.884l-26.524,3.088-17.51-5.537Z" transform="translate(48.398 191.333)" fill="#d7e5ff"/>
              <path id="Trazado_685651" data-name="Trazado 685651" d="M124.928,345.342a.494.494,0,0,1-.494-.491l-.06-7.283-9.073,6.609a.495.495,0,0,1-.778-.483l.933-5.463-29.64,5.175a.5.5,0,0,1-.429-.843l20.881-20.191-24.893,8.892a.5.5,0,0,1-.333-.933l27.049-9.661a.494.494,0,0,1,.51.821L87.231,342.157l28.745-5.019a.5.5,0,0,1,.573.57l-.846,4.954,8.866-6.459a.507.507,0,0,1,.515-.043.5.5,0,0,1,.272.439l.066,8.244a.5.5,0,0,1-.489.5Z" transform="translate(46.715 185.582)"/>
              <path id="Trazado_685652" data-name="Trazado 685652" d="M98.341,325.084a.494.494,0,0,1-.38-.178.489.489,0,0,1-.081-.494c.122-.319,3.066-7.813,7.9-9.428a5.994,5.994,0,0,1,5.254.756c1.419.884,2.043,1.852,1.854,2.872-.688,3.705-13.046,6.192-14.452,6.464a.48.48,0,0,1-.093.009m9.26-9.413a4.761,4.761,0,0,0-1.508.249c-3.492,1.167-6.018,6.014-6.925,8,5.073-1.072,12.345-3.328,12.746-5.486.107-.581-.365-1.2-1.4-1.852a5.479,5.479,0,0,0-2.91-.908" transform="translate(56.631 182.131)"/>
              <path id="Trazado_685653" data-name="Trazado 685653" d="M113.544,330.059c-4.875,0-14.56-6.891-15.785-7.777a.495.495,0,0,1,.1-.859c.379-.153,9.35-3.734,14.708-.841a7.125,7.125,0,0,1,3.62,5.169c.384,1.929.065,3.24-.95,3.889a3.093,3.093,0,0,1-1.7.42M99.1,322.023c4.108,2.869,13.064,8.412,15.6,6.784.638-.409.81-1.372.513-2.864a6.172,6.172,0,0,0-3.118-4.49c-4.039-2.18-10.644-.242-13,.57" transform="translate(56.463 184.897)"/>
              <path id="Trazado_685654" data-name="Trazado 685654" d="M83.825,358.763a.495.495,0,0,1-.085-.982l89.044-15.548a.494.494,0,1,1,.171.974L83.91,358.755a.532.532,0,0,1-.085.008" transform="translate(48.231 198.075)"/>
              <path id="Trazado_685655" data-name="Trazado 685655" d="M37.789,250.128,6.815,252.935a3.922,3.922,0,0,0-3.423,4.959l22.573,80.944a5.958,5.958,0,0,0,7.469,4.1L39.8,341A16.59,16.59,0,0,0,51.19,321.592l-5.859-26.833,3.885-18.486Z" transform="translate(1.879 144.77)" fill="#d7e5ff"/>
              <path id="Trazado_685656" data-name="Trazado 685656" d="M28.606,293.283a.52.52,0,0,1-.055-1.037l7.427-.8-7.673-8.6a.52.52,0,0,1-.081-.576.5.5,0,0,1,.5-.289l5.671.4-8.309-29.795a.52.52,0,0,1,.837-.535l22.75,19.282L38.067,246.808a.52.52,0,1,1,.939-.445l12.64,26.7a.523.523,0,0,1-.153.636.516.516,0,0,1-.652-.017L27.546,253.941,35.6,282.812a.527.527,0,0,1-.1.469.508.508,0,0,1-.44.189l-5.129-.36,7.494,8.4a.52.52,0,0,1-.332.864l-8.434.908-.055,0" transform="translate(15.089 142.419)"/>
              <path id="Trazado_685657" data-name="Trazado 685657" d="M49.936,277.8c-.058,0-.115,0-.174-.008-3.873-.327-7.676-12.728-8.1-14.141A.521.521,0,0,1,42.3,263c.339.093,8.314,2.345,10.461,7.133a6.165,6.165,0,0,1-.24,5.464c-.72,1.462-1.59,2.2-2.586,2.2m-6.983-13.5c1.614,5.077,4.654,12.267,6.9,12.455.592.068,1.187-.491,1.741-1.617a5.191,5.191,0,0,0,.224-4.578c-1.541-3.435-6.727-5.527-8.862-6.26" transform="translate(24.103 152.208)"/>
              <path id="Trazado_685658" data-name="Trazado 685658" d="M40.349,282.509a2.566,2.566,0,0,1-2.139-.914c-2.862-3.612,4.86-17.125,5.75-18.652a.544.544,0,0,1,.461-.259.521.521,0,0,1,.45.276c.2.373,4.774,9.193,2.359,14.979a7.338,7.338,0,0,1-4.929,4.236,6.792,6.792,0,0,1-1.951.333m4.023-18.188c-2.52,4.5-7.267,14.2-5.347,16.629q.725.907,2.973.23a6.334,6.334,0,0,0,4.271-3.641c1.811-4.334-.823-10.873-1.9-13.219" transform="translate(21.749 152.038)"/>
              <path id="Trazado_685659" data-name="Trazado 685659" d="M33.49,341.917a.519.519,0,0,1-.5-.381L8.015,251.981a.52.52,0,1,1,1-.279l24.975,89.555a.523.523,0,0,1-.363.641.468.468,0,0,1-.139.019" transform="translate(4.628 145.461)"/>
              <path id="Trazado_685660" data-name="Trazado 685660" d="M58.905,289.967a.593.593,0,0,1-.575-.452L43.1,226.91a.592.592,0,1,1,1.151-.281L59.48,289.235a.592.592,0,0,1-.434.715.545.545,0,0,1-.141.017" transform="translate(24.933 130.907)"/>
              <path id="Trazado_685661" data-name="Trazado 685661" d="M104.9,298.448a.592.592,0,0,1-.578-.458L73.758,166.278a.594.594,0,0,1,.112-.5l6.388-8.115a.592.592,0,1,1,.93.734l-6.213,7.891,30.5,131.434a.592.592,0,0,1-.44.71.573.573,0,0,1-.134.016" transform="translate(42.682 91.124)"/>
              <path id="Trazado_685662" data-name="Trazado 685662" d="M83.026,34.2c-.207-4.6,16.426,2.136,13.2,5.412-3.761,3.816-12.973-.39-13.2-5.412" transform="translate(48.053 18.895)"/>
            </g>
          </g>
          <g id="Grupo_988448" data-name="Grupo 988448" transform="translate(131.077 51.539)">
            <g id="Grupo_988447" data-name="Grupo 988447" clip-path="url(#clip-path-6)">
              <path id="Trazado_685663" data-name="Trazado 685663" d="M101.223,35.759s-12.447-2.944-18.647-1.386-1.13,10.406-1.13,10.406l19.16,4.425,4.762-12.221Z" transform="translate(-85.067 -31.908)" fill="#fd521b"/>
            </g>
          </g>
        </g>
      </g>
    </g>
  </g>
</svg>
