<svg xmlns="http://www.w3.org/2000/svg" width="47.798" height="47.799" viewBox="0 0 47.798 47.799">
  <g id="idea_2_" data-name="idea (2)" transform="translate(0)">
    <path id="Trazado_609527" data-name="Trazado 609527" d="M75.982,55.931H43.867A1.867,1.867,0,0,1,42,54.064v-42.2A1.867,1.867,0,0,1,43.867,10H75.982a1.867,1.867,0,0,1,1.867,1.867v42.2A1.867,1.867,0,0,1,75.982,55.931Zm0,0" transform="translate(-38.079 -9.066)" fill="#f6f6f6"/>
    <path id="Trazado_609528" data-name="Trazado 609528" d="M428.769,72.962H426V64h2.769a1.712,1.712,0,0,1,1.712,1.711V71.25A1.711,1.711,0,0,1,428.769,72.962Zm0,0" transform="translate(-386.23 -58.025)" fill="#fed947"/>
    <path id="Trazado_609529" data-name="Trazado 609529" d="M428.769,168.962H426V160h2.769a1.712,1.712,0,0,1,1.712,1.711v5.539a1.711,1.711,0,0,1-1.712,1.712Zm0,0" transform="translate(-386.23 -145.063)" fill="#6b8dfc"/>
    <path id="Trazado_609530" data-name="Trazado 609530" d="M428.769,264.962H426V256h2.769a1.712,1.712,0,0,1,1.712,1.711v5.539A1.711,1.711,0,0,1,428.769,264.962Zm0,0" transform="translate(-386.23 -232.101)" fill="#ffbfc1"/>
    <path id="Trazado_609531" data-name="Trazado 609531" d="M153.079,165.951a9.279,9.279,0,1,0-14.363,7.763,3.386,3.386,0,0,1,1.474,2.212h7.221a3.355,3.355,0,0,1,1.456-2.2,9.271,9.271,0,0,0,4.213-7.775Zm0,0" transform="translate(-121.962 -142.045)" fill="#ffe07d"/>
    <path id="Trazado_609532" data-name="Trazado 609532" d="M200.5,369.092h-3.3a1.96,1.96,0,0,0-1.96-1.96v-4.211h7.221v4.211A1.96,1.96,0,0,0,200.5,369.092Zm0,0" transform="translate(-177.015 -329.04)" fill="#b0aeed"/>
    <path id="Trazado_609533" data-name="Trazado 609533" d="M300.832,297.123l11.309,11.308a2.614,2.614,0,1,1-3.7,3.7L297.135,300.82l-3.7-7.4Zm0,0" transform="translate(-266.04 -266.029)" fill="#00ccf2"/>
    <path id="Trazado_609534" data-name="Trazado 609534" d="M297.131,300.82l3.7-3.7-7.4-3.7Zm0,0" transform="translate(-266.036 -266.029)" fill="#fff"/>
    <path id="Trazado_609535" data-name="Trazado 609535" d="M440.6,444.287l1.271,1.271a2.614,2.614,0,0,0,3.7-3.7l-1.271-1.271Zm0,0" transform="translate(-399.465 -399.458)" fill="#ffe891"/>
    <path id="Trazado_609536" data-name="Trazado 609536" d="M201.493,197.793l-4.223,6.741h2.55v4.151l4.481-6.531h-2.808Zm0,0" transform="translate(-178.853 -179.328)" fill="#fff"/>
    <path id="Trazado_609537" data-name="Trazado 609537" d="M224.848,96.891a.934.934,0,0,0,.934-.934V94.723a.934.934,0,1,0-1.867,0v1.234A.934.934,0,0,0,224.848,96.891Zm0,0" transform="translate(-203.01 -85.033)"/>
    <path id="Trazado_609538" data-name="Trazado 609538" d="M72.652,246.152a.934.934,0,0,0,0,1.867h1.432a.934.934,0,1,0,0-1.867Zm0,0" transform="translate(-65.023 -223.172)"/>
    <path id="Trazado_609539" data-name="Trazado 609539" d="M361.582,247.851a.934.934,0,1,0,0-1.867h-1.609a.934.934,0,1,0,0,1.867Zm0,0" transform="translate(-325.52 -223.02)"/>
    <path id="Trazado_609540" data-name="Trazado 609540" d="M116.655,344.7a.934.934,0,0,0,1.32,0l1.1-1.1a.934.934,0,1,0-1.32-1.32l-1.1,1.1a.934.934,0,0,0,0,1.32Zm0,0" transform="translate(-105.517 -310.072)"/>
    <path id="Trazado_609541" data-name="Trazado 609541" d="M323.019,140.877l.951-.951a.933.933,0,1,0-1.32-1.32l-.951.951a.933.933,0,1,0,1.32,1.32Zm0,0" transform="translate(-291.418 -125.418)"/>
    <path id="Trazado_609542" data-name="Trazado 609542" d="M118.136,141.256a.934.934,0,0,0,.66-1.594l-.94-.94a.934.934,0,1,0-1.32,1.32l.94.94A.931.931,0,0,0,118.136,141.256Zm0,0" transform="translate(-105.408 -125.524)"/>
    <path id="Trazado_609543" data-name="Trazado 609543" d="M46.76,41.742l-1.27-1.27h0L40.7,35.686V33.8H42.54a2.648,2.648,0,0,0,2.645-2.645V25.611a2.632,2.632,0,0,0-.631-1.712,2.631,2.631,0,0,0,.631-1.711V16.649a2.63,2.63,0,0,0-.631-1.711,2.633,2.633,0,0,0,.631-1.712V7.686A2.648,2.648,0,0,0,42.54,5.041H40.7V2.8A2.8,2.8,0,0,0,37.9,0H25.572a.934.934,0,1,0,0,1.867H37.9a.934.934,0,0,1,.934.934V33.818l-3.385-3.384a.93.93,0,0,0-.242-.175L31.1,28.2a10.212,10.212,0,0,0-9.265-14.511h0a10.213,10.213,0,0,0-5.594,18.756,2.465,2.465,0,0,1,1.052,1.528v4.115a.934.934,0,0,0,.934.934,1.028,1.028,0,0,1,1.027,1.027.933.933,0,0,0,.934.934h3.3a.934.934,0,0,0,.934-.934,1.027,1.027,0,0,1,1.026-1.027.934.934,0,0,0,.934-.934V33.977a2.426,2.426,0,0,1,1.033-1.515,10.279,10.279,0,0,0,1.07-.8l1.776,3.551a.938.938,0,0,0,.175.242l8.412,8.412a.967.967,0,0,0-.011.135v1a.934.934,0,0,1-.934.934H5.788A.935.935,0,0,1,4.854,45V39.023h.187a.934.934,0,0,1,.934.934.934.934,0,0,0,1.867,0,2.8,2.8,0,0,0-2.8-2.8H4.854V28.318h.187a.935.935,0,0,1,.934.934.934.934,0,1,0,1.867,0,2.8,2.8,0,0,0-2.8-2.8H4.854V17.613h.187a.935.935,0,0,1,.934.934.934.934,0,1,0,1.867,0,2.8,2.8,0,0,0-2.8-2.8H4.854V6.908h.187a.934.934,0,0,1,.934.934.934.934,0,0,0,1.867,0,2.8,2.8,0,0,0-2.8-2.8H4.854V2.8a.935.935,0,0,1,.934-.934H18.1A.934.934,0,1,0,18.1,0H5.788a2.8,2.8,0,0,0-2.8,2.8V5.041H2.8a2.8,2.8,0,1,0,0,5.6h.187v5.1H2.8a2.8,2.8,0,0,0,0,5.6h.187v5.1H2.8a2.8,2.8,0,1,0,0,5.6h.187v5.1H2.8a2.8,2.8,0,0,0,0,5.6h.187V45a2.8,2.8,0,0,0,2.8,2.8H37.9a2.805,2.805,0,0,0,2.725-2.155l1.116,1.116a3.548,3.548,0,1,0,5.017-5.017ZM43.318,16.648v5.539a.779.779,0,0,1-.778.778H40.7v-7.1H42.54a.779.779,0,0,1,.778.778Zm0,14.5a.779.779,0,0,1-.778.778H40.7v-7.1H42.54a.779.779,0,0,1,.778.778ZM42.54,6.908a.779.779,0,0,1,.778.778v5.539A.779.779,0,0,1,42.54,14H40.7v-7.1ZM2.8,8.776a.934.934,0,0,1,0-1.867h.187V8.776Zm0,10.705a.934.934,0,0,1,0-1.867h.187v1.867Zm0,10.7a.934.934,0,0,1,0-1.867h.187v1.867Zm0,10.7a.934.934,0,0,1,0-1.867h.187V40.89Zm29.615-6.1,2.376-2.376,8.718,8.717-2.377,2.377Zm-7.9,2.522a2.906,2.906,0,0,0-1.805,1.805H20.966a2.906,2.906,0,0,0-1.805-1.805v-2.5h5.353Zm1.88-6.415a4.288,4.288,0,0,0-1.648,2.049H18.929a4.35,4.35,0,0,0-1.663-2.06,8.346,8.346,0,0,1,4.57-15.328h0a8.348,8.348,0,0,1,7.594,11.809l-1.62-.81a.934.934,0,0,0-1.253,1.253l1.058,2.114a8.4,8.4,0,0,1-1.223.974Zm3.089-1.416,3.733,1.868-1.865,1.865ZM45.44,45.439a1.68,1.68,0,0,1-2.376,0l-.611-.61,2.377-2.376.61.61a1.68,1.68,0,0,1,0,2.376Zm0,0" transform="translate(0 0)"/>
    <path id="Trazado_609544" data-name="Trazado 609544" d="M195.234,192.153h-1.875v-3.427a.934.934,0,0,0-1.725-.5l-4.223,6.741a.933.933,0,0,0,.791,1.429h1.617v3.217a.934.934,0,0,0,1.7.528L196,193.614a.934.934,0,0,0-.77-1.462Zm-3.548,4.454v-1.14a.934.934,0,0,0-.934-.934h-.864l1.6-2.559v1.112a.933.933,0,0,0,.934.934h1.036Zm0,0" transform="translate(-169.786 -170.261)"/>
    <path id="Trazado_609545" data-name="Trazado 609545" d="M224.856,1.867A.933.933,0,0,1,224.2.274a.933.933,0,1,1,1.32,1.32A.94.94,0,0,1,224.856,1.867Zm0,0" transform="translate(-203.017 0)"/>
  </g>
</svg>
