<svg id="Grupo_988555" data-name="Grupo 988555" xmlns="http://www.w3.org/2000/svg" xmlns:xlink="http://www.w3.org/1999/xlink" width="171.199" height="224.425" viewBox="0 0 171.199 224.425">
  <defs>
    <clipPath id="clip-path">
      <rect id="Rectángulo_338983" data-name="Rectángulo 338983" width="106.961" height="215.479" fill="#fff" stroke="#707070" stroke-width="1"/>
    </clipPath>
    <clipPath id="clip-path-2">
      <rect id="Rectángulo_339622" data-name="Rectángulo 339622" width="122.519" height="149.191" fill="none"/>
    </clipPath>
    <clipPath id="clip-path-3">
      <rect id="Rectángulo_339621" data-name="Rectángulo 339621" width="138.16" height="149.19" fill="none"/>
    </clipPath>
    <clipPath id="clip-path-4">
      <rect id="Rectángulo_339613" data-name="Rectángulo 339613" width="10.662" height="25.358" fill="none"/>
    </clipPath>
    <clipPath id="clip-path-5">
      <rect id="Rectángulo_339614" data-name="Rectángulo 339614" width="3.112" height="1.81" fill="none"/>
    </clipPath>
    <clipPath id="clip-path-6">
      <rect id="Rectángulo_339615" data-name="Rectángulo 339615" width="16.493" height="10.98" fill="none"/>
    </clipPath>
    <clipPath id="clip-path-7">
      <rect id="Rectángulo_339616" data-name="Rectángulo 339616" width="5.979" height="10.581" fill="none"/>
    </clipPath>
    <clipPath id="clip-path-8">
      <rect id="Rectángulo_339617" data-name="Rectángulo 339617" width="7.278" height="4.512" fill="none"/>
    </clipPath>
    <clipPath id="clip-path-9">
      <rect id="Rectángulo_339619" data-name="Rectángulo 339619" width="3.635" height="5.233" fill="none"/>
    </clipPath>
    <clipPath id="clip-path-10">
      <rect id="Rectángulo_339620" data-name="Rectángulo 339620" width="12.367" height="10.292" fill="none"/>
    </clipPath>
    <clipPath id="clip-path-11">
      <rect id="Rectángulo_339623" data-name="Rectángulo 339623" width="34.019" height="20.115" fill="none"/>
    </clipPath>
    <clipPath id="clip-path-12">
      <rect id="Rectángulo_339646" data-name="Rectángulo 339646" width="47.397" height="30.21" fill="none"/>
    </clipPath>
    <clipPath id="clip-path-13">
      <rect id="Rectángulo_339646-2" data-name="Rectángulo 339646" width="32.526" height="20.732" fill="none"/>
    </clipPath>
  </defs>
  <rect id="Rectángulo_341274" data-name="Rectángulo 341274" width="171.199" height="97.627" transform="translate(0 20.225)" fill="#f0f4ff"/>
  <rect id="Rectángulo_341273" data-name="Rectángulo 341273" width="171.199" height="181.251" transform="translate(0 43.173)" fill="#fed947"/>
  <g id="Grupo_988526" data-name="Grupo 988526" transform="translate(17.114 0)">
    <g id="Grupo_984742" data-name="Grupo 984742" transform="translate(0 0)">
      <g id="Grupo_984732" data-name="Grupo 984732" transform="translate(0 0)">
        <g id="Grupo_983733" data-name="Grupo 983733" transform="translate(15.558 0)">
          <path id="Rectángulo_338981" data-name="Rectángulo 338981" d="M21,0H73.512a0,0,0,0,1,0,0V203.424a21,21,0,0,1-21,21H21a21,21,0,0,1-21-21V21A21,21,0,0,1,21,0Z" transform="translate(33.45 0)" fill="#6b8dfc"/>
          <rect id="Rectángulo_338982" data-name="Rectángulo 338982" width="66.511" height="211.2" rx="21" transform="translate(0 13.224)" fill="#3c3fa7"/>
          <g id="Enmascarar_grupo_559" data-name="Enmascarar grupo 559" transform="translate(0 8.946)" clip-path="url(#clip-path)">
            <path id="Unión_142" data-name="Unión 142" d="M72.841,25.329C63.106,13.113,49.921,4.068,36.411,1.622,12.347-2.733-3.635,15.5.713,42.35s27.381,52.145,51.444,56.5c14.3,2.588,25.742-2.8,31.764-13.23,12.643,20.126,32.537,35.7,53.014,39.411,17.747,3.212,32.054-3.194,39.908-15.784,9.685,17.51,26.41,31.4,43.665,34.523,24.063,4.355,40.046-13.878,35.7-40.727s-27.381-52.145-51.444-56.5c-11.509-2.083-21.168,1-27.64,7.724C166.015,27.627,141.853,5.353,116.818.821,95.34-3.066,78.9,7.132,72.841,25.329Z" transform="matrix(-0.809, -0.588, 0.588, -0.809, 95.852, 302.511)" fill="#1d206f"/>
          </g>
        </g>
        <g id="Grupo_984731" data-name="Grupo 984731" transform="translate(0 75.234)">
          <g id="Enmascarar_grupo_984730" data-name="Enmascarar grupo 984730" clip-path="url(#clip-path-2)">
            <g id="Grupo_984729" data-name="Grupo 984729" transform="translate(0.001 0.001)">
              <g id="Grupo_984728" data-name="Grupo 984728" clip-path="url(#clip-path-3)">
                <path id="Trazado_604022" data-name="Trazado 604022" d="M325.608,214.929c14.913,30.917,4.109,67.023-24.131,80.645s-63.223-.4-78.136-31.315-4.109-67.023,24.131-80.645,63.223.4,78.136,31.315" transform="translate(-216.637 -159.889)" fill="#fcefd1"/>
                <path id="Trazado_604023" data-name="Trazado 604023" d="M699.625,439.227H654.583a3,3,0,0,1-2.93-2.374L645.8,409.3a3,3,0,0,1,2.93-3.619h45.043a3,3,0,0,1,2.93,2.374l5.851,27.556a3,3,0,0,1-2.93,3.619" transform="translate(-631.486 -363.572)" fill="#208abd"/>
                <path id="Trazado_604024" data-name="Trazado 604024" d="M707.479,723.246c.063,0,.114-.1.114-.231V646.661c0-.128-.051-.231-.114-.231s-.115.1-.115.231v76.353c0,.128.052.231.115.231" transform="translate(-642.853 -579.335)" fill="#33312e"/>
                <path id="Trazado_604025" data-name="Trazado 604025" d="M627.185,321.964s2.371,4.3,5.467,11.593,5.585,19.52,5.585,19.52l-10.661-1.262L621.814,335.2Z" transform="translate(-564.618 -288.547)" fill="#fa7662"/>
                <path id="Trazado_604026" data-name="Trazado 604026" d="M687.3,391.989h0a.115.115,0,0,0,.112-.117,91.307,91.307,0,0,0-1.45-13.715.111.111,0,0,0-.133-.093.114.114,0,0,0-.093.133,91.071,91.071,0,0,1,1.446,13.68.115.115,0,0,0,.115.112" transform="translate(-620.432 -338.821)" fill="#33312e"/>
                <g id="Grupo_984709" data-name="Grupo 984709" transform="translate(62.958 39.172)" opacity="0.1">
                  <g id="Grupo_984708" data-name="Grupo 984708" transform="translate(0)">
                    <g id="Grupo_984707" data-name="Grupo 984707" clip-path="url(#clip-path-4)">
                      <path id="Trazado_604027" data-name="Trazado 604027" d="M624.287,377.415s1.651,3.6,2.6,5.838c3.1,7.289,5.585,19.52,5.585,19.52l-10.661-1.262,3.854-9.895a114.713,114.713,0,0,0-1.38-14.2" transform="translate(-621.814 -377.415)"/>
                    </g>
                  </g>
                </g>
                <path id="Trazado_604028" data-name="Trazado 604028" d="M313.561,550.355a48.667,48.667,0,0,1,6.348-1.01c.845,0,9.005,2.92,9.293,5.3s-16,.9-16,.9Z" transform="translate(-223.555 -492.327)" fill="#edaa8d"/>
                <path id="Trazado_604029" data-name="Trazado 604029" d="M457.054,554.507s-.608-4.306-3.566-5.244c-2.1-.666-5.74-.1-9.751-.234-11.077-.374-12.073.747-12.073.747l1.742,7.594Z" transform="translate(-363.698 -491.956)" fill="#fa7662"/>
                <path id="Trazado_604030" data-name="Trazado 604030" d="M646.079,613.946s2.963,7.244,2.724,9.675c-.368,3.757-15.613-1.279-15.613-1.279l.5-8.908Z" transform="translate(-576.379 -549.764)" fill="#fa7662"/>
                <path id="Trazado_604031" data-name="Trazado 604031" d="M784.494,145.819a13.869,13.869,0,0,1-3.6,6.055c-2.781,2.673-3.654,2.619-3.654,2.619s.546,2.782,3.981,2.51,6.872-7.474,6.872-7.474l-1.309-3.764Z" transform="translate(-730.606 -130.635)" fill="#33312e"/>
                <path id="Trazado_604032" data-name="Trazado 604032" d="M677.932,196.178s-.709,3.05.213,4.965,2.2,2.908,1.986,3.334a8.235,8.235,0,0,1-6.1,2.625c-3.474,0-1.205-9.08-1.205-9.08Z" transform="translate(-611.753 -175.816)" fill="#33312e"/>
                <path id="Trazado_604033" data-name="Trazado 604033" d="M837.784,67.449a11.509,11.509,0,0,1-7.8,5.674,1.872,1.872,0,0,1-1.255-.709,17.61,17.61,0,0,0,8.181-4.965Z" transform="translate(-785.642 -60.449)" fill="#33312e"/>
                <path id="Trazado_604034" data-name="Trazado 604034" d="M710.6,2.5s-.651-2.856-5.409-2.455S697.18,2.6,695.777,4.8s-1.8,6.413-5.309,8.216-4.758,1.4-4.959,1.8.8,5.261,3.706,6.363,7.312-3.758,8.364-5.611S710.6,2.5,710.6,2.5" transform="translate(-643.591 -0.005)" fill="#33312e"/>
                <path id="Trazado_604035" data-name="Trazado 604035" d="M617.776,30.256a10.888,10.888,0,0,0,5.459-5.01c2.153-3.908,1.129-7.056-.651-8.568-1.653-1.4-4.608-2.054-6.461-.551a9.705,9.705,0,0,0-2.654,4.208Z" transform="translate(-549.964 -13.684)" fill="#33312e"/>
                <path id="Trazado_604036" data-name="Trazado 604036" d="M726.983,186.033l-1.663,10.879s-2.121.7-7.828-1.732c-4.225-1.8-5.2-3.95-5.2-3.95s4.365-4.781,6.165-8.8Z" transform="translate(-662.755 -163.495)" fill="#da9577"/>
                <path id="Trazado_604037" data-name="Trazado 604037" d="M719.365,224.33s.968,2.149,5.195,3.952c5.7,2.433,7.829,1.73,7.829,1.73l.927-6.073a9.36,9.36,0,0,1-5.379-.822,9.011,9.011,0,0,1-4.64-3.754,53.388,53.388,0,0,1-3.933,4.966" transform="translate(-669.822 -196.596)" fill="#fcefd1"/>
                <path id="Trazado_604038" data-name="Trazado 604038" d="M654.532,52.027c-2.149,5.3-.429,12.3,3.474,13.505,3.317,1.026,7.325-2.833,9.475-8.135s2.527-9.872-2.576-11.438c-3.906-1.2-8.223.766-10.372,6.068" transform="translate(-598.655 -40.885)" fill="#edaa8d"/>
                <path id="Trazado_604039" data-name="Trazado 604039" d="M702.661,141.473l.037,0c.113-.019.376-.063.281-5.068a.115.115,0,0,0-.115-.113h0a.115.115,0,0,0-.112.117,33.123,33.123,0,0,1-.124,4.834,4.729,4.729,0,0,1-.666-.28c-.628-.294-1.339-.626-1.723-.5a.115.115,0,0,0-.073.146.114.114,0,0,0,.145.073c.3-.1,1.024.241,1.553.489a2.645,2.645,0,0,0,.8.3m-.048-.2h0Z" transform="translate(-637.513 -122.144)" fill="#33312e"/>
                <path id="Trazado_604040" data-name="Trazado 604040" d="M726.083,179.128a.115.115,0,0,0,.01-.229,1.792,1.792,0,0,1-1.884-1.924.121.121,0,0,0-.117-.113.115.115,0,0,0-.112.117,2.015,2.015,0,0,0,2.095,2.148h.01" transform="translate(-663.182 -158.505)" fill="#33312e"/>
                <path id="Trazado_604041" data-name="Trazado 604041" d="M654.51,107.361c-.016.647,1.253.514,2.056.748a3.658,3.658,0,0,1,.84.4c.091-.4.165-.795.215-1.176a2.024,2.024,0,0,0-.711-.459c-.992-.353-2.384-.165-2.4.482" transform="translate(-587.396 -95.628)" fill="#33312e"/>
                <g id="Grupo_984712" data-name="Grupo 984712" transform="translate(67.114 11.074)" opacity="0.2">
                  <g id="Grupo_984711" data-name="Grupo 984711" transform="translate(0)">
                    <g id="Grupo_984710" data-name="Grupo 984710" clip-path="url(#clip-path-5)">
                      <path id="Trazado_604042" data-name="Trazado 604042" d="M654.51,107.361c-.016.647,1.253.514,2.056.748a3.658,3.658,0,0,1,.84.4c.091-.4.165-.795.215-1.176a2.024,2.024,0,0,0-.711-.459c-.992-.353-2.384-.165-2.4.482" transform="translate(-654.51 -106.703)"/>
                    </g>
                  </g>
                </g>
                <path id="Trazado_604043" data-name="Trazado 604043" d="M708.257,91.4c.036-.484,1.966-.545,2.977-.417,1.046.132,2.234.371,2.058.994s-1.252.387-2.08.277-2.994-.332-2.955-.854" transform="translate(-648.663 -81.484)" fill="#33312e"/>
                <path id="Trazado_604044" data-name="Trazado 604044" d="M740.029,106.115l1.395-.024a.057.057,0,0,0,0-.115l-1.4.024a.057.057,0,0,0,0,.115" transform="translate(-680.126 -94.977)" fill="#33312e"/>
                <path id="Trazado_604045" data-name="Trazado 604045" d="M658.889,134.266a2.95,2.95,0,0,0,2.221.937q.5-1.247.835-2.424a2.347,2.347,0,0,0-.674-.009,4.182,4.182,0,0,0-2.382,1.5" transform="translate(-592.174 -118.971)" fill="#fff"/>
                <path id="Trazado_604046" data-name="Trazado 604046" d="M661.849,141a2.76,2.76,0,0,0,1.739.524c.193-.492.372-.973.528-1.446a1.419,1.419,0,0,0-.844-.275,1.456,1.456,0,0,0-1.423,1.2" transform="translate(-594.652 -125.29)" fill="#33312e"/>
                <path id="Trazado_604047" data-name="Trazado 604047" d="M725.736,112.7a3.508,3.508,0,0,0-1.259-2.4,4.179,4.179,0,0,0-2.774-.489,2.9,2.9,0,0,0,1.234,2.346,4.22,4.22,0,0,0,2.8.547" transform="translate(-662.485 -98.359)" fill="#fff"/>
                <path id="Trazado_604048" data-name="Trazado 604048" d="M724.407,121.37a2.3,2.3,0,0,0,.345.271,4.083,4.083,0,0,0,2.477.583,1.389,1.389,0,0,0,.042-.344,1.509,1.509,0,0,0-1.474-1.542,1.481,1.481,0,0,0-1.39,1.033" transform="translate(-664.3 -107.847)" fill="#33312e"/>
                <path id="Trazado_604049" data-name="Trazado 604049" d="M727.869,42.822S724.7,47.583,722.7,48.7s-3.173.529-3.173.529l2.115-5.172Z" transform="translate(-664.392 -38.378)" fill="#33312e"/>
                <path id="Trazado_604050" data-name="Trazado 604050" d="M697.7,32.789s-1.668,4.137-2.607,4.472a5.2,5.2,0,0,1-2.724-.092c-.185-.231,1.571-1.383,1.865-3.91l.294-1.763Z" transform="translate(-631.403 -28.227)" fill="#33312e"/>
                <path id="Trazado_604051" data-name="Trazado 604051" d="M685.779,53.859a.114.114,0,0,0,.109-.081c.056-.179,1.347-4.435-.607-6.922a.115.115,0,1,0-.18.142c1.879,2.392.581,6.669.568,6.713a.114.114,0,0,0,.075.143.11.11,0,0,0,.034.006" transform="translate(-619.305 -41.953)" fill="#33312e"/>
                <path id="Trazado_604052" data-name="Trazado 604052" d="M654.3,47.879s.416-3.758-2.111-5.639l-.722-1.313,3.488,1.4a7.952,7.952,0,0,1,1.365,7.009,6.3,6.3,0,0,0-2.02-1.452" transform="translate(-586.071 -36.68)" fill="#33312e"/>
                <path id="Trazado_604053" data-name="Trazado 604053" d="M782.038,102.711c-.25,1.636-1.482,2.8-2.752,2.611s-2.1-1.678-1.847-3.313,1.482-2.805,2.752-2.611,2.1,1.678,1.846,3.314" transform="translate(-724.612 -89.062)" fill="#edaa8d"/>
                <path id="Trazado_604054" data-name="Trazado 604054" d="M796.867,115.645a.112.112,0,0,0,.038-.007.114.114,0,0,0,.07-.146l-.938-2.657a.114.114,0,0,0-.216.076l.938,2.657a.114.114,0,0,0,.108.077" transform="translate(-741.422 -101.055)" fill="#33312e"/>
                <path id="Trazado_604055" data-name="Trazado 604055" d="M793.671,119.638a.115.115,0,0,0,.085-.038l1.6-1.758a.115.115,0,0,0-.008-.162.114.114,0,0,0-.162.008l-1.6,1.758a.115.115,0,0,0,.008.162.113.113,0,0,0,.077.03" transform="translate(-739.594 -105.439)" fill="#33312e"/>
                <path id="Trazado_604056" data-name="Trazado 604056" d="M331.829,1129.091c-1.125-3.749-6.955-18.445-9.755-22.833l-10.021,7.5s4.283,11.589,7.837,13.792,11.939,1.537,11.939,1.537" transform="translate(-226.058 -991.435)" fill="#edaa8d"/>
                <path id="Trazado_604057" data-name="Trazado 604057" d="M394.849,1126.5c.092.216.537,1.262.675,1.57.413.932.881,1.946,1.385,2.956,2.276-1.166,3.442-5.136,4.351-7.248a23.963,23.963,0,0,1,3.74-5.3c-.161-.312-.321-.607-.473-.881a55.146,55.146,0,0,0-6.58,5.968,25.242,25.242,0,0,1-3.1,2.938" transform="translate(-307.823 -1001.597)" fill="#da9577"/>
                <path id="Trazado_604058" data-name="Trazado 604058" d="M432.9,1284.824s-3.861-2.99-5.017-2.632c-.4.124-.991.775-.743,1.129a5.377,5.377,0,0,0,2.276,1.337,8.444,8.444,0,0,0,3.77.543Z" transform="translate(-339.353 -1149.082)" fill="#33312e"/>
                <path id="Trazado_604059" data-name="Trazado 604059" d="M315.357,1241.315c1.161,2.047,2.428,3.828,3.612,4.563a11.7,11.7,0,0,0,4.368,1.336l7.228-.854c-.628-1.855-1.762-4.852-3.07-8.075a11.05,11.05,0,0,1-6.085,2.681,33.17,33.17,0,0,1-6.053.349" transform="translate(-225.137 -1109.76)" fill="#fff"/>
                <path id="Trazado_604060" data-name="Trazado 604060" d="M183.907,1296.7c.407,1.094.773,2.133,1.059,3.066a40.59,40.59,0,0,0,7.308,5.124c3.551,1.777,6.83,3.143,7.172,4.168l-21.925-.546a37.116,37.116,0,0,1-1.571-5.534l-3.4-5.157a37.663,37.663,0,0,0,6.008.214c2.255-.163,4.18-.481,5.352-1.334" transform="translate(-79.196 -1162.108)" fill="#208abd"/>
                <path id="Trazado_604061" data-name="Trazado 604061" d="M338.142,1319.881h.014a.115.115,0,0,0,.1-.128,26.4,26.4,0,0,0-2.64-7.536,12.523,12.523,0,0,1-.926-2.935.117.117,0,0,0-.133-.095.116.116,0,0,0-.095.132,12.842,12.842,0,0,0,.946,3,26.191,26.191,0,0,1,2.62,7.464.114.114,0,0,0,.114.1" transform="translate(-234.812 -1173.301)" fill="#33312e"/>
                <g id="Grupo_984715" data-name="Grupo 984715" transform="translate(93.35 135.711)" opacity="0.1">
                  <g id="Grupo_984714" data-name="Grupo 984714" transform="translate(0)">
                    <g id="Grupo_984713" data-name="Grupo 984713" clip-path="url(#clip-path-6)">
                      <path id="Trazado_604062" data-name="Trazado 604062" d="M272.823,1307.5l3.405,5.155a37.356,37.356,0,0,0,1.569,5.535l11.518.29c-1.331-1.469-5.263-2.19-8-3.888-2.68-1.661-4.552-5.2-5.084-6.839-.151-.005-.308-.014-.473-.028h-.032c-1.124-.055-2.166-.151-2.9-.224" transform="translate(-272.823 -1307.503)"/>
                    </g>
                  </g>
                </g>
                <path id="Trazado_604063" data-name="Trazado 604063" d="M194.13,1411.039s.162,1.8-.209,2.129c-.189.166-5.671.047-11,.01-5.1-.035-10.05.018-10.208-.073-.324-.185-.512-2.613-.512-2.613Z" transform="translate(-73.879 -1264.092)" fill="#33312e"/>
                <path id="Trazado_604064" data-name="Trazado 604064" d="M432.2,1238.278a.114.114,0,0,0,.079-.031.116.116,0,0,0,0-.163,36.126,36.126,0,0,1-5.517-8.461.114.114,0,1,0-.207.1,36.361,36.361,0,0,0,5.557,8.522.115.115,0,0,0,.084.036" transform="translate(-338.425 -1101.937)" fill="#33312e"/>
                <path id="Trazado_604065" data-name="Trazado 604065" d="M253.486,723.69c.063,0,.114-.1.114-.231v-76.8c0-.128-.051-.231-.114-.231s-.115.1-.115.231v76.8c0,.128.051.231.115.231" transform="translate(-141.739 -579.336)" fill="#33312e"/>
                <path id="Trazado_604066" data-name="Trazado 604066" d="M644.529,1389.776a.1.1,0,0,0,.1-.116v-5.151h35.708v5.067a.115.115,0,0,0,.229,0v-5.182a.115.115,0,0,0-.115-.115H644.5a.114.114,0,0,0-.082.034c-.022.021-.017.051-.017.081v5.267a.129.129,0,0,0,.131.114" transform="translate(-609.29 -1240.6)" fill="#33312e"/>
                <path id="Trazado_604067" data-name="Trazado 604067" d="M905.541,1394.634h7.087a.115.115,0,1,0,0-.229h-7.087a.115.115,0,1,0,0,.229" transform="translate(-868.56 -1249.674)" fill="#33312e"/>
                <path id="Trazado_604068" data-name="Trazado 604068" d="M652.4,1148.058c2.608-2.791,12.133-14.925,14.457-19.442l-11.69-5.132s-6.632,11.625-7.587,15.561c-.962,3.965,4.82,9.013,4.82,9.013" transform="translate(-595.897 -1006.873)" fill="#edaa8d"/>
                <path id="Trazado_604069" data-name="Trazado 604069" d="M654.245,1128.982c2.437,3.815,7.209,6.4,9.477,7.469,1.716-2.328,3.285-4.577,4.35-6.3l.174-.39-2.712-2.64-8.275-3.635s-1.4,2.46-3.014,5.5" transform="translate(-597.993 -1006.873)" fill="#da9577"/>
                <path id="Trazado_604070" data-name="Trazado 604070" d="M829.682,1236.739s-.17-3.634-.482-3.833-1.05-.284-1.192-.028a29.6,29.6,0,0,0,1.164,4.116Z" transform="translate(-777.463 -1104.771)" fill="#33312e"/>
                <path id="Trazado_604071" data-name="Trazado 604071" d="M720,1230.589l6.7,2.548c1.322-1.616,2.928-3.649,4.548-5.771a12.737,12.737,0,0,1-6.154-1.886,7.663,7.663,0,0,1-3.474-3.87,32.84,32.84,0,0,0-2.189,5.375,5.536,5.536,0,0,0,.574,3.6" transform="translate(-667.75 -1094.814)" fill="#fff"/>
                <path id="Trazado_604072" data-name="Trazado 604072" d="M720.372,1359.728s.162,1.8-.208,2.129c-.212.185-7.029-.073-12.9-.073-1.578,0-5.943-6.1-5.97-6.958-.01-.333.984-1.587.984-1.587l4.987,6.162Z" transform="translate(-655.038 -1212.781)" fill="#33312e"/>
                <path id="Trazado_604073" data-name="Trazado 604073" d="M831.439,1394.079a.115.115,0,1,0,0-.229c-.013,0-.629-.028-1.8-1.126a25.278,25.278,0,0,1-2.817-3.591.115.115,0,1,0-.192.125,25.508,25.508,0,0,0,2.852,3.634c1.246,1.168,1.915,1.189,1.959,1.188" transform="translate(-779.191 -1244.901)" fill="#33312e"/>
                <path id="Trazado_604074" data-name="Trazado 604074" d="M714.56,1273.741l-3.23,4.071a6.567,6.567,0,0,0,2.648,3.167c2.484,1.371,5.413,1.839,5.755,2.864-2.993.983-11.746.534-13.068-.26s-5.172-5.51-5.026-6.223l4.582-8.795a8.226,8.226,0,0,0,2.8,3.124c2.011,1.594,4.68,2.328,5.54,2.052" transform="translate(-654.4 -1136.896)" fill="#208abd"/>
                <path id="Trazado_604075" data-name="Trazado 604075" d="M700.074,1417.005a.112.112,0,0,0,.089-.044c.461-.578.242-2.149.232-2.216a.112.112,0,0,0-.13-.1.115.115,0,0,0-.1.13,3.651,3.651,0,0,1-.184,2.041.114.114,0,0,0,.018.161.112.112,0,0,0,.071.025" transform="translate(-634.948 -1267.815)" fill="#33312e"/>
                <g id="Grupo_984718" data-name="Grupo 984718" transform="translate(47.235 131.671)" opacity="0.1">
                  <g id="Grupo_984717" data-name="Grupo 984717" transform="translate(0)">
                    <g id="Grupo_984716" data-name="Grupo 984716" clip-path="url(#clip-path-7)">
                      <path id="Trazado_604076" data-name="Trazado 604076" d="M818.407,1277.374a4.317,4.317,0,0,0,.968,1.79,25.568,25.568,0,0,1,5.007-8.667,5.458,5.458,0,0,1-1.391-1.914Z" transform="translate(-818.403 -1268.583)"/>
                    </g>
                  </g>
                </g>
                <path id="Trazado_604077" data-name="Trazado 604077" d="M806.367,1305.069a.115.115,0,0,0,.108-.076c1.127-3.132,4.511-9.617,4.546-9.682a.115.115,0,1,0-.2-.107c-.034.065-3.426,6.565-4.558,9.711a.115.115,0,0,0,.069.147.122.122,0,0,0,.039.007" transform="translate(-756.558 -1160.715)" fill="#33312e"/>
                <g id="Grupo_984721" data-name="Grupo 984721" transform="translate(55.518 140.953)" opacity="0.2">
                  <g id="Grupo_984720" data-name="Grupo 984720" transform="translate(0)">
                    <g id="Grupo_984719" data-name="Grupo 984719" clip-path="url(#clip-path-8)">
                      <path id="Trazado_604078" data-name="Trazado 604078" d="M726.089,1359.789c.312,2.134,5.645,2.63,7.278,2.732a24.4,24.4,0,0,1-3.217-1.382,6.54,6.54,0,0,1-2.634-3.13Z" transform="translate(-726.089 -1358.008)"/>
                    </g>
                  </g>
                </g>
                <path id="Trazado_604079" data-name="Trazado 604079" d="M781.61,1357.821a.115.115,0,0,0,.094-.049l.725-1.044a.115.115,0,1,0-.188-.131l-.725,1.043a.115.115,0,0,0,.094.18" transform="translate(-725.405 -1215.746)" fill="#33312e"/>
                <path id="Trazado_604080" data-name="Trazado 604080" d="M796.434,1199.7a.115.115,0,0,0,.106-.07c1.1-2.576,2.443-5.525,4-8.763a.115.115,0,1,0-.207-.1c-1.563,3.242-2.912,6.193-4.009,8.772a.115.115,0,0,0,.061.15.119.119,0,0,0,.045.009" transform="translate(-745.049 -1067.113)" fill="#33312e"/>
                <path id="Trazado_604081" data-name="Trazado 604081" d="M484.457,696.38c-.781-4.949-5.021-7.874-14.283-8.472s-19.272-.448-21.214-1.2-9.855,2.921-9.855,2.921l10.3,19.047,11.5-.6-14.7,21.641s4.4,8.4,16.5,10.638c0,0,14.507-20.256,17.2-25.486s5.332-13.589,4.557-18.5" transform="translate(-392.011 -615.346)" fill="#de9d06"/>
                <path id="Trazado_604082" data-name="Trazado 604082" d="M622.552,719.878s-1.6-2.72-13.757-3.2-17.755-.96-17.755-.96l-17.275,9.921L579.2,737.8l35.35,1.28Z" transform="translate(-543.945 -641.431)" fill="#f0af18"/>
                <path id="Trazado_604083" data-name="Trazado 604083" d="M783.08,730.747a12.925,12.925,0,0,0,1.262,4.338c3.075.978,9.047,1.81,14.3-1.143,6.474-3.636,7.971-9.842,8.916-12.472l-.146-.009a58.71,58.71,0,0,1-5.989,3.507,18.032,18.032,0,0,1-9.949,7.454c-5.649,1.681-8.4-1.675-8.4-1.675" transform="translate(-750.681 -646.578)" fill="#e6a40d"/>
                <path id="Trazado_604084" data-name="Trazado 604084" d="M627.624,861.508c1.129-.06,1.953,3.723,6.183,4.757,8.048,1.967,42.731,1.357,42.731,1.357v8.786q-21.79.369-42.3,0c-3.635,0-7.683-2.948-7.683-6.584l-.059-2.2c0-1.855,0-6.054,1.13-6.114" transform="translate(-603.404 -772.088)" fill="#208abd"/>
                <path id="Trazado_604085" data-name="Trazado 604085" d="M421.512,792.759a56.66,56.66,0,0,0-7.357,6.56,19.446,19.446,0,0,1-11.837,6.72l-10.4-34.561L402.637,755.8c4.188,3.939,10.847,14.7,18.874,36.961" transform="translate(-324.031 -677.351)" fill="#f0af18"/>
                <path id="Trazado_604086" data-name="Trazado 604086" d="M670.539,908.049a.11.11,0,0,0,.034-.005.114.114,0,0,0,.075-.143l-.636-2.05a.117.117,0,0,0-.144-.076.115.115,0,0,0-.076.144l.636,2.05a.115.115,0,0,0,.11.081" transform="translate(-602.013 -811.757)" fill="#33312e"/>
                <path id="Trazado_604087" data-name="Trazado 604087" d="M673.585,884.352c6.489.105,12.6.078,16.738.041l-1.23-4.236s-5.111,3.124-15.508,4.194" transform="translate(-622.078 -788.803)" fill="#e6a40d"/>
                <path id="Trazado_604088" data-name="Trazado 604088" d="M464.663,1102.823l4.281,14.221a19.324,19.324,0,0,0,11.642-6.514,19.371,19.371,0,0,1-15.924-7.707" transform="translate(-390.656 -988.357)" fill="#e6a40d"/>
                <path id="Trazado_604089" data-name="Trazado 604089" d="M548.488,724.422c.5,1.635,3.529,3.659,10.325,5.5,4.121,1.111,6.273,1.046,7.379.744a24.611,24.611,0,0,0-2.625-2.984s-1.6-2.718-13.753-3.2l-1.327-.055" transform="translate(-484.962 -649.232)" fill="#e6a40d"/>
                <path id="Trazado_604090" data-name="Trazado 604090" d="M730.506,299.347a81.875,81.875,0,0,1,1.1,13.507c-.182,6.013-3.188,17.128-3.734,20.955s.761,3.957.761,3.957-3.22,3.15-10.233,6.7l-.82-24.964,9.655-22.777Z" transform="translate(-667.939 -265.93)" fill="#fcefd1"/>
                <path id="Trazado_604091" data-name="Trazado 604091" d="M266.859,347.507h25.45a.115.115,0,0,0,.106-.071l11.077-27.173a.115.115,0,0,0-.063-.15.113.113,0,0,0-.149.063l-11.048,27.1H266.859a.115.115,0,1,0,0,.23" transform="translate(-193.027 -286.879)" fill="#33312e"/>
                <rect id="Rectángulo_339618" data-name="Rectángulo 339618" width="78.045" height="7.187" transform="translate(39.693 60.723)" fill="#f0af18"/>
                <path id="Trazado_604092" data-name="Trazado 604092" d="M750.965,347.957a7.571,7.571,0,0,0,1.468.524,66.871,66.871,0,0,0,10.5,1.065,14.776,14.776,0,0,1-6.365-5.27,12.709,12.709,0,0,1-2.134-5.8s2.749,3.355,8.4,1.675,11.752-6.257,15.722-20.767,3.924-32.064,3.924-32.064l-12.111-3.562c-7.834,2.92-15.667,19.518-17.975,26.665s-3.428,18.275-3.608,24.972c-.151,5.637.982,10.273,2.185,12.564" transform="translate(-722.031 -254.303)" fill="#fa7662"/>
                <path id="Trazado_604093" data-name="Trazado 604093" d="M1016.413,719.335l.025,0a.115.115,0,0,0,.087-.137,25.563,25.563,0,0,1,.169-10.742.115.115,0,0,0-.224-.049,25.791,25.791,0,0,0-.169,10.84.114.114,0,0,0,.112.09" transform="translate(-983.971 -634.797)" fill="#33312e"/>
                <path id="Trazado_604094" data-name="Trazado 604094" d="M985.958,763.693a7.573,7.573,0,0,0,1.468.523,39.821,39.821,0,0,0,5.649.762c-3.129-1.574-7.943-5.839-9.146-17.338-.078,1.254-.128,2.428-.156,3.489-.151,5.637.982,10.273,2.185,12.564" transform="translate(-957.024 -670.04)" fill="#ed644e"/>
                <path id="Trazado_604095" data-name="Trazado 604095" d="M771.757,436.007a1.251,1.251,0,1,0,1.251-1.251,1.251,1.251,0,0,0-1.251,1.251" transform="translate(-716.203 -389.631)" fill="#33312e"/>
                <path id="Trazado_604096" data-name="Trazado 604096" d="M784.095,518.657a1.221,1.221,0,0,0,.216.7l2.28-.625a.383.383,0,0,0,0-.073,1.25,1.25,0,1,0-2.5,0" transform="translate(-729.82 -463.701)" fill="#33312e"/>
                <path id="Trazado_604097" data-name="Trazado 604097" d="M641.053,572.248s2.176-.525-.533-5.881l-6.111,1.7s3.144,4.955,6.644,4.179" transform="translate(-569.567 -507.582)" fill="#33312e"/>
                <path id="Trazado_604098" data-name="Trazado 604098" d="M613.993,472.713l-10.422,4.222-.431,8.272,2.768.844,7.828-3.86Z" transform="translate(-538.435 -423.648)" fill="#edaa8d"/>
                <path id="Trazado_604099" data-name="Trazado 604099" d="M655.037,515.7a9.843,9.843,0,0,0,1.51,3.007l2.4-1.18c-1.189-.881-3.286-3.107-4.07-8.17l-.221.087a11.09,11.09,0,0,0,.386,6.257" transform="translate(-588.703 -456.485)" fill="#da9577"/>
                <path id="Trazado_604100" data-name="Trazado 604100" d="M447.939,456.517s3.04-1.816,4.046-1.875,12.075,2.368,12.134,3.967-5.5.769-10.476-.474-6.393-.592-6.393-.592Z" transform="translate(-372.382 -407.452)" fill="#edaa8d"/>
                <path id="Trazado_604101" data-name="Trazado 604101" d="M523.733,474.394s1.444.469,1.323,1.627-.681,1.883-1.473,1.822a1.871,1.871,0,0,1,.053,1.743,1.227,1.227,0,0,1-1.467.69,1.089,1.089,0,0,1-.091,1.292c-.449.687-4.784.592-6.527.622l-1.567-4.871,1.825-4.607Z" transform="translate(-440.252 -423.649)" fill="#edaa8d"/>
                <path id="Trazado_604102" data-name="Trazado 604102" d="M513.737,488.261a.115.115,0,0,0,.024-.227l-3.876-.833a.115.115,0,0,0-.048.224l3.875.832.024,0" transform="translate(-428.601 -436.631)" fill="#33312e"/>
                <path id="Trazado_604103" data-name="Trazado 604103" d="M529.652,516.219a.115.115,0,0,0,.028-.226l-2.653-.672a.115.115,0,0,0-.056.222l2.653.672a.1.1,0,0,0,.028,0" transform="translate(-446.294 -461.83)" fill="#33312e"/>
                <path id="Trazado_604104" data-name="Trazado 604104" d="M542.98,539.746a.115.115,0,0,0,.034-.224l-2.242-.691a.117.117,0,0,0-.143.076.115.115,0,0,0,.076.143l2.242.691a.124.124,0,0,0,.034,0" transform="translate(-461.048 -482.9)" fill="#33312e"/>
                <path id="Trazado_604105" data-name="Trazado 604105" d="M534.431,456.638a.116.116,0,0,0,.053-.013,52.361,52.361,0,0,1,5.149-2.424,12.915,12.915,0,0,1,3.169.431.117.117,0,0,0,.139-.084.115.115,0,0,0-.084-.139,12.7,12.7,0,0,0-3.267-.433,50.478,50.478,0,0,0-5.212,2.445.115.115,0,0,0,.053.217" transform="translate(-460.243 -406.832)" fill="#33312e"/>
                <path id="Trazado_604106" data-name="Trazado 604106" d="M656.818,505.584l-14.446,3.936v14.814a14.755,14.755,0,0,1,4.194-1.347c1.657-.1,4.039.622,5.8-.1a3.555,3.555,0,0,0,2.072-2.487s3.44,1.013,7.757-2.624c0,0-3.56-.455-5.15-5.454-1.35-4.247-.226-6.736-.226-6.736" transform="translate(-590.709 -453.108)" fill="#fa7662"/>
                <path id="Trazado_604107" data-name="Trazado 604107" d="M753.126,523.816a.112.112,0,0,0,.032,0l10.543-3.1a.115.115,0,1,0-.065-.22l-10.543,3.1a.115.115,0,0,0,.032.225" transform="translate(-703.782 -466.468)" fill="#33312e"/>
                <path id="Trazado_604108" data-name="Trazado 604108" d="M812.207,473.009a.114.114,0,0,0,.114-.106,31.285,31.285,0,0,1,1.453-4.763,11.053,11.053,0,0,0,.588-3.309.115.115,0,1,0-.229,0,10.805,10.805,0,0,1-.575,3.231,26.21,26.21,0,0,0-1.465,4.823.114.114,0,0,0,.106.123h.009" transform="translate(-760.492 -416.482)" fill="#33312e"/>
                <path id="Trazado_604109" data-name="Trazado 604109" d="M691.433,609.473a.932.932,0,1,0,.932-.932.933.933,0,0,0-.932.932" transform="translate(-626.904 -545.378)" fill="#33312e"/>
                <path id="Trazado_604110" data-name="Trazado 604110" d="M802.157,500.3c.445,5.286,3.089,7.684,10.064,7.244a20.718,20.718,0,0,0,10.091-3.489q.457-1.053.888-2.216c.146-.4-2.987,1.6-6.154,2.234a17.3,17.3,0,0,1-6.378-.1s-3.881-.649-5.632-2.991c-1.05-1.4-.459-3.718-.249-6.031a76.055,76.055,0,0,1,2.491-13.283c-2.74,2.766-5.559,13.433-5.121,18.633" transform="translate(-768.3 -431.671)" fill="#ed644e"/>
                <path id="Trazado_604111" data-name="Trazado 604111" d="M684.394,567.289a15.3,15.3,0,0,0,3.4,8.414,6.718,6.718,0,0,0,3.378-.2c-1.386-.541-4.351-2.387-6.778-8.216" transform="translate(-624.048 -508.408)" fill="#ed644e"/>
                <path id="Trazado_604112" data-name="Trazado 604112" d="M733.609,608.077s-.877,3.456-1.974,4.17-2.468-1.81-5.32-1.536-3.51,6.254-9.378,6.8a12.813,12.813,0,0,0,4.4-.185c2.487-.521,2.979-1.331,5.928-2.315,2.831-.943,4.714.463,6.941-.318,1-.351,1.927-2.438,1.927-2.438a10.973,10.973,0,0,1-2.518-4.181" transform="translate(-672.381 -544.963)" fill="#ed644e"/>
                <path id="Trazado_604113" data-name="Trazado 604113" d="M726.319,492.4c.406,0,.789-.015,1.141-.046a16.327,16.327,0,0,0,5.234-1.652,11.872,11.872,0,0,1,3.047-1.087,14.442,14.442,0,0,1,2.887.034,6.471,6.471,0,0,0,2.947-.148,5.3,5.3,0,0,0,2.129-2.547.115.115,0,0,0-.213-.085,5.162,5.162,0,0,1-2.014,2.425,6.508,6.508,0,0,1-2.831.127,14.42,14.42,0,0,0-2.933-.034,12,12,0,0,0-3.113,1.105,16.139,16.139,0,0,1-5.159,1.633c-3.145.274-8.748-.666-10.651-3.081-1.834-2.328,1.317-17.528,2.631-20.666a.115.115,0,1,0-.212-.089c-1.36,3.248-4.523,18.455-2.6,20.9,1.736,2.2,6.441,3.214,9.709,3.214" transform="translate(-679.87 -419.617)" fill="#33312e"/>
                <path id="Trazado_604114" data-name="Trazado 604114" d="M760.876,246.092a42.772,42.772,0,0,1-1.367,6.737,78.839,78.839,0,0,1-7.2-6.269c-2.367-2.535-3.541-4.029-3.541-4.029s2.308-4.808,2.741-4.775,2.673,2.863,4.534,4.5c2.567,2.262,4.766,3.434,4.834,3.834" transform="translate(-700.434 -213.078)" fill="#fa7662"/>
                <g id="Grupo_984724" data-name="Grupo 984724" transform="translate(48.726 25.421)" opacity="0.1">
                  <g id="Grupo_984723" data-name="Grupo 984723" transform="translate(0)">
                    <g id="Grupo_984722" data-name="Grupo 984722" clip-path="url(#clip-path-9)">
                      <path id="Trazado_604115" data-name="Trazado 604115" d="M826.626,248.15c.854,1.014,3.206,2.372,3.584,1.914.259-.315-.53-1.471-1.2-2.681a5.036,5.036,0,0,1-.656-2.46c-.546.877-1.285,2.327-1.73,3.227" transform="translate(-826.626 -244.923)"/>
                    </g>
                  </g>
                </g>
                <g id="Grupo_984727" data-name="Grupo 984727" transform="translate(46.694 29.451)" opacity="0.1">
                  <g id="Grupo_984726" data-name="Grupo 984726" transform="translate(0)">
                    <g id="Grupo_984725" data-name="Grupo 984725" clip-path="url(#clip-path-10)">
                      <path id="Trazado_604116" data-name="Trazado 604116" d="M762.078,284.557c1.064,4.242,11.959,9.3,12.367,9.488a79.208,79.208,0,0,1-7.186-6.262c-2.368-2.534-3.543-4.03-3.543-4.03a9.633,9.633,0,0,0-1.638.8" transform="translate(-762.078 -283.754)"/>
                    </g>
                  </g>
                </g>
                <path id="Trazado_604117" data-name="Trazado 604117" d="M755.393,323.463a.114.114,0,0,0,.108-.076c.513-1.445,1.337-6.54,1.373-6.756a.116.116,0,0,0-.1-.132.114.114,0,0,0-.132.095c-.008.051-.8,4.953-1.311,6.564-.89-.7-6.151-4.86-7.466-6.668a.115.115,0,1,0-.185.135c1.45,1.994,7.386,6.619,7.638,6.814a.116.116,0,0,0,.07.024" transform="translate(-696.318 -283.598)" fill="#33312e"/>
                <path id="Trazado_604118" data-name="Trazado 604118" d="M643.776,562.131a10.564,10.564,0,0,0,7.217-2.981.115.115,0,0,0-.169-.156A10.269,10.269,0,0,1,643,561.871a9.525,9.525,0,0,1-1.625-2.317,16.855,16.855,0,0,1-1.772-7.457.115.115,0,0,0-.115-.113h0a.115.115,0,0,0-.112.118,17.062,17.062,0,0,0,1.8,7.57,9.191,9.191,0,0,0,1.695,2.395.115.115,0,0,0,.068.03c.283.024.56.034.83.034" transform="translate(-579.227 -494.692)" fill="#33312e"/>
                <path id="Trazado_604119" data-name="Trazado 604119" d="M.122,1434.639H130.37a.122.122,0,0,0,0-.244H.122a.122.122,0,1,0,0,.244" transform="translate(7.668 -1285.514)" fill="#33312e"/>
              </g>
            </g>
          </g>
        </g>
      </g>
      <g id="Grupo_984734" data-name="Grupo 984734" transform="translate(80.722 68.455)">
        <g id="Grupo_984733" data-name="Grupo 984733" transform="translate(0 0)" clip-path="url(#clip-path-11)">
          <path id="Trazado_604120" data-name="Trazado 604120" d="M0,2.884v8.479a2.832,2.832,0,0,0,2.832,2.832H13.193a.985.985,0,0,1,.775.376l2.543,5.544,3.066-5.455a.986.986,0,0,1,.734-.328H31.187A2.832,2.832,0,0,0,34.019,11.5V2.831A2.832,2.832,0,0,0,31.182,0L2.826.052A2.831,2.831,0,0,0,0,2.884" transform="translate(0 0)" fill="#fed947"/>
          <path id="Trazado_604121" data-name="Trazado 604121" d="M15.513,16.443H13.739V14.772l4.083-4.46.082-.022a1.341,1.341,0,0,1,1.323.189,1.7,1.7,0,0,1,.359,1.44L19.571,12Zm-1.187-.587h.928l3.766-4.122a1.07,1.07,0,0,0-.19-.825.756.756,0,0,0-.692-.075L14.326,15Z" transform="translate(-8.395 -6.236)" fill="#12263f"/>
          <path id="Trazado_685888" data-name="Trazado 685888" d="M-1.749-2.961H-2.8L-3.317,0h-.715l.513-2.961H-4.562l.1-.593h2.813ZM-.626.049a1.149,1.149,0,0,1-.614-.17,1.029,1.029,0,0,1-.4-.459,1.279,1.279,0,0,1-.1-.643l.007-.1a1.708,1.708,0,0,1,.225-.708,1.357,1.357,0,0,1,.483-.5A1.2,1.2,0,0,1-.372-2.69.914.914,0,0,1,.4-2.315a1.286,1.286,0,0,1,.2.925l-.039.3H-1.058a.567.567,0,0,0,.125.41A.475.475,0,0,0-.568-.52.845.845,0,0,0,.092-.813l.315.391a.98.98,0,0,1-.43.35A1.405,1.405,0,0,1-.626.049Zm.22-2.17A.489.489,0,0,0-.745-2a1.051,1.051,0,0,0-.265.432h.947l.015-.063a.647.647,0,0,0,0-.186.354.354,0,0,0-.12-.221A.375.375,0,0,0-.406-2.122Zm2.444.264.554-.784h.774L2.408-1.313,2.943,0h-.7L1.92-.825,1.337,0H.558l1-1.382-.51-1.26h.7ZM4.655-3.291l-.115.649h.439l-.09.518H4.449L4.225-.8a.336.336,0,0,0,.02.19q.034.066.166.071.039,0,.21-.012l-.049.54a1.158,1.158,0,0,1-.4.056.62.62,0,0,1-.505-.212A.767.767,0,0,1,3.534-.73l.227-1.394H3.387l.09-.518h.374l.112-.649Z" transform="translate(19.182 6.945)" fill="#12263f"/>
        </g>
      </g>
    </g>
    <g id="Grupo_984744" data-name="Grupo 984744" transform="translate(26.115 39.023)">
      <g id="Grupo_984743" data-name="Grupo 984743" transform="translate(0 0)" clip-path="url(#clip-path-12)">
        <path id="Trazado_604145" data-name="Trazado 604145" d="M47.2,30.21H.194A.2.2,0,0,1,0,30.015V.194A.194.194,0,0,1,.194,0H47.2A.194.194,0,0,1,47.4.194V30.015a.194.194,0,0,1-.194.194M.389,29.821H47.008V.389H.389Z" transform="translate(0 0)" fill="#ebf1ff"/>
        <path id="Trazado_604146" data-name="Trazado 604146" d="M49.709,29.82H15.66a1.1,1.1,0,0,1-1.1-1.1v-.346a1.1,1.1,0,0,1,1.1-1.1H49.709a1.1,1.1,0,0,1,1.1,1.1v.346a1.1,1.1,0,0,1-1.1,1.1" transform="translate(-8.897 -16.667)" fill="#ebf1ff"/>
        <path id="Trazado_604147" data-name="Trazado 604147" d="M49.709,40.183H15.66a1.1,1.1,0,0,1-1.1-1.1v-.346a1.1,1.1,0,0,1,1.1-1.1H49.709a1.1,1.1,0,0,1,1.1,1.1v.346a1.1,1.1,0,0,1-1.1,1.1" transform="translate(-8.897 -22.999)" fill="#ebf1ff"/>
        <path id="Trazado_604148" data-name="Trazado 604148" d="M49.709,50.545H15.66a1.1,1.1,0,0,1-1.1-1.1V49.1a1.1,1.1,0,0,1,1.1-1.1H49.709a1.1,1.1,0,0,1,1.1,1.1v.346a1.1,1.1,0,0,1-1.1,1.1" transform="translate(-8.897 -29.331)" fill="#ebf1ff"/>
        <path id="Trazado_604149" data-name="Trazado 604149" d="M49.709,60.908H15.66a1.1,1.1,0,0,1-1.1-1.1v-.346a1.1,1.1,0,0,1,1.1-1.1H49.709a1.1,1.1,0,0,1,1.1,1.1v.346a1.1,1.1,0,0,1-1.1,1.1" transform="translate(-8.897 -35.663)" fill="#ebf1ff"/>
        <path id="Trazado_604150" data-name="Trazado 604150" d="M49.709,11.272H15.66a1.1,1.1,0,0,1-1.1-1.1V6.879a1.1,1.1,0,0,1,1.1-1.1H49.709a1.1,1.1,0,0,1,1.1,1.1v3.294a1.1,1.1,0,0,1-1.1,1.1" transform="translate(-8.897 -3.531)" fill="#ebf1ff"/>
      </g>
    </g>
    <g id="Grupo_984745" data-name="Grupo 984745" transform="translate(85.18 20.225)">
      <g id="Grupo_984743-2" data-name="Grupo 984743" transform="translate(0 0)" clip-path="url(#clip-path-13)">
        <path id="Trazado_604145-2" data-name="Trazado 604145" d="M32.393,20.732H.133A.134.134,0,0,1,0,20.6V.133A.133.133,0,0,1,.133,0h32.26a.133.133,0,0,1,.133.133V20.6a.133.133,0,0,1-.133.133M.267,20.465H32.259V.267H.267Z" transform="translate(0 0)" fill="#ebf1ff"/>
        <path id="Trazado_604146-2" data-name="Trazado 604146" d="M38.681,29.022H15.315a.754.754,0,0,1-.754-.755V28.03a.754.754,0,0,1,.754-.755H38.681a.755.755,0,0,1,.755.755v.238a.755.755,0,0,1-.755.755" transform="translate(-10.674 -19.995)" fill="#ebf1ff"/>
        <path id="Trazado_604147-2" data-name="Trazado 604147" d="M38.681,39.385H15.315a.754.754,0,0,1-.754-.755v-.238a.754.754,0,0,1,.754-.755H38.681a.755.755,0,0,1,.755.755v.238a.755.755,0,0,1-.755.755" transform="translate(-10.674 -27.592)" fill="#ebf1ff"/>
        <path id="Trazado_604148-2" data-name="Trazado 604148" d="M38.681,49.747H15.315a.754.754,0,0,1-.754-.755v-.238A.754.754,0,0,1,15.315,48H38.681a.755.755,0,0,1,.755.755v.238a.755.755,0,0,1-.755.755" transform="translate(-10.674 -35.188)" fill="#ebf1ff"/>
        <path id="Trazado_604149-2" data-name="Trazado 604149" d="M38.681,60.11H15.315a.754.754,0,0,1-.754-.755v-.238a.754.754,0,0,1,.754-.755H38.681a.755.755,0,0,1,.755.755v.238a.755.755,0,0,1-.755.755" transform="translate(-10.674 -42.785)" fill="#ebf1ff"/>
        <path id="Trazado_604150-2" data-name="Trazado 604150" d="M38.681,9.548H15.315a.754.754,0,0,1-.754-.755V6.534a.754.754,0,0,1,.754-.755H38.681a.755.755,0,0,1,.755.755v2.26a.755.755,0,0,1-.755.755" transform="translate(-10.674 -4.237)" fill="#ebf1ff"/>
      </g>
    </g>
  </g>
</svg>
