<svg xmlns="http://www.w3.org/2000/svg" xmlns:xlink="http://www.w3.org/1999/xlink" width="505" height="289" viewBox="0 0 505 289">
  <defs>
    <clipPath id="clip-path">
      <rect id="Rectángulo_339064" data-name="Rectángulo 339064" width="357.51" height="272.822" fill="none"/>
    </clipPath>
    <clipPath id="clip-path-3">
      <rect id="Rectángulo_339059" data-name="Rectángulo 339059" width="21.672" height="20.102" fill="none"/>
    </clipPath>
    <clipPath id="clip-path-4">
      <path id="Trazado_210118" data-name="Trazado 210118" d="M991.77,1289.431c11.56.868,19.5,9.4,19.5,9.4l-6.933-.908s-9.34-3.639-14.277-5.054c-3.61-1.035-8.227.514-10.447,1.422a1.77,1.77,0,0,1-2.136-.644,1.644,1.644,0,0,1,.451-2.295c1.445-.949,4.167-2.08,9.875-2.08,1.187,0,2.5.049,3.965.159" transform="translate(-977.195 -1289.272)" fill="none"/>
    </clipPath>
    <clipPath id="clip-path-6">
      <path id="Trazado_210121" data-name="Trazado 210121" d="M1039.794,1304.777l7.53,5.973a98.579,98.579,0,0,1-11.4-2.739c-4.546-1.369-8.863.791-10.994,2.168a2.419,2.419,0,0,1-2.812-.124l-.02-.016a1.255,1.255,0,0,1-.112-1.868,15.17,15.17,0,0,1,11.134-4.617,18.62,18.62,0,0,1,6.67,1.223" transform="translate(-1021.626 -1303.555)" fill="none"/>
    </clipPath>
    <clipPath id="clip-path-8">
      <path id="Trazado_210124" data-name="Trazado 210124" d="M1011.692,1324.552l9.335.52,1.874,4.249s-3.435-.255-10.879-1.36c-5.591-.83-9.068,3.422-10.453,5.591a2.69,2.69,0,0,1-2.2,1.247.985.985,0,0,1-.976-1.242c2.256-8.241,9.458-9.053,12.21-9.053a10.086,10.086,0,0,1,1.083.049" transform="translate(-998.363 -1324.503)" fill="none"/>
    </clipPath>
  </defs>
  <g id="Grupo_988572" data-name="Grupo 988572" transform="translate(-915 -404)">
    <path id="Rectángulo_339480" data-name="Rectángulo 339480" d="M5,0H375a25,25,0,0,1,25,25V289a0,0,0,0,1,0,0H5a5,5,0,0,1-5-5V5A5,5,0,0,1,5,0Z" transform="translate(1020 404)" fill="#6b8dfc"/>
    <path id="Rectángulo_339481" data-name="Rectángulo 339481" d="M21,0H372a0,0,0,0,1,0,0V126a0,0,0,0,1,0,0H0a0,0,0,0,1,0,0V21A21,21,0,0,1,21,0Z" transform="translate(915 567)" fill="#3c3fa7"/>
    <g id="Grupo_984266" data-name="Grupo 984266" transform="translate(977.49 419.646)">
      <g id="Grupo_983823" data-name="Grupo 983823" transform="translate(0 0)">
        <g id="Grupo_983805" data-name="Grupo 983805" transform="translate(0)">
          <g id="Grupo_983822" data-name="Grupo 983822" clip-path="url(#clip-path)">
            <g id="Grupo_983809" data-name="Grupo 983809" transform="translate(0.001)">
              <g id="Grupo_983808" data-name="Grupo 983808" clip-path="url(#clip-path)">
                <path id="Trazado_210049" data-name="Trazado 210049" d="M795.155,1066.666a.645.645,0,0,1-.087.062c-8.2,4.627-13.132,29.92-13.181,30.175a.725.725,0,0,1-1.423-.273,125.858,125.858,0,0,1,3.571-13.607c3.074-9.4,6.486-15.263,10.142-17.451q.5.534.979,1.094" transform="translate(-575.37 -877.533)" fill="#fff"/>
                <path id="Trazado_210050" data-name="Trazado 210050" d="M493.141,1253.917l.846,45.129,57.641.155-2.479-51.6Z" transform="translate(-281.143 -1027.442)"/>
                <path id="Trazado_210051" data-name="Trazado 210051" d="M549.918,1297.352l-2.524-52.532-56.875,6.412.007.4.854,45.561Zm-3.36-51.55,2.434,50.665-56.745-.152-.831-44.3Z" transform="translate(-278.969 -1025.15)" fill="#fff"/>
                <path id="Trazado_210052" data-name="Trazado 210052" d="M187.415,1237.915l11.648,52.938-60.293.291-13.635-54.077Z" transform="translate(136.364 -1018.765)"/>
                <path id="Trazado_210053" data-name="Trazado 210053" d="M135.889,1289.492l.345,0,60.839-.294-11.841-53.813-.35,0-62.854-.856Zm60.088-1.173-59.4.287-13.411-53.186,61.356.836Z" transform="translate(138.902 -1016.669)" fill="#fff"/>
                <path id="Trazado_210054" data-name="Trazado 210054" d="M121.929,512.684,141.812,624.5l129.135-16.249L235.669,468.538Z" transform="translate(65.047 -385.857)" fill="#ffc849"/>
                <path id="Trazado_210055" data-name="Trazado 210055" d="M0,421.054l35.646-70.861a53.4,53.4,0,0,1,31.673-26.939l73.86-23.242a32.265,32.265,0,0,1,36.414,12.706l49.255,72.853A25.429,25.429,0,0,1,196.6,423.526l-80.55-31.187,9.751-35.015,59.734,16.2-26.3-31.428L74.579,380.024l-46.4,90.565Z" transform="translate(126.299 -245.842)" fill="#ffc849"/>
                <path id="Trazado_210056" data-name="Trazado 210056" d="M734.6,263.174,720.4,240.214l-20.39,13.428,14.326,21Z" transform="translate(-500.623 -197.824)" fill="#f47541"/>
                <path id="Trazado_210057" data-name="Trazado 210057" d="M736.625,417.059s9.7,6.412,14.663-3.571l-7.673-3.571-1.733.777-1.838.287Z" transform="translate(-523.768 -337.581)" fill="#bad6de"/>
                <path id="Trazado_210058" data-name="Trazado 210058" d="M805.018,304.5l11.934-9.881s-2.9,8.8-8.705,14.615Z" transform="translate(-601.502 -242.632)"/>
                <path id="Trazado_210059" data-name="Trazado 210059" d="M638.007,331.437l-12.278,14.626,17.354,15.185L654.7,333.512Z" transform="translate(-407.616 -272.949)" fill="#dceaef"/>
                <path id="Trazado_210060" data-name="Trazado 210060" d="M799.061,381.832l10.93,5.747-3.849,18.829-16.688-15.745Z" transform="translate(-591.794 -314.451)" fill="#dceaef"/>
                <path id="Trazado_210061" data-name="Trazado 210061" d="M780.343,45.107s-6.849,12.37,6.955,35.848,38.133,5.7,42.582-7.13c2.682-7.734-.914-21.29-.914-21.29L811.589,33.978l-21.294,3.21Z" transform="translate(-610.77 -27.982)" fill="#f47541"/>
                <path id="Trazado_210062" data-name="Trazado 210062" d="M902.849,174.31s-3.142-12.894,9.869-11.857c0,0,5.262,10.992-9.869,11.857" transform="translate(-715.358 -133.736)" fill="#fff"/>
                <path id="Trazado_210063" data-name="Trazado 210063" d="M930.418,133.706s2.21-5.948,9.643-3.039Z" transform="translate(-746.74 -106.949)"/>
                <path id="Trazado_210064" data-name="Trazado 210064" d="M808.413,33.315c.351,6.058-9.025-8.33-13.29-17.683s-8.814,1.032-16.58,6.366c-8.182,5.621-13.9,4.536-9.639.273a23.272,23.272,0,0,1-7.267,4.935c-4.016,1.551-4.648-1.97-.984-3.9,0,0-5.787-2.93-4.416-6.2s5.687.143,14.012-5.308,17.022-13.415,33.13-6.774,20.49,29.748,14.24,41.948l-2.789-1.085-.93-8.987s-5.926-11.171-5.487-3.592" transform="translate(-596.252 -2.065)"/>
                <path id="Trazado_210065" data-name="Trazado 210065" d="M815.75,45.469l.182-.354c3.541-6.913,3.714-17.117.441-26-2.919-7.919-8.212-13.8-14.905-16.56-14.669-6.049-23.321-.141-30.955,5.071-.89.608-1.731,1.182-2.584,1.741a19.746,19.746,0,0,1-10.066,3.468c-1.968.188-3.39.324-4.11,2.039-1.221,2.906,2.373,5.44,3.94,6.377-1.764,1.177-2.275,2.686-1.825,3.676.394.869,1.613,1.489,3.85.625a20.879,20.879,0,0,0,5.226-3.088,1.407,1.407,0,0,0,.309,1.072c.646.777,2.138.9,4.205.349a24.091,24.091,0,0,0,7.257-3.589,45.139,45.139,0,0,0,6.238-5.523c2.572-2.587,4.793-4.821,6.609-4.495,1.1.2,2.106,1.332,3.081,3.471a103.093,103.093,0,0,0,7.114,12.777c4.593,6.991,5.836,6.682,6.245,6.581.87-.215.8-1.471.773-1.883-.112-1.94.237-2.168.241-2.169s.633-.068,2.484,2.74c.914,1.386,1.707,2.837,1.891,3.178l.949,9.169ZM789.723.89a29.857,29.857,0,0,1,11.408,2.484c6.462,2.665,11.581,8.364,14.414,16.049,3.136,8.508,3.04,18.238-.221,24.934l-2.163-.841-.911-8.8-.04-.076c-.009-.017-.9-1.689-1.951-3.29-2.025-3.079-2.924-3.3-3.482-3.139-.723.2-1,1.149-.884,3.07.047.82-.113.98-.115.981-.292.058-1.818-.935-5.3-6.238a102.177,102.177,0,0,1-7.033-12.634c-1.1-2.422-2.324-3.722-3.728-3.974-2.27-.406-4.53,1.865-7.391,4.741a44.459,44.459,0,0,1-6.112,5.418,24.092,24.092,0,0,1-6.985,3.464c-1.962.524-3,.3-3.3-.06-.266-.319-.111-1.1,1.091-2.337.068-.068.109-.111.122-.124l-.63-.617-.088.089a22.849,22.849,0,0,1-7.026,4.747c-1.372.53-2.442.464-2.729-.167-.277-.61.194-1.922,2.11-2.931l.755-.4-.761-.386c-.054-.028-5.405-2.783-4.209-5.631.495-1.178,1.394-1.312,3.381-1.5a20.787,20.787,0,0,0,10.466-3.608c.861-.564,1.705-1.14,2.6-1.75,3.817-2.606,7.763-5.3,12.571-6.634A22.849,22.849,0,0,1,789.723.89" transform="translate(-594.172 0)"/>
                <path id="Trazado_210066" data-name="Trazado 210066" d="M757.28,137.832s-1.056-10.3,7.317-8.105c7.132,1.865,5.01,13.808-2.14,13.556Z" transform="translate(-545.118 -106.582)" fill="#f47541"/>
                <path id="Trazado_210067" data-name="Trazado 210067" d="M778.495,147.572h.015a.343.343,0,0,0,.328-.357c-.247-5.814,3.932-7.377,4.11-7.44a.343.343,0,0,0-.229-.646c-.048.017-4.835,1.781-4.566,8.115a.343.343,0,0,0,.342.328" transform="translate(-562.982 -114.561)"/>
                <path id="Trazado_210068" data-name="Trazado 210068" d="M775.758,175.147a.343.343,0,0,0,.058-.68l-5.328-.916a.343.343,0,0,0-.116.675l5.328.916a.368.368,0,0,0,.058,0" transform="translate(-554.486 -142.921)"/>
                <path id="Trazado_210069" data-name="Trazado 210069" d="M909.49,299.544s2.874-3.858,11.633-5.4c0,0-1.9,6.347-11.633,5.4" transform="translate(-724.108 -242.24)" fill="#000300"/>
                <path id="Trazado_210070" data-name="Trazado 210070" d="M909.489,299.534a8.944,8.944,0,0,1,1.38-3.5,28.311,28.311,0,0,1,6.475-1.888s-1.39,4.628-7.854,5.387" transform="translate(-720.329 -242.24)" fill="#ff1300"/>
                <path id="Trazado_210071" data-name="Trazado 210071" d="M919.226,180.5c0,.024,0,.047,0,.071-1.38,1.913-4.18,3.495-9.548,3.8,0,0-1.442-5.924,1.68-9.418a5.89,5.89,0,0,1,7.869,5.545" transform="translate(-722.186 -143.796)"/>
                <path id="Trazado_210072" data-name="Trazado 210072" d="M1014.214,228.385c-2.687,3.5-4.845,3.9-6.463,3.129-1.072-2.164-1.959-4.215-2.691-6.156-.143-1.932,2.182-2.242,3.312-2.191,3.415.155,5.843,5.217,5.843,5.217" transform="translate(-834.063 -183.782)" fill="#fff"/>
                <path id="Trazado_210073" data-name="Trazado 210073" d="M1013.609,224.526a6.848,6.848,0,0,1,4.913,1.6,4.84,4.84,0,0,1,1.315,5.072c-1.993,1.9-3.643,2.032-4.944,1.413-1.072-2.163-1.958-4.214-2.691-6.155-.3-1,.7-1.6,1.407-1.932" transform="translate(-841.206 -184.881)"/>
                <path id="Trazado_210074" data-name="Trazado 210074" d="M991.748,251.463a.342.342,0,0,0,.187-.63l-3.926-2.556,2.578-2.131a.343.343,0,0,0-.437-.528l-2.937,2.428a.343.343,0,0,0,.031.551l4.316,2.81a.34.34,0,0,0,.186.055" transform="translate(-808.77 -202.21)"/>
                <path id="Trazado_210075" data-name="Trazado 210075" d="M1049.1,185.892l-4.136,2.157q-.225-.927-.4-1.81c1.979-1.483,4.539-.347,4.539-.347" transform="translate(-875.927 -152.745)"/>
                <path id="Trazado_210076" data-name="Trazado 210076" d="M667.863,582.857,659,538.229l33.617-25.567,23.1,5.6-31.5,53.229Z" transform="translate(-474.503 -422.195)" fill="#ffc849"/>
                <path id="Trazado_210077" data-name="Trazado 210077" d="M596.782,627.035s-5.493-2.8-12.87-7.07c-14.484-8.376-21.355-3.589-21.355-3.589Z" transform="translate(-338.545 -506.485)" fill="#f47541"/>
                <path id="Trazado_210078" data-name="Trazado 210078" d="M585.45,644.379l-17.884-8.972-11.218,1.723,3.033,5.742,3.441,4.646,10.806,4.176,7.465,4.024Z" transform="translate(-326.117 -523.279)" fill="#f47541"/>
                <path id="Trazado_210079" data-name="Trazado 210079" d="M596.782,627.035s-5.493-2.8-12.87-7.07c-14.484-8.376-21.355-3.589-21.355-3.589Z" transform="translate(-338.545 -506.485)" fill="#f47541"/>
                <path id="Trazado_210080" data-name="Trazado 210080" d="M677.993,617.6a24.4,24.4,0,0,1,12.026,4.385l-1.08.62-13.166-4.1a7.617,7.617,0,0,1,2.22-.9" transform="translate(-451.761 -508.616)"/>
                <path id="Trazado_210081" data-name="Trazado 210081" d="M690.471,629.764s-4.422-2.386-14.164-1.8a3.381,3.381,0,0,1-3.161-1.729,1.732,1.732,0,0,1,1.128-2.515c4.172-1.032,13.72-2.466,22.748,2.8Z" transform="translate(-458.263 -512.84)" fill="#f47541"/>
                <path id="Trazado_210082" data-name="Trazado 210082" d="M690.877,651.092c5.422-1.71,10.576,2.595,10.576,2.595l-.14.014a51.642,51.642,0,0,0-11.035-2.681c.108-.038.481.11.6.073" transform="translate(-465.755 -535.865)"/>
                <path id="Trazado_210083" data-name="Trazado 210083" d="M697.648,665.759a25.407,25.407,0,0,0-15.527,3.055,3.628,3.628,0,0,1-3.62-.051,2.05,2.05,0,0,1-.238-3.457c3.191-2.539,10.224-6.524,20.87-5.285Z" transform="translate(-461.165 -543.358)" fill="#f47541"/>
                <path id="Trazado_210084" data-name="Trazado 210084" d="M621.789,698.861s-5.824-2.3-9.7-4.223a8.283,8.283,0,0,0-6.9-.194,78.014,78.014,0,0,0-9.75,4.781,3.4,3.4,0,0,1-3.369.122,1.823,1.823,0,0,1-.363-2.988,36.342,36.342,0,0,1,13.542-6.994Z" transform="translate(-368.587 -567.714)" fill="#f47541"/>
                <path id="Trazado_210085" data-name="Trazado 210085" d="M781.42,626.758a1.729,1.729,0,0,1,.122-.4c.011.009.021.019.033.028.289.223,1.091.537,3.221.143.776-.144,1.194-.525,1.146-1.046a.917.917,0,0,0-.4-.683c.164-.026.331-.051.5-.076a1.361,1.361,0,0,1,.3.723c.025.277-.006,1.2-1.468,1.471a10.4,10.4,0,0,1-1.851.2,2.926,2.926,0,0,1-1.6-.356" transform="translate(-566.725 -514.48)"/>
                <path id="Trazado_210086" data-name="Trazado 210086" d="M777.148,685.94c.1.18.4.257.816.21,1.1-.124,2.551-1.009,2.784-1.964a1.163,1.163,0,0,0-.3-1.316,1.273,1.273,0,0,0-.894-.178q.281-.185.582-.372a1.436,1.436,0,0,1,.541.228,1.5,1.5,0,0,1,.456,1.732c-.3,1.217-2.019,2.139-3.124,2.264a2.458,2.458,0,0,1-.272.016,1.639,1.639,0,0,1-.358-.038,2.008,2.008,0,0,1-.231-.581" transform="translate(-560.841 -561.913)"/>
                <path id="Trazado_210087" data-name="Trazado 210087" d="M747.221,723.64a2.351,2.351,0,0,1-.586-.075,1.831,1.831,0,0,1-.059-.432,2.127,2.127,0,0,0,2.065-.428,1.818,1.818,0,0,0,.777-1.648.9.9,0,0,0-.6-.611c.119-.087.24-.175.365-.264a1.227,1.227,0,0,1,.622.78,2.18,2.18,0,0,1-.91,2.049,2.637,2.637,0,0,1-1.671.629" transform="translate(-524.076 -593.093)"/>
                <path id="Trazado_210088" data-name="Trazado 210088" d="M587.3,628.568l-6.353,17.045,5.268,2.479,5.733-18.129Z" transform="translate(-336.958 -517.646)"/>
                <path id="Trazado_210089" data-name="Trazado 210089" d="M510.781,631.9l.1-.026,16.9,4.529-11.156,36.568-15.586-6.106Z" transform="translate(-258.695 -520.372)" fill="#dceaef"/>
                <path id="Trazado_210090" data-name="Trazado 210090" d="M563.421,783.441a.343.343,0,0,0,.13-.66l-15.683-6.433a.343.343,0,0,0-.26.634l15.683,6.432a.339.339,0,0,0,.13.026" transform="translate(-302.852 -639.327)"/>
                <path id="Trazado_210091" data-name="Trazado 210091" d="M574.473,741.014a3.711,3.711,0,1,0-3.711-3.711,3.715,3.715,0,0,0,3.711,3.711m0-6.736a3.025,3.025,0,1,1-3.025,3.025,3.029,3.029,0,0,1,3.025-3.025" transform="translate(-321.394 -604.138)"/>
                <path id="Trazado_210092" data-name="Trazado 210092" d="M184.893,717.622a.428.428,0,0,0,.154-.828l-64.592-24.938,10.918-35.787,66.5,18.489a.428.428,0,1,0,.23-.825l-66.9-18.6a.428.428,0,0,0-.524.287L119.52,691.988a.428.428,0,0,0,.255.524l64.964,25.081a.428.428,0,0,0,.154.029" transform="translate(138.006 -539.51)"/>
                <path id="Trazado_210093" data-name="Trazado 210093" d="M406.8,627.4a.428.428,0,0,0,.35-.674l-8.289-11.814a.428.428,0,1,0-.7.492l8.289,11.814a.428.428,0,0,0,.351.182" transform="translate(-119.968 -506.247)"/>
                <path id="Trazado_210094" data-name="Trazado 210094" d="M940.821,727.1a.433.433,0,0,0,.083-.008.428.428,0,0,0,.338-.5L934.889,694.2a.428.428,0,0,0-.84.165l6.353,32.384a.428.428,0,0,0,.42.346" transform="translate(-748.568 -571.413)"/>
                <path id="Trazado_210095" data-name="Trazado 210095" d="M1302.543,628.938s-12.941,62.05,5.111,68.087l-22.524-8.384s-12.048-24.815-8.383-38.564,5.365-45.941,5.365-45.941Z" transform="translate(-1175.327 -497.526)" fill="#dceaef"/>
                <path id="Trazado_210096" data-name="Trazado 210096" d="M634.52,912.365l21.968-51.411a24.255,24.255,0,0,1,22.3-14.746H722.95l47.373,10.281a31.676,31.676,0,0,1,21.447,16.486l48.422,95.187H648.835Z" transform="translate(-594.654 -696.88)"/>
                <path id="Trazado_210097" data-name="Trazado 210097" d="M644.881,966.545H837.3L788.55,870.716A32.016,32.016,0,0,0,766.8,854l-47.419-10.291H675.171a24.669,24.669,0,0,0-22.7,15.013l-22.027,51.549Zm190.979-.883H645.565l-14.193-55.32,21.909-51.273a23.788,23.788,0,0,1,21.89-14.478H719.29l47.326,10.271a31.132,31.132,0,0,1,21.148,16.256Z" transform="translate(-591.042 -694.822)" fill="#fff"/>
                <path id="Trazado_210098" data-name="Trazado 210098" d="M1206.506,761.589l13.414-24.48-23.407-2.86-9.456,28.346Z" transform="translate(-1071.887 -604.678)" fill="#ffa88a"/>
                <path id="Trazado_210099" data-name="Trazado 210099" d="M1089.538,503.327c7.042-15.761,24.816-18.108,37.893-14.312,6.778,1.967,12.386,9.7,15.561,18.334l.028.076,3.834-.406-1.6,6.847c1.1,5.657.855,12.019-.718,15.953-4.7,11.737-34.2,8.383-34.2,8.383s-27.833-19.114-20.791-34.875" transform="translate(-981.41 -401.411)" fill="#ffa88a"/>
                <path id="Trazado_210100" data-name="Trazado 210100" d="M1144.614,577.144s-6.033-13.574-13.574-.754c0,0,6.41,6.787,13.574.754" transform="translate(-986.696 -470.139)" fill="#fff"/>
                <path id="Trazado_210101" data-name="Trazado 210101" d="M1243.282,854.594h0s2.928,12.634-11.614,12.779-26.617-10-21.667-16.164h17.635Z" transform="translate(-1099.34 -700.998)" fill="#ffa88a"/>
                <path id="Trazado_210102" data-name="Trazado 210102" d="M1099.16,673.564a3.6,3.6,0,0,0,.458-.027.362.362,0,1,0-.092-.719c-2.26.289-6.711-2.25-6.755-2.276a.362.362,0,1,0-.361.628c.18.1,4.2,2.394,6.75,2.394" transform="translate(-935.168 -552.173)"/>
                <path id="Trazado_210103" data-name="Trazado 210103" d="M1180.8,539.776s-5.365.824-7.042,3.507c0,0,1.677-7.013,7.042-3.507" transform="translate(-1030.418 -443.714)" fill="#000300"/>
                <path id="Trazado_210104" data-name="Trazado 210104" d="M1270.725,622.245s-4.495,52.521,5.111,68.087l-22.523-8.384s-7.015-23.128-5.566-41.249c1.135-14.184,2.624-42.247,2.624-42.247Z" transform="translate(-1138.478 -492.845)" fill="#dceaef"/>
                <path id="Trazado_210105" data-name="Trazado 210105" d="M1155.338,503.327c7.042-15.761,24.815-18.108,37.893-14.312a17.776,17.776,0,0,1,7.811,5.157c-6.271-4.793-15.524-2.916-15.524-2.916,4.695,19.785-6.371,27.162-6.371,27.162l-.921,12.559-4.739,5.265c-6.771-5.264-23.838-20.183-18.15-32.914" transform="translate(-1047.21 -401.411)" fill="#dceaef"/>
                <path id="Trazado_210106" data-name="Trazado 210106" d="M1140.279,577.158a10.388,10.388,0,0,1-4.28,2.261,5.649,5.649,0,0,1-4.627-3.792,5.754,5.754,0,0,1,.2-4.345c5.111-2.214,8.708,5.876,8.708,5.876" transform="translate(-982.361 -470.153)"/>
                <path id="Trazado_210107" data-name="Trazado 210107" d="M1257.4,658.322s-8.384-3.689-9.725,3.018,8.192,13.016,13.485,7.346-3.76-10.364-3.76-10.364" transform="translate(-1125.465 -541.316)" fill="#ffa88a"/>
                <path id="Trazado_210108" data-name="Trazado 210108" d="M1277.808,680.858a.362.362,0,0,0,.254-.621c-2.706-2.653-5.039-3.1-6.519-3a5.038,5.038,0,0,0-2.653.891.362.362,0,0,0,.447.57c.14-.108,3.471-2.593,8.218,2.061a.36.36,0,0,0,.253.1" transform="translate(-1144.555 -557.714)"/>
                <path id="Trazado_210109" data-name="Trazado 210109" d="M1281.8,689.1a.363.363,0,0,0,.331-.215l2.109-4.725a.362.362,0,0,0-.662-.3l-2.109,4.725a.362.362,0,0,0,.183.479.356.356,0,0,0,.147.032" transform="translate(-1152.89 -563.005)"/>
                <path id="Trazado_210110" data-name="Trazado 210110" d="M1208.569,767.69s-4.8-.261-7.695-1.711l4.711,7.248Z" transform="translate(-1062.974 -630.809)"/>
                <path id="Trazado_210111" data-name="Trazado 210111" d="M1242.788,859.91a.361.361,0,0,0,.318-.188l3.281-5.987a.362.362,0,0,0-.635-.348l-3.281,5.987a.362.362,0,0,0,.318.536" transform="translate(-1108.169 -702.637)"/>
                <path id="Trazado_210112" data-name="Trazado 210112" d="M983.5,1302.607c0-12.81-5.922-23.195-13.228-23.195s-13.228,10.385-13.228,23.195,5.923,23.194,13.228,23.194,13.228-10.385,13.228-23.194" transform="translate(-794.874 -1053.637)"/>
                <path id="Trazado_210113" data-name="Trazado 210113" d="M1427.2,1211.456h-88.792l-39.5-70.671H1387.7Z" transform="translate(-1298.904 -939.474)" fill="#7dbcf5"/>
                <rect id="Rectángulo_339058" data-name="Rectángulo 339058" width="64.691" height="5.074" transform="translate(125.215 266.909)" fill="#7dbcf5"/>
                <g id="Grupo_983807" data-name="Grupo 983807" transform="translate(46.551 232.033)" opacity="0.7">
                  <g id="Grupo_983806" data-name="Grupo 983806" transform="translate(0)">
                    <g id="Grupo_983805-2" data-name="Grupo 983805" clip-path="url(#clip-path-3)">
                      <path id="Trazado_210114" data-name="Trazado 210114" d="M1640.84,1324.436c2.177,3.827,15.823,11.753,18.224,10.387s2.582-5.576.4-9.4-15.823-11.753-18.224-10.387-2.582,5.575-.4,9.4" transform="translate(-1639.318 -1314.877)" fill="#fff"/>
                    </g>
                  </g>
                </g>
                <path id="Trazado_210115" data-name="Trazado 210115" d="M701.615,1277.672a.726.726,0,0,1,.869-.543c.319.074,30.816,7.216,54.725,21.1l1.227,2.412c-23.963-14.529-55.953-22.022-56.278-22.1a.725.725,0,0,1-.543-.87" transform="translate(-524.735 -1051.742)" fill="#fff"/>
                <path id="Trazado_210116" data-name="Trazado 210116" d="M1011.271,1298.831s-7.943-8.531-19.5-9.4c-8.484-.637-12.094.775-13.84,1.921a1.644,1.644,0,0,0-.451,2.294,1.768,1.768,0,0,0,2.136.644c2.221-.907,6.837-2.456,10.447-1.421,4.937,1.415,14.277,5.054,14.277,5.054Z" transform="translate(-826.204 -1061.758)" fill="#ffa88a"/>
              </g>
            </g>
            <g id="Grupo_983811" data-name="Grupo 983811" transform="translate(150.991 227.514)">
              <g id="Grupo_983810" data-name="Grupo 983810" transform="translate(0)" clip-path="url(#clip-path-4)">
                <path id="Trazado_210117" data-name="Trazado 210117" d="M1074.061,1304.367s8.106-4.726,13.958-1.357Z" transform="translate(-1071.036 -1299.588)"/>
              </g>
            </g>
            <g id="Grupo_983813" data-name="Grupo 983813" transform="translate(0.001)">
              <g id="Grupo_983812" data-name="Grupo 983812" clip-path="url(#clip-path)">
                <path id="Trazado_210119" data-name="Trazado 210119" d="M1039.794,1304.778s-10.184-4.362-17.8,3.395a1.255,1.255,0,0,0,.112,1.868l.02.016a2.419,2.419,0,0,0,2.812.124c2.131-1.377,6.448-3.537,10.994-2.168a98.586,98.586,0,0,0,11.4,2.739Z" transform="translate(-870.097 -1073.52)" fill="#ffa88a"/>
              </g>
            </g>
            <g id="Grupo_983815" data-name="Grupo 983815" transform="translate(151.529 230.035)">
              <g id="Grupo_983814" data-name="Grupo 983814" transform="translate(0)" clip-path="url(#clip-path-6)">
                <path id="Trazado_210120" data-name="Trazado 210120" d="M1075.849,1321.562c-6.5-2.994-10.664,1.237-10.664,1.237Z" transform="translate(-1057.838 -1317.502)"/>
              </g>
            </g>
            <g id="Grupo_983817" data-name="Grupo 983817" transform="translate(0.001)">
              <g id="Grupo_983816" data-name="Grupo 983816" clip-path="url(#clip-path)">
                <path id="Trazado_210122" data-name="Trazado 210122" d="M1011.692,1324.552s-10.484-1.26-13.294,9a.985.985,0,0,0,.976,1.242,2.689,2.689,0,0,0,2.2-1.247c1.384-2.168,4.861-6.42,10.452-5.59,7.444,1.1,10.879,1.36,10.879,1.36l-1.874-4.249Z" transform="translate(-841.57 -1090.772)" fill="#ffa88a"/>
              </g>
            </g>
            <g id="Grupo_983819" data-name="Grupo 983819" transform="translate(156.794 233.732)">
              <g id="Grupo_983818" data-name="Grupo 983818" clip-path="url(#clip-path-8)">
                <path id="Trazado_210123" data-name="Trazado 210123" d="M1059.281,1343.534s2.282-6.625,9.352-5.5c0,0-7.229,1.576-9.352,5.5" transform="translate(-1054.845 -1335.538)"/>
              </g>
            </g>
            <g id="Grupo_983821" data-name="Grupo 983821" transform="translate(0.001)">
              <g id="Grupo_983820" data-name="Grupo 983820" clip-path="url(#clip-path)">
                <path id="Trazado_210125" data-name="Trazado 210125" d="M958.939,1344.928a2.31,2.31,0,0,0,.427.039,2.369,2.369,0,0,0,1.81-.839c1.38-1.637,4.228-4.533,6.661-3.895,2.032.532,2.6,2,5.132,3.247,1.649.81,4.13,1.529,8.389,1.83,1.55.11,2.913.172,4.091.2-.466-5.1-2.873-9.063-5.85-9.494l-1.371.053-10.741.411a11.01,11.01,0,0,0-9.4,6.9,1.136,1.136,0,0,0,.851,1.543" transform="translate(-796.997 -1100.255)" fill="#ffa88a"/>
                <path id="Trazado_210126" data-name="Trazado 210126" d="M958,1343.3c1.649.81,4.13,1.529,8.39,1.83,1.55.11,2.913.172,4.091.2-.466-5.1-2.873-9.063-5.85-9.494a3.627,3.627,0,0,0-.539-.039,3.836,3.836,0,0,0-.832.092c-2.438.548-4.451,3.474-5.26,7.409" transform="translate(-782.031 -1100.073)" fill="#ffa88a"/>
                <path id="Trazado_210127" data-name="Trazado 210127" d="M1157.414,1296.831a.969.969,0,0,0-.056-.782c.105-.045.216-.089.33-.133a1.3,1.3,0,0,1,.058,1.042c-.265.669-1.126,1.14-2.561,1.4h-.019a1.6,1.6,0,0,1,0-.36c1.583-.294,2.1-.795,2.244-1.166" transform="translate(-1004.167 -1067.229)"/>
                <path id="Trazado_210128" data-name="Trazado 210128" d="M1153.775,1323.593a1.253,1.253,0,0,1,.1-.364c.338.293.879,0,1.286-.314.425-.326.643-.634.63-.889a.534.534,0,0,0-.241-.385.174.174,0,0,1-.045-.041q.141-.115.284-.224a.864.864,0,0,1,.356.625c.023.385-.235.787-.767,1.2a2,2,0,0,1-1.171.508.841.841,0,0,1-.428-.112" transform="translate(-1002.237 -1088.196)"/>
                <path id="Trazado_210129" data-name="Trazado 210129" d="M1129.441,1367.581a.732.732,0,0,0,.237-.006c.338-.066.593-.372.735-.885a.993.993,0,0,0-.04-.788.731.731,0,0,0-.409-.307c.044-.111.088-.222.134-.33a1.08,1.08,0,0,1,.576.448,1.323,1.323,0,0,1,.081,1.072c-.229.824-.675,1.074-1.009,1.139a1.119,1.119,0,0,1-.149.017.978.978,0,0,1-.156-.36" transform="translate(-972.628 -1124.34)"/>
                <path id="Trazado_210130" data-name="Trazado 210130" d="M1105.142,1369.9c.282-.076.512-.358.686-.838a1.125,1.125,0,0,0,.037-.875.62.62,0,0,0-.309-.295c.06-.1.119-.207.181-.306a.976.976,0,0,1,.442.436,1.446,1.446,0,0,1-.017,1.16,1.506,1.506,0,0,1-.927,1.059.966.966,0,0,1-.257.034,1.071,1.071,0,0,1-.139-.01,1.136,1.136,0,0,1-.1-.382.716.716,0,0,0,.4.016" transform="translate(-943.733 -1126.255)"/>
                <path id="Trazado_210131" data-name="Trazado 210131" d="M1597.8,924.083a.724.724,0,0,1-1-.207L1584.372,905q.439-.639.914-1.247l12.725,19.321a.725.725,0,0,1-.207,1" transform="translate(-1520.21 -744.274)" fill="#fff"/>
              </g>
            </g>
          </g>
        </g>
      </g>
    </g>
    <g id="Grupo_986987" data-name="Grupo 986987" transform="translate(1210 419.646)">
      <path id="Trazado_212036" data-name="Trazado 212036" d="M222.351,47.48h38.472a17,17,0,0,0,17-17V17a17,17,0,0,0-17-17H222.351a17,17,0,0,0-17,17V30.485a17,17,0,0,0,17,17" transform="translate(-205.355 0)" fill="#fafbfd"/>
      <path id="Trazado_212037" data-name="Trazado 212037" d="M274.283,55.718,264.015,68.692a1.665,1.665,0,0,1-2.915-1.461l3.6-13.566Z" transform="translate(-244.395 -12.633)" fill="#fafbfd"/>
      <path id="Trazado_685848" data-name="Trazado 685848" d="M3.978-5.22V0h-2.7V-13.356h2.7V-8.6A3.771,3.771,0,0,1,6.723-9.846a3.428,3.428,0,0,1,2.565,1.08,3.968,3.968,0,0,1,1.044,2.88V0h-2.7V-5.292q0-2.232-1.638-2.232a1.964,1.964,0,0,0-1.413.585A2.289,2.289,0,0,0,3.978-5.22ZM21.456-1.4A5.414,5.414,0,0,1,17.613.144a5.1,5.1,0,0,1-3.645-1.359,4.774,4.774,0,0,1-1.44-3.645A4.7,4.7,0,0,1,13.995-8.5a4.948,4.948,0,0,1,3.465-1.35A5.009,5.009,0,0,1,20.853-8.64a4.148,4.148,0,0,1,1.4,3.312v1.44H15.192a1.926,1.926,0,0,0,.828,1.3,2.65,2.65,0,0,0,1.584.5,3.107,3.107,0,0,0,2.34-.954Zm-1.944-4.41a1.916,1.916,0,0,0-.648-1.332,2.044,2.044,0,0,0-1.359-.468,2.433,2.433,0,0,0-1.467.486,1.859,1.859,0,0,0-.774,1.314ZM27.18,0h-2.7V-13.356h2.7Zm5.544,0h-2.7V-13.356h2.7Zm5-4.842A2.776,2.776,0,0,0,38.4-2.907a2.225,2.225,0,0,0,1.728.747,2.225,2.225,0,0,0,1.728-.747,2.776,2.776,0,0,0,.675-1.935,2.809,2.809,0,0,0-.675-1.944,2.212,2.212,0,0,0-1.728-.756,2.212,2.212,0,0,0-1.728.756A2.809,2.809,0,0,0,37.728-4.842Zm7.524,0A4.789,4.789,0,0,1,43.794-1.3,5,5,0,0,1,40.131.144,5,5,0,0,1,36.468-1.3,4.789,4.789,0,0,1,35.01-4.842,4.818,4.818,0,0,1,36.468-8.4a4.984,4.984,0,0,1,3.663-1.449A4.984,4.984,0,0,1,43.794-8.4,4.818,4.818,0,0,1,45.252-4.842Zm2.25-7.74h3.186v2.232l-.54,6.48H48.024L47.5-10.35ZM47.961-.315A1.53,1.53,0,0,1,47.5-1.44a1.53,1.53,0,0,1,.459-1.125,1.53,1.53,0,0,1,1.125-.459,1.53,1.53,0,0,1,1.125.459A1.53,1.53,0,0,1,50.67-1.44a1.53,1.53,0,0,1-.459,1.125,1.53,1.53,0,0,1-1.125.459A1.53,1.53,0,0,1,47.961-.315Z" transform="translate(9.732 29.74)" fill="#fc83b9"/>
    </g>
    <g id="Grupo_986986" data-name="Grupo 986986" transform="translate(53 -392.671)">
      <path id="Trazado_212067" data-name="Trazado 212067" d="M80.669,106.724H38.494A19.716,19.716,0,0,1,18.778,87.008V75.523A19.716,19.716,0,0,1,38.494,55.808H80.669a19.715,19.715,0,0,1,19.715,19.715V87.008a19.715,19.715,0,0,1-19.715,19.715" transform="translate(910.58 797.863)" fill="#fc83b9"/>
      <path id="Trazado_212068" data-name="Trazado 212068" d="M86.625,115.176,96.893,128.15a1.665,1.665,0,0,0,2.915-1.461l-3.6-13.566Z" transform="translate(894.609 784.371)" fill="#fc83b9"/>
      <path id="Trazado_685847" data-name="Trazado 685847" d="M3.978-5.22V0h-2.7V-13.356h2.7V-8.6A3.771,3.771,0,0,1,6.723-9.846a3.428,3.428,0,0,1,2.565,1.08,3.968,3.968,0,0,1,1.044,2.88V0h-2.7V-5.292q0-2.232-1.638-2.232a1.964,1.964,0,0,0-1.413.585A2.289,2.289,0,0,0,3.978-5.22ZM21.438-1.4A5.414,5.414,0,0,1,17.6.144,5.1,5.1,0,0,1,13.95-1.215,4.774,4.774,0,0,1,12.51-4.86,4.7,4.7,0,0,1,13.977-8.5a4.948,4.948,0,0,1,3.465-1.35A5.009,5.009,0,0,1,20.835-8.64,4.148,4.148,0,0,1,22.23-5.328v1.44H15.174A1.926,1.926,0,0,0,16-2.592a2.65,2.65,0,0,0,1.584.5,3.107,3.107,0,0,0,2.34-.954Zm-1.944-4.41a1.916,1.916,0,0,0-.648-1.332,2.044,2.044,0,0,0-1.359-.468,2.433,2.433,0,0,0-1.467.486,1.859,1.859,0,0,0-.774,1.314ZM27.144,0h-2.7V-13.356h2.7ZM32.67,0h-2.7V-13.356h2.7Zm4.986-4.842a2.776,2.776,0,0,0,.675,1.935,2.225,2.225,0,0,0,1.728.747,2.225,2.225,0,0,0,1.728-.747,2.776,2.776,0,0,0,.675-1.935,2.809,2.809,0,0,0-.675-1.944,2.212,2.212,0,0,0-1.728-.756,2.212,2.212,0,0,0-1.728.756A2.809,2.809,0,0,0,37.656-4.842Zm7.524,0A4.789,4.789,0,0,1,43.722-1.3,5,5,0,0,1,40.059.144,5,5,0,0,1,36.4-1.3a4.789,4.789,0,0,1-1.458-3.546A4.818,4.818,0,0,1,36.4-8.4a4.984,4.984,0,0,1,3.663-1.449A4.984,4.984,0,0,1,43.722-8.4,4.818,4.818,0,0,1,45.18-4.842Zm2.232-7.74H50.6v2.232l-.54,6.48H47.934l-.522-6.48ZM47.871-.315a1.53,1.53,0,0,1-.459-1.125,1.53,1.53,0,0,1,.459-1.125A1.53,1.53,0,0,1,49-3.024a1.53,1.53,0,0,1,1.125.459A1.53,1.53,0,0,1,50.58-1.44a1.53,1.53,0,0,1-.459,1.125A1.53,1.53,0,0,1,49,.144,1.53,1.53,0,0,1,47.871-.315Z" transform="translate(944.161 885.129)" fill="#fafbfd"/>
    </g>
  </g>
</svg>
