<svg xmlns="http://www.w3.org/2000/svg" width="275.224" height="505.5" viewBox="0 0 275.224 505.5">
  <g id="Grupo_988562" data-name="Grupo 988562" transform="translate(7159.506 6822.72)">
    <rect id="Rectángulo_341349" data-name="Rectángulo 341349" width="212" height="30" rx="5" transform="translate(-7159.506 -6822.72)" fill="#3c3fa7"/>
    <rect id="Rectángulo_341350" data-name="Rectángulo 341350" width="211" height="46" rx="5" transform="translate(-7095.283 -6522.22)" fill="#ffdfe0"/>
    <rect id="Rectángulo_341351" data-name="Rectángulo 341351" width="211" height="46" rx="5" transform="translate(-7095.283 -6363.22)" fill="#ffdfe0"/>
    <path id="Trazado_685823" data-name="Trazado 685823" d="M-5577-8759v387.327" transform="translate(-1555.506 1966.067)" fill="none" stroke="#3c3fa7" stroke-width="2"/>
    <rect id="Rectángulo_341352" data-name="Rectángulo 341352" width="272" height="51" rx="5" transform="translate(-7159.506 -6766.377)" fill="#fff0b5"/>
    <rect id="Rectángulo_341353" data-name="Rectángulo 341353" width="275" height="51" rx="5" transform="translate(-7159.283 -6607.378)" fill="#ffbfc1"/>
    <rect id="Rectángulo_341354" data-name="Rectángulo 341354" width="275" height="51" rx="5" transform="translate(-7159.283 -6448.378)" fill="#ffbfc1"/>
    <path id="Trazado_685824" data-name="Trazado 685824" d="M-7394-8380.56v33.656" transform="translate(312.494 1665.183)" fill="none" stroke="#3c3fa7" stroke-width="2"/>
    <path id="Trazado_685825" data-name="Trazado 685825" d="M-7394-8380.561v33.656" transform="translate(312.494 1824.182)" fill="none" stroke="#3c3fa7" stroke-width="2"/>
    <path id="Trazado_685826" data-name="Trazado 685826" d="M-7394-8380.561v33.656" transform="translate(312.494 1983.182)" fill="none" stroke="#3c3fa7" stroke-width="2"/>
    <rect id="Rectángulo_341355" data-name="Rectángulo 341355" width="211" height="46" rx="5" transform="translate(-7098.283 -6681.721)" fill="#fff7da"/>
    <path id="Trazado_685882" data-name="Trazado 685882" d="M18.578,13.2a4.254,4.254,0,0,1-.8,2.09,4.375,4.375,0,0,1-1.75,1.4,5.329,5.329,0,0,1-2.328.465,3.936,3.936,0,0,1-1.961-.52A3.443,3.443,0,0,1,10.418,15.2a5.312,5.312,0,0,1-.543-2.168,10.634,10.634,0,0,1,.2-2.391A7.578,7.578,0,0,1,10.98,8.1a5.666,5.666,0,0,1,1.551-1.758,4.679,4.679,0,0,1,2.891-.875,3.839,3.839,0,0,1,2.8,1.09A4.384,4.384,0,0,1,19.359,9.5l-2.281-.008a2.391,2.391,0,0,0-.43-1.578,1.752,1.752,0,0,0-1.336-.531,2.319,2.319,0,0,0-1.926.836,5.027,5.027,0,0,0-1.012,2.555,14.155,14.155,0,0,0-.219,2.445,2.434,2.434,0,0,0,.461,1.52,1.543,1.543,0,0,0,1.18.512,2.356,2.356,0,0,0,1.676-.5,2.625,2.625,0,0,0,.832-1.535Zm5.656-4.812a3.39,3.39,0,0,1,1.926.574A3.234,3.234,0,0,1,27.348,10.5a4.762,4.762,0,0,1,.27,2.176,5.143,5.143,0,0,1-1.4,3.262,3.96,3.96,0,0,1-3.02,1.215,3.38,3.38,0,0,1-1.906-.566A3.222,3.222,0,0,1,20.1,15.063a4.657,4.657,0,0,1-.273-2.156A5.3,5.3,0,0,1,21.25,9.578,3.878,3.878,0,0,1,24.234,8.391Zm-2.227,5.315a1.95,1.95,0,0,0,.352,1.182,1.168,1.168,0,0,0,.945.449A1.712,1.712,0,0,0,24.9,14.4a4.647,4.647,0,0,0,.539-2.531,2.122,2.122,0,0,0-.363-1.2,1.149,1.149,0,0,0-.949-.464,1.715,1.715,0,0,0-1.574.924A4.6,4.6,0,0,0,22.008,13.706Zm9.727-5.167-.187,1a3.042,3.042,0,0,1,2.461-1.148,2.028,2.028,0,0,1,1.766.875,3.526,3.526,0,0,1,.414,2.359L35.3,17h-2.2L34,11.6a2.528,2.528,0,0,0,.016-.555.9.9,0,0,0-1-.82,1.9,1.9,0,0,0-1.555.8L30.406,17H28.2l1.469-8.453Zm8.992,6.8a1.447,1.447,0,0,0,1.016-.332,1.632,1.632,0,0,0,.531-.926l2.07-.008a3.037,3.037,0,0,1-.559,1.6,3.394,3.394,0,0,1-1.344,1.109,3.847,3.847,0,0,1-1.77.375A3.123,3.123,0,0,1,38.234,16.1a3.965,3.965,0,0,1-.867-2.766l.023-.43.008-.086a5.284,5.284,0,0,1,1.391-3.27A3.761,3.761,0,0,1,41.7,8.391a3.047,3.047,0,0,1,2.27.934A3.3,3.3,0,0,1,44.8,11.7H42.742a1.73,1.73,0,0,0-.3-1.07,1.128,1.128,0,0,0-.891-.422q-1.578-.047-1.914,2.3a7.782,7.782,0,0,0-.086,1.438Q39.633,15.32,40.727,15.344ZM47.523,17H45.3L47.391,5H49.6Zm7.1-.875A2.919,2.919,0,0,1,52.3,17.156a2.172,2.172,0,0,1-1.844-.875,3.2,3.2,0,0,1-.484-2.266l.914-5.469h2.2l-.93,5.5a2.175,2.175,0,0,0-.008.485.8.8,0,0,0,.867.806,2.014,2.014,0,0,0,1.7-.79l1.055-6h2.219L56.516,17H54.461Zm8.43-1.508q.125-.625-.867-.906l-.711-.18q-2.523-.7-2.453-2.453a2.428,2.428,0,0,1,1.059-1.949,3.942,3.942,0,0,1,2.457-.738,3.536,3.536,0,0,1,2.313.758,2.5,2.5,0,0,1,.9,1.977l-2.187-.008a.963.963,0,0,0-1.078-1.1,1.552,1.552,0,0,0-.895.258,1.061,1.061,0,0,0-.465.7q-.117.625.945.883l.313.07a6.285,6.285,0,0,1,1.648.59,2.488,2.488,0,0,1,.879.824,2.04,2.04,0,0,1,.285,1.18,2.251,2.251,0,0,1-.52,1.406,3.18,3.18,0,0,1-1.359.93,4.736,4.736,0,0,1-1.816.3,3.568,3.568,0,0,1-2.344-.809A2.607,2.607,0,0,1,58.2,14.3l2.078.016a1.142,1.142,0,0,0,1.3,1.227,1.845,1.845,0,0,0,1-.25A.987.987,0,0,0,63.055,14.617ZM68.539,17H66.32l1.469-8.453h2.219ZM68.047,6.4a1.1,1.1,0,0,1,.344-.867,1.323,1.323,0,0,1,1.734-.039,1.1,1.1,0,0,1,.383.828,1.132,1.132,0,0,1-.324.844,1.215,1.215,0,0,1-.887.375,1.235,1.235,0,0,1-.863-.3A1.091,1.091,0,0,1,68.047,6.4Zm7.2,1.992a3.39,3.39,0,0,1,1.926.574A3.234,3.234,0,0,1,78.355,10.5a4.762,4.762,0,0,1,.27,2.176,5.143,5.143,0,0,1-1.4,3.262,3.96,3.96,0,0,1-3.02,1.215A3.38,3.38,0,0,1,72.3,16.59a3.222,3.222,0,0,1-1.187-1.527,4.657,4.657,0,0,1-.273-2.156,5.3,5.3,0,0,1,1.422-3.328A3.878,3.878,0,0,1,75.242,8.391Zm-2.227,5.315a1.95,1.95,0,0,0,.352,1.182,1.168,1.168,0,0,0,.945.449,1.712,1.712,0,0,0,1.594-.932,4.647,4.647,0,0,0,.539-2.531,2.122,2.122,0,0,0-.363-1.2,1.149,1.149,0,0,0-.949-.464,1.715,1.715,0,0,0-1.574.924A4.6,4.6,0,0,0,73.016,13.706Zm9.727-5.167-.187,1a3.042,3.042,0,0,1,2.461-1.148,2.028,2.028,0,0,1,1.766.875,3.526,3.526,0,0,1,.414,2.359L86.3,17H84.1l.906-5.4a2.528,2.528,0,0,0,.016-.555.9.9,0,0,0-1-.82,1.9,1.9,0,0,0-1.555.8L81.414,17h-2.2L80.68,8.547Zm9.586,9.438H91.047L97.8,5.625H99.07Zm19.688-4.586a4.185,4.185,0,0,1-1.332,2.785,4.365,4.365,0,0,1-2.98.98,4.008,4.008,0,0,1-3.23-1.445,5.815,5.815,0,0,1-1.215-3.867V10.75a6.481,6.481,0,0,1,.566-2.789,4.231,4.231,0,0,1,1.605-1.848,4.47,4.47,0,0,1,2.406-.645,4.11,4.11,0,0,1,2.906,1.012,4.235,4.235,0,0,1,1.273,2.8h-1.508a3.268,3.268,0,0,0-.848-1.975,2.565,2.565,0,0,0-1.824-.611,2.684,2.684,0,0,0-2.254,1.063,4.882,4.882,0,0,0-.816,3.026v1.1a5.018,5.018,0,0,0,.773,2.948A2.5,2.5,0,0,0,107.7,15.93a2.886,2.886,0,0,0,1.918-.566,3.143,3.143,0,0,0,.887-1.973Zm1.438-.7a4.993,4.993,0,0,1,.488-2.234A3.643,3.643,0,0,1,115.3,8.93a3.7,3.7,0,0,1,1.988-.539,3.565,3.565,0,0,1,2.793,1.2,4.6,4.6,0,0,1,1.066,3.18v.1a5.036,5.036,0,0,1-.473,2.215,3.589,3.589,0,0,1-1.352,1.527,3.743,3.743,0,0,1-2.02.547,3.556,3.556,0,0,1-2.785-1.2,4.575,4.575,0,0,1-1.066-3.164Zm1.453.172a3.616,3.616,0,0,0,.652,2.258,2.211,2.211,0,0,0,3.5-.012A3.955,3.955,0,0,0,119.7,12.7a3.61,3.61,0,0,0-.66-2.254,2.1,2.1,0,0,0-1.754-.863,2.075,2.075,0,0,0-1.727.852A3.925,3.925,0,0,0,114.906,12.867Zm9.422-4.32.047,1.063a3.08,3.08,0,0,1,2.531-1.219q2.68,0,2.7,3.023V17h-1.445V11.406a1.946,1.946,0,0,0-.418-1.352,1.675,1.675,0,0,0-1.277-.437,2.086,2.086,0,0,0-1.234.375,2.546,2.546,0,0,0-.828.984V17h-1.445V8.547Zm10.852,7.43a2.082,2.082,0,0,0,1.352-.469,1.649,1.649,0,0,0,.641-1.172h1.367a2.621,2.621,0,0,1-.5,1.383,3.293,3.293,0,0,1-1.23,1.047,3.55,3.55,0,0,1-1.629.391A3.482,3.482,0,0,1,132.434,16a4.59,4.59,0,0,1-1.02-3.152v-.242a5.089,5.089,0,0,1,.453-2.2,3.451,3.451,0,0,1,1.3-1.492,3.7,3.7,0,0,1,2-.531,3.39,3.39,0,0,1,2.363.852,3.043,3.043,0,0,1,1,2.211h-1.367a1.992,1.992,0,0,0-.621-1.348,1.932,1.932,0,0,0-1.379-.527,2.023,2.023,0,0,0-1.707.793,3.724,3.724,0,0,0-.605,2.293v.273a3.65,3.65,0,0,0,.6,2.25A2.033,2.033,0,0,0,135.18,15.977ZM141.734,17h-1.445V5h1.445Zm7.531-.836a3.07,3.07,0,0,1-2.477.992,2.628,2.628,0,0,1-2.059-.785,3.4,3.4,0,0,1-.715-2.324v-5.5h1.445v5.461q0,1.922,1.563,1.922a2.163,2.163,0,0,0,2.2-1.234V8.547h1.445V17H149.3Zm8.523-1.406a1.064,1.064,0,0,0-.441-.91,4.249,4.249,0,0,0-1.539-.559,7.277,7.277,0,0,1-1.742-.562,2.479,2.479,0,0,1-.953-.781,1.869,1.869,0,0,1-.309-1.078,2.193,2.193,0,0,1,.879-1.758,3.432,3.432,0,0,1,2.246-.719,3.532,3.532,0,0,1,2.332.742,2.357,2.357,0,0,1,.895,1.9H157.7a1.3,1.3,0,0,0-.5-1.023,1.888,1.888,0,0,0-1.27-.43,1.976,1.976,0,0,0-1.234.344,1.082,1.082,0,0,0-.445.9.877.877,0,0,0,.414.789,5.1,5.1,0,0,0,1.5.508,7.8,7.8,0,0,1,1.754.578,2.558,2.558,0,0,1,1,.809,1.988,1.988,0,0,1,.324,1.152,2.163,2.163,0,0,1-.906,1.816,3.8,3.8,0,0,1-2.352.684,4.257,4.257,0,0,1-1.8-.359,2.922,2.922,0,0,1-1.223-1,2.42,2.42,0,0,1-.441-1.395h1.445a1.5,1.5,0,0,0,.582,1.152,2.258,2.258,0,0,0,1.434.426,2.331,2.331,0,0,0,1.316-.332A1.02,1.02,0,0,0,157.789,14.758Zm4.9,2.242h-1.445V8.547h1.445ZM161.125,6.3a.863.863,0,0,1,.215-.594.807.807,0,0,1,.637-.242.819.819,0,0,1,.641.242.854.854,0,0,1,.219.594.826.826,0,0,1-.219.586.834.834,0,0,1-.641.234.821.821,0,0,1-.637-.234A.834.834,0,0,1,161.125,6.3Zm3.492,6.391a4.993,4.993,0,0,1,.488-2.234,3.642,3.642,0,0,1,1.359-1.531,3.7,3.7,0,0,1,1.988-.539,3.565,3.565,0,0,1,2.793,1.2,4.6,4.6,0,0,1,1.066,3.18v.1a5.036,5.036,0,0,1-.473,2.215,3.589,3.589,0,0,1-1.352,1.527,3.743,3.743,0,0,1-2.02.547,3.556,3.556,0,0,1-2.785-1.2,4.575,4.575,0,0,1-1.066-3.164Zm1.453.172a3.616,3.616,0,0,0,.652,2.258,2.211,2.211,0,0,0,3.5-.012,3.954,3.954,0,0,0,.648-2.418,3.61,3.61,0,0,0-.66-2.254,2.1,2.1,0,0,0-1.754-.863,2.075,2.075,0,0,0-1.727.852A3.925,3.925,0,0,0,166.07,12.867Zm3.039-7.852h1.75l-2.094,2.3-1.164,0Zm6.383,3.531.047,1.063a3.08,3.08,0,0,1,2.531-1.219q2.68,0,2.7,3.023V17h-1.445V11.406a1.946,1.946,0,0,0-.418-1.352,1.675,1.675,0,0,0-1.277-.437,2.086,2.086,0,0,0-1.234.375,2.546,2.546,0,0,0-.828.984V17h-1.445V8.547Z" transform="translate(-7157.283 -6817.22)" fill="#d5d6f0"/>
    <path id="Trazado_685883" data-name="Trazado 685883" d="M63.82,12.836H61.961L61.234,17H58.945L60.922,5.625l3.766.008a4.289,4.289,0,0,1,2.91.891A2.817,2.817,0,0,1,68.5,9,3.574,3.574,0,0,1,66,12.258l1.6,4.617V17H65.164Zm-1.531-1.9,1.7.016a2.386,2.386,0,0,0,1.5-.488A1.933,1.933,0,0,0,66.2,9.18a1.473,1.473,0,0,0-.242-1.187,1.442,1.442,0,0,0-1.117-.461l-1.953-.008ZM72.8,17.156a3.677,3.677,0,0,1-1.965-.543,3.292,3.292,0,0,1-1.277-1.469,4.093,4.093,0,0,1-.328-2.059l.023-.312a5.465,5.465,0,0,1,.719-2.266,4.341,4.341,0,0,1,1.547-1.59,3.827,3.827,0,0,1,2.094-.527,2.924,2.924,0,0,1,2.473,1.2,4.117,4.117,0,0,1,.637,2.962l-.125.962h-5.18a1.814,1.814,0,0,0,.4,1.313,1.521,1.521,0,0,0,1.172.508A2.7,2.7,0,0,0,75.1,14.4l1.008,1.25a3.135,3.135,0,0,1-1.375,1.121A4.5,4.5,0,0,1,72.8,17.156Zm.7-6.945a1.565,1.565,0,0,0-1.082.383,3.363,3.363,0,0,0-.848,1.383h3.031l.047-.2a2.071,2.071,0,0,0,.008-.594,1.134,1.134,0,0,0-.383-.707A1.2,1.2,0,0,0,73.508,10.211Zm8.648,4.406q.125-.625-.867-.906l-.711-.18q-2.523-.7-2.453-2.453a2.428,2.428,0,0,1,1.059-1.949,3.942,3.942,0,0,1,2.457-.738,3.536,3.536,0,0,1,2.313.758,2.5,2.5,0,0,1,.9,1.977l-2.187-.008a.963.963,0,0,0-1.078-1.1,1.552,1.552,0,0,0-.895.258,1.061,1.061,0,0,0-.465.7q-.117.625.945.883l.313.07a6.285,6.285,0,0,1,1.648.59,2.488,2.488,0,0,1,.879.824,2.04,2.04,0,0,1,.285,1.18,2.251,2.251,0,0,1-.52,1.406,3.18,3.18,0,0,1-1.359.93,4.736,4.736,0,0,1-1.816.3,3.568,3.568,0,0,1-2.344-.809A2.607,2.607,0,0,1,77.3,14.3l2.078.016a1.142,1.142,0,0,0,1.3,1.227,1.845,1.845,0,0,0,1-.25A.987.987,0,0,0,82.156,14.617Zm7.625-8.148-.367,2.078H90.82L90.531,10.2H89.125l-.719,4.234a1.077,1.077,0,0,0,.063.609q.109.211.531.227.125.008.672-.039l-.156,1.727a3.706,3.706,0,0,1-1.266.18,1.985,1.985,0,0,1-1.617-.68,2.456,2.456,0,0,1-.437-1.8l.727-4.461h-1.2l.289-1.656h1.2l.359-2.078ZM95.523,17a2.281,2.281,0,0,1-.086-.766,2.863,2.863,0,0,1-2.156.922,2.594,2.594,0,0,1-1.84-.723,2.186,2.186,0,0,1-.684-1.746,2.527,2.527,0,0,1,1.16-2.121,5.266,5.266,0,0,1,2.965-.738l1.031.016.109-.508a1.764,1.764,0,0,0,.023-.492.846.846,0,0,0-.277-.574.955.955,0,0,0-.629-.215,1.345,1.345,0,0,0-.875.254,1.231,1.231,0,0,0-.461.777l-2.211.008a2.457,2.457,0,0,1,1.113-1.965,4.312,4.312,0,0,1,2.613-.738,3.117,3.117,0,0,1,2.25.855,2.5,2.5,0,0,1,.68,2.121L97.6,15.414l-.039.5a2.412,2.412,0,0,0,.133.938L97.688,17Zm-1.7-1.555a2.017,2.017,0,0,0,1.664-.828l.273-1.461L95,13.148a2.139,2.139,0,0,0-1.758.742,1.292,1.292,0,0,0-.242.633.75.75,0,0,0,.176.668A.891.891,0,0,0,93.828,15.445ZM103.5,6.469l-.367,2.078h1.406L104.25,10.2h-1.406l-.719,4.234a1.077,1.077,0,0,0,.063.609q.109.211.531.227.125.008.672-.039l-.156,1.727a3.706,3.706,0,0,1-1.266.18,1.985,1.985,0,0,1-1.617-.68,2.456,2.456,0,0,1-.437-1.8l.727-4.461h-1.2l.289-1.656h1.2l.359-2.078Zm4.867,10.688a3.677,3.677,0,0,1-1.965-.543,3.292,3.292,0,0,1-1.277-1.469,4.093,4.093,0,0,1-.328-2.059l.023-.312a5.465,5.465,0,0,1,.719-2.266,4.341,4.341,0,0,1,1.547-1.59,3.827,3.827,0,0,1,2.094-.527,2.924,2.924,0,0,1,2.473,1.2,4.117,4.117,0,0,1,.637,2.962l-.125.962h-5.18a1.814,1.814,0,0,0,.4,1.313,1.521,1.521,0,0,0,1.172.508,2.7,2.7,0,0,0,2.109-.937l1.008,1.25A3.135,3.135,0,0,1,110.3,16.77,4.5,4.5,0,0,1,108.367,17.156Zm.7-6.945a1.565,1.565,0,0,0-1.082.383,3.363,3.363,0,0,0-.848,1.383h3.031l.047-.2a2.071,2.071,0,0,0,.008-.594,1.134,1.134,0,0,0-.383-.707A1.2,1.2,0,0,0,109.07,10.211Zm11.4,5.133a1.447,1.447,0,0,0,1.016-.332,1.632,1.632,0,0,0,.531-.926l2.07-.008a3.037,3.037,0,0,1-.559,1.6,3.394,3.394,0,0,1-1.344,1.109,3.847,3.847,0,0,1-1.77.375,3.123,3.123,0,0,1-2.437-1.062,3.965,3.965,0,0,1-.867-2.766l.023-.43.008-.086a5.284,5.284,0,0,1,1.391-3.27,3.761,3.761,0,0,1,2.914-1.16,3.047,3.047,0,0,1,2.27.934,3.3,3.3,0,0,1,.824,2.379h-2.055a1.73,1.73,0,0,0-.3-1.07,1.128,1.128,0,0,0-.891-.422q-1.578-.047-1.914,2.3a7.782,7.782,0,0,0-.086,1.438Q119.375,15.32,120.469,15.344Zm6.8,1.656h-2.219l2.086-12h2.211Zm6.758,0a2.281,2.281,0,0,1-.086-.766,2.863,2.863,0,0,1-2.156.922,2.594,2.594,0,0,1-1.84-.723,2.186,2.186,0,0,1-.684-1.746,2.527,2.527,0,0,1,1.16-2.121,5.266,5.266,0,0,1,2.965-.738l1.031.016.109-.508a1.764,1.764,0,0,0,.023-.492.846.846,0,0,0-.277-.574.955.955,0,0,0-.629-.215,1.345,1.345,0,0,0-.875.254,1.231,1.231,0,0,0-.461.777l-2.211.008a2.457,2.457,0,0,1,1.113-1.965,4.312,4.312,0,0,1,2.613-.738,3.117,3.117,0,0,1,2.25.855,2.5,2.5,0,0,1,.68,2.121l-.648,4.047-.039.5a2.412,2.412,0,0,0,.133.938l-.008.148Zm-1.7-1.555a2.017,2.017,0,0,0,1.664-.828l.273-1.461-.766-.008a2.139,2.139,0,0,0-1.758.742,1.292,1.292,0,0,0-.242.633.75.75,0,0,0,.176.668A.891.891,0,0,0,132.328,15.445ZM139.859,17h-2.219l1.469-8.453h2.219Zm-.492-10.6a1.1,1.1,0,0,1,.344-.867,1.323,1.323,0,0,1,1.734-.039,1.1,1.1,0,0,1,.383.828,1.132,1.132,0,0,1-.324.844,1.215,1.215,0,0,1-.887.375,1.235,1.235,0,0,1-.863-.3A1.091,1.091,0,0,1,139.367,6.4Zm5.875,2.141-.18.961a3.112,3.112,0,0,1,2.477-1.109,2.379,2.379,0,0,1,1.3.359,1.679,1.679,0,0,1,.7.93,3.255,3.255,0,0,1,2.625-1.289,2.126,2.126,0,0,1,1.754.8,3.271,3.271,0,0,1,.5,2.234l-.016.2-.9,5.383h-2.211l.9-5.4a3.909,3.909,0,0,0,.023-.54.837.837,0,0,0-.937-.845,1.86,1.86,0,0,0-1.555.97l-.023.18L148.7,17h-2.2l.9-5.383a3.9,3.9,0,0,0,.023-.539.836.836,0,0,0-.93-.852,1.867,1.867,0,0,0-1.508.789L143.93,17h-2.2l1.461-8.453ZM35.074,32.4H32.4V37H30.895V25.625H34.66a4.457,4.457,0,0,1,2.957.875,3.148,3.148,0,0,1,1.035,2.547,3.062,3.062,0,0,1-.574,1.852,3.428,3.428,0,0,1-1.6,1.18l2.672,4.828V37H37.543ZM32.4,31.172h2.3a2.6,2.6,0,0,0,1.777-.579,1.959,1.959,0,0,0,.66-1.55,2.062,2.062,0,0,0-.629-1.62,2.663,2.663,0,0,0-1.816-.571H32.4Zm11.633,5.984a3.693,3.693,0,0,1-2.8-1.129,4.19,4.19,0,0,1-1.078-3.02v-.266a5.073,5.073,0,0,1,.48-2.246,3.748,3.748,0,0,1,1.344-1.547,3.378,3.378,0,0,1,1.871-.559,3.166,3.166,0,0,1,2.563,1.086,4.7,4.7,0,0,1,.914,3.109v.6H41.605a3,3,0,0,0,.73,2.02,2.3,2.3,0,0,0,1.777.77,2.517,2.517,0,0,0,1.3-.312,3.258,3.258,0,0,0,.93-.828l.883.688A3.55,3.55,0,0,1,44.035,37.156Zm-.18-7.578a1.928,1.928,0,0,0-1.469.637A3.1,3.1,0,0,0,41.652,32h4.234v-.109a2.753,2.753,0,0,0-.594-1.707A1.815,1.815,0,0,0,43.855,29.578ZM54.223,37a3.036,3.036,0,0,1-.2-.891,3.225,3.225,0,0,1-2.406,1.047,2.984,2.984,0,0,1-2.051-.707,2.287,2.287,0,0,1-.8-1.793,2.39,2.39,0,0,1,1-2.051,4.733,4.733,0,0,1,2.824-.73H54v-.664A1.623,1.623,0,0,0,53.543,30a1.821,1.821,0,0,0-1.336-.449,2.107,2.107,0,0,0-1.3.391,1.151,1.151,0,0,0-.523.945H48.934a2,2,0,0,1,.449-1.223,3.066,3.066,0,0,1,1.219-.934,4.1,4.1,0,0,1,1.691-.344,3.342,3.342,0,0,1,2.289.73,2.635,2.635,0,0,1,.859,2.012v3.891a4.757,4.757,0,0,0,.3,1.852V37Zm-2.4-1.1a2.54,2.54,0,0,0,1.289-.352A2.127,2.127,0,0,0,54,34.633V32.9H52.863q-2.656,0-2.656,1.555a1.316,1.316,0,0,0,.453,1.063A1.742,1.742,0,0,0,51.824,35.9ZM58.191,37V29.664H56.855V28.547h1.336v-.719a2.937,2.937,0,0,1,.809-2.2,3.136,3.136,0,0,1,2.285-.789,6.881,6.881,0,0,1,2.211.477l-.242,1.219a5.008,5.008,0,0,0-1.859-.391,1.819,1.819,0,0,0-1.34.418,1.723,1.723,0,0,0-.41,1.254v.734h1.727v1.117H59.645V37Zm6.023,0H62.762V28.547h1.453Zm6.438-7.156a4.331,4.331,0,0,0-.711-.055A1.9,1.9,0,0,0,68.012,31v6H66.566V28.547h1.406l.023.977a2.251,2.251,0,0,1,2.016-1.133,1.477,1.477,0,0,1,.641.109Zm2.688-1.3.039.938a3.122,3.122,0,0,1,2.508-1.094A2.417,2.417,0,0,1,78.3,29.75a3.2,3.2,0,0,1,1.1-.984,3.242,3.242,0,0,1,1.6-.375q2.781,0,2.828,2.945V37H82.379V31.422a1.941,1.941,0,0,0-.414-1.355,1.823,1.823,0,0,0-1.391-.449,1.916,1.916,0,0,0-1.336.48,1.949,1.949,0,0,0-.617,1.293V37H77.168V31.461a1.613,1.613,0,0,0-1.8-1.844,1.934,1.934,0,0,0-1.945,1.211V37H71.973V28.547ZM91.223,37a3.036,3.036,0,0,1-.2-.891,3.225,3.225,0,0,1-2.406,1.047,2.984,2.984,0,0,1-2.051-.707,2.288,2.288,0,0,1-.8-1.793,2.39,2.39,0,0,1,1-2.051,4.733,4.733,0,0,1,2.824-.73H91v-.664A1.623,1.623,0,0,0,90.543,30a1.821,1.821,0,0,0-1.336-.449,2.108,2.108,0,0,0-1.3.391,1.151,1.151,0,0,0-.523.945H85.934a2,2,0,0,1,.449-1.223,3.066,3.066,0,0,1,1.219-.934,4.1,4.1,0,0,1,1.691-.344,3.342,3.342,0,0,1,2.289.73,2.635,2.635,0,0,1,.859,2.012v3.891a4.757,4.757,0,0,0,.3,1.852V37Zm-2.4-1.1a2.54,2.54,0,0,0,1.289-.352A2.127,2.127,0,0,0,91,34.633V32.9H89.863q-2.656,0-2.656,1.555a1.316,1.316,0,0,0,.453,1.063A1.742,1.742,0,0,0,88.824,35.9Zm9.969-6.055a4.331,4.331,0,0,0-.711-.055A1.9,1.9,0,0,0,96.152,31v6H94.707V28.547h1.406l.023.977a2.251,2.251,0,0,1,2.016-1.133,1.477,1.477,0,0,1,.641.109ZM105.652,37h-1.445V25h1.445Zm7.531,0a3.036,3.036,0,0,1-.2-.891,3.225,3.225,0,0,1-2.406,1.047,2.984,2.984,0,0,1-2.051-.707,2.288,2.288,0,0,1-.8-1.793,2.39,2.39,0,0,1,1-2.051,4.733,4.733,0,0,1,2.824-.73h1.406v-.664A1.623,1.623,0,0,0,112.5,30a1.821,1.821,0,0,0-1.336-.449,2.108,2.108,0,0,0-1.3.391,1.151,1.151,0,0,0-.523.945h-1.453a2,2,0,0,1,.449-1.223,3.066,3.066,0,0,1,1.219-.934,4.1,4.1,0,0,1,1.691-.344,3.342,3.342,0,0,1,2.289.73,2.635,2.635,0,0,1,.859,2.012v3.891a4.757,4.757,0,0,0,.3,1.852V37Zm-2.4-1.1a2.54,2.54,0,0,0,1.289-.352,2.127,2.127,0,0,0,.883-.914V32.9h-1.133q-2.656,0-2.656,1.555a1.316,1.316,0,0,0,.453,1.063A1.742,1.742,0,0,0,110.785,35.9Zm11.289-6.328a3.073,3.073,0,0,1,2.5-1.18q2.68,0,2.7,3.023V37h-1.445V31.406a1.946,1.946,0,0,0-.418-1.352,1.675,1.675,0,0,0-1.277-.437,2.086,2.086,0,0,0-1.234.375,2.546,2.546,0,0,0-.828.984V37h-1.445V25h1.445ZM131.012,37h-1.445V28.547h1.445Zm-1.562-10.7a.863.863,0,0,1,.215-.594.807.807,0,0,1,.637-.242.819.819,0,0,1,.641.242.854.854,0,0,1,.219.594.826.826,0,0,1-.219.586.834.834,0,0,1-.641.234.821.821,0,0,1-.637-.234A.834.834,0,0,1,129.449,26.3Zm11.016,6.563a5.062,5.062,0,0,1-.883,3.109,2.829,2.829,0,0,1-2.391,1.18,3.1,3.1,0,0,1-2.422-.977v4.07h-1.445v-11.7h1.32l.07.938a2.977,2.977,0,0,1,2.453-1.094,2.882,2.882,0,0,1,2.41,1.148,5.117,5.117,0,0,1,.887,3.2ZM139.02,32.7a3.735,3.735,0,0,0-.609-2.258,1.963,1.963,0,0,0-1.672-.828,2.125,2.125,0,0,0-1.969,1.164V34.82a2.129,2.129,0,0,0,1.984,1.156,1.954,1.954,0,0,0,1.652-.824A4.077,4.077,0,0,0,139.02,32.7Zm2.9-.008a4.993,4.993,0,0,1,.488-2.234,3.642,3.642,0,0,1,1.359-1.531,3.7,3.7,0,0,1,1.988-.539,3.565,3.565,0,0,1,2.793,1.2,4.6,4.6,0,0,1,1.066,3.18v.1a5.036,5.036,0,0,1-.473,2.215,3.589,3.589,0,0,1-1.352,1.527,3.743,3.743,0,0,1-2.02.547,3.556,3.556,0,0,1-2.785-1.2,4.575,4.575,0,0,1-1.066-3.164Zm1.453.172a3.616,3.616,0,0,0,.652,2.258,2.211,2.211,0,0,0,3.5-.012,3.954,3.954,0,0,0,.648-2.418,3.61,3.61,0,0,0-.66-2.254,2.1,2.1,0,0,0-1.754-.863,2.075,2.075,0,0,0-1.727.852A3.925,3.925,0,0,0,143.371,32.867Zm3.039-7.852h1.75l-2.094,2.3-1.164,0Zm6.977,1.484v2.047h1.578v1.117h-1.578v5.249a1.173,1.173,0,0,0,.211.763.888.888,0,0,0,.719.254,3.5,3.5,0,0,0,.688-.094V37a4.215,4.215,0,0,1-1.109.155,1.8,1.8,0,0,1-1.461-.586,2.517,2.517,0,0,1-.492-1.664V29.664H150.4V28.547h1.539V26.5Zm6.773,10.656a3.693,3.693,0,0,1-2.8-1.129,4.19,4.19,0,0,1-1.078-3.02v-.266a5.073,5.073,0,0,1,.48-2.246,3.748,3.748,0,0,1,1.344-1.547,3.378,3.378,0,0,1,1.871-.559,3.166,3.166,0,0,1,2.563,1.086,4.7,4.7,0,0,1,.914,3.109v.6H157.73a3,3,0,0,0,.73,2.02,2.3,2.3,0,0,0,1.777.77,2.517,2.517,0,0,0,1.3-.312,3.258,3.258,0,0,0,.93-.828l.883.688A3.55,3.55,0,0,1,160.16,37.156Zm-.18-7.578a1.928,1.928,0,0,0-1.469.637A3.1,3.1,0,0,0,157.777,32h4.234v-.109a2.753,2.753,0,0,0-.594-1.707A1.815,1.815,0,0,0,159.98,29.578Zm10.07,5.18a1.064,1.064,0,0,0-.441-.91,4.249,4.249,0,0,0-1.539-.559,7.277,7.277,0,0,1-1.742-.562,2.479,2.479,0,0,1-.953-.781,1.869,1.869,0,0,1-.309-1.078,2.193,2.193,0,0,1,.879-1.758,3.432,3.432,0,0,1,2.246-.719,3.532,3.532,0,0,1,2.332.742,2.357,2.357,0,0,1,.895,1.9h-1.453a1.3,1.3,0,0,0-.5-1.023,1.888,1.888,0,0,0-1.27-.43,1.976,1.976,0,0,0-1.234.344,1.082,1.082,0,0,0-.445.9.877.877,0,0,0,.414.789,5.1,5.1,0,0,0,1.5.508,7.8,7.8,0,0,1,1.754.578,2.558,2.558,0,0,1,1,.809,1.988,1.988,0,0,1,.324,1.152,2.163,2.163,0,0,1-.906,1.816,3.8,3.8,0,0,1-2.352.684,4.257,4.257,0,0,1-1.8-.359,2.922,2.922,0,0,1-1.223-1,2.42,2.42,0,0,1-.441-1.395h1.445a1.5,1.5,0,0,0,.582,1.152,2.258,2.258,0,0,0,1.434.426,2.331,2.331,0,0,0,1.316-.332A1.02,1.02,0,0,0,170.051,34.758Zm4.9,2.242H173.5V28.547h1.445Zm-1.562-10.7a.863.863,0,0,1,.215-.594.807.807,0,0,1,.637-.242.819.819,0,0,1,.641.242.854.854,0,0,1,.219.594.826.826,0,0,1-.219.586.834.834,0,0,1-.641.234.821.821,0,0,1-.637-.234A.834.834,0,0,1,173.387,26.3Zm8.8,8.453a1.064,1.064,0,0,0-.441-.91,4.249,4.249,0,0,0-1.539-.559,7.277,7.277,0,0,1-1.742-.562,2.479,2.479,0,0,1-.953-.781,1.869,1.869,0,0,1-.309-1.078,2.193,2.193,0,0,1,.879-1.758,3.432,3.432,0,0,1,2.246-.719,3.532,3.532,0,0,1,2.332.742,2.357,2.357,0,0,1,.895,1.9H182.1a1.3,1.3,0,0,0-.5-1.023,1.888,1.888,0,0,0-1.27-.43,1.976,1.976,0,0,0-1.234.344,1.082,1.082,0,0,0-.445.9.877.877,0,0,0,.414.789,5.1,5.1,0,0,0,1.5.508,7.8,7.8,0,0,1,1.754.578,2.558,2.558,0,0,1,1,.809,1.988,1.988,0,0,1,.324,1.152,2.163,2.163,0,0,1-.906,1.816,3.8,3.8,0,0,1-2.352.684,4.257,4.257,0,0,1-1.8-.359,2.922,2.922,0,0,1-1.223-1,2.42,2.42,0,0,1-.441-1.395h1.445a1.5,1.5,0,0,0,.582,1.152,2.258,2.258,0,0,0,1.434.426,2.331,2.331,0,0,0,1.316-.332A1.02,1.02,0,0,0,182.184,34.758Z" transform="translate(-7126.283 -6761.22)" fill="#777"/>
    <path id="Trazado_685884" data-name="Trazado 685884" d="M6.395,5.625l1.4,8.227,4.242-8.227h3.047L13.105,17h-2.3l.563-3.242L12.48,8.7,8.121,17H6.551L5.027,8.406l-.734,5.6L3.77,17H1.48L3.457,5.625ZM19.9,17a2.281,2.281,0,0,1-.086-.766,2.863,2.863,0,0,1-2.156.922,2.594,2.594,0,0,1-1.84-.723,2.186,2.186,0,0,1-.684-1.746,2.527,2.527,0,0,1,1.16-2.121,5.266,5.266,0,0,1,2.965-.738l1.031.016.109-.508a1.764,1.764,0,0,0,.023-.492.846.846,0,0,0-.277-.574.955.955,0,0,0-.629-.215,1.345,1.345,0,0,0-.875.254,1.231,1.231,0,0,0-.461.777l-2.211.008a2.457,2.457,0,0,1,1.113-1.965A4.312,4.312,0,0,1,19.7,8.391a3.117,3.117,0,0,1,2.25.855,2.5,2.5,0,0,1,.68,2.121l-.648,4.047-.039.5a2.412,2.412,0,0,0,.133.938L22.066,17Zm-1.7-1.555a2.017,2.017,0,0,0,1.664-.828l.273-1.461-.766-.008a2.139,2.139,0,0,0-1.758.742,1.292,1.292,0,0,0-.242.633.75.75,0,0,0,.176.668A.891.891,0,0,0,18.207,15.445Zm8.859-1.812-1.023.891L25.613,17h-2.2L25.488,5H27.7l-1.141,6.516.43-.461L29.5,8.547h2.828l-3.7,3.633L30.98,17H28.566Zm8.727,3.523a3.677,3.677,0,0,1-1.965-.543,3.292,3.292,0,0,1-1.277-1.469,4.093,4.093,0,0,1-.328-2.059l.023-.312a5.465,5.465,0,0,1,.719-2.266,4.341,4.341,0,0,1,1.547-1.59,3.827,3.827,0,0,1,2.094-.527,2.924,2.924,0,0,1,2.473,1.2,4.117,4.117,0,0,1,.637,2.962l-.125.962H34.41a1.814,1.814,0,0,0,.4,1.313,1.521,1.521,0,0,0,1.172.508A2.7,2.7,0,0,0,38.09,14.4l1.008,1.25a3.135,3.135,0,0,1-1.375,1.121A4.5,4.5,0,0,1,35.793,17.156Zm.7-6.945a1.565,1.565,0,0,0-1.082.383,3.363,3.363,0,0,0-.848,1.383H37.6l.047-.2a2.071,2.071,0,0,0,.008-.594,1.134,1.134,0,0,0-.383-.707A1.2,1.2,0,0,0,36.5,10.211Zm11.281,3.57,2.414-5.234h2.453L47.7,18.273a4.231,4.231,0,0,1-1.246,1.641,2.723,2.723,0,0,1-1.652.523,5.035,5.035,0,0,1-1.062-.164l.164-1.719.3.016a1.651,1.651,0,0,0,1.578-.789l.484-.9L44.887,8.547h2.281Zm9.117-5.391a3.39,3.39,0,0,1,1.926.574A3.234,3.234,0,0,1,60.008,10.5a4.762,4.762,0,0,1,.27,2.176,5.143,5.143,0,0,1-1.4,3.262,3.96,3.96,0,0,1-3.02,1.215,3.38,3.38,0,0,1-1.906-.566,3.222,3.222,0,0,1-1.187-1.527,4.657,4.657,0,0,1-.273-2.156A5.3,5.3,0,0,1,53.91,9.578,3.878,3.878,0,0,1,56.895,8.391Zm-2.227,5.315a1.95,1.95,0,0,0,.352,1.182,1.168,1.168,0,0,0,.945.449,1.712,1.712,0,0,0,1.594-.932,4.647,4.647,0,0,0,.539-2.531,2.122,2.122,0,0,0-.363-1.2,1.149,1.149,0,0,0-.949-.464,1.715,1.715,0,0,0-1.574.924A4.6,4.6,0,0,0,54.668,13.706Zm11.477,2.419a2.919,2.919,0,0,1-2.328,1.031,2.172,2.172,0,0,1-1.844-.875,3.2,3.2,0,0,1-.484-2.266L62.4,8.547h2.2l-.93,5.5a2.175,2.175,0,0,0-.008.485.8.8,0,0,0,.867.806,2.014,2.014,0,0,0,1.7-.79l1.055-6H69.5L68.035,17H65.98Zm9.32-5.461a4.548,4.548,0,0,0-.742-.078,2.136,2.136,0,0,0-1.867.883L71.879,17h-2.2l1.469-8.453,2.07-.008-.2,1.031a2.325,2.325,0,0,1,1.969-1.2,3.214,3.214,0,0,1,.766.109Zm8.8,3.953q.125-.625-.867-.906l-.711-.18q-2.523-.7-2.453-2.453a2.428,2.428,0,0,1,1.059-1.949,3.942,3.942,0,0,1,2.457-.738,3.536,3.536,0,0,1,2.313.758,2.5,2.5,0,0,1,.9,1.977l-2.187-.008a.963.963,0,0,0-1.078-1.1,1.552,1.552,0,0,0-.895.258,1.061,1.061,0,0,0-.465.7q-.117.625.945.883l.313.07a6.285,6.285,0,0,1,1.648.59,2.488,2.488,0,0,1,.879.824,2.04,2.04,0,0,1,.285,1.18,2.251,2.251,0,0,1-.52,1.406,3.18,3.18,0,0,1-1.359.93,4.736,4.736,0,0,1-1.816.3,3.568,3.568,0,0,1-2.344-.809A2.607,2.607,0,0,1,79.41,14.3l2.078.016a1.142,1.142,0,0,0,1.3,1.227,1.845,1.845,0,0,0,1-.25A.987.987,0,0,0,84.262,14.617Zm7.625-8.148L91.52,8.547h1.406L92.637,10.2H91.23l-.719,4.234a1.077,1.077,0,0,0,.063.609q.109.211.531.227.125.008.672-.039l-.156,1.727a3.706,3.706,0,0,1-1.266.18,1.985,1.985,0,0,1-1.617-.68,2.456,2.456,0,0,1-.437-1.8l.727-4.461h-1.2l.289-1.656h1.2l.359-2.078ZM97.629,17a2.281,2.281,0,0,1-.086-.766,2.863,2.863,0,0,1-2.156.922,2.594,2.594,0,0,1-1.84-.723,2.186,2.186,0,0,1-.684-1.746,2.527,2.527,0,0,1,1.16-2.121,5.266,5.266,0,0,1,2.965-.738l1.031.016.109-.508a1.764,1.764,0,0,0,.023-.492.846.846,0,0,0-.277-.574.955.955,0,0,0-.629-.215,1.345,1.345,0,0,0-.875.254,1.231,1.231,0,0,0-.461.777l-2.211.008a2.457,2.457,0,0,1,1.113-1.965,4.312,4.312,0,0,1,2.613-.738,3.117,3.117,0,0,1,2.25.855,2.5,2.5,0,0,1,.68,2.121l-.648,4.047-.039.5a2.412,2.412,0,0,0,.133.938L99.793,17Zm-1.7-1.555a2.017,2.017,0,0,0,1.664-.828l.273-1.461-.766-.008a2.139,2.139,0,0,0-1.758.742,1.292,1.292,0,0,0-.242.633.75.75,0,0,0,.176.668A.891.891,0,0,0,95.934,15.445Zm8.688-6.906-.187,1a3.042,3.042,0,0,1,2.461-1.148,2.028,2.028,0,0,1,1.766.875,3.526,3.526,0,0,1,.414,2.359L108.184,17h-2.2l.906-5.4a2.528,2.528,0,0,0,.016-.555.9.9,0,0,0-1-.82,1.9,1.9,0,0,0-1.555.8L103.293,17h-2.2l1.469-8.453Zm8.992,6.8a1.447,1.447,0,0,0,1.016-.332,1.632,1.632,0,0,0,.531-.926l2.07-.008a3.037,3.037,0,0,1-.559,1.6,3.394,3.394,0,0,1-1.344,1.109,3.847,3.847,0,0,1-1.77.375,3.123,3.123,0,0,1-2.437-1.062,3.965,3.965,0,0,1-.867-2.766l.023-.43.008-.086a5.284,5.284,0,0,1,1.391-3.27,3.761,3.761,0,0,1,2.914-1.16,3.047,3.047,0,0,1,2.27.934,3.3,3.3,0,0,1,.824,2.379h-2.055a1.73,1.73,0,0,0-.3-1.07,1.128,1.128,0,0,0-.891-.422q-1.578-.047-1.914,2.3a7.782,7.782,0,0,0-.086,1.438Q112.52,15.32,113.613,15.344Zm8.484,1.813a3.677,3.677,0,0,1-1.965-.543,3.292,3.292,0,0,1-1.277-1.469,4.093,4.093,0,0,1-.328-2.059l.023-.312a5.465,5.465,0,0,1,.719-2.266,4.341,4.341,0,0,1,1.547-1.59,3.827,3.827,0,0,1,2.094-.527,2.924,2.924,0,0,1,2.473,1.2,4.117,4.117,0,0,1,.637,2.962l-.125.962h-5.18a1.814,1.814,0,0,0,.4,1.313,1.521,1.521,0,0,0,1.172.508,2.7,2.7,0,0,0,2.109-.937l1.008,1.25a3.135,3.135,0,0,1-1.375,1.121A4.5,4.5,0,0,1,122.1,17.156Zm.7-6.945a1.565,1.565,0,0,0-1.082.383,3.363,3.363,0,0,0-.848,1.383H123.9l.047-.2a2.071,2.071,0,0,0,.008-.594,1.134,1.134,0,0,0-.383-.707A1.2,1.2,0,0,0,122.8,10.211Zm11.4,5.133a1.447,1.447,0,0,0,1.016-.332,1.632,1.632,0,0,0,.531-.926l2.07-.008a3.036,3.036,0,0,1-.559,1.6,3.394,3.394,0,0,1-1.344,1.109,3.847,3.847,0,0,1-1.77.375,3.123,3.123,0,0,1-2.437-1.062,3.965,3.965,0,0,1-.867-2.766l.023-.43.008-.086a5.284,5.284,0,0,1,1.391-3.27,3.761,3.761,0,0,1,2.914-1.16,3.047,3.047,0,0,1,2.27.934,3.3,3.3,0,0,1,.824,2.379h-2.055a1.73,1.73,0,0,0-.3-1.07,1.128,1.128,0,0,0-.891-.422q-1.578-.047-1.914,2.3a7.783,7.783,0,0,0-.086,1.438Q133.105,15.32,134.2,15.344ZM141,17h-2.219l2.086-12h2.211Zm5.883.156a3.677,3.677,0,0,1-1.965-.543,3.292,3.292,0,0,1-1.277-1.469,4.093,4.093,0,0,1-.328-2.059l.023-.312a5.465,5.465,0,0,1,.719-2.266,4.341,4.341,0,0,1,1.547-1.59,3.827,3.827,0,0,1,2.094-.527,2.924,2.924,0,0,1,2.473,1.2,4.117,4.117,0,0,1,.637,2.962l-.125.962H145.5a1.814,1.814,0,0,0,.4,1.313,1.521,1.521,0,0,0,1.172.508,2.7,2.7,0,0,0,2.109-.937l1.008,1.25a3.135,3.135,0,0,1-1.375,1.121A4.5,4.5,0,0,1,146.879,17.156Zm.7-6.945a1.565,1.565,0,0,0-1.082.383,3.363,3.363,0,0,0-.848,1.383h3.031l.047-.2a2.071,2.071,0,0,0,.008-.594,1.134,1.134,0,0,0-.383-.707A1.2,1.2,0,0,0,147.582,10.211ZM156.223,17a2.281,2.281,0,0,1-.086-.766,2.863,2.863,0,0,1-2.156.922,2.594,2.594,0,0,1-1.84-.723,2.186,2.186,0,0,1-.684-1.746,2.527,2.527,0,0,1,1.16-2.121,5.266,5.266,0,0,1,2.965-.738l1.031.016.109-.508a1.764,1.764,0,0,0,.023-.492.846.846,0,0,0-.277-.574.955.955,0,0,0-.629-.215,1.345,1.345,0,0,0-.875.254,1.231,1.231,0,0,0-.461.777l-2.211.008a2.457,2.457,0,0,1,1.113-1.965,4.312,4.312,0,0,1,2.613-.738,3.117,3.117,0,0,1,2.25.855,2.5,2.5,0,0,1,.68,2.121l-.648,4.047-.039.5a2.412,2.412,0,0,0,.133.938l-.008.148Zm-1.7-1.555a2.017,2.017,0,0,0,1.664-.828l.273-1.461-.766-.008a2.139,2.139,0,0,0-1.758.742,1.292,1.292,0,0,0-.242.633.75.75,0,0,0,.176.668A.891.891,0,0,0,154.527,15.445Zm10.992-4.781a4.548,4.548,0,0,0-.742-.078,2.136,2.136,0,0,0-1.867.883L161.934,17h-2.2L161.2,8.547l2.07-.008-.2,1.031a2.325,2.325,0,0,1,1.969-1.2,3.214,3.214,0,0,1,.766.109Zm.141,4.008a1.22,1.22,0,0,1,.895.324,1.111,1.111,0,0,1,.371.855,1.151,1.151,0,0,1-.344.879,1.323,1.323,0,0,1-1.766.051,1.149,1.149,0,0,1-.375-.852,1.161,1.161,0,0,1,.336-.883A1.238,1.238,0,0,1,165.66,14.672ZM9.043,37V25.625h3.211a5.169,5.169,0,0,1,2.625.656,4.438,4.438,0,0,1,1.762,1.867,6.078,6.078,0,0,1,.629,2.781v.727a6.1,6.1,0,0,1-.621,2.82,4.369,4.369,0,0,1-1.773,1.859A5.5,5.5,0,0,1,12.191,37Zm1.5-10.148v8.922h1.578a3.434,3.434,0,0,0,2.7-1.079,4.458,4.458,0,0,0,.965-3.073v-.665a4.529,4.529,0,0,0-.91-3.014,3.239,3.239,0,0,0-2.582-1.091Zm12.273,10.3a3.693,3.693,0,0,1-2.8-1.129,4.19,4.19,0,0,1-1.078-3.02v-.266a5.073,5.073,0,0,1,.48-2.246,3.748,3.748,0,0,1,1.344-1.547,3.378,3.378,0,0,1,1.871-.559A3.166,3.166,0,0,1,25.2,29.477a4.7,4.7,0,0,1,.914,3.109v.6H20.387a3,3,0,0,0,.73,2.02,2.3,2.3,0,0,0,1.777.77,2.517,2.517,0,0,0,1.3-.312,3.259,3.259,0,0,0,.93-.828l.883.688A3.55,3.55,0,0,1,22.816,37.156Zm-.18-7.578a1.928,1.928,0,0,0-1.469.637A3.1,3.1,0,0,0,20.434,32h4.234v-.109a2.753,2.753,0,0,0-.594-1.707A1.815,1.815,0,0,0,22.637,29.578Zm6.641-1.031v9.43q0,2.438-2.211,2.438a2.7,2.7,0,0,1-.883-.14V39.125a2.794,2.794,0,0,0,.656.063.982.982,0,0,0,.738-.262,1.3,1.3,0,0,0,.254-.911V28.547ZM27.684,26.3a.867.867,0,0,1,.215-.59.79.79,0,0,1,.629-.246.819.819,0,0,1,.641.242.854.854,0,0,1,.219.594.826.826,0,0,1-.219.586.834.834,0,0,1-.641.234.808.808,0,0,1-.633-.234A.843.843,0,0,1,27.684,26.3ZM36.824,37a3.036,3.036,0,0,1-.2-.891,3.225,3.225,0,0,1-2.406,1.047,2.984,2.984,0,0,1-2.051-.707,2.287,2.287,0,0,1-.8-1.793,2.39,2.39,0,0,1,1-2.051,4.733,4.733,0,0,1,2.824-.73H36.6v-.664A1.623,1.623,0,0,0,36.145,30a1.821,1.821,0,0,0-1.336-.449,2.107,2.107,0,0,0-1.3.391,1.151,1.151,0,0,0-.523.945H31.535a2,2,0,0,1,.449-1.223,3.066,3.066,0,0,1,1.219-.934,4.1,4.1,0,0,1,1.691-.344,3.342,3.342,0,0,1,2.289.73,2.635,2.635,0,0,1,.859,2.012v3.891a4.757,4.757,0,0,0,.3,1.852V37Zm-2.4-1.1a2.54,2.54,0,0,0,1.289-.352,2.127,2.127,0,0,0,.883-.914V32.9H35.465q-2.656,0-2.656,1.555a1.316,1.316,0,0,0,.453,1.063A1.742,1.742,0,0,0,34.426,35.9Zm9.969-6.055a4.331,4.331,0,0,0-.711-.055A1.9,1.9,0,0,0,41.754,31v6H40.309V28.547h1.406l.023.977a2.251,2.251,0,0,1,2.016-1.133,1.477,1.477,0,0,1,.641.109ZM51.254,37H49.809V25h1.445Zm7.531,0a3.036,3.036,0,0,1-.2-.891,3.225,3.225,0,0,1-2.406,1.047,2.984,2.984,0,0,1-2.051-.707,2.287,2.287,0,0,1-.8-1.793,2.39,2.39,0,0,1,1-2.051,4.733,4.733,0,0,1,2.824-.73h1.406v-.664A1.623,1.623,0,0,0,58.105,30a1.821,1.821,0,0,0-1.336-.449,2.107,2.107,0,0,0-1.3.391,1.151,1.151,0,0,0-.523.945H53.5a2,2,0,0,1,.449-1.223,3.066,3.066,0,0,1,1.219-.934,4.1,4.1,0,0,1,1.691-.344,3.342,3.342,0,0,1,2.289.73A2.635,2.635,0,0,1,60,31.133v3.891a4.757,4.757,0,0,0,.3,1.852V37Zm-2.4-1.1a2.54,2.54,0,0,0,1.289-.352,2.127,2.127,0,0,0,.883-.914V32.9H57.426q-2.656,0-2.656,1.555a1.316,1.316,0,0,0,.453,1.063A1.742,1.742,0,0,0,56.387,35.9Zm16.984-3.031a5.062,5.062,0,0,1-.883,3.109,2.829,2.829,0,0,1-2.391,1.18,3.1,3.1,0,0,1-2.422-.977v4.07H66.23v-11.7h1.32l.07.938a2.977,2.977,0,0,1,2.453-1.094,2.882,2.882,0,0,1,2.41,1.148,5.117,5.117,0,0,1,.887,3.2ZM71.926,32.7a3.735,3.735,0,0,0-.609-2.258,1.963,1.963,0,0,0-1.672-.828,2.125,2.125,0,0,0-1.969,1.164V34.82a2.129,2.129,0,0,0,1.984,1.156,1.954,1.954,0,0,0,1.652-.824A4.077,4.077,0,0,0,71.926,32.7Zm2.9-.008a4.993,4.993,0,0,1,.488-2.234,3.643,3.643,0,0,1,1.359-1.531,3.7,3.7,0,0,1,1.988-.539,3.565,3.565,0,0,1,2.793,1.2,4.6,4.6,0,0,1,1.066,3.18v.1a5.036,5.036,0,0,1-.473,2.215A3.589,3.589,0,0,1,80.7,36.609a3.743,3.743,0,0,1-2.02.547,3.556,3.556,0,0,1-2.785-1.2A4.575,4.575,0,0,1,74.824,32.8Zm1.453.172a3.616,3.616,0,0,0,.652,2.258,2.211,2.211,0,0,0,3.5-.012,3.955,3.955,0,0,0,.648-2.418,3.61,3.61,0,0,0-.66-2.254,2.1,2.1,0,0,0-1.754-.863,2.075,2.075,0,0,0-1.727.852A3.925,3.925,0,0,0,76.277,32.867Zm12.977,1.891a1.064,1.064,0,0,0-.441-.91,4.249,4.249,0,0,0-1.539-.559,7.277,7.277,0,0,1-1.742-.562,2.479,2.479,0,0,1-.953-.781,1.869,1.869,0,0,1-.309-1.078,2.193,2.193,0,0,1,.879-1.758,3.432,3.432,0,0,1,2.246-.719,3.532,3.532,0,0,1,2.332.742,2.357,2.357,0,0,1,.895,1.9H89.168a1.3,1.3,0,0,0-.5-1.023,1.888,1.888,0,0,0-1.27-.43,1.976,1.976,0,0,0-1.234.344,1.082,1.082,0,0,0-.445.9.877.877,0,0,0,.414.789,5.1,5.1,0,0,0,1.5.508,7.8,7.8,0,0,1,1.754.578,2.558,2.558,0,0,1,1,.809,1.988,1.988,0,0,1,.324,1.152,2.163,2.163,0,0,1-.906,1.816,3.8,3.8,0,0,1-2.352.684,4.257,4.257,0,0,1-1.8-.359,2.922,2.922,0,0,1-1.223-1A2.42,2.42,0,0,1,83.98,34.4h1.445a1.5,1.5,0,0,0,.582,1.152,2.258,2.258,0,0,0,1.434.426,2.331,2.331,0,0,0,1.316-.332A1.02,1.02,0,0,0,89.254,34.758ZM94.543,26.5v2.047h1.578v1.117H94.543v5.249a1.173,1.173,0,0,0,.211.763.888.888,0,0,0,.719.254,3.5,3.5,0,0,0,.688-.094V37a4.215,4.215,0,0,1-1.109.155,1.8,1.8,0,0,1-1.461-.586,2.517,2.517,0,0,1-.492-1.664V29.664H91.559V28.547H93.1V26.5Zm8.484,9.664a3.07,3.07,0,0,1-2.477.992,2.628,2.628,0,0,1-2.059-.785,3.4,3.4,0,0,1-.715-2.324v-5.5h1.445v5.461q0,1.922,1.563,1.922a2.163,2.163,0,0,0,2.2-1.234V28.547h1.445V37h-1.375Zm7.688-6.32a4.331,4.331,0,0,0-.711-.055A1.9,1.9,0,0,0,108.074,31v6h-1.445V28.547h1.406l.023.977a2.251,2.251,0,0,1,2.016-1.133,1.477,1.477,0,0,1,.641.109ZM116.949,37a3.036,3.036,0,0,1-.2-.891,3.225,3.225,0,0,1-2.406,1.047,2.984,2.984,0,0,1-2.051-.707,2.288,2.288,0,0,1-.8-1.793,2.39,2.39,0,0,1,1-2.051,4.733,4.733,0,0,1,2.824-.73h1.406v-.664A1.623,1.623,0,0,0,116.27,30a1.821,1.821,0,0,0-1.336-.449,2.108,2.108,0,0,0-1.3.391,1.151,1.151,0,0,0-.523.945H111.66a2,2,0,0,1,.449-1.223,3.066,3.066,0,0,1,1.219-.934,4.1,4.1,0,0,1,1.691-.344,3.342,3.342,0,0,1,2.289.73,2.635,2.635,0,0,1,.859,2.012v3.891a4.757,4.757,0,0,0,.3,1.852V37Zm-2.4-1.1a2.54,2.54,0,0,0,1.289-.352,2.127,2.127,0,0,0,.883-.914V32.9H115.59q-2.656,0-2.656,1.555a1.316,1.316,0,0,0,.453,1.063A1.742,1.742,0,0,0,114.551,35.9Zm13.234.078a2.082,2.082,0,0,0,1.352-.469,1.649,1.649,0,0,0,.641-1.172h1.367a2.621,2.621,0,0,1-.5,1.383,3.293,3.293,0,0,1-1.23,1.047,3.55,3.55,0,0,1-1.629.391A3.482,3.482,0,0,1,125.039,36a4.59,4.59,0,0,1-1.02-3.152v-.242a5.089,5.089,0,0,1,.453-2.2,3.451,3.451,0,0,1,1.3-1.492,3.7,3.7,0,0,1,2-.531,3.39,3.39,0,0,1,2.363.852,3.043,3.043,0,0,1,1,2.211h-1.367a1.992,1.992,0,0,0-.621-1.348,1.932,1.932,0,0,0-1.379-.527,2.023,2.023,0,0,0-1.707.793,3.724,3.724,0,0,0-.605,2.293v.273a3.65,3.65,0,0,0,.6,2.25A2.033,2.033,0,0,0,127.785,35.977ZM134.34,37h-1.445V25h1.445Zm7.531,0a3.036,3.036,0,0,1-.2-.891,3.225,3.225,0,0,1-2.406,1.047,2.984,2.984,0,0,1-2.051-.707,2.287,2.287,0,0,1-.8-1.793,2.39,2.39,0,0,1,1-2.051,4.733,4.733,0,0,1,2.824-.73h1.406v-.664A1.623,1.623,0,0,0,141.191,30a1.821,1.821,0,0,0-1.336-.449,2.107,2.107,0,0,0-1.3.391,1.151,1.151,0,0,0-.523.945h-1.453a2,2,0,0,1,.449-1.223,3.066,3.066,0,0,1,1.219-.934,4.1,4.1,0,0,1,1.691-.344,3.342,3.342,0,0,1,2.289.73,2.635,2.635,0,0,1,.859,2.012v3.891a4.757,4.757,0,0,0,.3,1.852V37Zm-2.4-1.1a2.54,2.54,0,0,0,1.289-.352,2.127,2.127,0,0,0,.883-.914V32.9h-1.133q-2.656,0-2.656,1.555a1.316,1.316,0,0,0,.453,1.063A1.742,1.742,0,0,0,139.473,35.9Zm9.969-6.055a4.331,4.331,0,0,0-.711-.055A1.9,1.9,0,0,0,146.8,31v6h-1.445V28.547h1.406l.023.977a2.251,2.251,0,0,1,2.016-1.133,1.477,1.477,0,0,1,.641.109ZM155.676,37a3.036,3.036,0,0,1-.2-.891,3.225,3.225,0,0,1-2.406,1.047,2.984,2.984,0,0,1-2.051-.707,2.287,2.287,0,0,1-.8-1.793,2.39,2.39,0,0,1,1-2.051,4.733,4.733,0,0,1,2.824-.73h1.406v-.664A1.623,1.623,0,0,0,155,30a1.821,1.821,0,0,0-1.336-.449,2.107,2.107,0,0,0-1.3.391,1.151,1.151,0,0,0-.523.945h-1.453a2,2,0,0,1,.449-1.223,3.066,3.066,0,0,1,1.219-.934,4.1,4.1,0,0,1,1.691-.344,3.342,3.342,0,0,1,2.289.73,2.635,2.635,0,0,1,.859,2.012v3.891a4.757,4.757,0,0,0,.3,1.852V37Zm-2.4-1.1a2.54,2.54,0,0,0,1.289-.352,2.127,2.127,0,0,0,.883-.914V32.9h-1.133q-2.656,0-2.656,1.555a1.316,1.316,0,0,0,.453,1.063A1.742,1.742,0,0,0,153.277,35.9Zm5.914.344a.905.905,0,0,1,.223-.625.848.848,0,0,1,.668-.25.874.874,0,0,1,.676.25.887.887,0,0,1,.23.625.839.839,0,0,1-.23.6.89.89,0,0,1-.676.242.8.8,0,0,1-.891-.844Z" transform="translate(-7078.283 -6679.22)" fill="#777"/>
    <path id="Trazado_685885" data-name="Trazado 685885" d="M43.363,13.961q.164-.93-.914-1.422l-1.508-.6q-2.625-1.172-2.492-3.227a2.964,2.964,0,0,1,.625-1.687,3.758,3.758,0,0,1,1.6-1.152,5.67,5.67,0,0,1,2.227-.4,3.857,3.857,0,0,1,2.664.98,3.267,3.267,0,0,1,1,2.543H44.285a1.628,1.628,0,0,0-.34-1.2,1.531,1.531,0,0,0-1.176-.445A2.37,2.37,0,0,0,41.41,7.7a1.458,1.458,0,0,0-.687,1.02q-.148.852,1.141,1.352l1.031.391.594.273q2.3,1.141,2.156,3.2A3.09,3.09,0,0,1,45,15.676,3.633,3.633,0,0,1,43.438,16.8a5.565,5.565,0,0,1-2.176.367,4.873,4.873,0,0,1-2.156-.508,3.349,3.349,0,0,1-1.437-1.367,3.54,3.54,0,0,1-.43-1.875l2.289.008q-.109,1.852,1.82,1.883a2.392,2.392,0,0,0,1.375-.367A1.43,1.43,0,0,0,43.363,13.961Zm8.453,2.164a2.919,2.919,0,0,1-2.328,1.031,2.172,2.172,0,0,1-1.844-.875,3.2,3.2,0,0,1-.484-2.266l.914-5.469h2.2l-.93,5.5a2.175,2.175,0,0,0-.008.485.8.8,0,0,0,.867.806,2.014,2.014,0,0,0,1.7-.79l1.055-6h2.219L53.707,17H51.652Zm7.047-7.586-.18.961A3.112,3.112,0,0,1,61.16,8.391a2.379,2.379,0,0,1,1.3.359,1.679,1.679,0,0,1,.7.93,3.255,3.255,0,0,1,2.625-1.289,2.126,2.126,0,0,1,1.754.8,3.271,3.271,0,0,1,.5,2.234l-.016.2L67.113,17H64.9l.9-5.4a3.907,3.907,0,0,0,.023-.54.837.837,0,0,0-.937-.845,1.86,1.86,0,0,0-1.555.97l-.023.18L62.324,17h-2.2l.9-5.383a3.9,3.9,0,0,0,.023-.539.836.836,0,0,0-.93-.852,1.867,1.867,0,0,0-1.508.789L57.551,17h-2.2l1.461-8.453Zm13.516,0L72.2,9.5a3.112,3.112,0,0,1,2.477-1.109,2.379,2.379,0,0,1,1.3.359,1.679,1.679,0,0,1,.7.93,3.255,3.255,0,0,1,2.625-1.289,2.126,2.126,0,0,1,1.754.8,3.271,3.271,0,0,1,.5,2.234l-.016.2L80.629,17H78.418l.9-5.4a3.907,3.907,0,0,0,.023-.54.837.837,0,0,0-.937-.845,1.86,1.86,0,0,0-1.555.97l-.023.18L75.84,17h-2.2l.9-5.383a3.9,3.9,0,0,0,.023-.539.836.836,0,0,0-.93-.852,1.867,1.867,0,0,0-1.508.789L71.066,17h-2.2l1.461-8.453ZM87.27,17a2.281,2.281,0,0,1-.086-.766,2.863,2.863,0,0,1-2.156.922,2.594,2.594,0,0,1-1.84-.723,2.186,2.186,0,0,1-.684-1.746,2.527,2.527,0,0,1,1.16-2.121,5.266,5.266,0,0,1,2.965-.738l1.031.016.109-.508a1.764,1.764,0,0,0,.023-.492.846.846,0,0,0-.277-.574.955.955,0,0,0-.629-.215,1.345,1.345,0,0,0-.875.254,1.231,1.231,0,0,0-.461.777l-2.211.008a2.457,2.457,0,0,1,1.113-1.965,4.312,4.312,0,0,1,2.613-.738,3.117,3.117,0,0,1,2.25.855A2.5,2.5,0,0,1,90,11.367l-.648,4.047-.039.5a2.412,2.412,0,0,0,.133.938L89.434,17Zm-1.7-1.555a2.017,2.017,0,0,0,1.664-.828l.273-1.461-.766-.008a2.139,2.139,0,0,0-1.758.742,1.292,1.292,0,0,0-.242.633.75.75,0,0,0,.176.668A.891.891,0,0,0,85.574,15.445Zm10.992-4.781a4.548,4.548,0,0,0-.742-.078,2.136,2.136,0,0,0-1.867.883L92.98,17h-2.2l1.469-8.453,2.07-.008-.2,1.031a2.325,2.325,0,0,1,1.969-1.2,3.214,3.214,0,0,1,.766.109ZM98.848,17H96.629L98.1,8.547h2.219ZM98.355,6.4a1.1,1.1,0,0,1,.344-.867,1.323,1.323,0,0,1,1.734-.039,1.1,1.1,0,0,1,.383.828,1.132,1.132,0,0,1-.324.844,1.215,1.215,0,0,1-.887.375,1.235,1.235,0,0,1-.863-.3A1.091,1.091,0,0,1,98.355,6.4Zm5.234,8.766,3.984.016-.32,1.82h-6.82l.258-1.492,4.711-5.117-3.711-.016.32-1.828H108.6l-.25,1.445Zm9.117,1.992a3.677,3.677,0,0,1-1.965-.543,3.292,3.292,0,0,1-1.277-1.469,4.093,4.093,0,0,1-.328-2.059l.023-.312a5.465,5.465,0,0,1,.719-2.266,4.341,4.341,0,0,1,1.547-1.59,3.827,3.827,0,0,1,2.094-.527,2.924,2.924,0,0,1,2.473,1.2,4.117,4.117,0,0,1,.637,2.962l-.125.962h-5.18a1.814,1.814,0,0,0,.4,1.313,1.521,1.521,0,0,0,1.172.508A2.7,2.7,0,0,0,115,14.4l1.008,1.25a3.135,3.135,0,0,1-1.375,1.121A4.5,4.5,0,0,1,112.707,17.156Zm.7-6.945a1.565,1.565,0,0,0-1.082.383,3.363,3.363,0,0,0-.848,1.383h3.031l.047-.2a2.071,2.071,0,0,0,.008-.594,1.134,1.134,0,0,0-.383-.707A1.2,1.2,0,0,0,113.41,10.211ZM126,17a2.281,2.281,0,0,1-.086-.766,2.863,2.863,0,0,1-2.156.922,2.594,2.594,0,0,1-1.84-.723,2.186,2.186,0,0,1-.684-1.746,2.527,2.527,0,0,1,1.16-2.121,5.266,5.266,0,0,1,2.965-.738l1.031.016.109-.508a1.764,1.764,0,0,0,.023-.492.846.846,0,0,0-.277-.574.955.955,0,0,0-.629-.215,1.345,1.345,0,0,0-.875.254,1.231,1.231,0,0,0-.461.777l-2.211.008a2.457,2.457,0,0,1,1.113-1.965,4.312,4.312,0,0,1,2.613-.738,3.117,3.117,0,0,1,2.25.855,2.5,2.5,0,0,1,.68,2.121l-.648,4.047-.039.5a2.412,2.412,0,0,0,.133.938L128.16,17Zm-1.7-1.555a2.017,2.017,0,0,0,1.664-.828l.273-1.461-.766-.008a2.139,2.139,0,0,0-1.758.742,1.292,1.292,0,0,0-.242.633.75.75,0,0,0,.176.668A.891.891,0,0,0,124.3,15.445Zm10.992-4.781a4.548,4.548,0,0,0-.742-.078,2.136,2.136,0,0,0-1.867.883L131.707,17h-2.2l1.469-8.453,2.07-.008-.2,1.031a2.325,2.325,0,0,1,1.969-1.2,3.214,3.214,0,0,1,.766.109Zm.375,2.1a5.849,5.849,0,0,1,1.277-3.184,3.242,3.242,0,0,1,2.629-1.2,2.37,2.37,0,0,1,2.016.977l.289-.82,2.023.008-1.383,8.164a3.983,3.983,0,0,1-1.437,2.672,4.471,4.471,0,0,1-3,.953,4.168,4.168,0,0,1-1.672-.379,3.575,3.575,0,0,1-1.312-1l1.094-1.344a2.349,2.349,0,0,0,1.844.961,2.166,2.166,0,0,0,1.469-.449,2.4,2.4,0,0,0,.828-1.355l.125-.508a2.749,2.749,0,0,1-2.07.891,2.428,2.428,0,0,1-1.961-.918,3.947,3.947,0,0,1-.8-2.348A7.889,7.889,0,0,1,135.668,12.766Zm2.164.927a2.02,2.02,0,0,0,.309,1.178,1.08,1.08,0,0,0,.895.466,1.972,1.972,0,0,0,1.594-.767l.656-3.583a1.3,1.3,0,0,0-1.242-.767,1.728,1.728,0,0,0-1.43.681,3.561,3.561,0,0,0-.734,1.87A8.216,8.216,0,0,0,137.832,13.693Zm11.586,2.432a2.919,2.919,0,0,1-2.328,1.031,2.172,2.172,0,0,1-1.844-.875,3.2,3.2,0,0,1-.484-2.266l.914-5.469h2.2l-.93,5.5a2.175,2.175,0,0,0-.008.485.8.8,0,0,0,.867.806,2.014,2.014,0,0,0,1.7-.79l1.055-6h2.219L151.309,17h-2.055Zm7.047-7.586-.18.961a3.112,3.112,0,0,1,2.477-1.109,2.379,2.379,0,0,1,1.3.359,1.679,1.679,0,0,1,.7.93,3.255,3.255,0,0,1,2.625-1.289,2.126,2.126,0,0,1,1.754.8,3.271,3.271,0,0,1,.5,2.234l-.016.2-.9,5.383H162.5l.9-5.4a3.909,3.909,0,0,0,.023-.54.837.837,0,0,0-.937-.845,1.86,1.86,0,0,0-1.555.97l-.023.18L159.926,17h-2.2l.9-5.383a3.9,3.9,0,0,0,.023-.539.836.836,0,0,0-.93-.852,1.867,1.867,0,0,0-1.508.789L155.152,17h-2.2l1.461-8.453Zm14.016,8.617a3.677,3.677,0,0,1-1.965-.543,3.292,3.292,0,0,1-1.277-1.469,4.093,4.093,0,0,1-.328-2.059l.023-.312a5.465,5.465,0,0,1,.719-2.266,4.341,4.341,0,0,1,1.547-1.59,3.827,3.827,0,0,1,2.094-.527,2.924,2.924,0,0,1,2.473,1.2,4.117,4.117,0,0,1,.637,2.962l-.125.962H169.1a1.814,1.814,0,0,0,.4,1.313,1.521,1.521,0,0,0,1.172.508,2.7,2.7,0,0,0,2.109-.937l1.008,1.25a3.135,3.135,0,0,1-1.375,1.121A4.5,4.5,0,0,1,170.48,17.156Zm.7-6.945a1.565,1.565,0,0,0-1.082.383,3.363,3.363,0,0,0-.848,1.383h3.031l.047-.2a2.071,2.071,0,0,0,.008-.594,1.134,1.134,0,0,0-.383-.707A1.2,1.2,0,0,0,171.184,10.211Zm7.234-1.672-.187,1a3.042,3.042,0,0,1,2.461-1.148,2.028,2.028,0,0,1,1.766.875,3.526,3.526,0,0,1,.414,2.359L181.98,17h-2.2l.906-5.4a2.527,2.527,0,0,0,.016-.555.9.9,0,0,0-1-.82,1.9,1.9,0,0,0-1.555.8L177.09,17h-2.2l1.469-8.453Zm9.758-2.07-.367,2.078h1.406l-.289,1.656H187.52l-.719,4.234a1.077,1.077,0,0,0,.063.609q.109.211.531.227.125.008.672-.039l-.156,1.727a3.706,3.706,0,0,1-1.266.18,1.985,1.985,0,0,1-1.617-.68,2.456,2.456,0,0,1-.437-1.8l.727-4.461h-1.2l.289-1.656h1.2l.359-2.078Zm5.75,8.148q.125-.625-.867-.906l-.711-.18q-2.523-.7-2.453-2.453a2.428,2.428,0,0,1,1.059-1.949,3.942,3.942,0,0,1,2.457-.738,3.536,3.536,0,0,1,2.313.758,2.5,2.5,0,0,1,.9,1.977l-2.187-.008a.963.963,0,0,0-1.078-1.1,1.552,1.552,0,0,0-.895.258,1.061,1.061,0,0,0-.465.7q-.117.625.945.883l.313.07a6.285,6.285,0,0,1,1.648.59,2.488,2.488,0,0,1,.879.824,2.04,2.04,0,0,1,.285,1.18,2.251,2.251,0,0,1-.52,1.406,3.18,3.18,0,0,1-1.359.93,4.736,4.736,0,0,1-1.816.3,3.568,3.568,0,0,1-2.344-.809,2.607,2.607,0,0,1-.953-2.051l2.078.016a1.142,1.142,0,0,0,1.3,1.227,1.845,1.845,0,0,0,1-.25A.987.987,0,0,0,193.926,14.617ZM23.789,33.391a4.185,4.185,0,0,1-1.332,2.785,4.365,4.365,0,0,1-2.98.98,4.008,4.008,0,0,1-3.23-1.445,5.815,5.815,0,0,1-1.215-3.867V30.75a6.481,6.481,0,0,1,.566-2.789A4.231,4.231,0,0,1,17.2,26.113a4.47,4.47,0,0,1,2.406-.645,4.11,4.11,0,0,1,2.906,1.012,4.235,4.235,0,0,1,1.273,2.8H22.281a3.268,3.268,0,0,0-.848-1.975,2.565,2.565,0,0,0-1.824-.611,2.684,2.684,0,0,0-2.254,1.063,4.882,4.882,0,0,0-.816,3.026v1.1a5.018,5.018,0,0,0,.773,2.948,2.5,2.5,0,0,0,2.164,1.095,2.886,2.886,0,0,0,1.918-.566,3.143,3.143,0,0,0,.887-1.973Zm1.438-.7a4.993,4.993,0,0,1,.488-2.234,3.643,3.643,0,0,1,1.359-1.531,3.7,3.7,0,0,1,1.988-.539,3.565,3.565,0,0,1,2.793,1.2,4.6,4.6,0,0,1,1.066,3.18v.1a5.036,5.036,0,0,1-.473,2.215A3.589,3.589,0,0,1,31.1,36.609a3.743,3.743,0,0,1-2.02.547,3.556,3.556,0,0,1-2.785-1.2A4.575,4.575,0,0,1,25.227,32.8Zm1.453.172a3.616,3.616,0,0,0,.652,2.258,2.211,2.211,0,0,0,3.5-.012,3.955,3.955,0,0,0,.648-2.418,3.61,3.61,0,0,0-.66-2.254,2.1,2.1,0,0,0-1.754-.863,2.075,2.075,0,0,0-1.727.852A3.925,3.925,0,0,0,26.68,32.867Zm9.414-4.32.039.938a3.122,3.122,0,0,1,2.508-1.094,2.417,2.417,0,0,1,2.414,1.359,3.2,3.2,0,0,1,1.1-.984,3.242,3.242,0,0,1,1.6-.375q2.781,0,2.828,2.945V37H45.133V31.422a1.941,1.941,0,0,0-.414-1.355,1.823,1.823,0,0,0-1.391-.449,1.916,1.916,0,0,0-1.336.48,1.949,1.949,0,0,0-.617,1.293V37H39.922V31.461a1.613,1.613,0,0,0-1.8-1.844,1.934,1.934,0,0,0-1.945,1.211V37H34.727V28.547Zm19.8,4.32a5.062,5.062,0,0,1-.883,3.109,2.829,2.829,0,0,1-2.391,1.18A3.1,3.1,0,0,1,50.2,36.18v4.07H48.758v-11.7h1.32l.07.938A2.977,2.977,0,0,1,52.6,28.391a2.882,2.882,0,0,1,2.41,1.148,5.117,5.117,0,0,1,.887,3.2ZM54.453,32.7a3.735,3.735,0,0,0-.609-2.258,1.963,1.963,0,0,0-1.672-.828A2.125,2.125,0,0,0,50.2,30.781V34.82a2.129,2.129,0,0,0,1.984,1.156,1.954,1.954,0,0,0,1.652-.824A4.077,4.077,0,0,0,54.453,32.7Zm6.789,4.453a3.693,3.693,0,0,1-2.8-1.129,4.19,4.19,0,0,1-1.078-3.02v-.266a5.073,5.073,0,0,1,.48-2.246,3.748,3.748,0,0,1,1.344-1.547,3.378,3.378,0,0,1,1.871-.559,3.166,3.166,0,0,1,2.563,1.086,4.7,4.7,0,0,1,.914,3.109v.6H58.813a3,3,0,0,0,.73,2.02,2.3,2.3,0,0,0,1.777.77,2.517,2.517,0,0,0,1.3-.312,3.258,3.258,0,0,0,.93-.828l.883.688A3.55,3.55,0,0,1,61.242,37.156Zm-.18-7.578a1.928,1.928,0,0,0-1.469.637A3.1,3.1,0,0,0,58.859,32h4.234v-.109a2.753,2.753,0,0,0-.594-1.707A1.815,1.815,0,0,0,61.063,29.578Zm6.516-1.031.047,1.063a3.08,3.08,0,0,1,2.531-1.219q2.68,0,2.7,3.023V37H71.414V31.406A1.946,1.946,0,0,0,71,30.055a1.675,1.675,0,0,0-1.277-.437,2.086,2.086,0,0,0-1.234.375,2.546,2.546,0,0,0-.828.984V37H66.211V28.547ZM74.688,32.7a4.952,4.952,0,0,1,.922-3.129,3.137,3.137,0,0,1,4.766-.168V25H81.82V37H80.492l-.07-.906a2.943,2.943,0,0,1-2.414,1.063,2.887,2.887,0,0,1-2.395-1.2,5.008,5.008,0,0,1-.926-3.141Zm1.445.164a3.749,3.749,0,0,0,.594,2.25,1.92,1.92,0,0,0,1.641.813A2.108,2.108,0,0,0,80.375,34.7V30.813a2.125,2.125,0,0,0-1.992-1.2,1.929,1.929,0,0,0-1.656.82A4.128,4.128,0,0,0,76.133,32.867ZM85.633,37H84.188V28.547h1.445ZM84.07,26.3a.863.863,0,0,1,.215-.594.807.807,0,0,1,.637-.242.819.819,0,0,1,.641.242.854.854,0,0,1,.219.594.826.826,0,0,1-.219.586.834.834,0,0,1-.641.234.821.821,0,0,1-.637-.234A.834.834,0,0,1,84.07,26.3ZM93.164,37a3.036,3.036,0,0,1-.2-.891,3.225,3.225,0,0,1-2.406,1.047,2.984,2.984,0,0,1-2.051-.707,2.288,2.288,0,0,1-.8-1.793,2.39,2.39,0,0,1,1-2.051,4.733,4.733,0,0,1,2.824-.73h1.406v-.664A1.623,1.623,0,0,0,92.484,30a1.821,1.821,0,0,0-1.336-.449,2.108,2.108,0,0,0-1.3.391,1.151,1.151,0,0,0-.523.945H87.875a2,2,0,0,1,.449-1.223,3.066,3.066,0,0,1,1.219-.934,4.1,4.1,0,0,1,1.691-.344,3.342,3.342,0,0,1,2.289.73,2.635,2.635,0,0,1,.859,2.012v3.891a4.757,4.757,0,0,0,.3,1.852V37Zm-2.4-1.1a2.54,2.54,0,0,0,1.289-.352,2.127,2.127,0,0,0,.883-.914V32.9H91.8q-2.656,0-2.656,1.555a1.316,1.316,0,0,0,.453,1.063A1.742,1.742,0,0,0,90.766,35.9Zm9.969-6.055a4.331,4.331,0,0,0-.711-.055A1.9,1.9,0,0,0,98.094,31v6H96.648V28.547h1.406l.023.977a2.251,2.251,0,0,1,2.016-1.133,1.477,1.477,0,0,1,.641.109ZM107.594,37h-1.445V25h1.445Zm1.93-4.3a4.993,4.993,0,0,1,.488-2.234,3.643,3.643,0,0,1,1.359-1.531,3.7,3.7,0,0,1,1.988-.539,3.565,3.565,0,0,1,2.793,1.2,4.6,4.6,0,0,1,1.066,3.18v.1a5.036,5.036,0,0,1-.473,2.215,3.589,3.589,0,0,1-1.352,1.527,3.743,3.743,0,0,1-2.02.547,3.556,3.556,0,0,1-2.785-1.2,4.575,4.575,0,0,1-1.066-3.164Zm1.453.172a3.616,3.616,0,0,0,.652,2.258,2.211,2.211,0,0,0,3.5-.012,3.955,3.955,0,0,0,.648-2.418,3.61,3.61,0,0,0-.66-2.254,2.1,2.1,0,0,0-1.754-.863,2.075,2.075,0,0,0-1.727.852A3.925,3.925,0,0,0,110.977,32.867Zm12.977,1.891a1.064,1.064,0,0,0-.441-.91,4.249,4.249,0,0,0-1.539-.559,7.277,7.277,0,0,1-1.742-.562,2.479,2.479,0,0,1-.953-.781,1.869,1.869,0,0,1-.309-1.078,2.193,2.193,0,0,1,.879-1.758,3.432,3.432,0,0,1,2.246-.719,3.532,3.532,0,0,1,2.332.742,2.357,2.357,0,0,1,.895,1.9h-1.453a1.3,1.3,0,0,0-.5-1.023,1.888,1.888,0,0,0-1.27-.43,1.976,1.976,0,0,0-1.234.344,1.082,1.082,0,0,0-.445.9.877.877,0,0,0,.414.789,5.1,5.1,0,0,0,1.5.508,7.8,7.8,0,0,1,1.754.578,2.558,2.558,0,0,1,1,.809,1.988,1.988,0,0,1,.324,1.152,2.163,2.163,0,0,1-.906,1.816,3.8,3.8,0,0,1-2.352.684,4.257,4.257,0,0,1-1.8-.359,2.922,2.922,0,0,1-1.223-1,2.42,2.42,0,0,1-.441-1.395h1.445a1.5,1.5,0,0,0,.582,1.152,2.258,2.258,0,0,0,1.434.426,2.331,2.331,0,0,0,1.316-.332A1.02,1.02,0,0,0,123.953,34.758ZM136.461,37a3.036,3.036,0,0,1-.2-.891,3.225,3.225,0,0,1-2.406,1.047,2.984,2.984,0,0,1-2.051-.707,2.287,2.287,0,0,1-.8-1.793,2.39,2.39,0,0,1,1-2.051,4.733,4.733,0,0,1,2.824-.73h1.406v-.664A1.623,1.623,0,0,0,135.781,30a1.821,1.821,0,0,0-1.336-.449,2.107,2.107,0,0,0-1.3.391,1.151,1.151,0,0,0-.523.945h-1.453a2,2,0,0,1,.449-1.223,3.066,3.066,0,0,1,1.219-.934,4.1,4.1,0,0,1,1.691-.344,3.342,3.342,0,0,1,2.289.73,2.635,2.635,0,0,1,.859,2.012v3.891a4.757,4.757,0,0,0,.3,1.852V37Zm-2.4-1.1a2.54,2.54,0,0,0,1.289-.352,2.127,2.127,0,0,0,.883-.914V32.9H135.1q-2.656,0-2.656,1.555a1.316,1.316,0,0,0,.453,1.063A1.742,1.742,0,0,0,134.063,35.9Zm9.969-6.055a4.331,4.331,0,0,0-.711-.055A1.9,1.9,0,0,0,141.391,31v6h-1.445V28.547h1.406l.023.977a2.251,2.251,0,0,1,2.016-1.133,1.477,1.477,0,0,1,.641.109Zm.836,2.859a4.968,4.968,0,0,1,.914-3.145,3.151,3.151,0,0,1,4.836-.074l.07-.937h1.32V36.8a3.439,3.439,0,0,1-.973,2.586,3.589,3.589,0,0,1-2.613.945,4.348,4.348,0,0,1-1.789-.391,3.08,3.08,0,0,1-1.336-1.07l.75-.867a2.826,2.826,0,0,0,2.273,1.148,2.214,2.214,0,0,0,1.645-.594,2.269,2.269,0,0,0,.59-1.672v-.727a2.971,2.971,0,0,1-2.367,1,2.887,2.887,0,0,1-2.4-1.2A5.224,5.224,0,0,1,144.867,32.7Zm1.453.164a3.79,3.79,0,0,0,.586,2.246,1.9,1.9,0,0,0,1.641.816,2.117,2.117,0,0,0,2.008-1.242V30.828a2.142,2.142,0,0,0-1.992-1.211,1.921,1.921,0,0,0-1.648.82A4.128,4.128,0,0,0,146.32,32.867Zm13.086,3.3a3.07,3.07,0,0,1-2.477.992,2.628,2.628,0,0,1-2.059-.785,3.4,3.4,0,0,1-.715-2.324v-5.5H155.6v5.461q0,1.922,1.563,1.922a2.163,2.163,0,0,0,2.2-1.234V28.547h1.445V37h-1.375Zm4.961-7.617.039.938a3.122,3.122,0,0,1,2.508-1.094,2.417,2.417,0,0,1,2.414,1.359,3.2,3.2,0,0,1,1.1-.984,3.242,3.242,0,0,1,1.6-.375q2.781,0,2.828,2.945V37h-1.445V31.422a1.941,1.941,0,0,0-.414-1.355,1.823,1.823,0,0,0-1.391-.449,1.917,1.917,0,0,0-1.336.48,1.949,1.949,0,0,0-.617,1.293V37H168.2V31.461a1.613,1.613,0,0,0-1.8-1.844,1.934,1.934,0,0,0-1.945,1.211V37H163V28.547Zm16.172,8.609a3.693,3.693,0,0,1-2.8-1.129,4.19,4.19,0,0,1-1.078-3.02v-.266a5.073,5.073,0,0,1,.48-2.246,3.748,3.748,0,0,1,1.344-1.547,3.378,3.378,0,0,1,1.871-.559,3.166,3.166,0,0,1,2.563,1.086,4.7,4.7,0,0,1,.914,3.109v.6h-5.727a3,3,0,0,0,.73,2.02,2.3,2.3,0,0,0,1.777.77,2.517,2.517,0,0,0,1.3-.312,3.258,3.258,0,0,0,.93-.828l.883.688A3.55,3.55,0,0,1,180.539,37.156Zm-.18-7.578a1.928,1.928,0,0,0-1.469.637A3.1,3.1,0,0,0,178.156,32h4.234v-.109a2.753,2.753,0,0,0-.594-1.707A1.815,1.815,0,0,0,180.359,29.578Zm6.516-1.031.047,1.063a3.08,3.08,0,0,1,2.531-1.219q2.68,0,2.7,3.023V37h-1.445V31.406a1.946,1.946,0,0,0-.418-1.352,1.675,1.675,0,0,0-1.277-.437,2.086,2.086,0,0,0-1.234.375,2.546,2.546,0,0,0-.828.984V37h-1.445V28.547ZM196.3,26.5v2.047h1.578v1.117H196.3v5.249a1.173,1.173,0,0,0,.211.763.888.888,0,0,0,.719.254,3.5,3.5,0,0,0,.688-.094V37a4.215,4.215,0,0,1-1.109.155,1.8,1.8,0,0,1-1.461-.586,2.517,2.517,0,0,1-.492-1.664V29.664h-1.539V28.547h1.539V26.5Zm2.727,6.2a4.993,4.993,0,0,1,.488-2.234,3.642,3.642,0,0,1,1.359-1.531,3.7,3.7,0,0,1,1.988-.539,3.565,3.565,0,0,1,2.793,1.2,4.6,4.6,0,0,1,1.066,3.18v.1a5.036,5.036,0,0,1-.473,2.215,3.589,3.589,0,0,1-1.352,1.527,3.743,3.743,0,0,1-2.02.547,3.556,3.556,0,0,1-2.785-1.2,4.575,4.575,0,0,1-1.066-3.164Zm1.453.172a3.616,3.616,0,0,0,.652,2.258,2.211,2.211,0,0,0,3.5-.012,3.954,3.954,0,0,0,.648-2.418,3.61,3.61,0,0,0-.66-2.254,2.1,2.1,0,0,0-1.754-.863,2.075,2.075,0,0,0-1.727.852A3.925,3.925,0,0,0,200.477,32.867Zm12.977,1.891a1.064,1.064,0,0,0-.441-.91,4.249,4.249,0,0,0-1.539-.559,7.277,7.277,0,0,1-1.742-.562,2.479,2.479,0,0,1-.953-.781,1.869,1.869,0,0,1-.309-1.078,2.193,2.193,0,0,1,.879-1.758,3.432,3.432,0,0,1,2.246-.719,3.532,3.532,0,0,1,2.332.742,2.357,2.357,0,0,1,.895,1.9h-1.453a1.3,1.3,0,0,0-.5-1.023,1.888,1.888,0,0,0-1.27-.43,1.976,1.976,0,0,0-1.234.344,1.082,1.082,0,0,0-.445.9.877.877,0,0,0,.414.789,5.1,5.1,0,0,0,1.5.508,7.8,7.8,0,0,1,1.754.578,2.558,2.558,0,0,1,1,.809,1.988,1.988,0,0,1,.324,1.152,2.163,2.163,0,0,1-.906,1.816,3.8,3.8,0,0,1-2.352.684,4.257,4.257,0,0,1-1.8-.359,2.922,2.922,0,0,1-1.223-1,2.42,2.42,0,0,1-.441-1.395h1.445a1.5,1.5,0,0,0,.582,1.152,2.258,2.258,0,0,0,1.434.426,2.331,2.331,0,0,0,1.316-.332A1.02,1.02,0,0,0,213.453,34.758Zm3.359,1.484a.905.905,0,0,1,.223-.625.848.848,0,0,1,.668-.25.874.874,0,0,1,.676.25.887.887,0,0,1,.23.625.839.839,0,0,1-.23.6.89.89,0,0,1-.676.242.8.8,0,0,1-.891-.844Z" transform="translate(-7139.283 -6602.22)" fill="#777"/>
    <path id="Trazado_685886" data-name="Trazado 685886" d="M33.52,5.625l-1.281,7.5A4.571,4.571,0,0,1,30.676,16.1a4.7,4.7,0,0,1-3.219,1.063,4.335,4.335,0,0,1-2.09-.527,3.077,3.077,0,0,1-1.309-1.422,3.855,3.855,0,0,1-.289-2.082l1.273-7.508h2.289l-1.273,7.516a3.339,3.339,0,0,0-.008.82,1.385,1.385,0,0,0,1.508,1.313,2.154,2.154,0,0,0,1.586-.531,2.721,2.721,0,0,0,.8-1.609l1.281-7.508Zm4.68,8.992q.125-.625-.867-.906l-.711-.18q-2.523-.7-2.453-2.453a2.428,2.428,0,0,1,1.059-1.949,3.942,3.942,0,0,1,2.457-.738A3.536,3.536,0,0,1,40,9.148a2.5,2.5,0,0,1,.9,1.977l-2.187-.008a.963.963,0,0,0-1.078-1.1,1.552,1.552,0,0,0-.895.258,1.061,1.061,0,0,0-.465.7q-.117.625.945.883l.313.07a6.285,6.285,0,0,1,1.648.59,2.488,2.488,0,0,1,.879.824,2.04,2.04,0,0,1,.285,1.18,2.251,2.251,0,0,1-.52,1.406,3.18,3.18,0,0,1-1.359.93,4.736,4.736,0,0,1-1.816.3,3.568,3.568,0,0,1-2.344-.809,2.607,2.607,0,0,1-.953-2.051l2.078.016a1.142,1.142,0,0,0,1.3,1.227,1.845,1.845,0,0,0,1-.25A.987.987,0,0,0,38.2,14.617Zm7.172,2.539a3.677,3.677,0,0,1-1.965-.543,3.292,3.292,0,0,1-1.277-1.469,4.093,4.093,0,0,1-.328-2.059l.023-.312a5.465,5.465,0,0,1,.719-2.266,4.341,4.341,0,0,1,1.547-1.59,3.827,3.827,0,0,1,2.094-.527,2.924,2.924,0,0,1,2.473,1.2,4.117,4.117,0,0,1,.637,2.962l-.125.962h-5.18a1.814,1.814,0,0,0,.4,1.313,1.521,1.521,0,0,0,1.172.508,2.7,2.7,0,0,0,2.109-.937l1.008,1.25A3.135,3.135,0,0,1,47.3,16.77,4.5,4.5,0,0,1,45.371,17.156Zm.7-6.945a1.565,1.565,0,0,0-1.082.383,3.363,3.363,0,0,0-.848,1.383h3.031l.047-.2a2.071,2.071,0,0,0,.008-.594,1.134,1.134,0,0,0-.383-.707A1.2,1.2,0,0,0,46.074,10.211ZM58.238,6.469l-.367,2.078h1.406L58.988,10.2H57.582l-.719,4.234a1.077,1.077,0,0,0,.063.609q.109.211.531.227.125.008.672-.039l-.156,1.727a3.706,3.706,0,0,1-1.266.18,1.985,1.985,0,0,1-1.617-.68,2.456,2.456,0,0,1-.437-1.8l.727-4.461h-1.2l.289-1.656h1.2l.359-2.078Zm4.211,3.016a2.946,2.946,0,0,1,2.289-1.094,2.143,2.143,0,0,1,1.848.9,3.548,3.548,0,0,1,.441,2.379L66.137,17h-2.2l.9-5.358a2.6,2.6,0,0,0,.016-.563.885.885,0,0,0-.984-.868,1.9,1.9,0,0,0-1.562.766L61.238,17h-2.2L61.113,5h2.211ZM70.184,17H67.965l1.469-8.453h2.219ZM69.691,6.4a1.1,1.1,0,0,1,.344-.867,1.323,1.323,0,0,1,1.734-.039,1.1,1.1,0,0,1,.383.828,1.132,1.132,0,0,1-.324.844,1.215,1.215,0,0,1-.887.375,1.235,1.235,0,0,1-.863-.3A1.091,1.091,0,0,1,69.691,6.4Zm5.844,2.141-.187,1a3.042,3.042,0,0,1,2.461-1.148,2.028,2.028,0,0,1,1.766.875,3.526,3.526,0,0,1,.414,2.359L79.1,17h-2.2l.906-5.4a2.528,2.528,0,0,0,.016-.555.9.9,0,0,0-1-.82,1.9,1.9,0,0,0-1.555.8L74.207,17H72l1.469-8.453Zm8.945,5.094-1.023.891L83.027,17h-2.2L82.9,5h2.211l-1.141,6.516.43-.461L86.91,8.547h2.828l-3.7,3.633L88.395,17H85.98ZM91.52,17H89.3L90.77,8.547h2.219ZM91.027,6.4a1.1,1.1,0,0,1,.344-.867,1.323,1.323,0,0,1,1.734-.039,1.1,1.1,0,0,1,.383.828,1.132,1.132,0,0,1-.324.844,1.215,1.215,0,0,1-.887.375,1.235,1.235,0,0,1-.863-.3A1.091,1.091,0,0,1,91.027,6.4Zm5.844,2.141-.187,1a3.042,3.042,0,0,1,2.461-1.148,2.028,2.028,0,0,1,1.766.875,3.526,3.526,0,0,1,.414,2.359L100.434,17h-2.2l.906-5.4a2.528,2.528,0,0,0,.016-.555.9.9,0,0,0-1-.82,1.9,1.9,0,0,0-1.555.8L95.543,17h-2.2l1.469-8.453Zm5.711,4.227a5.849,5.849,0,0,1,1.277-3.184,3.242,3.242,0,0,1,2.629-1.2,2.37,2.37,0,0,1,2.016.977l.289-.82,2.023.008-1.383,8.164A3.983,3.983,0,0,1,108,19.383a4.471,4.471,0,0,1-3,.953,4.168,4.168,0,0,1-1.672-.379,3.575,3.575,0,0,1-1.312-1l1.094-1.344a2.349,2.349,0,0,0,1.844.961,2.166,2.166,0,0,0,1.469-.449,2.4,2.4,0,0,0,.828-1.355l.125-.508a2.749,2.749,0,0,1-2.07.891,2.428,2.428,0,0,1-1.961-.918,3.947,3.947,0,0,1-.8-2.348A7.89,7.89,0,0,1,102.582,12.766Zm2.164.927a2.02,2.02,0,0,0,.309,1.178,1.08,1.08,0,0,0,.895.466,1.972,1.972,0,0,0,1.594-.767l.656-3.583a1.3,1.3,0,0,0-1.242-.767,1.728,1.728,0,0,0-1.43.681,3.561,3.561,0,0,0-.734,1.87A8.213,8.213,0,0,0,104.746,13.693Zm15.2.924q.125-.625-.867-.906l-.711-.18q-2.523-.7-2.453-2.453a2.428,2.428,0,0,1,1.059-1.949,3.942,3.942,0,0,1,2.457-.738,3.536,3.536,0,0,1,2.313.758,2.5,2.5,0,0,1,.9,1.977l-2.187-.008a.963.963,0,0,0-1.078-1.1,1.552,1.552,0,0,0-.895.258,1.061,1.061,0,0,0-.465.7q-.117.625.945.883l.313.07a6.285,6.285,0,0,1,1.648.59,2.488,2.488,0,0,1,.879.824,2.04,2.04,0,0,1,.285,1.18,2.251,2.251,0,0,1-.52,1.406,3.18,3.18,0,0,1-1.359.93,4.736,4.736,0,0,1-1.816.3,3.568,3.568,0,0,1-2.344-.809,2.607,2.607,0,0,1-.953-2.051l2.078.016a1.142,1.142,0,0,0,1.3,1.227,1.845,1.845,0,0,0,1-.25A.987.987,0,0,0,119.941,14.617Zm7.625-8.148L127.2,8.547h1.406l-.289,1.656H126.91l-.719,4.234a1.077,1.077,0,0,0,.063.609q.109.211.531.227.125.008.672-.039l-.156,1.727a3.706,3.706,0,0,1-1.266.18,1.985,1.985,0,0,1-1.617-.68,2.456,2.456,0,0,1-.437-1.8l.727-4.461h-1.2l.289-1.656H125l.359-2.078Zm4.867,10.688a3.677,3.677,0,0,1-1.965-.543,3.292,3.292,0,0,1-1.277-1.469,4.093,4.093,0,0,1-.328-2.059l.023-.312a5.465,5.465,0,0,1,.719-2.266,4.341,4.341,0,0,1,1.547-1.59,3.827,3.827,0,0,1,2.094-.527,2.924,2.924,0,0,1,2.473,1.2,4.117,4.117,0,0,1,.637,2.962l-.125.962h-5.18a1.814,1.814,0,0,0,.4,1.313,1.521,1.521,0,0,0,1.172.508,2.7,2.7,0,0,0,2.109-.937l1.008,1.25a3.135,3.135,0,0,1-1.375,1.121A4.5,4.5,0,0,1,132.434,17.156Zm.7-6.945a1.565,1.565,0,0,0-1.082.383,3.363,3.363,0,0,0-.848,1.383h3.031l.047-.2a2.071,2.071,0,0,0,.008-.594,1.134,1.134,0,0,0-.383-.707A1.2,1.2,0,0,0,133.137,10.211ZM140.4,8.539l-.18.961A3.112,3.112,0,0,1,142.7,8.391a2.379,2.379,0,0,1,1.3.359,1.679,1.679,0,0,1,.7.93,3.255,3.255,0,0,1,2.625-1.289,2.126,2.126,0,0,1,1.754.8,3.271,3.271,0,0,1,.5,2.234l-.016.2-.9,5.383h-2.211l.9-5.4a3.909,3.909,0,0,0,.023-.54.837.837,0,0,0-.937-.845,1.86,1.86,0,0,0-1.555.97l-.023.18L143.863,17h-2.2l.9-5.383a3.9,3.9,0,0,0,.023-.539.836.836,0,0,0-.93-.852,1.867,1.867,0,0,0-1.508.789L139.09,17h-2.2l1.461-8.453Zm14.9,6.078q.125-.625-.867-.906l-.711-.18q-2.523-.7-2.453-2.453a2.428,2.428,0,0,1,1.059-1.949,3.942,3.942,0,0,1,2.457-.738,3.536,3.536,0,0,1,2.313.758,2.5,2.5,0,0,1,.9,1.977l-2.187-.008a.963.963,0,0,0-1.078-1.1,1.552,1.552,0,0,0-.895.258,1.061,1.061,0,0,0-.465.7q-.117.625.945.883l.313.07a6.285,6.285,0,0,1,1.648.59,2.488,2.488,0,0,1,.879.824,2.04,2.04,0,0,1,.285,1.18,2.251,2.251,0,0,1-.52,1.406,3.18,3.18,0,0,1-1.359.93,4.736,4.736,0,0,1-1.816.3,3.568,3.568,0,0,1-2.344-.809,2.607,2.607,0,0,1-.953-2.051l2.078.016a1.142,1.142,0,0,0,1.3,1.227,1.845,1.845,0,0,0,1-.25A.987.987,0,0,0,155.3,14.617Zm4.7.055a1.22,1.22,0,0,1,.895.324,1.111,1.111,0,0,1,.371.855,1.151,1.151,0,0,1-.344.879,1.323,1.323,0,0,1-1.766.051,1.149,1.149,0,0,1-.375-.852,1.161,1.161,0,0,1,.336-.883A1.238,1.238,0,0,1,160,14.672ZM13.34,25.625v7.734a3.628,3.628,0,0,1-1.012,2.633,4.077,4.077,0,0,1-2.723,1.148l-.4.016A4.258,4.258,0,0,1,6.23,36.148a3.6,3.6,0,0,1-1.125-2.773v-7.75H6.59v7.7a2.6,2.6,0,0,0,.68,1.918,2.612,2.612,0,0,0,1.938.684,2.63,2.63,0,0,0,1.949-.68,2.6,2.6,0,0,0,.676-1.914V25.625ZM20.4,34.758a1.064,1.064,0,0,0-.441-.91,4.249,4.249,0,0,0-1.539-.559,7.277,7.277,0,0,1-1.742-.562,2.479,2.479,0,0,1-.953-.781,1.869,1.869,0,0,1-.309-1.078,2.193,2.193,0,0,1,.879-1.758,3.432,3.432,0,0,1,2.246-.719,3.532,3.532,0,0,1,2.332.742,2.357,2.357,0,0,1,.895,1.9H20.316a1.3,1.3,0,0,0-.5-1.023,1.888,1.888,0,0,0-1.27-.43,1.976,1.976,0,0,0-1.234.344,1.082,1.082,0,0,0-.445.9.877.877,0,0,0,.414.789,5.1,5.1,0,0,0,1.5.508,7.8,7.8,0,0,1,1.754.578,2.558,2.558,0,0,1,1,.809,1.988,1.988,0,0,1,.324,1.152,2.163,2.163,0,0,1-.906,1.816,3.8,3.8,0,0,1-2.352.684,4.257,4.257,0,0,1-1.8-.359,2.922,2.922,0,0,1-1.223-1,2.42,2.42,0,0,1-.441-1.395h1.445a1.5,1.5,0,0,0,.582,1.152,2.258,2.258,0,0,0,1.434.426,2.331,2.331,0,0,0,1.316-.332A1.02,1.02,0,0,0,20.4,34.758ZM28.949,37a3.036,3.036,0,0,1-.2-.891,3.225,3.225,0,0,1-2.406,1.047,2.984,2.984,0,0,1-2.051-.707,2.287,2.287,0,0,1-.8-1.793,2.39,2.39,0,0,1,1-2.051,4.733,4.733,0,0,1,2.824-.73h1.406v-.664A1.623,1.623,0,0,0,28.27,30a1.821,1.821,0,0,0-1.336-.449,2.108,2.108,0,0,0-1.3.391,1.151,1.151,0,0,0-.523.945H23.66a2,2,0,0,1,.449-1.223,3.066,3.066,0,0,1,1.219-.934,4.1,4.1,0,0,1,1.691-.344,3.342,3.342,0,0,1,2.289.73,2.635,2.635,0,0,1,.859,2.012v3.891a4.757,4.757,0,0,0,.3,1.852V37Zm-2.4-1.1a2.54,2.54,0,0,0,1.289-.352,2.127,2.127,0,0,0,.883-.914V32.9H27.59q-2.656,0-2.656,1.555a1.316,1.316,0,0,0,.453,1.063A1.742,1.742,0,0,0,26.551,35.9Zm9.969-6.055a4.331,4.331,0,0,0-.711-.055A1.9,1.9,0,0,0,33.879,31v6H32.434V28.547H33.84l.023.977a2.251,2.251,0,0,1,2.016-1.133,1.477,1.477,0,0,1,.641.109Zm6,7.156V29.664H41.184V28.547H42.52V27.68a2.878,2.878,0,0,1,.727-2.1,2.745,2.745,0,0,1,2.055-.742,3.816,3.816,0,0,1,.992.132l-.078,1.165a4.151,4.151,0,0,0-.781-.07,1.41,1.41,0,0,0-1.086.411,1.669,1.669,0,0,0-.383,1.18v.893h1.8v1.117h-1.8V37Zm8.93-7.156a4.331,4.331,0,0,0-.711-.055A1.9,1.9,0,0,0,48.809,31v6H47.363V28.547H48.77l.023.977a2.251,2.251,0,0,1,2.016-1.133,1.477,1.477,0,0,1,.641.109ZM57.684,37a3.036,3.036,0,0,1-.2-.891,3.225,3.225,0,0,1-2.406,1.047,2.984,2.984,0,0,1-2.051-.707,2.287,2.287,0,0,1-.8-1.793,2.39,2.39,0,0,1,1-2.051,4.733,4.733,0,0,1,2.824-.73h1.406v-.664A1.623,1.623,0,0,0,57,30a1.821,1.821,0,0,0-1.336-.449,2.107,2.107,0,0,0-1.3.391,1.151,1.151,0,0,0-.523.945H52.395a2,2,0,0,1,.449-1.223,3.066,3.066,0,0,1,1.219-.934,4.1,4.1,0,0,1,1.691-.344,3.342,3.342,0,0,1,2.289.73,2.635,2.635,0,0,1,.859,2.012v3.891a4.757,4.757,0,0,0,.3,1.852V37Zm-2.4-1.1a2.54,2.54,0,0,0,1.289-.352,2.127,2.127,0,0,0,.883-.914V32.9H56.324q-2.656,0-2.656,1.555a1.316,1.316,0,0,0,.453,1.063A1.742,1.742,0,0,0,55.285,35.9Zm10.8-1.141a1.064,1.064,0,0,0-.441-.91,4.249,4.249,0,0,0-1.539-.559,7.277,7.277,0,0,1-1.742-.562,2.479,2.479,0,0,1-.953-.781,1.869,1.869,0,0,1-.309-1.078,2.193,2.193,0,0,1,.879-1.758,3.432,3.432,0,0,1,2.246-.719,3.532,3.532,0,0,1,2.332.742,2.357,2.357,0,0,1,.895,1.9H66a1.3,1.3,0,0,0-.5-1.023,1.888,1.888,0,0,0-1.27-.43A1.976,1.976,0,0,0,63,29.922a1.082,1.082,0,0,0-.445.9.877.877,0,0,0,.414.789,5.1,5.1,0,0,0,1.5.508,7.8,7.8,0,0,1,1.754.578,2.558,2.558,0,0,1,1,.809,1.988,1.988,0,0,1,.324,1.152,2.163,2.163,0,0,1-.906,1.816,3.8,3.8,0,0,1-2.352.684,4.257,4.257,0,0,1-1.8-.359,2.922,2.922,0,0,1-1.223-1,2.42,2.42,0,0,1-.441-1.395h1.445a1.5,1.5,0,0,0,.582,1.152,2.258,2.258,0,0,0,1.434.426,2.331,2.331,0,0,0,1.316-.332A1.02,1.02,0,0,0,66.09,34.758Zm6.836,2.4a3.693,3.693,0,0,1-2.8-1.129,4.19,4.19,0,0,1-1.078-3.02v-.266a5.073,5.073,0,0,1,.48-2.246,3.748,3.748,0,0,1,1.344-1.547,3.378,3.378,0,0,1,1.871-.559,3.166,3.166,0,0,1,2.563,1.086,4.7,4.7,0,0,1,.914,3.109v.6H70.5a3,3,0,0,0,.73,2.02,2.3,2.3,0,0,0,1.777.77,2.517,2.517,0,0,0,1.3-.312,3.259,3.259,0,0,0,.93-.828l.883.688A3.55,3.55,0,0,1,72.926,37.156Zm-.18-7.578a1.928,1.928,0,0,0-1.469.637A3.1,3.1,0,0,0,70.543,32h4.234v-.109a2.753,2.753,0,0,0-.594-1.707A1.815,1.815,0,0,0,72.746,29.578Zm10.07,5.18a1.064,1.064,0,0,0-.441-.91,4.249,4.249,0,0,0-1.539-.559,7.277,7.277,0,0,1-1.742-.562,2.479,2.479,0,0,1-.953-.781,1.869,1.869,0,0,1-.309-1.078,2.193,2.193,0,0,1,.879-1.758,3.432,3.432,0,0,1,2.246-.719,3.532,3.532,0,0,1,2.332.742,2.357,2.357,0,0,1,.895,1.9H82.73a1.3,1.3,0,0,0-.5-1.023,1.888,1.888,0,0,0-1.27-.43,1.976,1.976,0,0,0-1.234.344,1.082,1.082,0,0,0-.445.9.877.877,0,0,0,.414.789,5.1,5.1,0,0,0,1.5.508,7.8,7.8,0,0,1,1.754.578,2.558,2.558,0,0,1,1,.809,1.988,1.988,0,0,1,.324,1.152,2.163,2.163,0,0,1-.906,1.816A3.8,3.8,0,0,1,81,37.156a4.257,4.257,0,0,1-1.8-.359,2.922,2.922,0,0,1-1.223-1,2.42,2.42,0,0,1-.441-1.395h1.445a1.5,1.5,0,0,0,.582,1.152A2.258,2.258,0,0,0,81,35.977a2.331,2.331,0,0,0,1.316-.332A1.02,1.02,0,0,0,82.816,34.758ZM89.762,32.7a4.968,4.968,0,0,1,.914-3.145,3.151,3.151,0,0,1,4.836-.074l.07-.937H96.9V36.8a3.439,3.439,0,0,1-.973,2.586,3.589,3.589,0,0,1-2.613.945,4.348,4.348,0,0,1-1.789-.391,3.08,3.08,0,0,1-1.336-1.07l.75-.867a2.826,2.826,0,0,0,2.273,1.148,2.214,2.214,0,0,0,1.645-.594,2.269,2.269,0,0,0,.59-1.672v-.727a2.971,2.971,0,0,1-2.367,1,2.887,2.887,0,0,1-2.4-1.2A5.224,5.224,0,0,1,89.762,32.7Zm1.453.164a3.79,3.79,0,0,0,.586,2.246,1.9,1.9,0,0,0,1.641.816,2.117,2.117,0,0,0,2.008-1.242V30.828a2.142,2.142,0,0,0-1.992-1.211,1.921,1.921,0,0,0-1.648.82A4.128,4.128,0,0,0,91.215,32.867Zm11.375,4.289a3.693,3.693,0,0,1-2.8-1.129,4.19,4.19,0,0,1-1.078-3.02v-.266A5.073,5.073,0,0,1,99.2,30.5a3.748,3.748,0,0,1,1.344-1.547,3.378,3.378,0,0,1,1.871-.559,3.166,3.166,0,0,1,2.563,1.086,4.7,4.7,0,0,1,.914,3.109v.6H100.16a3,3,0,0,0,.73,2.02,2.3,2.3,0,0,0,1.777.77,2.517,2.517,0,0,0,1.3-.312,3.259,3.259,0,0,0,.93-.828l.883.688A3.55,3.55,0,0,1,102.59,37.156Zm-.18-7.578a1.928,1.928,0,0,0-1.469.637A3.1,3.1,0,0,0,100.207,32h4.234v-.109a2.753,2.753,0,0,0-.594-1.707A1.815,1.815,0,0,0,102.41,29.578Zm6.516-1.031.047,1.063a3.08,3.08,0,0,1,2.531-1.219q2.68,0,2.7,3.023V37h-1.445V31.406a1.946,1.946,0,0,0-.418-1.352,1.675,1.675,0,0,0-1.277-.437,2.086,2.086,0,0,0-1.234.375,2.546,2.546,0,0,0-.828.984V37h-1.445V28.547Zm10.969,8.609a3.693,3.693,0,0,1-2.8-1.129,4.19,4.19,0,0,1-1.078-3.02v-.266a5.073,5.073,0,0,1,.48-2.246,3.748,3.748,0,0,1,1.344-1.547,3.378,3.378,0,0,1,1.871-.559,3.166,3.166,0,0,1,2.563,1.086,4.7,4.7,0,0,1,.914,3.109v.6h-5.727a3,3,0,0,0,.73,2.02,2.3,2.3,0,0,0,1.777.77,2.517,2.517,0,0,0,1.3-.312,3.259,3.259,0,0,0,.93-.828l.883.688A3.55,3.55,0,0,1,119.895,37.156Zm-.18-7.578a1.928,1.928,0,0,0-1.469.637A3.1,3.1,0,0,0,117.512,32h4.234v-.109a2.753,2.753,0,0,0-.594-1.707A1.815,1.815,0,0,0,119.715,29.578Zm9.234.266a4.331,4.331,0,0,0-.711-.055A1.9,1.9,0,0,0,126.309,31v6h-1.445V28.547h1.406l.023.977a2.251,2.251,0,0,1,2.016-1.133,1.477,1.477,0,0,1,.641.109ZM135.184,37a3.036,3.036,0,0,1-.2-.891,3.225,3.225,0,0,1-2.406,1.047,2.984,2.984,0,0,1-2.051-.707,2.287,2.287,0,0,1-.8-1.793,2.39,2.39,0,0,1,1-2.051,4.733,4.733,0,0,1,2.824-.73h1.406v-.664A1.623,1.623,0,0,0,134.5,30a1.821,1.821,0,0,0-1.336-.449,2.107,2.107,0,0,0-1.3.391,1.151,1.151,0,0,0-.523.945h-1.453a2,2,0,0,1,.449-1.223,3.066,3.066,0,0,1,1.219-.934,4.1,4.1,0,0,1,1.691-.344,3.342,3.342,0,0,1,2.289.73,2.635,2.635,0,0,1,.859,2.012v3.891a4.757,4.757,0,0,0,.3,1.852V37Zm-2.4-1.1a2.54,2.54,0,0,0,1.289-.352,2.127,2.127,0,0,0,.883-.914V32.9h-1.133q-2.656,0-2.656,1.555a1.316,1.316,0,0,0,.453,1.063A1.742,1.742,0,0,0,132.785,35.9Zm5.531-3.2a4.952,4.952,0,0,1,.922-3.129A3.137,3.137,0,0,1,144,29.406V25h1.445V37h-1.328l-.07-.906a2.943,2.943,0,0,1-2.414,1.063,2.887,2.887,0,0,1-2.395-1.2,5.008,5.008,0,0,1-.926-3.141Zm1.445.164a3.749,3.749,0,0,0,.594,2.25A1.919,1.919,0,0,0,142,35.93,2.108,2.108,0,0,0,144,34.7V30.813a2.125,2.125,0,0,0-1.992-1.2,1.929,1.929,0,0,0-1.656.82A4.128,4.128,0,0,0,139.762,32.867Zm7.547-.172a4.993,4.993,0,0,1,.488-2.234,3.642,3.642,0,0,1,1.359-1.531,3.7,3.7,0,0,1,1.988-.539,3.565,3.565,0,0,1,2.793,1.2A4.6,4.6,0,0,1,155,32.766v.1a5.036,5.036,0,0,1-.473,2.215,3.589,3.589,0,0,1-1.352,1.527,3.743,3.743,0,0,1-2.02.547,3.556,3.556,0,0,1-2.785-1.2,4.575,4.575,0,0,1-1.066-3.164Zm1.453.172a3.616,3.616,0,0,0,.652,2.258,2.211,2.211,0,0,0,3.5-.012,3.954,3.954,0,0,0,.648-2.418,3.61,3.61,0,0,0-.66-2.254,2.1,2.1,0,0,0-1.754-.863,2.075,2.075,0,0,0-1.727.852A3.925,3.925,0,0,0,148.762,32.867ZM160.9,29.844a4.331,4.331,0,0,0-.711-.055A1.9,1.9,0,0,0,158.262,31v6h-1.445V28.547h1.406l.023.977a2.251,2.251,0,0,1,2.016-1.133,1.477,1.477,0,0,1,.641.109ZM167.137,37a3.036,3.036,0,0,1-.2-.891,3.225,3.225,0,0,1-2.406,1.047,2.984,2.984,0,0,1-2.051-.707,2.287,2.287,0,0,1-.8-1.793,2.39,2.39,0,0,1,1-2.051,4.733,4.733,0,0,1,2.824-.73h1.406v-.664A1.623,1.623,0,0,0,166.457,30a1.821,1.821,0,0,0-1.336-.449,2.107,2.107,0,0,0-1.3.391,1.151,1.151,0,0,0-.523.945h-1.453a2,2,0,0,1,.449-1.223,3.066,3.066,0,0,1,1.219-.934,4.1,4.1,0,0,1,1.691-.344,3.342,3.342,0,0,1,2.289.73,2.635,2.635,0,0,1,.859,2.012v3.891a4.757,4.757,0,0,0,.3,1.852V37Zm-2.4-1.1a2.54,2.54,0,0,0,1.289-.352,2.127,2.127,0,0,0,.883-.914V32.9h-1.133q-2.656,0-2.656,1.555a1.316,1.316,0,0,0,.453,1.063A1.742,1.742,0,0,0,164.738,35.9Zm10.8-1.141a1.064,1.064,0,0,0-.441-.91,4.249,4.249,0,0,0-1.539-.559,7.277,7.277,0,0,1-1.742-.562,2.479,2.479,0,0,1-.953-.781,1.869,1.869,0,0,1-.309-1.078,2.193,2.193,0,0,1,.879-1.758,3.432,3.432,0,0,1,2.246-.719,3.532,3.532,0,0,1,2.332.742,2.357,2.357,0,0,1,.895,1.9h-1.453a1.3,1.3,0,0,0-.5-1.023,1.888,1.888,0,0,0-1.27-.43,1.976,1.976,0,0,0-1.234.344,1.082,1.082,0,0,0-.445.9.877.877,0,0,0,.414.789,5.1,5.1,0,0,0,1.5.508,7.8,7.8,0,0,1,1.754.578,2.558,2.558,0,0,1,1,.809,1.988,1.988,0,0,1,.324,1.152,2.163,2.163,0,0,1-.906,1.816,3.8,3.8,0,0,1-2.352.684,4.257,4.257,0,0,1-1.8-.359,2.922,2.922,0,0,1-1.223-1,2.42,2.42,0,0,1-.441-1.395h1.445a1.5,1.5,0,0,0,.582,1.152,2.258,2.258,0,0,0,1.434.426,2.331,2.331,0,0,0,1.316-.332A1.02,1.02,0,0,0,175.543,34.758Zm3.359,1.484a.905.905,0,0,1,.223-.625.848.848,0,0,1,.668-.25.874.874,0,0,1,.676.25.887.887,0,0,1,.23.625.839.839,0,0,1-.23.6.89.89,0,0,1-.676.242.8.8,0,0,1-.891-.844Z" transform="translate(-7083.283 -6520.22)" fill="#777"/>
    <path id="Trazado_685887" data-name="Trazado 685887" d="M47.586,13.961q.164-.93-.914-1.422l-1.508-.6q-2.625-1.172-2.492-3.227A2.964,2.964,0,0,1,43.3,7.023a3.758,3.758,0,0,1,1.6-1.152,5.67,5.67,0,0,1,2.227-.4,3.857,3.857,0,0,1,2.664.98,3.267,3.267,0,0,1,1,2.543H48.508a1.628,1.628,0,0,0-.34-1.2,1.531,1.531,0,0,0-1.176-.445,2.37,2.37,0,0,0-1.359.355,1.458,1.458,0,0,0-.687,1.02q-.148.852,1.141,1.352l1.031.391.594.273q2.3,1.141,2.156,3.2a3.09,3.09,0,0,1-.645,1.738A3.633,3.633,0,0,1,47.66,16.8a5.565,5.565,0,0,1-2.176.367,4.873,4.873,0,0,1-2.156-.508,3.349,3.349,0,0,1-1.437-1.367,3.54,3.54,0,0,1-.43-1.875l2.289.008q-.109,1.852,1.82,1.883a2.392,2.392,0,0,0,1.375-.367A1.43,1.43,0,0,0,47.586,13.961Zm7.688-7.492-.367,2.078h1.406L56.023,10.2H54.617L53.9,14.438a1.077,1.077,0,0,0,.063.609q.109.211.531.227.125.008.672-.039l-.156,1.727a3.706,3.706,0,0,1-1.266.18,1.985,1.985,0,0,1-1.617-.68,2.456,2.456,0,0,1-.437-1.8l.727-4.461h-1.2l.289-1.656h1.2l.359-2.078Zm6.641,4.2a4.548,4.548,0,0,0-.742-.078,2.136,2.136,0,0,0-1.867.883L58.328,17h-2.2l1.469-8.453,2.07-.008-.2,1.031a2.325,2.325,0,0,1,1.969-1.2,3.214,3.214,0,0,1,.766.109Zm4.508-2.273a3.39,3.39,0,0,1,1.926.574A3.234,3.234,0,0,1,69.535,10.5a4.762,4.762,0,0,1,.27,2.176,5.143,5.143,0,0,1-1.4,3.262,3.96,3.96,0,0,1-3.02,1.215,3.38,3.38,0,0,1-1.906-.566,3.222,3.222,0,0,1-1.187-1.527,4.657,4.657,0,0,1-.273-2.156,5.3,5.3,0,0,1,1.422-3.328A3.878,3.878,0,0,1,66.422,8.391ZM64.2,13.706a1.95,1.95,0,0,0,.352,1.182,1.168,1.168,0,0,0,.945.449,1.712,1.712,0,0,0,1.594-.932,4.647,4.647,0,0,0,.539-2.531,2.122,2.122,0,0,0-.363-1.2,1.149,1.149,0,0,0-.949-.464,1.715,1.715,0,0,0-1.574.924A4.6,4.6,0,0,0,64.2,13.706Zm9.727-5.167-.187,1A3.042,3.042,0,0,1,76.2,8.391a2.028,2.028,0,0,1,1.766.875,3.526,3.526,0,0,1,.414,2.359L77.484,17h-2.2l.906-5.4a2.528,2.528,0,0,0,.016-.555.9.9,0,0,0-1-.82,1.9,1.9,0,0,0-1.555.8L72.594,17h-2.2l1.469-8.453Zm5.711,4.227A5.849,5.849,0,0,1,80.91,9.582a3.242,3.242,0,0,1,2.629-1.2,2.37,2.37,0,0,1,2.016.977l.289-.82,2.023.008-1.383,8.164a3.983,3.983,0,0,1-1.437,2.672,4.471,4.471,0,0,1-3,.953,4.168,4.168,0,0,1-1.672-.379,3.575,3.575,0,0,1-1.312-1l1.094-1.344A2.349,2.349,0,0,0,82,18.578a2.166,2.166,0,0,0,1.469-.449,2.4,2.4,0,0,0,.828-1.355l.125-.508a2.749,2.749,0,0,1-2.07.891,2.428,2.428,0,0,1-1.961-.918,3.947,3.947,0,0,1-.8-2.348A7.89,7.89,0,0,1,79.633,12.766Zm2.164.927a2.02,2.02,0,0,0,.309,1.178,1.08,1.08,0,0,0,.895.466,1.972,1.972,0,0,0,1.594-.767l.656-3.583a1.3,1.3,0,0,0-1.242-.767,1.728,1.728,0,0,0-1.43.681,3.561,3.561,0,0,0-.734,1.87A8.213,8.213,0,0,0,81.8,13.693Zm14,1.651a1.447,1.447,0,0,0,1.016-.332,1.632,1.632,0,0,0,.531-.926l2.07-.008a3.037,3.037,0,0,1-.559,1.6,3.394,3.394,0,0,1-1.344,1.109,3.847,3.847,0,0,1-1.77.375A3.123,3.123,0,0,1,93.3,16.1a3.965,3.965,0,0,1-.867-2.766l.023-.43.008-.086a5.284,5.284,0,0,1,1.391-3.27,3.761,3.761,0,0,1,2.914-1.16,3.047,3.047,0,0,1,2.27.934,3.3,3.3,0,0,1,.824,2.379H97.813a1.73,1.73,0,0,0-.3-1.07,1.128,1.128,0,0,0-.891-.422q-1.578-.047-1.914,2.3a7.782,7.782,0,0,0-.086,1.438Q94.7,15.32,95.8,15.344Zm6.8,1.656h-2.219l2.086-12h2.211Zm6.7-8.609a3.39,3.39,0,0,1,1.926.574A3.234,3.234,0,0,1,112.41,10.5a4.762,4.762,0,0,1,.27,2.176,5.143,5.143,0,0,1-1.4,3.262,3.96,3.96,0,0,1-3.02,1.215,3.38,3.38,0,0,1-1.906-.566,3.222,3.222,0,0,1-1.187-1.527,4.657,4.657,0,0,1-.273-2.156,5.3,5.3,0,0,1,1.422-3.328A3.878,3.878,0,0,1,109.3,8.391Zm-2.227,5.315a1.95,1.95,0,0,0,.352,1.182,1.168,1.168,0,0,0,.945.449,1.712,1.712,0,0,0,1.594-.932,4.647,4.647,0,0,0,.539-2.531,2.122,2.122,0,0,0-.363-1.2,1.149,1.149,0,0,0-.949-.464,1.715,1.715,0,0,0-1.574.924A4.6,4.6,0,0,0,107.07,13.706Zm11.141.912q.125-.625-.867-.906l-.711-.18q-2.523-.7-2.453-2.453a2.428,2.428,0,0,1,1.059-1.949,3.942,3.942,0,0,1,2.457-.738,3.536,3.536,0,0,1,2.313.758,2.5,2.5,0,0,1,.9,1.977l-2.187-.008a.963.963,0,0,0-1.078-1.1,1.552,1.552,0,0,0-.895.258,1.061,1.061,0,0,0-.465.7q-.117.625.945.883l.313.07a6.285,6.285,0,0,1,1.648.59,2.488,2.488,0,0,1,.879.824,2.04,2.04,0,0,1,.285,1.18,2.251,2.251,0,0,1-.52,1.406,3.18,3.18,0,0,1-1.359.93,4.736,4.736,0,0,1-1.816.3,3.568,3.568,0,0,1-2.344-.809,2.607,2.607,0,0,1-.953-2.051l2.078.016a1.142,1.142,0,0,0,1.3,1.227,1.845,1.845,0,0,0,1-.25A.987.987,0,0,0,118.211,14.617ZM123.7,17h-2.219l1.469-8.453h2.219ZM123.2,6.4a1.1,1.1,0,0,1,.344-.867,1.323,1.323,0,0,1,1.734-.039,1.1,1.1,0,0,1,.383.828,1.132,1.132,0,0,1-.324.844,1.215,1.215,0,0,1-.887.375,1.235,1.235,0,0,1-.863-.3A1.091,1.091,0,0,1,123.2,6.4Zm5.844,2.141-.187,1a3.042,3.042,0,0,1,2.461-1.148,2.028,2.028,0,0,1,1.766.875,3.526,3.526,0,0,1,.414,2.359L132.609,17h-2.2l.906-5.4a2.527,2.527,0,0,0,.016-.555.9.9,0,0,0-1-.82,1.9,1.9,0,0,0-1.555.8L127.719,17h-2.2l1.469-8.453Zm5.711,4.227a5.849,5.849,0,0,1,1.277-3.184,3.242,3.242,0,0,1,2.629-1.2,2.37,2.37,0,0,1,2.016.977l.289-.82,2.023.008-1.383,8.164a3.983,3.983,0,0,1-1.437,2.672,4.471,4.471,0,0,1-3,.953,4.168,4.168,0,0,1-1.672-.379,3.575,3.575,0,0,1-1.312-1l1.094-1.344a2.349,2.349,0,0,0,1.844.961,2.166,2.166,0,0,0,1.469-.449,2.4,2.4,0,0,0,.828-1.355l.125-.508a2.749,2.749,0,0,1-2.07.891,2.428,2.428,0,0,1-1.961-.918,3.947,3.947,0,0,1-.8-2.348A7.889,7.889,0,0,1,134.758,12.766Zm2.164.927a2.02,2.02,0,0,0,.309,1.178,1.08,1.08,0,0,0,.895.466,1.972,1.972,0,0,0,1.594-.767l.656-3.583a1.3,1.3,0,0,0-1.242-.767,1.728,1.728,0,0,0-1.43.681,3.561,3.561,0,0,0-.734,1.87A8.216,8.216,0,0,0,136.922,13.693Zm15.2.924q.125-.625-.867-.906l-.711-.18q-2.523-.7-2.453-2.453a2.428,2.428,0,0,1,1.059-1.949,3.942,3.942,0,0,1,2.457-.738,3.536,3.536,0,0,1,2.313.758,2.5,2.5,0,0,1,.9,1.977l-2.187-.008a.963.963,0,0,0-1.078-1.1,1.552,1.552,0,0,0-.895.258,1.061,1.061,0,0,0-.465.7q-.117.625.945.883l.313.07a6.285,6.285,0,0,1,1.648.59,2.488,2.488,0,0,1,.879.824,2.04,2.04,0,0,1,.285,1.18,2.251,2.251,0,0,1-.52,1.406,3.18,3.18,0,0,1-1.359.93,4.736,4.736,0,0,1-1.816.3,3.568,3.568,0,0,1-2.344-.809,2.607,2.607,0,0,1-.953-2.051l2.078.016a1.142,1.142,0,0,0,1.3,1.227,1.845,1.845,0,0,0,1-.25A.987.987,0,0,0,152.117,14.617Zm7.625-8.148-.367,2.078h1.406l-.289,1.656h-1.406l-.719,4.234a1.077,1.077,0,0,0,.063.609q.109.211.531.227.125.008.672-.039l-.156,1.727a3.706,3.706,0,0,1-1.266.18,1.985,1.985,0,0,1-1.617-.68,2.456,2.456,0,0,1-.437-1.8l.727-4.461h-1.2l.289-1.656h1.2l.359-2.078ZM165.484,17a2.281,2.281,0,0,1-.086-.766,2.863,2.863,0,0,1-2.156.922,2.594,2.594,0,0,1-1.84-.723,2.186,2.186,0,0,1-.684-1.746,2.527,2.527,0,0,1,1.16-2.121,5.266,5.266,0,0,1,2.965-.738l1.031.016.109-.508a1.764,1.764,0,0,0,.023-.492.846.846,0,0,0-.277-.574.955.955,0,0,0-.629-.215,1.345,1.345,0,0,0-.875.254,1.231,1.231,0,0,0-.461.777l-2.211.008a2.457,2.457,0,0,1,1.113-1.965,4.312,4.312,0,0,1,2.613-.738,3.117,3.117,0,0,1,2.25.855,2.5,2.5,0,0,1,.68,2.121l-.648,4.047-.039.5a2.412,2.412,0,0,0,.133.938l-.008.148Zm-1.7-1.555a2.017,2.017,0,0,0,1.664-.828l.273-1.461-.766-.008a2.139,2.139,0,0,0-1.758.742,1.292,1.292,0,0,0-.242.633.75.75,0,0,0,.176.668A.891.891,0,0,0,163.789,15.445Zm9.672-8.977-.367,2.078H174.5l-.289,1.656H172.8l-.719,4.234a1.077,1.077,0,0,0,.063.609q.109.211.531.227.125.008.672-.039l-.156,1.727a3.706,3.706,0,0,1-1.266.18,1.985,1.985,0,0,1-1.617-.68,2.456,2.456,0,0,1-.437-1.8L170.6,10.2h-1.2l.289-1.656h1.2l.359-2.078Zm4.867,10.688a3.677,3.677,0,0,1-1.965-.543,3.292,3.292,0,0,1-1.277-1.469,4.093,4.093,0,0,1-.328-2.059l.023-.312a5.465,5.465,0,0,1,.719-2.266,4.341,4.341,0,0,1,1.547-1.59,3.827,3.827,0,0,1,2.094-.527,2.924,2.924,0,0,1,2.473,1.2,4.117,4.117,0,0,1,.637,2.962l-.125.962h-5.18a1.814,1.814,0,0,0,.4,1.313,1.521,1.521,0,0,0,1.172.508,2.7,2.7,0,0,0,2.109-.937l1.008,1.25a3.135,3.135,0,0,1-1.375,1.121A4.5,4.5,0,0,1,178.328,17.156Zm.7-6.945a1.565,1.565,0,0,0-1.082.383,3.363,3.363,0,0,0-.848,1.383h3.031l.047-.2a2.071,2.071,0,0,0,.008-.594,1.134,1.134,0,0,0-.383-.707A1.2,1.2,0,0,0,179.031,10.211ZM186.3,8.539l-.18.961a3.112,3.112,0,0,1,2.477-1.109,2.379,2.379,0,0,1,1.3.359,1.679,1.679,0,0,1,.7.93,3.255,3.255,0,0,1,2.625-1.289,2.126,2.126,0,0,1,1.754.8,3.271,3.271,0,0,1,.5,2.234l-.016.2-.9,5.383h-2.211l.9-5.4a3.909,3.909,0,0,0,.023-.54.837.837,0,0,0-.937-.845,1.86,1.86,0,0,0-1.555.97l-.023.18L189.758,17h-2.2l.9-5.383a3.9,3.9,0,0,0,.023-.539.836.836,0,0,0-.93-.852,1.867,1.867,0,0,0-1.508.789L184.984,17h-2.2l1.461-8.453Zm14.016,8.617a3.677,3.677,0,0,1-1.965-.543,3.292,3.292,0,0,1-1.277-1.469,4.093,4.093,0,0,1-.328-2.059l.023-.312a5.465,5.465,0,0,1,.719-2.266,4.341,4.341,0,0,1,1.547-1.59,3.827,3.827,0,0,1,2.094-.527,2.924,2.924,0,0,1,2.473,1.2,4.117,4.117,0,0,1,.637,2.962l-.125.962h-5.18a1.814,1.814,0,0,0,.4,1.313,1.521,1.521,0,0,0,1.172.508,2.7,2.7,0,0,0,2.109-.937l1.008,1.25a3.135,3.135,0,0,1-1.375,1.121A4.5,4.5,0,0,1,200.313,17.156Zm.7-6.945a1.565,1.565,0,0,0-1.082.383,3.363,3.363,0,0,0-.848,1.383h3.031l.047-.2a2.071,2.071,0,0,0,.008-.594,1.134,1.134,0,0,0-.383-.707A1.2,1.2,0,0,0,201.016,10.211Zm7.234-1.672-.187,1a3.042,3.042,0,0,1,2.461-1.148,2.028,2.028,0,0,1,1.766.875,3.526,3.526,0,0,1,.414,2.359L211.813,17h-2.2l.906-5.4a2.527,2.527,0,0,0,.016-.555.9.9,0,0,0-1-.82,1.9,1.9,0,0,0-1.555.8L206.922,17h-2.2l1.469-8.453Zm9.758-2.07-.367,2.078h1.406l-.289,1.656h-1.406l-.719,4.234a1.077,1.077,0,0,0,.063.609q.109.211.531.227.125.008.672-.039l-.156,1.727a3.706,3.706,0,0,1-1.266.18,1.985,1.985,0,0,1-1.617-.68,2.456,2.456,0,0,1-.437-1.8l.727-4.461h-1.2l.289-1.656h1.2l.359-2.078ZM33.531,37V25.625h3.211a5.169,5.169,0,0,1,2.625.656,4.438,4.438,0,0,1,1.762,1.867,6.078,6.078,0,0,1,.629,2.781v.727a6.1,6.1,0,0,1-.621,2.82,4.369,4.369,0,0,1-1.773,1.859A5.5,5.5,0,0,1,36.68,37Zm1.5-10.148v8.922h1.578a3.434,3.434,0,0,0,2.7-1.079,4.458,4.458,0,0,0,.965-3.073v-.665a4.529,4.529,0,0,0-.91-3.014,3.239,3.239,0,0,0-2.582-1.091ZM47.3,37.156a3.693,3.693,0,0,1-2.8-1.129,4.19,4.19,0,0,1-1.078-3.02v-.266a5.073,5.073,0,0,1,.48-2.246,3.748,3.748,0,0,1,1.344-1.547,3.378,3.378,0,0,1,1.871-.559,3.166,3.166,0,0,1,2.563,1.086,4.7,4.7,0,0,1,.914,3.109v.6H44.875a3,3,0,0,0,.73,2.02,2.3,2.3,0,0,0,1.777.77,2.517,2.517,0,0,0,1.3-.312,3.258,3.258,0,0,0,.93-.828l.883.688A3.55,3.55,0,0,1,47.3,37.156Zm-.18-7.578a1.928,1.928,0,0,0-1.469.637A3.1,3.1,0,0,0,44.922,32h4.234v-.109a2.753,2.753,0,0,0-.594-1.707A1.815,1.815,0,0,0,47.125,29.578Zm8.539,6.4a2.082,2.082,0,0,0,1.352-.469,1.649,1.649,0,0,0,.641-1.172h1.367a2.621,2.621,0,0,1-.5,1.383,3.293,3.293,0,0,1-1.23,1.047,3.55,3.55,0,0,1-1.629.391A3.482,3.482,0,0,1,52.918,36a4.59,4.59,0,0,1-1.02-3.152v-.242a5.089,5.089,0,0,1,.453-2.2,3.451,3.451,0,0,1,1.3-1.492,3.7,3.7,0,0,1,2-.531,3.39,3.39,0,0,1,2.363.852,3.043,3.043,0,0,1,1,2.211H57.656a1.992,1.992,0,0,0-.621-1.348,1.932,1.932,0,0,0-1.379-.527,2.023,2.023,0,0,0-1.707.793,3.724,3.724,0,0,0-.605,2.293v.273a3.65,3.65,0,0,0,.6,2.25A2.033,2.033,0,0,0,55.664,35.977ZM62.219,37H60.773V25h1.445Zm7.531,0a3.036,3.036,0,0,1-.2-.891,3.225,3.225,0,0,1-2.406,1.047,2.984,2.984,0,0,1-2.051-.707,2.288,2.288,0,0,1-.8-1.793,2.39,2.39,0,0,1,1-2.051,4.733,4.733,0,0,1,2.824-.73h1.406v-.664A1.623,1.623,0,0,0,69.07,30a1.821,1.821,0,0,0-1.336-.449,2.108,2.108,0,0,0-1.3.391,1.151,1.151,0,0,0-.523.945H64.461a2,2,0,0,1,.449-1.223,3.066,3.066,0,0,1,1.219-.934,4.1,4.1,0,0,1,1.691-.344,3.342,3.342,0,0,1,2.289.73,2.635,2.635,0,0,1,.859,2.012v3.891a4.757,4.757,0,0,0,.3,1.852V37Zm-2.4-1.1a2.54,2.54,0,0,0,1.289-.352,2.127,2.127,0,0,0,.883-.914V32.9H68.391q-2.656,0-2.656,1.555a1.316,1.316,0,0,0,.453,1.063A1.742,1.742,0,0,0,67.352,35.9Zm9.969-6.055a4.331,4.331,0,0,0-.711-.055A1.9,1.9,0,0,0,74.68,31v6H73.234V28.547h1.406l.023.977a2.251,2.251,0,0,1,2.016-1.133,1.477,1.477,0,0,1,.641.109ZM83.555,37a3.036,3.036,0,0,1-.2-.891,3.225,3.225,0,0,1-2.406,1.047,2.984,2.984,0,0,1-2.051-.707,2.288,2.288,0,0,1-.8-1.793,2.39,2.39,0,0,1,1-2.051,4.733,4.733,0,0,1,2.824-.73h1.406v-.664A1.623,1.623,0,0,0,82.875,30a1.821,1.821,0,0,0-1.336-.449,2.108,2.108,0,0,0-1.3.391,1.151,1.151,0,0,0-.523.945H78.266a2,2,0,0,1,.449-1.223,3.066,3.066,0,0,1,1.219-.934,4.1,4.1,0,0,1,1.691-.344,3.342,3.342,0,0,1,2.289.73,2.635,2.635,0,0,1,.859,2.012v3.891a4.757,4.757,0,0,0,.3,1.852V37Zm-2.4-1.1a2.54,2.54,0,0,0,1.289-.352,2.127,2.127,0,0,0,.883-.914V32.9H82.2q-2.656,0-2.656,1.555a1.316,1.316,0,0,0,.453,1.063A1.742,1.742,0,0,0,81.156,35.9Zm9.273.078a2.082,2.082,0,0,0,1.352-.469,1.649,1.649,0,0,0,.641-1.172h1.367a2.621,2.621,0,0,1-.5,1.383,3.293,3.293,0,0,1-1.23,1.047,3.55,3.55,0,0,1-1.629.391A3.482,3.482,0,0,1,87.684,36a4.59,4.59,0,0,1-1.02-3.152v-.242a5.089,5.089,0,0,1,.453-2.2,3.451,3.451,0,0,1,1.3-1.492,3.7,3.7,0,0,1,2-.531,3.39,3.39,0,0,1,2.363.852,3.043,3.043,0,0,1,1,2.211H92.422a1.992,1.992,0,0,0-.621-1.348,1.932,1.932,0,0,0-1.379-.527,2.023,2.023,0,0,0-1.707.793,3.724,3.724,0,0,0-.605,2.293v.273a3.65,3.65,0,0,0,.6,2.25A2.033,2.033,0,0,0,90.43,35.977ZM96.984,37H95.539V28.547h1.445ZM95.422,26.3a.863.863,0,0,1,.215-.594.807.807,0,0,1,.637-.242.819.819,0,0,1,.641.242.854.854,0,0,1,.219.594.826.826,0,0,1-.219.586.834.834,0,0,1-.641.234.821.821,0,0,1-.637-.234A.834.834,0,0,1,95.422,26.3ZM98.914,32.7a4.993,4.993,0,0,1,.488-2.234,3.643,3.643,0,0,1,1.359-1.531,3.7,3.7,0,0,1,1.988-.539,3.565,3.565,0,0,1,2.793,1.2,4.6,4.6,0,0,1,1.066,3.18v.1a5.036,5.036,0,0,1-.473,2.215,3.589,3.589,0,0,1-1.352,1.527,3.743,3.743,0,0,1-2.02.547,3.556,3.556,0,0,1-2.785-1.2A4.575,4.575,0,0,1,98.914,32.8Zm1.453.172a3.616,3.616,0,0,0,.652,2.258,2.211,2.211,0,0,0,3.5-.012,3.955,3.955,0,0,0,.648-2.418,3.61,3.61,0,0,0-.66-2.254,2.1,2.1,0,0,0-1.754-.863,2.075,2.075,0,0,0-1.727.852A3.925,3.925,0,0,0,100.367,32.867Zm3.039-7.852h1.75l-2.094,2.3-1.164,0Zm6.383,3.531.047,1.063a3.08,3.08,0,0,1,2.531-1.219q2.68,0,2.7,3.023V37h-1.445V31.406a1.946,1.946,0,0,0-.418-1.352,1.675,1.675,0,0,0-1.277-.437,2.086,2.086,0,0,0-1.234.375,2.546,2.546,0,0,0-.828.984V37h-1.445V28.547Zm11.07,4.156a4.952,4.952,0,0,1,.922-3.129,3.137,3.137,0,0,1,4.766-.168V25h1.445V37h-1.328l-.07-.906a2.943,2.943,0,0,1-2.414,1.063,2.887,2.887,0,0,1-2.395-1.2,5.008,5.008,0,0,1-.926-3.141Zm1.445.164a3.749,3.749,0,0,0,.594,2.25,1.92,1.92,0,0,0,1.641.813,2.108,2.108,0,0,0,2.008-1.234V30.813a2.125,2.125,0,0,0-1.992-1.2,1.929,1.929,0,0,0-1.656.82A4.128,4.128,0,0,0,122.3,32.867Zm11.438,4.289a3.693,3.693,0,0,1-2.8-1.129,4.19,4.19,0,0,1-1.078-3.02v-.266a5.073,5.073,0,0,1,.48-2.246,3.748,3.748,0,0,1,1.344-1.547,3.378,3.378,0,0,1,1.871-.559,3.166,3.166,0,0,1,2.563,1.086,4.7,4.7,0,0,1,.914,3.109v.6h-5.727a3,3,0,0,0,.73,2.02,2.3,2.3,0,0,0,1.777.77,2.517,2.517,0,0,0,1.3-.312,3.258,3.258,0,0,0,.93-.828l.883.688A3.55,3.55,0,0,1,133.742,37.156Zm-.18-7.578a1.928,1.928,0,0,0-1.469.637A3.1,3.1,0,0,0,131.359,32h4.234v-.109A2.753,2.753,0,0,0,135,30.184,1.815,1.815,0,0,0,133.563,29.578Zm12.5,6.4a2.082,2.082,0,0,0,1.352-.469,1.649,1.649,0,0,0,.641-1.172h1.367a2.621,2.621,0,0,1-.5,1.383,3.293,3.293,0,0,1-1.23,1.047,3.55,3.55,0,0,1-1.629.391A3.482,3.482,0,0,1,143.316,36a4.59,4.59,0,0,1-1.02-3.152v-.242a5.089,5.089,0,0,1,.453-2.2,3.451,3.451,0,0,1,1.3-1.492,3.7,3.7,0,0,1,2-.531,3.39,3.39,0,0,1,2.363.852,3.043,3.043,0,0,1,1,2.211h-1.367a1.992,1.992,0,0,0-.621-1.348,1.932,1.932,0,0,0-1.379-.527,2.023,2.023,0,0,0-1.707.793,3.724,3.724,0,0,0-.605,2.293v.273a3.65,3.65,0,0,0,.6,2.25A2.033,2.033,0,0,0,146.063,35.977ZM152.617,37h-1.445V28.547h1.445Zm-1.562-10.7a.863.863,0,0,1,.215-.594.807.807,0,0,1,.637-.242.819.819,0,0,1,.641.242.854.854,0,0,1,.219.594.826.826,0,0,1-.219.586.834.834,0,0,1-.641.234.821.821,0,0,1-.637-.234A.834.834,0,0,1,151.055,26.3Zm7.383,10.852a3.693,3.693,0,0,1-2.8-1.129,4.19,4.19,0,0,1-1.078-3.02v-.266a5.073,5.073,0,0,1,.48-2.246,3.748,3.748,0,0,1,1.344-1.547,3.378,3.378,0,0,1,1.871-.559,3.166,3.166,0,0,1,2.563,1.086,4.7,4.7,0,0,1,.914,3.109v.6h-5.727a3,3,0,0,0,.73,2.02,2.3,2.3,0,0,0,1.777.77,2.517,2.517,0,0,0,1.3-.312,3.258,3.258,0,0,0,.93-.828l.883.688A3.55,3.55,0,0,1,158.438,37.156Zm-.18-7.578a1.928,1.928,0,0,0-1.469.637A3.1,3.1,0,0,0,156.055,32h4.234v-.109a2.753,2.753,0,0,0-.594-1.707A1.815,1.815,0,0,0,158.258,29.578Zm9.234.266a4.331,4.331,0,0,0-.711-.055A1.9,1.9,0,0,0,164.852,31v6h-1.445V28.547h1.406l.023.977a2.251,2.251,0,0,1,2.016-1.133,1.477,1.477,0,0,1,.641.109Zm5.414,0a4.331,4.331,0,0,0-.711-.055A1.9,1.9,0,0,0,170.266,31v6H168.82V28.547h1.406l.023.977a2.251,2.251,0,0,1,2.016-1.133,1.477,1.477,0,0,1,.641.109Zm4.688,7.313a3.693,3.693,0,0,1-2.8-1.129,4.19,4.19,0,0,1-1.078-3.02v-.266a5.073,5.073,0,0,1,.48-2.246,3.748,3.748,0,0,1,1.344-1.547,3.378,3.378,0,0,1,1.871-.559,3.166,3.166,0,0,1,2.563,1.086,4.7,4.7,0,0,1,.914,3.109v.6h-5.727a3,3,0,0,0,.73,2.02,2.3,2.3,0,0,0,1.777.77,2.517,2.517,0,0,0,1.3-.312,3.258,3.258,0,0,0,.93-.828l.883.688A3.55,3.55,0,0,1,177.594,37.156Zm-.18-7.578a1.928,1.928,0,0,0-1.469.637A3.1,3.1,0,0,0,175.211,32h4.234v-.109a2.753,2.753,0,0,0-.594-1.707A1.815,1.815,0,0,0,177.414,29.578ZM187.234,37V29.664H185.9V28.547h1.336V27.68a2.878,2.878,0,0,1,.727-2.1,2.745,2.745,0,0,1,2.055-.742,3.816,3.816,0,0,1,.992.132l-.078,1.165a4.151,4.151,0,0,0-.781-.07,1.41,1.41,0,0,0-1.086.411,1.669,1.669,0,0,0-.383,1.18v.893h1.8v1.117h-1.8V37Zm10.063-.836a3.07,3.07,0,0,1-2.477.992,2.628,2.628,0,0,1-2.059-.785,3.4,3.4,0,0,1-.715-2.324v-5.5h1.445v5.461q0,1.922,1.563,1.922a2.163,2.163,0,0,0,2.2-1.234V28.547H198.7V37h-1.375Zm7.109.992a3.693,3.693,0,0,1-2.8-1.129,4.19,4.19,0,0,1-1.078-3.02v-.266a5.073,5.073,0,0,1,.48-2.246,3.748,3.748,0,0,1,1.344-1.547,3.378,3.378,0,0,1,1.871-.559,3.166,3.166,0,0,1,2.563,1.086,4.7,4.7,0,0,1,.914,3.109v.6h-5.727a3,3,0,0,0,.73,2.02,2.3,2.3,0,0,0,1.777.77,2.517,2.517,0,0,0,1.3-.312,3.258,3.258,0,0,0,.93-.828l.883.688A3.55,3.55,0,0,1,204.406,37.156Zm-.18-7.578a1.928,1.928,0,0,0-1.469.637A3.1,3.1,0,0,0,202.023,32h4.234v-.109a2.753,2.753,0,0,0-.594-1.707A1.815,1.815,0,0,0,204.227,29.578Zm9.234.266a4.331,4.331,0,0,0-.711-.055A1.9,1.9,0,0,0,210.82,31v6h-1.445V28.547h1.406l.023.977a2.251,2.251,0,0,1,2.016-1.133,1.477,1.477,0,0,1,.641.109Zm3.68-3.344v2.047h1.578v1.117h-1.578v5.249a1.173,1.173,0,0,0,.211.763.888.888,0,0,0,.719.254,3.5,3.5,0,0,0,.688-.094V37a4.215,4.215,0,0,1-1.109.155,1.8,1.8,0,0,1-1.461-.586,2.517,2.517,0,0,1-.492-1.664V29.664h-1.539V28.547H215.7V26.5Zm6.773,10.656a3.693,3.693,0,0,1-2.8-1.129,4.19,4.19,0,0,1-1.078-3.02v-.266a5.073,5.073,0,0,1,.48-2.246,3.748,3.748,0,0,1,1.344-1.547,3.378,3.378,0,0,1,1.871-.559,3.166,3.166,0,0,1,2.563,1.086,4.7,4.7,0,0,1,.914,3.109v.6h-5.727a3,3,0,0,0,.73,2.02,2.3,2.3,0,0,0,1.777.77,2.517,2.517,0,0,0,1.3-.312,3.258,3.258,0,0,0,.93-.828l.883.688A3.55,3.55,0,0,1,223.914,37.156Zm-.18-7.578a1.928,1.928,0,0,0-1.469.637A3.1,3.1,0,0,0,221.531,32h4.234v-.109a2.753,2.753,0,0,0-.594-1.707A1.815,1.815,0,0,0,223.734,29.578Z" transform="translate(-7151.283 -6443.22)" fill="#777"/>
    <path id="Trazado_685888" data-name="Trazado 685888" d="M36.723,15.563a3.837,3.837,0,0,1-1.785,1.191,7.523,7.523,0,0,1-2.652.395,4.114,4.114,0,0,1-2.047-.512,3.572,3.572,0,0,1-1.391-1.449,5.128,5.128,0,0,1-.578-2.156,9.841,9.841,0,0,1,.238-2.645,7.438,7.438,0,0,1,1.086-2.664,5.076,5.076,0,0,1,1.848-1.711,4.868,4.868,0,0,1,2.391-.543,3.954,3.954,0,0,1,2.789,1A4.165,4.165,0,0,1,37.77,9.258l-2.2-.008a2.331,2.331,0,0,0-.508-1.406A1.731,1.731,0,0,0,33.8,7.359a2.467,2.467,0,0,0-2.277,1.27,7.9,7.9,0,0,0-.949,3.816,3.355,3.355,0,0,0,.41,2.07,1.7,1.7,0,0,0,1.488.75,3.171,3.171,0,0,0,1.984-.555l.383-1.961H32.762l.3-1.727H37.41ZM40.441,17H38.223l1.469-8.453H41.91ZM39.949,6.4a1.1,1.1,0,0,1,.344-.867,1.323,1.323,0,0,1,1.734-.039,1.1,1.1,0,0,1,.383.828,1.132,1.132,0,0,1-.324.844,1.215,1.215,0,0,1-.887.375,1.235,1.235,0,0,1-.863-.3A1.091,1.091,0,0,1,39.949,6.4Zm5.914,7.813L48.27,8.547h2.375L46.559,17H44.449L43,8.547h2.234Zm8.383,2.945a3.677,3.677,0,0,1-1.965-.543A3.292,3.292,0,0,1,51,15.145a4.093,4.093,0,0,1-.328-2.059l.023-.312a5.465,5.465,0,0,1,.719-2.266,4.341,4.341,0,0,1,1.547-1.59,3.827,3.827,0,0,1,2.094-.527,2.924,2.924,0,0,1,2.473,1.2,4.117,4.117,0,0,1,.637,2.962l-.125.962h-5.18a1.814,1.814,0,0,0,.4,1.313,1.521,1.521,0,0,0,1.172.508,2.7,2.7,0,0,0,2.109-.937l1.008,1.25a3.135,3.135,0,0,1-1.375,1.121A4.5,4.5,0,0,1,54.246,17.156Zm.7-6.945a1.565,1.565,0,0,0-1.082.383,3.363,3.363,0,0,0-.848,1.383h3.031l.047-.2a2.071,2.071,0,0,0,.008-.594,1.134,1.134,0,0,0-.383-.707A1.2,1.2,0,0,0,54.949,10.211ZM67.535,17a2.281,2.281,0,0,1-.086-.766,2.863,2.863,0,0,1-2.156.922,2.594,2.594,0,0,1-1.84-.723,2.186,2.186,0,0,1-.684-1.746,2.527,2.527,0,0,1,1.16-2.121,5.266,5.266,0,0,1,2.965-.738l1.031.016.109-.508a1.764,1.764,0,0,0,.023-.492.846.846,0,0,0-.277-.574.955.955,0,0,0-.629-.215,1.345,1.345,0,0,0-.875.254,1.231,1.231,0,0,0-.461.777l-2.211.008a2.457,2.457,0,0,1,1.113-1.965,4.312,4.312,0,0,1,2.613-.738,3.117,3.117,0,0,1,2.25.855,2.5,2.5,0,0,1,.68,2.121l-.648,4.047-.039.5a2.412,2.412,0,0,0,.133.938L69.7,17Zm-1.7-1.555a2.017,2.017,0,0,0,1.664-.828l.273-1.461-.766-.008a2.139,2.139,0,0,0-1.758.742,1.292,1.292,0,0,0-.242.633.75.75,0,0,0,.176.668A.891.891,0,0,0,65.84,15.445Zm14.047-.828q.125-.625-.867-.906l-.711-.18q-2.523-.7-2.453-2.453a2.428,2.428,0,0,1,1.059-1.949,3.942,3.942,0,0,1,2.457-.738,3.536,3.536,0,0,1,2.313.758,2.5,2.5,0,0,1,.9,1.977l-2.187-.008a.963.963,0,0,0-1.078-1.1,1.552,1.552,0,0,0-.895.258,1.061,1.061,0,0,0-.465.7q-.117.625.945.883l.313.07a6.285,6.285,0,0,1,1.648.59,2.488,2.488,0,0,1,.879.824,2.04,2.04,0,0,1,.285,1.18,2.251,2.251,0,0,1-.52,1.406,3.18,3.18,0,0,1-1.359.93,4.736,4.736,0,0,1-1.816.3,3.568,3.568,0,0,1-2.344-.809,2.607,2.607,0,0,1-.953-2.051l2.078.016a1.142,1.142,0,0,0,1.3,1.227,1.845,1.845,0,0,0,1-.25A.987.987,0,0,0,79.887,14.617Zm7.992-6.227a3.39,3.39,0,0,1,1.926.574A3.234,3.234,0,0,1,90.992,10.5a4.762,4.762,0,0,1,.27,2.176,5.143,5.143,0,0,1-1.4,3.262,3.96,3.96,0,0,1-3.02,1.215,3.38,3.38,0,0,1-1.906-.566,3.222,3.222,0,0,1-1.187-1.527,4.657,4.657,0,0,1-.273-2.156,5.3,5.3,0,0,1,1.422-3.328A3.878,3.878,0,0,1,87.879,8.391Zm-2.227,5.315A1.95,1.95,0,0,0,86,14.887a1.168,1.168,0,0,0,.945.449,1.712,1.712,0,0,0,1.594-.932,4.647,4.647,0,0,0,.539-2.531,2.122,2.122,0,0,0-.363-1.2,1.149,1.149,0,0,0-.949-.464,1.715,1.715,0,0,0-1.574.924A4.6,4.6,0,0,0,85.652,13.706ZM94.223,17H92L94.09,5H96.3Zm7.1-.875A2.919,2.919,0,0,1,99,17.156a2.172,2.172,0,0,1-1.844-.875,3.2,3.2,0,0,1-.484-2.266l.914-5.469h2.2l-.93,5.5a2.174,2.174,0,0,0-.008.485.8.8,0,0,0,.867.806,2.014,2.014,0,0,0,1.7-.79l1.055-6h2.219L103.215,17H101.16Zm8-9.656-.367,2.078h1.406l-.289,1.656h-1.406l-.719,4.234a1.077,1.077,0,0,0,.063.609q.109.211.531.227.125.008.672-.039l-.156,1.727a3.706,3.706,0,0,1-1.266.18,1.985,1.985,0,0,1-1.617-.68,2.456,2.456,0,0,1-.437-1.8l.727-4.461h-1.2l.289-1.656h1.2l.359-2.078ZM112.5,17h-2.219l1.469-8.453h2.219Zm-.492-10.6a1.1,1.1,0,0,1,.344-.867,1.323,1.323,0,0,1,1.734-.039,1.1,1.1,0,0,1,.383.828,1.132,1.132,0,0,1-.324.844,1.215,1.215,0,0,1-.887.375,1.235,1.235,0,0,1-.863-.3A1.091,1.091,0,0,1,112.012,6.4Zm7.2,1.992a3.39,3.39,0,0,1,1.926.574A3.234,3.234,0,0,1,122.32,10.5a4.762,4.762,0,0,1,.27,2.176,5.143,5.143,0,0,1-1.4,3.262,3.96,3.96,0,0,1-3.02,1.215,3.38,3.38,0,0,1-1.906-.566,3.222,3.222,0,0,1-1.187-1.527,4.657,4.657,0,0,1-.273-2.156,5.3,5.3,0,0,1,1.422-3.328A3.878,3.878,0,0,1,119.207,8.391Zm-2.227,5.315a1.95,1.95,0,0,0,.352,1.182,1.168,1.168,0,0,0,.945.449,1.712,1.712,0,0,0,1.594-.932,4.647,4.647,0,0,0,.539-2.531,2.122,2.122,0,0,0-.363-1.2,1.149,1.149,0,0,0-.949-.464,1.715,1.715,0,0,0-1.574.924A4.6,4.6,0,0,0,116.98,13.706Zm9.727-5.167-.187,1a3.042,3.042,0,0,1,2.461-1.148,2.028,2.028,0,0,1,1.766.875,3.526,3.526,0,0,1,.414,2.359L130.27,17h-2.2l.906-5.4a2.527,2.527,0,0,0,.016-.555.9.9,0,0,0-1-.82,1.9,1.9,0,0,0-1.555.8L125.379,17h-2.2l1.469-8.453Zm6.828,6.133a1.22,1.22,0,0,1,.895.324,1.111,1.111,0,0,1,.371.855,1.151,1.151,0,0,1-.344.879,1.323,1.323,0,0,1-1.766.051,1.149,1.149,0,0,1-.375-.852,1.161,1.161,0,0,1,.336-.883A1.238,1.238,0,0,1,133.535,14.672ZM21.629,37V25.625H24.84a5.169,5.169,0,0,1,2.625.656,4.438,4.438,0,0,1,1.762,1.867,6.078,6.078,0,0,1,.629,2.781v.727a6.1,6.1,0,0,1-.621,2.82,4.369,4.369,0,0,1-1.773,1.859A5.5,5.5,0,0,1,24.777,37Zm1.5-10.148v8.922h1.578a3.434,3.434,0,0,0,2.7-1.079,4.458,4.458,0,0,0,.965-3.073v-.665a4.529,4.529,0,0,0-.91-3.014,3.239,3.239,0,0,0-2.582-1.091ZM37.113,37a3.036,3.036,0,0,1-.2-.891A3.225,3.225,0,0,1,34.5,37.156a2.984,2.984,0,0,1-2.051-.707,2.287,2.287,0,0,1-.8-1.793,2.39,2.39,0,0,1,1-2.051,4.733,4.733,0,0,1,2.824-.73h1.406v-.664A1.623,1.623,0,0,0,36.434,30a1.821,1.821,0,0,0-1.336-.449,2.107,2.107,0,0,0-1.3.391,1.151,1.151,0,0,0-.523.945H31.824a2,2,0,0,1,.449-1.223,3.066,3.066,0,0,1,1.219-.934,4.1,4.1,0,0,1,1.691-.344,3.342,3.342,0,0,1,2.289.73,2.635,2.635,0,0,1,.859,2.012v3.891a4.757,4.757,0,0,0,.3,1.852V37Zm-2.4-1.1A2.54,2.54,0,0,0,36,35.547a2.127,2.127,0,0,0,.883-.914V32.9H35.754q-2.656,0-2.656,1.555a1.316,1.316,0,0,0,.453,1.063A1.742,1.742,0,0,0,34.715,35.9Zm9.969-6.055a4.331,4.331,0,0,0-.711-.055A1.9,1.9,0,0,0,42.043,31v6H40.6V28.547H42l.023.977a2.251,2.251,0,0,1,2.016-1.133,1.477,1.477,0,0,1,.641.109Zm10.508,6.32a3.07,3.07,0,0,1-2.477.992,2.628,2.628,0,0,1-2.059-.785,3.4,3.4,0,0,1-.715-2.324v-5.5h1.445v5.461q0,1.922,1.563,1.922a2.163,2.163,0,0,0,2.2-1.234V28.547H56.6V37H55.223Zm4.969-7.617.047,1.063a3.08,3.08,0,0,1,2.531-1.219q2.68,0,2.7,3.023V37H64V31.406a1.946,1.946,0,0,0-.418-1.352,1.675,1.675,0,0,0-1.277-.437,2.086,2.086,0,0,0-1.234.375,2.546,2.546,0,0,0-.828.984V37H58.793V28.547ZM72.84,37a3.036,3.036,0,0,1-.2-.891,3.225,3.225,0,0,1-2.406,1.047,2.984,2.984,0,0,1-2.051-.707,2.288,2.288,0,0,1-.8-1.793,2.39,2.39,0,0,1,1-2.051,4.733,4.733,0,0,1,2.824-.73h1.406v-.664A1.623,1.623,0,0,0,72.16,30a1.821,1.821,0,0,0-1.336-.449,2.108,2.108,0,0,0-1.3.391,1.151,1.151,0,0,0-.523.945H67.551A2,2,0,0,1,68,29.668a3.066,3.066,0,0,1,1.219-.934,4.1,4.1,0,0,1,1.691-.344,3.342,3.342,0,0,1,2.289.73,2.635,2.635,0,0,1,.859,2.012v3.891a4.757,4.757,0,0,0,.3,1.852V37Zm-2.4-1.1a2.54,2.54,0,0,0,1.289-.352,2.127,2.127,0,0,0,.883-.914V32.9H71.48q-2.656,0-2.656,1.555a1.316,1.316,0,0,0,.453,1.063A1.742,1.742,0,0,0,70.441,35.9Zm14.766-1.141a1.064,1.064,0,0,0-.441-.91,4.249,4.249,0,0,0-1.539-.559,7.277,7.277,0,0,1-1.742-.562,2.479,2.479,0,0,1-.953-.781,1.869,1.869,0,0,1-.309-1.078,2.193,2.193,0,0,1,.879-1.758,3.432,3.432,0,0,1,2.246-.719,3.532,3.532,0,0,1,2.332.742,2.357,2.357,0,0,1,.895,1.9H85.121a1.3,1.3,0,0,0-.5-1.023,1.888,1.888,0,0,0-1.27-.43,1.976,1.976,0,0,0-1.234.344,1.082,1.082,0,0,0-.445.9.877.877,0,0,0,.414.789,5.1,5.1,0,0,0,1.5.508,7.8,7.8,0,0,1,1.754.578,2.558,2.558,0,0,1,1,.809,1.988,1.988,0,0,1,.324,1.152,2.163,2.163,0,0,1-.906,1.816,3.8,3.8,0,0,1-2.352.684,4.257,4.257,0,0,1-1.8-.359,2.922,2.922,0,0,1-1.223-1,2.42,2.42,0,0,1-.441-1.395h1.445a1.5,1.5,0,0,0,.582,1.152,2.258,2.258,0,0,0,1.434.426,2.331,2.331,0,0,0,1.316-.332A1.02,1.02,0,0,0,85.207,34.758ZM88.152,32.7a4.993,4.993,0,0,1,.488-2.234A3.643,3.643,0,0,1,90,28.93a3.7,3.7,0,0,1,1.988-.539,3.565,3.565,0,0,1,2.793,1.2,4.6,4.6,0,0,1,1.066,3.18v.1a5.036,5.036,0,0,1-.473,2.215,3.589,3.589,0,0,1-1.352,1.527,3.743,3.743,0,0,1-2.02.547,3.556,3.556,0,0,1-2.785-1.2A4.575,4.575,0,0,1,88.152,32.8Zm1.453.172a3.616,3.616,0,0,0,.652,2.258,2.211,2.211,0,0,0,3.5-.012A3.955,3.955,0,0,0,94.4,32.7a3.61,3.61,0,0,0-.66-2.254,2.1,2.1,0,0,0-1.754-.863,2.075,2.075,0,0,0-1.727.852A3.925,3.925,0,0,0,89.605,32.867ZM99.23,37H97.785V25H99.23Zm7.531-.836a3.07,3.07,0,0,1-2.477.992,2.628,2.628,0,0,1-2.059-.785,3.4,3.4,0,0,1-.715-2.324v-5.5h1.445v5.461q0,1.922,1.563,1.922a2.163,2.163,0,0,0,2.2-1.234V28.547h1.445V37h-1.375Zm6.992-.187a2.082,2.082,0,0,0,1.352-.469,1.649,1.649,0,0,0,.641-1.172h1.367a2.621,2.621,0,0,1-.5,1.383,3.293,3.293,0,0,1-1.23,1.047,3.55,3.55,0,0,1-1.629.391A3.482,3.482,0,0,1,111.008,36a4.59,4.59,0,0,1-1.02-3.152v-.242a5.089,5.089,0,0,1,.453-2.2,3.451,3.451,0,0,1,1.3-1.492,3.7,3.7,0,0,1,2-.531,3.39,3.39,0,0,1,2.363.852,3.043,3.043,0,0,1,1,2.211h-1.367a1.992,1.992,0,0,0-.621-1.348,1.932,1.932,0,0,0-1.379-.527,2.023,2.023,0,0,0-1.707.793,3.724,3.724,0,0,0-.605,2.293v.273a3.65,3.65,0,0,0,.6,2.25A2.033,2.033,0,0,0,113.754,35.977ZM120.309,37h-1.445V28.547h1.445Zm-1.562-10.7a.863.863,0,0,1,.215-.594.807.807,0,0,1,.637-.242.819.819,0,0,1,.641.242.854.854,0,0,1,.219.594.826.826,0,0,1-.219.586.834.834,0,0,1-.641.234.821.821,0,0,1-.637-.234A.834.834,0,0,1,118.746,26.3Zm3.492,6.391a4.993,4.993,0,0,1,.488-2.234,3.643,3.643,0,0,1,1.359-1.531,3.7,3.7,0,0,1,1.988-.539,3.565,3.565,0,0,1,2.793,1.2,4.6,4.6,0,0,1,1.066,3.18v.1a5.036,5.036,0,0,1-.473,2.215,3.589,3.589,0,0,1-1.352,1.527,3.743,3.743,0,0,1-2.02.547,3.556,3.556,0,0,1-2.785-1.2,4.575,4.575,0,0,1-1.066-3.164Zm1.453.172a3.616,3.616,0,0,0,.652,2.258,2.211,2.211,0,0,0,3.5-.012,3.954,3.954,0,0,0,.648-2.418,3.61,3.61,0,0,0-.66-2.254,2.1,2.1,0,0,0-1.754-.863,2.075,2.075,0,0,0-1.727.852A3.925,3.925,0,0,0,123.691,32.867Zm3.039-7.852h1.75l-2.094,2.3-1.164,0Zm6.383,3.531.047,1.063a3.08,3.08,0,0,1,2.531-1.219q2.68,0,2.7,3.023V37h-1.445V31.406a1.946,1.946,0,0,0-.418-1.352,1.675,1.675,0,0,0-1.277-.437,2.086,2.086,0,0,0-1.234.375,2.546,2.546,0,0,0-.828.984V37h-1.445V28.547Zm7.492,7.7a.905.905,0,0,1,.223-.625.848.848,0,0,1,.668-.25.874.874,0,0,1,.676.25.887.887,0,0,1,.23.625.839.839,0,0,1-.23.6.89.89,0,0,1-.676.242.8.8,0,0,1-.891-.844Z" transform="translate(-7071.283 -6361.22)" fill="#777"/>
  </g>
</svg>
