<svg xmlns="http://www.w3.org/2000/svg" xmlns:xlink="http://www.w3.org/1999/xlink" width="200.528" height="183.642" viewBox="0 0 200.528 183.642">
  <defs>
    <clipPath id="clip-path">
      <rect id="Rectángulo_339759" data-name="Rectángulo 339759" width="196.483" height="183.641" fill="none"/>
    </clipPath>
    <clipPath id="clip-path-2">
      <rect id="Rectángulo_339748" data-name="Rectángulo 339748" width="196.483" height="193.115" fill="none"/>
    </clipPath>
    <filter id="Trazado_604409" x="135.401" y="41.204" width="59.573" height="59.574" filterUnits="userSpaceOnUse">
      <feOffset dy="3" input="SourceAlpha"/>
      <feGaussianBlur stdDeviation="3" result="blur"/>
      <feFlood flood-opacity="0.161"/>
      <feComposite operator="in" in2="blur"/>
      <feComposite in="SourceGraphic"/>
    </filter>
    <clipPath id="clip-path-5">
      <rect id="Rectángulo_339754" data-name="Rectángulo 339754" width="16.248" height="1.317" fill="none"/>
    </clipPath>
    <clipPath id="clip-path-7">
      <rect id="Rectángulo_339751" data-name="Rectángulo 339751" width="13.671" height="13.802" fill="none"/>
    </clipPath>
    <clipPath id="clip-path-8">
      <rect id="Rectángulo_339752" data-name="Rectángulo 339752" width="1.735" height="1.735" fill="none"/>
    </clipPath>
    <clipPath id="clip-path-9">
      <rect id="Rectángulo_339753" data-name="Rectángulo 339753" width="1.445" height="1.443" fill="none"/>
    </clipPath>
    <clipPath id="clip-path-10">
      <rect id="Rectángulo_339755" data-name="Rectángulo 339755" width="9.193" height="1.856" fill="none"/>
    </clipPath>
    <clipPath id="clip-path-11">
      <rect id="Rectángulo_339756" data-name="Rectángulo 339756" width="7.158" height="22.796" fill="none"/>
    </clipPath>
  </defs>
  <g id="Grupo_984997" data-name="Grupo 984997" transform="translate(3682.374 7580.086)">
    <g id="Grupo_984958" data-name="Grupo 984958" transform="translate(-3677.46 -7572)">
      <path id="Trazado_604161" data-name="Trazado 604161" d="M298.155,105.608c-.8,3.553-3.622,15.339-13.056,25.141,0,0-21.091,24.54-76.449,12.894-9.653-2.031-15.946-3.55-23.685-7.931-20.292-11.488-18.2-25.121-38.775-36.681-10.292-5.783-15.25-4.929-22.838-12.522-8-8-10.621-17.353-11.653-21.2-1.235-4.607-4.38-18.938,2.59-33.827a49.532,49.532,0,0,1,8.416-12.3,52.582,52.582,0,0,1,6.793-6.166q1.833-1.394,3.725-2.6a59.842,59.842,0,0,1,8.49-4.483q.515-.223,1.03-.434A77.141,77.141,0,0,1,174.337.08a73.206,73.206,0,0,1,30.914,9.387c6.743,3.864,8.559,8.487,20.617,17.8a131.839,131.839,0,0,0,13.8,9.713c17.048,10.12,23.4,6.177,36.255,14.243,3.353,2.1,14.227,9.132,20.07,22.875,5.943,13.979,3.227,26.787,2.158,31.507" transform="translate(-104.095 14.131)" fill="#e1e8ff"/>
      <path id="Trazado_604162" data-name="Trazado 604162" d="M49.587,2008c3.029,4.095,3.267,5.639,6.636,9.064,6.036,6.135,11.8,7.8,11.815,11.815.01,2.233-1.766,3.908-2.428,4.532-1.148,1.082-5.951,5.052-25.573-.324-12.038-3.3-21.521-5.9-30.36-14.424-3.911-3.773-9.942-9.747-9.668-17.813a13.678,13.678,0,0,1,2.912-8.5c5.776-6.984,18.472-4.08,20.582-3.606,14.193,3.187,23.387,15.615,26.083,19.259" transform="translate(-0.001 -1868.365)" fill="#e1e8ff"/>
      <path id="Trazado_604163" data-name="Trazado 604163" d="M2190.554,75.093c14.071,13.639,15.267,14.534,17.187,15.8a46.763,46.763,0,0,0,10.231,5.444c4.683,1.632,9.27,3.23,12.735,1.106,3.658-2.242,5.058-7.882,4.208-12.238-1.572-8.062-10.854-11.809-24.292-17.232-6.918-2.792-13.089-4.33-18.559-2.158-1.066.423-4.128,1.639-4.532,3.938-.355,2.02,1.517,3.883,3.021,5.341" transform="translate(-2071.673 -47.225)" fill="#f0f4ff"/>
      <path id="Trazado_604165" data-name="Trazado 604165" d="M484.245,929.352c3.758,1.17,4.707,2.119,5.877,5.877,1.17-3.758,2.119-4.707,5.877-5.877-3.758-1.17-4.707-2.119-5.877-5.877-1.17,3.758-2.119,4.707-5.877,5.877" transform="translate(-458.607 -860.45)" fill="#fff"/>
      <path id="Trazado_604166" data-name="Trazado 604166" d="M189.661,1327.676c2.1.655,2.633,1.185,3.288,3.288.655-2.1,1.186-2.634,3.288-3.288-2.1-.655-2.633-1.186-3.288-3.288-.655,2.1-1.185,2.633-3.288,3.288" transform="translate(-171.619 -1240.137)" fill="#3c3fa7"/>
      <path id="Trazado_604226" data-name="Trazado 604226" d="M189.661,1327.676c2.1.655,2.633,1.185,3.288,3.288.655-2.1,1.186-2.634,3.288-3.288-2.1-.655-2.633-1.186-3.288-3.288-.655,2.1-1.185,2.633-3.288,3.288" transform="translate(-75.619 -1202.137)" fill="#3c3fa7"/>
      <path id="Trazado_604227" data-name="Trazado 604227" d="M189.661,1327.676c2.1.655,2.633,1.185,3.288,3.288.655-2.1,1.186-2.634,3.288-3.288-2.1-.655-2.633-1.186-3.288-3.288-.655,2.1-1.185,2.633-3.288,3.288" transform="translate(-7.619 -1227.561)" fill="#3c3fa7"/>
      <path id="Trazado_604167" data-name="Trazado 604167" d="M3064.013,1058.5c2.1.655,2.634,1.186,3.288,3.288.655-2.1,1.186-2.633,3.289-3.288-2.1-.655-2.634-1.186-3.289-3.288-.655,2.1-1.185,2.633-3.288,3.288" transform="translate(-2901.79 -985.215)" fill="#fff"/>
      <path id="Trazado_604229" data-name="Trazado 604229" d="M3064.013,1058.5c2.1.655,2.634,1.186,3.288,3.288.655-2.1,1.186-2.633,3.289-3.288-2.1-.655-2.634-1.186-3.289-3.288-.655,2.1-1.185,2.633-3.288,3.288" transform="translate(-3015.79 -1055.215)" fill="#fff"/>
      <path id="Trazado_604230" data-name="Trazado 604230" d="M3064.013,1058.646c2.195.683,2.748,1.237,3.431,3.431.683-2.194,1.237-2.747,3.431-3.431-2.194-.683-2.748-1.237-3.431-3.431-.683,2.193-1.237,2.747-3.431,3.431" transform="translate(-2905.221 -1041.084)" fill="#fff"/>
      <path id="Trazado_604228" data-name="Trazado 604228" d="M3064.014,1060.685c3.5,1.09,4.381,1.972,5.47,5.469,1.089-3.5,1.972-4.38,5.471-5.469-3.5-1.089-4.381-1.972-5.471-5.47-1.089,3.5-1.971,4.381-5.47,5.47" transform="translate(-2972.972 -913.34)" fill="#fff"/>
    </g>
    <g id="Grupo_984965" data-name="Grupo 984965" transform="translate(-3682.374 -7589.086)">
      <g id="Grupo_984993" data-name="Grupo 984993" transform="translate(0 9)" clip-path="url(#clip-path)">
        <g id="Grupo_984966" data-name="Grupo 984966" transform="translate(0 -9.474)">
          <g id="Grupo_984965-2" data-name="Grupo 984965" clip-path="url(#clip-path-2)">
            <path id="Trazado_604388" data-name="Trazado 604388" d="M321.757,201.344a4.885,4.885,0,0,1,1.189-.517l.245-1.176,1.988-.035.286,1.167a4.871,4.871,0,0,1,1.206.474l1-.658,1.43,1.381-.623,1.027A4.879,4.879,0,0,1,329,204.2l1.176.244.035,1.988-1.167.286a4.863,4.863,0,0,1-.475,1.206l.658,1-1.381,1.431-1.027-.623a4.874,4.874,0,0,1-1.189.516l-.245,1.177-1.988.035-.286-1.167a4.863,4.863,0,0,1-1.206-.474l-1,.659L319.47,209.1l.623-1.027a4.868,4.868,0,0,1-.517-1.189l-1.176-.245-.035-1.988,1.167-.286a4.872,4.872,0,0,1,.474-1.206l-.659-1,1.381-1.43Zm1.06,2.648a2.133,2.133,0,1,0,3.016-.053,2.133,2.133,0,0,0-3.016.053" transform="translate(-182.766 -114.595)" fill="#6b8dfc"/>
            <path id="Trazado_604389" data-name="Trazado 604389" d="M327.959,208.961a1.614,1.614,0,0,1,.4-.348,2.123,2.123,0,0,1,1.392-.329,2.152,2.152,0,0,1,.946.336,2.183,2.183,0,0,1,.765.862,2.185,2.185,0,0,1,.206,1.255,2.175,2.175,0,0,1-1.8,1.865,2.186,2.186,0,0,1-1.262-.162,2.182,2.182,0,0,1-.888-.734,2.15,2.15,0,0,1-.369-.934,2.124,2.124,0,0,1,.28-1.4,1.613,1.613,0,0,1,.334-.409c.012.01-.129.14-.293.433a2.129,2.129,0,0,0-.236,1.366,2.085,2.085,0,0,0,1.218,1.578,2.08,2.08,0,0,0,1.2.147,2.066,2.066,0,0,0,1.7-1.763,2.08,2.08,0,0,0-.188-1.19,2.084,2.084,0,0,0-1.619-1.161,2.125,2.125,0,0,0-1.357.284c-.287.174-.412.319-.422.308" transform="translate(-187.908 -119.564)" fill="#f5f5f5"/>
            <path id="Trazado_604390" data-name="Trazado 604390" d="M321.7,201.294a.406.406,0,0,1-.066-.035l-.2-.114-.774-.457.024,0-1.373,1.438,0-.039.662,1,.012.017-.01.019a4.841,4.841,0,0,0-.467,1.2l-.006.024-.024.006-1.166.289.033-.043c.012.626.026,1.291.039,1.988l-.038-.047,1.177.243.03.006.009.03a4.827,4.827,0,0,0,.513,1.175l.016.027-.016.028-.621,1.027-.009-.067,1.432,1.379-.071-.006,1-.659.029-.019.031.017a4.848,4.848,0,0,0,1.192.468l.035.008.009.035c.09.365.188.765.287,1.167l-.059-.046,1.988-.036-.058.049c.078-.372.161-.773.245-1.177l.007-.037.036-.009a4.814,4.814,0,0,0,1.173-.51h0l.032-.019.031.019,1.027.622-.075.01,1.381-1.43-.007.075-.658-1.005-.02-.03.018-.032a4.817,4.817,0,0,0,.469-1.191l.008-.035.035-.009,1.167-.285-.044.058q-.017-1.018-.033-1.988l.045.054-1.176-.247-.033-.006-.009-.032a4.807,4.807,0,0,0-.509-1.177l-.017-.027.017-.028L329,201.9l.008.063-1.427-1.384.058.006-1.006.656-.023.014-.023-.012a4.846,4.846,0,0,0-1.194-.474l-.024-.006-.006-.023-.282-1.168.036.028-1.988.026.026-.021-.253,1.174,0,.012-.011,0a5.05,5.05,0,0,0-.909.35l-.214.112a.445.445,0,0,1-.071.036.557.557,0,0,1,.066-.045c.045-.028.114-.07.21-.121a4.641,4.641,0,0,1,.907-.37l-.014.015.237-1.179,0-.021h.022l1.988-.043h.029l.007.029c.089.361.184.742.29,1.166l-.029-.029a4.927,4.927,0,0,1,1.218.475l-.045,0,1-.661.031-.02.027.026,1.433,1.378.029.029-.021.035-.621,1.028v-.055a4.946,4.946,0,0,1,.524,1.2l-.042-.039,1.177.244.044.009v.045q.018.969.037,1.987v.047l-.045.011-1.167.287.043-.043a4.944,4.944,0,0,1-.48,1.221l0-.062.659,1,.026.041-.034.035-1.38,1.43-.034.036-.042-.026-1.027-.623h.062a4.91,4.91,0,0,1-1.2.522l.043-.046c-.084.4-.168.8-.245,1.177l-.01.047h-.049l-1.988.034h-.048l-.011-.046L323,210.259l.043.043a4.924,4.924,0,0,1-1.22-.481l.06,0-1.006.658-.038.025-.033-.032-1.429-1.383-.032-.03.023-.037.624-1.026v.054a4.914,4.914,0,0,1-.52-1.2l.038.036-1.176-.247-.037-.008v-.038c-.011-.7-.02-1.362-.03-1.988v-.035l.034-.008,1.168-.283-.029.029a4.922,4.922,0,0,1,.482-1.214l0,.037-.655-1.008-.014-.02.017-.017,1.389-1.423.011-.012.013.009.756.47.195.124a.526.526,0,0,1,.066.045" transform="translate(-182.707 -114.545)" fill="#f5f5f5"/>
            <path id="Trazado_604391" data-name="Trazado 604391" d="M357.09,29.31a6.251,6.251,0,0,1,1.53-.665l.315-1.515,2.559-.045.368,1.5a6.274,6.274,0,0,1,1.553.611l1.293-.848,1.841,1.778-.8,1.322a6.271,6.271,0,0,1,.665,1.531l1.515.315.045,2.559-1.5.368a6.272,6.272,0,0,1-.611,1.553l.848,1.294-1.778,1.842-1.322-.8a6.288,6.288,0,0,1-1.531.665l-.315,1.515-2.559.045-.368-1.5a6.274,6.274,0,0,1-1.553-.611l-1.294.848-1.842-1.778.8-1.322a6.262,6.262,0,0,1-.665-1.531l-1.515-.315-.045-2.559,1.5-.368a6.292,6.292,0,0,1,.611-1.553l-.848-1.294,1.778-1.842Zm1.364,3.41a2.746,2.746,0,1,0,3.883-.068,2.746,2.746,0,0,0-3.883.068" transform="translate(-202.49 -15.549)" fill="#fc5f65"/>
            <path id="Trazado_604392" data-name="Trazado 604392" d="M365.074,39.117a2.074,2.074,0,0,1,.511-.448,2.734,2.734,0,0,1,1.792-.424,2.764,2.764,0,0,1,1.217.433,2.808,2.808,0,0,1,.985,1.109,2.822,2.822,0,0,1,.265,1.616,2.8,2.8,0,0,1-2.318,2.4A2.812,2.812,0,0,1,365.9,43.6a2.814,2.814,0,0,1-1.144-.945,2.767,2.767,0,0,1-.475-1.2,2.733,2.733,0,0,1,.36-1.805,2.082,2.082,0,0,1,.431-.527c.015.013-.166.18-.377.557a2.741,2.741,0,0,0-.3,1.758,2.684,2.684,0,0,0,1.568,2.031,2.679,2.679,0,0,0,1.54.189,2.661,2.661,0,0,0,2.191-2.27,2.686,2.686,0,0,0-.243-1.532,2.682,2.682,0,0,0-2.085-1.495,2.738,2.738,0,0,0-1.746.365c-.369.224-.53.411-.543.4" transform="translate(-209.11 -21.946)" fill="#f5f5f5"/>
            <path id="Trazado_604393" data-name="Trazado 604393" d="M357.013,29.246a.577.577,0,0,1-.085-.045l-.254-.147-1-.589.031,0-1.767,1.852,0-.049.853,1.29.015.023-.014.025a6.262,6.262,0,0,0-.6,1.543l-.007.03-.031.008-1.5.373.043-.055c.016.806.033,1.661.051,2.559L352.7,36l1.515.313.039.008.011.038a6.258,6.258,0,0,0,.661,1.513l.021.035-.021.035-.8,1.324-.011-.087,1.844,1.776-.091-.009,1.293-.849.038-.025.04.022a6.247,6.247,0,0,0,1.535.6l.045.011.011.045.369,1.5-.076-.059,2.559-.046-.075.062.315-1.515.009-.046.046-.013a6.2,6.2,0,0,0,1.51-.656h0l.041-.024.04.024,1.322.8-.1.013,1.778-1.841-.009.1-.847-1.294-.026-.039.023-.041a6.2,6.2,0,0,0,.6-1.533l.011-.045.045-.011,1.5-.367-.057.074q-.022-1.31-.043-2.559l.058.069-1.515-.317-.042-.009-.012-.041a6.231,6.231,0,0,0-.655-1.515l-.021-.035.021-.035.8-1.321.011.081-1.838-1.782.075.007-1.3.845-.029.019-.03-.017a6.254,6.254,0,0,0-1.538-.61l-.03-.008-.008-.03c-.132-.546-.251-1.039-.363-1.5l.046.035-2.559.034.034-.028-.325,1.513,0,.015-.015,0a6.463,6.463,0,0,0-1.17.45l-.275.144a.61.61,0,0,1-.092.047.772.772,0,0,1,.085-.058c.059-.036.147-.09.27-.155a6.058,6.058,0,0,1,1.168-.476l-.018.019.305-1.517.006-.027h.029l2.559-.056h.037l.009.036.373,1.5-.037-.037a6.315,6.315,0,0,1,1.568.612l-.058,0,1.291-.851.04-.026.035.034,1.845,1.774.037.036-.027.045-.8,1.323v-.07a6.337,6.337,0,0,1,.674,1.547l-.053-.05,1.515.313.057.012v.058q.023,1.248.047,2.559v.06l-.058.014-1.5.37.056-.056a6.354,6.354,0,0,1-.618,1.572l0-.08.848,1.293.034.052-.043.045L364.911,40.9l-.044.045-.054-.032-1.323-.8h.08a6.359,6.359,0,0,1-1.548.673l.055-.06c-.109.52-.216,1.037-.316,1.515l-.013.061h-.063l-2.559.044h-.062l-.014-.06-.367-1.5.055.056a6.347,6.347,0,0,1-1.571-.62l.077,0-1.294.847-.049.032-.042-.04-1.84-1.78-.04-.039.029-.048.8-1.321v.07a6.336,6.336,0,0,1-.67-1.548l.049.046-1.514-.318-.048-.01v-.049c-.014-.9-.026-1.754-.039-2.559v-.045l.043-.011,1.5-.364-.038.038a6.343,6.343,0,0,1,.621-1.563l0,.048-.842-1.3-.017-.027.022-.023,1.788-1.831.014-.015.017.011.974.606.25.159a.757.757,0,0,1,.085.058" transform="translate(-202.414 -15.485)" fill="#f5f5f5"/>
            <path id="Trazado_604394" data-name="Trazado 604394" d="M260.309,56.614A4.884,4.884,0,0,1,261.5,56.1l.245-1.176,1.988-.035.286,1.167a4.872,4.872,0,0,1,1.206.474l1-.658,1.43,1.381-.623,1.027a4.878,4.878,0,0,1,.517,1.189l1.176.244.035,1.988-1.167.286a4.872,4.872,0,0,1-.475,1.206l.658,1-1.381,1.43L265.372,65a4.887,4.887,0,0,1-1.189.517l-.244,1.176-1.988.035-.286-1.167a4.863,4.863,0,0,1-1.206-.474l-1,.659-1.431-1.381.623-1.027a4.887,4.887,0,0,1-.517-1.189l-1.176-.245-.035-1.988,1.167-.286a4.872,4.872,0,0,1,.474-1.206l-.658-1,1.381-1.43Zm1.06,2.648a2.133,2.133,0,1,0,3.016-.053,2.133,2.133,0,0,0-3.016.053" transform="translate(-147.49 -31.509)" fill="#6b8dfc"/>
            <path id="Trazado_604395" data-name="Trazado 604395" d="M266.511,64.231a1.614,1.614,0,0,1,.4-.348,2.122,2.122,0,0,1,1.392-.329,2.152,2.152,0,0,1,.946.336,2.184,2.184,0,0,1,.765.862,2.184,2.184,0,0,1,.206,1.256,2.175,2.175,0,0,1-1.8,1.865,2.051,2.051,0,0,1-.657.012,2.075,2.075,0,0,1-.605-.173,2.186,2.186,0,0,1-.888-.734,2.144,2.144,0,0,1-.369-.934,2.122,2.122,0,0,1,.28-1.4,1.611,1.611,0,0,1,.334-.409c.012.01-.129.14-.293.433a2.129,2.129,0,0,0-.236,1.366,2.085,2.085,0,0,0,1.218,1.578,2.081,2.081,0,0,0,1.2.147,2.067,2.067,0,0,0,1.7-1.763,2.09,2.09,0,0,0-.188-1.19,2.085,2.085,0,0,0-1.619-1.161,2.125,2.125,0,0,0-1.357.284c-.287.174-.412.319-.422.308" transform="translate(-152.633 -36.477)" fill="#f5f5f5"/>
            <path id="Trazado_604396" data-name="Trazado 604396" d="M260.25,56.564a.453.453,0,0,1-.066-.034l-.2-.114-.774-.457.024,0-1.373,1.439,0-.039.662,1,.012.018-.01.02a4.841,4.841,0,0,0-.467,1.2l-.006.024-.024.006-1.166.29.033-.043c.012.626.026,1.29.039,1.987l-.038-.046,1.177.243.03.007.009.029a4.828,4.828,0,0,0,.513,1.175l.016.027-.016.028-.621,1.028L258,64.278l1.432,1.379-.071-.006,1-.66.029-.019.031.017a4.814,4.814,0,0,0,1.192.468l.034.008.009.035.287,1.167-.059-.046,1.988-.035-.058.048c.077-.371.161-.773.245-1.177l.007-.036.036-.01a4.813,4.813,0,0,0,1.173-.509h0l.032-.019.031.019,1.027.623-.075.01,1.381-1.43-.007.075-.658-1-.02-.031.018-.032a4.818,4.818,0,0,0,.469-1.191l.009-.035.035-.009,1.167-.285-.044.058q-.017-1.017-.033-1.988l.045.054-1.176-.246-.033-.007-.009-.032a4.8,4.8,0,0,0-.509-1.177l-.017-.027.017-.028.624-1.026.008.063-1.427-1.384.058.006-1.006.656-.023.015-.023-.013a4.828,4.828,0,0,0-1.194-.474l-.024-.006-.006-.023-.282-1.169.036.028-1.988.026.026-.022-.253,1.175,0,.011-.011,0a5.092,5.092,0,0,0-.909.35l-.214.112a.387.387,0,0,1-.071.036.676.676,0,0,1,.066-.045c.045-.028.114-.07.21-.12a4.663,4.663,0,0,1,.907-.37l-.014.015c.065-.322.142-.707.237-1.178l0-.022h.022l1.988-.044h.029l.007.029c.089.36.184.742.29,1.166l-.029-.029a4.9,4.9,0,0,1,1.218.475l-.045,0,1-.661.031-.02.027.026,1.433,1.378.029.028-.021.035-.621,1.028V58.2a4.957,4.957,0,0,1,.524,1.2l-.042-.039,1.177.244.044.009v.045q.018.97.037,1.988v.046l-.045.012-1.167.287.043-.043a4.934,4.934,0,0,1-.48,1.221l0-.062.659,1,.026.04-.034.035-1.38,1.43-.034.035-.042-.026-1.027-.623h.062a4.946,4.946,0,0,1-1.2.522l.043-.046c-.084.4-.168.8-.245,1.177l-.01.048h-.049l-1.988.035h-.048l-.011-.046-.285-1.167.043.043a4.924,4.924,0,0,1-1.22-.481l.06,0-1.006.658-.038.025-.033-.032-1.429-1.383-.032-.031.023-.037.624-1.026v.054a4.92,4.92,0,0,1-.52-1.2l.038.035-1.176-.247-.038-.008v-.038c-.011-.7-.02-1.362-.03-1.988v-.035l.034-.008,1.168-.283-.029.029a4.906,4.906,0,0,1,.482-1.214l0,.037-.655-1.008-.014-.02.017-.018,1.389-1.423.011-.011.013.009.756.47.195.124a.629.629,0,0,1,.066.045" transform="translate(-147.431 -31.459)" fill="#f5f5f5"/>
            <path id="Trazado_604397" data-name="Trazado 604397" d="M310.379,61.573a10.392,10.392,0,0,1,2.731.42l1.779-1.843,3.623,2.2-.811,2.429A10.363,10.363,0,0,1,319.336,67l2.56-.045,1.009,4.116-2.291,1.144a10.371,10.371,0,0,1-.42,2.731l1.843,1.779-2.2,3.624-2.429-.811a10.4,10.4,0,0,1-2.227,1.635l.045,2.56-4.116,1.009-1.144-2.291a10.375,10.375,0,0,1-2.731-.42l-1.78,1.843-3.623-2.2.811-2.43a10.375,10.375,0,0,1-1.635-2.227l-2.56.045-1.009-4.116,2.291-1.143a10.376,10.376,0,0,1,.42-2.731L298.31,67.3l2.2-3.623,2.43.811a10.376,10.376,0,0,1,2.227-1.635l-.045-2.56,4.116-1.009Zm-1.1,5.979a4.546,4.546,0,1,0,5.5,3.333,4.545,4.545,0,0,0-5.5-3.333" transform="translate(-170.755 -34.032)" fill="#8284d2"/>
            <path id="Trazado_604398" data-name="Trazado 604398" d="M320.421,78.459a3.431,3.431,0,0,1,1.112-.177,4.525,4.525,0,0,1,2.883.989,4.581,4.581,0,0,1,1.323,1.681,4.651,4.651,0,0,1,.4,2.423,4.663,4.663,0,0,1-1.056,2.5,4.639,4.639,0,0,1-5.366,1.315,4.663,4.663,0,0,1-2.091-1.727,4.657,4.657,0,0,1-.766-2.333,4.584,4.584,0,0,1,.4-2.1,4.528,4.528,0,0,1,2.1-2.209,3.43,3.43,0,0,1,1.068-.357c.01.031-.391.106-1.021.447a4.536,4.536,0,0,0-1.978,2.193,4.443,4.443,0,0,0,.4,4.229,4.44,4.44,0,0,0,1.989,1.624,4.4,4.4,0,0,0,5.073-1.243A4.451,4.451,0,0,0,325.9,83.35a4.444,4.444,0,0,0-1.6-3.935,4.532,4.532,0,0,0-2.768-1.031c-.716-.011-1.106.107-1.112.075" transform="translate(-181.897 -44.939)" fill="#e0e0e0"/>
            <path id="Trazado_604399" data-name="Trazado 604399" d="M310.2,61.508a1.04,1.04,0,0,1-.08-.138l-.226-.429-.876-1.7.047.022-4.11,1.032.05-.065c.017.776.035,1.638.055,2.56v.046l-.041.023a10.378,10.378,0,0,0-2.2,1.629l-.037.036-.049-.017-2.432-.8.109-.04-2.189,3.628-.017-.127,1.846,1.776.047.045-.019.063a10.342,10.342,0,0,0-.411,2.7v.068l-.061.031-2.289,1.147.061-.132c.318,1.293.662,2.686,1.014,4.115l-.12-.092,2.56-.047h.075l.036.066a10.336,10.336,0,0,0,1.617,2.2l.053.055-.024.072-.81,2.43-.055-.149,3.624,2.2-.16.021,1.779-1.843.055-.057.075.023a10.293,10.293,0,0,0,2.694.415h0l.079,0,.035.07,1.144,2.291-.147-.068,4.116-1.008-.1.128q-.022-1.293-.043-2.56v-.078l.068-.037a10.267,10.267,0,0,0,2.2-1.614l.055-.053.072.024,2.429.813-.146.053,2.2-3.621.019.148-1.84-1.781-.051-.049.02-.068a10.309,10.309,0,0,0,.42-2.7v-.068l.061-.031,2.292-1.139-.057.123-1-4.118.1.076-2.56.038H319.1l-.027-.049a10.336,10.336,0,0,0-1.615-2.212l-.036-.038.016-.049.819-2.427.033.09-3.614-2.214.072-.009-1.791,1.831-.018.018-.024-.007a10.726,10.726,0,0,0-2.036-.4l-.512-.042a1.034,1.034,0,0,1-.17-.016,1.381,1.381,0,0,1,.171-.006c.114,0,.285,0,.515.02a10.062,10.062,0,0,1,2.056.365l-.042.011,1.767-1.854.032-.034.04.024,3.633,2.182.053.032-.02.059-.8,2.432-.02-.086a10.472,10.472,0,0,1,1.655,2.241l-.083-.049,2.56-.051h.08l.019.078,1.017,4.114.021.084-.078.039-2.288,1.147.062-.1a10.516,10.516,0,0,1-.421,2.762l-.031-.117,1.845,1.777.069.066-.05.082-2.194,3.625-.052.085-.094-.031-2.43-.809.127-.029a10.509,10.509,0,0,1-2.253,1.656l.066-.114q.023,1.267.046,2.56l0,.1-.1.025-4.116,1.01-.1.025-.046-.093-1.144-2.29.114.072h0a10.523,10.523,0,0,1-2.762-.426l.13-.034L305.369,83.9l-.072.075-.089-.054-3.622-2.2-.087-.053.032-.1.813-2.429.029.127a10.541,10.541,0,0,1-1.653-2.255l.111.064-2.56.042-.1,0-.023-.094-1-4.117-.022-.09.083-.041,2.292-1.14-.062.1a10.516,10.516,0,0,1,.429-2.759l.029.107-1.84-1.782L298,67.25l.043-.07,2.205-3.618.039-.063.07.023,2.427.818-.086.02a10.474,10.474,0,0,1,2.249-1.64l-.04.068c-.012-.922-.024-1.784-.034-2.56v-.053l.051-.012,4.122-.985.033-.008.014.03.829,1.709.21.444a1.2,1.2,0,0,1,.068.156" transform="translate(-170.573 -33.968)" fill="#e0e0e0"/>
            <path id="Trazado_604400" data-name="Trazado 604400" d="M350.866,253.939a3.485,3.485,0,0,1,1.122-.178,4.566,4.566,0,0,1,2.909,1,4.616,4.616,0,0,1,1.335,1.7,4.7,4.7,0,0,1,.4,2.446,4.7,4.7,0,0,1-1.066,2.52,4.682,4.682,0,0,1-5.416,1.328,4.7,4.7,0,0,1-2.11-1.742,4.7,4.7,0,0,1-.774-2.355,4.626,4.626,0,0,1,.4-2.122,4.566,4.566,0,0,1,2.119-2.23,3.464,3.464,0,0,1,1.078-.361c.01.031-.395.107-1.03.451a4.578,4.578,0,0,0-2,2.214,4.484,4.484,0,0,0,.405,4.268,4.485,4.485,0,0,0,2.008,1.639,4.447,4.447,0,0,0,5.12-1.255,4.478,4.478,0,0,0,1.022-2.381,4.483,4.483,0,0,0-1.614-3.972,4.572,4.572,0,0,0-2.793-1.04c-.722-.012-1.116.108-1.122.076" transform="translate(-199.356 -145.677)" fill="#ebebeb"/>
            <path id="Trazado_604401" data-name="Trazado 604401" d="M340.548,236.831a1.033,1.033,0,0,1-.081-.14l-.228-.433-.884-1.72.048.022-4.148,1.042.051-.066c.017.783.036,1.653.056,2.584v.046l-.041.023a10.473,10.473,0,0,0-2.224,1.644l-.037.036-.05-.017-2.455-.811.11-.04-2.209,3.662-.017-.128,1.863,1.792.047.046-.018.063a10.431,10.431,0,0,0-.415,2.728v.069l-.062.031-2.31,1.157.062-.133,1.023,4.153-.121-.093,2.584-.048h.075l.036.066a10.412,10.412,0,0,0,1.632,2.219l.053.055-.024.073-.817,2.453-.055-.151,3.658,2.216-.162.021,1.8-1.86.055-.058.076.023a10.385,10.385,0,0,0,2.719.419h0l.08,0,.035.071,1.154,2.312-.149-.069,4.154-1.017-.1.129q-.022-1.3-.044-2.584v-.078l.069-.037a10.369,10.369,0,0,0,2.221-1.628l.056-.054.073.025,2.452.82-.147.054,2.221-3.655.02.15-1.857-1.8-.052-.05.02-.068a10.409,10.409,0,0,0,.423-2.725l0-.069.061-.031,2.314-1.15-.058.124c-.355-1.462-.69-2.842-1.009-4.156l.1.077-2.584.039h-.057l-.027-.05a10.425,10.425,0,0,0-1.63-2.233l-.036-.038.017-.049.827-2.449.034.091-3.647-2.234.073-.01-1.808,1.849-.018.018-.024-.007a10.848,10.848,0,0,0-2.055-.407l-.518-.042a1.053,1.053,0,0,1-.171-.016,1.4,1.4,0,0,1,.172-.006c.115,0,.288,0,.52.02a10.16,10.16,0,0,1,2.076.369l-.042.011,1.784-1.872.032-.034.04.025,3.667,2.2.053.032-.02.059-.811,2.455L348,240a10.561,10.561,0,0,1,1.67,2.262l-.084-.049,2.584-.052h.08l.02.078L353.3,246.4l.021.085-.078.039-2.309,1.158.063-.1a10.586,10.586,0,0,1-.425,2.787l-.031-.118,1.862,1.793.07.067-.05.083L350.2,255.85l-.052.086-.1-.032-2.452-.817.129-.029a10.6,10.6,0,0,1-2.274,1.672l.067-.115q.023,1.279.046,2.584l0,.1-.1.025-4.154,1.019-.1.025-.047-.094-1.155-2.311.115.073h0a10.624,10.624,0,0,1-2.788-.43l.131-.035-1.8,1.86-.073.075-.089-.055-3.656-2.219-.088-.054.032-.1.82-2.452.029.129a10.624,10.624,0,0,1-1.668-2.276l.112.065-2.584.043-.1,0-.023-.1-1.013-4.156-.022-.091.084-.041,2.313-1.151-.063.1a10.615,10.615,0,0,1,.433-2.785l.029.109-1.856-1.8-.06-.058.043-.07L330.5,238.9l.039-.064.071.024,2.45.826-.087.02a10.578,10.578,0,0,1,2.27-1.656l-.04.069c-.012-.931-.024-1.8-.035-2.584v-.054l.052-.012,4.16-.994.033-.008.014.03.837,1.725.212.448a1.208,1.208,0,0,1,.068.158" transform="translate(-187.927 -134.604)" fill="#ebebeb"/>
          </g>
        </g>
        <g id="Grupo_984968" data-name="Grupo 984968" transform="translate(0 -9.474)">
          <g id="Grupo_984967" data-name="Grupo 984967" clip-path="url(#clip-path-2)">
            <path id="Trazado_604402" data-name="Trazado 604402" d="M196.483,452.8c0,.061-43.988.111-98.237.111C43.978,452.914,0,452.865,0,452.8s43.978-.111,98.246-.111c54.249,0,98.237.049,98.237.111" transform="translate(0 -259.881)" fill="#263238"/>
          </g>
        </g>
        <g id="Grupo_984970" data-name="Grupo 984970" transform="translate(0 -9.474)">
          <g id="Grupo_984969" data-name="Grupo 984969" clip-path="url(#clip-path-2)">
            <path id="Trazado_604403" data-name="Trazado 604403" d="M176.316,94.9a26.306,26.306,0,0,1,6.429-2.768l1.344-6.349,10.735-.151,1.523,6.308a26.284,26.284,0,0,1,6.5,2.585l5.438-3.537,7.7,7.484L212.605,104a26.271,26.271,0,0,1,2.767,6.43l6.349,1.344.152,10.735-6.308,1.523a26.3,26.3,0,0,1-2.585,6.5l3.537,5.438-7.484,7.7-5.535-3.382a26.3,26.3,0,0,1-6.43,2.767l-1.344,6.349-10.735.151-1.523-6.308a26.314,26.314,0,0,1-6.5-2.585l-5.437,3.537-7.7-7.484,3.382-5.534a26.294,26.294,0,0,1-2.767-6.43l-6.349-1.344-.151-10.735,6.309-1.524a26.294,26.294,0,0,1,2.585-6.5L163.3,99.213l7.483-7.7Z" transform="translate(-90.67 -49.158)" fill="#fc5f65" fill-rule="evenodd"/>
            <path id="Trazado_604404" data-name="Trazado 604404" d="M214.321,154.679a1.077,1.077,0,0,1,.129-.006l.367-.007,1.41-.016,5.267-.037-.066.067c-.021-.907-.046-1.923-.071-3.013v-.05l.048-.022a16.294,16.294,0,0,0,4.507-3.082,11.407,11.407,0,0,0,1.889-2.422,8.286,8.286,0,0,0,1.04-3.079,10.233,10.233,0,0,0-1.612-6.745,12.26,12.26,0,0,0-5.876-4.686,10.11,10.11,0,0,0-5.64-.391,11.079,11.079,0,0,0-4.9,2.264,10.005,10.005,0,0,0-2.958,4.085c-.131.388-.3.759-.395,1.147s-.188.774-.28,1.154a12.257,12.257,0,0,0-.2,2.275,10.5,10.5,0,0,0,.27,2.142,9.869,9.869,0,0,0,.691,1.908,10.952,10.952,0,0,0,2.124,2.943,14.563,14.563,0,0,0,4.393,3l.027.012,0,.027q-.073,1.23-.112,1.878c-.014.206-.024.365-.032.483a1.593,1.593,0,0,1-.015.168,1.123,1.123,0,0,1,0-.154c0-.115.008-.272.013-.475q.024-.657.068-1.9l.025.039a14.383,14.383,0,0,1-4.461-2.98,11.028,11.028,0,0,1-2.171-2.969,9.964,9.964,0,0,1-.713-1.938,10.643,10.643,0,0,1-.285-2.179,12.417,12.417,0,0,1,.2-2.314q.139-.579.28-1.173c.1-.4.266-.774.4-1.168a10.185,10.185,0,0,1,3.008-4.175,11.266,11.266,0,0,1,4.991-2.315,10.31,10.31,0,0,1,5.76.4,12.455,12.455,0,0,1,5.98,4.775,10.126,10.126,0,0,1,1.435,3.382,6.22,6.22,0,0,1,.16.883,5.733,5.733,0,0,1,.089.882c.008.294.024.587.026.877q-.04.435-.078.865a8.472,8.472,0,0,1-1.074,3.149,11.547,11.547,0,0,1-1.93,2.456,16.338,16.338,0,0,1-4.575,3.093l.047-.072c.018,1.09.035,2.106.049,3.013v.067h-.066l-5.306-.037-1.4-.016-.355-.007a.733.733,0,0,1-.116-.006" transform="translate(-118.716 -75.055)" fill="#fff"/>
            <path id="Trazado_604405" data-name="Trazado 604405" d="M231.615,191.477a61.111,61.111,0,0,1-7.369,0,61.355,61.355,0,0,1,7.369,0" transform="translate(-128.734 -109.86)" fill="#fff"/>
            <path id="Trazado_604406" data-name="Trazado 604406" d="M232.445,198.016a4.458,4.458,0,0,1-2.6-.081,30.28,30.28,0,0,1,2.6.081" transform="translate(-131.95 -113.613)" fill="#fff"/>
            <path id="Trazado_604407" data-name="Trazado 604407" d="M226.157,168.639a.5.5,0,0,1-.008-.122v-.357c0-.33.012-.788.021-1.371.028-1.207.069-2.924.118-5.039.029-1.065.059-2.23.092-3.479a2.346,2.346,0,0,0-.123-.9.592.592,0,0,0-.649-.432.86.86,0,0,0-.572.645,1.323,1.323,0,0,0,.119.938,2.138,2.138,0,0,0,1.646,1.1,2.183,2.183,0,0,0,1.915-.768,3.266,3.266,0,0,0,.806-2.06,1.95,1.95,0,0,0-.225-1.09.8.8,0,0,0-.9-.386.813.813,0,0,0-.431.885,2.2,2.2,0,0,0,.512,1,4.084,4.084,0,0,0,1.775,1.372,2.3,2.3,0,0,0,1.068.127,2.158,2.158,0,0,0,.971-.405,1.687,1.687,0,0,0,.609-.809,1.224,1.224,0,0,0-.056-.958.825.825,0,0,0-.727-.5,1.01,1.01,0,0,0-.763.457,4.343,4.343,0,0,0-.447,1.818c-.135,1.241-.224,2.4-.3,3.463l-.34,5.027c-.039.581-.069,1.038-.092,1.367-.012.146-.021.263-.029.356a.516.516,0,0,1-.017.121.5.5,0,0,1-.006-.122c0-.093,0-.21.007-.357.012-.329.029-.788.05-1.369.052-1.189.132-2.909.269-5.034.071-1.062.15-2.225.278-3.473.038-.313.069-.628.124-.952a2.354,2.354,0,0,1,.347-.958,1.2,1.2,0,0,1,.918-.544,1.026,1.026,0,0,1,.913.6,1.428,1.428,0,0,1,.072,1.116,1.9,1.9,0,0,1-.68.913,2.363,2.363,0,0,1-1.067.448,2.511,2.511,0,0,1-1.17-.135,4.292,4.292,0,0,1-1.877-1.44,2.4,2.4,0,0,1-.557-1.105,1.03,1.03,0,0,1,.573-1.124,1.019,1.019,0,0,1,1.167.477,2.161,2.161,0,0,1,.258,1.214,3.481,3.481,0,0,1-.866,2.2,2.4,2.4,0,0,1-2.1.833,2.341,2.341,0,0,1-1.8-1.216,1.524,1.524,0,0,1-.128-1.082,1.049,1.049,0,0,1,.727-.782.711.711,0,0,1,.545.122.916.916,0,0,1,.317.432,2.521,2.521,0,0,1,.13.977c-.043,1.249-.083,2.414-.12,3.479-.079,2.114-.144,3.83-.189,5.036l-.062,1.369c-.009.146-.016.263-.022.356a.49.49,0,0,1-.015.121" transform="translate(-129.05 -89.016)" fill="#fff"/>
            <path id="Trazado_604408" data-name="Trazado 604408" d="M231.966,194.748a40.405,40.405,0,0,1-5.979,0,40.405,40.405,0,0,1,5.979,0" transform="translate(-129.734 -111.737)" fill="#fff"/>
            <g transform="matrix(1, 0, 0, 1, 0, 9.47)" filter="url(#Trazado_604409)">
              <path id="Trazado_604409-2" data-name="Trazado 604409" d="M350.771,139.272a17.053,17.053,0,0,1,4.143-1.86l.808-4.132,6.962-.207,1.052,4.077a17.071,17.071,0,0,1,4.246,1.611l3.491-2.35,5.07,4.777-2.138,3.625a17.068,17.068,0,0,1,1.86,4.143l4.132.808.207,6.963-4.077,1.052a17.071,17.071,0,0,1-1.611,4.246l2.35,3.492-4.777,5.07-3.625-2.138a17.058,17.058,0,0,1-4.143,1.86l-.808,4.132-6.963.207-1.052-4.077a17.052,17.052,0,0,1-4.246-1.611l-3.492,2.35-5.07-4.777,2.138-3.625a17.065,17.065,0,0,1-1.86-4.143l-4.132-.808-.207-6.962,4.077-1.052a17.082,17.082,0,0,1,1.611-4.245l-2.35-3.492,4.777-5.07Z" transform="translate(-194.63 -85.87)" fill="#6b8dfc" fill-rule="evenodd"/>
            </g>
            <path id="Trazado_604410" data-name="Trazado 604410" d="M386.068,178.194a1.955,1.955,0,0,1-.338.022l-.969.021-3.562.035-11.752.032H368.5v-.111c.013-4.39.026-8.327.034-11.193.014-1.406.026-2.548.035-3.363.008-.38.015-.683.02-.911a1.712,1.712,0,0,1,.022-.317,1.813,1.813,0,0,1,.022.317c.005.229.012.532.02.911.009.815.02,1.957.034,3.363.009,2.866.021,6.8.034,11.193l-.111-.111h.838l11.752.032,3.562.035.969.02a1.911,1.911,0,0,1,.338.023" transform="translate(-211.546 -93.235)" fill="#fff"/>
            <path id="Trazado_604411" data-name="Trazado 604411" d="M386.47,171.4a4.523,4.523,0,0,1-.521.5l-1.474,1.294c-1.251,1.085-2.989,2.573-4.917,4.206l-.292.247-.075.063-.072-.067-2.187-2.032.136,0-3.212,2.649-.932.745a2.077,2.077,0,0,1-.348.249,2.047,2.047,0,0,1,.3-.3l.894-.79,3.16-2.711.069-.059.067.063,2.2,2.021-.146,0,.292-.247c1.929-1.633,3.683-3.1,4.959-4.156l1.52-1.24a4.509,4.509,0,0,1,.577-.432" transform="translate(-213.887 -98.397)" fill="#fff"/>
            <path id="Trazado_604412" data-name="Trazado 604412" d="M399.641,174.794a5.491,5.491,0,0,1-.077-1.09c-.02-.675-.033-1.611-.034-2.654l.111.111h-.189c-1.086,0-2.069-.012-2.781-.032a5.952,5.952,0,0,1-1.152-.078,5.95,5.95,0,0,1,1.152-.078c.712-.02,1.695-.033,2.781-.033h.3v.111c0,1.043-.014,1.979-.034,2.654a5.488,5.488,0,0,1-.077,1.09" transform="translate(-227.059 -98.132)" fill="#fff"/>
            <path id="Trazado_604413" data-name="Trazado 604413" d="M139.611,197.617a7.424,7.424,0,0,1-.777-2.435,7.407,7.407,0,0,1,.777,2.435" transform="translate(-79.693 -112.05)" fill="#263238"/>
            <path id="Trazado_604414" data-name="Trazado 604414" d="M147.861,216.342a17.137,17.137,0,0,1-2.541-4.418,102.949,102.949,0,0,1,2.541,4.418" transform="translate(-83.423 -121.661)" fill="#263238"/>
            <path id="Trazado_604415" data-name="Trazado 604415" d="M162.081,235.472a16.858,16.858,0,0,1-3.571-3.635,114.711,114.711,0,0,1,3.571,3.635" transform="translate(-90.995 -133.091)" fill="#263238"/>
            <path id="Trazado_604416" data-name="Trazado 604416" d="M180.735,250.3a16.434,16.434,0,0,1-4.4-2.564A23.922,23.922,0,0,1,178.545,249a24.29,24.29,0,0,1,2.191,1.3" transform="translate(-101.227 -142.216)" fill="#263238"/>
            <path id="Trazado_604417" data-name="Trazado 604417" d="M202.7,259.452a14.055,14.055,0,0,1-2.524-.4,14.721,14.721,0,0,1-2.427-.8,14.742,14.742,0,0,1,2.48.584,15.555,15.555,0,0,1,2.472.614" transform="translate(-113.525 -148.253)" fill="#263238"/>
            <path id="Trazado_604418" data-name="Trazado 604418" d="M226.384,261.576a11.032,11.032,0,0,1-2.537.3,10.859,10.859,0,0,1-2.554-.078,23.034,23.034,0,0,1,2.544-.144,22.357,22.357,0,0,1,2.547-.079" transform="translate(-127.039 -150.152)" fill="#263238"/>
            <path id="Trazado_604419" data-name="Trazado 604419" d="M249.963,256.439a18.1,18.1,0,0,1-4.908,1.374,21.512,21.512,0,0,1,2.443-.727,21.246,21.246,0,0,1,2.465-.647" transform="translate(-140.68 -147.211)" fill="#263238"/>
            <path id="Trazado_604420" data-name="Trazado 604420" d="M272.171,246.309a17.725,17.725,0,0,1-4.489,2.416,21.708,21.708,0,0,1,2.227-1.242,22.056,22.056,0,0,1,2.262-1.175" transform="translate(-153.67 -141.398)" fill="#263238"/>
            <path id="Trazado_604421" data-name="Trazado 604421" d="M291.741,231.284a10.45,10.45,0,0,1-1.731,1.88A10.635,10.635,0,0,1,288,234.748,24.128,24.128,0,0,1,289.859,233a25.242,25.242,0,0,1,1.882-1.717" transform="translate(-165.335 -132.774)" fill="#263238"/>
            <path id="Trazado_604422" data-name="Trazado 604422" d="M306.665,211.435a10.631,10.631,0,0,1-1.048,2.331,9.977,9.977,0,0,1-1.413,2.13c-.052-.035.546-1,1.219-2.237a23.949,23.949,0,0,1,1.242-2.224" transform="translate(-174.635 -121.38)" fill="#263238"/>
            <path id="Trazado_604423" data-name="Trazado 604423" d="M316.028,188.957a29.39,29.39,0,0,1-1.592,4.844,29.355,29.355,0,0,1,1.592-4.844" transform="translate(-180.506 -108.476)" fill="#263238"/>
            <path id="Trazado_604424" data-name="Trazado 604424" d="M323.5,166.277a18.3,18.3,0,0,1-.785,2.427,14.708,14.708,0,0,1-.941,2.37,14.765,14.765,0,0,1,.732-2.446c.224-.669.47-1.258.653-1.682a2.542,2.542,0,0,1,.34-.669" transform="translate(-184.721 -95.455)" fill="#263238"/>
            <path id="Trazado_604425" data-name="Trazado 604425" d="M333.1,144.852A22.8,22.8,0,0,1,331.9,147.1a20.924,20.924,0,0,1-1.273,2.209,11.444,11.444,0,0,1,1.078-2.316,10.906,10.906,0,0,1,1.4-2.138" transform="translate(-189.802 -83.156)" fill="#263238"/>
            <path id="Trazado_604426" data-name="Trazado 604426" d="M347.37,127.178c.038.052-.857.757-1.883,1.712s-1.809,1.783-1.858,1.74a9.594,9.594,0,0,1,1.708-1.9,9.207,9.207,0,0,1,2.034-1.549" transform="translate(-197.268 -73.008)" fill="#263238"/>
            <path id="Trazado_604427" data-name="Trazado 604427" d="M367.517,117.073c.016.062-1.074.394-2.394.869s-2.372.914-2.4.856a9.936,9.936,0,0,1,2.324-1.065,10.265,10.265,0,0,1,2.469-.66" transform="translate(-208.232 -67.204)" fill="#263238"/>
            <path id="Trazado_604428" data-name="Trazado 604428" d="M390.818,114.242c0,.064-1.143.036-2.545.086s-2.538.141-2.546.078a10.206,10.206,0,0,1,2.539-.3,9.866,9.866,0,0,1,2.553.136" transform="translate(-221.437 -65.499)" fill="#263238"/>
            <path id="Trazado_604429" data-name="Trazado 604429" d="M414.279,118.03a24,24,0,0,1-2.409-.831,24.87,24.87,0,0,1-2.394-.872,10.51,10.51,0,0,1,2.469.663,10.673,10.673,0,0,1,2.334,1.04" transform="translate(-235.071 -66.776)" fill="#263238"/>
            <path id="Trazado_604430" data-name="Trazado 604430" d="M435.524,128.793c-.041.049-.938-.655-2.082-1.468a24.921,24.921,0,0,1-2.065-1.493,10.465,10.465,0,0,1,2.194,1.312,10.248,10.248,0,0,1,1.954,1.648" transform="translate(-247.643 -72.236)" fill="#263238"/>
            <path id="Trazado_604431" data-name="Trazado 604431" d="M451.076,143.289a4.493,4.493,0,0,1-.819-.982,4.437,4.437,0,0,1-.7-1.072,5.639,5.639,0,0,1,1.516,2.053" transform="translate(-258.079 -81.079)" fill="#263238"/>
            <path id="Trazado_604432" data-name="Trazado 604432" d="M13.16,22.185s.02-.113.068-.333l.221-.974a25.019,25.019,0,0,1,1.223-3.636,27.41,27.41,0,0,1,3.043-5.248A30.078,30.078,0,0,1,23.328,6.25a29.729,29.729,0,0,1,8.552-4.627A31.54,31.54,0,0,1,37.163.346,33.92,33.92,0,0,1,42.915.013a29.8,29.8,0,0,1,6.008.761,27.248,27.248,0,0,1,5.954,2.1A26.906,26.906,0,0,1,60.322,6.5a25.78,25.78,0,0,1,4.52,4.991,24.88,24.88,0,0,1,3.03,6.016,28.31,28.31,0,0,1,1.379,6.4c.04.536.1,1.068.123,1.6s.025,1.062.037,1.59-.028,1.052-.04,1.575c-.048.521-.082,1.04-.15,1.553a23.234,23.234,0,0,1-1.58,5.845,45.35,45.35,0,0,1-2.612,5.137l-2.744,4.684a27.542,27.542,0,0,0-3.209,9.119,39.737,39.737,0,0,0-.52,4.209c-.1,1.336-.144,2.6-.151,3.782a41.769,41.769,0,0,0,.285,6.051,23.955,23.955,0,0,0,.84,3.734c.134.417.25.73.334.938.04.1.077.181.1.234s.031.08.031.08a8.592,8.592,0,0,1-.5-1.241,23.074,23.074,0,0,1-.877-3.735A41.122,41.122,0,0,1,58.3,63c0-1.184.039-2.451.137-3.791a39.653,39.653,0,0,1,.509-4.223,27.621,27.621,0,0,1,3.2-9.174l2.736-4.689a45.184,45.184,0,0,0,2.6-5.12,23.066,23.066,0,0,0,1.562-5.8c.066-.509.1-1.024.147-1.541.011-.519.046-1.039.039-1.564s-.025-1.051-.038-1.581-.083-1.058-.123-1.591a28.167,28.167,0,0,0-1.372-6.353A24.7,24.7,0,0,0,64.684,11.6,25.6,25.6,0,0,0,60.2,6.647a26.741,26.741,0,0,0-5.4-3.6A27.084,27.084,0,0,0,48.882.953,29.659,29.659,0,0,0,42.91.19a33.814,33.814,0,0,0-5.723.323,31.46,31.46,0,0,0-5.257,1.261,29.653,29.653,0,0,0-8.52,4.584,30.1,30.1,0,0,0-5.61,5.7,27.649,27.649,0,0,0-3.061,5.214,26.081,26.081,0,0,0-1.254,3.616l-.238.968c-.055.218-.088.329-.088.329" transform="translate(1.344 11.712)" fill="#263238"/>
          </g>
        </g>
        <g id="Grupo_984990" data-name="Grupo 984990" transform="translate(0 -9.474)">
          <g id="Grupo_984995" data-name="Grupo 984995">
            <g id="Grupo_984982" data-name="Grupo 984982" transform="translate(67.939 191.667)" opacity="0.6">
              <g id="Grupo_984981" data-name="Grupo 984981">
                <g id="Grupo_984980" data-name="Grupo 984980" clip-path="url(#clip-path-5)">
                  <path id="Trazado_604444" data-name="Trazado 604444" d="M175.757,451.321,175.746,450l-15.57.095s-.731.3-.663.808Z" transform="translate(-159.51 -450.004)" fill="#fff"/>
                </g>
              </g>
            </g>
          </g>
        </g>
        <g id="Grupo_984992" data-name="Grupo 984992" transform="translate(0 -9.474)">
          <g id="Grupo_984991" data-name="Grupo 984991" clip-path="url(#clip-path-2)">
            <path id="Trazado_604501" data-name="Trazado 604501" d="M390.794,367.816c2.938,1.026,6.771.109,9.285-1.726A23.5,23.5,0,0,0,406,358.956a10.582,10.582,0,0,0,1.568-3.636,3.929,3.929,0,0,0-1.118-3.64c-1.579-1.329-4-.655-5.793.367a19.978,19.978,0,0,0-9.867,15.769" transform="translate(-224.346 -201.467)" fill="#3c3fa7"/>
            <path id="Trazado_604502" data-name="Trazado 604502" d="M398.2,400.79c1.765,2.328,4.8,3.365,7.715,3.5a21.323,21.323,0,0,0,8.529-1.718,3.692,3.692,0,0,0,2.412-1.9,2.422,2.422,0,0,0-.517-2.246,5.03,5.03,0,0,0-1.969-1.343,13.458,13.458,0,0,0-8.585-.465,21.1,21.1,0,0,0-7.584,4.176" transform="translate(-228.598 -227.409)" fill="#6b8dfc"/>
            <path id="Trazado_604503" data-name="Trazado 604503" d="M389.052,337.35c2.432.049,4.274-2.082,5.375-4.252a15.759,15.759,0,0,0,1.449-9.826,4.285,4.285,0,0,0-1.805-3.181,3.209,3.209,0,0,0-3.549.658,7.29,7.29,0,0,0-1.846,3.326,22.237,22.237,0,0,0,.376,13.275" transform="translate(-222.647 -183.59)" fill="#3c3fa7"/>
            <path id="Trazado_604504" data-name="Trazado 604504" d="M366.617,357.13a29.272,29.272,0,0,0,2.389-23.506c-.4-1.267-1.147-2.717-2.473-2.8-1.468-.093-2.388,1.543-2.793,2.957-1.422,4.96-1.12,10.229-.805,15.379a10.918,10.918,0,0,0,3.682,7.971" transform="translate(-208.202 -189.916)" fill="#6b8dfc"/>
            <path id="Trazado_604505" data-name="Trazado 604505" d="M343.066,384.517A16.965,16.965,0,0,0,333,373.845c-1.1-.414-2.5-.651-3.323.192-.805.827-.557,2.208-.04,3.241a16.238,16.238,0,0,0,3.541,4.291,14.645,14.645,0,0,0,4.059,3.022c1.554.68,4.407.853,5.828-.074" transform="translate(-188.963 -214.4)" fill="#3c3fa7"/>
            <path id="Trazado_604506" data-name="Trazado 604506" d="M396.511,356.834s-.023.025-.072.065l-.223.173-.869.65-.631.466c-.227.176-.463.378-.723.589-.513.429-1.12.891-1.73,1.472l-.978.888c-.338.311-.664.661-1.016,1.009-.714.687-1.405,1.487-2.149,2.315a45.668,45.668,0,0,0-7.58,12.263c-.408,1.035-.815,2.012-1.11,2.957-.154.47-.322.918-.449,1.36l-.358,1.272c-.246.806-.388,1.555-.542,2.206-.072.326-.148.629-.2.91s-.094.538-.135.772l-.193,1.068c-.023.112-.04.2-.055.277a.355.355,0,0,1-.026.094.36.36,0,0,1,.006-.1c.009-.075.021-.167.036-.28.038-.261.09-.62.157-1.075l.118-.777c.05-.283.121-.586.188-.915.144-.654.277-1.408.516-2.219q.165-.612.347-1.279c.123-.444.288-.895.439-1.368.29-.951.693-1.934,1.1-2.975a44.681,44.681,0,0,1,7.61-12.312c.751-.828,1.449-1.627,2.17-2.311.356-.347.685-.7,1.027-1l.989-.882c.618-.576,1.233-1.032,1.754-1.453.264-.207.5-.406.734-.578l.642-.453.892-.621.235-.157a.346.346,0,0,1,.083-.048" transform="translate(-216.696 -204.85)" fill="#263238"/>
            <path id="Trazado_604507" data-name="Trazado 604507" d="M402.238,401.73a1.6,1.6,0,0,1-.285-.047c-.186-.034-.455-.105-.808-.164a22.787,22.787,0,0,0-3-.367,21.91,21.91,0,0,0-17.79,7.4,22.75,22.75,0,0,0-1.855,2.389c-.207.292-.346.533-.453.688a1.645,1.645,0,0,1-.167.236,1.558,1.558,0,0,1,.133-.256c.1-.162.225-.41.423-.71a20.277,20.277,0,0,1,1.815-2.438,21.559,21.559,0,0,1,17.9-7.449,20.258,20.258,0,0,1,3.009.431c.352.071.619.154.8.2a1.6,1.6,0,0,1,.275.086" transform="translate(-216.931 -230.18)" fill="#263238"/>
            <path id="Trazado_604508" data-name="Trazado 604508" d="M386.686,327.1a.449.449,0,0,1-.016.109l-.066.317-.273,1.215c-.239,1.055-.6,2.576-1.061,4.455-.914,3.757-2.242,8.931-3.625,14.665-.687,2.869-1.31,5.609-1.846,8.107s-.975,4.758-1.309,6.661c-.179.95-.313,1.813-.441,2.57s-.231,1.41-.309,1.945-.146.935-.191,1.23c-.023.132-.041.237-.055.319a.446.446,0,0,1-.025.108.472.472,0,0,1,.006-.11c.009-.083.021-.19.035-.322l.155-1.236c.066-.537.156-1.192.276-1.951s.242-1.625.413-2.577c.316-1.908.752-4.17,1.268-6.674s1.144-5.246,1.832-8.116c1.384-5.736,2.733-10.9,3.681-14.653l1.121-4.439c.131-.513.235-.917.308-1.207l.085-.313a.453.453,0,0,1,.035-.1" transform="translate(-216.696 -187.781)" fill="#263238"/>
            <path id="Trazado_604509" data-name="Trazado 604509" d="M372.886,377.53a.291.291,0,0,1-.026-.086l-.058-.254-.2-.983c-.176-.854-.409-2.093-.674-3.629-.532-3.07-1.163-7.335-1.55-12.078-.188-2.372-.292-4.638-.338-6.7s-.016-3.919.048-5.477c.019-.779.07-1.483.1-2.1s.075-1.15.115-1.584l.092-1c.012-.1.021-.189.029-.259a.3.3,0,0,1,.017-.088.321.321,0,0,1,0,.089c0,.071-.006.156-.01.262-.013.245-.032.579-.055,1s-.061.966-.082,1.585-.065,1.321-.075,2.1c-.046,1.556-.05,3.41-.006,5.468s.166,4.319.353,6.687c.387,4.735.995,9,1.492,12.071.248,1.537.46,2.78.612,3.638q.107.625.168.989c.016.1.029.189.039.258a.305.305,0,0,1,.007.089" transform="translate(-212.419 -197.077)" fill="#263238"/>
            <path id="Trazado_604510" data-name="Trazado 604510" d="M354.92,399.657a1.391,1.391,0,0,1-.108-.244l-.273-.71-.195-.513-.266-.6-.3-.686c-.107-.243-.246-.488-.377-.752l-.423-.822-.5-.867c-.333-.609-.764-1.213-1.179-1.872a44.316,44.316,0,0,0-3.124-3.992,49.087,49.087,0,0,0-3.585-3.588c-.6-.5-1.142-1.006-1.693-1.427l-.785-.626-.745-.55c-.47-.357-.913-.655-1.3-.916s-.722-.49-1.006-.659l-.643-.407a1.428,1.428,0,0,1-.218-.154,1.318,1.318,0,0,1,.238.12l.662.376c.29.161.634.374,1.026.633s.846.544,1.323.9l.756.541.795.619c.558.417,1.11.917,1.712,1.419a46.448,46.448,0,0,1,3.611,3.593,42.189,42.189,0,0,1,3.127,4.021c.414.665.842,1.276,1.17,1.892l.5.877.414.833c.128.267.264.515.367.761l.292.7.252.6.18.521.239.724a1.322,1.322,0,0,1,.071.256" transform="translate(-194.146 -218.307)" fill="#263238"/>
            <path id="Trazado_604511" data-name="Trazado 604511" d="M406.787,375.968c0,.031-.5.031-1.31.076a23.453,23.453,0,0,0-6.182,1.174c-.768.254-1.235.438-1.247.41a1.232,1.232,0,0,1,.311-.169c.205-.1.509-.226.889-.371a18.666,18.666,0,0,1,6.224-1.182c.407-.005.736,0,.963.019a1.234,1.234,0,0,1,.352.043" transform="translate(-228.51 -215.798)" fill="#263238"/>
            <path id="Trazado_604512" data-name="Trazado 604512" d="M420.319,405.907a9.519,9.519,0,0,0-4.149-4.468,2.918,2.918,0,0,1,.843.373,7.445,7.445,0,0,1,3,3.227,2.913,2.913,0,0,1,.31.868" transform="translate(-238.913 -230.456)" fill="#263238"/>
            <path id="Trazado_604513" data-name="Trazado 604513" d="M396.773,340.553c.04.042-.724.8-1.558,1.825s-1.425,1.923-1.475,1.892a11.684,11.684,0,0,1,3.032-3.717" transform="translate(-226.036 -195.503)" fill="#263238"/>
            <path id="Trazado_604514" data-name="Trazado 604514" d="M394.958,330.395a14.45,14.45,0,0,1,.563,3.306,14.452,14.452,0,0,1-.563-3.306" transform="translate(-226.727 -189.672)" fill="#263238"/>
            <path id="Trazado_604515" data-name="Trazado 604515" d="M373.253,362.275a40.836,40.836,0,0,1-2.6,5.02,40.965,40.965,0,0,1,2.6-5.02" transform="translate(-212.781 -207.974)" fill="#263238"/>
            <path id="Trazado_604516" data-name="Trazado 604516" d="M365.917,351.452a22.9,22.9,0,0,1,1.883,3.783,22.881,22.881,0,0,1-1.883-3.783" transform="translate(-210.062 -201.76)" fill="#263238"/>
            <path id="Trazado_604517" data-name="Trazado 604517" d="M344.959,387.939c-.013.056-.837-.1-1.863-.175s-1.864-.033-1.869-.09a7.469,7.469,0,0,1,3.732.264" transform="translate(-195.891 -222.482)" fill="#263238"/>
            <path id="Trazado_604518" data-name="Trazado 604518" d="M360.871,421.2l2.309,12.142a1.7,1.7,0,0,0,1.672,1.384h6.821a1.7,1.7,0,0,0,1.679-1.423l2.007-12.1Z" transform="translate(-207.168 -241.799)" fill="#263238"/>
            <path id="Trazado_604519" data-name="Trazado 604519" d="M361.621,425.142h13.044l.693-3.946H360.87Z" transform="translate(-207.167 -241.799)" fill="#455a64"/>
            <path id="Trazado_604520" data-name="Trazado 604520" d="M362.632,430.461l.273,1.439h12.571l.2-1.439Z" transform="translate(-208.179 -247.118)" fill="#fafafa"/>
          </g>
        </g>
      </g>
    </g>
    <path id="Trazado_604521" data-name="Trazado 604521" d="M143.025,200.093h13.085a.6.6,0,1,1,0,1.2H143.025l-1.283-.6Z" transform="translate(-3763.111 -7719.86)" fill="#263238"/>
    <g id="Grupo_984996" data-name="Grupo 984996" transform="translate(-3690.374 -7617.18)">
      <path id="Trazado_604433" data-name="Trazado 604433" d="M256.553,419.443l7.305,2.563-.078,7.026c-3.5.986-3.987,2.755-3.987,2.755l7.311-.167,6.361-12.935-5.032-3.292-9.406-4.115" transform="translate(-131.653 -211.052)" fill="#3335b8"/>
      <g id="Grupo_984973" data-name="Grupo 984973" transform="translate(128.14 206.932)" opacity="0.6">
        <g id="Grupo_984972" data-name="Grupo 984972">
          <g id="Grupo_984971" data-name="Grupo 984971" clip-path="url(#clip-path-7)">
            <path id="Trazado_604434" data-name="Trazado 604434" d="M276.879,425.754l-6.361,12.935-7.311.167.8-1.117,5.937-.462,5.865-12.222Z" transform="translate(-263.208 -425.053)" fill="#fff"/>
          </g>
        </g>
      </g>
      <path id="Trazado_604435" data-name="Trazado 604435" d="M271.338,440.615c.056.074.472-.175,1.038-.172.566-.013.986.229,1.041.155.067-.056-.354-.485-1.043-.476s-1.1.438-1.035.494" transform="translate(-139.236 -225.853)" fill="#263238"/>
      <path id="Trazado_604436" data-name="Trazado 604436" d="M271.493,436.644c.075.05.39-.389.971-.516s1.052.129,1.1.053c.024-.034-.063-.154-.271-.261a1.369,1.369,0,0,0-1.664.372c-.142.186-.169.332-.133.352" transform="translate(-139.312 -223.626)" fill="#263238"/>
      <path id="Trazado_604437" data-name="Trazado 604437" d="M271.284,431.949c.081.038.321-.389.826-.577s.966-.032,1-.114c.018-.038-.076-.137-.28-.208a1.268,1.268,0,0,0-1.475.558c-.106.189-.111.326-.072.342" transform="translate(-139.201 -221.166)" fill="#263238"/>
      <path id="Trazado_604438" data-name="Trazado 604438" d="M270.028,431c.09-.022.034-.482.254-.977s.576-.779.53-.859c-.025-.084-.568.121-.825.733s-.037,1.143.042,1.1" transform="translate(-138.482 -220.22)" fill="#263238"/>
      <path id="Trazado_604439" data-name="Trazado 604439" d="M267.329,427.93a3.112,3.112,0,0,0,.172-.982c.033-.352.065-.707.1-1.071a2.329,2.329,0,0,0,0-.681.594.594,0,0,0-.26-.363.457.457,0,0,0-.5.02,1.355,1.355,0,0,0-.415.648,2.442,2.442,0,0,0,.061,1.768c.26.6.628.81.641.783a8.051,8.051,0,0,1-.428-.864,2.523,2.523,0,0,1-.11-1,2.345,2.345,0,0,1,.132-.575,1.163,1.163,0,0,1,.3-.49.131.131,0,0,1,.153-.011.281.281,0,0,1,.12.17,2.412,2.412,0,0,1,.008.582c-.01.365-.019.721-.029,1.074a3.116,3.116,0,0,0,.055,1" transform="translate(-136.65 -217.975)" fill="#263238"/>
      <path id="Trazado_604440" data-name="Trazado 604440" d="M265.187,431.28c.029-.019-.187-.338-.749-.522a1.827,1.827,0,0,0-2.074.741.338.338,0,0,0,.032.283.41.41,0,0,0,.192.157,1.125,1.125,0,0,0,.342.069,3.272,3.272,0,0,0,.595,0,3.152,3.152,0,0,0,.968-.246c.523-.23.766-.5.741-.523s-.314.15-.821.311a3.609,3.609,0,0,1-.91.164,3.406,3.406,0,0,1-.542-.017.93.93,0,0,1-.246-.049c-.063-.038-.046-.026-.045-.049a.577.577,0,0,1,.145-.174,1.67,1.67,0,0,1,.215-.172,1.785,1.785,0,0,1,1.352-.273,6.951,6.951,0,0,1,.806.3" transform="translate(-134.625 -221.007)" fill="#263238"/>
      <g id="Grupo_984976" data-name="Grupo 984976" transform="translate(135.974 206.655)" opacity="0.6">
        <g id="Grupo_984975" data-name="Grupo 984975">
          <g id="Grupo_984974" data-name="Grupo 984974" clip-path="url(#clip-path-8)">
            <path id="Trazado_604441" data-name="Trazado 604441" d="M279.3,425.37a.868.868,0,1,0,.849-.886.868.868,0,0,0-.849.886" transform="translate(-279.3 -424.484)" fill="#fff"/>
          </g>
        </g>
      </g>
      <path id="Trazado_604442" data-name="Trazado 604442" d="M169.271,422.013l.1,9.572s-9.7,3.316-9.85,5.087l18.566.474.458-14.921Z" transform="translate(-81.859 -216.56)" fill="#3335b8"/>
      <g id="Grupo_984979" data-name="Grupo 984979" transform="translate(92.349 214.331)" opacity="0.6">
        <g id="Grupo_984978" data-name="Grupo 984978">
          <g id="Grupo_984977" data-name="Grupo 984977" clip-path="url(#clip-path-9)">
            <path id="Trazado_604443" data-name="Trazado 604443" d="M190.615,440.286a.758.758,0,0,1,.5.879.729.729,0,0,1-.867.505.8.8,0,0,1-.527-.933.757.757,0,0,1,.96-.426" transform="translate(-189.691 -440.251)" fill="#fff"/>
          </g>
        </g>
      </g>
      <path id="Trazado_604445" data-name="Trazado 604445" d="M179.14,441.384c0,.091.453.144.891.447s.666.69.751.656c.084-.016-.037-.561-.575-.919s-1.085-.268-1.068-.184" transform="translate(-91.927 -226.462)" fill="#263238"/>
      <path id="Trazado_604446" data-name="Trazado 604446" d="M175.1,442.981c-.023.087.366.252.664.643s.376.8.467.8c.085.016.161-.513-.219-.993s-.907-.534-.912-.448" transform="translate(-89.852 -227.303)" fill="#263238"/>
      <path id="Trazado_604447" data-name="Trazado 604447" d="M171.979,446.08c.082.021.22-.428,0-.931s-.639-.711-.679-.636.215.347.389.762.2.794.29.805" transform="translate(-87.901 -228.099)" fill="#263238"/>
      <path id="Trazado_604448" data-name="Trazado 604448" d="M179.587,436.659c.036.084.455-.031.966.017s.907.22.956.143-.327-.41-.93-.458-1.035.225-.993.3" transform="translate(-92.155 -223.92)" fill="#263238"/>
      <g id="Grupo_984985" data-name="Grupo 984985" transform="translate(87.433 207.349)" opacity="0.3">
        <g id="Grupo_984984" data-name="Grupo 984984">
          <g id="Grupo_984983" data-name="Grupo 984983" clip-path="url(#clip-path-10)">
            <path id="Trazado_604449" data-name="Trazado 604449" d="M179.594,425.908l.016,1.706,9.127.15.051-1.535Z" transform="translate(-179.594 -425.908)"/>
          </g>
        </g>
      </g>
      <path id="Trazado_604450" data-name="Trazado 604450" d="M179.622,431.5a1.742,1.742,0,0,0,.93.019,4.159,4.159,0,0,0,.98-.274,4.3,4.3,0,0,0,.541-.27,1.133,1.133,0,0,0,.286-.211.4.4,0,0,0,.054-.481.5.5,0,0,0-.392-.217,1.206,1.206,0,0,0-.35.039,3.349,3.349,0,0,0-.583.184,3.286,3.286,0,0,0-.872.541c-.441.388-.6.723-.566.741s.257-.248.7-.566a3.707,3.707,0,0,1,.841-.446,3.411,3.411,0,0,1,.538-.151c.2-.047.365-.044.413.045.018.034.019.047-.023.1a.942.942,0,0,1-.211.154,4.911,4.911,0,0,1-.5.268,5.125,5.125,0,0,1-.907.321,6.389,6.389,0,0,0-.886.2" transform="translate(-92.175 -220.691)" fill="#263238"/>
      <path id="Trazado_604451" data-name="Trazado 604451" d="M178.627,430.156a1.484,1.484,0,0,0,.268-.892,3.031,3.031,0,0,0-.1-1.021,3.066,3.066,0,0,0-.222-.571.769.769,0,0,0-.581-.484.434.434,0,0,0-.395.249,1.249,1.249,0,0,0-.1.338,2.065,2.065,0,0,0-.017.627,2.139,2.139,0,0,0,.372.971c.351.49.726.608.735.577.031-.045-.28-.227-.546-.7a2.14,2.14,0,0,1-.272-.881,1.938,1.938,0,0,1,.031-.537c.034-.2.112-.353.185-.332.093,0,.246.153.317.313a3.1,3.1,0,0,1,.218.51,3.322,3.322,0,0,1,.156.932c.012.546-.094.883-.045.9" transform="translate(-91.065 -219.215)" fill="#263238"/>
      <path id="Trazado_604452" data-name="Trazado 604452" d="M219.992,388.747l-21.38-7.951,22.476-3.155,1.131-10.949-42.029,3.668-5.936,8.544,1.563,10.722,40.949,10.41Z" transform="translate(-89.421 -188.172)" fill="#263238"/>
      <path id="Trazado_604453" data-name="Trazado 604453" d="M172.932,375.226,170.885,336.1a11.006,11.006,0,0,1,14.482-10.12l27.268,9.092,14.966,3.848s2.549,6.289,1.051,11.175c-1.467,4.783-6.708,7.964-11.32,6.6-5.728-1.7-32.026-13.007-32.026-13.007v31.863Z" transform="translate(-87.691 -166.989)" fill="#263238"/>
      <path id="Trazado_604454" data-name="Trazado 604454" d="M232,375.851a.875.875,0,0,1-.163-.054l-.467-.18-1.788-.715-6.559-2.675-21.6-8.915-1.1-.456.175-.117c-.015,8.853-.029,16.813-.039,22.576-.017,2.864-.03,5.181-.039,6.8-.01.789-.018,1.407-.023,1.844-.005.2-.009.358-.013.479a.765.765,0,0,1-.013.163.854.854,0,0,1-.013-.163c0-.121-.007-.279-.012-.479-.005-.437-.013-1.055-.023-1.844-.009-1.619-.023-3.936-.04-6.8-.01-5.764-.023-13.723-.038-22.576v-.19l.175.073,1.1.456,21.573,8.983,6.528,2.75,1.77.759.458.2a.887.887,0,0,1,.153.077" transform="translate(-102.759 -186.046)" fill="#455a64"/>
      <path id="Trazado_604455" data-name="Trazado 604455" d="M213.746,389.954a8.952,8.952,0,0,1,5.125,2.838c-.053.058-1.025-.849-2.447-1.628s-2.7-1.134-2.679-1.21" transform="translate(-109.686 -200.105)" fill="#455a64"/>
      <path id="Trazado_604456" data-name="Trazado 604456" d="M195.63,352.066a19.515,19.515,0,0,1,2.459,5.484c-.068.024-.569-1.223-1.248-2.734s-1.274-2.715-1.21-2.75" transform="translate(-100.387 -180.667)" fill="#455a64"/>
      <path id="Trazado_604457" data-name="Trazado 604457" d="M185.336,315.7l-4.822-.9-5.067,5.168.935,3.292,5.907-2.175Z" transform="translate(-90.033 -161.542)" fill="#ffbe9d"/>
      <path id="Trazado_604458" data-name="Trazado 604458" d="M153.2,198.82l-1.305.111s-2.35.384-2.35.437-1.032,1.495-1.035,1.5l-.946,1.462a1.361,1.361,0,0,0,1.322-.243l-.33.735a1.467,1.467,0,0,0,1.816-.7,17.18,17.18,0,0,1,1.023-1.456l.428-.039c.036.088,1.686,2.414,1.72,2.361s1.405-1.376,1.405-1.376Z" transform="translate(-75.721 -102.027)" fill="#eb996e"/>
      <path id="Trazado_604459" data-name="Trazado 604459" d="M156.894,207.657l.386-7.224-3.66-4.148-4.026.244-1.647,1.149c.085.4,1.226.671,2.458.314a6.224,6.224,0,0,1,2.534-.085l1.551,2.7-1.024,1.13,1.313,6.929Z" transform="translate(-75.92 -100.726)" fill="#ffbe9d"/>
      <path id="Trazado_604461" data-name="Trazado 604461" d="M155.424,210.44l-1.333-3.278a3.087,3.087,0,0,1-.224-1.312,22.553,22.553,0,0,0-.036-4.087c-.244-.732-1.22-3.233-.671-3.6s1.309-.488,1.844.976,2.182,4.636,2.182,4.636L158.432,209Z" transform="translate(-78.511 -101.567)" fill="#ffbe9d"/>
      <path id="Trazado_604462" data-name="Trazado 604462" d="M156.922,203.392a9.859,9.859,0,0,1-.758-1.4c-.438-.868-1.033-2.129-1.667-3.433a.962.962,0,0,0-.774-.5.7.7,0,0,0-.651.486,1.868,1.868,0,0,0,.026.856c.052.281.113.54.175.775.255.94.523,1.488.485,1.505a1.236,1.236,0,0,1-.222-.368,7.623,7.623,0,0,1-.434-1.087c-.075-.236-.147-.5-.209-.783a2.008,2.008,0,0,1-.044-.965.939.939,0,0,1,.869-.667,1.2,1.2,0,0,1,.993.615c.676,1.384,1.211,2.591,1.616,3.495a9.9,9.9,0,0,1,.6,1.475" transform="translate(-78.413 -101.507)" fill="#eb996e"/>
      <path id="Trazado_604463" data-name="Trazado 604463" d="M270.083,346.735l-1.334-2.341-14.27-3.572,1.681,2.9Z" transform="translate(-130.588 -174.896)" fill="#ffbe9d"/>
      <path id="Trazado_604464" data-name="Trazado 604464" d="M155.432,220.5l8.982,21.282a8.268,8.268,0,0,0,4.476,4.432l19.38,7.958,4.512-12.484L173.909,235l-12.26-17.479Z" transform="translate(-79.762 -111.625)" fill="#4042e2"/>
      <path id="Trazado_604465" data-name="Trazado 604465" d="M213.165,265.18c.02.5-2.094,15.986-2.094,19.15s6.059,6.6,6.059,6.6l6.634,14.086h23.628l-8.078-15.168-3.652-12.15a28.618,28.618,0,0,0-7.333-12.159l-3.945-2.64Z" transform="translate(-108.313 -134.908)" fill="#4042e2"/>
      <path id="Trazado_604466" data-name="Trazado 604466" d="M208.959,285.8l3.969,16.651-20.015-5.64-3.412,6.029L215.544,314.7a7.321,7.321,0,0,0,10.126-8.477l-5.831-22.783a5.57,5.57,0,0,0-10.88,2.359" transform="translate(-97.244 -143.302)" fill="#3335b8"/>
      <path id="Trazado_604467" data-name="Trazado 604467" d="M217.023,297.57a.92.92,0,0,1-.23-.1c-.147-.072-.361-.184-.631-.337a18.22,18.22,0,0,1-2.2-1.456,8.95,8.95,0,0,1-2.583-2.936,8.649,8.649,0,0,1-.362-4.759c.242-1.685.588-3.255.792-4.705.222-1.446.375-2.756.457-3.858s.1-2,.1-2.617-.02-.961,0-.963a.912.912,0,0,1,.041.247c.02.163.039.4.056.713a24.218,24.218,0,0,1-.016,2.631c-.058,1.11-.194,2.428-.4,3.881-.191,1.456-.533,3.04-.772,4.7a8.558,8.558,0,0,0,.322,4.626,9,9,0,0,0,2.483,2.894,22.066,22.066,0,0,0,2.134,1.511,9.6,9.6,0,0,1,.811.52" transform="translate(-108.207 -141.551)" fill="#263238"/>
      <path id="Trazado_604468" data-name="Trazado 604468" d="M240.433,282.662a8.269,8.269,0,0,0-5.454-.369,5.561,5.561,0,0,1,5.454.369" transform="translate(-120.581 -144.581)" fill="#263238"/>
      <path id="Trazado_604469" data-name="Trazado 604469" d="M229.344,265.18a2.243,2.243,0,0,1-.361.4c-.243.248-.605.6-1.06,1.022-.909.849-2.2,1.985-3.681,3.173s-2.872,2.2-3.9,2.9c-.513.352-.933.629-1.229.812a2.206,2.206,0,0,1-.473.264,2.24,2.24,0,0,1,.417-.346l1.181-.876c1-.738,2.367-1.77,3.845-2.954s2.781-2.3,3.719-3.109l1.112-.961a2.233,2.233,0,0,1,.428-.332" transform="translate(-112.198 -136.079)" fill="#263238"/>
      <path id="Trazado_604470" data-name="Trazado 604470" d="M190.269,253.513c.025.07-.7.378-1.5.908s-1.381,1.065-1.435,1.014a5.029,5.029,0,0,1,2.94-1.922" transform="translate(-96.128 -130.087)" fill="#263238"/>
      <path id="Trazado_604471" data-name="Trazado 604471" d="M222.015,305.348a1.587,1.587,0,0,1-.436.14,8.446,8.446,0,0,1-1.227.215,11.321,11.321,0,0,1-1.851.05,11.91,11.91,0,0,1-4.383-1.1,11.311,11.311,0,0,1-1.609-.917,8.366,8.366,0,0,1-.981-.768c-.217-.2-.33-.315-.318-.329.031-.036.518.394,1.4.947a12.895,12.895,0,0,0,7.729,1.937c1.036-.073,1.668-.221,1.679-.176" transform="translate(-108.384 -155.303)" fill="#fafafa"/>
      <path id="Trazado_604472" data-name="Trazado 604472" d="M229.93,321.96a2.49,2.49,0,0,1-.9.164,8.219,8.219,0,0,1-4.278-.871,2.5,2.5,0,0,1-.762-.5,12.235,12.235,0,0,0,5.937,1.209" transform="translate(-114.944 -164.594)" fill="#fafafa"/>
      <path id="Trazado_604473" data-name="Trazado 604473" d="M246.192,313.893a1.423,1.423,0,0,1-.371.223,11.127,11.127,0,0,1-1.074.483,16.47,16.47,0,0,1-7.646,1.058,11.258,11.258,0,0,1-1.165-.173,1.436,1.436,0,0,1-.418-.114c.007-.041.613.05,1.6.108a19.38,19.38,0,0,0,7.57-1.048c.931-.323,1.49-.576,1.508-.538" transform="translate(-120.858 -161.076)" fill="#fafafa"/>
      <path id="Trazado_604474" data-name="Trazado 604474" d="M242.083,296.49c-.008.04-.62-.075-1.613-.193a24.918,24.918,0,0,0-7.774.28c-.983.189-1.584.348-1.6.309a1.482,1.482,0,0,1,.407-.164c.267-.092.66-.2,1.15-.32a20.272,20.272,0,0,1,7.837-.282c.5.082.9.165,1.17.237a1.474,1.474,0,0,1,.418.134" transform="translate(-118.591 -151.827)" fill="#fafafa"/>
      <path id="Trazado_604475" data-name="Trazado 604475" d="M249.706,335.227a2.528,2.528,0,0,1-.569-.112,14.487,14.487,0,0,1-1.509-.466,19.874,19.874,0,0,1-8.451-5.935,14.59,14.59,0,0,1-.951-1.26,2.528,2.528,0,0,1-.3-.5c.038-.026.509.649,1.386,1.641a22.07,22.07,0,0,0,8.379,5.883c1.231.489,2.026.7,2.014.747" transform="translate(-122.094 -167.78)" fill="#fafafa"/>
      <path id="Trazado_604476" data-name="Trazado 604476" d="M225.189,333.937a5.4,5.4,0,0,1-.059-1.385,15.41,15.41,0,0,1,1.688-6.44,5.427,5.427,0,0,1,.731-1.178,12.113,12.113,0,0,1-.57,1.256,19.076,19.076,0,0,0-1.67,6.372,12.283,12.283,0,0,1-.12,1.374" transform="translate(-115.524 -166.744)" fill="#fafafa"/>
      <path id="Trazado_604477" data-name="Trazado 604477" d="M200.474,325.188a3.915,3.915,0,0,1,.01-1.166,6.619,6.619,0,0,1,.864-2.684,8.647,8.647,0,0,1,1.881-2.1,4.508,4.508,0,0,1,.946-.677,6.425,6.425,0,0,1-.828.811,10.344,10.344,0,0,0-1.782,2.1,7.431,7.431,0,0,0-.9,2.578,8.072,8.072,0,0,1-.187,1.141" transform="translate(-102.859 -163.472)" fill="#fafafa"/>
      <path id="Trazado_604478" data-name="Trazado 604478" d="M271.719,343.17a7.522,7.522,0,0,1-1.406.62,26.267,26.267,0,0,1-3.555,1.067,15.218,15.218,0,0,1-3.7.4,6.09,6.09,0,0,1-.643-.043,3.827,3.827,0,0,1-.482-.067,1.3,1.3,0,0,1-.4-.105c.007-.044.587.052,1.527.036a18.433,18.433,0,0,0,3.64-.471c1.4-.313,2.652-.7,3.55-.988a11.737,11.737,0,0,1,1.466-.451" transform="translate(-134.21 -176.099)" fill="#fafafa"/>
      <path id="Trazado_604479" data-name="Trazado 604479" d="M266.288,323.4c.027.013-.126.308-.535.608a7.292,7.292,0,0,1-1.719.9,10.809,10.809,0,0,1-1.857.547,3,3,0,0,1-.591.061c-.142,0-.227-.049-.215-.058s.29-.036.765-.178,1.111-.34,1.805-.608a10.616,10.616,0,0,0,1.709-.815c.415-.248.6-.482.637-.46" transform="translate(-134.125 -165.958)" fill="#fafafa"/>
      <path id="Trazado_604480" data-name="Trazado 604480" d="M260.194,303.326c.013,0,.008.083-.075.175a1.632,1.632,0,0,1-.391.316,7.736,7.736,0,0,1-1.471.686,8.476,8.476,0,0,1-1.565.423c-.413.071-.685.016-.678-.019a6.548,6.548,0,0,1,.642-.157c.392-.1.929-.274,1.515-.485a15.318,15.318,0,0,0,1.469-.6,2.81,2.81,0,0,0,.411-.232c.091-.059.119-.111.143-.1" transform="translate(-131.377 -155.655)" fill="#fafafa"/>
      <path id="Trazado_604481" data-name="Trazado 604481" d="M221.032,290.836a4.067,4.067,0,0,1-1.145.045,14.653,14.653,0,0,1-5.358-1.27,4.067,4.067,0,0,1-1-.553c.034-.074,1.6.71,3.68,1.2s3.828.5,3.825.583" transform="translate(-109.573 -148.33)" fill="#fafafa"/>
      <path id="Trazado_604482" data-name="Trazado 604482" d="M254.169,283.67a6.892,6.892,0,0,1-3.385,1.379c-.009-.056.759-.307,1.69-.7.937-.372,1.662-.729,1.7-.683" transform="translate(-128.692 -145.566)" fill="#fafafa"/>
      <path id="Trazado_604483" data-name="Trazado 604483" d="M235.315,270.676a2.115,2.115,0,0,1,.677.538,6.173,6.173,0,0,1,1.707,3.747,2.1,2.1,0,0,1-.038.864,8.36,8.36,0,0,0-2.346-5.148" transform="translate(-120.753 -138.9)" fill="#fafafa"/>
      <path id="Trazado_604484" data-name="Trazado 604484" d="M202.952,271.741a1.747,1.747,0,0,1-.223-.459,7.856,7.856,0,0,1-.388-1.336,12.1,12.1,0,0,1,.034-4.573,24.089,24.089,0,0,1,1.326-4.378c.215-.544.4-.979.532-1.277a1.947,1.947,0,0,1,.231-.454,2,2,0,0,1-.139.49l-.456,1.3a29.829,29.829,0,0,0-1.244,4.362,13.166,13.166,0,0,0-.107,4.5c.187,1.144.48,1.811.435,1.828" transform="translate(-103.73 -133.043)" fill="#fafafa"/>
      <path id="Trazado_604485" data-name="Trazado 604485" d="M180.286,264.6a1.871,1.871,0,0,1,.085-.491,11.876,11.876,0,0,1,.384-1.3,16.663,16.663,0,0,1,5.069-7.275,11.827,11.827,0,0,1,1.088-.811,1.911,1.911,0,0,1,.431-.25c.025.037-.553.443-1.4,1.2a18.773,18.773,0,0,0-5.018,7.2c-.414,1.057-.594,1.741-.637,1.73" transform="translate(-92.513 -130.583)" fill="#fafafa"/>
      <path id="Trazado_604486" data-name="Trazado 604486" d="M175.311,240.131c0,.046-.555.071-1.41.315a13.206,13.206,0,0,0-3.163,1.412,14.976,14.976,0,0,0-2.747,2.121c-.634.626-.953,1.082-.989,1.057-.015-.01.054-.131.192-.344a3.851,3.851,0,0,1,.272-.372,5.534,5.534,0,0,1,.4-.465,12.6,12.6,0,0,1,2.746-2.213,11.351,11.351,0,0,1,3.25-1.369,4.614,4.614,0,0,1,.6-.112,3.318,3.318,0,0,1,.459-.045,1.179,1.179,0,0,1,.394.015" transform="translate(-85.697 -123.216)" fill="#fafafa"/>
      <path id="Trazado_604487" data-name="Trazado 604487" d="M166.291,226.277a12.331,12.331,0,0,0-8.02,2.028,4.018,4.018,0,0,1,.988-.769,9.867,9.867,0,0,1,5.8-1.466,4.042,4.042,0,0,1,1.235.207" transform="translate(-81.218 -116)" fill="#fafafa"/>
      <path id="Trazado_604488" data-name="Trazado 604488" d="M208.958,292.706a1.9,1.9,0,0,1,.1.318l.242.928c.208.834.5,2.01.865,3.473l2.883,11.9.05.2-.2-.057-5.1-1.434-14.9-4.236.1-.043-2.533,4.39-.7,1.187-.187.306a.448.448,0,0,1-.072.1.424.424,0,0,1,.049-.113l.165-.318.658-1.211,2.461-4.431.035-.063.07.019,14.923,4.168,5.1,1.441-.153.147-2.8-11.924-.795-3.49c-.085-.393-.152-.7-.2-.938a1.934,1.934,0,0,1-.055-.328" transform="translate(-97.243 -150.205)" fill="#263238"/>
      <path id="Trazado_604489" data-name="Trazado 604489" d="M252,290.577a1.371,1.371,0,0,1,.1.286l.232.831.806,3.069L255.7,304.91c.491,1.986.97,3.87,1.375,5.6a13.2,13.2,0,0,1,.382,4.7,6.622,6.622,0,0,1-1.118,2.972,3.5,3.5,0,0,1-.8.85,9.38,9.38,0,0,0,.718-.906,6.785,6.785,0,0,0,1.021-2.939,13.362,13.362,0,0,0-.432-4.625c-.429-1.721-.9-3.608-1.393-5.59l-2.495-10.165-.728-3.089c-.075-.344-.137-.624-.186-.843a1.338,1.338,0,0,1-.048-.3" transform="translate(-129.313 -149.113)" fill="#263238"/>
      <g id="Grupo_984988" data-name="Grupo 984988" transform="translate(124.142 147.337)" opacity="0.3">
        <g id="Grupo_984987" data-name="Grupo 984987">
          <g id="Grupo_984986" data-name="Grupo 984986" clip-path="url(#clip-path-11)">
            <path id="Trazado_604490" data-name="Trazado 604490" d="M257.167,325.408c2.931.27,4.631-1.4,4.945-3.688a8.255,8.255,0,0,0-.654-3.721c-1.8-5.267-3.613-10.579-6.464-15.358,1.076,4.783,2.45,9.375,3.527,14.158a14.829,14.829,0,0,1,.455,4.073,7.336,7.336,0,0,1-1.809,4.537" transform="translate(-254.995 -302.64)"/>
          </g>
        </g>
      </g>
      <path id="Trazado_604491" data-name="Trazado 604491" d="M237.309,239.593a5.961,5.961,0,0,0,7.573-4.528,3.5,3.5,0,0,0,3.021.8,5.764,5.764,0,0,0,2.818-1.521,7.038,7.038,0,0,0,2.366-5.288,5.155,5.155,0,0,0-3.2-4.632,4.088,4.088,0,0,0-5.021,2.039c-.349-1.043.547-2.451.333-3.53-.429-2.164-1.723-3.43-2.822-3.476" transform="translate(-121.778 -112.619)" fill="#263238"/>
      <path id="Trazado_604492" data-name="Trazado 604492" d="M235.493,233.819c2.144-3.738,2.758-8.718,3.3-13.025.255-2.028.7-4.914-.678-6.182-1.48-1.359-1.623-3.454-3.324-4.5a5.09,5.09,0,0,0-5.612.065" transform="translate(-117.606 -107.405)" fill="#263238"/>
      <path id="Trazado_604493" data-name="Trazado 604493" d="M212.165,243.439v-5.865s-6.109-1.079-6.471-5.975-.235-16.2-.235-16.2a16.1,16.1,0,0,1,16.716,1.058l-.247,17.235.012,5.614-5,4.059-4.773,3.759Z" transform="translate(-105.422 -109.586)" fill="#ffbe9d"/>
      <path id="Trazado_604494" data-name="Trazado 604494" d="M206.2,221.286a2.386,2.386,0,0,1,3.241-.74,2.9,2.9,0,0,1,.929,3.556,3.652,3.652,0,0,1-2.323,1.824s2.2,4.013,3.6,5.076c1.667,1.267,2.45,1.891,4.507,2.135,2.022.241,1.778.261,2.949-1.456a6.727,6.727,0,0,0,1.143-3.979q.093-5.416.186-10.832a15.97,15.97,0,0,0-.25-3.885,5.235,5.235,0,0,0-2-3.208c-1.157-.78-2.619-.843-3.935-1.278a32.1,32.1,0,0,1-4.585-2.471c-1.54-.807-3.427-1.287-4.968-.482-1.107.577-1.847,1.721-2.923,2.356-1.532.905-3.621.707-4.36,3.037a4.065,4.065,0,0,0,.033,2.49,5.515,5.515,0,0,0,7.591,3.053,8,8,0,0,0,.1,3.425c.177.541.241,1.367,1.062,1.38" transform="translate(-101.212 -105.264)" fill="#263238"/>
      <path id="Trazado_604495" data-name="Trazado 604495" d="M217.381,242.081c-.019.007-.018.092.066.211a.7.7,0,0,0,.53.271,1.329,1.329,0,0,0,1.226-1.355,1.444,1.444,0,0,0-.352-1.035,1.411,1.411,0,0,0-.744-.439c-.489-.1-.77.083-.75.115.012.055.292-.024.685.123a1.225,1.225,0,0,1,.822,1.221,1.13,1.13,0,0,1-.889,1.124c-.4.026-.559-.266-.593-.235" transform="translate(-111.539 -123.006)" fill="#eb996e"/>
      <path id="Trazado_604496" data-name="Trazado 604496" d="M258.114,239.305a1.482,1.482,0,0,1-.139.46,5.186,5.186,0,0,1-.65,1.14,5.7,5.7,0,0,1-3.635,2.229,5.594,5.594,0,0,1-4.127-1.067,5.053,5.053,0,0,1-.945-.91,1.484,1.484,0,0,1-.261-.4,10.269,10.269,0,0,0,1.311,1.167,5.652,5.652,0,0,0,3.984.962,5.771,5.771,0,0,0,3.533-2.089,10.855,10.855,0,0,0,.93-1.49" transform="translate(-127.446 -122.802)" fill="#455a64"/>
      <path id="Trazado_604497" data-name="Trazado 604497" d="M257.572,237.678a1.164,1.164,0,0,1-.17.376,5.4,5.4,0,0,1-.661.911,6.114,6.114,0,0,1-3.164,1.887,5.983,5.983,0,0,1-3.668-.346,5.178,5.178,0,0,1-.981-.551c-.214-.157-.32-.259-.311-.272.026-.04.49.325,1.359.657a6.216,6.216,0,0,0,3.544.265,6.372,6.372,0,0,0,3.089-1.762c.648-.667.922-1.19.961-1.165" transform="translate(-127.58 -121.967)" fill="#455a64"/>
      <path id="Trazado_604498" data-name="Trazado 604498" d="M231.6,239.5a.782.782,0,0,1-.2.112,2.274,2.274,0,0,1-.644.17,3.494,3.494,0,0,1-2.332-.643,6.778,6.778,0,0,1-2.195-2.853,22.1,22.1,0,0,0-1.991-3.881,4.662,4.662,0,0,0-1.67-1.427,5.949,5.949,0,0,0-2-.527c-1.33-.135-2.559-.047-3.584-.188a5.752,5.752,0,0,1-2.321-.723,3.581,3.581,0,0,1-.53-.4c-.109-.107-.162-.165-.156-.171s.242.21.736.486a6.006,6.006,0,0,0,2.292.629c1.008.118,2.225.01,3.588.134a6.1,6.1,0,0,1,2.084.536,4.872,4.872,0,0,1,1.763,1.5,21.165,21.165,0,0,1,2,3.933,6.74,6.74,0,0,0,2.085,2.806,3.5,3.5,0,0,0,2.221.693,4.176,4.176,0,0,0,.856-.184" transform="translate(-109.805 -117.499)" fill="#455a64"/>
      <path id="Trazado_604499" data-name="Trazado 604499" d="M230.924,237.181a.7.7,0,0,1-.218.021,2.429,2.429,0,0,1-.626-.079,3.947,3.947,0,0,1-1.9-1.288,7.407,7.407,0,0,1-.915-1.312c-.28-.5-.535-1.055-.818-1.627a11.224,11.224,0,0,0-1-1.713,5.1,5.1,0,0,0-.694-.765,3.388,3.388,0,0,0-.422-.315,2.45,2.45,0,0,0-.455-.278,5.725,5.725,0,0,0-2.012-.591,15.392,15.392,0,0,0-1.987-.1,27.183,27.183,0,0,1-3.406-.09,6.1,6.1,0,0,1-2.2-.66,4.171,4.171,0,0,1-.52-.351c-.114-.086-.172-.134-.166-.141s.261.154.732.4a6.454,6.454,0,0,0,2.18.57,30.277,30.277,0,0,0,3.384.035,15.086,15.086,0,0,1,2.019.089,5.909,5.909,0,0,1,2.1.613,2.648,2.648,0,0,1,.481.295,3.7,3.7,0,0,1,.445.335,5.307,5.307,0,0,1,.726.806,11.167,11.167,0,0,1,1.006,1.758c.279.577.526,1.132.793,1.628a7.489,7.489,0,0,0,.866,1.3,4.007,4.007,0,0,0,1.794,1.31,6.112,6.112,0,0,0,.816.153" transform="translate(-109.602 -116.943)" fill="#455a64"/>
      <path id="Trazado_604500" data-name="Trazado 604500" d="M249.723,243.575c-.011.011-.111-.066-.269-.227a4.857,4.857,0,0,1-.592-.754,6,6,0,0,1-.24-6.071,4.916,4.916,0,0,1,.529-.8c.145-.174.238-.258.25-.248.035.027-.282.412-.619,1.127a6.332,6.332,0,0,0,.233,5.9c.392.686.741,1.044.708,1.073" transform="translate(-127.219 -120.837)" fill="#e8505b"/>
      <rect id="Rectángulo_339757" data-name="Rectángulo 339757" width="94.584" height="138.735" transform="translate(65 82)" fill="none"/>
    </g>
  </g>
</svg>
