<svg xmlns="http://www.w3.org/2000/svg" xmlns:xlink="http://www.w3.org/1999/xlink" width="315" height="567" viewBox="0 0 315 567">
  <defs>
    <clipPath id="clip-path">
      <rect id="Rectángulo_338670" data-name="Rectángulo 338670" width="315" height="567" transform="translate(338 820)" fill="#fff" opacity="0.38"/>
    </clipPath>
    <clipPath id="clip-path-2">
      <rect id="Rectángulo_45292" data-name="Rectángulo 45292" width="344.489" height="262.839" fill="#3c3fa7"/>
    </clipPath>
    <clipPath id="clip-path-3">
      <rect id="Rectángulo_338668" data-name="Rectángulo 338668" width="359.751" height="545.489" fill="none"/>
    </clipPath>
    <clipPath id="clip-path-4">
      <path id="Trazado_208918" data-name="Trazado 208918" d="M127.136,37.532c-1.214,1.735,5.753,3.893,8.007,3.771,3.887-.208,4.539-2.024.2-3.652a14.093,14.093,0,0,0-4.913-.947c-1.8,0-3.018.434-3.294.828" transform="translate(-126.996 -36.704)" fill="none"/>
    </clipPath>
    <clipPath id="clip-path-6">
      <path id="Trazado_209014" data-name="Trazado 209014" d="M83.026,34.134c.216,4.8,9.019,8.817,12.61,5.171,2.341-2.377-6.257-6.66-10.446-6.66-1.327,0-2.211.43-2.165,1.489" transform="translate(-83.024 -32.645)" fill="none"/>
    </clipPath>
  </defs>
  <g id="Enmascarar_grupo_984954" data-name="Enmascarar grupo 984954" transform="translate(-338 -820)" clip-path="url(#clip-path)">
    <g id="Grupo_983161" data-name="Grupo 983161" transform="translate(-61.679 -443)">
      <rect id="Rectángulo_338535" data-name="Rectángulo 338535" width="324.779" height="566.571" transform="translate(387.46 1263)" fill="#c4d1ff"/>
      <g id="Grupo_983393" data-name="Grupo 983393" transform="translate(368.239 1284.511)">
        <g id="Grupo_174179" data-name="Grupo 174179" transform="translate(0 92.792)">
          <g id="Grupo_174173" data-name="Grupo 174173" transform="translate(2.971 145.215)">
            <rect id="Rectángulo_44927" data-name="Rectángulo 44927" width="245.801" height="307.481" transform="translate(99.202)" fill="#6b8dfc"/>
            <path id="Rectángulo_44926" data-name="Rectángulo 44926" d="M139,0H345a0,0,0,0,1,0,0V139.985a0,0,0,0,1,0,0H0a0,0,0,0,1,0,0V139A139,139,0,0,1,139,0Z" transform="translate(0 167.496)" fill="#3c3fa7"/>
          </g>
          <g id="Grupo_175033" data-name="Grupo 175033" transform="translate(0 0)">
            <g id="Grupo_175032" data-name="Grupo 175032" clip-path="url(#clip-path-2)">
              <path id="Trazado_183468" data-name="Trazado 183468" d="M66.79,170.018H51.514a.772.772,0,0,1-.715-.819V15.622H.715a.826.826,0,0,1,0-1.638h50.8a.772.772,0,0,1,.715.819V168.38H66.074V.82a.814.814,0,0,1,.5-.783.671.671,0,0,1,.8.32L78.932,19.684a.9.9,0,0,1,.124.462V152.593h12.43V76.954a.773.773,0,0,1,.715-.819h76.775V17.911a.772.772,0,0,1,.715-.819h49.136a.772.772,0,0,1,.715.819V122.648h64.292V57.517a.772.772,0,0,1,.715-.819h30.075a.772.772,0,0,1,.715.819V84.19h10.79V16.357a.9.9,0,0,1,.125-.462l8.378-14.017a.668.668,0,0,1,.8-.32.813.813,0,0,1,.5.782V94.475h7.834a.826.826,0,0,1,0,1.638h-8.55a.772.772,0,0,1-.715-.819V4.987l-6.947,11.624v68.4a.772.772,0,0,1-.715.819H314.625a.772.772,0,0,1-.715-.819V58.336H285.265v65.131a.772.772,0,0,1-.715.819H218.828a.772.772,0,0,1-.715-.819V18.73h-47.7V76.954a.772.772,0,0,1-.715.819H92.917v75.639a.772.772,0,0,1-.715.819H78.341a.773.773,0,0,1-.715-.819V20.4L67.5,3.467V169.2a.772.772,0,0,1-.715.819" transform="translate(0 0)" fill="#3c3fa7"/>
              <path id="Trazado_183469" data-name="Trazado 183469" d="M223.852,291.7h-.034a.785.785,0,0,1-.681-.857c1.414-34.489-3.477-55.692-14.537-63.019-5.787-3.833-12.252-2.937-16.658-1.508a33,33,0,0,0-8.362,4.124.639.639,0,0,1-.764,0,.864.864,0,0,1-.332-.788,88.624,88.624,0,0,0-1.057-22.072c-2.785-14.982-9.465-23.93-19.857-26.6-6.74-1.73-12.525-.764-17.2,2.87-8.689,6.755-10.687,20.562-10.706,20.7a.762.762,0,0,1-.647.688.716.716,0,0,1-.738-.555,66.976,66.976,0,0,0-10.767-19.977c-7.1-9.013-19.74-19.67-39.737-19.131-16.13.419-29.149,6.511-38.7,18.108-18.846,22.895-17.888,59.934-17.876,60.3a.721.721,0,1,1-1.429.08c-.011-.2-1.141-19.617-10.121-27.106-3.5-2.92-7.8-3.661-12.764-2.2a.713.713,0,0,1-.87-.591.835.835,0,0,1,.515-1c5.4-1.585,10.1-.754,13.965,2.469,4.016,3.351,7.039,9.148,8.983,17.231.211.877.4,1.732.562,2.553.873-12.591,4.364-36.3,17.987-52.857,9.82-11.932,23.179-18.2,39.71-18.63,20.557-.511,33.57,10.428,40.871,19.721a69.79,69.79,0,0,1,10.149,17.972c1.041-4.543,3.912-13.779,10.8-19.136,5.011-3.9,11.174-4.947,18.315-3.113,23.249,5.968,22.594,40.934,22.137,48.861,3.731-2.348,15.271-8.476,25.29-1.848,11.565,7.653,16.7,29.36,15.257,64.518a.767.767,0,0,1-.714.78" transform="translate(0 -29.679)" fill="#3c3fa7"/>
              <path id="Trazado_183470" data-name="Trazado 183470" d="M355.233,304.743h-.024a.779.779,0,0,1-.691-.845,118.012,118.012,0,0,1,3-21.712c3.584-14.537,9.739-22.47,17.8-22.944a5.3,5.3,0,0,1,4.35,1.861c2.126,2.317,3.143,6.4,3.628,9.82,2.166-11.487,7.971-36.34,18.047-39.028,11.12-2.968,15.695,9.733,16.841,13.735,2.753-2.285,11.593-8.822,18.235-4.7,8.881,5.512,8.983,26.835,8.983,27.74a.722.722,0,1,1-1.431,0c0-.212-.1-21.252-8.234-26.3-6.963-4.323-17.39,5.164-17.5,5.262a.641.641,0,0,1-.678.137.788.788,0,0,1-.466-.582,28.616,28.616,0,0,0-3.344-8.158c-3.132-4.979-7.2-6.843-12.088-5.54-11.95,3.189-17.876,43.018-17.934,43.42a.738.738,0,0,1-.765.681.783.783,0,0,1-.655-.817c0-.1-.03-10.564-3.632-14.485a3.938,3.938,0,0,0-3.289-1.409c-18.028,1.057-19.433,42.653-19.446,43.073a.768.768,0,0,1-.714.792" transform="translate(-100.915 -41.905)" fill="#3c3fa7"/>
            </g>
          </g>
        </g>
        <g id="Grupo_983402" data-name="Grupo 983402" transform="translate(44.355 0)">
          <g id="Grupo_983395" data-name="Grupo 983395">
            <g id="Grupo_983394" data-name="Grupo 983394" clip-path="url(#clip-path-3)">
              <path id="Trazado_208900" data-name="Trazado 208900" d="M159.94,10.194S105.607-9.189,96.1,43.637,91.534,115.41,82.28,125.42s-20.439,13.79-.766,14.022,27.543,15.039,30.5-9.869-4.755-27.648,7.562-36.092,11.091-28.243,11.793-32.02" transform="translate(35.902 3.418)"/>
              <path id="Trazado_208901" data-name="Trazado 208901" d="M144.36,26.367S150.171,8.1,125.868,8.87Z" transform="translate(63.992 4.497)"/>
              <path id="Trazado_208902" data-name="Trazado 208902" d="M134.6,51.743c.738-1.5-3.214,21.3-3.214,21.3l-26.75.336,7.111-35.185Z" transform="translate(53.198 19.417)" fill="#ed8c6b"/>
              <path id="Trazado_208903" data-name="Trazado 208903" d="M111.572,39.031l20.721,12.286c.351-.713-.359,4.074-1.2,9.287L109.178,41.3Z" transform="translate(55.507 19.844)"/>
              <path id="Trazado_208904" data-name="Trazado 208904" d="M138.658,10.081s18.976,6.741,20.054,28.32-4.195,32.22-25.72,30.423c-19.175-1.6-25.711-16.5-25.711-16.5l1.484-21.385,9.678-20.4Z" transform="translate(54.543 5.125)" fill="#ed8c6b"/>
              <path id="Trazado_208905" data-name="Trazado 208905" d="M133.785,30.971s-6.112-10.693-17.439-1.575c0,0,8.224,11.138,17.439,1.575" transform="translate(59.151 13.074)" fill="#fff"/>
              <path id="Trazado_208906" data-name="Trazado 208906" d="M132.975,31.332s1.745-11.76,11.8-7.86c0,0-.9,12.642-11.8,7.86" transform="translate(67.605 11.53)" fill="#fff"/>
              <path id="Trazado_208907" data-name="Trazado 208907" d="M133.335,36.247a1.052,1.052,0,0,1-.907-1.59l2.791-4.717-3.852.486a1.053,1.053,0,1,1-.262-2.089l5.982-.756a1.045,1.045,0,0,1,1.012.468,1.057,1.057,0,0,1,.027,1.115l-3.884,6.568a1.055,1.055,0,0,1-.907.516" transform="translate(66.185 14.017)"/>
              <path id="Trazado_208908" data-name="Trazado 208908" d="M119.817,22.82a1.054,1.054,0,0,1-.513-1.973c5.672-3.163,10.058-2.337,10.244-2.3a1.051,1.051,0,0,1,.827,1.237,1.067,1.067,0,0,1-1.232.83c-.053-.011-3.872-.677-8.814,2.073a1.041,1.041,0,0,1-.511.134" transform="translate(60.38 9.366)"/>
              <path id="Trazado_208909" data-name="Trazado 208909" d="M133.241,20.483a1.053,1.053,0,0,1-.78-1.759c.124-.133,3.033-3.261,6.975-2.195a1.057,1.057,0,0,1,.739,1.294,1.045,1.045,0,0,1-1.294.738c-2.7-.733-4.776,1.487-4.865,1.582a1.055,1.055,0,0,1-.775.339" transform="translate(67.205 8.291)"/>
              <path id="Trazado_208910" data-name="Trazado 208910" d="M121.083,19.488c-1.385-8.31,31.437,3.706,24.291-9.9,0,0-21.116-5.6-33.927,3.771S91.254,45.093,113.6,60.865l.264-12.538s10.4-9.74,7.221-28.839" transform="translate(50.468 4.028)"/>
              <path id="Trazado_208911" data-name="Trazado 208911" d="M116.18,32.99c-3.759-3.349-9.058-3.263-11.838.192s-1.984,8.969,1.774,12.318,9.059,3.263,11.838-.192,1.985-8.969-1.774-12.318" transform="translate(52.205 15.523)" fill="#ed8c6b"/>
              <path id="Trazado_208912" data-name="Trazado 208912" d="M113.6,38.841a1.048,1.048,0,0,1-.3-.044l-8.02-2.388a1.054,1.054,0,0,1,.6-2.02l8.019,2.388a1.053,1.053,0,0,1-.3,2.063" transform="translate(53.143 17.463)"/>
              <path id="Trazado_208913" data-name="Trazado 208913" d="M108.3,41.768a1.053,1.053,0,0,1-1-1.391l1.308-3.872a1.062,1.062,0,0,1,1.335-.661,1.051,1.051,0,0,1,.659,1.335L109.3,41.053a1.052,1.052,0,0,1-1,.715" transform="translate(54.526 18.197)"/>
              <path id="Trazado_208914" data-name="Trazado 208914" d="M116.085,32.2a6.162,6.162,0,1,0,5.343-6.883,6.164,6.164,0,0,0-5.343,6.883" transform="translate(58.993 12.846)"/>
              <path id="Trazado_208915" data-name="Trazado 208915" d="M131.52,30.137c.472,3.754,3.477,6.467,6.709,6.059s5.469-3.78,5-7.534S139.75,22.2,136.518,22.6s-5.469,3.78-5,7.534" transform="translate(66.833 11.471)"/>
              <path id="Trazado_208916" data-name="Trazado 208916" d="M127.136,37.532c.483-.691,3.871-1.508,8.209.119s3.685,3.444-.2,3.652c-2.254.122-9.221-2.035-8.007-3.771" transform="translate(64.565 18.66)"/>
            </g>
          </g>
          <g id="Grupo_983397" data-name="Grupo 983397" transform="translate(191.561 55.364)">
            <g id="Grupo_983396" data-name="Grupo 983396" clip-path="url(#clip-path-4)">
              <path id="Trazado_208917" data-name="Trazado 208917" d="M141.732,40.029a41.741,41.741,0,0,0-13.292-2.72c-6.651-.047,1.249,5.583,1.249,5.583l10.251,2.466Z" transform="translate(-127.615 -36.397)" fill="#fd521b"/>
            </g>
          </g>
          <g id="Grupo_983399" data-name="Grupo 983399">
            <g id="Grupo_983398" data-name="Grupo 983398" clip-path="url(#clip-path-3)">
              <path id="Trazado_208919" data-name="Trazado 208919" d="M165,315.632l37.123,77.049,73.744-60.814-9.085-12.494a13.681,13.681,0,0,0-18.9-3.169l-28.628,20-21.979-35.641Z" transform="translate(83.886 152.808)" fill="#5774cd"/>
              <path id="Trazado_208920" data-name="Trazado 208920" d="M101.535,292.7,50.424,340.919l19.3,39.131a13.322,13.322,0,0,0,11.945,7.429h47.589l-.827-16.97a14.347,14.347,0,0,0-12.316-13.452L102.983,355.2l-6.207-12.829,32.28-28.349Z" transform="translate(25.636 148.812)" fill="#5774cd"/>
              <path id="Trazado_208921" data-name="Trazado 208921" d="M210.419,321.881l-13.146-21.317L165,315.632l13.511,28.041Z" transform="translate(83.886 152.808)" fill="#ed8c6b"/>
              <path id="Trazado_208922" data-name="Trazado 208922" d="M92.334,337.053l26.23-23.035L91.041,292.7,71.064,311.55Z" transform="translate(36.129 148.812)" fill="#ed8c6b"/>
              <path id="Trazado_208923" data-name="Trazado 208923" d="M199.258,338.486a.839.839,0,0,1-.086-.006.588.588,0,0,1-.5-.667l2.744-19.21a.589.589,0,0,1,1.082-.232l8.088,12.835L212,315.5a.589.589,0,0,1,1.081-.267l6.077,9.408a.59.59,0,0,1-.991.64l-5.148-7.97L211.6,333.05a.589.589,0,0,1-1.086.261l-8.162-12.953-2.518,17.621a.588.588,0,0,1-.581.507" transform="translate(101.003 160.128)"/>
              <path id="Trazado_208924" data-name="Trazado 208924" d="M209.1,300.135l-3.8-6.166L164,313.249l8.458,17.556Z" transform="translate(83.376 149.455)"/>
              <path id="Trazado_208925" data-name="Trazado 208925" d="M100.076,326.553l14.274-12.535L86.829,292.7l-7.477,7.052Z" transform="translate(40.343 148.812)"/>
              <path id="Trazado_208926" data-name="Trazado 208926" d="M186.782,375.729a.59.59,0,0,1-.367-1.051l73.375-58.123a.589.589,0,0,1,.733.923L187.148,375.6a.581.581,0,0,1-.367.128" transform="translate(94.661 160.872)"/>
              <path id="Trazado_208927" data-name="Trazado 208927" d="M200.715,339.2a9.237,9.237,0,1,1-9.237-9.237,9.238,9.238,0,0,1,9.237,9.237" transform="translate(92.653 167.753)" fill="#fff"/>
              <path id="Trazado_208928" data-name="Trazado 208928" d="M79.634,323.264a8.488,8.488,0,1,1-8.488-8.488,8.487,8.487,0,0,1,8.488,8.488" transform="translate(31.856 160.033)" fill="#fff"/>
              <path id="Trazado_208929" data-name="Trazado 208929" d="M127.225,367.54H85.109a13.952,13.952,0,0,1-12.443-7.755L53.893,321.532a.542.542,0,1,1,.973-.478l18.774,38.253a12.86,12.86,0,0,0,11.47,7.15h42.116a.541.541,0,1,1,0,1.083" transform="translate(27.371 163.071)"/>
              <path id="Trazado_208930" data-name="Trazado 208930" d="M153.4,124.225,253.81,378.091l-63.163,32.391L93.069,140.825Z" transform="translate(47.317 63.157)" fill="#ff9fa3"/>
              <path id="Trazado_208931" data-name="Trazado 208931" d="M97.087,152.876S112.95,232.5,110.449,271.1c-3.741,57.755-44.4,99.9-44.4,99.9l57.989,46.406s61.982-74.538,59.832-142.111c-2.748-86.427-13.5-115.133-13.5-115.133l3.32-5.952-13.1-35.372-67.471,15.5Z" transform="translate(33.581 60.419)" fill="#ff9fa3"/>
              <path id="Trazado_208932" data-name="Trazado 208932" d="M155.732,314.962a.754.754,0,0,1-.345-1.424l59.755-30.774a.754.754,0,0,1,.689,1.341l-59.754,30.773a.753.753,0,0,1-.345.084" transform="translate(78.791 143.715)"/>
              <path id="Trazado_208933" data-name="Trazado 208933" d="M81.851,387.37a.754.754,0,0,1-.615-1.19c.487-.686,48.709-69.393,52.446-126,1.953-29.586-5.282-65.281-11.7-90.015-6.955-26.827-14.472-46.9-14.547-47.1a.753.753,0,0,1,1.41-.529c.075.2,7.617,20.336,14.594,47.239,6.444,24.848,13.711,60.719,11.744,90.51-3.765,57.031-52.231,126.077-52.72,126.768a.751.751,0,0,1-.615.318" transform="translate(41.23 62.047)"/>
              <path id="Trazado_208934" data-name="Trazado 208934" d="M129.6,324.459a.749.749,0,0,1-.48-.172l-56.469-46.61a.754.754,0,0,1,.961-1.163l56.467,46.608a.754.754,0,0,1-.48,1.336" transform="translate(36.799 140.493)"/>
              <path id="Trazado_208935" data-name="Trazado 208935" d="M131.444,57.324s33.871,21.027,37.778,68.284c3.21,38.805-19.538,38.018-31.687,40.187-13.951,2.49-49.623,9.661-49.623,9.661l5.193-108Z" transform="translate(44.694 29.144)" fill="#d7e5ff"/>
              <path id="Trazado_208936" data-name="Trazado 208936" d="M144.419,75.46s5.2-8.628-2.238-16.068c-4.979-4.979-31.553-18.265-46.828-8.222S83.5,75.122,92.672,79.522s51.747-4.062,51.747-4.062" transform="translate(43.136 24.155)" fill="#d7e5ff"/>
              <path id="Trazado_208937" data-name="Trazado 208937" d="M117.008,160.289l-1.37,52.906s12.606,16.988,8.583,32.381-8.945,4-8.945,4-24-8.218-27.678-16.218c-1.231-2.676,4.242-15.458,4.309-20.938.047-3.674-1.774-43.867-1.774-43.867Z" transform="translate(44.444 81.492)" fill="#ed8c6b"/>
              <path id="Trazado_208938" data-name="Trazado 208938" d="M109.517,230.127l4.611-15.408a4.9,4.9,0,0,0-3.389-6.059,4.791,4.791,0,0,0-6.08,3.493l-3.489,15.712A4.341,4.341,0,0,0,104.538,233a4.223,4.223,0,0,0,4.979-2.869" transform="translate(51.384 105.98)" fill="#ed8c6b"/>
              <path id="Trazado_208939" data-name="Trazado 208939" d="M95.177,227.64l4.433-18.728a4.423,4.423,0,0,1,4.528-3.347l.442.017a4.575,4.575,0,0,1,4.358,5.616l-4.877,18.712a4.46,4.46,0,0,1-5.234,3.169,4.553,4.553,0,0,1-3.65-5.438" transform="translate(48.329 104.508)" fill="#ed8c6b"/>
              <path id="Trazado_208940" data-name="Trazado 208940" d="M93.668,227.445h0A3.847,3.847,0,0,0,98,224.621l3.412-12.339a4.241,4.241,0,0,0-2.341-4.979l-.941-.416a3.858,3.858,0,0,0-5.377,2.851l-2.471,12.755a4.211,4.211,0,0,0,3.382,4.952" transform="translate(45.863 105.009)" fill="#ed8c6b"/>
              <path id="Trazado_208941" data-name="Trazado 208941" d="M89.783,222.591h0a3.334,3.334,0,0,0,3.276-2.413l2.617-10.242a3.146,3.146,0,0,0-2.46-3.783l-1.131-.268a3.373,3.373,0,0,0-4.192,2.634l-1.487,10.511a3.243,3.243,0,0,0,3.377,3.563" transform="translate(43.914 104.621)" fill="#ed8c6b"/>
              <path id="Trazado_208942" data-name="Trazado 208942" d="M97.555,212.1a.516.516,0,0,1,.665-.321.569.569,0,0,1,.342.7c-.193.611-2.112,8-3.1,11.815a.514.514,0,0,1-.65.371.565.565,0,0,1-.377-.68c.116-.452,2.863-11.079,3.113-11.871l0-.014" transform="translate(48.003 107.652)"/>
              <path id="Trazado_208943" data-name="Trazado 208943" d="M103.292,213.676a.512.512,0,0,1,.665-.32.564.564,0,0,1,.341.7c-.216.677-2.255,9.253-3.3,13.692a.516.516,0,0,1-.641.386.567.567,0,0,1-.392-.673c.125-.525,3.044-12.886,3.326-13.773l0-.012" transform="translate(50.814 108.455)"/>
              <path id="Trazado_208944" data-name="Trazado 208944" d="M92.275,209.972a.515.515,0,0,1,.677-.317.568.568,0,0,1,.326.707c-.27.79-1.724,7.126-2.454,10.366a.518.518,0,0,1-.638.392.565.565,0,0,1-.4-.668c.087-.385,2.13-9.437,2.487-10.479h0" transform="translate(45.641 106.571)"/>
              <path id="Trazado_208945" data-name="Trazado 208945" d="M110.845,212.287c.17-.493.505-.846.78-.806.3.045.413.529.258,1.083l-3.81,13.672c-.152.551-.52.965-.816.92s-.412-.529-.258-1.083l3.81-13.671c.011-.039.023-.078.036-.116" transform="translate(54.364 107.516)"/>
              <path id="Trazado_208946" data-name="Trazado 208946" d="M110.9,271.164s22.976-2.979,26.305-29.605S157.331,132.768,152,96.978c-3.952-26.506-16.582-40.372-35.377-38C94.743,61.75,90.9,86.8,86.159,132.084c-5.4,51.618-5.539,81.022-6.613,98.622-2.051,33.628,19.837,38.321,19.837,38.321Z" transform="translate(40.372 29.854)" fill="#d7e5ff"/>
              <path id="Trazado_208947" data-name="Trazado 208947" d="M140.314,70.513a.749.749,0,0,1-.474-.167c-.267-.216-26.884-21.291-45.625-1.908a.753.753,0,1,1-1.082-1.048c19.7-20.379,47.376,1.56,47.654,1.783a.754.754,0,0,1-.474,1.341" transform="translate(47.241 29.857)"/>
              <path id="Trazado_208948" data-name="Trazado 208948" d="M138.675,320.4a.775.775,0,0,1-.258-.045.753.753,0,0,1-.451-.967c7.335-20.169,10.782-38.92,10.247-55.733-2.714-85.314-13.346-114.607-13.453-114.892a.755.755,0,0,1,.048-.632l3.319-5.949a.753.753,0,1,1,1.317.732l-3.154,5.657c1.181,3.48,10.865,34.33,13.432,115.038.542,17-2.937,35.945-10.337,56.3a.755.755,0,0,1-.709.5" transform="translate(68.488 72.087)"/>
              <path id="Trazado_208949" data-name="Trazado 208949" d="M130.234,164.09c-.018,0-.033,0-.05,0a.754.754,0,0,1-.7-.8c.035-.552,3.543-55.387,1.751-72.55-1.688-16.182-9.657-26.4-14.512-28.2a.755.755,0,1,1,.528-1.415c5.361,2,13.71,12.456,15.484,29.462,1.807,17.288-1.711,72.248-1.745,72.8a.755.755,0,0,1-.751.706" transform="translate(59.091 31.05)"/>
              <path id="Trazado_208950" data-name="Trazado 208950" d="M137.5,116.006s14.444-14.874,25.691-14.873c6.721,0,11.242-.118,13.793-.213A3.562,3.562,0,0,0,180.08,97.8a2.675,2.675,0,0,0-1.72-3.231,49.411,49.411,0,0,0-21.653,0c-10.322,2.441-26.056,15.914-26.056,15.914Z" transform="translate(66.423 47.467)" fill="#ed8c6b"/>
              <path id="Trazado_208951" data-name="Trazado 208951" d="M144.525,109.093s12.2-12.533,23.445-12.532c7.237,0,11.924-.137,14.345-.235a2.794,2.794,0,0,0,2.421-2.448c.348-1.89-.608-3.674-2.151-4a49.408,49.408,0,0,0-21.1.125c-10.322,2.441-26.056,15.914-26.056,15.914Z" transform="translate(68.852 45.142)" fill="#ed8c6b"/>
              <path id="Trazado_208952" data-name="Trazado 208952" d="M146.946,105.339s12.2-12.533,23.445-12.532c7.24,0,11.928-.137,14.349-.235a2.794,2.794,0,0,0,2.416-2.444c.348-1.893-.609-3.679-2.156-4.008a49.364,49.364,0,0,0-21.1.125c-10.322,2.441-26.056,15.915-26.056,15.915Z" transform="translate(70.083 43.233)" fill="#ed8c6b"/>
              <path id="Trazado_208953" data-name="Trazado 208953" d="M133.5,121.871s26.64-31.153,37.221-33.09c6.815-1.247,13.322-1.537,15.589-2.047a2.913,2.913,0,0,0,2.014-2.723c.131-1.863-.919-3.424-2.406-3.572-4.7-.465-14.859-.872-23.519,2.872-9.456,4.088-35.209,30.124-35.209,30.124Z" transform="translate(64.665 40.746)" fill="#ed8c6b"/>
              <path id="Trazado_208954" data-name="Trazado 208954" d="M160.946,91.743l6.589-10.358a5.088,5.088,0,0,0-.67-6.447,3,3,0,0,0-4.338.612c-2.1,2.546-27.61,27.712-27.61,27.712l-11.788,17.626,32.616-14.95Z" transform="translate(62.599 37.757)" fill="#ed8c6b"/>
              <path id="Trazado_208955" data-name="Trazado 208955" d="M148.976,94.96a.555.555,0,0,0-.032.24c.021.238.193.391.386.339a46.128,46.128,0,0,1,20.127-.812.459.459,0,0,0,.189-.87,46.762,46.762,0,0,0-20.391.819.439.439,0,0,0-.279.284" transform="translate(75.723 47.338)"/>
              <path id="Trazado_208956" data-name="Trazado 208956" d="M148.885,92a.553.553,0,0,0-.015.332.348.348,0,0,0,.483.259,28.192,28.192,0,0,1,5.356-1.961,51.473,51.473,0,0,1,21.406-.259A2.846,2.846,0,0,1,177.6,91.5a.337.337,0,0,0,.539.029.538.538,0,0,0,.057-.653,3.558,3.558,0,0,0-1.905-1.415,52.147,52.147,0,0,0-21.686.262,29.018,29.018,0,0,0-5.492,2.009.462.462,0,0,0-.231.267" transform="translate(75.677 44.966)"/>
              <path id="Trazado_208957" data-name="Trazado 208957" d="M148.99,88.267a.437.437,0,0,0,0,.306.343.343,0,0,0,.465.21,30.884,30.884,0,0,1,7.4-2.62,46.345,46.345,0,0,1,10.4-.554.371.371,0,0,0,.365-.38.386.386,0,0,0-.344-.412,46.877,46.877,0,0,0-10.545.564,31.528,31.528,0,0,0-7.56,2.671.37.37,0,0,0-.187.214" transform="translate(75.734 43.088)"/>
              <path id="Trazado_208958" data-name="Trazado 208958" d="M146.552,84.964a.545.545,0,0,0,0,.385.337.337,0,0,0,.508.181c1.213-.778,7.832-3.328,7.9-3.355a.515.515,0,0,0,.276-.581.352.352,0,0,0-.466-.3c-.275.106-6.755,2.6-8.034,3.423a.483.483,0,0,0-.186.243" transform="translate(74.491 41.321)"/>
              <path id="Trazado_208959" data-name="Trazado 208959" d="M141.391,96.014c-.008.062-.015.124-.02.186-.009.128.151.267.358.312s.383-.024.392-.151c0-.057.011-.116.018-.173.523-4.032,8.331-6.459,8.411-6.483.164-.05.192-.193.065-.318a.59.59,0,0,0-.528-.137,24.338,24.338,0,0,0-4.217,1.815c-1.9,1.054-4.195,2.757-4.478,4.951" transform="translate(71.873 45.366)"/>
              <path id="Trazado_208960" data-name="Trazado 208960" d="M77.13,295.466a.566.566,0,0,1-.339-1.02l6.673-4.984-12.233-3.89a.566.566,0,0,1-.083-1.045l5.666-2.84L51.976,257.869a.565.565,0,0,1-.113-.662.572.572,0,0,1,.6-.3l32.752,5.578L60.165,245.553a.565.565,0,1,1,.634-.937l27.218,18.393a.567.567,0,0,1,.208.68.578.578,0,0,1-.62.347L54.09,258.329l24.085,23.1a.565.565,0,0,1-.137.914L72.9,284.914l11.957,3.8a.566.566,0,0,1,.167.994l-7.553,5.644a.572.572,0,0,1-.339.112" transform="translate(26.336 124.314)"/>
              <path id="Trazado_208961" data-name="Trazado 208961" d="M95.939,20.009S102.273-.012,79.561,2.848Z" transform="translate(40.449 1.306)" fill="#ffb6c8"/>
              <path id="Trazado_208962" data-name="Trazado 208962" d="M48.867,39.517C46.552,21.133,55.26,6.414,71.712,1.94c28.085-7.639,41.925,8.513,44.238,26.9s-7.673,41.2-24.724,41.256C69.609,70.157,51.183,57.9,48.867,39.517" transform="translate(24.657 0)" fill="#ffb6c8"/>
              <path id="Trazado_208963" data-name="Trazado 208963" d="M64.712,269.317,31.434,283.269l-10.87-22.711,37.328-20.7Z" transform="translate(10.455 121.943)" fill="#ed8c6b"/>
              <path id="Trazado_208964" data-name="Trazado 208964" d="M33.662,248.24,43.389,274.1l14.665-6.148L54.337,251.9l-10.384-9.367Z" transform="translate(17.114 123.304)"/>
              <path id="Trazado_208965" data-name="Trazado 208965" d="M104.72,310.69l9.173,33.621-24.367,7.243L76.117,313.484Z" transform="translate(38.698 157.956)" fill="#ed8c6b"/>
              <path id="Trazado_208966" data-name="Trazado 208966" d="M109.135,145.555s48.767,101.967,41.3,127.116c-9.888,33.313-84.713,65.4-84.713,65.4l-33.1-52.621,50.685-33.9L65.911,224.79l24.831-92.6Z" transform="translate(16.585 67.206)" fill="#ffc849"/>
              <path id="Trazado_208967" data-name="Trazado 208967" d="M108.421,324.255l-3.7-13.565-28.6,2.792,5.133,14.576c7.643.336,17.933-.166,27.171-3.8" transform="translate(38.698 157.956)"/>
              <path id="Trazado_208968" data-name="Trazado 208968" d="M43.405,190.983s-24.1,18.645-36.2-6.242,1.944-84.122,11.1-100.707c14.467-26.2,40.65-20.55,40.65-20.55Z" transform="translate(1.275 32.015)"/>
              <path id="Trazado_208969" data-name="Trazado 208969" d="M78.844,74.04s6.6-14.256-3.421-20.676-10.5-2.285-10.5-2.285Z" transform="translate(33.007 25.303)" fill="#fd521b"/>
              <path id="Trazado_208970" data-name="Trazado 208970" d="M71.174,57.839A16.887,16.887,0,0,1,88.928,68.533c5.387,12.671,20.137,59.825,20.137,59.825l55.814-30.885,17.749,34.77s-64.02,67.634-90.64,49.228S71.174,57.839,71.174,57.839" transform="translate(35.913 29.349)" fill="#6b8dfc"/>
              <path id="Trazado_208971" data-name="Trazado 208971" d="M28.816,148.629S47.206,292.079,89.881,409.62c0,0,37.923,7.709,59.145-10.7L97.148,175.348l6.106-7.753L91.241,138.572Z" transform="translate(14.65 70.451)" fill="#ffc849"/>
              <path id="Trazado_208972" data-name="Trazado 208972" d="M108.554,90.648s13.879,93.047.908,104.109-83.089.115-83.585-8.722,1.99-27.546,1.99-27.546l4.157-49.237L73.335,56.036,96.4,59.149Z" transform="translate(13.123 28.489)" fill="#6b8dfc"/>
              <path id="Trazado_208973" data-name="Trazado 208973" d="M85.954,130.432,26.021,154.286l-.793-14.544,55.39-16.22Z" transform="translate(12.826 62.799)"/>
              <path id="Trazado_208974" data-name="Trazado 208974" d="M99.95,58.381s-23.213-10.865-55.307,13.5-59.876,78.532-35.149,89.66,77.914,7.011,77.914,7.011l7.875-31.3-44.769-7.709L72.754,106.3Z" transform="translate(0 28.454)" fill="#6b8dfc"/>
              <path id="Trazado_208975" data-name="Trazado 208975" d="M75.553,143.712,51.029,56.843l4.423-.9,26.4,85.611Z" transform="translate(25.943 28.443)"/>
              <path id="Trazado_208976" data-name="Trazado 208976" d="M86.732,55.757S65.657,42.906,54.4,47.291s-9.444,16.927-9.444,16.927S59.59,57.66,88.592,76.164Z" transform="translate(22.802 23.579)" fill="#6b8dfc"/>
              <path id="Trazado_208977" data-name="Trazado 208977" d="M86.421,49.6,83.433,63.566,81.2,74,71.454,63.366l-12.235-8.6,4.263-18.552Z" transform="translate(30.108 18.413)" fill="#ed8c6b"/>
              <path id="Trazado_208978" data-name="Trazado 208978" d="M82.215,63.109,85.1,49.6,62.165,36.217l-.356,1.549Z" transform="translate(31.424 18.413)"/>
              <path id="Trazado_208979" data-name="Trazado 208979" d="M90.235,180.456a.566.566,0,0,1-.566-.558c-.009-.712-1-71.452-6.206-91.55C81.379,80.3,74.2,61.8,74.125,61.61a.566.566,0,0,1,1.056-.41c.071.187,7.278,18.755,9.378,26.865,5.242,20.229,6.233,91.106,6.242,91.818a.566.566,0,0,1-.558.573Z" transform="translate(37.666 30.931)"/>
              <path id="Trazado_208980" data-name="Trazado 208980" d="M49.554,152.921c-7.919,0-16.35-.214-22.982-.9a.566.566,0,1,1,.118-1.125c16.224,1.683,43.335.513,47.021.341l7.625-30.305-44.169-7.607a.564.564,0,0,1-.312-.947l22.24-23.24a.564.564,0,1,1,.816.78L38.405,112.389l43.724,7.53a.562.562,0,0,1,.451.7l-7.875,31.3a.568.568,0,0,1-.52.427c-.186.009-11.728.576-24.631.576" transform="translate(13.251 45.227)"/>
              <path id="Trazado_208981" data-name="Trazado 208981" d="M39.49,106.171a.486.486,0,0,1-.065,0l-17.243-2a.564.564,0,0,1-.5-.626.557.557,0,0,1,.626-.5l17.243,2a.565.565,0,0,1-.065,1.127" transform="translate(11.023 52.388)"/>
              <path id="Trazado_208982" data-name="Trazado 208982" d="M73.082,66.092a.566.566,0,0,1-.332-1.026,9.73,9.73,0,0,0,3.659-6.727.565.565,0,0,1,1.128.059,10.693,10.693,0,0,1-4.125,7.589.573.573,0,0,1-.33.106" transform="translate(36.867 29.387)"/>
              <path id="Trazado_208983" data-name="Trazado 208983" d="M87.3,70.5a.6.6,0,0,1-.2-.035,216.841,216.841,0,0,0-23.273-6.626c-12.77-3-18.425-.531-18.481-.5a.566.566,0,0,1-.474-1.029c.237-.109,6-2.668,19.214.43,11.488,2.7,19.326,5.254,22.2,6.24-6.089-13.618-21.629-18.7-21.79-18.751a.566.566,0,0,1,.342-1.079c.17.054,17.093,5.578,22.991,20.581a.565.565,0,0,1-.526.772" transform="translate(22.648 24.975)"/>
              <path id="Trazado_208984" data-name="Trazado 208984" d="M80.692,110.143l-15.371-4.228a4.664,4.664,0,0,0-5.755,3.591,5,5,0,0,0,3.77,6.046l15.606,3.086a4.137,4.137,0,0,0,4.843-3.546,4.416,4.416,0,0,0-3.094-4.949" transform="translate(30.219 53.764)" fill="#ed8c6b"/>
              <path id="Trazado_208985" data-name="Trazado 208985" d="M79.37,124.964l-18.618-3.957a4.605,4.605,0,0,1-3.537-4.478l-.009-.448a4.388,4.388,0,0,1,5.263-4.558l18.627,4.4a4.659,4.659,0,0,1,3.4,5.2,4.343,4.343,0,0,1-5.129,3.839" transform="translate(29.083 56.641)" fill="#ed8c6b"/>
              <path id="Trazado_208986" data-name="Trazado 208986" d="M78.285,125.191h0a4.017,4.017,0,0,0-3.014-4.3l-12.293-3.1a4.017,4.017,0,0,0-4.751,2.5l-.354.962a4.016,4.016,0,0,0,3.1,5.352l12.648,2.14a4.017,4.017,0,0,0,4.667-3.554" transform="translate(29.295 59.821)" fill="#ed8c6b"/>
              <path id="Trazado_208987" data-name="Trazado 208987" d="M74.165,128.857h0a3.478,3.478,0,0,0-2.552-3.24l-10.194-2.361a3,3,0,0,0-3.572,2.593l-.2,1.149a3.511,3.511,0,0,0,2.818,4.16l10.394,1.21a3.128,3.128,0,0,0,3.3-3.512" transform="translate(29.28 62.627)" fill="#ed8c6b"/>
              <path id="Trazado_208988" data-name="Trazado 208988" d="M60.471,111.354l.014-.017a.387.387,0,0,1,.545-.045,6.939,6.939,0,0,0,2.51,1.113l16.485,3.454a6.608,6.608,0,0,1,3.8,2.759,4.331,4.331,0,0,1,.2,3.536c-1.588,4.84-8.536,2.969-8.969,2.846L65.2,123.1c-.742-.145-4.735-1.115-5.741-1.434a.386.386,0,0,1,.234-.736c.99.315,4.923,1.27,5.653,1.412l9.874,1.91a.172.172,0,0,1,.038.009c.066.02,6.637,1.919,8.035-2.341a3.589,3.589,0,0,0-.149-2.928,5.9,5.9,0,0,0-3.3-2.376l-16.461-3.45a7.652,7.652,0,0,1-2.855-1.279.388.388,0,0,1-.059-.528" transform="translate(30.092 56.535)"/>
              <path id="Trazado_208989" data-name="Trazado 208989" d="M58.653,125.071a.387.387,0,0,1,.425-.134c.977.311,7.035,1.438,8.055,1.582.955.137,4.053.7,4.184.729.057.011,5.833,1,6.522-2.732a2.952,2.952,0,0,0-1.614-3.2,7.488,7.488,0,0,0-2.193-.878.386.386,0,1,1,.149-.757c1.781.35,5,1.84,4.418,4.978-.664,3.588-5.144,3.762-7.421,3.352-.033-.006-3.216-.59-4.156-.724-.958-.137-7.114-1.273-8.179-1.613a.385.385,0,0,1-.192-.6" transform="translate(29.78 60.841)"/>
              <path id="Trazado_208990" data-name="Trazado 208990" d="M62.875,105.542a.386.386,0,0,1,.4-.142c.1.026,9.936,2.484,13.93,3.524,4.208,1.1,6.283,3.56,5.69,6.762-.707,3.833-4.744,3.893-4.785,3.893a.386.386,0,0,1,0-.772c.142,0,3.439-.063,4.03-3.261.517-2.794-1.3-4.88-5.126-5.874-3.99-1.039-13.823-3.5-13.923-3.522a.387.387,0,0,1-.281-.469.381.381,0,0,1,.066-.139" transform="translate(31.926 53.58)"/>
              <path id="Trazado_208991" data-name="Trazado 208991" d="M56.657,38.438c-2.3-18.252,4.3-30.535,20.578-33.824,20.092-4.061,34.71,9.022,37.007,27.273s-4.477,37.855-21.078,37.865c-21.047.014-34.208-13.063-36.506-31.314" transform="translate(28.579 1.968)" fill="#ed8c6b"/>
              <path id="Trazado_208992" data-name="Trazado 208992" d="M98.647,29.059s-2.585-14.8-18.176-6.8c0,0,6.841,9.325,18.176,6.8" transform="translate(40.912 10.11)" fill="#fff"/>
              <path id="Trazado_208993" data-name="Trazado 208993" d="M103.064,23.551l-8.622,3.121L93.97,38.508Z" transform="translate(47.775 11.973)" fill="#ed8c6b"/>
              <path id="Trazado_208994" data-name="Trazado 208994" d="M77.772,4.713C61.5,8,53.239,20.156,55.538,38.409c.861,6.839,3.855,17.891,7.611,22.86L72.077,35.5c11.434.848,12.791-14.457,12.791-14.457C97.506,20.324,97.459,10.4,96.313,5.279,91,3.15,84.624,3.328,77.772,4.713" transform="translate(28.043 1.868)" fill="#ffb6c8"/>
              <path id="Trazado_208995" data-name="Trazado 208995" d="M83.1,17.612c.463,1.062,2.969.994,5.6-.152s4.382-2.934,3.919-4-2.967-.993-5.595.152-4.383,2.934-3.92,4" transform="translate(42.21 6.462)"/>
              <path id="Trazado_208996" data-name="Trazado 208996" d="M98.719,24.992c.513,4.067-1.971,7.729-5.548,8.179s-6.89-2.481-7.4-6.548,1.971-7.729,5.548-8.179,6.889,2.481,7.4,6.548" transform="translate(43.572 9.354)"/>
              <path id="Trazado_208997" data-name="Trazado 208997" d="M74.731,26.117C72,21.472,66.409,19.69,62.25,22.138s-5.317,8.2-2.584,12.843,8.322,6.427,12.482,3.979,5.316-8.2,2.582-12.843" transform="translate(29.581 10.697)" fill="#ed8c6b"/>
              <path id="Trazado_208998" data-name="Trazado 208998" d="M69.243,31.375a.877.877,0,0,1-.5-.155l-7.55-5.19a.876.876,0,1,1,1-1.442l7.55,5.19a.876.876,0,0,1-.5,1.6" transform="translate(30.92 12.42)"/>
              <path id="Trazado_208999" data-name="Trazado 208999" d="M63.1,32.258a.86.86,0,0,1-.555-.2.876.876,0,0,1-.122-1.232l2.768-3.382a.876.876,0,1,1,1.356,1.11l-2.769,3.382a.872.872,0,0,1-.677.321" transform="translate(31.635 13.79)"/>
              <path id="Trazado_209000" data-name="Trazado 209000" d="M83.872,338.736l-.252,28.887a3.642,3.642,0,0,0,4.269,3.62l76.9-13.426a5.535,5.535,0,0,0,4.477-6.528l-1.2-6.062a15.412,15.412,0,0,0-16.9-12.31l-25.341,2.951-16.73-5.29Z" transform="translate(42.513 168.067)" fill="#d7e5ff"/>
              <path id="Trazado_209001" data-name="Trazado 209001" d="M122.956,344.241a.472.472,0,0,1-.472-.469l-.057-6.958-8.669,6.314a.473.473,0,0,1-.744-.462l.891-5.219-28.319,4.945a.473.473,0,0,1-.41-.805l19.95-19.291-23.783,8.5a.473.473,0,0,1-.318-.892l25.843-9.23a.472.472,0,0,1,.487.784L86.94,341.2l27.464-4.8a.473.473,0,0,1,.548.545l-.808,4.733,8.471-6.171a.485.485,0,0,1,.492-.041.476.476,0,0,1,.259.419l.063,7.877a.473.473,0,0,1-.468.477Z" transform="translate(41.034 163.015)"/>
              <path id="Trazado_209002" data-name="Trazado 209002" d="M98.318,324.62a.472.472,0,0,1-.364-.17.467.467,0,0,1-.077-.472c.116-.3,2.929-7.465,7.547-9.008a5.726,5.726,0,0,1,5.02.723c1.356.845,1.952,1.769,1.771,2.744-.658,3.54-12.464,5.916-13.808,6.175a.459.459,0,0,1-.089.009m8.847-8.993a4.547,4.547,0,0,0-1.441.238c-3.337,1.115-5.75,5.745-6.616,7.64,4.846-1.024,11.794-3.18,12.177-5.242.1-.555-.348-1.151-1.341-1.769a5.235,5.235,0,0,0-2.78-.867" transform="translate(49.745 159.984)"/>
              <path id="Trazado_209003" data-name="Trazado 209003" d="M112.831,329.586c-4.658,0-13.91-6.584-15.081-7.43a.473.473,0,0,1,.1-.821c.362-.146,8.933-3.567,14.052-.8a6.808,6.808,0,0,1,3.459,4.939c.367,1.843.062,3.1-.908,3.715a2.955,2.955,0,0,1-1.622.4m-13.8-7.678c3.925,2.741,12.482,8.037,14.909,6.482.609-.391.774-1.311.49-2.736a5.9,5.9,0,0,0-2.979-4.29c-3.858-2.083-10.17-.231-12.42.544" transform="translate(49.597 162.413)"/>
              <path id="Trazado_209004" data-name="Trazado 209004" d="M83.8,358.026a.473.473,0,0,1-.081-.938L168.8,342.233a.472.472,0,1,1,.163.931L83.885,358.018a.509.509,0,0,1-.081.008" transform="translate(42.366 173.988)"/>
              <path id="Trazado_209005" data-name="Trazado 209005" d="M36.249,250.128,6.656,252.81a3.747,3.747,0,0,0-3.27,4.738l21.567,77.336a5.692,5.692,0,0,0,7.136,3.917l6.083-1.848a15.851,15.851,0,0,0,10.88-18.547l-5.6-25.637,3.712-17.662Z" transform="translate(1.651 127.166)" fill="#d7e5ff"/>
              <path id="Trazado_209006" data-name="Trazado 209006" d="M28.493,291.178a.5.5,0,0,1-.053-.991l7.1-.765L28.2,281.209a.5.5,0,0,1-.077-.551.482.482,0,0,1,.481-.276l5.418.38L26.088,252.3a.5.5,0,0,1,.8-.511l21.736,18.422L37.532,246.775a.5.5,0,1,1,.9-.425l12.076,25.512a.5.5,0,0,1-.146.608.493.493,0,0,1-.623-.017L27.48,253.59l7.693,27.584a.5.5,0,0,1-.092.448.486.486,0,0,1-.421.181l-4.9-.344,7.16,8.023a.5.5,0,0,1-.317.825l-8.058.867-.053,0" transform="translate(13.254 125.101)"/>
              <path id="Trazado_209007" data-name="Trazado 209007" d="M49.566,277.136c-.056,0-.11,0-.166-.008-3.7-.312-7.334-12.161-7.737-13.511a.5.5,0,0,1,.608-.621c.324.089,7.943,2.24,9.995,6.815a5.891,5.891,0,0,1-.229,5.221c-.688,1.4-1.519,2.1-2.471,2.1m-6.672-12.9c1.542,4.851,4.447,11.72,6.589,11.9.566.065,1.134-.469,1.664-1.545a4.959,4.959,0,0,0,.214-4.374c-1.472-3.282-6.427-5.281-8.467-5.981" transform="translate(21.172 133.699)"/>
              <path id="Trazado_209008" data-name="Trazado 209008" d="M40.226,281.625a2.452,2.452,0,0,1-2.044-.873c-2.735-3.451,4.643-16.362,5.494-17.82a.519.519,0,0,1,.44-.247.5.5,0,0,1,.43.264c.187.356,4.561,8.783,2.254,14.312a7.011,7.011,0,0,1-4.709,4.047,6.489,6.489,0,0,1-1.864.318m3.843-17.377c-2.407,4.3-6.943,13.57-5.109,15.888q.692.867,2.84.22a6.052,6.052,0,0,0,4.08-3.478c1.73-4.141-.786-10.388-1.812-12.63" transform="translate(19.104 133.55)"/>
              <path id="Trazado_209009" data-name="Trazado 209009" d="M32.354,337.878a.5.5,0,0,1-.478-.364L8.014,251.952a.5.5,0,1,1,.958-.267l23.861,85.563a.5.5,0,0,1-.347.612.447.447,0,0,1-.133.018" transform="translate(4.065 127.772)"/>
              <path id="Trazado_209010" data-name="Trazado 209010" d="M58.2,287.123a.566.566,0,0,1-.549-.431L43.094,226.878a.566.566,0,1,1,1.1-.269l14.555,59.814a.565.565,0,0,1-.415.683.521.521,0,0,1-.134.017" transform="translate(21.901 114.988)"/>
              <path id="Trazado_209011" data-name="Trazado 209011" d="M103.508,292.162a.565.565,0,0,1-.552-.437l-29.2-125.84a.568.568,0,0,1,.107-.478l6.1-7.753a.566.566,0,1,1,.888.7l-5.936,7.539,29.136,125.575a.566.566,0,0,1-.421.679.547.547,0,0,1-.128.015" transform="translate(37.492 80.043)"/>
              <path id="Trazado_209012" data-name="Trazado 209012" d="M83.026,34.134c-.2-4.4,15.693,2.041,12.61,5.171-3.593,3.646-12.395-.373-12.61-5.171" transform="translate(42.21 16.597)"/>
            </g>
          </g>
          <g id="Grupo_983401" data-name="Grupo 983401" transform="translate(125.233 49.242)">
            <g id="Grupo_983400" data-name="Grupo 983400" clip-path="url(#clip-path-6)">
              <path id="Trazado_209013" data-name="Trazado 209013" d="M100.254,35.677s-11.892-2.813-17.816-1.324-1.08,9.942-1.08,9.942l18.306,4.228,4.549-11.677Z" transform="translate(-84.818 -31.998)" fill="#fd521b"/>
            </g>
          </g>
        </g>
      </g>
    </g>
  </g>
</svg>
