<svg id="Grupo_173953" data-name="Grupo 173953" xmlns="http://www.w3.org/2000/svg" width="833.508" height="355.776" viewBox="0 0 833.508 355.776">
  <path id="Trazado_178656" data-name="Trazado 178656" d="M1212.872,1965.875c-33.48,31.591-60.926,72.587-96.909,99.774-49.424,37.343-109.788,44.929-167.858,48.16S830.461,2117.178,776.1,2142.3c-43.447,20.077-83.49,60.543-99.818,112.109H787.812c24.853-47.2,62.386-84.622,106.14-102.1,87.349-34.891,188.929,4.876,271.221-45.074,58.295-35.384,97.688-111.271,160.1-133.9,45.157-16.369,94.848-.892,135.277,28.611,17.661,12.888,33.878,28.234,49.237,44.918V1936.122C1417.043,1877.727,1295.953,1887.479,1212.872,1965.875Z" transform="translate(-676.28 -1898.632)" fill="#ffe891"/>
  <path id="Trazado_178657" data-name="Trazado 178657" d="M1289.656,1943.245c-62.413,22.626-101.806,98.513-160.1,133.9-82.292,49.95-183.872,10.183-271.221,45.074-43.754,17.477-81.287,54.9-106.14,102.1H1474.17V2016.772c-15.359-16.683-31.576-32.029-49.237-44.918C1384.5,1942.352,1334.813,1926.875,1289.656,1943.245Z" transform="translate(-640.662 -1868.539)" fill="#ffe891" opacity="0.614"/>
</svg>
