<svg id="apoyo_2_" data-name="apoyo (2)" xmlns="http://www.w3.org/2000/svg" width="85.7" height="85.7" viewBox="0 0 85.7 85.7">
  <path id="Trazado_676805" data-name="Trazado 676805" d="M348.548,8.533H329.98a5.714,5.714,0,0,0-5.713,5.713V28.53a5.714,5.714,0,0,0,5.713,5.713h4.285v7.142l7.142-7.142h7.142a5.713,5.713,0,0,0,5.713-5.713V14.246A5.714,5.714,0,0,0,348.548,8.533Z" transform="translate(-269.99 -7.105)" fill="#fff3e6"/>
  <path id="Trazado_676806" data-name="Trazado 676806" d="M361.287,13.466C355.392,27.518,343.8,34.037,336.06,36.922A5.659,5.659,0,0,0,339.8,38.35h4.285v7.142l7.142-7.142h7.142a5.714,5.714,0,0,0,5.713-5.713V18.354A5.693,5.693,0,0,0,361.287,13.466Z" transform="translate(-279.809 -11.212)" fill="#f0e4d6"/>
  <path id="Trazado_676807" data-name="Trazado 676807" d="M67.094,291.745l14.283-27.138H69.95l-7.142,12.855V266.035a8.57,8.57,0,0,0-8.57-8.57h-8.57a4.285,4.285,0,0,1-4.285-4.285v-5.713H29.957v5.713a4.285,4.285,0,0,1-4.285,4.285H17.1a8.57,8.57,0,0,0-8.57,8.57v25.71Z" transform="translate(-7.104 -206.045)" fill="#fec9a3"/>
  <g id="Grupo_951647" data-name="Grupo 951647" transform="translate(7.142 64.141)">
    <path id="Trazado_676808" data-name="Trazado 676808" d="M48.332,404.757H45.475v-3.8a14.237,14.237,0,0,1-.59-16.116L45.93,383.2l2.412,1.531L47.3,386.373a11.379,11.379,0,0,0,.721,13.206,1.427,1.427,0,0,1,.313.893v4.285Z" transform="translate(-42.669 -383.198)" fill="#f5b789"/>
    <path id="Trazado_676809" data-name="Trazado 676809" d="M267.639,404.757h-2.857v-4.285a1.427,1.427,0,0,1,.313-.893,11.377,11.377,0,0,0,.721-13.2l-1.044-1.645,2.413-1.531,1.044,1.645a14.237,14.237,0,0,1-.59,16.116Z" transform="translate(-227.596 -383.198)" fill="#f5b789"/>
  </g>
  <path id="Trazado_676810" data-name="Trazado 676810" d="M91.193,42.813V28.53a20,20,0,0,0-20-20h0a20,20,0,0,0-20,20V42.813a8.57,8.57,0,0,0,8.57,8.57H82.623A8.569,8.569,0,0,0,91.193,42.813Z" transform="translate(-42.63 -7.105)" fill="#f9e34d"/>
  <path id="Trazado_676811" data-name="Trazado 676811" d="M142.247,8.533a20,20,0,0,0-5.713.838A20,20,0,0,1,150.817,28.53V42.813a8.57,8.57,0,0,1-8.57,8.57h11.427a8.57,8.57,0,0,0,8.57-8.57V28.53A20,20,0,0,0,142.247,8.533Z" transform="translate(-113.681 -7.105)" fill="#dcc62c"/>
  <path id="Trazado_676812" data-name="Trazado 676812" d="M388.322,307.237H375.467a8.57,8.57,0,0,1,8.57-8.57h12.855A8.57,8.57,0,0,1,388.322,307.237Z" transform="translate(-312.62 -248.675)" fill="#fec9a3"/>
  <g id="Grupo_951648" data-name="Grupo 951648" transform="translate(59.99 7.142)">
    <rect id="Rectángulo_337407" data-name="Rectángulo 337407" width="9.998" height="2.857" fill="#ccbfb0"/>
    <rect id="Rectángulo_337408" data-name="Rectángulo 337408" width="5.713" height="2.857" transform="translate(12.855)" fill="#ccbfb0"/>
    <rect id="Rectángulo_337409" data-name="Rectángulo 337409" width="18.568" height="2.857" transform="translate(0 5.713)" fill="#ccbfb0"/>
    <rect id="Rectángulo_337410" data-name="Rectángulo 337410" width="9.998" height="2.857" transform="translate(0 11.427)" fill="#ccbfb0"/>
  </g>
  <path id="Trazado_676813" data-name="Trazado 676813" d="M147.968,253.253v-5.786H136.534v5.786a12.751,12.751,0,0,0,11.441,0Z" transform="translate(-113.681 -206.045)" fill="#f7c097"/>
  <path id="Trazado_676814" data-name="Trazado 676814" d="M93.867,94.405v6.15a12.855,12.855,0,1,0,25.71,0V89.129a12.785,12.785,0,0,0-1.538-6.1Z" transform="translate(-78.155 -69.132)" fill="#fec9a3"/>
  <rect id="Rectángulo_337411" data-name="Rectángulo 337411" width="19.997" height="15.712" transform="translate(18.568 59.99)" fill="#13c6cc"/>
  <path id="Trazado_676815" data-name="Trazado 676815" d="M69.951,314.342,62.81,327.2V315.77a8.57,8.57,0,0,0-8.57-8.57H49.669l-14,18.568L22.388,307.2H17.1a8.57,8.57,0,0,0-8.57,8.57v25.71H67.095l14.283-27.138Z" transform="translate(-7.105 -255.78)" fill="#4398d1"/>
  <path id="Trazado_676816" data-name="Trazado 676816" d="M188.373,314.611H176.946L169.8,327.466V316.04a8.57,8.57,0,0,0-7.629-8.516c-2.571,19.952-14.556,29.6-25.138,34.226h37.052Z" transform="translate(-114.099 -256.05)" fill="#3f8fc4"/>
  <g id="Grupo_951649" data-name="Grupo 951649" transform="translate(7.142 64.141)">
    <path id="Trazado_676817" data-name="Trazado 676817" d="M48.332,404.757H45.475v-3.8a14.237,14.237,0,0,1-.59-16.116L45.93,383.2l2.412,1.531L47.3,386.373a11.379,11.379,0,0,0,.721,13.206,1.427,1.427,0,0,1,.313.893v4.285Z" transform="translate(-42.669 -383.198)" fill="#3685ba"/>
    <path id="Trazado_676818" data-name="Trazado 676818" d="M267.639,404.757h-2.857v-4.285a1.427,1.427,0,0,1,.313-.893,11.377,11.377,0,0,0,.721-13.2l-1.044-1.645,2.413-1.531,1.044,1.645a14.237,14.237,0,0,1-.59,16.116Z" transform="translate(-227.596 -383.198)" fill="#3685ba"/>
  </g>
  <path id="Trazado_676819" data-name="Trazado 676819" d="M183.522,100.555V89.128a12.786,12.786,0,0,0-1.538-6.1l-3.625,1.705a19.908,19.908,0,0,1,.878,5.822V104.84a8.57,8.57,0,0,1-8.57,8.57,12.854,12.854,0,0,0,12.855-12.855Z" transform="translate(-142.1 -69.131)" fill="#f7c097"/>
  <path id="Trazado_676820" data-name="Trazado 676820" d="M75.518,44.278H74.089v2.857h1.428a10.009,10.009,0,0,0,10-10V21.425a21.425,21.425,0,1,0-42.85,0V37.137a10.009,10.009,0,0,0,10,10h1.428V44.278H52.664a7.15,7.15,0,0,1-7.142-7.142V21.425a18.568,18.568,0,0,1,37.137,0V37.137A7.15,7.15,0,0,1,75.518,44.278Z" transform="translate(-35.524)"/>
  <path id="Trazado_676821" data-name="Trazado 676821" d="M48.341,384.729,45.929,383.2l-1.044,1.645a14.237,14.237,0,0,0,.59,16.116v3.8h2.857v-4.285a1.427,1.427,0,0,0-.313-.893,11.379,11.379,0,0,1-.721-13.206Z" transform="translate(-35.526 -319.057)"/>
  <path id="Trazado_676822" data-name="Trazado 676822" d="M341.443,0H322.875a7.15,7.15,0,0,0-7.142,7.142V21.425a7.15,7.15,0,0,0,7.142,7.142h2.857V34.28a1.429,1.429,0,0,0,.881,1.32,1.429,1.429,0,0,0,1.557-.31l6.723-6.723h6.55a7.15,7.15,0,0,0,7.142-7.142V7.142A7.15,7.15,0,0,0,341.443,0Zm4.285,21.425a4.285,4.285,0,0,1-4.285,4.285H334.3a1.425,1.425,0,0,0-1.01.418l-4.7,4.7V27.138a1.429,1.429,0,0,0-1.428-1.428h-4.285a4.285,4.285,0,0,1-4.285-4.285V7.142a4.285,4.285,0,0,1,4.285-4.285h18.568a4.285,4.285,0,0,1,4.285,4.285Z" transform="translate(-262.885)"/>
  <rect id="Rectángulo_337412" data-name="Rectángulo 337412" width="9.998" height="2.857" transform="translate(59.99 7.142)"/>
  <rect id="Rectángulo_337413" data-name="Rectángulo 337413" width="5.713" height="2.857" transform="translate(72.845 7.142)"/>
  <rect id="Rectángulo_337414" data-name="Rectángulo 337414" width="18.568" height="2.857" transform="translate(59.99 12.855)"/>
  <rect id="Rectángulo_337415" data-name="Rectángulo 337415" width="9.998" height="2.857" transform="translate(59.99 18.568)"/>
  <path id="Trazado_676823" data-name="Trazado 676823" d="M264.782,400.472v4.285h2.857v-3.8a14.237,14.237,0,0,0,.59-16.116l-1.044-1.645-2.413,1.531,1.044,1.645a11.377,11.377,0,0,1-.721,13.2A1.427,1.427,0,0,0,264.782,400.472Z" transform="translate(-220.454 -319.057)"/>
  <path id="Trazado_676824" data-name="Trazado 676824" d="M2.857,122.023A7.15,7.15,0,0,1,10,114.882h4.545l12.862,17.971a1.426,1.426,0,0,0,1.143.6h.019a1.428,1.428,0,0,0,1.143-.571l13.569-18h3.856a7.15,7.15,0,0,1,7.142,7.142V133.45a1.428,1.428,0,0,0,2.677.693l6.733-12.119h8.189l-13.926,25.71H61.2l13.932-25.71H75.7a10.009,10.009,0,0,0,10-10,1.429,1.429,0,0,0-1.428-1.428H71.417a10,10,0,0,0-9.978,9.591l-4.3,7.75v-5.915a10.009,10.009,0,0,0-10-10h-5.22l-.038-.03-.026.03H38.565a2.856,2.856,0,0,1-2.857-2.857v-3.361A14.284,14.284,0,0,0,42.85,93.457V82.03a14.307,14.307,0,0,0-1.714-6.779,1.429,1.429,0,0,0-1.857-.614L15.1,86.012a1.43,1.43,0,0,0-.82,1.293v6.152a14.284,14.284,0,0,0,7.142,12.351v3.361a2.856,2.856,0,0,1-2.857,2.857H10a10.009,10.009,0,0,0-10,10v25.71H2.857Zm68.56-8.57H82.7a7.153,7.153,0,0,1-7,5.713H64.418A7.153,7.153,0,0,1,71.417,113.453ZM28.6,129.611l-4.408-6.159h9.05ZM17.14,93.457V88.212L39.195,77.834a11.433,11.433,0,0,1,.8,4.2V93.457a11.427,11.427,0,1,1-22.853,0Zm1.428,21.425a5.714,5.714,0,0,0,5.713-5.713v-2.087a14.264,14.264,0,0,0,8.57,0v2.087a5.714,5.714,0,0,0,5.713,5.713h1.143L35.4,120.595H22.139l-4.089-5.713Z" transform="translate(0 -62.033)"/>
</svg>
