<svg id="Grupo_984706" data-name="Grupo 984706" xmlns="http://www.w3.org/2000/svg" xmlns:xlink="http://www.w3.org/1999/xlink" width="1172.5" height="433" viewBox="0 0 1172.5 433">
  <defs>
    <clipPath id="clip-path">
      <rect id="Rectángulo_45714" data-name="Rectángulo 45714" width="1172.5" height="431.902" fill="#e5ebff" opacity="0.57"/>
    </clipPath>
    <clipPath id="clip-path-2">
      <rect id="Rectángulo_45764" data-name="Rectángulo 45764" width="1172.5" height="431.902" fill="#ffbfc1" opacity="0.57"/>
    </clipPath>
    <clipPath id="clip-path-3">
      <rect id="Rectángulo_45772" data-name="Rectángulo 45772" width="1172.5" height="431.902" rx="10" fill="#e6ecff" opacity="0.57"/>
    </clipPath>
    <clipPath id="clip-path-4">
      <path id="Trazado_186631" data-name="Trazado 186631" d="M0,0H1172.5V433H0Z" fill="#e8e8e8" opacity="0.37"/>
    </clipPath>
    <clipPath id="clip-path-5">
      <rect id="Rectángulo_41289" data-name="Rectángulo 41289" width="405.975" height="259.245" fill="#6b8dfc"/>
    </clipPath>
  </defs>
  <g id="Grupo_982060" data-name="Grupo 982060" transform="translate(0)">
    <g id="Enmascarar_grupo_319" data-name="Enmascarar grupo 319" transform="translate(0 1.097)" opacity="0.57" clip-path="url(#clip-path)">
      <g id="Grupo_175720" data-name="Grupo 175720" transform="translate(679.675 0)">
        <g id="Grupo_175718" data-name="Grupo 175718" transform="translate(23.465 110.357)">
          <path id="Trazado_185972" data-name="Trazado 185972" d="M349.357,386.977s-31.59,20.673-34.827,92.766h17.779Z" transform="translate(-256.121 -240.287)" fill="#e5ebff"/>
          <g id="Grupo_175717" data-name="Grupo 175717" transform="translate(0 123.519)">
            <path id="Trazado_185973" data-name="Trazado 185973" d="M293.165,388.2c.365.973-14.906,18.768-38.509,14.115l-1.067-6.056s21.145,4.84,36.565-9.981Z" transform="translate(-248.986 -363.68)" fill="#e5ebff"/>
            <path id="Trazado_185974" data-name="Trazado 185974" d="M315.759,471.286l-16.086-98.365s-31.065,9.407-35.487-14.175l-4.736,3.154s6.164,17.149,20.958,18.319c0,0-12.9,6.954-23.405-12.617l-5.633,5.594s8.66,15.306,28.657,10.288c0,0-20.012,3.922-29.128-6.256l-2.524,6.354S269.909,397,288.428,387.64l-6.395,85.444Z" transform="translate(-248.375 -358.746)" fill="#e5ebff"/>
          </g>
          <path id="Trazado_185975" data-name="Trazado 185975" d="M354.467,261.921l3.711,111.261,28.755-3.563L382.464,256.4Z" transform="translate(-260.798 -216.883)" fill="#e5ebff"/>
          <path id="Trazado_185976" data-name="Trazado 185976" d="M386.528,370.485,353.342,374.4l-24.493,102.3,87.3-.231S427.69,421.758,386.528,370.485Z" transform="translate(-257.798 -237.331)" fill="#e5ebff"/>
          <path id="Trazado_185977" data-name="Trazado 185977" d="M388.046,371.007,372.852,476.88h49.942S428.389,382.51,388.046,371.007Z" transform="translate(-262.951 -237.424)" fill="#e5ebff"/>
          <path id="Trazado_185978" data-name="Trazado 185978" d="M350.729,396.871s22.058,3.392,34.726-26.344l-28.548-2.2Z" transform="translate(-260.36 -236.944)" fill="#e5ebff"/>
          <path id="Trazado_185979" data-name="Trazado 185979" d="M390.5,383.222l8.1,27.9h-9.139L384.952,423.3l1.83-15.769h6.712Z" transform="translate(-264.367 -239.614)" fill="#e5ebff"/>
          <path id="Trazado_185980" data-name="Trazado 185980" d="M345.918,393.373l-10.5,22.072h5.978v6.676l2.637-9.695h-3.372Z" transform="translate(-258.567 -241.433)" fill="#e5ebff"/>
          <path id="Trazado_185981" data-name="Trazado 185981" d="M355.922,367.318l30.142-21.205V317.3l-28.451,29.477Z" transform="translate(-260.968 -227.798)" fill="#e5ebff"/>
          <path id="Trazado_185982" data-name="Trazado 185982" d="M377.912,233.556s29.03-6.531,33.571,26.53S384.5,305.376,384.5,305.376Z" transform="translate(-263.543 -212.695)" fill="#e5ebff"/>
          <path id="Trazado_185983" data-name="Trazado 185983" d="M314.436,241.326,287.93,303.94l26.222-2.342.712,12.069s36.548,11.776,38.323-6.126c0,0-.017,21.117-38.319,21.739l.845,15.7s62.4,3.858,55.543-44.1-5.2-54.13-5.2-54.13l-51.62-5.425Z" transform="translate(-253.007 -214.182)" fill="#e5ebff"/>
          <path id="Trazado_185984" data-name="Trazado 185984" d="M332.877,277.483s-1.39,19.516-10.086,13.6c-3.176-2.161.433-15.965.433-15.965s.49,11.818,2.2,12.573C328.6,289.093,332.877,277.483,332.877,277.483Z" transform="translate(-256.936 -220.238)" fill="#e5ebff"/>
          <path id="Trazado_185985" data-name="Trazado 185985" d="M352.22,293.485a6.068,6.068,0,0,1-5.551,6.673A6.343,6.343,0,0,1,339.49,295a6.067,6.067,0,0,1,5.552-6.672A6.341,6.341,0,0,1,352.22,293.485Z" transform="translate(-259.038 -222.596)" fill="#e5ebff"/>
          <path id="Trazado_185986" data-name="Trazado 185986" d="M376.256,242.7l-81.189-9.174s.037-13.348,28.114-13.2l-14.652-7.452S364.6,190.927,376.256,242.7Z" transform="translate(-253.842 -208.254)" fill="#e5ebff"/>
          <path id="Trazado_185987" data-name="Trazado 185987" d="M383.77,268.586l-3.388-27.227L362.66,239.7S340.581,284.771,383.77,268.586Z" transform="translate(-261.096 -213.89)" fill="#e5ebff"/>
          <path id="Trazado_185988" data-name="Trazado 185988" d="M401.967,282.788c.6,4.35-2.713,8.325-7.391,8.881s-8.957-2.521-9.553-6.871,2.71-8.326,7.39-8.881S401.367,278.438,401.967,282.788Z" transform="translate(-264.367 -220.37)" fill="#e5ebff"/>
          <path id="Trazado_185989" data-name="Trazado 185989" d="M323.132,258.327l18.743.286s-1.852-6.744-18.492-6.757Z" transform="translate(-257.128 -216.069)" fill="#e5ebff"/>
          <path id="Trazado_185990" data-name="Trazado 185990" d="M287.671,416.895l21.666-1.471,11.912,69.417H285.722Z" transform="translate(-252.748 -245.385)" fill="#e5ebff"/>
          <path id="Trazado_185991" data-name="Trazado 185991" d="M282.729,409.972h28.162l2.818,7.547-28.338,1.63Z" transform="translate(-252.398 -244.408)" fill="#e5ebff"/>
          <path id="Trazado_185992" data-name="Trazado 185992" d="M401.257,377.149l64.76,49.6L455.68,477.981H424.513L436.6,435.4l-28.983-18Z" transform="translate(-266.276 -238.525)" fill="#e5ebff"/>
          <path id="Trazado_185993" data-name="Trazado 185993" d="M437.028,443.57l-32.113-20.833,36.313,17.882-14.467,43.934-.213-5.914Z" transform="translate(-266.705 -246.696)" fill="#e5ebff"/>
          <path id="Trazado_185994" data-name="Trazado 185994" d="M384.952,237.473s22.745,8.739,22.662,29.119C407.614,266.592,415.3,236.709,384.952,237.473Z" transform="translate(-264.367 -213.488)" fill="#e5ebff"/>
          <path id="Trazado_185995" data-name="Trazado 185995" d="M300.442,233.1s6.891-5.691,22.795-4.57C323.237,228.534,312.37,218.813,300.442,233.1Z" transform="translate(-254.472 -211.31)" fill="#e5ebff"/>
          <path id="Trazado_185996" data-name="Trazado 185996" d="M302.959,274.355l-15.029,35.5,26.222-2.343Z" transform="translate(-253.007 -220.101)" fill="#e5ebff" opacity="0.5"/>
          <path id="Trazado_185997" data-name="Trazado 185997" d="M398.775,283.137s-7.551-3.856-9.619,8.48C389.156,291.618,394.129,283.046,398.775,283.137Z" transform="translate(-264.86 -221.573)" fill="#e5ebff"/>
          <path id="Trazado_185998" data-name="Trazado 185998" d="M317.818,305.426s35.579,8.508,49.952-17.811-1.942-40.248-1.942-40.248l12.208-.425S406.291,350,317.818,353.5Z" transform="translate(-256.506 -215.188)" fill="#e5ebff"/>
          <path id="Trazado_185999" data-name="Trazado 185999" d="M314.12,324.9s27.857,4.03,37.833-6.349c0,0,2.755,29.435-36.688,25.656Z" transform="translate(-256.073 -228.022)" fill="#e5ebff"/>
          <path id="Trazado_186000" data-name="Trazado 186000" d="M321.483,357.892s38.248.635,54.227-29.2c0,0-5.145,34.235-54.227,37.19Z" transform="translate(-256.936 -229.841)" fill="#e5ebff"/>
        </g>
        <g id="Grupo_175719" data-name="Grupo 175719" transform="translate(0 0)">
          <path id="Trazado_186001" data-name="Trazado 186001" d="M296.56,74.694C247.5,77.813,221.8,97.881,221.8,126.483c0,16.929,8.035,31.864,25.339,41.292a42.837,42.837,0,0,0,6.822,18.537c17.164,25.127,33.075,27.588,33.075,27.588-10.942-11.346-14.981-24.6-15.151-37.78a140.747,140.747,0,0,0,24.677,2.154c86.65.464,114.27-13.573,114.27-48.576C410.83,93.267,390.478,68.72,296.56,74.694Z" transform="translate(-221.798 -73.798)" fill="#e5ebff"/>
        </g>
      </g>
      <rect id="Rectángulo_45713" data-name="Rectángulo 45713" width="1172.5" height="756.168" transform="translate(0 -0.036)" fill="#e5ebff"/>
      <g id="Grupo_175721" data-name="Grupo 175721" transform="translate(-14.092 -131.733)" opacity="0.254">
        <path id="Trazado_186003" data-name="Trazado 186003" d="M997.944,2221.788c83.126-22.958,135.593-99.96,213.234-135.863,109.6-50.683,244.895-10.333,361.234-45.735,58.275-17.734,108.265-55.7,141.366-103.6H752.194v210.588c20.457,16.928,42.055,32.5,65.578,45.578C871.619,2222.694,937.8,2238.4,997.944,2221.788Z" transform="translate(-752.194 -1936.593)" fill="#e5ebff" opacity="0.614"/>
        <path id="Trazado_186004" data-name="Trazado 186004" d="M15.386,0H1079.417c8.5,0,15.387,8.628,15.387,19.271V739.724c0,10.644-6.889,19.271-15.387,19.271H15.386C6.889,759,0,750.368,0,739.724V19.271C0,8.628,6.889,0,15.386,0Z" transform="translate(15.326 7.278)" fill="none"/>
      </g>
    </g>
    <g id="Enmascarar_grupo_327" data-name="Enmascarar grupo 327" transform="translate(0 1.097)" clip-path="url(#clip-path-2)">
      <g id="Grupo_176633" data-name="Grupo 176633" transform="translate(-629.282 59.77) rotate(30)" opacity="0.254">
        <path id="Trazado_186092" data-name="Trazado 186092" d="M708.668,10.38C627.11,37.792,571.108,114.5,493.884,153.844c-109.014,55.541-236.13,26.3-350.512,67.768C86.077,242.386,35.281,281.834,0,329.577l924.233-64.693L939.474,64.75c-18.437-14.712-38.07-28.057-59.732-38.9C830.153,1.021,767.678-9.451,708.668,10.38Z" transform="translate(0 0)" fill="#dddeff" opacity="0.614"/>
      </g>
    </g>
    <g id="Enmascarar_grupo_334" data-name="Enmascarar grupo 334" transform="translate(0 1.097)" clip-path="url(#clip-path-3)">
      <g id="Grupo_173646" data-name="Grupo 173646" transform="translate(-40.304 -115.411)">
        <path id="Trazado_178337" data-name="Trazado 178337" d="M38.826,0h1191.48c21.443,0,38.826,14.428,38.826,32.225V473.3c0,17.8-17.383,32.225-38.826,32.225H38.826C17.383,505.527,0,491.1,0,473.3V32.225C0,14.428,17.383,0,38.826,0Z" transform="translate(38.668 67.518)" fill="#e1e8ff"/>
        <path id="Trazado_178348" data-name="Trazado 178348" d="M1328.547,31.354A872.2,872.2,0,0,0,1095.149,0C710.551,0,398.77,243.607,398.77,544.114a431.517,431.517,0,0,0,12.646,103.532h917.13Z" transform="translate(-7.357)" fill="#f7f9ff"/>
        <path id="Trazado_178349" data-name="Trazado 178349" d="M482.7,23.783C426.366,131.217,299.038,206.166,150.976,206.166a423.85,423.85,0,0,1-109.4-14.2V23.783Z" transform="translate(-41.579 -0.3)" fill="#f0f4ff"/>
        <line id="Línea_1427" data-name="Línea 1427" y2="3.019" transform="translate(199.514 614.585)" fill="#1d2b5e"/>
      </g>
    </g>
    <g id="Grupo_177466" data-name="Grupo 177466" opacity="0.48" clip-path="url(#clip-path-4)">
      <g id="Grupo_177463" data-name="Grupo 177463" transform="translate(859.754 -357.075)">
        <g id="Grupo_177462" data-name="Grupo 177462" transform="translate(0)">
          <path id="Trazado_186627" data-name="Trazado 186627" d="M347.581,177.829c-6.373,47.221-41.3,94.707-84,101.023-49.129,8.353-91.47-18.677-140.042-14.961-24.587-.381-48.694,12.459-73.123,17.989C-4.309,288.716-6.771,215.727,7.172,167.388,67.845-60.078,369-54.861,347.581,177.829Z" transform="matrix(0.602, 0.799, -0.799, 0.602, 241.441, 0)" fill="#e4e8f9"/>
          <path id="Trazado_186628" data-name="Trazado 186628" d="M0,157.624c.92,37.764,21.816,73.254,51.243,74.656,33.778,2.5,65.457-23.132,99.194-24.351,17.247-2.453,33.165,5.864,49.858,8.222,37.813.777,45.013-58.669,38.876-96.68C213.749-59.828,2.458-29.336,0,157.624Z" transform="translate(37.719 500.786) rotate(-99)" fill="#afb8ee" opacity="0.21" style="mix-blend-mode: multiply;isolation: isolate"/>
        </g>
      </g>
      <g id="Grupo_177465" data-name="Grupo 177465" transform="translate(-132.47 300.12)">
        <g id="Grupo_177464" data-name="Grupo 177464" transform="translate(0 0)">
          <path id="Trazado_186629" data-name="Trazado 186629" d="M250.833,128.331c-4.6,34.078-29.8,68.346-60.617,72.9-35.454,6.028-66.009-13.479-101.062-10.8-17.744-.275-35.14,8.991-52.769,12.982C-3.109,208.354-4.886,155.68,5.175,120.8,48.96-43.356,266.292-39.591,250.833,128.331Z" transform="matrix(-0.602, -0.799, 0.799, -0.602, 151.428, 361.394)" fill="#b9c3f1" opacity="0.4"/>
          <path id="Trazado_186630" data-name="Trazado 186630" d="M0,113.75C.664,141,15.743,166.614,36.98,167.626c24.376,1.8,47.237-16.693,71.583-17.573,12.446-1.77,23.934,4.232,35.98,5.934,27.288.561,32.484-42.339,28.055-69.77C154.253-43.175,1.774-21.17,0,113.75Z" transform="translate(298.445 0) rotate(81)" fill="#dce2fd" opacity="0.32" style="mix-blend-mode: multiply;isolation: isolate"/>
        </g>
      </g>
    </g>
  </g>
  <g id="Grupo_982061" data-name="Grupo 982061" transform="translate(766.525 173.755)" opacity="0.12">
    <g id="Enmascarar_grupo_167" data-name="Enmascarar grupo 167" transform="translate(0 0)" clip-path="url(#clip-path-5)">
      <g id="Grupo_166176" data-name="Grupo 166176" transform="translate(67.709 41.107)">
        <path id="Unión_28" data-name="Unión 28" d="M175.19,371.966c-30.358-1.779-55.316-26.1-75.372-45.645-3.371-3.287-6.641-6.475-9.824-9.455C64.161,292.713,38.376,267.7,13.44,243.51l-3-2.9C1.27,231.712-2.01,220.473,1.2,208.968c3.5-12.544,14.5-23.151,27.368-26.407,11.719-2.958,23.143.328,32.135,9.277v-.005c18.188,18.085,38.008,36.895,60.164,57.088l-2.636-5.589c-7.446-15.8-15.144-32.131-22.145-48.5-7.031-16.438-13.635-34.028-16.818-51.271-3.515-19.042-2.952-37.689,5.544-54.222C94.706,70.076,109.25,58.994,128.039,56.4c40.9-5.625,91.885,31.5,119.452,57.677-7.446-21.116-12.583-43.25-10.447-66.375,1.82-19.718,11.209-34.761,26.434-42.363,17.291-8.635,39.984-6.71,60.717,5.15,37.359,21.372,67.233,57.469,93.952,93.289,12.057,16.165,5.3,31.985-6.732,40.495-14.554,10.29-37.391,10.55-50.431-6.814q-2.48-3.311-5.057-6.574c7.414,13.592,14.4,27.247,20.636,41.236l2.405,5.385c21.194,47.351,50.216,112.2,23.337,162.6-14.956,28.055-49.4,31.234-75.689,19.885-29.494-12.742-51.037-39.222-70.047-62.587-2.459-3.021-4.891-6.011-7.312-8.938-16.577-20.047-31.9-41.309-46.726-61.867-5.277-7.326-10.56-14.652-15.912-21.946l-1.525-2.082q-2.3-3.147-4.654-6.334c2.561,5.958,5.143,11.719,7.6,17.2,2.588,5.781,5.325,11.625,8.09,17.527,11.542,24.638,23.481,50.122,27.491,76.727,3.076,20.407-1.745,39.639-12.9,51.447-8.026,8.495-19.058,12.93-32.055,12.93C177.519,372.07,176.36,372.039,175.19,371.966Z" transform="translate(0 12.372)" fill="#5355a7" stroke="rgba(0,0,0,0)" stroke-miterlimit="10" stroke-width="1" opacity="0.412"/>
        <path id="Trazado_115699" data-name="Trazado 115699" d="M183.054,373.722c25.865,25.724,52.594,50.5,79.839,74.838-11.778-25.875-24.48-51.348-35.662-77.494-12.675-29.647-27.406-70.059-11.429-101.157,36.419-70.883,128.482-1.336,162.362,34.349,3.613,3.8,7.054,7.769,10.544,11.7-12.1-28.813-23-58.418-20.126-89.547,3.956-42.8,44.327-53.07,79.082-33.185,37.327,21.356,67.3,58.3,92.331,91.859,21.259,28.5-27.39,55.632-48.482,27.54a374.1,374.1,0,0,0-37.89-43.088q3.02,5.377,6.1,10.738c13.6,23.61,27.03,47.315,38.11,72.162,21.221,47.586,52.594,113.455,25.9,163.509-13.453,25.223-44.993,27.785-68.748,17.521-31.926-13.8-54.038-44.252-75.356-70.028-22.252-26.913-41.847-55.491-62.445-83.573-8.611-11.735-17.211-23.636-27.062-34.432-.225-.245-.467-.475-.692-.725l.247.762c5.47,16.53,12.508,32.392,19.627,48.3,13.254,29.585,30.342,60.729,35.2,92.928,4.295,28.468-7.57,60.375-42.8,58.309-33.112-1.941-59.654-32.945-81.793-53.649-26.815-25.077-53.147-50.654-79.485-76.2a30.556,30.556,0,0,1-6.393-8.723C121.61,380.607,158.688,349.492,183.054,373.722Z" transform="translate(-113.461 -178.242)" fill="#8284d2"/>
        <path id="Trazado_115700" data-name="Trazado 115700" d="M309.275,554.535c13,0,24.024-4.43,32.049-12.924,11.156-11.808,15.976-31.04,12.9-51.452-4-26.6-15.944-52.084-27.492-76.727-2.759-5.9-5.5-11.74-8.09-17.521-2.453-5.484-5.035-11.244-7.6-17.2,1.568,2.118,3.119,4.237,4.655,6.334l1.525,2.077c5.352,7.295,10.635,14.626,15.917,21.946,14.817,20.563,30.144,41.826,46.721,61.867q3.632,4.4,7.312,8.943c19.009,23.36,40.553,49.84,70.047,62.587,26.3,11.349,60.733,8.166,75.689-19.89,26.88-50.393-2.142-115.245-23.331-162.6l-2.41-5.38c-6.233-13.989-13.222-27.644-20.631-41.236q2.569,3.264,5.057,6.569c13.034,17.37,35.871,17.109,50.425,6.82,12.036-8.51,18.789-24.33,6.732-40.5-26.719-35.82-56.594-71.916-93.947-93.294-20.738-11.855-43.425-13.78-60.722-5.145-15.225,7.6-24.609,22.64-26.434,42.358-2.137,23.125,3,45.264,10.452,66.375-27.572-26.172-78.55-63.3-119.452-57.672-18.789,2.593-33.338,13.676-43.232,32.934-16.272,31.672-3.43,71.1,11.274,105.493,7,16.368,14.7,32.7,22.145,48.5l2.636,5.588c-22.155-20.188-41.975-39-60.164-57.082h0c-8.992-8.949-20.416-12.23-32.135-9.272-12.868,3.256-23.868,13.864-27.363,26.407-3.216,11.505.064,22.739,9.239,31.635l3,2.906c24.936,24.189,50.721,49.2,76.553,73.357,3.183,2.979,6.453,6.167,9.83,9.454,20.051,19.541,45.009,43.866,75.367,45.645C306.971,554.5,308.126,554.535,309.275,554.535Zm-15.4-210.594a5.172,5.172,0,0,0-2.6.678,5.014,5.014,0,0,0-2.539,5.922l.252.762c5.733,17.328,13.211,34.036,19.809,48.771,2.615,5.834,5.379,11.729,8.166,17.683,11.236,23.981,22.853,48.776,26.643,73.915,2.572,17.073-1.331,33.5-10.189,42.88-6.56,6.945-15.627,10.1-26.971,9.47-26.284-1.544-48.67-23.355-68.415-42.6-3.425-3.34-6.753-6.58-9.985-9.6-25.763-24.09-51.515-49.068-76.419-73.226l-2.99-2.906c-8.111-7.863-7.994-16.04-6.464-21.518,2.486-8.9,10.587-16.733,19.707-19.035,5.551-1.409,13.824-1.419,21.747,6.465h0c23.5,23.36,49.679,47.9,80.048,75.037a5.482,5.482,0,0,0,6.759.4,5.12,5.12,0,0,0,1.782-6.35c-4.45-9.783-9.035-19.5-13.614-29.23-7.408-15.711-15.064-31.959-21.994-48.16-13.775-32.214-25.929-68.911-11.585-96.826,8.342-16.232,19.836-25.15,35.136-27.263,38.132-5.244,91.762,34.683,118.48,62.822,2.845,3,5.589,6.11,8.337,9.215l2.083,2.358a5.457,5.457,0,0,0,6.866,1.038,5.146,5.146,0,0,0,2.169-6.423c-11.531-27.44-22.552-56.78-19.75-87.111,1.5-16.259,8.643-28.019,20.647-34.015,14.006-6.987,32.828-5.166,50.366,4.863,35.662,20.4,64.668,55.517,90.7,90.424,8.23,11.03,3.146,20.626-4.354,25.927-10.157,7.18-26.026,8.025-35.442-4.524a380.007,380.007,0,0,0-38.427-43.693,5.474,5.474,0,0,0-7.011-.5,5.12,5.12,0,0,0-1.5,6.679q3.036,5.408,6.131,10.785c13.77,23.908,27.024,47.383,37.869,71.692l2.41,5.4c20.33,45.431,48.171,107.653,23.648,153.632-11.912,22.342-40.107,24.523-61.8,15.158C434.509,521.23,414.726,496.91,395.6,473.4q-3.712-4.563-7.365-9.006c-16.357-19.775-31.577-40.892-46.3-61.314-5.293-7.347-10.592-14.7-15.96-22.019l-1.525-2.072c-8.079-11.025-16.433-22.426-25.892-32.788l-.483-.506A5.936,5.936,0,0,0,293.873,343.941Zm-106.4,34.009h0Z" transform="translate(-117.878 -182.469)" fill="#3c3fa7"/>
        <path id="Trazado_115701" data-name="Trazado 115701" d="M146.175,223.049c19.783,38.632,30.938,83.917,13.566,125.446-2.572,6.136-12.959,3.454-10.356-2.776,16.315-38.992,6.125-81.069-12.482-117.405C133.838,222.318,143.094,217.028,146.175,223.049Z" transform="translate(238.366 -22.512)" fill="#3c3fa7"/>
        <path id="Trazado_115702" data-name="Trazado 115702" d="M144.267,264.851c.091-.01.177-.036.263-.052.15-.287.29-.59.338-.673l.021-.031c.011-.042-.005-.016.011-.078.693-2.327,1.192-4.691,1.713-7.06q1.828-8.257,3.645-16.514a5.43,5.43,0,0,1,6.609-3.642,5.321,5.321,0,0,1,3.747,6.418l-4.123,18.674c-1.149,5.186-2.979,11.985-9.368,13.023-2.759.444-5.916-.7-6.6-3.647C139.93,268.749,141.309,265.331,144.267,264.851Z" transform="translate(223.97 45.817)" fill="#3c3fa7"/>
        <path id="Trazado_115703" data-name="Trazado 115703" d="M201.33,199.888c6.093-3.162,11.526,5.844,5.417,9.011-8.428,4.373-10.994,13.274-11.333,22.014a146.814,146.814,0,0,0,2.421,29.919,194.615,194.615,0,0,0,18.634,56.049c3.071,6-6.19,11.286-9.271,5.265a204.774,204.774,0,0,1-20.84-66.01C183.829,237.325,180.8,210.532,201.33,199.888Z" transform="translate(-69.447 -111.8)" fill="#3c3fa7"/>
      </g>
    </g>
  </g>
</svg>
