<svg xmlns="http://www.w3.org/2000/svg" xmlns:xlink="http://www.w3.org/1999/xlink" width="1328" height="1090.523" viewBox="0 0 1328 1090.523">
  <defs>
    <clipPath id="clip-path">
      <rect id="Rectángulo_45714" data-name="Rectángulo 45714" width="1328" height="1018.565" fill="#e5ebff" opacity="0.57"/>
    </clipPath>
    <clipPath id="clip-path-2">
      <rect id="Rectángulo_45764" data-name="Rectángulo 45764" width="1328" height="1018.565" fill="#ffbfc1" opacity="0.57"/>
    </clipPath>
    <clipPath id="clip-path-3">
      <rect id="Rectángulo_45772" data-name="Rectángulo 45772" width="1328" height="1018.565" rx="10" fill="#e6ecff" opacity="0.57"/>
    </clipPath>
    <clipPath id="clip-path-4">
      <path id="Trazado_186631" data-name="Trazado 186631" d="M0,0H1328V1019.662H0Z" fill="#e8e8e8" opacity="0.37"/>
    </clipPath>
  </defs>
  <g id="Grupo_988573" data-name="Grupo 988573" transform="translate(-136 -1536.238)">
    <g id="Grupo_987326" data-name="Grupo 987326" transform="translate(136 1536.238)">
      <g id="Grupo_982060" data-name="Grupo 982060" transform="translate(0)">
        <g id="Enmascarar_grupo_319" data-name="Enmascarar grupo 319" transform="translate(0 1.097)" opacity="0.57" clip-path="url(#clip-path)">
          <g id="Grupo_175720" data-name="Grupo 175720" transform="translate(769.815 0.001)">
            <g id="Grupo_175718" data-name="Grupo 175718" transform="translate(26.577 260.258)">
              <path id="Trazado_185972" data-name="Trazado 185972" d="M353.976,386.977S318.2,435.73,314.53,605.749h20.137Z" transform="translate(-248.375 -41.034)" fill="#e5ebff"/>
              <g id="Grupo_175717" data-name="Grupo 175717" transform="translate(0 291.298)">
                <path id="Trazado_185973" data-name="Trazado 185973" d="M298.414,390.807c.413,2.3-16.883,44.26-43.616,33.287l-1.209-14.283S277.538,421.226,295,386.272Z" transform="translate(-248.375 -332.992)" fill="#e5ebff"/>
                <path id="Trazado_185974" data-name="Trazado 185974" d="M324.7,624.151,306.477,392.174s-35.185,22.185-40.193-33.428l-5.364,7.439s6.982,40.443,23.737,43.2c0,0-14.612,16.4-26.509-29.755l-6.38,13.193s9.808,36.1,32.457,24.261c0,0-22.666,9.249-32.991-14.754l-2.859,14.986s24.39,31.64,45.365,9.57L286.5,628.394Z" transform="translate(-248.375 -358.746)" fill="#e5ebff"/>
              </g>
              <path id="Trazado_185975" data-name="Trazado 185975" d="M354.467,269.423l4.2,262.391,32.568-8.4L386.177,256.4Z" transform="translate(-248.375 -163.208)" fill="#e5ebff"/>
              <path id="Trazado_185976" data-name="Trazado 185976" d="M394.178,370.485l-37.588,9.223L328.849,620.957l98.882-.546S440.8,491.4,394.178,370.485Z" transform="translate(-248.375 -56.464)" fill="#e5ebff"/>
              <path id="Trazado_185977" data-name="Trazado 185977" d="M390.061,371.007,372.852,620.691h56.565S435.754,398.135,390.061,371.007Z" transform="translate(-248.375 -55.976)" fill="#e5ebff"/>
              <path id="Trazado_185978" data-name="Trazado 185978" d="M350.729,435.645s24.983,8,39.332-62.128l-32.334-5.191Z" transform="translate(-248.375 -58.485)" fill="#e5ebff"/>
              <path id="Trazado_185979" data-name="Trazado 185979" d="M391.238,383.222l9.174,65.8H390.062l-5.109,28.706,2.072-37.19h7.6Z" transform="translate(-248.375 -44.548)" fill="#e5ebff"/>
              <path id="Trazado_185980" data-name="Trazado 185980" d="M347.31,393.373l-11.9,52.052h6.77v15.744l2.987-22.863h-3.819Z" transform="translate(-248.375 -35.049)" fill="#e5ebff"/>
              <path id="Trazado_185981" data-name="Trazado 185981" d="M355.922,435.261l34.14-50.009V317.3l-32.225,69.517Z" transform="translate(-248.375 -106.227)" fill="#e5ebff"/>
              <path id="Trazado_185982" data-name="Trazado 185982" d="M377.912,234.267s32.88-15.4,38.023,62.566-30.559,106.811-30.559,106.811Z" transform="translate(-248.375 -185.071)" fill="#e5ebff"/>
              <path id="Trazado_185983" data-name="Trazado 185983" d="M317.951,241.326,287.93,388.99l29.7-5.524.807,28.464s41.395,27.77,43.4-14.448c0,0-.019,49.8-43.4,51.267l.957,37.025s70.672,9.1,62.909-104-5.889-127.655-5.889-127.655l-58.466-12.795Z" transform="translate(-248.375 -177.311)" fill="#e5ebff"/>
              <path id="Trazado_185984" data-name="Trazado 185984" d="M334.388,280.693s-1.574,46.026-11.424,32.077c-3.6-5.1.49-37.65.49-37.65s.555,27.871,2.492,29.65C329.54,308.072,334.388,280.693,334.388,280.693Z" transform="translate(-248.375 -145.692)" fill="#e5ebff"/>
              <path id="Trazado_185985" data-name="Trazado 185985" d="M353.915,300.56c.508,7.706-2.308,14.751-6.287,15.737s-7.622-4.467-8.131-12.171,2.308-14.752,6.288-15.735S353.406,292.856,353.915,300.56Z" transform="translate(-248.375 -133.383)" fill="#e5ebff"/>
              <path id="Trazado_185986" data-name="Trazado 185986" d="M387.024,289.495,295.067,267.86s.042-31.479,31.843-31.137l-16.6-17.574S373.826,167.391,387.024,289.495Z" transform="translate(-248.375 -208.254)" fill="#e5ebff"/>
              <path id="Trazado_185987" data-name="Trazado 185987" d="M387.318,307.822l-3.837-64.209L363.408,239.7S338.4,345.991,387.318,307.822Z" transform="translate(-248.375 -178.831)" fill="#e5ebff"/>
              <path id="Trazado_185988" data-name="Trazado 185988" d="M404.223,292.208c.676,10.259-3.073,19.633-8.371,20.943s-10.145-5.944-10.82-16.2S388.1,277.313,393.4,276,403.544,281.95,404.223,292.208Z" transform="translate(-248.375 -145.007)" fill="#e5ebff"/>
              <path id="Trazado_185989" data-name="Trazado 185989" d="M323.132,267.116l21.229.676s-2.1-15.905-20.945-15.934Z" transform="translate(-248.375 -167.457)" fill="#e5ebff"/>
              <path id="Trazado_185990" data-name="Trazado 185990" d="M287.93,418.892l24.539-3.469,13.492,163.709H285.722Z" transform="translate(-248.375 -14.418)" fill="#e5ebff"/>
              <path id="Trazado_185991" data-name="Trazado 185991" d="M282.729,409.972h31.9l3.191,17.8-32.1,3.843Z" transform="translate(-248.375 -19.519)" fill="#e5ebff"/>
              <path id="Trazado_185992" data-name="Trazado 185992" d="M401.257,377.149l73.349,116.976L462.9,614.944H427.6l13.69-100.422L408.46,472.069Z" transform="translate(-248.375 -50.229)" fill="#e5ebff"/>
              <path id="Trazado_185993" data-name="Trazado 185993" d="M441.287,471.868l-36.372-49.13,41.129,42.172L429.658,568.521l-.241-13.948Z" transform="translate(-248.375 -7.575)" fill="#e5ebff"/>
              <path id="Trazado_185994" data-name="Trazado 185994" d="M384.952,237.492s25.761,20.609,25.667,68.673C410.619,306.165,419.326,235.69,384.952,237.492Z" transform="translate(-248.375 -180.929)" fill="#e5ebff"/>
              <path id="Trazado_185995" data-name="Trazado 185995" d="M300.442,243.7s7.805-13.422,25.818-10.778C326.26,232.92,313.952,209.994,300.442,243.7Z" transform="translate(-248.375 -192.301)" fill="#e5ebff"/>
              <path id="Trazado_185996" data-name="Trazado 185996" d="M304.952,274.355,287.93,358.087l29.7-5.525Z" transform="translate(-248.375 -146.407)" fill="#e5ebff" opacity="0.5"/>
              <path id="Trazado_185997" data-name="Trazado 185997" d="M400.051,283.912s-8.552-9.094-10.895,20C389.156,303.912,394.788,283.7,400.051,283.912Z" transform="translate(-248.375 -138.724)" fill="#e5ebff"/>
              <path id="Trazado_185998" data-name="Trazado 185998" d="M317.818,384.867s40.3,20.065,56.577-42.005-2.2-94.918-2.2-94.918l13.827-1s32,243.047-68.2,251.3Z" transform="translate(-248.375 -172.057)" fill="#e5ebff"/>
              <path id="Trazado_185999" data-name="Trazado 185999" d="M314.12,333.522s31.551,9.5,42.851-14.972c0,0,3.12,69.418-41.554,60.5Z" transform="translate(-248.375 -105.057)" fill="#e5ebff"/>
              <path id="Trazado_186000" data-name="Trazado 186000" d="M321.483,397.552s43.32,1.5,61.419-68.858c0,0-5.827,80.737-61.419,87.706Z" transform="translate(-248.375 -95.566)" fill="#e5ebff"/>
            </g>
            <g id="Grupo_175719" data-name="Grupo 175719" transform="translate(0 0)">
              <path id="Trazado_186001" data-name="Trazado 186001" d="M306.475,75.909C250.908,83.267,221.8,130.593,221.8,198.046c0,39.924,9.1,75.145,28.7,97.38,1.037,15.642,3.422,30.6,7.727,43.716,19.44,59.258,37.461,65.061,37.461,65.061-12.393-26.758-16.968-58.019-17.16-89.1a80.04,80.04,0,0,0,27.95,5.079c98.142,1.094,129.425-32.01,129.425-114.557C435.9,119.711,412.849,61.822,306.475,75.909Z" transform="translate(-221.798 -73.798)" fill="#e5ebff"/>
            </g>
          </g>
          <rect id="Rectángulo_45713" data-name="Rectángulo 45713" width="1328" height="1783.29" transform="translate(0 -0.084)" fill="#e5ebff"/>
          <g id="Grupo_175721" data-name="Grupo 175721" transform="translate(-15.961 -310.67)" opacity="0.254">
            <path id="Trazado_186003" data-name="Trazado 186003" d="M1030.536,2609.177c94.15-54.143,153.576-235.738,241.514-320.408,124.139-119.527,277.374-24.367,409.141-107.858,66-41.823,122.623-131.366,160.114-244.317H752.194v496.634c23.17,39.922,47.633,76.645,74.275,107.487C887.457,2611.312,962.416,2648.348,1030.536,2609.177Z" transform="translate(-752.194 -1936.593)" fill="#e5ebff" opacity="0.614"/>
            <path id="Trazado_186004" data-name="Trazado 186004" d="M17.427,0H1222.572C1232.2,0,1240,20.348,1240,45.448V1744.509c0,25.1-7.8,45.448-17.428,45.448H17.427C7.8,1789.957,0,1769.61,0,1744.509V45.448C0,20.348,7.8,0,17.427,0Z" transform="translate(17.359 17.163)" fill="none"/>
          </g>
        </g>
        <g id="Enmascarar_grupo_327" data-name="Enmascarar grupo 327" transform="translate(0 1.097)" clip-path="url(#clip-path-2)">
          <g id="Grupo_176633" data-name="Grupo 176633" transform="translate(-759.16 570.382) rotate(30)" opacity="0.254">
            <path id="Trazado_186092" data-name="Trazado 186092" d="M850.808,2.319C747.989,15.277,708.112,142.952,617.865,182.7c-127.4,56.105-325.847-71.369-468.436-46.98C78,147.935,25.843,201.917.411,281.157L1296.092,638.945,1211.8,236.379c-34.34-39.972-69.675-77.775-106.6-111.526C1020.662,47.591,925.2-7.055,850.808,2.319Z" transform="translate(0 0)" fill="#dddeff" opacity="0.614"/>
          </g>
        </g>
        <g id="Enmascarar_grupo_334" data-name="Enmascarar grupo 334" transform="translate(0 1.097)" clip-path="url(#clip-path-3)">
          <g id="Grupo_173646" data-name="Grupo 173646" transform="translate(-45.65 -272.176)">
            <path id="Trazado_178337" data-name="Trazado 178337" d="M43.975,0h1349.5c24.287,0,43.976,34.025,43.976,76V1116.2c0,41.972-19.689,76-43.976,76H43.975C19.688,1192.2,0,1158.172,0,1116.2V76C0,34.025,19.688,0,43.975,0Z" transform="translate(43.797 159.23)" fill="#f0f4ff"/>
            <path id="Trazado_178348" data-name="Trazado 178348" d="M1451.856,73.942C1369.209,26.118,1280.237,0,1187.5,0,751.9,0,398.77,574.505,398.77,1283.2a2077.048,2077.048,0,0,0,14.323,244.161H1451.856Z" transform="translate(44.553)" fill="#f7f9ff"/>
            <path id="Trazado_178349" data-name="Trazado 178349" d="M541.2,23.783C477.4,277.147,333.183,453.9,165.484,453.9c-43.179,0-84.813-11.735-123.905-33.481V23.783Z" transform="translate(-41.579 31.597)" fill="#f0f4ff"/>
            <path id="Trazado_677220" data-name="Trazado 677220" d="M41.579,453.9C105.385,200.538,249.6,23.783,417.3,23.783c43.179,0,84.813,11.735,123.905,33.481V453.9Z" transform="translate(967.481 924.597)" fill="#f0f4ff"/>
            <line id="Línea_1427" data-name="Línea 1427" y2="7.121" transform="translate(225.974 1449.39)" fill="#1d2b5e"/>
          </g>
        </g>
        <g id="Grupo_177466" data-name="Grupo 177466" opacity="0.48" clip-path="url(#clip-path-4)">
          <g id="Grupo_177463" data-name="Grupo 177463" transform="translate(839.001 -691.262)">
            <g id="Grupo_177462" data-name="Grupo 177462" transform="translate(0 0)">
              <path id="Trazado_186627" data-name="Trazado 186627" d="M657.708,383.567c15.554,70.644-23.336,124.93-101.274,109.8-89.037-15.7-185.881-83.157-276.578-105.837-47.24-15.045-85.793-8.979-129.258-14.618C49.965,351.529,2.379,235.1.643,167.144-16.965-155.541,561.974,29.594,657.708,383.567Z" transform="matrix(0.602, 0.799, -0.799, 0.602, 394.814, 0)" fill="#e4e8f9"/>
              <path id="Trazado_186628" data-name="Trazado 186628" d="M1.372,161.015c9.271,44.076,64.555,89.28,133.238,96.468,79,9.28,147.818-14.53,226.024-9.577,39.636.405,78.215,13.081,117.471,18.974,88.06,8.044,93.575-59.7,72.128-105.052C457.267-51.414-28.22-55.868,1.372,161.015Z" transform="translate(195.009 998.161) rotate(-99)" fill="#afb8ee" opacity="0.21" style="mix-blend-mode: multiply;isolation: isolate"/>
            </g>
          </g>
          <g id="Grupo_177465" data-name="Grupo 177465" transform="translate(-255.043 729.496)">
            <g id="Grupo_177464" data-name="Grupo 177464" transform="translate(0 0)">
              <path id="Trazado_186629" data-name="Trazado 186629" d="M474.637,276.8c11.224,50.981-16.841,90.157-73.085,79.235-64.254-11.331-134.141-60.01-199.594-76.378-34.091-10.857-61.913-6.48-93.28-10.549C36.057,253.682,1.717,169.662.464,120.62-12.243-112.247,405.55,21.357,474.637,276.8Z" transform="matrix(-0.602, -0.799, 0.799, -0.602, 286.202, 720.326)" fill="#b9c3f1" opacity="0.4"/>
              <path id="Trazado_186630" data-name="Trazado 186630" d="M.99,116.2C7.68,148,47.576,180.626,97.142,185.813c57.014,6.7,106.673-10.486,163.111-6.911,28.6.292,56.444,9.44,84.774,13.693,63.549,5.8,67.528-43.086,52.052-75.811C329.989-37.1-20.365-40.317.99,116.2Z" transform="translate(430.392 0) rotate(81)" fill="#dce2fd" opacity="0.32" style="mix-blend-mode: multiply;isolation: isolate"/>
            </g>
          </g>
        </g>
      </g>
    </g>
    <rect id="Rectángulo_340879" data-name="Rectángulo 340879" width="1328" height="206" transform="translate(136 2420.762)" fill="#3c3fa7"/>
  </g>
</svg>
