<svg xmlns="http://www.w3.org/2000/svg" xmlns:xlink="http://www.w3.org/1999/xlink" width="482.002" height="307.672" viewBox="0 0 482.002 307.672">
  <defs>
    <clipPath id="clip-path">
      <rect id="Rect치ngulo_41289" data-name="Rect치ngulo 41289" width="482.002" height="307.672" transform="translate(0 0)" fill="#6b8dfc"/>
    </clipPath>
  </defs>
  <g id="Grupo_173651" data-name="Grupo 173651" transform="translate(-579 -5249)">
    <g id="Enmascarar_grupo_167" data-name="Enmascarar grupo 167" transform="translate(579 5249)" clip-path="url(#clip-path)">
      <g id="Grupo_166176" data-name="Grupo 166176" transform="translate(79.705 48.145)">
        <path id="Uni칩n_28" data-name="Uni칩n 28" d="M208.245,442.151c-36.086-2.115-65.753-31.03-89.594-54.257-4.007-3.908-7.894-7.7-11.678-11.239-30.707-28.711-61.357-58.444-91-87.2l-3.561-3.449C1.509,275.433-2.389,262.074,1.426,248.4c4.161-14.91,17.236-27.52,32.532-31.39,13.93-3.517,27.509.39,38.2,11.027v-.006c21.62,21.5,45.18,43.856,71.516,67.859l-3.133-6.643c-8.851-18.78-18-38.194-26.323-57.657-8.358-19.54-16.208-40.449-19.991-60.945-4.178-22.635-3.509-44.8,6.591-64.453C112.576,83.3,129.864,70.125,152.2,67.042c48.619-6.686,109.222,37.443,141.991,68.56-8.851-25.1-14.958-51.411-12.418-78.9,2.163-23.438,13.324-41.319,31.422-50.356,20.554-10.265,47.528-7.976,72.173,6.121,44.408,25.405,79.92,68.312,111.679,110.891,14.332,19.215,6.305,38.02-8,48.136-17.3,12.231-44.446,12.541-59.946-8.1q-2.948-3.936-6.011-7.815c8.813,16.157,17.121,32.388,24.53,49.017l2.859,6.4c25.193,56.286,59.691,133.374,27.74,193.282-17.778,33.349-58.715,37.127-89.971,23.637-35.059-15.146-60.667-46.622-83.264-74.4-2.923-3.591-5.814-7.145-8.692-10.624-19.705-23.83-37.924-49.1-55.543-73.541-6.273-8.708-12.552-17.416-18.914-26.087l-1.813-2.475q-2.737-3.74-5.532-7.529c3.044,7.083,6.113,13.93,9.03,20.449,3.076,6.872,6.33,13.819,9.617,20.834,13.719,29.287,27.912,59.579,32.679,91.2,3.656,24.257-2.074,47.119-15.334,61.155-9.54,10.1-22.654,15.369-38.1,15.369C211.015,442.275,209.637,442.238,208.245,442.151Z" transform="translate(0 14.706)" fill="#5355a7" stroke="rgba(0,0,0,0)" stroke-miterlimit="10" stroke-width="1" opacity="0.412"/>
        <path id="Trazado_115699" data-name="Trazado 115699" d="M192.772,409.642c30.745,30.577,62.518,60.032,94.9,88.959-14-30.757-29.1-61.037-42.391-92.116-15.066-35.241-32.577-83.278-13.586-120.244,43.291-84.258,152.725-1.588,193,40.83,4.295,4.515,8.385,9.235,12.533,13.906-14.384-34.249-27.338-69.441-23.924-106.444,4.2-45.434,42.917-60.029,80.724-45.743a93.468,93.468,0,0,1,13.28,6.3,227.013,227.013,0,0,1,32.365,22.728c29.793,24.795,55.22,56.748,77.388,86.464,25.27,33.877-32.558,66.129-57.63,32.736a444.7,444.7,0,0,0-45.039-51.218q3.59,6.391,7.249,12.764c16.164,28.065,32.13,56.242,45.3,85.778C592.167,440.9,629.459,519.2,597.731,578.7c-15.992,29.982-53.482,33.027-81.719,20.827-37.95-16.4-64.235-52.6-89.575-83.241-26.45-31.991-49.742-65.961-74.228-99.342-10.236-13.949-20.459-28.1-32.168-40.929-.268-.292-.555-.564-.823-.862l.294.906c6.5,19.649,14.868,38.5,23.33,57.408,15.756,35.167,36.067,72.188,41.836,110.463,5.105,33.84-9,71.767-50.872,69.311-39.36-2.307-70.909-39.161-97.226-63.772C204.7,519.658,173.4,489.255,142.1,458.888a36.322,36.322,0,0,1-7.6-10.369C119.733,417.827,163.808,380.84,192.772,409.642Z" transform="translate(-110.047 -177.277)" fill="#3c3fa7"/>
        <path id="Trazado_115700" data-name="Trazado 115700" d="M342.986,624.739c15.449,0,28.557-5.266,38.1-15.363,13.26-14.036,18.991-36.9,15.334-61.161-4.76-31.619-18.953-61.911-32.679-91.2-3.28-7.015-6.534-13.955-9.617-20.827-2.916-6.519-5.986-13.366-9.03-20.449,1.863,2.518,3.708,5.036,5.533,7.53l1.812,2.468c6.362,8.671,12.641,17.385,18.921,26.087,17.613,24.443,35.831,49.718,55.537,73.541q4.317,5.228,8.691,10.631c22.6,27.768,48.2,59.244,83.264,74.4,31.262,13.49,72.192,9.707,89.97-23.643,31.952-59.9-2.546-136.99-27.733-193.282l-2.865-6.395c-7.409-16.628-15.717-32.86-24.523-49.017q3.053,3.879,6.011,7.809c15.494,20.648,42.64,20.337,59.94,8.106,14.307-10.116,22.335-28.921,8-48.136-31.76-42.579-67.272-85.486-111.674-110.9-24.651-14.092-51.619-16.38-72.179-6.115-18.1,9.037-29.252,26.912-31.422,50.35-2.54,27.489,3.567,53.805,12.424,78.9-32.775-31.111-93.372-75.24-141.991-68.554-22.335,3.082-39.628,16.256-51.389,39.149-19.342,37.648-4.078,84.513,13.4,125.4,8.321,19.456,17.472,38.876,26.323,57.65l3.133,6.643c-26.336-24-49.9-46.356-71.516-67.853h0c-10.689-10.637-24.268-14.538-38.2-11.021-15.3,3.87-28.371,16.48-32.526,31.39-3.822,13.676.077,27.03,10.982,37.6l3.561,3.455c29.641,28.754,60.291,58.481,91,87.2,3.784,3.541,7.671,7.331,11.684,11.239,23.834,23.228,53.5,52.143,89.588,54.258C340.249,624.7,341.621,624.739,342.986,624.739ZM324.678,374.408a6.149,6.149,0,0,0-3.088.806,5.96,5.96,0,0,0-3.018,7.04l.3.906c6.815,20.6,15.7,40.458,23.547,57.973,3.108,6.934,6.394,13.943,9.706,21.02,13.356,28.506,27.165,57.979,31.67,87.862,3.057,20.294-1.582,39.825-12.112,50.971-7.8,8.255-18.576,12-32.06,11.257C308.38,610.405,281.77,584.48,258.3,561.6c-4.071-3.97-8.028-7.821-11.869-11.412-30.624-28.636-61.235-58.326-90.838-87.043l-3.555-3.455c-9.642-9.347-9.5-19.066-7.683-25.578,2.955-10.581,12.584-19.891,23.426-22.626,6.6-1.674,16.432-1.687,25.851,7.685h0c27.931,27.768,59.053,56.943,95.152,89.2a6.516,6.516,0,0,0,8.034.471,6.086,6.086,0,0,0,2.119-7.548c-5.29-11.629-10.74-23.184-16.183-34.745-8.806-18.675-17.906-37.989-26.144-57.247C240.234,371,225.787,327.382,242.838,294.2c9.916-19.3,23.579-29.895,41.766-32.407C329.93,255.56,393.68,303.02,425.44,336.469c3.382,3.566,6.643,7.263,9.91,10.953l2.476,2.8a6.487,6.487,0,0,0,8.162,1.234,6.117,6.117,0,0,0,2.578-7.635c-13.707-32.618-26.808-67.493-23.477-103.547,1.787-19.326,10.274-33.306,24.543-40.433,16.649-8.3,39.022-6.14,59.87,5.781,42.391,24.251,76.869,65.992,107.819,107.486,9.783,13.112,3.74,24.517-5.175,30.819-12.074,8.534-30.937,9.539-42.13-5.378a451.722,451.722,0,0,0-45.678-51.938,6.507,6.507,0,0,0-8.334-.6,6.087,6.087,0,0,0-1.787,7.939q3.609,6.429,7.287,12.82C537.873,335.2,553.628,363.1,566.518,392l2.865,6.413c24.166,54,57.26,127.966,28.11,182.621-14.16,26.558-47.675,29.151-73.462,18.018-32.181-13.9-55.7-42.808-78.433-70.756q-4.413-5.424-8.755-10.705C417.4,494.081,399.308,468.981,381.8,444.7c-6.292-8.733-12.59-17.472-18.972-26.174l-1.812-2.462c-9.6-13.105-19.533-26.657-30.777-38.975l-.574-.6A7.056,7.056,0,0,0,324.678,374.408ZM198.2,414.835h0Z" transform="translate(-115.476 -182.469)"/>
        <path id="Trazado_115701" data-name="Trazado 115701" d="M148.04,223.55c23.515,45.922,36.776,99.752,16.126,149.116-3.057,7.294-15.4,4.106-12.31-3.3,19.393-46.35,7.281-96.365-14.837-139.558C133.376,222.682,144.377,216.393,148.04,223.55Z" transform="translate(309.059 14.825)" fill="#3c3fa7"/>
        <path id="Trazado_115702" data-name="Trazado 115702" d="M145,270.182c.108-.012.21-.043.313-.062.179-.341.345-.7.4-.8l.026-.037c.013-.05-.006-.019.013-.093.823-2.766,1.417-5.576,2.036-8.392q2.173-9.815,4.333-19.63c.7-3.176,4.7-5.322,7.855-4.329a6.325,6.325,0,0,1,4.454,7.629l-4.9,22.2c-1.366,6.165-3.542,14.247-11.135,15.481-3.28.527-7.032-.837-7.849-4.335C139.843,274.816,141.484,270.753,145,270.182Z" transform="translate(292.719 99.105)" fill="#3c3fa7"/>
        <path id="Trazado_115703" data-name="Trazado 115703" d="M204.5,200.013c7.243-3.759,13.7,6.947,6.439,10.711-10.019,5.2-13.069,15.779-13.471,26.168-.46,11.8.906,23.941,2.878,35.564a231.338,231.338,0,0,0,22.15,66.625c3.65,7.126-7.358,13.416-11.021,6.258A243.412,243.412,0,0,1,186.7,266.874C183.693,244.514,180.094,212.666,204.5,200.013Z" transform="translate(-47.729 -95.303)" fill="#3c3fa7"/>
      </g>
    </g>
  </g>
</svg>
