<svg xmlns="http://www.w3.org/2000/svg" xmlns:xlink="http://www.w3.org/1999/xlink" width="276.846" height="292" viewBox="0 0 276.846 292">
  <defs>
    <clipPath id="clip-path">
      <rect id="Rectángulo_340790" data-name="Rectángulo 340790" width="276" height="292" rx="10" transform="translate(6508 -8511.567)" fill="#ffe891" opacity="0.4"/>
    </clipPath>
    <clipPath id="clip-path-2">
      <rect id="Rectángulo_340786" data-name="Rectángulo 340786" width="294.128" height="294.127" fill="none"/>
    </clipPath>
    <clipPath id="clip-path-4">
      <rect id="Rectángulo_340788" data-name="Rectángulo 340788" width="501.886" height="568.318" fill="none"/>
    </clipPath>
    <clipPath id="clip-path-6">
      <rect id="Rectángulo_340798" data-name="Rectángulo 340798" width="276" height="292" rx="10" transform="translate(198.154 2489.863)" fill="#fed947" opacity="0.69"/>
    </clipPath>
    <clipPath id="clip-path-7">
      <rect id="Rectángulo_340797" data-name="Rectángulo 340797" width="273.002" height="489.081" fill="none"/>
    </clipPath>
    <clipPath id="clip-path-10">
      <rect id="Rectángulo_340792" data-name="Rectángulo 340792" width="46.148" height="112.933" fill="none"/>
    </clipPath>
    <clipPath id="clip-path-11">
      <rect id="Rectángulo_340793" data-name="Rectángulo 340793" width="44.743" height="67.791" fill="none"/>
    </clipPath>
  </defs>
  <g id="Grupo_988570" data-name="Grupo 988570" transform="translate(-198.154 -2722.863)">
    <g id="Grupo_987124" data-name="Grupo 987124" transform="translate(-926 -41.137)">
      <g id="Grupo_983671" data-name="Grupo 983671" transform="translate(0.154 2196)">
        <rect id="Rectángulo_40795" data-name="Rectángulo 40795" width="276" height="224" rx="10" transform="translate(1124 568)" fill="#a6bbff"/>
      </g>
      <rect id="Rectángulo_338961" data-name="Rectángulo 338961" width="276" height="292" rx="10" transform="translate(1124.154 2764)" fill="#6b8dfc"/>
      <g id="Enmascarar_grupo_984956" data-name="Enmascarar grupo 984956" transform="translate(-5383 11275.567)" clip-path="url(#clip-path)">
        <g id="Grupo_987116" data-name="Grupo 987116" transform="translate(6508 -8511.567)" clip-path="url(#clip-path-2)">
          <path id="Trazado_676983" data-name="Trazado 676983" d="M124.767,236.136A85.348,85.348,0,0,1,71.6,127.775c8.577-25.1,29.686-63.691,87.321-66.5s66.5-18.058,90.028-42.318,63.857-28.151,112.66,5.589S405.1,118.427,392.947,153.99L367.37,228.842a85.348,85.348,0,0,1-108.361,53.165Z" transform="translate(-114.905 -86.236)" fill="#a6bbff"/>
          <path id="Trazado_676984" data-name="Trazado 676984" d="M342.743,715.013a85.348,85.348,0,0,1-53.165-108.361c8.577-25.1,29.686-63.691,87.321-66.5s66.5-18.058,90.028-42.318,63.857-28.151,112.66,5.589,43.489,93.878,31.336,129.441l-25.578,74.852a85.348,85.348,0,0,1-108.361,53.165Z" transform="translate(-461.107 -283.411)" fill="#a6bbff"/>
        </g>
        <g id="Grupo_987118" data-name="Grupo 987118" transform="translate(6508 -8511.567)">
          <g id="Grupo_987117" data-name="Grupo 987117" clip-path="url(#clip-path-2)">
            <path id="Trazado_676985" data-name="Trazado 676985" d="M96.186,359.216a6.114,6.114,0,0,1-1.2,3.75,3.681,3.681,0,0,1-2.9,1.569L4.127,364.8c-2.259.006-4.118-2.375-4.127-5.294a6.119,6.119,0,0,1,1.2-3.75,3.683,3.683,0,0,1,2.9-1.57l4.158-.012c1.627-4.926,5.408-8.377,9.823-8.391a9.684,9.684,0,0,1,7.616,4.054c2.575-5.676,7.342-9.5,12.815-9.514a11.842,11.842,0,0,1,4.321.813c2.841-6.95,8.484-11.692,15.006-11.712,7.831-.024,14.439,6.774,16.456,16.048A8.8,8.8,0,0,1,79.082,344c4.884-.015,9.016,4.178,10.329,9.933l2.649-.008c2.259-.007,4.117,2.375,4.126,5.294" transform="translate(229.563 -221.875)" fill="#fff"/>
            <path id="Trazado_676986" data-name="Trazado 676986" d="M381.385,194.163a6.112,6.112,0,0,1-1.2,3.75,3.682,3.682,0,0,1-2.9,1.57l-87.965.267c-2.26.007-4.118-2.375-4.127-5.294a6.119,6.119,0,0,1,1.2-3.75,3.683,3.683,0,0,1,2.9-1.57l4.158-.012c1.627-4.926,5.408-8.377,9.823-8.391a9.685,9.685,0,0,1,7.616,4.054c2.575-5.676,7.342-9.5,12.815-9.514a11.842,11.842,0,0,1,4.321.813c2.841-6.949,8.484-11.692,15.005-11.712,7.831-.024,14.44,6.774,16.457,16.048a8.8,8.8,0,0,1,4.794-1.477c4.884-.015,9.016,4.178,10.329,9.933l2.649-.008c2.259-.007,4.117,2.375,4.126,5.294" transform="translate(-223.406 -153.916)" fill="#fff"/>
            <path id="Trazado_676987" data-name="Trazado 676987" d="M596.537,415.931a6.111,6.111,0,0,1-1.2,3.75,3.68,3.68,0,0,1-2.9,1.57l-87.965.268c-2.259.006-4.118-2.375-4.127-5.294a6.119,6.119,0,0,1,1.2-3.75,3.683,3.683,0,0,1,2.9-1.57l4.158-.012c1.627-4.926,5.409-8.377,9.823-8.391a9.684,9.684,0,0,1,7.616,4.054c2.575-5.676,7.342-9.5,12.815-9.514a11.842,11.842,0,0,1,4.321.813c2.841-6.95,8.484-11.692,15.006-11.712,7.831-.024,14.439,6.774,16.456,16.048a8.8,8.8,0,0,1,4.794-1.477c4.884-.015,9.016,4.178,10.329,9.933l2.649-.008c2.259-.007,4.117,2.375,4.126,5.294" transform="translate(-565.122 -245.227)" fill="#fff"/>
          </g>
        </g>
        <g id="Grupo_987120" data-name="Grupo 987120" transform="translate(6404 -8597.803)">
          <g id="Grupo_987119" data-name="Grupo 987119" clip-path="url(#clip-path-4)">
            <path id="Trazado_676989" data-name="Trazado 676989" d="M216.172,194.061c5.157.64,5.676,1.158,6.316,6.316.639-5.158,1.158-5.676,6.316-6.316-5.158-.64-5.677-1.158-6.316-6.316-.64,5.158-1.159,5.676-6.316,6.316" transform="translate(145.918 -77.303)" fill="#8284d2"/>
            <path id="Trazado_676990" data-name="Trazado 676990" d="M87.276,411.789c5.157.64,5.676,1.158,6.316,6.316.639-5.158,1.158-5.676,6.316-6.316-5.158-.64-5.677-1.158-6.316-6.316-.64,5.158-1.159,5.676-6.316,6.316" transform="translate(350.637 -166.952)" fill="#f1a23a"/>
            <path id="Trazado_676991" data-name="Trazado 676991" d="M373.115,432.9c4.826.6,5.312,1.084,5.91,5.91.6-4.826,1.085-5.311,5.911-5.91-4.826-.6-5.312-1.084-5.911-5.91-.6,4.826-1.084,5.311-5.91,5.91" transform="translate(-102.537 -175.812)" fill="#f1a23a"/>
          </g>
        </g>
        <g id="Grupo_987122" data-name="Grupo 987122" transform="translate(6508 -8511.567)">
          <g id="Grupo_987121" data-name="Grupo 987121" clip-path="url(#clip-path-2)">
            <path id="Trazado_676992" data-name="Trazado 676992" d="M487.46,182.553s-10.779-.834-9.262-5.823c3.756-11.41,37.916-1.736,38.848.923s-20.834,22.467-32.061,13.841c-7.027-5.2,2.474-8.941,2.474-8.941" transform="translate(-472.544 -156.765)" fill="#6b8dfc"/>
            <path id="Trazado_676993" data-name="Trazado 676993" d="M483.116,187.005s6.474-3.369,29.587-4.9c.933,2.659-20.834,22.467-32.061,13.841-7.027-5.2,2.474-8.941,2.474-8.941" transform="translate(-468.2 -161.217)" fill="#6b8dfc"/>
            <path id="Trazado_676994" data-name="Trazado 676994" d="M496.532,202.063l-.671.419c.616-10.472,12.42-17,35.142-19.409l.066.628c-22.015,2.335-33.608,8.509-34.537,18.362" transform="translate(-497.013 -161.615)" fill="#f0f3f9"/>
            <path id="Trazado_676995" data-name="Trazado 676995" d="M485.7,182.466l-.034-.631c-1.959.1-3.882.231-5.712.382l.051.629c1.825-.151,3.741-.279,5.694-.381" transform="translate(-442.283 -161.105)" fill="#a4c4ea"/>
            <path id="Trazado_676996" data-name="Trazado 676996" d="M512.29,218.794s-5.35-5.114-.8-6.673c10.571-3.351,20.242,22.231,18.756,24.366s-26.526,1.755-26.139-11.31c.1-8.071,8.178-6.383,8.178-6.383" transform="translate(-501.196 -173.451)" fill="#6b8dfc"/>
            <path id="Trazado_676997" data-name="Trazado 676997" d="M512.547,223.573s12.042,10.321,17.961,17.693c-1.487,2.134-26.526,1.755-26.139-11.31.1-8.071,8.178-6.383,8.178-6.383" transform="translate(-501.454 -178.231)" fill="#6b8dfc"/>
            <path id="Trazado_676998" data-name="Trazado 676998" d="M539.68,233.894l.469-.423c-.934-1.034-22.962-25.31-31.117-22.7a4.938,4.938,0,0,0-1.757,1.262l.479.411a4.335,4.335,0,0,1,1.506-1.085c7.734-2.472,30.193,22.286,30.419,22.536" transform="translate(-512.806 -172.939)" fill="#f0f3f9"/>
            <path id="Trazado_676999" data-name="Trazado 676999" d="M93.962,455.361s10.779-.835,9.261-5.823c-3.756-11.41-37.916-1.736-38.848.923S85.209,472.928,96.436,464.3c7.027-5.2-2.474-8.941-2.474-8.941" transform="translate(184.527 -269.092)" fill="#a6bbff"/>
            <path id="Trazado_677000" data-name="Trazado 677000" d="M101.347,459.813s-6.474-3.369-29.587-4.9c-.933,2.659,20.834,22.467,32.061,13.841,7.027-5.2-2.474-8.941-2.474-8.941" transform="translate(177.143 -273.544)" fill="#a6bbff"/>
            <path id="Trazado_677001" data-name="Trazado 677001" d="M87.561,474.871l.671.419c-.616-10.472-12.42-17-35.142-19.409l-.066.628c22.015,2.335,33.608,8.509,34.537,18.362" transform="translate(206.325 -273.943)" fill="#d9e6f8"/>
            <path id="Trazado_677002" data-name="Trazado 677002" d="M78.043,491.6s5.35-5.114.8-6.673C68.267,481.579,58.6,507.161,60.082,509.3s26.526,1.755,26.139-11.31c-.1-8.071-8.178-6.383-8.178-6.383" transform="translate(204.27 -285.779)" fill="#a6bbff"/>
            <path id="Trazado_677003" data-name="Trazado 677003" d="M77.891,496.381S65.849,506.7,59.93,514.074c1.487,2.134,26.526,1.755,26.139-11.31-.1-8.071-8.178-6.383-8.178-6.383" transform="translate(204.421 -290.558)" fill="#a6bbff"/>
            <path id="Trazado_677004" data-name="Trazado 677004" d="M46.048,506.7l-.469-.423c.934-1.034,22.963-25.31,31.116-22.7a4.935,4.935,0,0,1,1.757,1.262l-.479.411a4.335,4.335,0,0,0-1.506-1.085c-7.734-2.472-30.193,22.287-30.419,22.536" transform="translate(220.485 -285.266)" fill="#d9e6f8"/>
          </g>
        </g>
      </g>
    </g>
    <g id="Enmascarar_grupo_984957" data-name="Enmascarar grupo 984957" transform="translate(0 233)" clip-path="url(#clip-path-6)">
      <g id="Grupo_987140" data-name="Grupo 987140" transform="translate(191 2485.34)">
        <g id="Grupo_987139" data-name="Grupo 987139" transform="translate(-5)" clip-path="url(#clip-path-7)">
          <g id="Grupo_987126" data-name="Grupo 987126">
            <g id="Grupo_987125" data-name="Grupo 987125" clip-path="url(#clip-path-7)">
              <path id="Trazado_677005" data-name="Trazado 677005" d="M87.771,318.473c-34.512,19.925-34.512,52.231,0,72.158s90.468,19.926,124.981,0,34.512-52.231,0-72.158-90.468-19.926-124.981,0" transform="translate(-44.547 83.506)" fill="#e0e0e0"/>
            </g>
          </g>
          <g id="Grupo_987134" data-name="Grupo 987134">
            <g id="Grupo_987133" data-name="Grupo 987133" clip-path="url(#clip-path-7)">
              <path id="Trazado_677006" data-name="Trazado 677006" d="M214.147,344.046s10.118-36.053.166-74.926C208.75,247.392,195.948,236.34,187.6,234.6c-9.353-1.951-19.786,6.064-12.75,20.717,6.687,13.923,21.564,20.758,27.243,55.939a149.368,149.368,0,0,1,1.885,32.782,3,3,0,0,0,4.321,2.891Z" transform="translate(-165.707 64.462)" fill="#ba68c8"/>
              <g id="Grupo_987129" data-name="Grupo 987129" transform="translate(6.838 298.771)" opacity="0.5">
                <g id="Grupo_987128" data-name="Grupo 987128" transform="translate(0)">
                  <g id="Grupo_987127" data-name="Grupo 987127" clip-path="url(#clip-path-10)">
                    <path id="Trazado_677007" data-name="Trazado 677007" d="M214.147,344.046s10.118-36.053.166-74.926C208.75,247.392,195.948,236.34,187.6,234.6c-9.353-1.951-19.786,6.064-12.75,20.717,6.687,13.923,21.564,20.758,27.243,55.939a149.368,149.368,0,0,1,1.885,32.782,3,3,0,0,0,4.321,2.891Z" transform="translate(-172.546 -234.309)" fill="#fff"/>
                  </g>
                </g>
              </g>
              <path id="Trazado_677008" data-name="Trazado 677008" d="M201.654,333.761a.592.592,0,0,1-.468-.7c8.17-41.562-8.621-78.615-23.154-91.65a.594.594,0,0,1,.793-.885c14.74,13.223,31.785,50.745,23.525,92.764a.591.591,0,0,1-.7.468" transform="translate(-158.272 66.132)" fill="#fff"/>
              <path id="Trazado_677009" data-name="Trazado 677009" d="M220.643,337.527a2.993,2.993,0,0,1-4.3-2.207c-1.373-8.575-5.869-17.682-14.836-27.661-10.432-11.607-25.242-22.719-22.053-31.846s15.456-6.036,23.72-.1,26.046,27.224,18.943,61.076Z" transform="translate(-179.009 74.298)" fill="#ba68c8"/>
              <g id="Grupo_987132" data-name="Grupo 987132" transform="translate(0 344.357)" opacity="0.65">
                <g id="Grupo_987131" data-name="Grupo 987131">
                  <g id="Grupo_987130" data-name="Grupo 987130" clip-path="url(#clip-path-11)">
                    <path id="Trazado_677010" data-name="Trazado 677010" d="M220.643,337.527a2.993,2.993,0,0,1-4.3-2.207c-1.373-8.575-5.869-17.682-14.836-27.661-10.432-11.607-25.242-22.719-22.053-31.846s15.456-6.036,23.72-.1,26.046,27.224,18.943,61.076Z" transform="translate(-179.009 -270.059)" fill="#fff"/>
                  </g>
                </g>
              </g>
              <path id="Trazado_677011" data-name="Trazado 677011" d="M212.9,337.29a.568.568,0,0,1-.478-.589c2.979-25.592-16.058-55.906-30.937-62.444a.586.586,0,0,1-.286-.788.611.611,0,0,1,.789-.286c14.869,5.174,35.787,37.942,31.62,63.533a.628.628,0,0,1-.6.585.514.514,0,0,1-.108-.012" transform="translate(-172.125 75.145)" fill="#fff"/>
            </g>
          </g>
          <g id="Grupo_987136" data-name="Grupo 987136">
            <g id="Grupo_987135" data-name="Grupo 987135" clip-path="url(#clip-path-7)">
              <path id="Trazado_677012" data-name="Trazado 677012" d="M55.547,129.868c1.468.613.865,2-.56,2.368-3.382.866-6.805-1.693-9.1-1.939-.573,0-8.152,1.021-9.181,2.228,1.715.329,7.2.928,8.9,1.349.491.121,1.742.677,5.562,2.41a5.859,5.859,0,0,1,1.886,1.074c.321.4.144,1.562-1.192,1.9-2.395.6-4.789-1.153-7.194-1.7-1.158-.3-4.879-1.032-7.008.217,3.351,1.132,5.08,2.486,9.1,5.855.471.4.377.718.126,1.028a2.116,2.116,0,0,1-1.845.632c-1.64-.2-3.171-1.64-5.236-2.7a14.944,14.944,0,0,0-6.99-1.292,6.43,6.43,0,0,0-2.562.6,31.424,31.424,0,0,0-2.831,1.762,11.1,11.1,0,0,1-12.392-.9,1.535,1.535,0,0,1-.541-.662,1.612,1.612,0,0,1,.444-1.4c3.011-4.006,7.633-6.4,11.773-9.224,1.362-.93,11.727-7.718,12.146-7.9.182-.079,11.857,4.14,12.194,4.316,1.035.541,3.09,1.391,4.505,1.983" transform="translate(198.195 33.996)" fill="#f0997a"/>
              <path id="Trazado_677013" data-name="Trazado 677013" d="M38.068,106.647c2.36,3.424,20.273,28.378,20.273,28.378s25.893,3.681,31.46,4.066c7.669.529,12.064-2.22,15.948-4.6,5.57-3.414,6.532-3.132,9.927-3.042,2.108.056,7.227-.361,7.41-.37a5.729,5.729,0,0,1,2.127.546c.374.125,1.891.726,2.257.87,2.112.828,3.366,1.452,5.477,2.28a9.738,9.738,0,0,1,1.886.9.758.758,0,0,1,.309.319c.107.268-.089.559-.3.759a4.953,4.953,0,0,1-3.832,1.149,17.213,17.213,0,0,1-3.985-1.016c-.8-.266-1.222-.473-2.85-1a3.88,3.88,0,0,0-2.039-.006,46.021,46.021,0,0,0-9.528,2.59c3.783,1.153,5.913,1.334,8.611.835s2.749,2.594-.516,4.131c-3.76,1.771-6.636.4-11.563,2.859s-4.379,8.543-11.718,8.228c-3.113-.224-6.863-1.075-12.029-.52-7.095.763-29.186,3.082-33.587,2.939-9.614-.314-9.987-1.3-19.537-17.946C18.791,115.507,16.8,110.916,16.8,110.916l-.89-20.936c6.626.63,12.814,3.116,22.154,16.667" transform="translate(117.538 24.755)" fill="#ffbda7"/>
              <path id="Trazado_677014" data-name="Trazado 677014" d="M69.225,89.259C77.778,90,84.21,92.453,93.09,105.927,100.634,117.371,113,134.689,113,134.689l8.831,1.246s-2.655,3.137-3.076,9.41a30.373,30.373,0,0,0,1.52,11.087s-.692.066-9.414.764-11.588-.523-13.625-1.506-4.455-3.19-8.066-7.894c-5.609-7.306-18.617-24.466-18.617-24.466Z" transform="translate(62.899 24.557)" fill="#37474f"/>
              <path id="Trazado_677015" data-name="Trazado 677015" d="M36.669,128.371a19.633,19.633,0,0,0-5.173-.441c-.675.079.358-1.122,3.1-1.247s4.173,1.057,5.02.719Z" transform="translate(193.478 34.85)" fill="#f0997a"/>
              <path id="Trazado_677016" data-name="Trazado 677016" d="M99.308,326.338,95.893,305.06l25.973-4.213s-.15,16.96.405,24.705c.263,3.651,3.167,10.387,3.167,10.387s-10.007,5.984-15.467,4.055-9.442-10.29-9.4-11.864Z" transform="translate(25.288 82.768)" fill="#ffbda7"/>
              <path id="Trazado_677017" data-name="Trazado 677017" d="M131.686,350.887c.365,0,.713,3.4-1.261,5.126-2.277,1.988-9.567,5.862-18.436,4.775s-13.679-3.795-17.238-6.74-8.546-7.1-12.559-7.955a28.556,28.556,0,0,1-9.984-4.923c-1.2-1.144-1.051-6.266-1.051-6.266Z" transform="translate(50.307 92.137)" fill="#263238"/>
              <path id="Trazado_677018" data-name="Trazado 677018" d="M73.953,319.245s-.471.255-.695,1.442c-.268,1.413-.547,5.519-1.125,7.839-.8,3.225-1.322,9.826-.825,12.446S78.9,346.7,82.78,348.149c3.969,1.483,8.565,4.564,12.6,7.855,4.179,3.407,12.954,6.92,18.731,6.839,6.836-.1,14.525-2.367,16.277-5.549,2.166-3.939,3.74-8.508-6.414-13.136-1.922-.875-8.677-4.819-10.979-6.249-6.23-3.87-10.615-7.43-13.5-14.335a3.853,3.853,0,0,0-1.465-2.108,3.229,3.229,0,0,0-1.971-.164c-1.688.249-8.421,1.225-9.956,1.97-1.358.658-3.285,1.427-3.249,3.169a5.84,5.84,0,0,0,.388,1.769c.124.354.221.828-.089,1.04-.293.2-.685-.023-.95-.258a26.323,26.323,0,0,1-2.744-3.262,29.423,29.423,0,0,0-2.619-2.948,17.133,17.133,0,0,1-1.741-1.112,3.988,3.988,0,0,1-1.148-2.424" transform="translate(50.329 87.829)" fill="#455a64"/>
              <path id="Trazado_677019" data-name="Trazado 677019" d="M76.544,350.851c-1.774-1.446-3.656-2.842-5.545-4.089v-.009s11.948,7.165,16.753,3.841c3.095-2.141,1.609-4.706,1.531-5.529s10.855-6.71,13.868-7.09c.84.459,1.537.852,1.988,1.029,7.927,3.11,9,7.185,7.7,12.327-1.752,3.183-8.6,6.506-17.44,6.567-5.778.041-14.675-3.639-18.854-7.046" transform="translate(69.168 92.982)" fill="#37474f"/>
              <path id="Trazado_677020" data-name="Trazado 677020" d="M121.822,347.823c6.312,2.478,3.628,3.674,1.864,3.938s-12.4-5.859-18.886-10.934c-6.77-5.294-12.056-12.427-14.571-14.372-.937-.724-1.946-1.617-2.845-2.45.161-1.39.291-2.654.416-3.319.226-1.187.7-1.441.7-1.441a7.683,7.683,0,0,0,1.148,2.423,17.253,17.253,0,0,0,1.739,1.113A29.427,29.427,0,0,1,94,325.728a26.033,26.033,0,0,0,2.744,3.262c5.531,6.949,18.762,16.356,25.074,18.834" transform="translate(35.785 87.829)" fill="#37474f"/>
              <path id="Trazado_677021" data-name="Trazado 677021" d="M78.336,345.745a.624.624,0,0,1-.487-1.016c1.771-2.191,10.182-7.421,14.822-6.944a.62.62,0,0,1,.555.683.612.612,0,0,1-.683.559c-4.333-.436-12.321,4.75-13.724,6.486a.622.622,0,0,1-.482.232" transform="translate(80.684 92.922)" fill="#263238"/>
              <path id="Trazado_677022" data-name="Trazado 677022" d="M82.655,343.12a.621.621,0,0,1-.485-1.015c1.769-2.191,10.177-7.416,14.821-6.943a.624.624,0,0,1-.129,1.241c-4.334-.428-12.321,4.749-13.724,6.485a.621.621,0,0,1-.483.232" transform="translate(70.854 92.2)" fill="#263238"/>
              <path id="Trazado_677023" data-name="Trazado 677023" d="M86.978,340.637a.623.623,0,0,1-.486-1.016c1.771-2.192,10.182-7.425,14.821-6.943a.624.624,0,0,1-.129,1.242c-4.334-.435-12.321,4.747-13.724,6.485a.62.62,0,0,1-.482.232" transform="translate(61.02 91.517)" fill="#263238"/>
              <path id="Trazado_677024" data-name="Trazado 677024" d="M90.985,337.793a.615.615,0,0,1-.4-.138.625.625,0,0,1-.092-.877c1.77-2.192,10.2-7.42,14.822-6.943a.624.624,0,0,1-.129,1.242c-4.329-.432-12.321,4.747-13.724,6.484a.621.621,0,0,1-.482.232" transform="translate(51.903 90.734)" fill="#263238"/>
              <path id="Trazado_677025" data-name="Trazado 677025" d="M94.083,334.963a.622.622,0,0,1-.492-1.007c2.434-3.107,11.247-7.489,15.883-7.013a.618.618,0,0,1,.556.682.626.626,0,0,1-.685.558c-4.175-.425-12.613,3.786-14.775,6.54a.619.619,0,0,1-.487.24" transform="translate(43.799 89.937)" fill="#263238"/>
              <path id="Trazado_677026" data-name="Trazado 677026" d="M169.784,332.81l4.808-26.592-25.754-3,.62,26.03s-1.678,7.077-.14,9.422,17.014,4.241,18.359,2.582,2.106-8.444,2.106-8.444" transform="translate(-91.161 83.421)" fill="#ffbda7"/>
              <path id="Trazado_677027" data-name="Trazado 677027" d="M180.736,360.873c-.439,5.938-1.507,9.811-3.9,13.117s-6.856,4.037-11.359,2.639-10.257-4.617-11.507-9.873-.956-8.765.116-14.218Z" transform="translate(-103.023 96.989)" fill="#263238"/>
              <path id="Trazado_677028" data-name="Trazado 677028" d="M159.621,323.634c-1.86-.023-1.173,4.608-1.733,12.615-.6,8.661-4.165,15.577-5.252,22.545-1.242,7.962-.8,11.6,2.3,16.735s14.207,10.833,19.759,4.309c4.527-5.32,4.766-11.614,4.428-19.694-.351-8.353-.671-14.235-.237-20.517.416-6,2.665-11.628,1.056-12.432-.131.875-1.469,6.994-2.511,6.94a11.216,11.216,0,0,1,0-2.276,2.606,2.606,0,0,0-.493-1.988,8.542,8.542,0,0,0-3.045-1.418c-1.826-.476-5.079-1.028-6.935-1.331-.924-.152-1.854-.268-2.784-.335a7.948,7.948,0,0,0-2.358.107,1.441,1.441,0,0,0-1.014.734,2.347,2.347,0,0,0-.106.913,5.78,5.78,0,0,1-.246,1.635c-.07.232-.256.507-.522.428a.51.51,0,0,1-.3-.513c0-.973-.057-5.945-.014-6.457" transform="translate(-101.324 89.037)" fill="#455a64"/>
              <path id="Trazado_677029" data-name="Trazado 677029" d="M154.089,349.438c-.191,1.148-1.355,8.754.97,10.334,2.516,1.711,3.955-4.224,3.955-4.224s5.947-1.14,14.552,2.963c-.454,1.211.843,5.44,3.218,4.765s3.366-9.421,3.379-9.534c.292,7.745-.059,13.832-4.453,19-5.553,6.525-16.656.825-19.761-4.309s-3.546-8.773-2.3-16.735c.124-.8.274-1.542.441-2.257" transform="translate(-102.336 96.136)" fill="#37474f"/>
              <path id="Trazado_677030" data-name="Trazado 677030" d="M171.716,363.217c-.062,2.91-3.26,1.661-3.364-2.464s1.628-14.224,2.168-21c.153-9.72.281-16.144,2.141-16.121-.009.1-.006.2-.013.3,0,0,.027,5.533.025,6.161-.1,5.938.283,17.453-.335,22.837a84.8,84.8,0,0,0-.622,10.289" transform="translate(-114.364 89.037)" fill="#37474f"/>
              <path id="Trazado_677031" data-name="Trazado 677031" d="M152.037,364.677A83.114,83.114,0,0,0,153.9,354.6c.689-5.333,3.389-16.064,4.71-21.829.463-.956,1.823-6.348,1.823-6.348,1.3.315.215,5.449-.291,7.85s-1.14,4.981-1.757,8.422c-1.654,6.8-1.437,16.9-2.521,20.816s-4.459,3.975-3.824,1.163" transform="translate(-81.807 89.805)" fill="#37474f"/>
              <path id="Trazado_677032" data-name="Trazado 677032" d="M172.917,357.63a.853.853,0,0,1-.251-.087c-.065-.038-6.786-3.69-14.308-2.516a.76.76,0,0,1-.839-.509.568.568,0,0,1,.5-.715,26.25,26.25,0,0,1,15.3,2.7.616.616,0,0,1,.282.857.658.658,0,0,1-.681.273" transform="translate(-101.505 97.267)" fill="#263238"/>
              <path id="Trazado_677033" data-name="Trazado 677033" d="M173.325,352.821a.8.8,0,0,1-.228-.075c-.075-.038-7.634-3.856-16.022-2.81a.762.762,0,0,1-.822-.532.572.572,0,0,1,.524-.7,32.169,32.169,0,0,1,16.926,2.974.63.63,0,0,1,.318.853.661.661,0,0,1-.695.291" transform="translate(-100.306 95.881)" fill="#263238"/>
              <path id="Trazado_677034" data-name="Trazado 677034" d="M156.368,345.3a.751.751,0,0,1-.581-.464.566.566,0,0,1,.439-.75c8.356-1.844,16.557,2.637,16.9,2.831a.616.616,0,0,1,.283.857.709.709,0,0,1-.932.184c-.078-.042-8.046-4.388-15.82-2.662a.75.75,0,0,1-.292.005" transform="translate(-99.096 94.543)" fill="#263238"/>
              <path id="Trazado_677035" data-name="Trazado 677035" d="M155.726,340.92a.752.752,0,0,1-.576-.454.56.56,0,0,1,.422-.756c9.192-2.188,16.921,2.608,17.245,2.812a.607.607,0,0,1,.223.868.713.713,0,0,1-.949.129c-.07-.046-7.507-4.641-16.063-2.608a.756.756,0,0,1-.3.009" transform="translate(-97.926 93.303)" fill="#263238"/>
              <path id="Trazado_677036" data-name="Trazado 677036" d="M155.141,335.963a.753.753,0,0,1-.573-.445.56.56,0,0,1,.409-.763c8.615-2.177,17.013,2.779,17.366,2.994a.611.611,0,0,1,.246.865.7.7,0,0,1-.944.149c-.082-.048-8.2-4.831-16.194-2.812a.734.734,0,0,1-.311.011" transform="translate(-96.721 91.945)" fill="#263238"/>
              <path id="Trazado_677037" data-name="Trazado 677037" d="M104.715,155.269c-2.722,25.136-4.482,39.1-3.86,72.02.236,12.481-.207,26.343-.333,38.825-.036,3.54.384,7.72-.2,11.222-1.083,6.48-1.738,10.513-2.851,18.456-.673,4.81-1,10.916-1.339,15.763-.5,7.269.21,14.657-1.312,21.788a68.871,68.871,0,0,0-1.7,8.029,12.315,12.315,0,0,0,.329,4.409c.4,1.44,3,4.874,3.447,6.174.659,1.9.054,4.746.046,6.786,0,0,13.473,6.707,23.75,3.054.481-1.809.627-4.807,1.649-6.3.731-1.066,4.012-3.629,4.921-4.686a9.632,9.632,0,0,0,2.039-3.859,37.733,37.733,0,0,0,.555-6.1c.431-4.8,2.627-9.246,4.179-13.818,4.182-12.321,3.452-25.413,6.038-38.023,3.493-17.023,5.163-27.791,7.139-39.916s6.993,24.155,6.993,24.161c.287,2.062-.231,4.531-.314,6.605-.172,4.306-.068,8.538-.625,12.791a90.556,90.556,0,0,0,.773,28.408c.922,4.918,1.727,8.3,1.46,13.313-.157,2.939-.671,5.54.473,8.256.822,1.952,2.948,5.192,3.981,7,.426.746.44,6.645.9,6.928,0,0,14.239,8.2,24.959-.639a26.525,26.525,0,0,1,1.818-6.636,15.84,15.84,0,0,0,3.788-8.607c.2-2.771-.645-4.792-.658-7.57a89.8,89.8,0,0,1,.933-10.174,115.356,115.356,0,0,0,.56-14.555c-.07-4.222-.773-8.7-.121-12.838,1.085-6.889,1.228-14.182,1.443-21.163.843-27.461-2.826-83.186-4.464-118.628Z" transform="translate(-39.343 42.717)" fill="#455a64"/>
              <path id="Trazado_677038" data-name="Trazado 677038" d="M113.964,195.848l-7.248,49c.27-1.665.541-3.334.817-5.032,1.976-12.126,6.994,24.161,6.994,24.161l-.9-22.46c-.334-7.411.877-14.459,1.908-22.573,1.338-10.525,2.586-17.961,2.586-17.961C132.2,197.843,136.6,189,136.6,189c-6.42,6.212-22.635,6.85-22.635,6.85" transform="translate(0.328 51.996)" fill="#263238"/>
              <path id="Trazado_677039" data-name="Trazado 677039" d="M148.669,317.323c4.555,3.73,14.947,6.487,24.18,3.232l1.964-7.851c-6.967,2.282-18.247,1.137-25.865-3.779Z" transform="translate(-91.382 84.99)" fill="#263238"/>
              <path id="Trazado_677040" data-name="Trazado 677040" d="M98.707,315.617c3.091,3.216,17.636,4.728,26.179-.3l.6-7.889c-6.476,3.624-21.377,4.124-27.679.348Z" transform="translate(22.791 84.578)" fill="#263238"/>
              <path id="Trazado_677041" data-name="Trazado 677041" d="M148.694,216.116s-.794,35.757-.712,38.329,20.385,8.006,20.885,6.376c.833-2.717.664-8.786,2.471-38.023-15.653-2.124-22.645-6.682-22.645-6.682" transform="translate(-87.024 59.457)" fill="#37474f"/>
              <path id="Trazado_677042" data-name="Trazado 677042" d="M167.067,230.127a5.966,5.966,0,0,0-1.783-.158c-.692-.02-1.385-.055-2.076-.116a31.324,31.324,0,0,1-4.347-.7,34.006,34.006,0,0,1-4.763-1.492c-1.264-.5-2.458-1.169-3.723-1.656-.119-.046-.139.187-.062.245a18.108,18.108,0,0,0,3.978,2.078,29.5,29.5,0,0,0,3.938,1.308,31.557,31.557,0,0,0,4.335.8q1.1.124,2.2.171a4.712,4.712,0,0,0,2.313-.157c.1-.055.11-.287-.008-.328" transform="translate(-85.759 62.177)" fill="#263238"/>
              <path id="Trazado_677043" data-name="Trazado 677043" d="M158.963,226.393a.966.966,0,0,1-.334.8,1.279,1.279,0,0,1-1.352.018,1.337,1.337,0,0,1-.668-1.331,1.164,1.164,0,0,1,.474-.8,1.346,1.346,0,0,1,.953-.242c.407.05.546.275.724.64a2.025,2.025,0,0,1,.2.908m-.778-.807a.736.736,0,0,0-.528-.143c-.59.061-.695,1.01-.214,1.294a.761.761,0,0,0,.953-.176.794.794,0,0,0-.21-.975" transform="translate(-85.642 61.856)" fill="#263238"/>
              <path id="Trazado_677044" data-name="Trazado 677044" d="M106.485,94.4s-12.1,9.1-10.765,28.9c1.018,15.143,4.88,31.828,5.26,38.313.583,9.946-.289,33.737-.289,33.737,14.845,18.1,80.292,13.933,88.238-2.327,0,0-1.645-51.391-4.953-76.265-1.733-13.033-8.968-23.4-13.77-27.062a124.87,124.87,0,0,0-16.259-1.91c-6.838-.477-26.368.765-26.368.765Z" transform="translate(-37.852 24.121)" fill="#f0f0f0"/>
              <path id="Trazado_677045" data-name="Trazado 677045" d="M151.126,44.535s-4.955.269-7.271,4.047-3.707,10.66-.726,18.344c3.278,8.457,9.637,16.6,11.028,18.97a6.73,6.73,0,0,0,4.043,2.931L157.445,78.4l-.727-7.254s5.617-5.6,5.88-10.845c.337-6.756-2.465-10.442-2.465-10.442Z" transform="translate(-69.964 12.252)" fill="#37474f"/>
              <path id="Trazado_677046" data-name="Trazado 677046" d="M150.331,59.217a26.763,26.763,0,0,0-9.57-1.59c-2.925-.047-5.85-.11-8.775-.164l-9.4-.176s-10.068-1.2-10.4-8.274a10.715,10.715,0,0,1,1.779-6.406,21.575,21.575,0,0,1,4.956-5.2,27.03,27.03,0,0,1,13.449-5.268,44.1,44.1,0,0,1,11.5.469c2.577.376,5.214.84,7.762.3,1.826-.388,3.74-1.57,3.969-3.422A8.065,8.065,0,0,1,156.86,38.2a5.755,5.755,0,0,1,5.727,3.992c.857,2.68-.3,4.916-1.808,7.03.186-.261,1.284,1.692,1.371,1.857a6.2,6.2,0,0,1,.667,3.763c-.263,1.843-1.839,3.217-3.473,4.108a10.112,10.112,0,0,1-9.011.27" transform="translate(-32.921 8.112)" fill="#37474f"/>
              <path id="Trazado_677047" data-name="Trazado 677047" d="M118.427,82.273c5.533,2.378,7.8-2.015,7.8-2.015l1.812,21.486c11.029,13.412,38.5,7.1,26.655-2.776l-.25-4.909a32.446,32.446,0,0,0,4.662-.676c4.752-.978,8.94-5.44,10.126-10.692,1.748-7.769.646-19.568-2.851-32.493-.674-2.5-1.891-5.2-4.26-6.234-5.878-2.573-11,1.77-18.863,5.262-3.257,1.447-11.27,2.388-13.437,1.493,2.937,2.953,3.365,12.7-.566,16.842a9.031,9.031,0,0,1-1.937,2.781c-1.681,1.605-3.3-2.26-4.84-3.731s-7.139-2.578-9.282,2.595a9.835,9.835,0,0,0,5.232,13.066" transform="translate(-40.344 11.881)" fill="#ffbda7"/>
              <path id="Trazado_677048" data-name="Trazado 677048" d="M148.767,85.85c-6.284.255-11.9-.261-15.675-1.651s-7.3-6.253-8.608-11.178c.186,4,2.272,11.022,8.029,13.709s12.309,2.543,16.424,2.439Z" transform="translate(-34.667 20.089)" fill="#f0997a"/>
              <path id="Trazado_677049" data-name="Trazado 677049" d="M137.257,54.3l-5.206,2.483a3.026,3.026,0,0,1,1.413-3.943,2.814,2.814,0,0,1,3.793,1.46" transform="translate(-32.305 14.463)" fill="#37474f"/>
              <path id="Trazado_677050" data-name="Trazado 677050" d="M122.617,53.664l-5.79-.5a2.789,2.789,0,0,1,3.037-2.679,3.053,3.053,0,0,1,2.753,3.178" transform="translate(1.412 13.887)" fill="#37474f"/>
              <path id="Trazado_677051" data-name="Trazado 677051" d="M130.742,60.026a2.35,2.35,0,1,0,2.149-2.535,2.351,2.351,0,0,0-2.149,2.535" transform="translate(-29.134 15.814)" fill="#263238"/>
              <path id="Trazado_677052" data-name="Trazado 677052" d="M117.358,57.7a2.35,2.35,0,1,0,2.149-2.535,2.351,2.351,0,0,0-2.149,2.535" transform="translate(1.316 15.176)" fill="#263238"/>
              <path id="Trazado_677053" data-name="Trazado 677053" d="M119.193,54.63l2.632,14.854,7.759-3.282A35.048,35.048,0,0,0,119.193,54.63" transform="translate(-8.568 15.03)" fill="#f0997a"/>
              <path id="Trazado_677054" data-name="Trazado 677054" d="M123.721,69.045l9.607,2.688a4.9,4.9,0,0,1-6.054,3.629,5.222,5.222,0,0,1-3.552-6.317" transform="translate(-17.878 18.995)" fill="#b16668"/>
              <path id="Trazado_677055" data-name="Trazado 677055" d="M128.244,70.362a5.526,5.526,0,0,0-1.208-.059,5.156,5.156,0,0,0,3.683,4.715,4.746,4.746,0,0,0,1.59.148,4.567,4.567,0,0,0-4.065-4.8" transform="translate(-21.324 19.339)" fill="#f0997a"/>
              <path id="Trazado_677056" data-name="Trazado 677056" d="M93.632,93.737c-2.138-1.132-5.253-.936-8.942,1.2-7.1,4.094-54.339,31.313-54.339,31.313l-17.186-9.92S60.419,89.1,67.517,85.018c3.8-2.207,7-2.347,9.137-1.089,1.817,1.061,14.266,8.2,16.977,9.808" transform="translate(162.584 22.871)" fill="#455a64"/>
              <path id="Trazado_677057" data-name="Trazado 677057" d="M83.6,203.613c-.028,2.5-.126,5.211-.238,7.755-.083,2.067-.181,3.995-.251,5.561-.084,1.593-.139,2.836-.139,3.479a.777.777,0,0,0,.251.615c-1.173-.685-16.851-9.71-17.1-9.878a.741.741,0,0,1-.321-.657c0-.643.056-1.886.139-3.479s.168-3.508.251-5.575c.112-2.53.21-5.241.238-7.741.056-4.01-.084-7.434-.629-8.649a12.874,12.874,0,0,0-1.034-1.789c-.7-.964-1.635-2.207-2.711-3.563v-.014c-4.849-6.133-12.491-14.8-12.491-14.8v-.07l17.186,9.92v.084s7.629,8.649,12.477,14.782v.014c1.076,1.369,2.012,2.6,2.711,3.563a12.875,12.875,0,0,1,1.034,1.789c.544,1.215.685,4.639.629,8.649" transform="translate(126.183 45.342)" fill="#37474f"/>
              <path id="Trazado_677058" data-name="Trazado 677058" d="M79.2,119.218l-15.912-9.185v69.48L79.2,188.7Z" transform="translate(113.093 30.272)" fill="#455a64"/>
              <path id="Trazado_677059" data-name="Trazado 677059" d="M64.067,111.376v68.007L78.7,187.832V119.824Zm-1.275-2.208,17.186,9.92v70.953l-17.186-9.92Z" transform="translate(112.956 30.034)" fill="#455a64"/>
              <path id="Trazado_677060" data-name="Trazado 677060" d="M79.971,190.043l-17.177-9.927V109.163l17.177,9.927Z" transform="translate(112.962 30.032)" fill="#263238"/>
              <path id="Trazado_677061" data-name="Trazado 677061" d="M17.126,240.731a2.305,2.305,0,0,0,.36-.031c2.742-.411,8.635-4.434,12.583-10.923a29.748,29.748,0,0,0,3.129-7.041,88.287,88.287,0,0,0,3.245-14.976,48.816,48.816,0,0,0-1.086-18.693l-.13-.5,33.3-19.2a17.332,17.332,0,0,0,6.124-6.276,22.773,22.773,0,0,0,3.314-10.656c.041-6.379-3.574-7.255-4.684-7.373l-1.575-.166,1.2-1.034c.064-.055,6.33-5.556,6.33-13.91,0-3.29-1.533-6.609-4.959-6.609a6.833,6.833,0,0,0-2.146.379l-1.6.536.779-1.5a23.7,23.7,0,0,0,2.089-9.968c0-2.722-2.456-5.887-5.619-5.887a5.117,5.117,0,0,0-2.574.726l-1.514.872.518-1.669a35.471,35.471,0,0,0,1.366-9.234c.018-2.543-.91-4.479-2.614-5.457a5.457,5.457,0,0,0-2.75-.68,11.709,11.709,0,0,0-5.665,1.79L.537,124.355v70.379c1.16,1.32,7.935,9.055,12.338,14.629l.147.186v.014c.936,1.183,1.846,2.383,2.582,3.4a12.957,12.957,0,0,1,1.112,1.922c.522,1.165.747,4.089.68,8.921-.026,2.161-.1,4.7-.238,7.771-.054,1.322-.112,2.591-.167,3.746l-.084,1.826c-.065,1.237-.139,2.739-.139,3.443.024.092.128.14.36.14" transform="translate(193.079 25.16)" fill="#fff"/>
              <path id="Trazado_677062" data-name="Trazado 677062" d="M60.355,92.286h0a11.036,11.036,0,0,0-5.326,1.7C48.437,97.781,7.2,121.537,1.369,124.9v69.725c1.544,1.761,7.958,9.106,12.19,14.464l.295.386c.9,1.148,1.766,2.288,2.483,3.283a12.99,12.99,0,0,1,1.143,1.978c.365.815.839,2.657.748,9.225-.024,2.151-.1,4.7-.238,7.79-.055,1.335-.115,2.613-.17,3.774l-.083,1.814c-.05.942-.106,2.047-.128,2.819,2.22-.389,7.91-3.83,12.021-10.586a29.064,29.064,0,0,0,3.059-6.883,87.645,87.645,0,0,0,3.222-14.868,48.142,48.142,0,0,0-1.071-18.434l-.259-1.009.9-.52,32.855-18.946a16.652,16.652,0,0,0,5.877-6.036,22.028,22.028,0,0,0,3.213-10.308c.037-5.8-3.1-6.581-4.069-6.682l-3.141-.333,2.388-2.068c.061-.052,6.093-5.367,6.093-13.391,0-2.733-1.12-5.923-4.273-5.923a6.147,6.147,0,0,0-1.931.343L69.3,125.576l1.545-2.994a23.1,23.1,0,0,0,2.011-9.653c0-2.406-2.155-5.2-4.935-5.2a4.437,4.437,0,0,0-2.233.635L62.664,110.1l1.033-3.336a34.769,34.769,0,0,0,1.336-9.042c.017-2.28-.791-4-2.27-4.853a4.778,4.778,0,0,0-2.409-.588m0-1.371a6.145,6.145,0,0,1,3.091.77c1.892,1.086,2.977,3.252,2.958,6.052a35.873,35.873,0,0,1-1.4,9.438,5.8,5.8,0,0,1,2.916-.819c3.457,0,6.305,3.356,6.305,6.573a24.114,24.114,0,0,1-2.166,10.284,7.473,7.473,0,0,1,2.364-.414c3.569,0,5.642,3.172,5.642,7.294,0,8.788-6.567,14.429-6.567,14.429,1.775.186,5.338,1.619,5.3,8.054a23.328,23.328,0,0,1-3.41,11.007,18.046,18.046,0,0,1-6.37,6.518l-32.85,18.943a49.552,49.552,0,0,1,1.1,18.943A89.24,89.24,0,0,1,34,223.081a30.626,30.626,0,0,1-3.2,7.2c-4.205,6.91-10.27,10.824-13.064,11.243a3.1,3.1,0,0,1-.465.038c-.658,0-1.044-.274-1.044-.825,0-.643.056-1.881.14-3.473.069-1.575.167-3.505.251-5.571.112-2.532.209-5.245.237-7.75.056-4.005-.084-7.434-.629-8.649a12.011,12.011,0,0,0-1.034-1.783c-.7-.968-1.635-2.206-2.711-3.563v-.014C7.635,203.8,0,195.139,0,195.139V124.106S47.247,96.885,54.346,92.8a12.247,12.247,0,0,1,6.01-1.882" transform="translate(192.933 25.012)" fill="#37474f"/>
              <path id="Trazado_677063" data-name="Trazado 677063" d="M109.783,124.414a6.519,6.519,0,0,0-.918-3.092,6.705,6.705,0,0,0-2.223-2.344l-10.919-6.3a6.957,6.957,0,0,0-6.257,0h-.024L72.025,122.748A6.5,6.5,0,0,0,69.8,125.09a6.6,6.6,0,0,0-.918,3.093v75.348a6.9,6.9,0,0,0,3.141,5.436l10.919,6.3a6.357,6.357,0,0,0,3.141.75A6.518,6.518,0,0,0,89.2,215.3a.024.024,0,0,1,.024-.024l17.467-10.1a6.858,6.858,0,0,0,3.141-5.412v-.024Z" transform="translate(75.334 30.794)" fill="#37474f"/>
              <path id="Trazado_677064" data-name="Trazado 677064" d="M104.708,131.649v81.532a6.353,6.353,0,0,1-3.141-.748l-10.919-6.305a6.9,6.9,0,0,1-3.141-5.436V125.343a6.6,6.6,0,0,1,.918-3.092Z" transform="translate(56.71 33.633)" fill="#263238"/>
              <path id="Trazado_677065" data-name="Trazado 677065" d="M108.705,121.322,85.924,134.488l-16.282-9.4a6.5,6.5,0,0,1,2.223-2.344l17.418-10.073h.024a6.957,6.957,0,0,1,6.257,0l10.919,6.3a6.705,6.705,0,0,1,2.223,2.344" transform="translate(75.495 30.794)" fill="#455a64"/>
              <path id="Trazado_677066" data-name="Trazado 677066" d="M89.066,93.7c-11.38,2.679-15.486,12.777-11.374,25.451,3.6,11.108,23.657,38.617,26.276,43.254s5.061,6.432,12.76,10.9,28.5,13.839,34.534,16.71,9.569,7.079,15.183,10.641,13.908,4.474,18.154,4.338c1.885-.061,3.9-1.311,5.788-3.058,3.008-.365,3.563-1.489,3.5-2.529,2.618-.015,3.8-.547,3.09-2.452-1.489-3.973-8.505-4.346-14.637-6.6-5.852-2.149-10.243-5.4-8.6-6,3.306-1.2,8.11,1.479,13.146-.544,2.953-1.187,2.8-3.665,1.5-3.8-2.435-.26-6.97-2.48-12.853-3.532-5.363-.958-12.417.254-16.138-1.88-8.71-4.993-34.431-23-34.431-23l-22.339-37.5S99.282,99.163,89.066,93.7" transform="translate(-21.262 25.777)" fill="#ffbda7"/>
              <path id="Trazado_677067" data-name="Trazado 677067" d="M185.786,158.026l-8.564-6.623-21.507-37.139s-4.94-17.637-13.973-21.316c-8.908,2.2-12.634,6.756-14.36,10.64-1.081,2.432-3.947,13.674,1.976,24.575,6.915,12.726,18.508,28.536,22.9,34.281,3.277,4.284,6.077,5.635,11.723,8.791s9.863,5.1,9.863,5.1c6.65-4.372,11.06-10.2,11.94-18.311" transform="translate(-73.109 25.571)" fill="#37474f"/>
            </g>
          </g>
          <g id="Grupo_987138" data-name="Grupo 987138">
            <g id="Grupo_987137" data-name="Grupo 987137" clip-path="url(#clip-path-7)">
              <g id="Grupo_987142" data-name="Grupo 987142" transform="translate(149.713 31.135)">
                <path id="Trazado_677068" data-name="Trazado 677068" d="M47.36,13.72a32.024,32.024,0,0,0-7.341,22.428l.426,3.653a32.111,32.111,0,0,0,63.746-5.878l-.249-3.671A32.114,32.114,0,0,0,47.36,13.72" transform="translate(-37.231 0.586)" fill="#fff"/>
                <g id="Grupo_987141" data-name="Grupo 987141">
                  <path id="Trazado_677069" data-name="Trazado 677069" d="M95,8.076a34.859,34.859,0,0,1-39.892,56.88L45.633,70.2a2.025,2.025,0,0,1-2.9-2.419L46.2,57.524A34.859,34.859,0,0,1,95,8.076M47.983,14.262A32.03,32.03,0,0,0,40.6,36.676l.421,3.656a32.111,32.111,0,0,0,63.755-5.767l-.242-3.67A32.114,32.114,0,0,0,47.983,14.262" transform="translate(-37.822 -0.001)" fill="#455a64"/>
                  <path id="Trazado_677070" data-name="Trazado 677070" d="M58.4,14.879l10.5,10.5,10.5-10.5a4.032,4.032,0,0,1,5.7,5.7l-10.5,10.5,10.5,10.5a4.032,4.032,0,1,1-5.7,5.7L68.9,36.78l-10.5,10.5a4.032,4.032,0,0,1-5.7-5.7l10.5-10.5-10.5-10.5a4.032,4.032,0,0,1,5.7-5.7" transform="translate(-34.052 3.768)" fill="#fc5f65"/>
                </g>
              </g>
            </g>
          </g>
        </g>
      </g>
    </g>
  </g>
</svg>
