<svg xmlns="http://www.w3.org/2000/svg" xmlns:xlink="http://www.w3.org/1999/xlink" width="276.846" height="292" viewBox="0 0 276.846 292">
  <defs>
    <clipPath id="clip-path">
      <rect id="Rectángulo_340790" data-name="Rectángulo 340790" width="276" height="292" rx="10" transform="translate(6508 -8511.567)" fill="#ffe891" opacity="0.4"/>
    </clipPath>
    <clipPath id="clip-path-2">
      <rect id="Rectángulo_340786" data-name="Rectángulo 340786" width="294.128" height="294.127" fill="none"/>
    </clipPath>
    <clipPath id="clip-path-4">
      <rect id="Rectángulo_340788" data-name="Rectángulo 340788" width="501.886" height="568.318" fill="none"/>
    </clipPath>
    <clipPath id="clip-path-6">
      <rect id="Rectángulo_340808" data-name="Rectángulo 340808" width="276" height="292" rx="10" transform="translate(1124.154 2489.863)" fill="#fed947" opacity="0.48"/>
    </clipPath>
    <clipPath id="clip-path-7">
      <rect id="Rectángulo_340807" data-name="Rectángulo 340807" width="273.427" height="448.664" fill="none"/>
    </clipPath>
    <clipPath id="clip-path-10">
      <rect id="Rectángulo_340803" data-name="Rectángulo 340803" width="16.597" height="87.739" fill="#c4a21e"/>
    </clipPath>
    <clipPath id="clip-path-11">
      <rect id="Rectángulo_340804" data-name="Rectángulo 340804" width="37.692" height="21.765" fill="#f1cf49"/>
    </clipPath>
  </defs>
  <g id="Grupo_988571" data-name="Grupo 988571" transform="translate(-1124.154 -2722.863)">
    <g id="Grupo_987123" data-name="Grupo 987123" transform="translate(0 -41.137)">
      <g id="Grupo_983671" data-name="Grupo 983671" transform="translate(0.154 2196)">
        <rect id="Rectángulo_40795" data-name="Rectángulo 40795" width="276" height="224" rx="10" transform="translate(1124 568)" fill="#a6bbff"/>
      </g>
      <rect id="Rectángulo_338961" data-name="Rectángulo 338961" width="276" height="292" rx="10" transform="translate(1124.154 2764)" fill="#6b8dfc"/>
      <g id="Enmascarar_grupo_984956" data-name="Enmascarar grupo 984956" transform="translate(-5383 11275.567)" clip-path="url(#clip-path)">
        <g id="Grupo_987116" data-name="Grupo 987116" transform="translate(6508 -8511.567)" clip-path="url(#clip-path-2)">
          <path id="Trazado_676983" data-name="Trazado 676983" d="M124.767,236.136A85.348,85.348,0,0,1,71.6,127.775c8.577-25.1,29.686-63.691,87.321-66.5s66.5-18.058,90.028-42.318,63.857-28.151,112.66,5.589S405.1,118.427,392.947,153.99L367.37,228.842a85.348,85.348,0,0,1-108.361,53.165Z" transform="translate(-114.905 -86.236)" fill="#a6bbff"/>
          <path id="Trazado_676984" data-name="Trazado 676984" d="M342.743,715.013a85.348,85.348,0,0,1-53.165-108.361c8.577-25.1,29.686-63.691,87.321-66.5s66.5-18.058,90.028-42.318,63.857-28.151,112.66,5.589,43.489,93.878,31.336,129.441l-25.578,74.852a85.348,85.348,0,0,1-108.361,53.165Z" transform="translate(-461.107 -283.411)" fill="#a6bbff"/>
        </g>
        <g id="Grupo_987118" data-name="Grupo 987118" transform="translate(6508 -8511.567)">
          <g id="Grupo_987117" data-name="Grupo 987117" clip-path="url(#clip-path-2)">
            <path id="Trazado_676985" data-name="Trazado 676985" d="M96.186,359.216a6.114,6.114,0,0,1-1.2,3.75,3.681,3.681,0,0,1-2.9,1.569L4.127,364.8c-2.259.006-4.118-2.375-4.127-5.294a6.119,6.119,0,0,1,1.2-3.75,3.683,3.683,0,0,1,2.9-1.57l4.158-.012c1.627-4.926,5.408-8.377,9.823-8.391a9.684,9.684,0,0,1,7.616,4.054c2.575-5.676,7.342-9.5,12.815-9.514a11.842,11.842,0,0,1,4.321.813c2.841-6.95,8.484-11.692,15.006-11.712,7.831-.024,14.439,6.774,16.456,16.048A8.8,8.8,0,0,1,79.082,344c4.884-.015,9.016,4.178,10.329,9.933l2.649-.008c2.259-.007,4.117,2.375,4.126,5.294" transform="translate(229.563 -221.875)" fill="#fff"/>
            <path id="Trazado_676986" data-name="Trazado 676986" d="M381.385,194.163a6.112,6.112,0,0,1-1.2,3.75,3.682,3.682,0,0,1-2.9,1.57l-87.965.267c-2.26.007-4.118-2.375-4.127-5.294a6.119,6.119,0,0,1,1.2-3.75,3.683,3.683,0,0,1,2.9-1.57l4.158-.012c1.627-4.926,5.408-8.377,9.823-8.391a9.685,9.685,0,0,1,7.616,4.054c2.575-5.676,7.342-9.5,12.815-9.514a11.842,11.842,0,0,1,4.321.813c2.841-6.949,8.484-11.692,15.005-11.712,7.831-.024,14.44,6.774,16.457,16.048a8.8,8.8,0,0,1,4.794-1.477c4.884-.015,9.016,4.178,10.329,9.933l2.649-.008c2.259-.007,4.117,2.375,4.126,5.294" transform="translate(-223.406 -153.916)" fill="#fff"/>
            <path id="Trazado_676987" data-name="Trazado 676987" d="M596.537,415.931a6.111,6.111,0,0,1-1.2,3.75,3.68,3.68,0,0,1-2.9,1.57l-87.965.268c-2.259.006-4.118-2.375-4.127-5.294a6.119,6.119,0,0,1,1.2-3.75,3.683,3.683,0,0,1,2.9-1.57l4.158-.012c1.627-4.926,5.409-8.377,9.823-8.391a9.684,9.684,0,0,1,7.616,4.054c2.575-5.676,7.342-9.5,12.815-9.514a11.842,11.842,0,0,1,4.321.813c2.841-6.95,8.484-11.692,15.006-11.712,7.831-.024,14.439,6.774,16.456,16.048a8.8,8.8,0,0,1,4.794-1.477c4.884-.015,9.016,4.178,10.329,9.933l2.649-.008c2.259-.007,4.117,2.375,4.126,5.294" transform="translate(-565.122 -245.227)" fill="#fff"/>
            <path id="Trazado_676988" data-name="Trazado 676988" d="M467.462,627.761a6.112,6.112,0,0,1-1.2,3.75,3.68,3.68,0,0,1-2.9,1.569l-87.965.268c-2.259.006-4.118-2.375-4.127-5.294a6.119,6.119,0,0,1,1.2-3.75,3.683,3.683,0,0,1,2.9-1.57l4.158-.012c1.627-4.926,5.409-8.377,9.823-8.391a9.684,9.684,0,0,1,7.616,4.054c2.575-5.676,7.342-9.5,12.815-9.514a11.848,11.848,0,0,1,4.322.813c2.841-6.95,8.484-11.692,15.005-11.712,7.831-.024,14.439,6.775,16.456,16.048a8.8,8.8,0,0,1,4.794-1.477c4.884-.015,9.016,4.177,10.329,9.933l2.649-.008c2.259-.007,4.117,2.375,4.126,5.294" transform="translate(-360.118 -332.447)" fill="#fff"/>
          </g>
        </g>
        <g id="Grupo_987120" data-name="Grupo 987120" transform="translate(6404 -8597.803)">
          <g id="Grupo_987119" data-name="Grupo 987119" clip-path="url(#clip-path-4)">
            <path id="Trazado_676989" data-name="Trazado 676989" d="M216.172,194.061c5.157.64,5.676,1.158,6.316,6.316.639-5.158,1.158-5.676,6.316-6.316-5.158-.64-5.677-1.158-6.316-6.316-.64,5.158-1.159,5.676-6.316,6.316" transform="translate(145.918 -77.303)" fill="#6b8dfc"/>
            <path id="Trazado_676990" data-name="Trazado 676990" d="M87.276,411.789c5.157.64,5.676,1.158,6.316,6.316.639-5.158,1.158-5.676,6.316-6.316-5.158-.64-5.677-1.158-6.316-6.316-.64,5.158-1.159,5.676-6.316,6.316" transform="translate(350.637 -166.952)" fill="#f1a23a"/>
            <path id="Trazado_676991" data-name="Trazado 676991" d="M373.115,432.9c4.826.6,5.312,1.084,5.91,5.91.6-4.826,1.085-5.311,5.911-5.91-4.826-.6-5.312-1.084-5.911-5.91-.6,4.826-1.084,5.311-5.91,5.91" transform="translate(-102.537 -175.812)" fill="#f1a23a"/>
          </g>
        </g>
        <g id="Grupo_987122" data-name="Grupo 987122" transform="translate(6508 -8511.567)">
          <g id="Grupo_987121" data-name="Grupo 987121" clip-path="url(#clip-path-2)">
            <path id="Trazado_676992" data-name="Trazado 676992" d="M487.46,182.553s-10.779-.834-9.262-5.823c3.756-11.41,37.916-1.736,38.848.923s-20.834,22.467-32.061,13.841c-7.027-5.2,2.474-8.941,2.474-8.941" transform="translate(-472.544 -156.765)" fill="#6b8dfc"/>
            <path id="Trazado_676993" data-name="Trazado 676993" d="M483.116,187.005s6.474-3.369,29.587-4.9c.933,2.659-20.834,22.467-32.061,13.841-7.027-5.2,2.474-8.941,2.474-8.941" transform="translate(-468.2 -161.217)" fill="#6b8dfc"/>
            <path id="Trazado_676994" data-name="Trazado 676994" d="M496.532,202.063l-.671.419c.616-10.472,12.42-17,35.142-19.409l.066.628c-22.015,2.335-33.608,8.509-34.537,18.362" transform="translate(-497.013 -161.615)" fill="#f0f3f9"/>
            <path id="Trazado_676995" data-name="Trazado 676995" d="M485.7,182.466l-.034-.631c-1.959.1-3.882.231-5.712.382l.051.629c1.825-.151,3.741-.279,5.694-.381" transform="translate(-442.283 -161.105)" fill="#a4c4ea"/>
            <path id="Trazado_676996" data-name="Trazado 676996" d="M512.29,218.794s-5.35-5.114-.8-6.673c10.571-3.351,20.242,22.231,18.756,24.366s-26.526,1.755-26.139-11.31c.1-8.071,8.178-6.383,8.178-6.383" transform="translate(-501.196 -173.451)" fill="#6b8dfc"/>
            <path id="Trazado_676997" data-name="Trazado 676997" d="M512.547,223.573s12.042,10.321,17.961,17.693c-1.487,2.134-26.526,1.755-26.139-11.31.1-8.071,8.178-6.383,8.178-6.383" transform="translate(-501.454 -178.231)" fill="#6b8dfc"/>
            <path id="Trazado_676998" data-name="Trazado 676998" d="M539.68,233.894l.469-.423c-.934-1.034-22.962-25.31-31.117-22.7a4.938,4.938,0,0,0-1.757,1.262l.479.411a4.335,4.335,0,0,1,1.506-1.085c7.734-2.472,30.193,22.286,30.419,22.536" transform="translate(-512.806 -172.939)" fill="#f0f3f9"/>
            <path id="Trazado_676999" data-name="Trazado 676999" d="M93.962,455.361s10.779-.835,9.261-5.823c-3.756-11.41-37.916-1.736-38.848.923S85.209,472.928,96.436,464.3c7.027-5.2-2.474-8.941-2.474-8.941" transform="translate(184.527 -269.092)" fill="#a6bbff"/>
            <path id="Trazado_677000" data-name="Trazado 677000" d="M101.347,459.813s-6.474-3.369-29.587-4.9c-.933,2.659,20.834,22.467,32.061,13.841,7.027-5.2-2.474-8.941-2.474-8.941" transform="translate(177.143 -273.544)" fill="#a6bbff"/>
            <path id="Trazado_677001" data-name="Trazado 677001" d="M87.561,474.871l.671.419c-.616-10.472-12.42-17-35.142-19.409l-.066.628c22.015,2.335,33.608,8.509,34.537,18.362" transform="translate(206.325 -273.943)" fill="#d9e6f8"/>
            <path id="Trazado_677002" data-name="Trazado 677002" d="M78.043,491.6s5.35-5.114.8-6.673C68.267,481.579,58.6,507.161,60.082,509.3s26.526,1.755,26.139-11.31c-.1-8.071-8.178-6.383-8.178-6.383" transform="translate(204.27 -285.779)" fill="#a6bbff"/>
            <path id="Trazado_677003" data-name="Trazado 677003" d="M77.891,496.381S65.849,506.7,59.93,514.074c1.487,2.134,26.526,1.755,26.139-11.31-.1-8.071-8.178-6.383-8.178-6.383" transform="translate(204.421 -290.558)" fill="#a6bbff"/>
            <path id="Trazado_677004" data-name="Trazado 677004" d="M46.048,506.7l-.469-.423c.934-1.034,22.963-25.31,31.116-22.7a4.935,4.935,0,0,1,1.757,1.262l-.479.411a4.335,4.335,0,0,0-1.506-1.085c-7.734-2.472-30.193,22.287-30.419,22.536" transform="translate(220.485 -285.266)" fill="#d9e6f8"/>
          </g>
        </g>
      </g>
    </g>
    <g id="Enmascarar_grupo_984958" data-name="Enmascarar grupo 984958" transform="translate(0 233)" clip-path="url(#clip-path-6)">
      <g id="Grupo_987165" data-name="Grupo 987165" transform="translate(1132 2503.863)">
        <g id="Grupo_987164" data-name="Grupo 987164" transform="translate(14)" clip-path="url(#clip-path-7)">
          <g id="Grupo_987144" data-name="Grupo 987144">
            <g id="Grupo_987143" data-name="Grupo 987143" clip-path="url(#clip-path-7)">
              <path id="Trazado_677071" data-name="Trazado 677071" d="M145.568,299.055c33.3,19.225,33.3,50.4,0,69.624s-87.292,19.227-120.593,0-33.3-50.4,0-69.624,87.292-19.227,120.593,0" transform="translate(102.884 65.565)" fill="#e0e0e0"/>
            </g>
          </g>
          <path id="Trazado_677072" data-name="Trazado 677072" d="M94.842,325.277l-4.71-2.005,4.454-1.523Z" transform="translate(67.691 74.114)" fill="#263238"/>
          <g id="Grupo_987161" data-name="Grupo 987161">
            <g id="Grupo_987160" data-name="Grupo 987160" clip-path="url(#clip-path-7)">
              <path id="Trazado_677073" data-name="Trazado 677073" d="M83.261,338.17s52.73-27.629,53.61-24a5.435,5.435,0,0,1,.1,2.207c.043-.069.1-.137.134-.207l-.613,6.9s-3.684,3.54-8.224,4.024c-.023-.328-.171-2.366-.256-3.529a27.512,27.512,0,0,0-4.629,2.818c-3.339,2.507-5.342,6.671-8.759,11.57-2.49,3.57-7.183,5.437-14.213,6.852-7.565,1.521-14.369.428-16.38-1.524-1.6-1.556-1.018-4.621-.769-5.115" transform="translate(34.267 72.293)" fill="#263238"/>
              <path id="Trazado_677074" data-name="Trazado 677074" d="M84.481,344.047c.49-.578,2.3-2.826,4.779-5.305a102.105,102.105,0,0,1,7.433-7.135,68.77,68.77,0,0,0,6.2-6.774c2.416-3.59,5.063-7.134,6.64-11.157.749-1.91,1.286-4.157.835-11.19-.63-9.819-1.014-12.023-1.479-19.5l27.332-1.823c-.518,4.187-1.673,10.058-2.259,15.724-.738,7.161-3.049,7.97.132,14.957.935,2.056,2.271,4.01,2.5,6.258.378,3.654-2.3,6.981-5.4,8.953-2.568,1.635-5.583,2.446-8.067,4.173a26.79,26.79,0,0,0-6.361,7.039c-1.689,2.447-2.995,5.3-5.457,7.091-2.73,1.987-5.4,2.709-8.644,3.566A47.293,47.293,0,0,1,90.861,350.2c-5.645-.124-9.945-1.943-6.381-6.149" transform="translate(34.448 64.766)" fill="#b16668"/>
              <path id="Trazado_677075" data-name="Trazado 677075" d="M87.6,334.655c2.22-2.106,5.366-5.117,9.176-8.523a10.161,10.161,0,0,1,8.439.294c8.281,3.8,9.992,9.743,9.992,9.743a11.6,11.6,0,0,1-6.237,6.148c-9.059,4.608-25.755,4.252-26.161-.043-.26-2.735,2.1-5.063,4.791-7.62M133.736,305.1s.621,1.382,2.2,4.071,2,5.434.388,8.3c-2.129,3.794-4.939,5.084-7.829,6.025-3.039-8.016,2.117-16.451,5.245-18.4" transform="translate(34.229 70.28)" fill="#37474f"/>
              <path id="Trazado_677076" data-name="Trazado 677076" d="M26.236,310.682c-1.369,2.474,1.276,14.591,1.42,20.868.132,5.7.151,15.926,2.473,21.35,2.751,6.43,7.883,13.706,15.776,6.684,4.893-4.352,7.474-9.621,7.53-17.856.038-5.722-3.024-13.339-5.672-20.1-3.093-7.9-4.371-12.158-4.371-12.158Z" transform="translate(188.195 71.286)" fill="#263238"/>
              <path id="Trazado_677077" data-name="Trazado 677077" d="M51.729,278.13c1.66,13.176,1.679,20.713,2.263,29.2A111.631,111.631,0,0,0,56.062,320.5c1.161,5.414,3.468,12.671,4.6,16.1,1.583,4.781,2.733,7.782,1.353,13.448a6.431,6.431,0,0,1-.495,1.3c-2.178,4.768-8.363,8.8-10.475,8.452a3.773,3.773,0,0,1-3.541,1.529,5.35,5.35,0,0,1-.7-.091,5.139,5.139,0,0,1-.711-.194,6.558,6.558,0,0,1-3.771-3.831,10.878,10.878,0,0,1-.428-1.165,44.614,44.614,0,0,1-2.03-13.725c-.082-3.092-.564-8.48-1.254-13.416s-4.41-18.437-6.448-25.839c-1.688-6.127-4.987-18.707-4.987-18.707Z" transform="translate(177.356 64.067)" fill="#b16668"/>
              <path id="Trazado_677078" data-name="Trazado 677078" d="M48.91,330.847c-5.261-1.6-20.426-.234-22.245,6.678.444,6.3,1.12,10.319,5.833,15.39,6.262,6.739,13.055-1.686,15.5-6.858s1.874-11.885.908-15.211" transform="translate(190.88 76.071)" fill="#37474f"/>
              <path id="Trazado_677079" data-name="Trazado 677079" d="M108.086,136.634c5.3,12.96,10.32,27.225,11.148,54.669,1.093,36.185,2.783,49.261,3.139,53.612.609,7.433,3.8,14.166,7.255,35.5s1.628,60.506,1.628,60.506a25.7,25.7,0,0,1-13.215,6.154c-7.532,1.11-10.844-1.843-10.844-1.843s-14.327-57.745-17.937-70.51-14.377-54.8-14.377-54.8l-4.258,35.332s4.258,11.141,3.023,30.094S65.708,339.8,65.708,339.8s-4.016,3.064-12.152,2.663c-8.172-.4-11.4-3.216-11.4-3.216s-7.3-70.362-8.513-91.7-4.207-77.487,3.588-110.914Z" transform="translate(102.245 31.474)" fill="#455a64"/>
              <path id="Trazado_677080" data-name="Trazado 677080" d="M73.973,177.952l9.1,40.64-4.259,35.332L80.2,218.292l-7.96-33.319c-5.214-.94-17.272-6.441-20.991-15.068,8.4,7.841,22.726,8.046,22.726,8.046M96.648,152.6c-1.1-3.4-2.259-6.769-3.532-10.158a51.008,51.008,0,0,1,5.19,9.531,95.37,95.37,0,0,1,3.678,10.2c1.015,3.468,1.894,6.974,2.562,10.523a70.4,70.4,0,0,1,1.329,10.754c-1.062-3.461-2.062-6.9-3.057-10.34-1.013-3.434-1.975-6.874-3.014-10.288-1-3.428-2.068-6.828-3.153-10.228m5.021-2.88c-1.282-2.039-2.57-4.082-3.764-6.242a38.6,38.6,0,0,1,5.193,5.2,52.917,52.917,0,0,1,4.32,5.938,46.975,46.975,0,0,1,3.392,6.529,28.965,28.965,0,0,1,2.062,7.072l-3.652-6.275c-1.233-2.053-2.456-4.1-3.735-6.125-1.245-2.042-2.549-4.05-3.817-6.1m12.094,136.743q3.949,16.5,7.468,33.09-4.809-16.278-9.191-32.65c-2.953-10.919-5.769-21.824-8.573-32.821C100.8,243.049,98.79,231.9,97.06,220.716c-1.753-11.176-3.209-22.39-4.533-33.624,2.194,11.1,4.232,22.219,6.278,33.326,2.084,11.1,4.186,22.189,6.874,33.123,2.744,10.918,5.485,21.925,8.083,32.919M49.475,234.245c0,4.905-.074,9.843.224,14.681.319,4.859.839,9.771,1.307,14.662l1.4,14.7q1.416,14.7,2.494,29.44-2.392-14.587-4.261-29.243C49.4,268.7,48.2,258.954,47.427,249.065c-.415-9.954-.012-19.768.428-29.626.469-9.844,1.211-19.676,2.29-29.473l-.52,29.53c-.05,4.919-.146,9.835-.149,14.749" transform="translate(94.057 32.811)" fill="#37474f"/>
              <path id="Trazado_677081" data-name="Trazado 677081" d="M167.273,72.917c-1.523-.194-1.688,1.26-.673,2.25,2.413,2.351,6.507,1.859,8.541,2.756.48.274,6.325,4.78,6.6,6.283-1.592-.551-6.469-2.691-8.088-3.156-.469-.134-1.783-.272-5.812-.662a5.675,5.675,0,0,0-2.093-.01c-.463.183-.872,1.237.085,2.159,1.713,1.652,4.56,1.341,6.836,2.039,1.112.308,4.576,1.485,5.754,3.553-3.345-.666-5.444-.365-10.424.519-.583.1-.661.418-.6.8a2.046,2.046,0,0,0,1.239,1.417c1.467.621,3.441.156,5.678.262a14.43,14.43,0,0,1,6.468,2.285,6.229,6.229,0,0,1,1.854,1.732,30.834,30.834,0,0,1,1.519,2.836,10.7,10.7,0,0,0,10.793,5.217,1.5,1.5,0,0,0,.77-.293,1.558,1.558,0,0,0,.3-1.383c-.589-4.8-3.3-9.025-5.4-13.38-.69-1.433-6.09-12.1-6.354-12.452-.114-.154-11.909-2.247-12.274-2.261-1.126-.047-3.254-.324-4.722-.511" transform="translate(-125.953 16.792)" fill="#9a4a4d"/>
              <path id="Trazado_677082" data-name="Trazado 677082" d="M188.158,88.337c-3.392,2.142-29.814,19.063-29.814,19.063s-23.423-9.386-28.264-11.745c-6.668-3.249-9.02-7.664-11.122-11.523-3.013-5.537-3.954-5.764-6.836-7.323-1.79-.968-5.87-3.782-6.018-3.877a5.577,5.577,0,0,0-2.042-.568c-.373-.075-1.93-.3-2.306-.359-2.164-.324-3.514-.406-5.678-.73a9.428,9.428,0,0,0-2.009-.155.572.572,0,0,0-.528.9,4.782,4.782,0,0,0,2.651,2.806,16.588,16.588,0,0,0,3.821,1.067c.8.165,1.249.194,2.865.534a3.76,3.76,0,0,1,1.708.978,44.371,44.371,0,0,1,6.72,6.751c-3.718-.856-5.586-1.731-7.6-3.446s-3.547.845-1.556,3.7c2.291,3.291,5.358,3.525,8.291,7.958s-.45,9.252,5.838,12.521c2.712,1.31,6.256,2.4,10.309,5.356,5.566,4.054,22.923,16.629,26.671,18.627,8.19,4.367,8.977,3.721,24.977-5.6,22.577-13.151,26.448-16.033,26.448-16.033L208.357,78.1c-6.427,1.855-8.795,3.034-20.2,10.233" transform="translate(-49.951 16.38)" fill="#b16668"/>
              <path id="Trazado_677083" data-name="Trazado 677083" d="M160.492,75.59c-5.364.682-8.878.682-20.447,8.077C128.9,90.791,107.907,105.8,107.907,105.8l-7.984-3.21s.71,3.9-1.959,9.349a29.319,29.319,0,0,1-6.608,8.54s.548.389,7.5,5.171,9.942,5.14,12.119,5.3,4.648-1.531,9.685-4.246,33.812-17.277,33.812-17.277Z" transform="translate(0.535 17.412)" fill="#37474f"/>
              <path id="Trazado_677084" data-name="Trazado 677084" d="M170.489,82.127a18.933,18.933,0,0,1,4.539,2.121c.527.391.241-1.11-1.993-2.536s-4-1.126-4.542-1.815Z" transform="translate(-109.131 18.404)" fill="#9a4a4d"/>
              <path id="Trazado_677085" data-name="Trazado 677085" d="M123.145,169.487c-2.941-12.414-6.729-20.271-6.511-22.984.944-11.767,9.235-25.773,10.735-32.539,3.264-14.735-4.55-28.32-7.813-31.494,0,0-6.245-2.35-10.483-3.675-2.547-.8-7.086-1.844-10.991-2.676-8.673-1.847-12.326-2.005-15.624-1.9-1.627.052-9.368.838-9.368.838-2.352.378-6.638.851-6.645.858s-5.589,3.949-11.154,12.449c-4.248,6.486-6.788,11.982-8.465,26.391-2.135,18.343-4.727,38.856-5.623,51.7,14.591,10.435,61.462,13.134,81.941,3.035" transform="translate(94.581 17.09)" fill="#f5f5f5"/>
              <path id="Trazado_677086" data-name="Trazado 677086" d="M105.776,35.518a8.928,8.928,0,0,1,2.674,4.616c.47,2.383-.271,4.9.294,7.258.968,4.049,5.532,6.778,5.671,10.939.159,4.732-5.591,8.48-4.6,13.108.46,2.14,2.332,3.857,2.44,6.043.125,2.573-2.188,4.542-4.351,5.944a6.448,6.448,0,0,0,.364-4.165,14.836,14.836,0,0,1-5.367,5.219,7.435,7.435,0,0,1-7.234-.032,1.459,1.459,0,0,0-.773-.325c-.385.007-.672.34-.928.626-4.234,4.741-11.718,3.317-17.253,3.036a28.4,28.4,0,0,1-7.677-1.1A24.473,24.473,0,0,1,63.2,83.549a2.252,2.252,0,0,0-.759-.386,2.422,2.422,0,0,0-.886.044,14.4,14.4,0,0,1-5-.05c-1.994-.374-3-1.339-4.355-2.712a7.262,7.262,0,0,1-1.688-2.458c-.08-.205-.625-2.617-.311-2.611a12.539,12.539,0,0,1-4.268-.575,4.242,4.242,0,0,1-2.8-3.041c1.56,1.453,4.36.426,5.3-1.486s.5-4.218-.262-6.207-1.847-3.889-2.18-6,.316-4.578,2.206-5.565a8.013,8.013,0,0,1-3.861-1.158,2.76,2.76,0,0,1-.944-3.564,1.97,1.97,0,0,0,2.984.341,3.71,3.71,0,0,0,.938-3.215c-.137-1.153-.56-2.253-.76-3.4a10.388,10.388,0,0,1,1.736-7.439,15.273,15.273,0,0,1,5.906-5,19.046,19.046,0,0,0,4.439-2.5c1.529-1.387,2.469-3.3,4.1-4.587a18.3,18.3,0,0,1,5.872-2.79,24.353,24.353,0,0,1,28.9,11.927,29.048,29.048,0,0,1,6.715,3.126,12.453,12.453,0,0,1,1.553,1.271" transform="translate(106.036 4.165)" fill="#263238"/>
              <path id="Trazado_677087" data-name="Trazado 677087" d="M91.272,69.9a8.033,8.033,0,0,0,7.355-2.163c4.07-3.8,4.722-7.928,3.163-10.818-1.281-2.376-4.739-4.085-7.349-2.729-2.79,1.449-2.971,2.784-4.116,4.567-1.174,1.83-3.627.146-2.221-7.25-5.012-2.771-3.566-11.243-6.117-14.925C78,30.814,70.666,31.706,68.226,32.818a9.593,9.593,0,0,0-9.8-1.33c-3.618,1.581-6.217,5.268-8.4,18.432-2.229,13.419-.5,22.593,2.467,25.687,2.044,2.13,6.011,3.756,10.871,3.83l-.4,5.091S47.959,97.84,65.88,97.825A28.155,28.155,0,0,0,86.887,88.04l1.588-20.479s.17,1.654,2.8,2.336" transform="translate(110.558 7.075)" fill="#b16668"/>
              <path id="Trazado_677088" data-name="Trazado 677088" d="M75.386,59.084a3.986,3.986,0,0,0,4.458,3.406A3.919,3.919,0,0,0,83.3,58.122Z" transform="translate(97.344 13.388)" fill="#9a4a4d"/>
              <path id="Trazado_677089" data-name="Trazado 677089" d="M80.263,59.177a3.934,3.934,0,0,1-3.39,3.091,4.06,4.06,0,0,1-1.406-.089,4.033,4.033,0,0,1,4.8-3" transform="translate(100.313 13.61)" fill="#f28f8f"/>
              <path id="Trazado_677090" data-name="Trazado 677090" d="M83.892,40.3l5.262-1.308a2.635,2.635,0,0,0-3.225-1.986A2.783,2.783,0,0,0,83.892,40.3" transform="translate(81.138 8.506)" fill="#263238"/>
              <path id="Trazado_677091" data-name="Trazado 677091" d="M68.168,39.81,73.082,42.9a2.72,2.72,0,0,0-.787-3.913,3.093,3.093,0,0,0-4.127.827" transform="translate(115.96 8.874)" fill="#263238"/>
              <path id="Trazado_677092" data-name="Trazado 677092" d="M65.058,40.422c.33,0,.673,0,1.026,0,3.3.044,7.578.442,10.042,1.48,3.087,1.305,4.076,2.477,5.856,2.692,1.907.213,3.258-.689,6.824-1.223,2.842-.42,7.382.205,10.822.944.369.08.726.161,1.067.242a1.6,1.6,0,0,1,.961,1.841,3.962,3.962,0,0,1-1.313,1.86,2.438,2.438,0,0,0-.466.755c-.561,1.33-1.161,3.933-2.083,5.313a7.2,7.2,0,0,1-1.655,1.8,5.94,5.94,0,0,1-.786.5c-.145.074-.289.144-.443.213a6.8,6.8,0,0,1-1.286.407c-.071.014-.143.028-.213.039-.107.018-.221.038-.335.053s-.228.027-.347.039a8.687,8.687,0,0,1-1.091.036c-.15,0-.3-.009-.463-.016-.183-.015-.376-.03-.575-.053-4.429-.495-6-2.717-6.805-4.915s-.116-5.092-2.158-5.321a1.551,1.551,0,0,0-.2-.011,1.29,1.29,0,0,0-.185.006c-1.555.161-1.747,2.864-2.969,4.689a8.276,8.276,0,0,1-1.742,1.943c-.127.1-.255.2-.39.287-.069.048-.137.091-.207.133s-.14.085-.214.125-.127.071-.193.1c-.112.057-.16.08-.208.1s-.108.052-.165.074c-.036.017-.075.034-.113.05a6.894,6.894,0,0,1-1.858.469l-.169.017a9.985,9.985,0,0,1-2.184-.044c-4.143-.5-5.246-2.976-5.72-4.518s-.357-4.194-.5-5.613a1.6,1.6,0,0,0-.277-.76,3.607,3.607,0,0,1-.652-2.125,1.736,1.736,0,0,1,1.357-1.617M85.216,50.616a5.907,5.907,0,0,0,1.131,3.062h0a6.256,6.256,0,0,0,4.594,2.206,5.691,5.691,0,0,0,4.935-1.566c.063-.064.122-.127.176-.189s.112-.127.164-.189.1-.119.141-.18.081-.11.118-.164.063-.086.091-.129.055-.079.078-.117c.043-.065.085-.133.124-.2v0q.179-.3.316-.579l.009-.014c.058-.121.113-.237.165-.351.091-.2.169-.4.234-.566.014-.038.028-.075.042-.11s.028-.07.041-.1c.545-1.408,1.35-4.2.679-4.934-.648-.7-2.591-1.629-5.929-1.7-.112-.009-.233-.009-.356-.009a14.976,14.976,0,0,0-1.54.071c-.2.02-.4.043-.6.069a14.521,14.521,0,0,0-1.529.284c-.165.039-.324.082-.474.125-.181.05-.353.107-.518.165q-.052.017-.1.037c-.066.023-.129.047-.191.075a3.138,3.138,0,0,0-1.094.643c-.784.811-.849,2.71-.7,4.364M66.079,47.774c.1,1.159.3,3.66,2.463,5a5.914,5.914,0,0,0,2.379.794,5.661,5.661,0,0,0,5.231-1.6l.016-.02c.041-.043.076-.084.109-.123s.084-.1.122-.143c.02-.023.041-.049.06-.075.054-.07.109-.143.159-.214s.114-.166.169-.252c.028-.041.053-.081.079-.123.015-.023.027-.047.041-.07s.041-.07.059-.1a.894.894,0,0,0,.044-.08,7.278,7.278,0,0,0,.469-1.042c.565-1.571,1.006-3.424.511-4.386S75.2,43.117,72.9,42.568c-.53-.125-1.031-.219-1.5-.283l-.18-.022c-.066-.009-.13-.016-.193-.022-.18-.021-.357-.034-.528-.047-.063,0-.127-.01-.192-.011-.086,0-.169-.009-.251-.009-.143-.006-.283-.006-.417,0-.276,0-.536.016-.778.042l-.186.021a.244.244,0,0,0-.048.006c-.041,0-.082.009-.127.017-.063.007-.128.02-.188.03-.078.012-.156.03-.229.043-.135.028-.26.06-.376.1-.025.006-.044.011-.068.018a3.14,3.14,0,0,0-.882.4c-.8.555-.8,3.449-.678,4.934" transform="translate(93.376 9.311)" fill="#37474f"/>
              <path id="Trazado_677093" data-name="Trazado 677093" d="M78.6,54.661l7.318,3.751,2.3-9.407c-.172-1.44-.346-2.925-1.576-3.131Z" transform="translate(88.507 10.567)" fill="#9a4a4d"/>
              <path id="Trazado_677094" data-name="Trazado 677094" d="M56.084,44.666,67.33,50.973a12.44,12.44,0,0,0-1.9,1.287l-9.813-5.245Z" transform="translate(137.669 10.289)" fill="#37474f"/>
              <path id="Trazado_677095" data-name="Trazado 677095" d="M65.3,71.392c6.991.247,16.513-1.517,19.337-5.752C82.9,70.3,77.807,72.413,73.811,73.212a41.465,41.465,0,0,1-8.652.838Z" transform="translate(108.625 15.12)" fill="#9a4a4d"/>
              <path id="Trazado_677096" data-name="Trazado 677096" d="M70.581,47.479a2.072,2.072,0,1,0,2.3-1.821,2.072,2.072,0,0,0-2.3,1.821" transform="translate(111.893 10.514)" fill="#263238"/>
              <path id="Trazado_677097" data-name="Trazado 677097" d="M84.8,46.218A2.072,2.072,0,1,0,87.1,44.4a2.072,2.072,0,0,0-2.3,1.821" transform="translate(80.176 10.224)" fill="#263238"/>
              <path id="Trazado_677098" data-name="Trazado 677098" d="M158.682,55.547c5.431-2.658,14.056,3.567,14.056,6.154l16.6-9.325c0-2.656-9.324-9.324-14.708-5.8Z" transform="translate(-111.141 10.497)" fill="#fed947"/>
              <path id="Trazado_677100" data-name="Trazado 677100" d="M187.8,67.432v.023c1.469-.769,3.52-.723,6.154.816l31.7,18.321c-1.469-7.343-1.912-13.659-1.073-19.51L210.5,58.924c-2.913-1.7-5.1-1.563-6.621-.536Z" transform="translate(-183.291 13.274)" fill="#fed947"/>
              <path id="Trazado_677102" data-name="Trazado 677102" d="M145.921,179.458l16.591-9.578V101.417L145.921,111Z" transform="translate(-68.619 23.361)" fill="#c4a21e"/>
              <path id="Trazado_677104" data-name="Trazado 677104" d="M146.543,84.972c1.329,4.779,15.705,37.617,15.705,37.617l16.591-9.582s-14.348-32.6-15.747-37.358c-1.328-4.755.047-21.376.047-24.545l-16.6,9.324c0,3.194-1.4,19.814,0,24.545" transform="translate(-84.947 11.772)" fill="#eec936"/>
              <path id="Trazado_677105" data-name="Trazado 677105" d="M235.977,122.127c-.668-1.529-7.62-17.455-12.044-28.163l-.047-.112v-.015c-1.02-2.464-1.907-4.664-2.571-6.354-.528-1.405-.859-2.361-1.019-2.933-.48-1.625-.693-4.731-.629-9.219.023-2.042.1-4.41.23-7.233.052-1.224.11-2.389.161-3.45l.08-1.646c.064-1.117.135-2.48.135-3.166A3.652,3.652,0,0,0,219,57.832c-2.063-2.073-5.882-4.171-9.191-4.171a6.138,6.138,0,0,0-2.71.581,5.993,5.993,0,0,0-2.8,3.086A37.7,37.7,0,0,0,201.2,68.075c-.792,5.548-.455,11.681,1.058,19.308l.266,1.331-32.872-19a7.66,7.66,0,0,0-3.767-1.216,3.808,3.808,0,0,0-1.788.42c-2.046,1.03-2.959,3.894-2.959,6.276-.044,6.625,4.138,12.232,4.976,13.289l1.2,1.507-1.85-.534a4.969,4.969,0,0,0-1.249-.151c-1.961,0-4.3,1.069-4.3,6.167,0,4.326,2.628,11.081,7.5,15.083l.6.493-.619.472c-.011.009-1.847,1.565-1.847,7.019,0,3.7,4.331,12.829,8.59,15.294l.493.287-.247.514a18.363,18.363,0,0,0-1.287,7.281c-.038,5.364,4.5,13.741,11.327,17.668,6.272,3.63,45.062,26.058,51.56,29.815Z" transform="translate(-159.291 12.361)" fill="#fff"/>
              <path id="Trazado_677106" data-name="Trazado 677106" d="M209.923,54.39h0a5.507,5.507,0,0,0-2.435.517,5.41,5.41,0,0,0-2.514,2.792,37.152,37.152,0,0,0-3.056,10.583c-.781,5.47-.447,11.537,1.053,19.1l.529,2.664-2.351-1.36-31.7-18.325a7.062,7.062,0,0,0-3.455-1.131,3.226,3.226,0,0,0-1.52.359c-1.8.907-2.612,3.527-2.612,5.731-.042,6.415,4.027,11.869,4.843,12.9l2.359,2.979L165.4,90.16a4.442,4.442,0,0,0-1.08-.128c-2.445,0-3.685,1.868-3.685,5.553,0,4.184,2.549,10.726,7.275,14.607l1.235.962-1.239.942c-.016.014-1.636,1.491-1.636,6.555,0,3.487,4.258,12.433,8.284,14.763l.981.573-.487,1.025a17.867,17.867,0,0,0-1.227,7.025c-.037,5.187,4.381,13.306,11.02,17.128,6.023,3.484,42.03,24.3,50.636,29.28V122.372c-.914-2.093-7.666-17.573-12-28.057l-.091-.234c-.931-2.25-1.827-4.465-2.539-6.276-.529-1.41-.866-2.382-1.026-2.954-.507-1.719-.722-4.8-.657-9.41.023-2.044.1-4.417.23-7.25.053-1.227.111-2.391.162-3.45l.081-1.663c.062-1.1.133-2.452.133-3.124a3.549,3.549,0,0,0-1.1-1.575c-1.972-1.982-5.613-3.989-8.753-3.989m0-1.23c3.569,0,7.54,2.256,9.625,4.352A4.168,4.168,0,0,1,221,59.952c0,.62-.054,1.753-.134,3.2s-.162,3.2-.244,5.1c-.107,2.319-.2,4.827-.229,7.214-.054,3.8.081,7.266.607,9.046.162.579.513,1.577,1,2.872.674,1.713,1.577,3.951,2.616,6.458v.014c4.678,11.325,12.091,28.27,12.091,28.27v68.463s-45.634-26.384-52.483-30.348-11.675-12.484-11.634-18.2a18.684,18.684,0,0,1,1.347-7.549c-4.449-2.575-8.9-11.878-8.9-15.828,0-5.918,2.09-7.509,2.09-7.509-4.827-3.964-7.725-10.772-7.725-15.558,0-5.882,3.048-6.783,4.915-6.783a5.524,5.524,0,0,1,1.421.176c-1.713-2.157-5.15-7.509-5.11-13.67,0-2.616,1.011-5.676,3.29-6.822a4.415,4.415,0,0,1,2.072-.49,8.207,8.207,0,0,1,4.076,1.3l31.7,18.321c-1.456-7.334-1.9-13.657-1.064-19.507a38.444,38.444,0,0,1,3.155-10.921,6.613,6.613,0,0,1,3.087-3.385,6.744,6.744,0,0,1,2.981-.643" transform="translate(-159.405 12.245)" fill="#dab318"/>
              <path id="Trazado_677107" data-name="Trazado 677107" d="M121.235,116.231a6.29,6.29,0,0,1,.886-2.984,6.469,6.469,0,0,1,2.145-2.261L134.8,104.9a6.713,6.713,0,0,1,6.037,0h.023l16.807,9.721a6.264,6.264,0,0,1,2.145,2.26,6.367,6.367,0,0,1,.886,2.985v72.7a6.657,6.657,0,0,1-3.03,5.244L147.132,203.9a6.134,6.134,0,0,1-3.03.723,6.289,6.289,0,0,1-3.007-.7.023.023,0,0,0-.023-.023l-16.853-9.743a6.617,6.617,0,0,1-3.03-5.222v-.023Z" transform="translate(-36.375 23.999)" fill="#fed947"/>
              <g id="Grupo_987156" data-name="Grupo 987156" transform="translate(107.726 140.882)" opacity="0.53">
                <g id="Grupo_987155" data-name="Grupo 987155" transform="translate(0)">
                  <g id="Grupo_987154" data-name="Grupo 987154" clip-path="url(#clip-path-10)">
                    <path id="Trazado_677108" data-name="Trazado 677108" d="M121.189,123.574v78.67a6.13,6.13,0,0,0,3.03-.722l10.535-6.084a6.657,6.657,0,0,0,3.03-5.245v-72.7a6.367,6.367,0,0,0-.886-2.984Z" transform="translate(-121.189 -114.506)" fill="#c4a21e"/>
                  </g>
                </g>
              </g>
              <g id="Grupo_987159" data-name="Grupo 987159" transform="translate(85.745 128.185)">
                <g id="Grupo_987158" data-name="Grupo 987158">
                  <g id="Grupo_987157" data-name="Grupo 987157" clip-path="url(#clip-path-11)">
                    <path id="Trazado_677109" data-name="Trazado 677109" d="M121.909,113.247l21.983,12.7,15.709-9.066a6.255,6.255,0,0,0-2.143-2.261l-16.807-9.72h-.023a6.716,6.716,0,0,0-6.039,0l-10.534,6.083a6.472,6.472,0,0,0-2.146,2.261" transform="translate(-121.91 -104.186)" fill="#f1cf49"/>
                  </g>
                </g>
              </g>
              <path id="Trazado_677110" data-name="Trazado 677110" d="M158,81.755c10.452,4.246,12.866,14.482,7.062,25.954-5.086,10.056-28.293,33.3-31.48,37.334s-5.78,5.38-13.786,8.5-29.231,8.957-35.406,10.8-10.175,5.327-16.057,7.888-13.924,2.2-17.951,1.438c-1.789-.338-3.521-1.828-5.064-3.775-2.814-.795-3.176-1.95-2.964-2.931-2.494-.4-3.545-1.088-2.581-2.8,2.009-3.567,8.754-2.879,14.935-4.114,5.9-1.179,10.567-3.627,9.091-4.439-2.975-1.635-7.953.2-12.454-2.473-2.639-1.571-2.126-3.91-.861-3.849,2.36.114,7.013-1.33,12.778-1.457,5.256-.117,11.8,2.085,15.665.605,9.047-3.466,36.244-16.815,36.244-16.815l26.871-32.432S147.447,85.45,158,81.755" transform="translate(56.786 18.832)" fill="#b16668"/>
              <path id="Trazado_677111" data-name="Trazado 677111" d="M37.986,136.417l9.148-5.042L73.158,99.163s7.33-16.081,16.489-18.245c8.166,3.419,11.04,8.317,12.109,12.278.669,2.478,1.731,13.622-5.535,23.134-8.484,11.105-21.887,24.456-26.929,29.281-3.76,3.6-6.63,4.469-12.482,6.639s-10.163,3.4-10.163,3.4c-5.689-5.158-9.028-11.366-8.662-19.232" transform="translate(124.49 18.639)" fill="#37474f"/>
            </g>
          </g>
          <g id="Grupo_987163" data-name="Grupo 987163">
            <g id="Grupo_987162" data-name="Grupo 987162" clip-path="url(#clip-path-7)">
              <g id="Grupo_987166" data-name="Grupo 987166" transform="translate(79.103 11.001)">
                <path id="Trazado_677112" data-name="Trazado 677112" d="M164.329,13.312a30.9,30.9,0,0,1,7.083,21.641L171,38.477a30.984,30.984,0,0,1-61.508-5.672l.24-3.542a30.986,30.986,0,0,1,54.6-15.951" transform="translate(-106.857 0.491)" fill="#fff"/>
                <path id="Trazado_677113" data-name="Trazado 677113" d="M166.81,12.078a33.686,33.686,0,0,1-.3,43.426l3.343,9.9a1.954,1.954,0,0,1-2.8,2.334l-9.14-5.063a33.635,33.635,0,1,1,8.892-50.6m-45.7-2.268a30.9,30.9,0,0,0-10.885,20l-.234,3.541a30.983,30.983,0,0,0,61.515,5.565l.406-3.526a30.986,30.986,0,0,0-50.8-25.579" transform="translate(-107.35 -0.001)" fill="#455a64"/>
                <path id="Trazado_677114" data-name="Trazado 677114" d="M133.862,48.971a4.65,4.65,0,0,1-3.395-1.471L119.928,36.246a4.649,4.649,0,1,1,6.788-6.356L133.56,37.2l16.2-20.512a4.65,4.65,0,0,1,7.3,5.762L137.511,47.2a4.646,4.646,0,0,1-3.452,1.763c-.066,0-.133,0-.2,0" transform="translate(-104.74 3.436)" fill="#fed947"/>
              </g>
            </g>
          </g>
        </g>
      </g>
    </g>
  </g>
</svg>
