<svg xmlns="http://www.w3.org/2000/svg" xmlns:xlink="http://www.w3.org/1999/xlink" width="55.335" height="55.335" viewBox="0 0 55.335 55.335">
  <defs>
    <clipPath id="clip-path">
      <path id="path147" d="M0-682.665H55.335v55.335H0Z" transform="translate(0 682.665)"/>
    </clipPath>
  </defs>
  <g id="g141" transform="translate(0 682.665)">
    <g id="g143" transform="translate(0 -682.665)">
      <g id="g145" transform="translate(0 0)" clip-path="url(#clip-path)">
        <g id="g151" transform="translate(1.081 3.891)">
          <path id="path153" d="M-593.023-423.46a6.86,6.86,0,0,1,.865,3.334,6.867,6.867,0,0,1-6.867,6.867h-39.439a6.867,6.867,0,0,1-6.867-6.867,6.86,6.86,0,0,1,.865-3.334l19.3-33.573a7.346,7.346,0,0,1,6.423-3.779,7.346,7.346,0,0,1,6.423,3.779Z" transform="translate(645.332 460.812)" fill="#ffe891"/>
        </g>
        <g id="g155" transform="translate(5.404 8.214)">
          <path id="path157" d="M-501.166-398.244a2.555,2.555,0,0,1,.321,1.235,2.547,2.547,0,0,1-2.544,2.544h-39.439a2.547,2.547,0,0,1-2.544-2.544,2.554,2.554,0,0,1,.321-1.235l19.3-33.573a3.025,3.025,0,0,1,2.642-1.555,3.027,3.027,0,0,1,2.644,1.555Z" transform="translate(545.372 433.372)" fill="#ffda2d"/>
        </g>
        <path id="path159" d="M318.989-421.7h-4.323v-12.969h4.323Z" transform="translate(-289.16 454.768)" fill="#61729b"/>
        <g id="g161" transform="translate(25.506 37.394)">
          <path id="path163" d="M-24.505,0a2.161,2.161,0,0,1,2.162,2.162,2.161,2.161,0,0,1-2.162,2.162,2.161,2.161,0,0,1-2.162-2.162A2.161,2.161,0,0,1-24.505,0" transform="translate(26.667 0)" fill="#61729b"/>
        </g>
        <g id="g165" transform="translate(1.081 3.891)">
          <path id="path167" d="M-104.163-259.312l-8.323,14.479a6.86,6.86,0,0,0-.865,3.334,6.867,6.867,0,0,0,6.867,6.867h39.439a6.867,6.867,0,0,0,6.867-6.867,6.86,6.86,0,0,0-.865-3.334l-19.3-33.573a7.346,7.346,0,0,0-6.423-3.779,7.346,7.346,0,0,0-6.423,3.779l-6.668,11.6" transform="translate(113.35 282.185)" fill="none" stroke="#000" stroke-linecap="round" stroke-linejoin="round" stroke-miterlimit="10" stroke-width="2"/>
        </g>
        <g id="g169" transform="translate(5.404 8.214)">
          <path id="path171" d="M-28.842-441.091a2.547,2.547,0,0,1-2.544-2.544,2.555,2.555,0,0,1,.321-1.235l19.3-33.573A3.025,3.025,0,0,1-9.123-480a3.028,3.028,0,0,1,2.644,1.555l19.3,33.573a2.555,2.555,0,0,1,.321,1.235,2.547,2.547,0,0,1-2.544,2.544Z" transform="translate(31.387 479.999)" fill="none" stroke="#000" stroke-linecap="round" stroke-linejoin="round" stroke-miterlimit="10" stroke-width="2"/>
        </g>
        <g id="g173" transform="translate(25.506 37.394)">
          <path id="path175" d="M-49.01-24.505a2.161,2.161,0,0,1-2.162,2.162,2.161,2.161,0,0,1-2.162-2.162,2.161,2.161,0,0,1,2.162-2.162A2.161,2.161,0,0,1-49.01-24.505Z" transform="translate(53.333 26.667)" fill="none" stroke="#000" stroke-linecap="round" stroke-linejoin="round" stroke-miterlimit="10" stroke-width="2"/>
        </g>
        <path id="path177" d="M318.989-434.666h-4.323V-421.7h4.323Z" transform="translate(-289.16 454.768)" fill="none" stroke="#000" stroke-linecap="round" stroke-linejoin="round" stroke-miterlimit="10" stroke-width="2"/>
        <g id="g179" transform="translate(11.348 21.939)">
          <path id="path181" d="M-12.253,0a1.081,1.081,0,0,1,1.081,1.081,1.081,1.081,0,0,1-1.081,1.081,1.081,1.081,0,0,1-1.081-1.081A1.081,1.081,0,0,1-12.253,0" transform="translate(13.333 0)"/>
        </g>
      </g>
    </g>
  </g>
</svg>
