<svg xmlns="http://www.w3.org/2000/svg" width="49.672" height="48.017" viewBox="0 0 49.672 48.017">
  <g id="creador-de-contenido" transform="translate(-16 -24)">
    <path id="Trazado_609504" data-name="Trazado 609504" d="M59.311,144H94.082a3.311,3.311,0,0,1,3.311,3.311V173.8H56V147.311A3.311,3.311,0,0,1,59.311,144Z" transform="translate(-35.861 -107.582)" fill="#dadcde"/>
    <path id="Trazado_609505" data-name="Trazado 609505" d="M89.656,176h31.459a1.656,1.656,0,0,1,1.656,1.656v23.18H88v-23.18A1.656,1.656,0,0,1,89.656,176Z" transform="translate(-64.549 -136.27)" fill="#6b8dfc"/>
    <path id="Trazado_609506" data-name="Trazado 609506" d="M200,32h21.525a1.656,1.656,0,0,1,1.656,1.656v1.656H200Z" transform="translate(-164.959 -7.172)" fill="#dadcde"/>
    <path id="Trazado_609507" data-name="Trazado 609507" d="M149.8,32H121.656A1.656,1.656,0,0,0,120,33.656V68.426h28.148V33.656A1.656,1.656,0,0,1,149.8,32Z" transform="translate(-93.238 -7.172)" fill="#e9eef2"/>
    <path id="Trazado_609508" data-name="Trazado 609508" d="M168,80h8.279v6.623H168Z" transform="translate(-136.27 -50.205)" fill="#c3c6c7"/>
    <path id="Trazado_609509" data-name="Trazado 609509" d="M24,416H72.017a6.623,6.623,0,0,1-6.623,6.623H30.623A6.623,6.623,0,0,1,24,416Z" transform="translate(-7.172 -351.434)" fill="#c3c6c7"/>
    <path id="Trazado_609510" data-name="Trazado 609510" d="M202.567,419.311h-7.888a1.656,1.656,0,0,1-1.481-.915L192,416h13.246l-1.2,2.4A1.656,1.656,0,0,1,202.567,419.311Z" transform="translate(-157.787 -351.434)" fill="#e9eef2"/>
    <path id="Trazado_609511" data-name="Trazado 609511" d="M264,208h8.279v3.311H264Z" transform="translate(-222.336 -164.959)" fill="#c3c6c7"/>
    <path id="Trazado_609512" data-name="Trazado 609512" d="M286.3,115.261l-2.383-2.383a3,3,0,0,0-4.24,0L267.727,124.83a6.624,6.624,0,0,0-1.706,2.94L264,135.18l7.409-2.021a6.623,6.623,0,0,0,2.94-1.706L286.3,119.5a3,3,0,0,0,0-4.24Z" transform="translate(-222.336 -78.893)" fill="#fbe9d8"/>
    <path id="Trazado_609513" data-name="Trazado 609513" d="M269.2,289.5l-5.2,1.42,1.42-5.2Z" transform="translate(-222.336 -234.636)" fill="#6a7073"/>
    <path id="Trazado_609514" data-name="Trazado 609514" d="M316.143,150.623l-9.518,9.518,0,0L300,153.521l0,0L309.52,144Z" transform="translate(-254.611 -107.582)" fill="#3397e8"/>
    <path id="Trazado_609515" data-name="Trazado 609515" d="M0,0H14.05V3.512H0Z" transform="translate(47.453 48.009) rotate(-45)" fill="#2978b8"/>
    <path id="Trazado_609516" data-name="Trazado 609516" d="M398.673,112.878l2.383,2.383a3,3,0,0,1,0,4.24l-2.433,2.433L392,115.311l2.433-2.433a3,3,0,0,1,4.24,0Z" transform="translate(-337.09 -78.893)" fill="#ffe891"/>
    <path id="Trazado_609517" data-name="Trazado 609517" d="M0,0H2.342V9.366H0Z" transform="translate(54.904 36.421) rotate(-45)" fill="#ffd33a"/>
    <path id="Trazado_609518" data-name="Trazado 609518" d="M64.844,63.738H62.361V43.384l2.191-2.191a3.826,3.826,0,0,0,0-5.411L62.169,33.4a3.826,3.826,0,0,0-5.411,0l-1.02,1.02V28.967h2.484a.828.828,0,0,0,.828-.828V26.484A2.486,2.486,0,0,0,56.566,24H28.418a2.487,2.487,0,0,0-2.484,2.484V35.59H23.451a4.144,4.144,0,0,0-4.139,4.139V63.738H16.828a.828.828,0,0,0-.828.828,7.459,7.459,0,0,0,7.451,7.451H58.221a7.459,7.459,0,0,0,7.451-7.451A.828.828,0,0,0,64.844,63.738Zm-5.8,0V46.7l1.656-1.656v18.7Zm-34.771,0V41.385a.829.829,0,0,1,.828-.828h.828v20.7a.828.828,0,0,0,.828.828H54.91a.828.828,0,0,0,.828-.828V50.007l1.656-1.656V63.738ZM46.12,65.394l-.6,1.2a.823.823,0,0,1-.741.458H36.892a.823.823,0,0,1-.741-.458l-.6-1.2Zm8.79-27.8.9.9-8.35,8.35-.9-.9,2.312-2.312Zm6.623,4.281-5.452-5.452.485-.485,5.452,5.452Zm-12.9,6.138,8.35-8.35,1.313,1.313-8.35,8.35Zm-3.824-2.657q-.085.085-.168.173H42.492V43.869h3.8Zm-1.3,7.326,1.767,1.768-2.43.662Zm3.607,1.265-3.1-3.1.475-1.743a5.8,5.8,0,0,1,.949-1.943L50.8,52.519a5.8,5.8,0,0,1-1.943.949Zm4.9-2.552-.9-.9,8.35-8.35.9.9Zm7.451-17.456A2.156,2.156,0,0,1,61,34.57l2.383,2.383a2.17,2.17,0,0,1,0,3.069l-.192.192-5.452-5.452.192-.192a2.156,2.156,0,0,1,1.535-.636Zm-2.9-8.279a.829.829,0,0,1,.828.828v.828H55.738v-.828A.829.829,0,0,1,56.566,25.656Zm-28.976.828a.829.829,0,0,1,.828-.828H54.224a2.471,2.471,0,0,0-.142.828v9.592L50.717,39.44a.828.828,0,0,0-.775-.538H38.353a.828.828,0,1,0,0,1.656H49.6l-1.656,1.656h-6.28a.828.828,0,0,0-.828.828v3.311a.828.828,0,0,0,.828.828h1.8a7.445,7.445,0,0,0-.58,1.479l-.048.177H31.73a.828.828,0,1,0,0,1.656H42.386l-.452,1.656H36.7a.828.828,0,1,0,0,1.656h4.786l-.452,1.656h-9.3a.828.828,0,0,0,0,1.656h9.934a.826.826,0,0,0,.217-.029l7.409-2.021a7.463,7.463,0,0,0,3.308-1.92l1.483-1.482v8.764H27.59ZM20.967,39.73a2.487,2.487,0,0,1,2.484-2.484h2.484V38.9h-.828a2.486,2.486,0,0,0-2.484,2.484V63.738H20.967ZM58.221,70.361H23.451a5.8,5.8,0,0,1-5.736-4.967H33.7l.969,1.939a2.47,2.47,0,0,0,2.221,1.373H44.78A2.47,2.47,0,0,0,47,67.332l.969-1.939H63.958a5.8,5.8,0,0,1-5.736,4.967Z"/>
    <path id="Trazado_609519" data-name="Trazado 609519" d="M160.828,80.279h8.279a.828.828,0,0,0,.828-.828V72.828a.828.828,0,0,0-.828-.828h-8.279a.828.828,0,0,0-.828.828v6.623A.828.828,0,0,0,160.828,80.279Zm.828-6.623h6.623v4.967h-6.623Z" transform="translate(-129.098 -43.033)"/>
    <path id="Trazado_609520" data-name="Trazado 609520" d="M176.828,168a.828.828,0,0,0,0,1.656h1.656a.828.828,0,0,0,0-1.656Z" transform="translate(-143.443 -129.098)"/>
    <path id="Trazado_609521" data-name="Trazado 609521" d="M160.828,201.656h6.623a.828.828,0,0,0,0-1.656h-6.623a.828.828,0,1,0,0,1.656Z" transform="translate(-129.098 -157.787)"/>
    <path id="Trazado_609522" data-name="Trazado 609522" d="M160.828,233.656h6.623a.828.828,0,0,0,0-1.656h-6.623a.828.828,0,0,0,0,1.656Z" transform="translate(-129.098 -186.475)"/>
    <path id="Trazado_609523" data-name="Trazado 609523" d="M160.828,297.656h1.656a.828.828,0,0,0,0-1.656h-1.656a.828.828,0,0,0,0,1.656Z" transform="translate(-129.098 -243.852)"/>
    <path id="Trazado_609524" data-name="Trazado 609524" d="M288.828,73.656H293.8a.828.828,0,1,0,0-1.656h-4.967a.828.828,0,0,0,0,1.656Z" transform="translate(-243.852 -43.033)"/>
    <path id="Trazado_609525" data-name="Trazado 609525" d="M272.828,105.656h6.623a.828.828,0,1,0,0-1.656h-6.623a.828.828,0,1,0,0,1.656Z" transform="translate(-229.508 -71.721)"/>
    <path id="Trazado_609526" data-name="Trazado 609526" d="M272.828,137.656h6.623a.828.828,0,1,0,0-1.656h-6.623a.828.828,0,1,0,0,1.656Z" transform="translate(-229.508 -100.41)"/>
  </g>
</svg>
